<svg xmlns="http://www.w3.org/2000/svg">
  <symbol id="icon" fill="none" viewBox="0 0 16 16"><path fill="currentColor" d="M13.5 11a.5.5 0 0 1 .5.5v1a1.5 1.5 0 0 1-1.5 1.5h-9A1.5 1.5 0 0 1 2 12.5v-1a.5.5 0 0 1 1 0v1a.5.5 0 0 0 .5.5h4v-1.5a.5.5 0 0 1 1 0V13h4a.5.5 0 0 0 .5-.5v-1a.5.5 0 0 1 .5-.5Zm-1-9A1.5 1.5 0 0 1 14 3.5v1a.5.5 0 0 1-1 0v-1a.5.5 0 0 0-.5-.5h-4v1.5a.5.5 0 0 1-1 0V3h-4a.5.5 0 0 0-.5.5v1a.5.5 0 0 1-1 0v-1A1.5 1.5 0 0 1 3.5 2h9Z" opacity=".4"/><path fill="currentColor" d="M4.5 9a.5.5 0 0 1 0 1h-2a.5.5 0 0 1 0-1h2ZM9 9a.5.5 0 0 1 0 1H7a.5.5 0 0 1 0-1h2Zm4.5 0a.5.5 0 0 1 0 1h-2a.5.5 0 0 1 0-1h2Zm-9-3a.5.5 0 0 1 0 1h-2a.5.5 0 0 1 0-1h2Zm4.6.01a.5.5 0 0 1 0 .98L9 7H7a.5.5 0 0 1 0-1h2l.1.01ZM13.5 6a.5.5 0 0 1 0 1h-2a.5.5 0 0 1 0-1h2Z"/></symbol>
  <symbol id="icon-large" fill="none" viewBox="0 0 24 24"><path fill="currentColor" d="M20.5 17a.5.5 0 0 1 .5.5v2a1.5 1.5 0 0 1-1.5 1.5h-15A1.5 1.5 0 0 1 3 19.5v-2a.5.5 0 0 1 1 0v2a.5.5 0 0 0 .5.5h7v-2.5a.5.5 0 0 1 1 0V20h7a.5.5 0 0 0 .5-.5v-2a.5.5 0 0 1 .5-.5Zm-1-14A1.5 1.5 0 0 1 21 4.5v2a.5.5 0 0 1-1 0v-2a.5.5 0 0 0-.5-.5h-7v2.5a.5.5 0 0 1-1 0V4h-7a.5.5 0 0 0-.5.5v2a.5.5 0 0 1-1 0v-2A1.5 1.5 0 0 1 4.5 3h15Z" opacity=".48"/><path fill="currentColor" d="M6.5 14a.5.5 0 0 1 0 1h-3a.5.5 0 0 1 0-1h3Zm7 0a.5.5 0 0 1 0 1h-3a.5.5 0 0 1 0-1h3Zm7 0a.5.5 0 0 1 0 1h-3a.5.5 0 0 1 0-1h3Zm-14-5a.5.5 0 0 1 0 1h-3a.5.5 0 0 1 0-1h3Zm7 0a.5.5 0 0 1 0 1h-3a.5.5 0 0 1 0-1h3Zm7 0a.5.5 0 0 1 0 1h-3a.5.5 0 0 1 0-1h3Z"/></symbol>
  <use href="#icon"/>
</svg>
