<svg xmlns="http://www.w3.org/2000/svg">
  <symbol id="icon" fill="none" viewBox="0 0 16 16"><path fill="currentColor" d="M13.225 2.082a.5.5 0 0 1 .693.694l-.065.078-3.41 3.409A3 3 0 0 1 8 11a2.982 2.982 0 0 1-1.736-.557l-3.41 3.41a.5.5 0 0 1-.708-.706l3.41-3.41A2.983 2.983 0 0 1 5 8a3 3 0 0 1 3-3c.648 0 1.246.208 1.736.557l3.41-3.41.079-.065ZM14.5 12a.5.5 0 0 1 0 1h-4a.5.5 0 0 1 0-1h4ZM8 6a2 2 0 1 0 0 4 2 2 0 0 0 0-4Z"/></symbol>
  <symbol id="icon-large" fill="none" viewBox="0 0 24 24"><path fill="currentColor" d="M20.146 3.146a.5.5 0 0 1 .707.707l-5.695 5.695a4 4 0 0 1-5.61 5.61l-5.695 5.695a.5.5 0 0 1-.707-.707l5.694-5.695a4 4 0 0 1 5.611-5.611l5.695-5.694ZM22 18.5a.5.5 0 0 1 0 1h-6a.5.5 0 0 1 0-1h6ZM12 9a3 3 0 1 0 0 6 3 3 0 0 0 0-6Z"/></symbol>
  <use href="#icon"/>
</svg>
