<svg xmlns="http://www.w3.org/2000/svg">
  <symbol id="icon" fill="none" viewBox="0 0 16 16"><path fill="currentColor" d="M12.5 6A1.5 1.5 0 0 1 14 7.5v5a1.5 1.5 0 0 1-1.5 1.5h-9A1.5 1.5 0 0 1 2 12.5v-5A1.5 1.5 0 0 1 3.5 6h9Zm-9 1a.5.5 0 0 0-.5.5v5a.5.5 0 0 0 .5.5h9a.5.5 0 0 0 .5-.5v-5a.5.5 0 0 0-.5-.5h-9Zm9-3a.5.5 0 0 1 0 1h-9a.5.5 0 0 1 0-1h9Zm-1-2a.5.5 0 0 1 0 1h-7a.5.5 0 0 1 0-1h7Z"/></symbol>
  <symbol id="icon-large" fill="none" viewBox="0 0 24 24"><path fill="currentColor" fill-rule="evenodd" d="M18 3.5a.5.5 0 0 0-.5-.5h-11a.5.5 0 0 0 0 1h11a.5.5 0 0 0 .5-.5ZM19.5 5a.5.5 0 0 1 0 1h-15a.5.5 0 0 1 0-1h15ZM21 8.5a.5.5 0 0 0-.5-.5h-17a.5.5 0 0 0-.5.5v11a.5.5 0 0 0 .5.5h17a.5.5 0 0 0 .5-.5v-11Zm1 11a1.5 1.5 0 0 1-1.5 1.5h-17A1.5 1.5 0 0 1 2 19.5v-11A1.5 1.5 0 0 1 3.5 7h17A1.5 1.5 0 0 1 22 8.5v11Z" clip-rule="evenodd"/></symbol>
  <use href="#icon"/>
</svg>
