<svg xmlns="http://www.w3.org/2000/svg">
  <symbol id="icon" fill="none" viewBox="0 0 16 16"><path fill="currentColor" d="M9.5 1.5a.5.5 0 0 1 .5.5v1h1.5A1.5 1.5 0 0 1 13 4.5V6h1a.5.5 0 0 1 0 1h-1v2h1a.5.5 0 0 1 0 1h-1v1.5a1.5 1.5 0 0 1-1.5 1.5H10v1a.5.5 0 0 1-1 0v-1H7v1a.5.5 0 0 1-1 0v-1H4.5A1.5 1.5 0 0 1 3 11.5V10H2a.5.5 0 0 1 0-1h1V7H2a.5.5 0 0 1 0-1h1V4.5A1.5 1.5 0 0 1 4.5 3H6V2a.5.5 0 0 1 1 0v1h2V2a.5.5 0 0 1 .5-.5ZM4.5 4a.5.5 0 0 0-.5.5v7a.5.5 0 0 0 .5.5h7a.5.5 0 0 0 .5-.5v-7a.5.5 0 0 0-.5-.5h-7Zm5 1.5a1 1 0 0 1 1 1v3a1 1 0 0 1-1 1h-3a1 1 0 0 1-1-1v-3a1 1 0 0 1 1-1h3Zm-3 4h3v-3h-3v3Z"/></symbol>
  <symbol id="icon-large" fill="none" viewBox="0 0 24 24"><path fill="currentColor" fill-rule="evenodd" d="M9.5 5h9a.5.5 0 0 1 .5.5v13a.5.5 0 0 1-.5.5h-13a.5.5 0 0 1-.5-.5v-13a.5.5 0 0 1 .5-.5h4ZM9 4H5.5A1.5 1.5 0 0 0 4 5.5V9H2.5a.5.5 0 0 0 0 1H4v4H2.5a.5.5 0 0 0 0 1H4v3.5A1.5 1.5 0 0 0 5.5 20H9v1.5a.5.5 0 0 0 1 0V20h4v1.5a.5.5 0 0 0 1 0V20h3.5a1.5 1.5 0 0 0 1.5-1.5V15h1.5a.5.5 0 0 0 0-1H20v-4h1.5a.5.5 0 0 0 0-1H20V5.5A1.5 1.5 0 0 0 18.5 4H15V2.5a.5.5 0 0 0-1 0V4h-4V2.5a.5.5 0 0 0-1 0V4Zm5.5 5a.5.5 0 0 1 .5.5v5a.5.5 0 0 1-.5.5h-5a.5.5 0 0 1-.5-.5v-5a.5.5 0 0 1 .5-.5h5Zm0 7a1.5 1.5 0 0 0 1.5-1.5v-5A1.5 1.5 0 0 0 14.5 8h-5A1.5 1.5 0 0 0 8 9.5v5A1.5 1.5 0 0 0 9.5 16h5Z" clip-rule="evenodd"/></symbol>
  <use href="#icon"/>
</svg>
