<svg xmlns="http://www.w3.org/2000/svg">
  <symbol id="icon" fill="none" viewBox="0 0 16 16"><path fill="currentColor" d="M8 2a.5.5 0 0 1 .5.5v7.565A2 2 0 0 1 9.935 11.5H13.5a.5.5 0 0 1 0 1H9.935a1.999 1.999 0 0 1-3.87 0H2.5a.5.5 0 0 1 0-1h3.565A2 2 0 0 1 7.5 10.065V2.5A.5.5 0 0 1 8 2Zm0 9a1 1 0 1 0 1 1l-.005-.102A1 1 0 0 0 8 11Z"/></symbol>
  <symbol id="icon-large" fill="none" viewBox="0 0 24 24"><path fill="currentColor" d="M12 3a.5.5 0 0 1 .5.5v13.565a2 2 0 0 1 1.435 1.435H20.5a.5.5 0 0 1 0 1h-6.565a1.999 1.999 0 0 1-3.87 0H3.5a.5.5 0 0 1 0-1h6.565a2 2 0 0 1 1.435-1.435V3.5A.5.5 0 0 1 12 3Zm0 15a1 1 0 1 0 0 2 1 1 0 0 0 0-2Z"/></symbol>
  <use href="#icon"/>
</svg>
