<svg xmlns="http://www.w3.org/2000/svg">
  <symbol id="icon" fill="none" viewBox="0 0 16 16"><path fill="currentColor" fill-rule="evenodd" d="M8 3a.5.5 0 0 1 .5.5v4h4a.5.5 0 0 1 0 1h-4v4a.5.5 0 0 1-1 0v-4h-4a.5.5 0 0 1 0-1h4v-4A.5.5 0 0 1 8 3Z" clip-rule="evenodd"/></symbol>
  <symbol id="icon-large" fill="none" viewBox="0 0 24 24"><path fill="currentColor" fill-rule="evenodd" d="M12 5.5a.5.5 0 0 1 .5.5v5.5H18a.5.5 0 0 1 0 1h-5.5V18a.5.5 0 0 1-1 0v-5.5H6a.5.5 0 1 1 0-1h5.5V6a.5.5 0 0 1 .5-.5Z" clip-rule="evenodd"/></symbol>
  <use href="#icon"/>
</svg>
