<svg xmlns="http://www.w3.org/2000/svg">
  <symbol id="icon" fill="none" viewBox="0 0 16 16"><path fill="currentColor" fill-rule="evenodd" d="M2.5 2a.5.5 0 0 0-.5.5V4h12V2.5a.5.5 0 0 0-.5-.5h-11ZM14 5H2v8.5a.5.5 0 0 0 .5.5h11a.5.5 0 0 0 .5-.5V5ZM1 2.5A1.5 1.5 0 0 1 2.5 1h11A1.5 1.5 0 0 1 15 2.5v11a1.5 1.5 0 0 1-1.5 1.5h-11A1.5 1.5 0 0 1 1 13.5v-11Zm4 5a.5.5 0 0 1 .5-.5h5a.5.5 0 0 1 0 1h-5a.5.5 0 0 1-.5-.5Z" clip-rule="evenodd"/></symbol>
  <symbol id="icon-large" fill="none" viewBox="0 0 24 24"><path fill="currentColor" fill-rule="evenodd" d="M2.5 3a.5.5 0 0 0-.5.5v4a.5.5 0 0 0 .5.5H3v11.5A1.5 1.5 0 0 0 4.5 21h15a1.5 1.5 0 0 0 1.5-1.5V8h.5a.5.5 0 0 0 .5-.5v-4a.5.5 0 0 0-.5-.5h-19Zm18 4h.5V4H3v3h17.5ZM4 8h16v11.5a.5.5 0 0 1-.5.5h-15a.5.5 0 0 1-.5-.5V8Zm4 3.5a.5.5 0 0 1 .5-.5h7a.5.5 0 0 1 0 1h-7a.5.5 0 0 1-.5-.5Z" clip-rule="evenodd"/></symbol>
  <use href="#icon"/>
</svg>
