<svg xmlns="http://www.w3.org/2000/svg">
  <symbol id="icon" fill="none" viewBox="0 0 16 16"><path fill="currentColor" d="M12.5 2A1.5 1.5 0 0 1 14 3.5v9a1.5 1.5 0 0 1-1.5 1.5h-9A1.5 1.5 0 0 1 2 12.5v-9A1.5 1.5 0 0 1 3.5 2h9ZM3 12.5a.5.5 0 0 0 .5.5h9a.5.5 0 0 0 .5-.5V5.999H3V12.5ZM9.5 8a.5.5 0 0 1 0 1h-3a.5.5 0 0 1 0-1h3Zm-6-5a.5.5 0 0 0-.5.5v1.499h10V3.5a.5.5 0 0 0-.5-.5h-9Z"/></symbol>
  <symbol id="icon-large" fill="none" viewBox="0 0 24 24"><path fill="currentColor" fill-rule="evenodd" d="M22 3.5a.5.5 0 0 0-.5-.5h-19a.5.5 0 0 0-.49.4L2 3.5v4a.5.5 0 0 0 .5.5H3v11.5A1.5 1.5 0 0 0 4.5 21h15a1.5 1.5 0 0 0 1.5-1.5V8h.5a.5.5 0 0 0 .5-.5v-4ZM20.5 7h.5V4H3v3h17.5ZM4 8h16v11.5a.5.5 0 0 1-.5.5h-15a.5.5 0 0 1-.5-.5V8Zm11.5 3a.5.5 0 0 1 0 1h-7a.5.5 0 0 1 0-1h7Z" clip-rule="evenodd"/></symbol>
  <use href="#icon"/>
</svg>
