<svg xmlns="http://www.w3.org/2000/svg">
  <symbol id="icon" fill="none" viewBox="0 0 16 16"><path fill="currentColor" d="M12.5 2A1.5 1.5 0 0 1 14 3.5v9l-.008.153A1.5 1.5 0 0 1 12.5 14h-9A1.5 1.5 0 0 1 2 12.5v-9a1.5 1.5 0 0 1 1.347-1.492L3.5 2h9Zm-9 1a.5.5 0 0 0-.5.5v9a.5.5 0 0 0 .5.5h9l.1-.01a.5.5 0 0 0 .4-.49v-9a.5.5 0 0 0-.5-.5h-9ZM11 4a1 1 0 0 1 1 1v6a1 1 0 0 1-1 1H5a1 1 0 0 1-1-1V5a1 1 0 0 1 1-1h6ZM8.5 8.5V11H11V8.5H8.5ZM5 11h2.5V8.5H5V11Zm3.5-3.5H11V5H8.5v2.5ZM5 7.5h2.5V5H5v2.5Z"/></symbol>
  <symbol id="icon-large" fill="none" viewBox="0 0 24 24"><path fill="currentColor" d="M19.5 3A1.5 1.5 0 0 1 21 4.5v15a1.5 1.5 0 0 1-1.5 1.5h-15A1.5 1.5 0 0 1 3 19.5v-15A1.5 1.5 0 0 1 4.5 3h15Zm-15 1a.5.5 0 0 0-.5.5v15a.5.5 0 0 0 .5.5h15a.5.5 0 0 0 .5-.5v-15a.5.5 0 0 0-.5-.5h-15ZM17 6a1 1 0 0 1 1 1v10a1 1 0 0 1-1 1H7a1 1 0 0 1-1-1V7a1 1 0 0 1 1-1h10Zm-4.5 6.5V17H17v-4.5h-4.5ZM7 17h4.5v-4.5H7V17Zm5.5-5.5H17V7h-4.5v4.5Zm-5.5 0h4.5V7H7v4.5Z"/></symbol>
  <use href="#icon"/>
</svg>
