<svg xmlns="http://www.w3.org/2000/svg">
  <symbol id="icon" fill="none" viewBox="0 0 16 16"><path fill="currentColor" d="M7.411 1.786a1.501 1.501 0 0 1 1.36.093l4 2.4a1.5 1.5 0 0 1 .729 1.287v4.867a1.5 1.5 0 0 1-.729 1.286l-4 2.4a1.5 1.5 0 0 1-1.36.095l-.182-.094-4-2.4a1.5 1.5 0 0 1-.729-1.287V5.566a1.5 1.5 0 0 1 .729-1.286l4-2.4.182-.094Zm.846.95a.5.5 0 0 0-.453-.03l-.06.03-4 2.401a.501.501 0 0 0-.244.429v4.867a.5.5 0 0 0 .243.429l4 2.4.06.031a.5.5 0 0 0 .454-.03l4-2.401a.5.5 0 0 0 .243-.429V5.566a.5.5 0 0 0-.243-.429l-4-2.4ZM7.804 4.54a.5.5 0 0 1 .453.03l2.5 1.5.053.038A.5.5 0 0 1 11 6.5v3a.5.5 0 0 1-.243.428l-2.5 1.5a.5.5 0 0 1-.514 0l-2.5-1.5A.5.5 0 0 1 5 9.5v-3a.5.5 0 0 1 .243-.43l2.5-1.5.06-.03ZM6 9.216l1.538.923V8.26L6 7.337v1.88Zm2.462-.956v1.88L10 9.215V7.337l-1.538.923Zm-2.03-1.739L8 7.461l1.566-.94L8 5.581l-1.567.94Z"/></symbol>
  <symbol id="icon-large" fill="none" viewBox="0 0 24 24"><path fill="currentColor" d="M11.403 1.296a1.5 1.5 0 0 1 1.38.096l8 4.89A1.5 1.5 0 0 1 21.5 7.56v8.878a1.5 1.5 0 0 1-.559 1.169l-.159.11-8 4.89a1.5 1.5 0 0 1-1.379.096l-.185-.096-8-4.89A1.5 1.5 0 0 1 2.5 16.44V7.561a1.5 1.5 0 0 1 .718-1.28l8-4.89.185-.095Zm.858.95a.5.5 0 0 0-.46-.033l-.062.032-8 4.889a.5.5 0 0 0-.239.427v8.878a.5.5 0 0 0 .24.427l8 4.889.06.032a.5.5 0 0 0 .46-.032l8-4.889.053-.038a.5.5 0 0 0 .187-.389V7.561a.5.5 0 0 0-.24-.427l-8-4.889Zm-.858 4.55a1.5 1.5 0 0 1 1.38.096l3.5 2.14A1.5 1.5 0 0 1 17 10.31v3.879a1.5 1.5 0 0 1-.559 1.168l-.159.11-3.5 2.14a1.5 1.5 0 0 1-1.379.096l-.185-.096-3.5-2.14a1.5 1.5 0 0 1-.705-1.085L7 14.19v-3.88a1.5 1.5 0 0 1 .718-1.279l3.5-2.14.185-.095ZM8 14.19l.004.064a.5.5 0 0 0 .235.362l3.261 1.992V12.78L8 10.642v3.548Zm4.5-1.41v3.828l3.26-1.992.053-.038A.5.5 0 0 0 16 14.19v-3.548l-3.5 2.138Zm-.24-5.035a.5.5 0 0 0-.46-.032l-.06.032L8.457 9.75 12 11.913l3.541-2.164-3.28-2.004Z"/></symbol>
  <use href="#icon"/>
</svg>
