<svg xmlns="http://www.w3.org/2000/svg">
  <symbol id="icon" fill="none" viewBox="0 0 16 16"><path fill="currentColor" fill-rule="evenodd" d="M2.5 2a.5.5 0 0 0-.5.5v11a.5.5 0 0 0 .5.5h11a.5.5 0 0 0 .5-.5v-11a.5.5 0 0 0-.5-.5h-11ZM1 2.5A1.5 1.5 0 0 1 2.5 1h11A1.5 1.5 0 0 1 15 2.5v11a1.5 1.5 0 0 1-1.5 1.5h-11A1.5 1.5 0 0 1 1 13.5v-11Zm2.5 2a1 1 0 0 1 1-1h7a1 1 0 0 1 1 1v7a1 1 0 0 1-1 1h-7a1 1 0 0 1-1-1v-7Zm4 0h-3v3h3v-3Zm1 0v3h3v-3h-3Zm3 4h-3v3h3v-3Zm-4 3v-3h-3v3h3Z" clip-rule="evenodd"/></symbol>
  <symbol id="icon-large" fill="none" viewBox="0 0 24 24"><path fill="currentColor" fill-rule="evenodd" d="M4.5 4a.5.5 0 0 0-.5.5v15a.5.5 0 0 0 .5.5h15a.5.5 0 0 0 .5-.5v-15a.5.5 0 0 0-.5-.5h-15ZM3 4.5A1.5 1.5 0 0 1 4.5 3h15A1.5 1.5 0 0 1 21 4.5v15a1.5 1.5 0 0 1-1.5 1.5h-15A1.5 1.5 0 0 1 3 19.5v-15ZM6 7a1 1 0 0 1 1-1h10a1 1 0 0 1 1 1v10a1 1 0 0 1-1 1H7a1 1 0 0 1-1-1V7Zm5.5 0H7v4.5h4.5V7Zm1 0v4.5H17V7h-4.5Zm4.5 5.5h-4.5V17H17v-4.5ZM11.5 17v-4.5H7V17h4.5Z" clip-rule="evenodd"/></symbol>
  <use href="#icon"/>
</svg>
