<svg xmlns="http://www.w3.org/2000/svg">
  <symbol id="icon" fill="none" viewBox="0 0 16 16"><path fill="currentColor" fill-rule="evenodd" d="M7.748 1.726a.5.5 0 0 1 .504 0l1.756 1.024L8 3.921 5.992 2.75l1.756-1.024ZM5 3.329 2.992 4.5 5 5.671 7.008 4.5 5 3.329Zm.992 2.921L8 7.421l2.008-1.171L8 5.079 5.992 6.25ZM11 5.671l2.008-1.17L11 3.328 8.992 4.5 11 5.671ZM8.5 8.287l5-2.916v5.555a.5.5 0 0 1-.248.432L8.5 14.129V8.288Zm-6-2.916 5 2.916v5.842l-4.752-2.771a.5.5 0 0 1-.248-.432V5.37ZM8.756.862a1.5 1.5 0 0 0-1.512 0l-5 2.917A1.5 1.5 0 0 0 1.5 5.074v5.852a1.5 1.5 0 0 0 .744 1.295l5 2.917a1.5 1.5 0 0 0 1.512 0l5-2.917a1.5 1.5 0 0 0 .744-1.295V5.074a1.5 1.5 0 0 0-.744-1.295l-5-2.917Z" clip-rule="evenodd"/></symbol>
  <symbol id="icon-large" fill="none" viewBox="0 0 24 24"><path fill="currentColor" fill-rule="evenodd" d="M11.74 2.245a.5.5 0 0 1 .52 0l3.281 2.005L12 6.414 8.459 4.25l3.28-2.005ZM7.5 4.836 3.959 7 7.5 9.164 11.041 7 7.5 4.836Zm.959 4.914L12 11.914l3.541-2.164L12 7.586 8.459 9.75Zm8.041-.586L20.041 7 16.5 4.836 12.959 7 16.5 9.164Zm-4 12.444V12.78l8-4.888v8.547a.5.5 0 0 1-.24.427l-7.76 4.742Zm-9-13.716 8 4.888v8.829l-7.76-4.743a.5.5 0 0 1-.24-.427V7.892Zm9.282-6.5a1.5 1.5 0 0 0-1.564 0l-8 4.889A1.5 1.5 0 0 0 2.5 7.56v8.878a1.5 1.5 0 0 0 .718 1.28l8 4.889a1.5 1.5 0 0 0 1.564 0l8-4.889a1.5 1.5 0 0 0 .718-1.28V7.561a1.5 1.5 0 0 0-.718-1.28l-8-4.889Z" clip-rule="evenodd"/></symbol>
  <use href="#icon"/>
</svg>
