<svg xmlns="http://www.w3.org/2000/svg">
  <symbol id="icon" fill="none" viewBox="0 0 16 16"><path fill="currentColor" d="M7.429 1.768a1.5 1.5 0 0 1 1.321.088l4.196 2.422a1.5 1.5 0 0 1 .75 1.3v4.845a1.5 1.5 0 0 1-.75 1.299L8.75 14.145a1.501 1.501 0 0 1-1.321.088l-.179-.088-4.196-2.423a1.5 1.5 0 0 1-.75-1.299V5.577a1.5 1.5 0 0 1 .75-1.299L7.25 1.856l.179-.088Zm-4.125 8.655a.5.5 0 0 0 .25.433L7.5 13.134v-1.846L3.304 8.865v1.558ZM8.5 8.175v4.959l3.946-2.278a.5.5 0 0 0 .25-.433v-4.67L8.5 8.174Zm-5.196-.464L7.5 10.134V8.175L3.304 5.752v1.96Zm4.946-4.99a.5.5 0 0 0-.44-.028l-.06.029-3.849 2.222L8 7.31l4.098-2.366L8.25 2.722Z"/></symbol>
  <symbol id="icon-large" fill="none" viewBox="0 0 24 24"><path fill="currentColor" d="M11.403 1.296a1.5 1.5 0 0 1 1.38.096l8 4.89A1.5 1.5 0 0 1 21.5 7.56v8.878a1.5 1.5 0 0 1-.559 1.168l-.159.112-8 4.89a1.5 1.5 0 0 1-1.379.095l-.185-.096-8-4.89A1.5 1.5 0 0 1 2.5 16.44V7.561a1.5 1.5 0 0 1 .718-1.28l8-4.89.185-.095ZM3.5 16.439a.5.5 0 0 0 .24.427l7.76 4.742V17.78l-8-4.888v3.547Zm9-3.659v8.828l7.76-4.742.053-.038a.5.5 0 0 0 .187-.389V7.892l-8 4.888Zm-9-1.061 8 4.888V12.78l-8-4.888v3.827Zm8.76-9.474a.5.5 0 0 0-.46-.032l-.06.032L3.957 7 12 11.913 20.041 7l-7.78-4.754Z"/></symbol>
  <use href="#icon"/>
</svg>
