<svg xmlns="http://www.w3.org/2000/svg">
  <symbol id="icon" fill="none" viewBox="0 0 16 16"><path fill="currentColor" d="M1.147 1.147a.5.5 0 0 1 .629-.065l.078.065 13 13 .064.078a.5.5 0 0 1-.693.693l-.078-.064-13-13-.065-.079a.5.5 0 0 1 .065-.628Zm.947 3.063A.497.497 0 0 0 2 4.5v7a.5.5 0 0 0 .5.5h7.384l1 1H2.5A1.5 1.5 0 0 1 1 11.5v-7c0-.385.146-.734.384-1l.71.71ZM11.5 3A1.5 1.5 0 0 1 13 4.5v1.066l2.223-1.482A.501.501 0 0 1 16 4.5v7a.5.5 0 0 1-.777.416L13 10.434v.445l-1-1V4.5a.5.5 0 0 0-.5-.5H6.121l-1-1h6.38ZM13 6.767v2.465l2 1.334V5.434l-2 1.333Z"/></symbol>
  <symbol id="icon-large" fill="none" viewBox="0 0 24 24"><path fill="currentColor" d="M2.146 2.146a.5.5 0 0 1 .63-.064l.078.064 19 19 .064.079a.5.5 0 0 1-.693.693l-.079-.064-19-19-.064-.079a.5.5 0 0 1 .064-.629ZM3 5.121 3.879 6H3.5a.5.5 0 0 0-.5.5v11a.5.5 0 0 0 .5.5h12.379l1 1H3.5A1.5 1.5 0 0 1 2 17.5v-11a1.5 1.5 0 0 1 1.054-1.433L3 5.121ZM17.5 5A1.5 1.5 0 0 1 19 6.5v2.616l3.485-2.09.127-.065A1 1 0 0 1 24 7.883v8.234a1 1 0 0 1-1.388.922l-.127-.064L19 14.883v1.996l-1-1V6.5a.5.5 0 0 0-.5-.5H8.121l-1-1H17.5Zm1.5 5.282v3.435l4 2.4V7.883l-4 2.4Z"/></symbol>
  <use href="#icon"/>
</svg>
