<svg xmlns="http://www.w3.org/2000/svg">
  <symbol id="icon" fill="none" viewBox="0 0 16 16"><path fill="currentColor" d="M12.5 2A1.5 1.5 0 0 1 14 3.5v4.154c0 .336-.113.664-.324.929a61.8 61.8 0 0 1-2.322 2.74c-.708.796-1.392 1.556-2.2 2.538a1.52 1.52 0 0 1-2.207.154l-.121-.128-4.472-5.284A1.501 1.501 0 0 1 2 7.633V3.5A1.5 1.5 0 0 1 3.5 2h9Zm-9 1a.5.5 0 0 0-.5.5v4.134c0 .118.041.233.118.323L7.5 13.135v-2.95l-2.88-3.36-.058-.083a.501.501 0 0 1 .744-.638l.073.07L7.5 8.648V5.5a.5.5 0 0 1 1 0v3.147l2.12-2.472a.5.5 0 0 1 .76.65l-2.88 3.36v2.9c.773-.933 1.438-1.673 2.108-2.427a60.853 60.853 0 0 0 2.286-2.698.491.491 0 0 0 .106-.306V3.5a.5.5 0 0 0-.5-.5h-9Z"/></symbol>
  <symbol id="icon-large" fill="none" viewBox="0 0 24 24"><path fill="currentColor" d="M19.5 3A1.5 1.5 0 0 1 21 4.5v7.102a1.5 1.5 0 0 1-.41 1.03l-7.5 7.941a1.5 1.5 0 0 1-2.18 0l-7.5-7.94a1.5 1.5 0 0 1-.41-1.03V4.5A1.5 1.5 0 0 1 4.5 3h15Zm-15 1a.5.5 0 0 0-.5.5v7.102a.5.5 0 0 0 .137.343l7.363 7.796v-5.534L7.146 9.854l-.064-.079a.5.5 0 0 1 .693-.693l.079.064 3.646 3.647V7.5a.5.5 0 0 1 1 0v5.293l3.646-3.647a.5.5 0 1 1 .707.708L12.5 14.207v5.534l7.363-7.796a.5.5 0 0 0 .137-.343V4.5a.5.5 0 0 0-.5-.5h-15Z"/></symbol>
  <use href="#icon"/>
</svg>
