<svg xmlns="http://www.w3.org/2000/svg">
  <symbol id="icon" fill="none" viewBox="0 0 16 16"><path fill="currentColor" fill-rule="evenodd" d="M2 8c0-2.77 2.686-5 6-5s6 2.23 6 5-2.686 5-6 5c-1.157 0-2.318-.394-3.25-.933a.5.5 0 0 0-.59.067c-.605.56-1.15.844-1.575.958-.08.021-.154.037-.222.047.125-.228.242-.489.334-.77.221-.673.319-1.538-.075-2.366C2.29 9.307 2 8.657 2 8Zm6-6C4.318 2 1 4.51 1 8c0 .918.402 1.767.719 2.433.244.513.203 1.091.028 1.625-.177.54-.466.954-.6 1.088a.5.5 0 0 0 .096.783c.422.253.997.291 1.6.129.534-.143 1.122-.448 1.724-.95C5.558 13.623 6.763 14 8 14c3.682 0 7-2.51 7-6s-3.318-6-7-6Zm0 6.75a.75.75 0 1 0 0-1.5.75.75 0 0 0 0 1.5ZM11.75 8a.75.75 0 1 1-1.5 0 .75.75 0 0 1 1.5 0ZM5 8.75a.75.75 0 1 0 0-1.5.75.75 0 0 0 0 1.5Z" clip-rule="evenodd"/></symbol>
  <symbol id="icon-large" fill="none" viewBox="0 0 24 24"><path fill="currentColor" fill-rule="evenodd" d="M3 12c0-4.367 3.976-8 9-8s9 3.633 9 8-3.976 8-9 8c-1.81 0-3.49-.474-4.897-1.288a.5.5 0 0 0-.59.067c-1.386 1.286-2.819 1.283-3.687 1.031a6.58 6.58 0 0 0 .842-1.418c.393-.92.6-2.1.039-3.28A7.212 7.212 0 0 1 3 12Zm9-9C6.53 3 2 6.979 2 12a8.21 8.21 0 0 0 .804 3.542c.395.83.271 1.692-.055 2.457a5.623 5.623 0 0 1-1.103 1.647.5.5 0 0 0 .097.783c.924.554 3.108 1.032 5.175-.676A10.813 10.813 0 0 0 12 21c5.47 0 10-3.979 10-9s-4.53-9-10-9Zm4 10a1 1 0 1 0 0-2 1 1 0 0 0 0 2Zm-3-1a1 1 0 1 1-2 0 1 1 0 0 1 2 0Zm-5 1a1 1 0 1 0 0-2 1 1 0 0 0 0 2Z" clip-rule="evenodd"/></symbol>
  <use href="#icon"/>
</svg>
