<svg xmlns="http://www.w3.org/2000/svg">
  <symbol id="icon" fill="none" viewBox="0 0 16 16"><path fill="currentColor" d="M10 1.5a1 1 0 0 1 1 1h.5A1.5 1.5 0 0 1 13 4v8.5a1.5 1.5 0 0 1-1.5 1.5h-7A1.5 1.5 0 0 1 3 12.5V4a1.5 1.5 0 0 1 1.5-1.5H5v-.002a1 1 0 0 1 1-1l4 .002Zm-5.5 2A.5.5 0 0 0 4 4v8.5a.5.5 0 0 0 .5.5h7a.5.5 0 0 0 .5-.5V4a.5.5 0 0 0-.5-.5H11l-.005.102A1 1 0 0 1 10 4.5l-4-.002A1 1 0 0 1 5 3.5h-.5Zm5 5.5a.5.5 0 0 1 0 1h-3a.5.5 0 0 1 0-1h3Zm0-2.5a.5.5 0 0 1 0 1h-3a.5.5 0 0 1 0-1h3ZM6 3.498l4 .002v-1l-4-.002v1Z"/></symbol>
  <symbol id="icon-large" fill="none" viewBox="0 0 24 24"><path fill="currentColor" fill-rule="evenodd" d="M12 3a3 3 0 0 1 3 3H9a3 3 0 0 1 3-3Zm3.056 4A.944.944 0 0 0 16 6.056V6c0-.345-.044-.68-.126-1H18.5a.5.5 0 0 1 .5.5v15a.5.5 0 0 1-.5.5h-13a.5.5 0 0 1-.5-.5v-15a.5.5 0 0 1 .5-.5h2.626C8.044 5.32 8 5.655 8 6v.056c0 .521.423.944.944.944h6.112ZM8.5 4.062V4h-3A1.5 1.5 0 0 0 4 5.5v15A1.5 1.5 0 0 0 5.5 22h13a1.5 1.5 0 0 0 1.5-1.5v-15A1.5 1.5 0 0 0 18.5 4h-3v.062a3.999 3.999 0 0 0-7 0ZM11.5 15a.5.5 0 0 1 0 1h-3a.5.5 0 0 1 0-1h3Zm4.5-3.5a.5.5 0 0 0-.5-.5h-7a.5.5 0 0 0 0 1h7a.5.5 0 0 0 .5-.5Z" clip-rule="evenodd"/></symbol>
  <use href="#icon"/>
</svg>
