<svg xmlns="http://www.w3.org/2000/svg">
  <symbol id="icon" fill="none" viewBox="0 0 16 16"><path fill="currentColor" d="M8.225 10.082a.501.501 0 0 1 .693.693l-.064.078L7.707 12H9.5a.5.5 0 0 1 .354.853l-2 2a.5.5 0 1 1-.707-.707L8.293 13H6.5a.5.5 0 0 1-.353-.854l2-2 .078-.064ZM8 2.5a4.501 4.501 0 0 1 4.413 3.62A3.501 3.501 0 0 1 11.5 13v-1a2.5 2.5 0 0 0 .653-4.913 1 1 0 0 1-.683-.636l-.037-.136a3.502 3.502 0 0 0-6.516-.974l-.11.224a1.001 1.001 0 0 1-.532.515l-.105.036a3.002 3.002 0 0 0 .33 5.842v1.01a4 4 0 0 1-.605-7.813A4.501 4.501 0 0 1 8 2.5Z"/></symbol>
  <symbol id="icon-large" fill="none" viewBox="0 0 24 24"><path fill="currentColor" d="M12.12 13.674a.501.501 0 0 1 .76.65L10.587 17H14.5a.5.5 0 0 1 .38.825l-3 3.5a.5.5 0 0 1-.76-.65L13.413 18H9.5a.5.5 0 0 1-.38-.826l3-3.5ZM11.75 3.5a6.25 6.25 0 0 1 6.15 5.14 4.75 4.75 0 0 1-.9 9.353V18h-.5v-1h.395c.017-.002.035-.005.053-.006a3.75 3.75 0 0 0 .71-7.383 1 1 0 0 1-.743-.794 5.25 5.25 0 0 0-9.868-1.401l-.16.353a.998.998 0 0 1-.462.509l-.092.042A4.5 4.5 0 0 0 7.5 16.97v1.006A5.5 5.5 0 0 1 5.962 7.391 6.252 6.252 0 0 1 11.75 3.5Z"/></symbol>
  <use href="#icon"/>
</svg>
