<svg xmlns="http://www.w3.org/2000/svg">
  <symbol id="icon" fill="none" viewBox="0 0 16 16"><path fill="currentColor" d="M7.646 6.646a.5.5 0 0 1 .63-.064l.078.064 1.5 1.5a.5.5 0 0 1 0 .708l-1.5 1.5a.5.5 0 1 1-.708-.708L8.293 9H8a2 2 0 1 0 2 2 .5.5 0 0 1 1 0 3 3 0 1 1-3-3h.293l-.647-.646-.064-.079a.5.5 0 0 1 .064-.629ZM8 2.5a4.5 4.5 0 0 1 4.413 3.621 3.5 3.5 0 0 1 .087 6.732V11.79a2.499 2.499 0 0 0-.348-4.703 1 1 0 0 1-.72-.772 3.501 3.501 0 0 0-6.625-.75 1 1 0 0 1-.637.551A3.002 3.002 0 0 0 2 9c0 1.11.604 2.076 1.5 2.595v1.112a4 4 0 0 1 .395-7.552A4.5 4.5 0 0 1 8 2.5Z"/></symbol>
  <symbol id="icon-large" fill="none" viewBox="0 0 24 24"><path fill="currentColor" fill-rule="evenodd" d="M1 14a6.002 6.002 0 0 1 4.6-5.836 7 7 0 0 1 13.34 1.932 5 5 0 0 1-.957 9.907l-11.484-.026-.044-.001A6 6 0 0 1 1 14Zm1 0a5 5 0 0 0 4.528 4.977l11.455.025a4 4 0 0 0 .631-7.95l-.185-.025-.088-.017a.5.5 0 0 1-.357-.444l.5-.035-.5.035a6 6 0 0 0-11.56-1.783l-.027.057a.5.5 0 0 1-.342.249l-.215.047A5.002 5.002 0 0 0 2 14Zm6.5-.5a3.5 3.5 0 0 1 3.806-3.487l-.66-.66a.5.5 0 1 1 .707-.707l1.5 1.5a.5.5 0 0 1 0 .707l-1.5 1.5a.5.5 0 1 1-.707-.707l.632-.63a2.5 2.5 0 1 0 2.188 2.068.5.5 0 0 1 .985-.167A3.5 3.5 0 1 1 8.5 13.5Z" clip-rule="evenodd"/></symbol>
  <use href="#icon"/>
</svg>
