<svg xmlns="http://www.w3.org/2000/svg">
  <symbol id="icon" fill="none" viewBox="0 0 16 16"><path fill="currentColor" d="M8 2.5a4.5 4.5 0 0 1 4.413 3.621A3.5 3.5 0 0 1 11.5 13H5a4 4 0 0 1-1.105-7.845A4.5 4.5 0 0 1 8 2.5Zm0 1a3.5 3.5 0 0 0-3.193 2.065 1 1 0 0 1-.637.551A3.002 3.002 0 0 0 5 12h6.5a2.5 2.5 0 0 0 .652-4.913 1 1 0 0 1-.72-.772A3.501 3.501 0 0 0 8 3.5Zm1.146 3.146a.5.5 0 1 1 .708.708L8.707 8.5l1.147 1.146.064.079a.5.5 0 0 1-.693.693l-.079-.064L8 9.207l-1.146 1.146a.5.5 0 1 1-.708-.707L7.293 8.5 6.146 7.354l-.064-.079a.5.5 0 0 1 .693-.693l.079.064L8 7.793l1.146-1.147Z"/></symbol>
  <symbol id="icon-large" fill="none" viewBox="0 0 24 24"><path fill="currentColor" fill-rule="evenodd" d="M5.6 8.164A6 6 0 0 0 7 20l10.983.003.257-.006a5 5 0 0 0 .7-9.901A7 7 0 0 0 5.6 8.164ZM7 19a5 5 0 0 1-1.16-9.864l.215-.047a.5.5 0 0 0 .342-.25l.028-.056a6 6 0 0 1 11.56 1.783.5.5 0 0 0 .356.444l.088.017.185.026a4.001 4.001 0 0 1-.425 7.945l-.206.005L7 19Zm10.984-8.434.5-.036v.001l-.5.035Zm-3.13-.42a.5.5 0 0 0-.707 0L12 12.293l-2.146-2.146a.5.5 0 1 0-.708.707L11.293 13l-2.147 2.146a.5.5 0 1 0 .708.707L12 13.707l2.146 2.146a.5.5 0 1 0 .707-.707L12.707 13l2.146-2.146a.5.5 0 0 0 0-.707Z" clip-rule="evenodd"/></symbol>
  <use href="#icon"/>
</svg>
