<svg xmlns="http://www.w3.org/2000/svg">
  <symbol id="icon" fill="none" viewBox="0 0 16 16"><path fill="currentColor" d="M7.725 10.582a.501.501 0 0 1 .629.064l2 2 .064.078a.5.5 0 0 1-.693.694l-.079-.065L8 11.707l-1.646 1.646a.5.5 0 1 1-.708-.707l2-2 .079-.065ZM13.5 7.5a.5.5 0 0 1 0 1h-11a.5.5 0 0 1 0-1h11ZM9.646 2.646a.5.5 0 0 1 .707.707l-2 2a.5.5 0 0 1-.707 0l-2-2-.064-.078a.5.5 0 0 1 .693-.693l.079.064L8 4.292l1.646-1.646Z"/></symbol>
  <symbol id="icon-large" fill="none" viewBox="0 0 24 24"><path fill="currentColor" fill-rule="evenodd" d="M16.354 3.646a.5.5 0 0 0-.707 0L12 7.293 8.354 3.646a.5.5 0 1 0-.708.708l4 4a.5.5 0 0 0 .707 0l4-4a.5.5 0 0 0 0-.708ZM20.5 11.5a.5.5 0 0 1 0 1h-17a.5.5 0 0 1 0-1h17Zm-8.775 4.082a.5.5 0 0 1 .629.064l4 4a.5.5 0 1 1-.707.707L12 16.707l-3.646 3.646a.5.5 0 1 1-.708-.707l4-4 .079-.064Z" clip-rule="evenodd"/></symbol>
  <use href="#icon"/>
</svg>
