<svg xmlns="http://www.w3.org/2000/svg">
  <symbol id="icon" fill="none" viewBox="0 0 16 16"><path fill="currentColor" d="M8 1a.5.5 0 0 1 .5.5v.55a2.499 2.499 0 0 1 .96 4.475l1.655 3.677a6.528 6.528 0 0 0 2.517-2.452.5.5 0 0 1 .865.5 7.534 7.534 0 0 1-2.97 2.868l1.43 3.177.032.095a.5.5 0 0 1-.894.403l-.05-.088-1.43-3.176a7.46 7.46 0 0 1-2.114.453v.518a.5.5 0 0 1-1 0v-.517a7.462 7.462 0 0 1-2.117-.453l-1.427 3.175a.5.5 0 0 1-.912-.41l1.43-3.179A7.533 7.533 0 0 1 1.63 8.458l-.125-.208-.042-.092a.5.5 0 0 1 .848-.49l.059.082.222.356a6.533 6.533 0 0 0 2.291 2.099L6.54 6.526A2.501 2.501 0 0 1 7.5 2.05V1.5A.5.5 0 0 1 8 1Zm.55 5.937C8.372 6.977 8.19 7 8 7c-.188 0-.372-.023-.55-.063l-1.653 3.676a6.46 6.46 0 0 0 1.704.365V10.5a.5.5 0 0 1 1 0v.478a6.463 6.463 0 0 0 1.703-.364L8.549 6.937ZM8 3a1.5 1.5 0 1 0 0 3 1.5 1.5 0 0 0 0-3Z"/></symbol>
  <symbol id="icon-large" fill="none" viewBox="0 0 24 24"><path fill="currentColor" d="M12 2a.5.5 0 0 1 .5.5v2.041A3.002 3.002 0 0 1 15 7.5c0 1.057-.55 1.984-1.376 2.519L16 15.562a9.038 9.038 0 0 0 3.928-3.8.5.5 0 0 1 .88.475 10.041 10.041 0 0 1-4.413 4.246l2.065 4.82.03.096a.5.5 0 0 1-.9.386l-.05-.089-2.065-4.818a9.953 9.953 0 0 1-2.975.608V18.5a.5.5 0 0 1-1 0v-1.015a9.958 9.958 0 0 1-2.975-.607L6.46 21.696l-.05.09a.5.5 0 0 1-.87-.483l2.065-4.82a10.043 10.043 0 0 1-4.251-3.955l-.163-.29-.04-.094a.501.501 0 0 1 .864-.465l.057.084.146.261a9.04 9.04 0 0 0 3.781 3.54l2.376-5.544A3 3 0 0 1 11.5 4.542V2.499A.5.5 0 0 1 12 2Zm.704 8.413A2.999 2.999 0 0 1 12 10.5c-.243 0-.479-.032-.705-.087L8.92 15.957a8.962 8.962 0 0 0 2.581.528V15.5a.5.5 0 0 1 1 0v.984a8.962 8.962 0 0 0 2.58-.526l-2.376-5.545ZM12 5.5a2 2 0 1 0 0 4 2 2 0 0 0 0-4Z"/></symbol>
  <use href="#icon"/>
</svg>
