<svg xmlns="http://www.w3.org/2000/svg">
  <symbol id="icon" fill="none" viewBox="0 0 16 16"><path fill="currentColor" d="M12.5 2A1.5 1.5 0 0 1 14 3.5v9a1.5 1.5 0 0 1-1.5 1.5h-9A1.5 1.5 0 0 1 2 12.5v-9A1.5 1.5 0 0 1 3.5 2h9Zm-9 1a.5.5 0 0 0-.5.5v9a.5.5 0 0 0 .5.5h9a.5.5 0 0 0 .5-.5v-9a.5.5 0 0 0-.5-.5h-9ZM6 10a.5.5 0 0 1 0 1H5a.5.5 0 0 1 0-1h1Zm5 0a.5.5 0 0 1 0 1H8a.5.5 0 0 1 0-1h3ZM6 7.5a.5.5 0 0 1 0 1H5a.5.5 0 0 1 0-1h1Zm5 0a.5.5 0 0 1 0 1H8a.5.5 0 0 1 0-1h3ZM6 5a.5.5 0 0 1 0 1H5a.5.5 0 0 1 0-1h1Zm5 0a.5.5 0 0 1 0 1H8a.5.5 0 0 1 0-1h3Z"/></symbol>
  <symbol id="icon-large" fill="none" viewBox="0 0 24 24"><path fill="currentColor" fill-rule="evenodd" d="M20 4.5a.5.5 0 0 0-.5-.5h-15a.5.5 0 0 0-.5.5v15a.5.5 0 0 0 .5.5h15a.5.5 0 0 0 .5-.5v-15Zm1 15a1.5 1.5 0 0 1-1.5 1.5h-15A1.5 1.5 0 0 1 3 19.5v-15A1.5 1.5 0 0 1 4.5 3h15A1.5 1.5 0 0 1 21 4.5v15Zm-4.5-4a.5.5 0 0 1 0 1h-5a.5.5 0 0 1 0-1h5ZM9 16a.5.5 0 0 0-.5-.5h-1a.5.5 0 0 0 0 1h1A.5.5 0 0 0 9 16Zm7.5-4.5a.5.5 0 0 1 0 1h-5a.5.5 0 0 1 0-1h5ZM9 12a.5.5 0 0 0-.5-.5h-1a.5.5 0 0 0 0 1h1A.5.5 0 0 0 9 12Zm7.5-4.5a.5.5 0 0 1 0 1h-5a.5.5 0 0 1 0-1h5ZM9 8a.5.5 0 0 0-.5-.5h-1a.5.5 0 0 0 0 1h1A.5.5 0 0 0 9 8Z" clip-rule="evenodd"/></symbol>
  <use href="#icon"/>
</svg>
