<svg xmlns="http://www.w3.org/2000/svg">
  <symbol id="icon" fill="none" viewBox="0 0 16 16"><path fill="currentColor" fill-rule="evenodd" d="M9.632 2.018a.5.5 0 0 1 .35.614l-3 11a.5.5 0 0 1-.964-.264l3-11a.5.5 0 0 1 .614-.35Zm2.014 3.129a.5.5 0 0 1 .708 0l2.5 2.5a.5.5 0 0 1 0 .707l-2.5 2.5a.5.5 0 0 1-.708-.707L13.793 8l-2.147-2.146a.5.5 0 0 1 0-.707Zm-7.293.707a.5.5 0 0 0-.707-.707l-2.5 2.5a.5.5 0 0 0 0 .707l2.5 2.5a.5.5 0 0 0 .707-.707L2.207 8l2.146-2.146Z" clip-rule="evenodd"/></symbol>
  <symbol id="icon-large" fill="none" viewBox="0 0 24 24"><path fill="currentColor" fill-rule="evenodd" d="M14.114 3.013a.5.5 0 0 1 .373.602l-4 17a.5.5 0 0 1-.974-.23l4-17a.5.5 0 0 1 .601-.372Zm3.532 4.633a.5.5 0 0 1 .708 0l4 4a.5.5 0 0 1 0 .707l-4 4a.5.5 0 0 1-.708-.707L21.293 12l-3.647-3.646a.5.5 0 0 1 0-.708Zm-11.292.708a.5.5 0 1 0-.708-.708l-4 4a.5.5 0 0 0 0 .707l4 4a.5.5 0 1 0 .708-.707L2.707 12l3.647-3.646Z" clip-rule="evenodd"/></symbol>
  <use href="#icon"/>
</svg>
