<svg xmlns="http://www.w3.org/2000/svg">
  <symbol id="icon" fill="none" viewBox="0 0 16 16"><path fill="currentColor" fill-rule="evenodd" d="M2.5 2A1.5 1.5 0 0 0 1 3.5v9A1.5 1.5 0 0 0 2.5 14h11a1.5 1.5 0 0 0 1.5-1.5v-9A1.5 1.5 0 0 0 13.5 2h-11ZM2 3.5a.5.5 0 0 1 .5-.5h11a.5.5 0 0 1 .5.5v9a.5.5 0 0 1-.5.5h-11a.5.5 0 0 1-.5-.5v-9Zm1.5.5a.5.5 0 0 0-.5.5v2a.5.5 0 0 0 .5.5h9a.5.5 0 0 0 .5-.5v-2a.5.5 0 0 0-.5-.5h-9ZM4 6V5h8v1H4Z" clip-rule="evenodd"/></symbol>
  <symbol id="icon-large" fill="none" viewBox="0 0 24 24"><path fill="currentColor" fill-rule="evenodd" d="M3 5.5a.5.5 0 0 1 .5-.5h17a.5.5 0 0 1 .5.5v13a.5.5 0 0 1-.5.5h-17a.5.5 0 0 1-.5-.5v-13ZM3.5 4A1.5 1.5 0 0 0 2 5.5v13A1.5 1.5 0 0 0 3.5 20h17a1.5 1.5 0 0 0 1.5-1.5v-13A1.5 1.5 0 0 0 20.5 4h-17ZM6 8.5a.5.5 0 0 1 .5-.5h11a.5.5 0 0 1 .5.5v1a.5.5 0 0 1-.5.5h-11a.5.5 0 0 1-.5-.5v-1ZM6.5 7A1.5 1.5 0 0 0 5 8.5v1A1.5 1.5 0 0 0 6.5 11h11A1.5 1.5 0 0 0 19 9.5v-1A1.5 1.5 0 0 0 17.5 7h-11Z" clip-rule="evenodd"/></symbol>
  <use href="#icon"/>
</svg>
