<svg xmlns="http://www.w3.org/2000/svg">
  <symbol id="icon" fill="none" viewBox="0 0 16 16"><path fill="currentColor" d="M12.086 9a1.5 1.5 0 0 1 1.06.44l1.414 1.414a1.5 1.5 0 0 1 .44 1.06V14a1 1 0 0 1-1 1h-3a1 1 0 0 1-1-1v-4a1 1 0 0 1 1-1h1.086ZM8.293 2A1 1 0 0 1 9 2.293L12.707 6l.066.073a1 1 0 0 1 .227.634V8h-1V7H9.5A1.5 1.5 0 0 1 8 5.5V3H4.5a.5.5 0 0 0-.5.5v9a.5.5 0 0 0 .5.5H9v1H4.5A1.5 1.5 0 0 1 3 12.5v-9A1.5 1.5 0 0 1 4.5 2h3.793ZM11 14h3v-2h-1.5a.5.5 0 0 1-.5-.5V10h-1v4Zm2-3h.293L13 10.707V11ZM9 5.5a.5.5 0 0 0 .5.5h1.793L9 3.707V5.5Z"/></symbol>
  <symbol id="icon-large" fill="none" viewBox="0 0 24 24"><path fill="currentColor" fill-rule="evenodd" d="M4 3.5v17A1.5 1.5 0 0 0 5.5 22H13v-1H5.5a.5.5 0 0 1-.5-.5v-17a.5.5 0 0 1 .5-.5h7v5A1.5 1.5 0 0 0 14 9.5h5V12h1V9.414a1.5 1.5 0 0 0-.44-1.06l-5.913-5.915A1.5 1.5 0 0 0 12.585 2H5.5A1.5 1.5 0 0 0 4 3.5Zm14.293 5L13.5 3.707V8a.5.5 0 0 0 .5.5h4.293ZM15 21.5v-6a1.5 1.5 0 0 1 1.5-1.5H19a.5.5 0 0 1 .354.146l3.5 3.5A.5.5 0 0 1 23 18v3.5a1.5 1.5 0 0 1-1.5 1.5h-5a1.5 1.5 0 0 1-1.5-1.5Zm1 0a.5.5 0 0 0 .5.5h5a.5.5 0 0 0 .5-.5v-3h-2a1.5 1.5 0 0 1-1.5-1.5v-2h-2a.5.5 0 0 0-.5.5v6Zm3.5-5.793V17a.5.5 0 0 0 .5.5h1.293L19.5 15.707Z" clip-rule="evenodd"/></symbol>
  <use href="#icon"/>
</svg>
