<svg xmlns="http://www.w3.org/2000/svg">
  <symbol id="icon" fill="none" viewBox="0 0 16 16"><path fill="currentColor" d="M8.293 2A1 1 0 0 1 9 2.293L12.707 6l.066.073a1 1 0 0 1 .227.634V12.5a1.5 1.5 0 0 1-1.5 1.5h-7A1.5 1.5 0 0 1 3 12.5v-9A1.5 1.5 0 0 1 4.5 2h3.793ZM4.5 3a.5.5 0 0 0-.5.5v9a.5.5 0 0 0 .5.5h7a.5.5 0 0 0 .5-.5V7H9.5A1.5 1.5 0 0 1 8 5.5V3H4.5Zm6 7.5a.5.5 0 0 1 0 1h-5a.5.5 0 0 1 0-1h5Zm0-2.5a.5.5 0 0 1 0 1h-5a.5.5 0 0 1 0-1h5ZM9 5.5a.5.5 0 0 0 .5.5h1.793L9 3.707V5.5Z"/></symbol>
  <symbol id="icon-large" fill="none" viewBox="0 0 24 24"><path fill="currentColor" d="M13.086 2a1.5 1.5 0 0 1 1.06.44l5.415 5.414.1.11a1.5 1.5 0 0 1 .339.95V20.5a1.5 1.5 0 0 1-1.5 1.5h-13A1.5 1.5 0 0 1 4 20.5v-17A1.5 1.5 0 0 1 5.5 2h7.586ZM5.5 3a.5.5 0 0 0-.5.5v17a.5.5 0 0 0 .5.5h13a.5.5 0 0 0 .5-.5V9h-4.5A1.5 1.5 0 0 1 13 7.5V3H5.5ZM17 17a.5.5 0 0 1 0 1H7a.5.5 0 0 1 0-1h10Zm0-3a.5.5 0 0 1 0 1H7a.5.5 0 0 1 0-1h10Zm.1-2.99a.5.5 0 0 1 0 .98L17 12H7a.5.5 0 0 1 0-1h10l.1.01ZM10.5 8a.5.5 0 0 1 0 1H7a.5.5 0 0 1 0-1h3.5Zm3.5-.5a.5.5 0 0 0 .5.5h3.793L14 3.707V7.5Z"/></symbol>
  <use href="#icon"/>
</svg>
