<svg xmlns="http://www.w3.org/2000/svg">
  <symbol id="icon" fill="none" viewBox="0 0 16 16"><path fill="currentColor" d="M12.5 9a1.5 1.5 0 0 1 1.5 1.5v.5a1 1 0 0 1 1 1v2a1 1 0 0 1-1 1h-3a1 1 0 0 1-1-1v-2a1 1 0 0 1 1-1v-.5A1.5 1.5 0 0 1 12.5 9ZM8.293 2A1 1 0 0 1 9 2.293L12.707 6l.066.073a1 1 0 0 1 .227.634V8h-1V7H9.5A1.5 1.5 0 0 1 8 5.5V3H4.5a.5.5 0 0 0-.5.5v9a.5.5 0 0 0 .5.5H9v1H4.5A1.5 1.5 0 0 1 3 12.5v-9A1.5 1.5 0 0 1 4.5 2h3.793ZM11 14h3v-2h-3v2Zm1.5-4a.5.5 0 0 0-.5.5v.5h1v-.5a.5.5 0 0 0-.5-.5ZM9 5.5a.5.5 0 0 0 .5.5h1.793L9 3.707V5.5Z"/></symbol>
  <symbol id="icon-large" fill="none" viewBox="0 0 24 24"><path fill="currentColor" fill-rule="evenodd" d="M4 20.5v-17A1.5 1.5 0 0 1 5.5 2h7.086a1.5 1.5 0 0 1 1.06.44l5.915 5.914A1.5 1.5 0 0 1 20 9.414V12h-1V9.5h-5A1.5 1.5 0 0 1 12.5 8V3h-7a.5.5 0 0 0-.5.5v17a.5.5 0 0 0 .5.5H13v1H5.5A1.5 1.5 0 0 1 4 20.5Zm9.5-16.793V8a.5.5 0 0 0 .5.5h4.293L13.5 3.707ZM19 15a2 2 0 0 1 2 2h-4a2 2 0 0 1 2-2Zm-3 2.085V17a3 3 0 1 1 6 0v.085a1.5 1.5 0 0 1 1 1.415v3a1.5 1.5 0 0 1-1.5 1.5h-5a1.5 1.5 0 0 1-1.5-1.5v-3a1.5 1.5 0 0 1 1-1.415Zm5.5.915a.5.5 0 0 1 .5.5v3a.5.5 0 0 1-.5.5h-5a.5.5 0 0 1-.5-.5v-3a.5.5 0 0 1 .5-.5h5Z" clip-rule="evenodd"/></symbol>
  <use href="#icon"/>
</svg>
