<svg xmlns="http://www.w3.org/2000/svg">
  <symbol id="icon" fill="none" viewBox="0 0 16 16"><path fill="currentColor" fill-rule="evenodd" d="M11 4a1 1 0 1 1-2 0 1 1 0 0 1 2 0Zm0 4a1 1 0 1 1-2 0 1 1 0 0 1 2 0Zm-5 5a1 1 0 1 0 0-2 1 1 0 0 0 0 2Zm4 0a1 1 0 1 0 0-2 1 1 0 0 0 0 2ZM6 9a1 1 0 1 0 0-2 1 1 0 0 0 0 2Zm0-4a1 1 0 1 0 0-2 1 1 0 0 0 0 2Z" clip-rule="evenodd"/></symbol>
  <symbol id="icon-large" fill="none" viewBox="0 0 24 24"><path fill="currentColor" fill-rule="evenodd" d="M9 7a1.5 1.5 0 1 0 0-3 1.5 1.5 0 0 0 0 3Zm6 0a1.5 1.5 0 1 0 0-3 1.5 1.5 0 0 0 0 3Zm0 13a1.5 1.5 0 1 0 0-3 1.5 1.5 0 0 0 0 3Zm1.5-8a1.5 1.5 0 1 1-3 0 1.5 1.5 0 0 1 3 0Zm-6 6.5a1.5 1.5 0 1 1-3 0 1.5 1.5 0 0 1 3 0Zm-1.5-5a1.5 1.5 0 1 0 0-3 1.5 1.5 0 0 0 0 3Z" clip-rule="evenodd"/></symbol>
  <use href="#icon"/>
</svg>
