<svg xmlns="http://www.w3.org/2000/svg">
  <symbol id="icon" fill="none" viewBox="0 0 16 16"><path fill="currentColor" d="M12.095 8c.77 0 1.416.584 1.493 1.35l.3 3 .008.164A1.501 1.501 0 0 1 12.393 14H3.606a1.5 1.5 0 0 1-1.493-1.65l.3-3 .022-.141a1.5 1.5 0 0 1 1.471-1.21h8.19Zm-8.19 1a.5.5 0 0 0-.48.357l-.018.093-.3 3a.5.5 0 0 0 .498.55h8.79a.5.5 0 0 0 .497-.442v-.108l-.3-3a.501.501 0 0 0-.497-.45h-8.19ZM8 9.5a.5.5 0 0 1 .5.5v2a.5.5 0 0 1-1 0v-2a.5.5 0 0 1 .5-.5Zm2.438.004a.502.502 0 0 1 .536.335l.022.098.25 2 .003.102a.5.5 0 0 1-.973.122l-.022-.099-.25-2L10 9.961a.5.5 0 0 1 .437-.457Zm-4.875 0a.5.5 0 0 1 .436.457l-.003.101-.25 2a.5.5 0 0 1-.992-.125l.25-2 .022-.098a.501.501 0 0 1 .537-.335ZM8 1.5a.5.5 0 0 1 .429.243L9.705 3.87l.068.122c.149.29.227.613.227.94V5a2 2 0 0 1-4 0v-.067c0-.374.102-.741.295-1.062L7.57 1.743l.037-.054A.5.5 0 0 1 8 1.5Zm-.848 2.886A1.06 1.06 0 0 0 7 4.933V5a1 1 0 1 0 2 0v-.067c0-.193-.053-.382-.152-.547L8 2.97l-.848 1.415Z"/></symbol>
  <symbol id="icon-large" fill="none" viewBox="0 0 24 24"><path fill="currentColor" d="M18.617 12a1.5 1.5 0 0 1 1.489 1.313l.75 6 .011.167a1.5 1.5 0 0 1-1.5 1.52H4.633a1.5 1.5 0 0 1-1.488-1.687l.75-6a1.5 1.5 0 0 1 1.488-1.314h13.234ZM5.383 13a.5.5 0 0 0-.496.437l-.75 6a.5.5 0 0 0 .496.563h14.734a.5.5 0 0 0 .498-.453l-.002-.11-.75-6a.5.5 0 0 0-.496-.438H5.383ZM12 14a.5.5 0 0 1 .5.5v4a.5.5 0 0 1-1 0v-4a.5.5 0 0 1 .5-.5Zm4.938.003a.502.502 0 0 1 .536.335l.022.099.5 4 .003.102a.5.5 0 0 1-.973.122l-.022-.099-.5-4-.003-.102a.501.501 0 0 1 .437-.457Zm-9.875 0a.5.5 0 0 1 .433.559l-.5 4a.5.5 0 0 1-.992-.125l.5-4a.5.5 0 0 1 .559-.434Zm2.468-.002a.5.5 0 0 1 .464.428l.004.102-.25 4a.5.5 0 0 1-.998-.063l.25-4 .017-.1a.5.5 0 0 1 .513-.367Zm4.938 0a.5.5 0 0 1 .514.368l.016.1.25 4-.004.1a.5.5 0 0 1-.977.061l-.017-.1-.25-4 .004-.1a.5.5 0 0 1 .464-.43ZM12 2.5a.5.5 0 0 1 .407.208l1.975 2.765c.402.563.618 1.238.618 1.93v.181a3 3 0 0 1-4.362 2.672l-.182-.1A3 3 0 0 1 9 7.585v-.181c0-.692.216-1.367.618-1.93l1.975-2.764.08-.088A.501.501 0 0 1 12 2.5Zm-1.568 3.555c-.28.393-.432.865-.432 1.348v.181a2 2 0 0 0 .97 1.715l.122.067a2 2 0 0 0 1.937-.067l.11-.071c.537-.372.86-.985.861-1.644v-.181c0-.483-.15-.955-.432-1.348L12 3.86l-1.568 2.195Z"/></symbol>
  <use href="#icon"/>
</svg>
