<svg xmlns="http://www.w3.org/2000/svg">
  <symbol id="icon" fill="none" viewBox="0 0 16 16"><path fill="currentColor" d="M2.75 9.835a.5.5 0 1 1 .5.865 1.5 1.5 0 1 0 2.05 2.05.5.5 0 1 1 .865.5A2.5 2.5 0 1 1 2.75 9.835Zm9.817.183a.5.5 0 0 1 .683-.183 2.5 2.5 0 1 1-3.415 3.415.5.5 0 0 1 .807-.582l.058.082.109.161a1.5 1.5 0 1 0 2.102-2.102l-.161-.109-.082-.058a.5.5 0 0 1-.1-.624Zm-1.42-5.872a.5.5 0 1 1 .707.708L9.979 6.728c.012.089.021.18.021.272v2c0 .092-.01.183-.021.271l1.875 1.875.064.079a.5.5 0 0 1-.693.693l-.079-.064-1.594-1.595a1.994 1.994 0 0 1-3.105 0l-1.593 1.595a.5.5 0 1 1-.708-.707L6.021 9.27A2.012 2.012 0 0 1 6 9V7c0-.093.008-.183.02-.272L4.147 4.854a.5.5 0 1 1 .708-.708L6.447 5.74a1.996 1.996 0 0 1 3.105 0l1.595-1.594ZM8 6a1 1 0 0 0-1 1v2a1 1 0 0 0 2 0V7a1 1 0 0 0-1-1ZM4 1.5c.868 0 1.632.442 2.08 1.112l.085.138.042.092a.5.5 0 0 1-.849.49L5.3 3.25l-.109-.161a1.5 1.5 0 1 0-2.103 2.103l.162.108.082.058a.5.5 0 0 1-.49.849l-.092-.042-.138-.085A2.5 2.5 0 0 1 4 1.5Zm8 0a2.5 2.5 0 0 1 1.25 4.665.5.5 0 1 1-.5-.865 1.5 1.5 0 1 0-2.05-2.05.5.5 0 1 1-.865-.5A2.5 2.5 0 0 1 12 1.5Z"/></symbol>
  <symbol id="icon-large" fill="none" viewBox="0 0 24 24"><path fill="currentColor" d="M5.917 14.049a.5.5 0 0 1 .166.986 2.502 2.502 0 0 0 .417 4.966 2.502 2.502 0 0 0 2.466-2.083.5.5 0 1 1 .985.165 3.5 3.5 0 1 1-4.034-4.034Zm12.166 0a3.502 3.502 0 1 1-4.034 4.034l.493-.082.493-.083a2.502 2.502 0 1 0 2.883-2.883l.083-.493.082-.493Zm-3.624 3.459a.5.5 0 0 1 .576.41l-.986.165a.5.5 0 0 1 .41-.575Zm2.688-11.362a.5.5 0 1 1 .707.708l-2.94 2.939c.054.227.086.463.086.707v3c0 .243-.032.48-.087.706l2.94 2.94.065.079a.5.5 0 0 1-.693.693l-.079-.064-2.667-2.667a2.995 2.995 0 0 1-4.96 0l-2.665 2.667a.5.5 0 1 1-.708-.707l2.94-2.94A3.004 3.004 0 0 1 9 13.5v-3c0-.244.031-.48.086-.707l-2.94-2.94a.5.5 0 1 1 .708-.707L9.52 8.813a2.997 2.997 0 0 1 4.96 0l2.666-2.667ZM12 8.5a2 2 0 0 0-2 2v3a2 2 0 1 0 4 0v-3a2 2 0 0 0-2-2Zm6.083 5.549-.165.986a.5.5 0 0 1 .165-.986ZM6.5 3a3.5 3.5 0 0 1 3.451 2.917.5.5 0 0 1-.959.264l-.026-.098-.047-.219A2.502 2.502 0 0 0 4 6.5c0 1.16.791 2.138 1.864 2.419l.219.047.098.026a.5.5 0 0 1-.264.96A3.5 3.5 0 0 1 6.5 3Zm11.001 0a3.5 3.5 0 0 1 .582 6.951.5.5 0 1 1-.165-.985 2.5 2.5 0 1 0-2.883-2.883.5.5 0 0 1-.986-.166A3.502 3.502 0 0 1 17.5 3Z"/></symbol>
  <use href="#icon"/>
</svg>
