<svg xmlns="http://www.w3.org/2000/svg">
  <symbol id="icon" fill="none" viewBox="0 0 16 16"><path fill="currentColor" fill-rule="evenodd" d="M8.354.646a.5.5 0 0 0-.708 0l-2.5 2.5a.5.5 0 1 0 .708.708L8 1.707l2.146 2.147a.5.5 0 0 0 .708-.708l-2.5-2.5ZM2 6.5a.5.5 0 0 1 .5-.5h11a.5.5 0 0 1 0 1h-11a.5.5 0 0 1-.5-.5ZM2.5 9a.5.5 0 0 0 0 1h11a.5.5 0 0 0 0-1h-11Zm3.354 3.146a.5.5 0 0 0-.708.708l2.5 2.5a.5.5 0 0 0 .708 0l2.5-2.5a.5.5 0 0 0-.708-.708L8 14.293l-2.146-2.147Z" clip-rule="evenodd"/></symbol>
  <symbol id="icon-large" fill="none" viewBox="0 0 24 24"><path fill="currentColor" fill-rule="evenodd" d="M12.354 1.646a.5.5 0 0 0-.708 0l-4 4a.5.5 0 1 0 .708.708L12 2.707l3.646 3.647a.5.5 0 0 0 .708-.708l-4-4ZM3 8.5a.5.5 0 0 1 .5-.5h17a.5.5 0 0 1 0 1h-17a.5.5 0 0 1-.5-.5Zm.5 3a.5.5 0 0 0 0 1h17a.5.5 0 0 0 0-1h-17Zm-.5 4a.5.5 0 0 1 .5-.5h17a.5.5 0 0 1 0 1h-17a.5.5 0 0 1-.5-.5Zm4.646 2.146a.5.5 0 0 1 .708 0L12 21.293l3.646-3.647a.5.5 0 0 1 .708.708l-4 4a.5.5 0 0 1-.708 0l-4-4a.5.5 0 0 1 0-.708Z" clip-rule="evenodd"/></symbol>
  <use href="#icon"/>
</svg>
