<svg xmlns="http://www.w3.org/2000/svg">
  <symbol id="icon" fill="none" viewBox="0 0 16 16"><path fill="currentColor" d="M10.646 2.646a1.914 1.914 0 0 1 2.707 2.707l-1.17 1.17a1.757 1.757 0 0 1-.218 2.219l-.889.889a.815.815 0 0 1-1.152 0l-.425-.425-4.645 4.643a.5.5 0 0 1-.354.147h-2a.5.5 0 0 1-.5-.5V11.5a.5.5 0 0 1 .146-.354L6.793 6.5l-.424-.424a.815.815 0 0 1 0-1.152l.889-.89a1.758 1.758 0 0 1 2.218-.218l1.17-1.17ZM3 11.706v1.29h1.293l4.499-4.497L7.5 7.207l-4.5 4.5Zm9.646-8.353a.915.915 0 0 0-1.293 0L9.966 4.742a.658.658 0 0 1-.93 0 .757.757 0 0 0-1.07 0l-.758.758L10.5 8.793l.758-.758a.757.757 0 0 0 0-1.07.658.658 0 0 1 0-.93l1.389-1.389a.914.914 0 0 0 0-1.293Z"/></symbol>
  <symbol id="icon-large" fill="none" viewBox="0 0 24 24"><path fill="currentColor" fill-rule="evenodd" d="M19.854 4.146a2.621 2.621 0 0 0-3.707 0l-1.671 1.67a1.757 1.757 0 0 0-2.218.22l-.889.888a.815.815 0 0 0 0 1.152l.424.424-8.083 8.083a1.606 1.606 0 0 0-.3 1.854.053.053 0 0 1-.004.052l-.43.646a1.362 1.362 0 0 0 1.89 1.888l.645-.43a.053.053 0 0 1 .053-.002 1.605 1.605 0 0 0 1.853-.301l8.083-8.083.424.424a.815.815 0 0 0 1.152 0l.889-.889a1.757 1.757 0 0 0 .218-2.219l1.67-1.67a2.621 2.621 0 0 0 0-3.707ZM14.793 11.5 12.5 9.207 4.417 17.29a.606.606 0 0 0-.113.7c.169.337.144.74-.066 1.054l-.43.645a.362.362 0 0 0 .503.502l.645-.43a1.054 1.054 0 0 1 1.055-.065.606.606 0 0 0 .699-.113l8.083-8.083Zm2.06-6.646a1.621 1.621 0 0 1 2.293 2.292l-1.888 1.89a.658.658 0 0 0 0 .929.757.757 0 0 1 0 1.07l-.758.758L12.207 7.5l.758-.758a.757.757 0 0 1 1.07 0 .658.658 0 0 0 .93 0l1.889-1.888Z" clip-rule="evenodd"/></symbol>
  <use href="#icon"/>
</svg>
