<svg xmlns="http://www.w3.org/2000/svg">
  <symbol id="icon" fill="none" viewBox="0 0 16 16"><path fill="currentColor" d="M8 1.5a6.5 6.5 0 1 1 0 13.001 6.5 6.5 0 0 1 0-13Zm0 1a5.5 5.5 0 1 0 0 11 5.5 5.5 0 0 0 0-11ZM4.777 9.053a.501.501 0 0 1 .617.138l.054.086.105.21a2.737 2.737 0 0 0 4.895 0l.105-.21a.5.5 0 0 1 .895.447l-.106.21a3.738 3.738 0 0 1-6.683 0l-.106-.21-.036-.095a.5.5 0 0 1 .26-.576ZM6.5 5a.5.5 0 0 1 .5.5V7a.5.5 0 0 1-1 0V5.5a.5.5 0 0 1 .5-.5Zm3 0a.5.5 0 0 1 .5.5V7a.5.5 0 0 1-1 0V5.5a.5.5 0 0 1 .5-.5Z"/></symbol>
  <symbol id="icon-large" fill="none" viewBox="0 0 24 24"><path fill="currentColor" fill-rule="evenodd" d="M15.5 3a5.5 5.5 0 1 1-.684 10.958 6.482 6.482 0 0 0-1.389-2.697l.157-.236a2.303 2.303 0 0 1 3.832 0l.168.252a.5.5 0 1 0 .832-.554l-.168-.252a3.303 3.303 0 0 0-5.496 0l-.048.072a6.48 6.48 0 0 0-2.662-1.359A5.5 5.5 0 0 1 15.5 3Zm0 12a6.87 6.87 0 0 1-.52-.02 6.5 6.5 0 1 1-5.96-5.96A6.5 6.5 0 1 1 15.5 15Zm-2-7.5v-1a.5.5 0 0 1 1 0v1a.5.5 0 0 1-1 0Zm3-1v1a.5.5 0 0 0 1 0v-1a.5.5 0 0 0-1 0Zm-2.5 9a5.5 5.5 0 1 0-11 0 5.5 5.5 0 0 0 11 0Zm-2.723 1.084a.5.5 0 0 0-.693.139l-.168.252a2.303 2.303 0 0 1-3.832 0l-.168-.252a.5.5 0 1 0-.832.554l.168.252a3.303 3.303 0 0 0 5.496 0l.168-.252a.5.5 0 0 0-.139-.693ZM9.5 14.5v-1a.5.5 0 0 1 1 0v1a.5.5 0 0 1-1 0Zm-3-1v1a.5.5 0 0 0 1 0v-1a.5.5 0 0 0-1 0Z" clip-rule="evenodd"/></symbol>
  <use href="#icon"/>
</svg>
