<svg xmlns="http://www.w3.org/2000/svg">
  <symbol id="icon" fill="none" viewBox="0 0 16 16"><path fill="currentColor" d="M8 1.5a6.5 6.5 0 1 1 0 13.001 6.5 6.5 0 0 1 0-13Zm0 1a5.5 5.5 0 1 0 0 11 5.5 5.5 0 0 0 0-11Zm1 8a.5.5 0 0 1 0 1H7a.5.5 0 0 1 0-1h2ZM10 8a.5.5 0 0 1 0 1H6a.5.5 0 0 1 0-1h4Zm1-2.5a.5.5 0 0 1 0 1H5a.5.5 0 0 1 0-1h6Z"/></symbol>
  <symbol id="icon-large" fill="none" viewBox="0 0 24 24"><path fill="currentColor" d="M14 19.323V14.87a1.5 1.5 0 0 1 .361-.976l5.519-6.439A.5.5 0 0 0 20 7.13V4.5a.5.5 0 0 0-.5-.5h-15a.5.5 0 0 0-.5.5v2.63a.5.5 0 0 0 .12.325l5.519 6.439c.233.271.361.618.361.976v5.653a.5.5 0 0 0 .685.464l3-1.2a.5.5 0 0 0 .315-.464ZM21 7.13c0 .358-.128.705-.361.976l-5.519 6.439a.5.5 0 0 0-.12.325v4.453a1.5 1.5 0 0 1-.943 1.393l-3 1.2A1.5 1.5 0 0 1 9 20.523V14.87a.5.5 0 0 0-.12-.325L3.36 8.106A1.501 1.501 0 0 1 3 7.13V4.5A1.5 1.5 0 0 1 4.5 3h15A1.5 1.5 0 0 1 21 4.5v2.63Z"/></symbol>
  <use href="#icon"/>
</svg>
