<svg xmlns="http://www.w3.org/2000/svg">
  <symbol id="icon" fill="none" viewBox="0 0 16 16"><path fill="currentColor" fill-rule="evenodd" d="M2.5 2a.5.5 0 0 0-.5.5v11.001a.5.5 0 0 0 .5.5h11.001a.5.5 0 0 0 .5-.5V2.5a.5.5 0 0 0-.5-.5H2.5ZM1 2.5A1.5 1.5 0 0 1 2.5 1h11.001a1.5 1.5 0 0 1 1.5 1.5v11.001a1.5 1.5 0 0 1-1.5 1.5H2.5a1.5 1.5 0 0 1-1.5-1.5V2.5Zm5.854 6.646a.5.5 0 0 1 0 .707L4.707 12H6a.5.5 0 0 1 0 1H3.5a.5.5 0 0 1-.5-.5V10a.5.5 0 0 1 1 0v1.293l2.146-2.147a.5.5 0 0 1 .708 0ZM4 12Zm5.146-2.146a.5.5 0 1 1 .708-.708L12 11.293V10a.5.5 0 0 1 1 0v2.5a.5.5 0 0 1-.5.5H10a.5.5 0 1 1 0-1h1.293L9.146 9.854ZM12 12Zm0-8Zm-.707 0L9.146 6.146a.5.5 0 1 0 .708.708L12 4.707V6a.5.5 0 0 0 1 0V3.5a.5.5 0 0 0-.5-.5H10a.5.5 0 0 0 0 1h1.293ZM4 4.707V6a.5.5 0 0 1-1 0V3.5a.5.5 0 0 1 .5-.5H6a.5.5 0 0 1 0 1H4.707l2.147 2.146a.5.5 0 1 1-.708.708L4 4.707ZM4 4Z" clip-rule="evenodd"/></symbol>
  <symbol id="icon-large" fill="none" viewBox="0 0 24 24"><path fill="currentColor" fill-rule="evenodd" d="M4.5 4a.5.5 0 0 0-.5.5v15a.5.5 0 0 0 .5.5h15a.5.5 0 0 0 .5-.5v-15a.5.5 0 0 0-.5-.5h-15ZM3 4.5A1.5 1.5 0 0 1 4.5 3h15A1.5 1.5 0 0 1 21 4.5v15a1.5 1.5 0 0 1-1.5 1.5h-15A1.5 1.5 0 0 1 3 19.5v-15Zm3.5 12.293 3.146-3.147a.5.5 0 0 1 .708.708L7.207 17.5H10a.5.5 0 0 1 0 1H6a.5.5 0 0 1-.5-.5v-4a.5.5 0 0 1 1 0v2.793Zm10.293.707-3.147-3.146a.5.5 0 0 1 .708-.708l3.146 3.147V14a.5.5 0 0 1 1 0v4a.5.5 0 0 1-.5.5h-4a.5.5 0 0 1 0-1h2.793Zm0-11-3.147 3.146a.5.5 0 0 0 .708.708L17.5 7.207V10a.5.5 0 0 0 1 0V6a.5.5 0 0 0-.5-.5h-4a.5.5 0 0 0 0 1h2.793ZM6.5 7.207l3.146 3.147a.5.5 0 0 0 .708-.708L7.207 6.5H10a.5.5 0 0 0 0-1H6a.5.5 0 0 0-.5.5v4a.5.5 0 0 0 1 0V7.207Z" clip-rule="evenodd"/></symbol>
  <use href="#icon"/>
</svg>
