<svg xmlns="http://www.w3.org/2000/svg">
  <symbol id="icon" fill="none" viewBox="0 0 16 16"><path fill="currentColor" fill-rule="evenodd" d="M2 2.845v7.937c.226-.079.496-.17.79-.26.816-.25 1.88-.522 2.71-.522 1.386 0 2.105.43 2.757.821l.005.003c.596.358 1.126.676 2.238.676.668 0 1.606-.229 2.415-.478a20.68 20.68 0 0 0 1-.336l.085-.03V2.717c-.226.079-.496.17-.79.26-.816.25-1.879.522-2.71.522-1.386 0-2.105-.43-2.757-.821l-.005-.003C7.142 2.318 6.612 2 5.5 2c-.669 0-1.606.229-2.415.478A21.294 21.294 0 0 0 2 2.845Zm0 9V14.5a.5.5 0 0 1-1 0v-12a.5.5 0 0 1 .327-.47l.019-.007a12.812 12.812 0 0 1 .397-.15c.264-.095.631-.223 1.047-.35C3.606 1.27 4.67 1 5.5 1c1.386 0 2.105.43 2.757.821l.005.003c.596.358 1.126.676 2.238.676.668 0 1.606-.229 2.415-.478a21.317 21.317 0 0 0 1.374-.476l.02-.008.004-.002h.001A.5.5 0 0 1 15 2v9a.5.5 0 0 1-.314.464L14.5 11l.186.464h-.001l-.002.001-.006.003-.023.009-.085.033a22.273 22.273 0 0 1-1.36.468c-.815.25-1.877.522-2.709.522-1.386 0-2.105-.43-2.757-.821l-.005-.003C7.142 11.318 6.612 11 5.5 11c-.669 0-1.606.229-2.415.478a20.68 20.68 0 0 0-1 .336l-.085.03Z" clip-rule="evenodd"/></symbol>
  <symbol id="icon-large" fill="none" viewBox="0 0 24 24"><path fill="currentColor" fill-rule="evenodd" d="M4 3.88v10.965c.35-.093.815-.212 1.323-.332C6.377 14.265 7.683 14 8.5 14c1.618 0 2.707.545 3.706 1.044l.018.009c.996.498 1.903.947 3.276.947.683 0 1.877-.235 2.948-.487A48.082 48.082 0 0 0 20 15.12V4.155c-.35.093-.815.212-1.323.332-1.054.248-2.36.513-3.177.513-1.618 0-2.707-.545-3.706-1.044l-.018-.009C10.78 3.45 9.873 3 8.5 3c-.683 0-1.877.235-2.948.487A48.078 48.078 0 0 0 4 3.88Zm0 12v4.62a.5.5 0 0 1-1 0v-17a.5.5 0 0 1 .374-.484l.03-.009.116-.032a45.38 45.38 0 0 1 1.803-.462C6.377 2.265 7.683 2 8.5 2c1.618 0 2.707.545 3.706 1.044l.018.009C13.22 3.55 14.127 4 15.5 4c.683 0 1.877-.235 2.948-.487a48.1 48.1 0 0 0 1.765-.452l.112-.031.028-.008.007-.002h.002A.5.5 0 0 1 21 3.5v12a.5.5 0 0 1-.363.48l-.137-.48.137.48v.001h-.003l-.008.003-.03.008-.116.033a47.744 47.744 0 0 1-1.803.462c-1.054.248-2.36.513-3.177.513-1.618 0-2.707-.545-3.706-1.044l-.018-.009C10.78 15.45 9.873 15 8.5 15c-.683 0-1.877.235-2.948.487A48.06 48.06 0 0 0 4 15.88Z" clip-rule="evenodd"/></symbol>
  <use href="#icon"/>
</svg>
