<svg xmlns="http://www.w3.org/2000/svg">
  <symbol id="icon" fill="none" viewBox="0 0 16 16"><path fill="currentColor" fill-rule="evenodd" d="M2 2.5a.5.5 0 0 1 .5-.5h3.264a.5.5 0 0 1 .224.053l1.577.789A1.5 1.5 0 0 0 8.236 3H13.5a.5.5 0 0 1 .5.5v1.585A1.498 1.498 0 0 0 13.5 5h-11c-.175 0-.344.03-.5.085V2.5ZM1 7V2.5A1.5 1.5 0 0 1 2.5 1h3.264a1.5 1.5 0 0 1 .67.158l1.578.79A.5.5 0 0 0 8.236 2H13.5A1.5 1.5 0 0 1 15 3.5v10a1.5 1.5 0 0 1-1.5 1.5h-11A1.5 1.5 0 0 1 1 13.5V7Zm13-.502V13.5a.5.5 0 0 1-.5.5h-11a.5.5 0 0 1-.5-.5v-7a.5.5 0 0 1 .5-.5h11a.5.5 0 0 1 .5.498ZM7.646 8.146a.5.5 0 0 1 .708 0l2.5 2.5a.5.5 0 0 1-.708.708L8 9.207l-2.146 2.147a.5.5 0 0 1-.708-.708l2.5-2.5Z" clip-rule="evenodd"/></symbol>
  <symbol id="icon-large" fill="none" viewBox="0 0 24 24"><path fill="currentColor" fill-rule="evenodd" d="M3.5 4a.5.5 0 0 0-.5.5v3.585C3.156 8.03 3.325 8 3.5 8h17c.175 0 .344.03.5.085V6.5a.5.5 0 0 0-.5-.5h-8.086a1.5 1.5 0 0 1-1.06-.44L9.939 4.147A.5.5 0 0 0 9.586 4H3.5ZM2 4.5v15A1.5 1.5 0 0 0 3.5 21h17a1.5 1.5 0 0 0 1.5-1.5v-13A1.5 1.5 0 0 0 20.5 5h-8.086a.5.5 0 0 1-.353-.146l-1.415-1.415A1.5 1.5 0 0 0 9.586 3H3.5A1.5 1.5 0 0 0 2 4.5ZM20.5 9a.5.5 0 0 1 .5.5v10a.5.5 0 0 1-.5.5h-17a.5.5 0 0 1-.5-.5v-10a.5.5 0 0 1 .5-.5h17Zm-8.146 3.146a.5.5 0 0 0-.708 0l-4 4a.5.5 0 0 0 .708.708L12 13.207l3.646 3.647a.5.5 0 0 0 .708-.708l-4-4Z" clip-rule="evenodd"/></symbol>
  <use href="#icon"/>
</svg>
