<svg xmlns="http://www.w3.org/2000/svg">
  <symbol id="icon" fill="none" viewBox="0 0 16 16"><path fill="currentColor" d="M5.764 2a1.5 1.5 0 0 1 .67.158l1.579.79A.5.5 0 0 0 8.236 3H12.5A1.5 1.5 0 0 1 14 4.5v8a1.5 1.5 0 0 1-1.5 1.5h-9A1.5 1.5 0 0 1 2 12.5v-9A1.5 1.5 0 0 1 3.5 2h2.264ZM3.5 6a.5.5 0 0 0-.5.5v6a.5.5 0 0 0 .5.5h9a.5.5 0 0 0 .5-.5v-6a.5.5 0 0 0-.5-.5h-9Zm4.225 1.832a.5.5 0 0 1 .629.064l2 2 .064.079a.5.5 0 0 1-.693.693l-.079-.064L8 8.957l-1.646 1.646a.5.5 0 1 1-.708-.707l2-2 .079-.064ZM3.5 3a.5.5 0 0 0-.5.5v1.587A1.51 1.51 0 0 1 3.5 5h9c.175 0 .344.032.5.087V4.5a.5.5 0 0 0-.5-.5H8.236a1.5 1.5 0 0 1-.67-.158l-1.579-.79A.501.501 0 0 0 5.764 3H3.5Z"/></symbol>
  <symbol id="icon-large" fill="none" viewBox="0 0 24 24"><path fill="currentColor" fill-rule="evenodd" d="M2 4.5A1.5 1.5 0 0 1 3.5 3h6.086a1.5 1.5 0 0 1 1.06.44l1.414 1.414a.5.5 0 0 0 .354.146H20.5A1.5 1.5 0 0 1 22 6.5v13a1.5 1.5 0 0 1-1.5 1.5h-17A1.5 1.5 0 0 1 2 19.5v-15Zm19 2v1.585A1.498 1.498 0 0 0 20.5 8h-17c-.175 0-.344.03-.5.085V4.5a.5.5 0 0 1 .5-.5h6.086a.5.5 0 0 1 .353.146l1.415 1.415a1.5 1.5 0 0 0 1.06.439H20.5a.5.5 0 0 1 .5.5Zm0 3a.5.5 0 0 0-.5-.5h-17a.5.5 0 0 0-.5.5v10a.5.5 0 0 0 .5.5h17a.5.5 0 0 0 .5-.5v-10Zm-8.646 2.646a.5.5 0 0 0-.63-.064l-.078.064-4 4a.5.5 0 1 0 .708.707L12 13.207l3.646 3.646a.5.5 0 1 0 .707-.707l-4-4Z" clip-rule="evenodd"/></symbol>
  <use href="#icon"/>
</svg>
