<svg xmlns="http://www.w3.org/2000/svg">
  <symbol id="icon" fill="none" viewBox="0 0 16 16"><path fill="currentColor" d="M5.764 2a1.5 1.5 0 0 1 .67.158l1.579.79A.51.51 0 0 0 8.236 3H12.5A1.5 1.5 0 0 1 14 4.5V5h.174a1.5 1.5 0 0 1 1.442 1.912l-1.636 5.726c-.001.005-.005.01-.006.016-.008.024-.015.047-.027.07l-.223.447a1.5 1.5 0 0 1-1.342.829H3.5A1.5 1.5 0 0 1 2 12.5v-9A1.5 1.5 0 0 1 3.5 2h2.264Zm-.51 4a.5.5 0 0 0-.48.362l-1.77 6.189A.5.5 0 0 0 3.5 13h8.882a.5.5 0 0 0 .447-.276l.203-.408 1.623-5.678A.5.5 0 0 0 14.174 6h-8.92ZM3.5 3a.5.5 0 0 0-.5.5v5.43l.813-2.842A1.5 1.5 0 0 1 5.252 5H13v-.5a.5.5 0 0 0-.5-.5H8.236a1.5 1.5 0 0 1-.67-.158l-1.579-.79A.501.501 0 0 0 5.764 3H3.5Z"/></symbol>
  <symbol id="icon-large" fill="none" viewBox="0 0 24 24"><path fill="currentColor" fill-rule="evenodd" d="M3.5 3A1.5 1.5 0 0 0 2 4.5v14.968A1.5 1.5 0 0 0 3.5 21h16.967a1.5 1.5 0 0 0 1.475-1.23l1.834-10A1.5 1.5 0 0 0 22.3 8H21V6.5A1.5 1.5 0 0 0 19.5 5h-8.086a.5.5 0 0 1-.353-.146L9.646 3.439A1.5 1.5 0 0 0 8.586 3H3.5ZM20 8V6.5a.5.5 0 0 0-.5-.5h-8.086a1.5 1.5 0 0 1-1.06-.44L8.939 4.147A.5.5 0 0 0 8.586 4H3.5a.5.5 0 0 0-.5.5v9.408l.858-4.679A1.5 1.5 0 0 1 5.333 8H20ZM3 19.5v-.015c0-.025.003-.05.008-.075l1.834-10A.5.5 0 0 1 5.333 9H22.3a.5.5 0 0 1 .492.59l-1.834 10a.5.5 0 0 1-.491.41H3.5a.5.5 0 0 1-.5-.5Z" clip-rule="evenodd"/></symbol>
  <use href="#icon"/>
</svg>
