<svg xmlns="http://www.w3.org/2000/svg">
  <symbol id="icon" fill="none" viewBox="0 0 16 16"><path fill="currentColor" d="M5.764 2a1.5 1.5 0 0 1 .67.158l1.579.79A.5.5 0 0 0 8.236 3H12.5A1.5 1.5 0 0 1 14 4.5v8a1.5 1.5 0 0 1-1.5 1.5H11v-1h1.5a.5.5 0 0 0 .5-.5v-6a.5.5 0 0 0-.5-.5h-9a.5.5 0 0 0-.5.5v6a.5.5 0 0 0 .5.5H5v1H3.5A1.5 1.5 0 0 1 2 12.5v-9A1.5 1.5 0 0 1 3.5 2h2.264ZM8 8a.5.5 0 0 1 .5.5v3.793l1.146-1.146a.5.5 0 1 1 .707.707l-2 2a.5.5 0 0 1-.707 0l-2-2-.064-.079a.5.5 0 0 1 .693-.693l.079.064L7.5 12.293V8.5A.5.5 0 0 1 8 8ZM3.5 3a.5.5 0 0 0-.5.5v1.587A1.51 1.51 0 0 1 3.5 5h9c.175 0 .344.032.5.087V4.5a.5.5 0 0 0-.5-.5H8.236a1.5 1.5 0 0 1-.67-.158l-1.579-.79A.501.501 0 0 0 5.764 3H3.5Z"/></symbol>
  <symbol id="icon-large" fill="none" viewBox="0 0 24 24"><path fill="currentColor" fill-rule="evenodd" d="M3.5 3A1.5 1.5 0 0 0 2 4.5v15A1.5 1.5 0 0 0 3.5 21H8v-1H3.5a.5.5 0 0 1-.5-.5v-10a.5.5 0 0 1 .5-.5h17a.5.5 0 0 1 .5.5v10a.5.5 0 0 1-.5.5H16v1h4.5a1.5 1.5 0 0 0 1.5-1.5v-13A1.5 1.5 0 0 0 20.5 5h-8.086a.5.5 0 0 1-.354-.146l-1.414-1.415A1.5 1.5 0 0 0 9.586 3H3.5ZM21 8.085V6.5a.5.5 0 0 0-.5-.5h-8.086a1.5 1.5 0 0 1-1.06-.44L9.939 4.147A.5.5 0 0 0 9.586 4H3.5a.5.5 0 0 0-.5.5v3.585C3.156 8.03 3.325 8 3.5 8h17c.175 0 .344.03.5.085Zm-6.146 9.561a.5.5 0 0 0-.707 0L12.5 19.293V13.5a.5.5 0 0 0-1 0v5.793l-1.646-1.646a.5.5 0 1 0-.708.707l2.5 2.5a.5.5 0 0 0 .707 0l2.5-2.5a.5.5 0 0 0 0-.707Z" clip-rule="evenodd"/></symbol>
  <use href="#icon"/>
</svg>
