<svg xmlns="http://www.w3.org/2000/svg">
  <symbol id="icon" fill="none" viewBox="0 0 16 16"><path fill="currentColor" d="M12.5 9a1.5 1.5 0 0 1 1.5 1.5v.5l.102.005A1 1 0 0 1 15 12v2a1 1 0 0 1-1 1h-3a1 1 0 0 1-1-1v-2a1 1 0 0 1 .897-.995L11 11v-.5A1.5 1.5 0 0 1 12.5 9ZM5.764 2a1.5 1.5 0 0 1 .67.158l1.579.79A.51.51 0 0 0 8.236 3H12.5A1.5 1.5 0 0 1 14 4.5V8h-1V6.5a.5.5 0 0 0-.5-.5h-9a.5.5 0 0 0-.5.5v6a.5.5 0 0 0 .5.5H9v1H3.5A1.5 1.5 0 0 1 2 12.5v-9A1.5 1.5 0 0 1 3.5 2h2.264ZM11 14h3v-2h-3v2Zm1.5-4a.5.5 0 0 0-.5.5v.5h1v-.5a.5.5 0 0 0-.5-.5Zm-9-7a.5.5 0 0 0-.5.5v1.587c.157-.055.324-.087.5-.087h9c.175 0 .343.032.5.087V4.5a.5.5 0 0 0-.5-.5H8.236a1.5 1.5 0 0 1-.67-.158l-1.579-.79A.501.501 0 0 0 5.764 3H3.5Z"/></symbol>
  <symbol id="icon-large" fill="none" viewBox="0 0 24 24"><path fill="currentColor" fill-rule="evenodd" d="M3.5 3A1.5 1.5 0 0 0 2 4.5v15A1.5 1.5 0 0 0 3.5 21H13v-1H3.5a.5.5 0 0 1-.5-.5v-10a.5.5 0 0 1 .5-.5h17a.5.5 0 0 1 .5.5v3h1v-6A1.5 1.5 0 0 0 20.5 5h-8.086a.5.5 0 0 1-.354-.146l-1.414-1.415A1.5 1.5 0 0 0 9.586 3H3.5ZM21 8.085V6.5a.5.5 0 0 0-.5-.5h-8.086a1.5 1.5 0 0 1-1.06-.44L9.939 4.147A.5.5 0 0 0 9.586 4H3.5a.5.5 0 0 0-.5.5v3.585C3.156 8.03 3.325 8 3.5 8h17c.175 0 .344.03.5.085ZM22 18.5a.5.5 0 0 0-.5-.5h-5a.5.5 0 0 0-.5.5v3a.5.5 0 0 0 .5.5h5a.5.5 0 0 0 .5-.5v-3Zm1 3a1.5 1.5 0 0 1-1.5 1.5h-5a1.5 1.5 0 0 1-1.5-1.5v-3a1.5 1.5 0 0 1 1-1.415V17a3 3 0 1 1 6 0v.085a1.5 1.5 0 0 1 1 1.415v3ZM17 17h4a2 2 0 1 0-4 0Z" clip-rule="evenodd"/></symbol>
  <use href="#icon"/>
</svg>
