<svg xmlns="http://www.w3.org/2000/svg">
  <symbol id="icon" fill="none" viewBox="0 0 16 16"><path fill="currentColor" d="M6.5 2a.5.5 0 0 1 .47.33l4 11 .025.098a.5.5 0 0 1-.921.334l-.044-.091L8.877 10.5H4.123L2.97 13.67a.5.5 0 0 1-.94-.34l4-11 .032-.072A.5.5 0 0 1 6.5 2ZM4.486 9.5h4.027L6.5 3.962 4.486 9.5ZM12 1.5a.5.5 0 0 1 .353.146l1.501 1.501.064.079a.5.5 0 0 1-.693.692l-.078-.064-.648-.648v3.588l.647-.648a.5.5 0 0 1 .707.708l-1.5 1.5a.5.5 0 0 1-.708 0l-1.5-1.5-.065-.079a.501.501 0 0 1 .693-.693l.078.064.648.648V3.208l-.646.646a.5.5 0 0 1-.707-.708l1.5-1.5.076-.062A.5.5 0 0 1 12 1.5Z"/></symbol>
  <symbol id="icon-large" fill="none" viewBox="0 0 24 24"><path fill="currentColor" fill-rule="evenodd" d="M19.854 3.146a.5.5 0 0 0-.63-.064l-.078.064-2 2a.5.5 0 0 0 .707.708L19 4.707v5.586l-1.146-1.147a.5.5 0 1 0-.707.708l2 2a.5.5 0 0 0 .707 0l2-2a.5.5 0 1 0-.707-.708L20 10.293V4.707l1.146 1.147a.5.5 0 1 0 .707-.708l-2-2ZM14.5 14.938V15H5.473l-2.516 5.702a.5.5 0 0 1-.914-.404l7.5-17 .034-.065a.5.5 0 0 1 .88.065l7.5 17a.5.5 0 0 1-.914.404L14.5 14.938ZM14.086 14 10 4.737 5.914 14h8.172Z" clip-rule="evenodd"/></symbol>
  <use href="#icon"/>
</svg>
