<svg xmlns="http://www.w3.org/2000/svg">
  <symbol id="icon" fill="none" viewBox="0 0 16 16"><path fill="currentColor" d="M9.059 1.75a3.5 3.5 0 0 1 2.465 5.983 3.499 3.499 0 0 1-1.773 6.517H4a.75.75 0 0 1-.75-.75v-11A.75.75 0 0 1 4 1.75h5.059Zm-4.309 11h5.001a2 2 0 0 0 0-4H4.75v4Zm.001-5.5h4.308a2 2 0 0 0 0-4H4.75v4Z"/></symbol>
  <symbol id="icon-large" fill="none" viewBox="0 0 24 24"><path fill="currentColor" fill-rule="evenodd" d="M4.75 3.5a.75.75 0 0 1 .75-.75h7.75a5 5 0 0 1 3.07 8.947 5 5 0 0 1-2.07 9.553H5.5a.75.75 0 0 1-.75-.75v-17Zm1.5 7.75v-7h7a3.5 3.5 0 1 1 0 7h-7Zm0 1.5v7h8a3.5 3.5 0 1 0 0-7h-8Z" clip-rule="evenodd"/></symbol>
  <use href="#icon"/>
</svg>
