<svg xmlns="http://www.w3.org/2000/svg">
  <symbol id="icon" fill="none" viewBox="0 0 16 16"><path fill="currentColor" d="M11.791 9.529c.195.355.293.783.293 1.283a3.11 3.11 0 0 1-.498 1.729c-.332.511-.809.918-1.43 1.218-.62.297-1.365.446-2.232.446-.817 0-1.526-.135-2.127-.405-.602-.273-1.074-.65-1.418-1.13a3.07 3.07 0 0 1-.49-1.073c-.076-.318.187-.597.514-.598.294 0 .53.23.617.511.079.258.204.488.373.69a2.59 2.59 0 0 0 1.066.75 4.06 4.06 0 0 0 1.465.253c.597 0 1.129-.1 1.594-.3.468-.202.836-.484 1.101-.843.27-.363.404-.785.404-1.266 0-.406-.105-.746-.316-1.02a2.054 2.054 0 0 0-.254-.274h1.321l.017.029Zm2.313-2.02a.5.5 0 0 1 0 .98l-.102.01H2a.5.5 0 0 1 0-1h12.002l.101.01ZM8.029 1.83c.746 0 1.407.137 1.98.41a3.42 3.42 0 0 1 1.366 1.132c.232.324.39.68.475 1.067.066.302-.187.561-.496.562-.28 0-.508-.216-.59-.484a2.153 2.153 0 0 0-.79-1.11C9.452 3.01 8.794 2.814 8 2.814c-.558 0-1.05.096-1.477.287a2.42 2.42 0 0 0-.996.797 1.937 1.937 0 0 0-.357 1.148c0 .317.068.594.205.832.137.239.32.444.55.616l.01.006H4.489a2.608 2.608 0 0 1-.38-1.407c0-.644.172-1.21.516-1.699a3.467 3.467 0 0 1 1.406-1.148c.594-.278 1.26-.416 1.998-.416Z"/></symbol>
  <symbol id="icon-large" fill="none" viewBox="0 0 24 24"><path fill="currentColor" fill-rule="evenodd" d="M16.969 14.803c.372.489.601 1.11.601 1.947 0 1.703-1.597 4.25-5.569 4.25-2.07 0-3.398-.698-4.254-1.51-.868-.822-1.283-1.792-1.466-2.364a.5.5 0 0 0-.953.304c.213.665.699 1.807 1.732 2.786C8.104 21.206 9.678 22 12 22c4.472 0 6.57-2.944 6.57-5.25 0-1.038-.292-1.876-.806-2.553l-.796.606Zm-9.81-11.03C6.136 4.807 5.694 6.123 5.694 7.25c0 1.038.291 1.876.806 2.553l.796-.606c-.372-.489-.602-1.11-.602-1.947 0-.879.35-1.938 1.176-2.776C8.688 3.646 10.005 3 12.001 3c2.07 0 3.301.697 4.05 1.49.763.809 1.069 1.765 1.187 2.334a.5.5 0 1 0 .979-.204c-.14-.668-.501-1.823-1.439-2.816C15.826 2.795 14.324 2 12.001 2c-2.226 0-3.813.727-4.843 1.772ZM21 12a.5.5 0 0 0-.5-.5h-17a.5.5 0 0 0 0 1h17a.5.5 0 0 0 .5-.5Z" clip-rule="evenodd"/></symbol>
  <use href="#icon"/>
</svg>
