<svg xmlns="http://www.w3.org/2000/svg">
  <symbol id="icon" fill="none" viewBox="0 0 16 16"><path fill="currentColor" fill-rule="evenodd" d="M2.354 2.354a.5.5 0 1 0-.708-.708l-1.5 1.5a.5.5 0 0 0 0 .708l1.5 1.5a.5.5 0 1 0 .708-.708L1.707 4H4V3H1.707l.647-.646Zm9.292-.708a.5.5 0 0 1 .708 0l1.5 1.5a.5.5 0 0 1 0 .708l-1.5 1.5a.5.5 0 0 1-.708-.708L12.293 4H10V3h2.293l-.647-.646a.5.5 0 0 1 0-.708ZM6 4.001a1 1 0 0 1 2 0V9.5a.5.5 0 0 0 1 0V8.484a1 1 0 0 1 2 .016v1.501a.5.5 0 1 0 1 0v-.03a.97.97 0 0 1 .97-.97c.543 0 .975.438.963.959-.016.762-.064 1.59-.195 2.355-.132.774-.342 1.44-.654 1.908a.5.5 0 1 0 .832.554c.426-.639.666-1.465.808-2.293.142-.836.192-1.72.21-2.502C14.956 8.878 14.051 8 12.97 8c-.359 0-.695.095-.985.263A2 2 0 0 0 9 6.767V4.001a2 2 0 1 0-4 0v5.348l-.309-.463a1.822 1.822 0 0 0-3.145 1.825l2.007 4.013a.5.5 0 0 0 .894-.448l-2.006-4.013a.822.822 0 0 1 1.418-.823l1.225 1.838A.5.5 0 0 0 6 11V4Z" clip-rule="evenodd"/></symbol>
  <symbol id="icon-large" fill="none" viewBox="0 0 24 24"><path fill="currentColor" fill-rule="evenodd" d="M3.854 3.854a.5.5 0 1 0-.708-.708l-2 2a.5.5 0 0 0 0 .708l2 2a.5.5 0 1 0 .708-.708L2.707 6H6V5H2.707l1.147-1.146Zm12.292-.708a.5.5 0 0 1 .708 0l2 2a.5.5 0 0 1 0 .708l-2 2a.5.5 0 0 1-.708-.708L17.293 6H14V5h3.293l-1.147-1.146a.5.5 0 0 1 0-.708ZM8.5 6a1.5 1.5 0 1 1 3 0v7a.5.5 0 0 0 1 0v-1.5a1.5 1.5 0 0 1 3 0v2a.5.5 0 0 0 1 0A1.5 1.5 0 0 1 18 12c.827 0 1.514.674 1.542 1.517l.001.037c.079 2.357.136 4.092-1.003 6.749a.5.5 0 0 0 .92.394c1.226-2.862 1.162-4.782 1.084-7.156l-.002-.058C20.496 12.118 19.382 11 18 11a2.49 2.49 0 0 0-1.5.5 2.5 2.5 0 0 0-4-2V6a2.5 2.5 0 0 0-5 0v8.695l-1.09-1.816a2.319 2.319 0 0 0-4.002 2.343l3.158 5.526a.5.5 0 0 0 .868-.496l-3.158-5.526a1.319 1.319 0 0 1 2.277-1.333l2.018 3.364A.5.5 0 0 0 8.5 16.5V6Z" clip-rule="evenodd"/></symbol>
  <use href="#icon"/>
</svg>
