<svg xmlns="http://www.w3.org/2000/svg">
  <symbol id="icon" fill="none" viewBox="0 0 16 16"><path fill="currentColor" fill-rule="evenodd" d="M7 2a5 5 0 0 1 5 5 .5.5 0 0 0 1 0A6 6 0 0 0 1 7a.5.5 0 0 0 1 0 5 5 0 0 1 5-5Zm3 5a3 3 0 0 0-6 0 .5.5 0 0 1-1 0 4 4 0 1 1 8 0 .5.5 0 0 1-1 0Zm-2 4.007v.494a.5.5 0 0 0 1 0V10.49a1 1 0 0 1 2 .01v1.501a.5.5 0 0 0 1 0v-.03a.97.97 0 0 1 .97-.97c.539 0 .995.44 1.016.989.034.856.027 1.542-.244 2.352a.5.5 0 0 0 .948.317c.33-.989.33-1.826.295-2.708A2.03 2.03 0 0 0 12.971 10c-.359 0-.695.095-.985.263A2 2 0 0 0 9 8.768V7a2 2 0 1 0-4 0v4.347l-.309-.463a1.822 1.822 0 0 0-3.145 1.826l1.007 2.013a.5.5 0 0 0 .894-.447L2.44 12.263a.821.821 0 0 1 1.42-.823l1.224 1.838A.5.5 0 0 0 6 13.001V7a1 1 0 1 1 2 0v4.006Z" clip-rule="evenodd"/></symbol>
  <symbol id="icon-large" fill="none" viewBox="0 0 24 24"><path fill="currentColor" fill-rule="evenodd" d="M10 2.5A5.5 5.5 0 0 1 15.5 8a.5.5 0 0 0 1 0 6.5 6.5 0 1 0-13 0 .5.5 0 0 0 1 0A5.5 5.5 0 0 1 10 2.5ZM13.5 8a3.5 3.5 0 1 0-7 0 .5.5 0 0 1-1 0 4.5 4.5 0 1 1 9 0 .5.5 0 1 1-1 0Zm-2 0v7a.5.5 0 0 0 1 0v-1.5a1.5 1.5 0 0 1 3 0v2a.5.5 0 0 0 1 0A1.5 1.5 0 0 1 18 14c.827 0 1.514.674 1.542 1.517v.024c.06 1.762.105 3.152-.331 4.833a.5.5 0 0 0 .968.252c.473-1.824.423-3.34.365-5.075l-.002-.068C20.497 14.118 19.382 13 18 13a2.49 2.49 0 0 0-1.5.5 2.5 2.5 0 0 0-4-2V8a2.5 2.5 0 0 0-5 0v8.695L6.41 14.88a2.319 2.319 0 0 0-4.002 2.344l2.015 3.525a.5.5 0 1 0 .868-.496l-2.015-3.525a1.32 1.32 0 0 1 2.277-1.333l2.018 3.363A.5.5 0 0 0 8.5 18.5V8a1.5 1.5 0 1 1 3 0Z" clip-rule="evenodd"/></symbol>
  <use href="#icon"/>
</svg>
