<svg xmlns="http://www.w3.org/2000/svg">
  <symbol id="icon" fill="none" viewBox="0 0 16 16"><path fill="currentColor" fill-rule="evenodd" d="M11.646 1.646a.5.5 0 0 1 .707 0l1.5 1.5a.5.5 0 0 1 0 .708l-1.5 1.5a.5.5 0 1 1-.707-.708L12.293 4H10V3h2.293l-.646-.646a.5.5 0 0 1 0-.708ZM8 9.011v.49a.5.5 0 0 0 1 0V8.484a1 1 0 0 1 2 .016v1.501a.5.5 0 0 0 1 0v-.03a.97.97 0 0 1 .97-.97c.543 0 .975.438.964.959-.017.762-.065 1.59-.196 2.355-.132.773-.342 1.439-.654 1.907a.5.5 0 0 0 .832.555c.426-.639.666-1.465.808-2.293.142-.836.191-1.72.209-2.502.024-1.103-.88-1.981-1.962-1.981-.359 0-.695.095-.985.263A2 2 0 0 0 9 6.767V4.001a2 2 0 1 0-4 0v5.347l-.308-.463a1.822 1.822 0 0 0-3.146 1.826l2.007 4.012a.5.5 0 0 0 .894-.447l-2.006-4.013A.821.821 0 0 1 3.86 9.44l1.224 1.838A.5.5 0 0 0 6 11.001V4a1 1 0 0 1 2 0v5.01ZM1.707 3H4v1H1.707l.647.646a.5.5 0 1 1-.708.708l-1.5-1.5a.5.5 0 0 1 0-.708l1.5-1.5a.5.5 0 1 1 .708.708L1.707 3Z" clip-rule="evenodd"/></symbol>
  <symbol id="icon-large" fill="none" viewBox="0 0 24 24"><path fill="currentColor" fill-rule="evenodd" d="M16.146 3.146a.5.5 0 0 1 .707 0l2 2a.5.5 0 0 1 0 .708l-2 2a.5.5 0 1 1-.707-.708L17.293 6H14V5h3.293l-1.146-1.146a.5.5 0 0 1 0-.708ZM11.5 6v7a.5.5 0 0 0 1 0v-1.5a1.5 1.5 0 0 1 3 0v2a.5.5 0 0 0 1 0A1.5 1.5 0 0 1 18 12c.827 0 1.514.674 1.542 1.517l.001.035c.079 2.358.136 4.093-1.003 6.75a.501.501 0 0 0 .92.395c1.227-2.862 1.163-4.782 1.084-7.156l-.002-.058C20.497 12.118 19.382 11 18 11a2.49 2.49 0 0 0-1.5.5 2.5 2.5 0 0 0-4-2V6a2.5 2.5 0 0 0-5 0v8.695L6.41 12.88a2.319 2.319 0 0 0-4.002 2.344l3.157 5.525a.5.5 0 0 0 .87-.496l-3.159-5.525a1.32 1.32 0 0 1 2.277-1.333l2.018 3.363A.5.5 0 0 0 8.5 16.5V6a1.5 1.5 0 1 1 3 0ZM2.707 5H6v1H2.707l1.147 1.146a.5.5 0 1 1-.708.708l-2-2a.5.5 0 0 1 0-.708l2-2a.5.5 0 1 1 .708.708L2.707 5Z" clip-rule="evenodd"/></symbol>
  <use href="#icon"/>
</svg>
