<svg xmlns="http://www.w3.org/2000/svg">
  <symbol id="icon" fill="none" viewBox="0 0 16 16"><path fill="currentColor" fill-rule="evenodd" d="M7.857 2.885A2.977 2.977 0 0 1 10 2a3 3 0 0 1 3 3 .5.5 0 1 0 1 0 4 4 0 0 0-4-4 3.985 3.985 0 0 0-2.677 1.013A4 4 0 0 0 3 6a.5.5 0 0 0 1 0 3 3 0 0 1 3.43-2.97.5.5 0 0 0 .427-.145ZM9.01 4.99a.99.99 0 1 1 1.98 0v5.478l-.001.022V11a.5.5 0 0 0 1 0v-.526a.99.99 0 0 1 .99-.974.97.97 0 0 1 .98.979c-.018.776-.066 1.347-.195 1.908-.13.56-.343 1.13-.714 1.895a.5.5 0 0 0 .9.436c.39-.805.637-1.45.788-2.107.152-.657.203-1.306.22-2.11.025-1.113-.886-2.001-1.98-2.001-.36 0-.697.096-.989.263V4.99a1.99 1.99 0 0 0-3.868-.658 1.988 1.988 0 0 0-3.09 1.655v5.151l-.574-.973A1.848 1.848 0 0 0 1.27 12.04l1.594 2.713a.5.5 0 1 0 .863-.506l-1.595-2.714a.848.848 0 0 1 1.462-.86L5.1 13.224a.5.5 0 0 0 .93-.254V5.988a.988.988 0 1 1 1.977.001L8 10.5a.5.5 0 0 0 1 .002l.001-.848a.502.502 0 0 0 .009-.092V4.99Z" clip-rule="evenodd"/></symbol>
  <symbol id="icon-large" fill="none" viewBox="0 0 24 24"><path fill="currentColor" fill-rule="evenodd" d="M11.685 3.375A3.5 3.5 0 0 1 17.5 6a.5.5 0 0 0 1 0 4.5 4.5 0 0 0-7.47-3.381A4.5 4.5 0 0 0 5.5 7a.5.5 0 0 0 1 0 3.5 3.5 0 0 1 4.479-3.361.502.502 0 0 0 .58-.147c.04-.04.083-.08.126-.117ZM14 4.5A1.5 1.5 0 0 0 12.5 6v7a.5.5 0 0 1-1 0V7a1.5 1.5 0 0 0-3 0v9.5a.5.5 0 0 1-.929.257l-2.018-3.364a1.319 1.319 0 0 0-2.276 1.333l3.157 5.526a.5.5 0 0 1-.868.496l-3.158-5.526A2.319 2.319 0 0 1 6.41 12.88l1.09 1.816V7a2.5 2.5 0 0 1 4.156-1.872A2.5 2.5 0 0 1 16.5 6v5.5A2.49 2.49 0 0 1 18 11c1.382 0 2.496 1.118 2.542 2.483l.002.058c.078 2.374.142 4.294-1.084 7.156a.5.5 0 0 1-.92-.394c1.14-2.657 1.082-4.392 1.003-6.75v-.036C19.513 12.674 18.826 12 18 12a1.5 1.5 0 0 0-1.5 1.5.5.5 0 0 1-1 0V6A1.5 1.5 0 0 0 14 4.5Z" clip-rule="evenodd"/></symbol>
  <use href="#icon"/>
</svg>
