<svg xmlns="http://www.w3.org/2000/svg">
  <symbol id="icon" fill="none" viewBox="0 0 16 16"><path fill="currentColor" d="M3 3.953a1 1 0 0 1 1.568-.823L10 6.88V4a1 1 0 0 1 1-1h1a1 1 0 0 1 1 1v8a1 1 0 0 1-1 1h-1a1 1 0 0 1-1-1V9.416l-5.46 3.51A1 1 0 0 1 3 12.084V3.953Zm1 8.13 6-3.858v-.13L4 3.953v8.13ZM11 12h1V4h-1v8Z"/></symbol>
  <symbol id="icon-large" fill="none" viewBox="0 0 24 24"><path fill="currentColor" fill-rule="evenodd" d="M18.5 5a.5.5 0 0 1 .5.5v13a.5.5 0 0 1-.5.5h-1a.5.5 0 0 1-.5-.5v-13a.5.5 0 0 1 .5-.5h1Zm0 15a1.5 1.5 0 0 0 1.5-1.5v-13A1.5 1.5 0 0 0 18.5 4h-1A1.5 1.5 0 0 0 16 5.5v5.125L6.297 4.537A1.5 1.5 0 0 0 4 5.807v12.385a1.5 1.5 0 0 0 2.297 1.27L16 13.376V18.5a1.5 1.5 0 0 0 1.5 1.5h1ZM5.766 18.615A.5.5 0 0 1 5 18.192V5.808a.5.5 0 0 1 .766-.423l9.868 6.191a.5.5 0 0 1 0 .848l-9.868 6.191Z" clip-rule="evenodd"/></symbol>
  <use href="#icon"/>
</svg>
