<svg xmlns="http://www.w3.org/2000/svg">
  <symbol id="icon" fill="none" viewBox="0 0 16 16"><path fill="currentColor" d="M6 8.5A1.5 1.5 0 0 1 7.5 10v2.5A1.5 1.5 0 0 1 6 14H3.5A1.5 1.5 0 0 1 2 12.5V10a1.5 1.5 0 0 1 1.5-1.5H6Zm6.5 0A1.5 1.5 0 0 1 14 10v2.5a1.5 1.5 0 0 1-1.5 1.5H10a1.5 1.5 0 0 1-1.5-1.5V10A1.5 1.5 0 0 1 10 8.5h2.5Zm-9 1a.5.5 0 0 0-.5.5v2.5a.5.5 0 0 0 .5.5H6a.5.5 0 0 0 .5-.5V10a.5.5 0 0 0-.5-.5H3.5Zm6.5 0a.5.5 0 0 0-.5.5v2.5a.5.5 0 0 0 .5.5h2.5a.5.5 0 0 0 .5-.5V10a.5.5 0 0 0-.5-.5H10ZM6 2a1.5 1.5 0 0 1 1.5 1.5V6A1.5 1.5 0 0 1 6 7.5H3.5A1.5 1.5 0 0 1 2 6V3.5A1.5 1.5 0 0 1 3.5 2H6Zm6.5 0A1.5 1.5 0 0 1 14 3.5V6a1.5 1.5 0 0 1-1.5 1.5H10A1.5 1.5 0 0 1 8.5 6V3.5A1.5 1.5 0 0 1 10 2h2.5Zm-9 1a.5.5 0 0 0-.5.5V6a.5.5 0 0 0 .5.5H6a.5.5 0 0 0 .5-.5V3.5A.5.5 0 0 0 6 3H3.5ZM10 3a.5.5 0 0 0-.5.5V6a.5.5 0 0 0 .5.5h2.5A.5.5 0 0 0 13 6V3.5a.5.5 0 0 0-.5-.5H10Z"/></symbol>
  <symbol id="icon-large" fill="none" viewBox="0 0 24 24"><path fill="currentColor" fill-rule="evenodd" d="M20 4.5a.5.5 0 0 0-.5-.5h-5a.5.5 0 0 0-.5.5v5a.5.5 0 0 0 .5.5h5a.5.5 0 0 0 .5-.5v-5Zm1 5a1.5 1.5 0 0 1-1.5 1.5h-5A1.5 1.5 0 0 1 13 9.5v-5A1.5 1.5 0 0 1 14.5 3h5A1.5 1.5 0 0 1 21 4.5v5ZM9.5 14a.5.5 0 0 1 .5.5v5a.5.5 0 0 1-.5.5h-5a.5.5 0 0 1-.5-.5v-5a.5.5 0 0 1 .5-.5h5Zm0 7a1.5 1.5 0 0 0 1.5-1.5v-5A1.5 1.5 0 0 0 9.5 13h-5A1.5 1.5 0 0 0 3 14.5v5A1.5 1.5 0 0 0 4.5 21h5Zm10-7a.5.5 0 0 1 .5.5v5a.5.5 0 0 1-.5.5h-5a.5.5 0 0 1-.5-.5v-5a.5.5 0 0 1 .5-.5h5Zm0 7a1.5 1.5 0 0 0 1.5-1.5v-5a1.5 1.5 0 0 0-1.5-1.5h-5a1.5 1.5 0 0 0-1.5 1.5v5a1.5 1.5 0 0 0 1.5 1.5h5ZM9.5 4a.5.5 0 0 1 .5.5v5a.5.5 0 0 1-.5.5h-5a.5.5 0 0 1-.5-.5v-5a.5.5 0 0 1 .5-.5h5Zm0 7A1.5 1.5 0 0 0 11 9.5v-5A1.5 1.5 0 0 0 9.5 3h-5A1.5 1.5 0 0 0 3 4.5v5A1.5 1.5 0 0 0 4.5 11h5Z" clip-rule="evenodd"/></symbol>
  <use href="#icon"/>
</svg>
