<svg xmlns="http://www.w3.org/2000/svg">
  <symbol id="icon" fill="none" viewBox="0 0 16 16"><path fill="currentColor" d="M4.5 2a.5.5 0 0 1 .5.5V3h6v-.5l.01-.1a.5.5 0 0 1 .49-.4h2a.5.5 0 0 1 .5.5v2a.5.5 0 0 1-.5.5H13v6h.5a.5.5 0 0 1 .5.5v2a.5.5 0 0 1-.5.5h-2a.5.5 0 0 1-.5-.5V13H5v.5a.5.5 0 0 1-.5.5h-2a.5.5 0 0 1-.5-.5v-2l.01-.1a.5.5 0 0 1 .49-.4H3V5h-.5a.5.5 0 0 1-.5-.5v-2l.01-.1A.5.5 0 0 1 2.5 2h2ZM3 13h1v-1H3v1Zm9 0h1v-1h-1v1ZM5 4.5a.5.5 0 0 1-.5.5H4v6h.5a.5.5 0 0 1 .5.5v.5h6v-.5l.01-.1a.5.5 0 0 1 .49-.4h.5V5h-.5a.5.5 0 0 1-.5-.5V4H5v.5Zm1.75.5a.5.5 0 0 1 .432.248l1.1 1.886A2 2 0 1 1 7 9H4.999a.5.5 0 0 1-.432-.752l1.75-3 .037-.055A.5.5 0 0 1 6.75 5ZM9 8c-.069 0-.136.008-.2.021l.132.227A.5.5 0 0 1 8.5 9H8a1 1 0 1 0 1-1ZM5.87 8h1.76l-.88-1.509L5.87 8ZM3 4h1V3H3v1Zm9 0h1V3h-1v1Z"/></symbol>
  <symbol id="icon-large" fill="none" viewBox="0 0 24 24"><path fill="currentColor" fill-rule="evenodd" d="M21 3.5a.5.5 0 0 0-.5-.5h-3a.5.5 0 0 0-.49.4l-.01.1v1H7v-1a.5.5 0 0 0-.5-.5h-3a.5.5 0 0 0-.49.4L3 3.5v3a.5.5 0 0 0 .5.5h1v10h-1a.5.5 0 0 0-.49.4l-.01.1v3a.5.5 0 0 0 .5.5h3a.5.5 0 0 0 .5-.5v-1h10v1a.5.5 0 0 0 .5.5h3a.5.5 0 0 0 .5-.5v-3a.5.5 0 0 0-.5-.5h-1V7h1a.5.5 0 0 0 .5-.5v-3ZM5.5 7v10h1a.5.5 0 0 1 .5.5v1h10v-1l.01-.1a.5.5 0 0 1 .49-.4h1V7h-1a.5.5 0 0 1-.5-.5v-1H7v1a.5.5 0 0 1-.5.5h-1ZM20 6h-2V4h2v2Zm-8.622 2.065a1 1 0 0 0-1.756 0l-2.157 3.957a1 1 0 0 0 .877 1.478H10.5a3 3 0 1 0 2.256-2.907l-1.378-2.528Zm1.88 3.45.277.506a1 1 0 0 1-.877 1.479H11.5a2 2 0 1 0 1.759-1.986ZM10.5 8.543l2.158 3.956H8.342L10.5 8.544ZM6 20H4v-2h2v2Zm14 0h-2v-2h2v2ZM6 6H4V4h2v2Z" clip-rule="evenodd"/></symbol>
  <use href="#icon"/>
</svg>
