<svg xmlns="http://www.w3.org/2000/svg">
  <symbol id="icon" fill="none" viewBox="0 0 16 16"><path fill="currentColor" fill-rule="evenodd" d="M12.5 1a.5.5 0 0 0-.5.5V2H4v-.5a.5.5 0 0 0-.5-.5h-2a.5.5 0 0 0-.5.5v2a.5.5 0 0 0 .5.5H2v8h-.5a.5.5 0 0 0-.5.5v2a.5.5 0 0 0 .5.5h2a.5.5 0 0 0 .5-.5V14h8v.5a.5.5 0 0 0 .5.5h2a.5.5 0 0 0 .5-.5v-2a.5.5 0 0 0-.5-.5H14V4h.5a.5.5 0 0 0 .5-.5v-2a.5.5 0 0 0-.5-.5h-2ZM3 4v8h.5a.5.5 0 0 1 .5.5v.5h8v-.5a.5.5 0 0 1 .5-.5h.5V4h-.5a.5.5 0 0 1-.5-.5V3H4v.5a.5.5 0 0 1-.5.5H3Zm10-1V2h1v1h-1ZM6.937 4.257a.5.5 0 0 0-.874 0l-2.5 4.5A.5.5 0 0 0 4 9.5h3a2.5 2.5 0 1 0 1.562-2.318L6.937 4.257Zm2.117 3.81.383.69A.5.5 0 0 1 9 9.5H8a1.5 1.5 0 1 0 1.054-1.433ZM6.5 5.53 8.15 8.5h-3.3L6.5 5.53ZM2 14v-1h1v1H2Zm11 0v-1h1v1h-1ZM2 3V2h1v1H2Z" clip-rule="evenodd"/></symbol>
  <symbol id="icon-large" fill="none" viewBox="0 0 24 24"><path fill="currentColor" fill-rule="evenodd" d="M17.5 3a.5.5 0 0 0-.5.5v1H7v-1a.5.5 0 0 0-.5-.5h-3a.5.5 0 0 0-.5.5v3a.5.5 0 0 0 .5.5h1v10h-1a.5.5 0 0 0-.5.5v3a.5.5 0 0 0 .5.5h3a.5.5 0 0 0 .5-.5v-1h10v1a.5.5 0 0 0 .5.5h3a.5.5 0 0 0 .5-.5v-3a.5.5 0 0 0-.5-.5h-1V7h1a.5.5 0 0 0 .5-.5v-3a.5.5 0 0 0-.5-.5h-3Zm-12 4v10h1a.5.5 0 0 1 .5.5v1h10v-1a.5.5 0 0 1 .5-.5h1V7h-1a.5.5 0 0 1-.5-.5v-1H7v1a.5.5 0 0 1-.5.5h-1ZM18 6V4h2v2h-2Zm-6.622 2.065a1 1 0 0 0-1.756 0l-2.158 3.956a1 1 0 0 0 .878 1.479H10.5a3 3 0 1 0 2.257-2.907l-1.38-2.528Zm1.881 3.45.277.506a1 1 0 0 1-.878 1.479H11.5a2 2 0 1 0 1.76-1.986ZM10.5 8.544l2.158 3.955H8.342L10.5 8.544ZM4 20v-2h2v2H4Zm14 0v-2h2v2h-2ZM4 6V4h2v2H4Z" clip-rule="evenodd"/></symbol>
  <use href="#icon"/>
</svg>
