<svg xmlns="http://www.w3.org/2000/svg">
  <symbol id="icon" fill="none" viewBox="0 0 16 16"><path fill="currentColor" d="M8.5 1.5a1.5 1.5 0 0 1 1.446 1.106 1.495 1.495 0 0 1 2 1.001 1.505 1.505 0 0 1 2.064 1.398c0 1.16-.003 2.285-.005 3.119L14 9.126V9.5c0 1.73-1.021 2.868-2.11 3.549-1.072.67-2.288.95-2.89.951-1.989 0-3.598-.981-4.756-2.14-1.153-1.155-1.905-2.53-2.182-3.437-.126-.412-.032-.837.26-1.122.292-.286.722-.37 1.132-.226.376.132.723.36 1.024.581.152.112.302.23.442.34l.08.06V4a1.5 1.5 0 0 1 2.053-1.394A1.5 1.5 0 0 1 8.5 1.5Zm0 1A.5.5 0 0 0 8 3v3.5a.5.5 0 0 1-1 0V4a.5.5 0 0 0-1 0v4.45a.818.818 0 0 1-.41.714.782.782 0 0 1-.849-.049 13.49 13.49 0 0 1-.437-.33c-.144-.113-.282-.222-.42-.324-.28-.207-.53-.36-.76-.441a.17.17 0 0 0-.086-.012.037.037 0 0 0-.018.008.045.045 0 0 0-.011.022.185.185 0 0 0 .009.093c.226.74.89 1.976 1.933 3.021C5.991 12.192 7.361 13 9 13c.398 0 1.432-.22 2.36-.799C12.27 11.632 13 10.77 13 9.5v-.1l.001-.278.004-1c.002-.834.005-1.958.006-3.117a.505.505 0 0 0-1.011 0V6.5a.5.5 0 0 1-1 0V4a.5.5 0 0 0-1 0v2.5a.5.5 0 0 1-1 0V3a.5.5 0 0 0-.5-.5Z"/></symbol>
  <symbol id="icon-large" fill="none" viewBox="0 0 24 24"><path fill="currentColor" fill-rule="evenodd" d="M15.5 8V4.5a1.5 1.5 0 0 0-3 0v7a.5.5 0 0 1-1 0v-6a1.5 1.5 0 0 0-3 0v9a.5.5 0 0 1-.947.224l-1.575-3.152a1.325 1.325 0 0 0-1.92-.51 1.342 1.342 0 0 0-.485 1.649c.893 2.06 1.821 4.14 3.133 5.71C7.998 19.968 9.644 21 12 21c1.903 0 3.795-.596 5.2-1.65 1.398-1.049 2.3-2.535 2.3-4.35V6.499a1.5 1.5 0 1 0-3 .001v5a.5.5 0 0 1-1 0V8Zm5 7c0 2.185-1.098 3.949-2.7 5.15C16.205 21.346 14.097 22 12 22c-2.712 0-4.622-1.215-6.062-2.939-1.42-1.7-2.4-3.915-3.282-5.953a2.342 2.342 0 0 1 .847-2.878 2.325 2.325 0 0 1 3.37.895l.627 1.256V5.5a2.5 2.5 0 0 1 4.156-1.872A2.5 2.5 0 0 1 16.5 4.5a2.5 2.5 0 0 1 4 2V15Z" clip-rule="evenodd"/></symbol>
  <use href="#icon"/>
</svg>
