<svg xmlns="http://www.w3.org/2000/svg">
  <symbol id="icon" fill="none" viewBox="0 0 16 16"><path fill="currentColor" d="M11.355 2.106c1.283-.092 2.363.611 2.873 1.778 1.013 2.315-.223 6.177-5.408 9.676a1.48 1.48 0 0 1-1.64 0C1.994 10.061.76 6.2 1.771 3.884c.51-1.166 1.59-1.87 2.872-1.778 1.114.08 2.296.75 3.356 2.06 1.059-1.31 2.241-1.98 3.355-2.06Zm.071.998c-.856.062-1.961.659-3.015 2.18a.5.5 0 0 1-.822 0c-1.054-1.522-2.16-2.119-3.016-2.18-.833-.06-1.533.377-1.885 1.18-.712 1.63-.005 5.035 5.05 8.447a.48.48 0 0 0 .523 0c5.056-3.412 5.762-6.817 5.05-8.445-.352-.805-1.051-1.242-1.885-1.182Z"/></symbol>
  <symbol id="icon-large" fill="none" viewBox="0 0 24 24"><path fill="currentColor" d="M17.162 3.072c1.917-.055 3.533 1.166 4.316 3.03 1.577 3.755-.148 10.013-8.725 15.041a1.51 1.51 0 0 1-1.507 0C2.67 16.115.945 9.857 2.522 6.103c.783-1.865 2.4-3.086 4.316-3.031 1.746.05 3.59 1.155 5.162 3.495 1.573-2.34 3.417-3.445 5.162-3.495Zm.029 1c-1.438.04-3.2 1.043-4.76 3.683l-.037.053a.5.5 0 0 1-.787 0l-.037-.053-.295-.477C9.79 4.993 8.157 4.11 6.81 4.071c-1.428-.04-2.712.86-3.366 2.419-1.299 3.092-.055 8.888 8.308 13.791.146.085.35.085.495 0 8.364-4.903 9.608-10.699 8.309-13.791-.655-1.559-1.938-2.46-3.365-2.419Z"/></symbol>
  <use href="#icon"/>
</svg>
