<svg xmlns="http://www.w3.org/2000/svg">
  <symbol id="icon" fill="none" viewBox="0 0 16 16"><path fill="currentColor" fill-rule="evenodd" d="M7.031 1.165a1.5 1.5 0 0 1 1.938 0l5.5 4.654A1.5 1.5 0 0 1 15 6.964v7.034a1 1 0 0 1-1 1L10 15a.5.5 0 0 1-.5-.5V10h-3v4.5a.5.5 0 0 1-.5.5l-4-.002a1 1 0 0 1-1-1V6.964c0-.442.194-.86.531-1.145l5.5-4.654Zm1.292.763a.5.5 0 0 0-.646 0l-5.5 4.654A.5.5 0 0 0 2 6.964v7.034L5.5 14V9.5A.5.5 0 0 1 6 9h4a.5.5 0 0 1 .5.5V14l3.5-.002V6.964a.5.5 0 0 0-.177-.382l-5.5-4.654Z" clip-rule="evenodd"/></symbol>
  <symbol id="icon-large" fill="none" viewBox="0 0 24 24"><path fill="currentColor" fill-rule="evenodd" d="M12.954 2.638a1.5 1.5 0 0 0-1.908 0l-7.5 6.176A1.5 1.5 0 0 0 3 9.972V19.5A1.5 1.5 0 0 0 4.5 21h15a1.5 1.5 0 0 0 1.5-1.5V9.972a1.5 1.5 0 0 0-.546-1.158l-7.5-6.176Zm-1.272.771a.5.5 0 0 1 .636 0l7.5 6.177a.5.5 0 0 1 .182.386V19.5a.5.5 0 0 1-.5.5H15v-5.5a1.5 1.5 0 0 0-1.5-1.5h-3A1.5 1.5 0 0 0 9 14.5V20H4.5a.5.5 0 0 1-.5-.5V9.972a.5.5 0 0 1 .182-.386l7.5-6.177ZM10 20h4v-5.5a.5.5 0 0 0-.5-.5h-3a.5.5 0 0 0-.5.5V20Z" clip-rule="evenodd"/></symbol>
  <use href="#icon"/>
</svg>
