<svg xmlns="http://www.w3.org/2000/svg">
  <symbol id="icon" fill="none" viewBox="0 0 16 16"><path fill="currentColor" d="M7.05 1.631a1.5 1.5 0 0 1 1.9 0l4.5 3.683c.348.285.55.71.55 1.16V13a1 1 0 0 1-1 1H9.5a.5.5 0 0 1-.5-.5V9H7v4.5a.5.5 0 0 1-.5.5H3a1 1 0 0 1-1-1V6.474c0-.45.202-.875.55-1.16l4.5-3.683Zm1.266.775a.5.5 0 0 0-.632 0l-4.5 3.681A.5.5 0 0 0 3 6.474V13h3V8.5a.5.5 0 0 1 .5-.5h3a.5.5 0 0 1 .5.5V13h3V6.474a.5.5 0 0 0-.184-.387l-4.5-3.681Z"/></symbol>
  <symbol id="icon-large" fill="none" viewBox="0 0 24 24"><path fill="currentColor" fill-rule="evenodd" d="M19.817 9.586a.5.5 0 0 1 .183.386V19.5a.5.5 0 0 1-.5.5H15v-5.5a1.5 1.5 0 0 0-1.5-1.5h-3A1.5 1.5 0 0 0 9 14.5V20H4.5a.5.5 0 0 1-.5-.5V9.972a.5.5 0 0 1 .183-.386l7.5-6.177a.5.5 0 0 1 .634 0l7.5 6.177ZM10 20h4v-5.5a.5.5 0 0 0-.5-.5h-3a.5.5 0 0 0-.5.5V20Zm9.5 1a1.5 1.5 0 0 0 1.5-1.5V9.972a1.5 1.5 0 0 0-.547-1.158l-7.5-6.176a1.5 1.5 0 0 0-1.906 0l-7.5 6.176A1.5 1.5 0 0 0 3 9.972V19.5A1.5 1.5 0 0 0 4.5 21h15Z" clip-rule="evenodd"/></symbol>
  <use href="#icon"/>
</svg>
