<svg xmlns="http://www.w3.org/2000/svg">
  <symbol id="icon" fill="none" viewBox="0 0 16 16"><path fill="currentColor" d="M12.496 2a.5.5 0 0 1 .5.5v1.368a.5.5 0 0 1-.403.491L9.5 4.965v6.107l3.074.486a.5.5 0 0 1 .422.494v1.5a.5.5 0 0 1-.5.5H3.5a.5.5 0 0 1-.5-.5v-1.5a.5.5 0 0 1 .422-.494l3.078-.486V4.98l-3.078-.486A.5.5 0 0 1 3 4V2.5l.01-.1A.5.5 0 0 1 3.5 2h8.996ZM4 3.572l2.656.42a1 1 0 0 1 .844.988v6.092a1 1 0 0 1-.845.989L4 12.476v.576h7.996v-.576l-2.652-.417a1 1 0 0 1-.844-.988V4.965a1 1 0 0 1 .808-.982l2.688-.526V3H4v.572Z"/></symbol>
  <symbol id="icon-large" fill="none" viewBox="0 0 24 24"><path fill="currentColor" d="M13 6.347a1.5 1.5 0 0 1 1.253-1.48L19 4.077V3H5v1.076l4.747.791A1.5 1.5 0 0 1 11 6.347v11.306a1.5 1.5 0 0 1-1.253 1.48L5 19.923V21h14v-1.077l-4.747-.79A1.5 1.5 0 0 1 13 17.653V6.347Zm1 11.306a.5.5 0 0 0 .418.494l5.164.86A.5.5 0 0 1 20 19.5v2a.5.5 0 0 1-.5.5h-15a.5.5 0 0 1-.5-.5v-2a.5.5 0 0 1 .418-.493l5.164-.86a.5.5 0 0 0 .418-.494V6.347a.5.5 0 0 0-.418-.493l-5.164-.86A.5.5 0 0 1 4 4.5v-2l.01-.1A.5.5 0 0 1 4.5 2h15a.5.5 0 0 1 .5.5v2a.5.5 0 0 1-.418.493l-5.164.86a.5.5 0 0 0-.418.494v11.306Z"/></symbol>
  <use href="#icon"/>
</svg>
