<svg xmlns="http://www.w3.org/2000/svg">
  <symbol id="icon" fill="none" viewBox="0 0 16 16"><path fill="currentColor" d="M7.25 1.856a1.5 1.5 0 0 1 1.5 0l4.196 2.423a1.5 1.5 0 0 1 .75 1.298v4.846a1.5 1.5 0 0 1-.75 1.299L8.75 14.145a1.5 1.5 0 0 1-1.5 0l-4.196-2.423a1.5 1.5 0 0 1-.75-1.299V5.577a1.5 1.5 0 0 1 .75-1.298L7.25 1.856Zm1 .866a.5.5 0 0 0-.5 0L3.554 5.145a.5.5 0 0 0-.25.432v4.846a.5.5 0 0 0 .25.433l4.196 2.423a.5.5 0 0 0 .5 0l4.196-2.423a.5.5 0 0 0 .25-.433V5.577a.5.5 0 0 0-.25-.432L8.25 2.722ZM6.567 7.173a.5.5 0 0 1 .59-.225l.093.042 1 .578.01.006a.39.39 0 0 1 .048.035l.034.028c.014.013.026.028.039.043l.021.024a.498.498 0 0 1 .036.057c.004.01.01.018.014.027a.495.495 0 0 1 .041.146.497.497 0 0 1 .005.05L8.5 8v2.633l.75-.432a.5.5 0 1 1 .5.866l-1.5.866a.5.5 0 0 1-.5 0l-1.5-.866-.082-.059a.5.5 0 0 1 .49-.849l.092.042.75.432V8.29l-.75-.433-.082-.059a.5.5 0 0 1-.1-.624ZM8 5.13a.625.625 0 1 1 0 1.25.625.625 0 0 1 0-1.25Z"/></symbol>
  <symbol id="icon-large" fill="none" viewBox="0 0 24 24"><path fill="currentColor" fill-rule="evenodd" d="M20.26 7.134a.5.5 0 0 1 .24.426v8.88a.5.5 0 0 1-.24.426l-8 4.889a.5.5 0 0 1-.52 0l-8-4.889a.5.5 0 0 1-.24-.427V7.56a.5.5 0 0 1 .24-.426l8-4.889a.5.5 0 0 1 .52 0l8 4.889Zm.522 10.585a1.5 1.5 0 0 0 .718-1.28V7.56a1.5 1.5 0 0 0-.718-1.279l-8-4.89a1.5 1.5 0 0 0-1.564 0l-8 4.89a1.5 1.5 0 0 0-.718 1.28v8.878a1.5 1.5 0 0 0 .718 1.28l8 4.89a1.5 1.5 0 0 0 1.564 0l8-4.89Zm-9.282-6.41v5.308l-1.743-1.046a.5.5 0 0 0-.514.858l2.5 1.5a.5.5 0 0 0 .514 0l2.5-1.5a.5.5 0 0 0-.514-.858L12.5 16.617V11a.5.5 0 0 0-.276-.447l-2-1a.5.5 0 0 0-.448.894l1.724.862Zm.5-3.06a.75.75 0 1 0 0-1.5.75.75 0 0 0 0 1.5Z" clip-rule="evenodd"/></symbol>
  <use href="#icon"/>
</svg>
