<svg xmlns="http://www.w3.org/2000/svg">
  <symbol id="icon" fill="none" viewBox="0 0 16 16"><path fill="currentColor" fill-rule="evenodd" d="M9.257 1.513A1.721 1.721 0 0 0 8 1a1.72 1.72 0 0 0-1.257.513c-.313.315-.509.736-.631 1.182-.244.889-.236 2.027-.109 3.114a14.68 14.68 0 0 0 .682 3.029c.146.414.309.785.48 1.06.086.137.185.272.302.377A.8.8 0 0 0 8 10.5c.24 0 .422-.125.533-.225.117-.105.216-.24.301-.377a5.62 5.62 0 0 0 .481-1.06c.294-.835.553-1.933.682-3.03.127-1.086.135-2.224-.109-3.113-.122-.446-.318-.867-.63-1.182Zm-1.804.705A.722.722 0 0 1 8 2a.72.72 0 0 1 .547.218c.149.15.281.393.377.743.194.705.202 1.693.08 2.73a13.696 13.696 0 0 1-.631 2.815c-.13.366-.26.65-.373.84a4.817 4.817 0 0 1-.373-.84c-.267-.76-.51-1.786-.63-2.815-.122-1.038-.115-2.025.079-2.73.096-.35.228-.593.377-.743ZM8 13a.5.5 0 1 1 0 1 .5.5 0 0 1 0-1Zm0 2a1.5 1.5 0 1 0 0-3 1.5 1.5 0 0 0 0 3Z" clip-rule="evenodd"/><path fill="currentColor" d="M8 11.5a1.5 1.5 0 1 1 0 3 1.5 1.5 0 0 1 0-3Zm0 1a.5.5 0 1 0 0 1 .5.5 0 0 0 0-1Zm0-11c.488 0 .907.157 1.235.45.319.283.522.666.648 1.073.25.806.241 1.828.113 2.793-.13.976-.39 1.954-.688 2.698a4.78 4.78 0 0 1-.489.952c-.088.124-.19.246-.31.34A.822.822 0 0 1 8 10a.82.82 0 0 1-.508-.193 1.652 1.652 0 0 1-.31-.341 4.78 4.78 0 0 1-.489-.952 11.78 11.78 0 0 1-.687-2.698c-.13-.965-.139-1.987.112-2.793.126-.407.33-.79.648-1.074C7.094 1.657 7.511 1.5 8 1.5Zm0 1c-.261 0-.437.078-.57.195-.141.127-.267.33-.36.625-.186.601-.196 1.454-.074 2.364.12.899.36 1.796.625 2.459.133.333.265.586.378.747h.003c.113-.16.244-.414.378-.747.264-.663.505-1.56.625-2.46.12-.909.111-1.762-.076-2.363-.092-.296-.217-.498-.359-.625C8.438 2.578 8.26 2.5 8 2.5Z"/></symbol>
  <symbol id="icon-large" fill="none" viewBox="0 0 24 24"><path fill="currentColor" fill-rule="evenodd" d="M14 4.09C13.59 3.447 12.938 3 12 3s-1.59.446-2 1.09c-.39.615-.558 1.396-.623 2.115-.066.728-.033 1.448.016 1.98a12.884 12.884 0 0 0 .103.834l.005.03.003.02.002.01.001.004v.005L10 9l-.492.09v.007l.003.007v.004l.004.013.003.015.007.032.004.023.035.155a47.723 47.723 0 0 0 .645 2.543c.2.693.431 1.406.671 1.953.119.27.25.525.394.72.073.097.16.197.268.277.108.08.264.161.458.161s.35-.081.457-.161c.107-.08.197-.18.269-.277.144-.195.275-.45.394-.72.24-.547.471-1.26.671-1.953a43.4 43.4 0 0 0 .645-2.543l.034-.155.005-.023.007-.03.004-.017.002-.013v-.003h.001l.001-.008.002-.007L14 9l.492.089v-.001l.001-.005.001-.005.001-.009.002-.012a12.85 12.85 0 0 0 .11-.872c.049-.532.082-1.252.016-1.98-.065-.719-.232-1.5-.623-2.114Zm-3.156.538C11.09 4.242 11.438 4 12 4c.562 0 .91.242 1.156.628.266.417.411 1.01.471 1.667.059.646.03 1.302-.016 1.8a11.797 11.797 0 0 1-.094.76v.002l-.007.042-.002.011-.01.045a34.588 34.588 0 0 1-.18.788 42.2 42.2 0 0 1-.488 1.868c-.196.682-.413 1.344-.626 1.829a3.746 3.746 0 0 1-.205.406 3.813 3.813 0 0 1-.203-.406c-.213-.485-.43-1.147-.626-1.829a42.481 42.481 0 0 1-.668-2.656l-.01-.045v-.003l-.002-.002V8.9a.447.447 0 0 0-.008-.042 11.915 11.915 0 0 1-.094-.762 10.23 10.23 0 0 1-.015-1.8c.06-.656.206-1.25.47-1.667ZM12 18a1 1 0 1 1 0 2 1 1 0 0 1 0-2Zm0 3a2 2 0 1 0 0-4 2 2 0 0 0 0 4Z" clip-rule="evenodd"/></symbol>
  <use href="#icon"/>
</svg>
