<svg xmlns="http://www.w3.org/2000/svg">
  <symbol id="icon" fill="none" viewBox="0 0 16 16"><path fill="currentColor" d="M5 11.5a1.5 1.5 0 1 1 0 3 1.5 1.5 0 0 1 0-3Zm6 0a1.5 1.5 0 1 1 0 3 1.5 1.5 0 0 1 0-3Zm-6 1a.5.5 0 1 0 0 1 .5.5 0 0 0 0-1Zm6 0a.5.5 0 1 0 0 1 .5.5 0 0 0 0-1Zm-6-11c.488 0 .906.157 1.235.45.319.283.521.666.648 1.073.25.806.241 1.828.112 2.793a11.78 11.78 0 0 1-.687 2.698 4.78 4.78 0 0 1-.49.952c-.087.124-.19.246-.309.34a.823.823 0 0 1-.51.194.822.822 0 0 1-.509-.193 1.654 1.654 0 0 1-.31-.341 4.782 4.782 0 0 1-.488-.952 11.781 11.781 0 0 1-.688-2.698c-.129-.965-.138-1.987.112-2.793.127-.407.33-.79.649-1.074.328-.292.746-.449 1.234-.449Zm6 0c.488 0 .906.157 1.235.45.319.283.521.666.648 1.073.25.806.241 1.828.112 2.793-.13.976-.39 1.954-.687 2.698a4.73 4.73 0 0 1-.49.952 1.65 1.65 0 0 1-.309.34.822.822 0 0 1-.51.194.821.821 0 0 1-.508-.193 1.654 1.654 0 0 1-.31-.341 4.78 4.78 0 0 1-.49-.952 11.78 11.78 0 0 1-.687-2.698c-.129-.965-.138-1.987.112-2.793.127-.407.33-.79.649-1.074.328-.292.746-.449 1.234-.449Zm-6 1c-.261 0-.438.078-.57.195-.142.127-.267.33-.36.625-.186.601-.196 1.454-.075 2.364.12.899.36 1.796.625 2.459.134.333.265.586.378.747h.003c.113-.16.245-.414.378-.747.265-.663.505-1.56.625-2.46.121-.909.112-1.762-.075-2.363-.092-.295-.218-.499-.36-.625C5.438 2.578 5.26 2.5 5 2.5Zm6 0c-.261 0-.438.078-.57.195-.142.127-.267.33-.36.625-.186.601-.196 1.454-.075 2.364.12.899.36 1.796.625 2.459.134.333.265.586.378.747h.003a3.83 3.83 0 0 0 .378-.747c.265-.663.505-1.56.625-2.46.121-.909.112-1.762-.075-2.363-.092-.295-.218-.499-.36-.625-.132-.117-.309-.195-.57-.195Z"/></symbol>
  <symbol id="icon-large" fill="none" viewBox="0 0 24 24"><path fill="currentColor" fill-rule="evenodd" d="M10 4.09C9.59 3.447 8.938 3 8 3s-1.59.446-2 1.09c-.39.615-.558 1.396-.623 2.115-.066.728-.033 1.448.016 1.98a12.884 12.884 0 0 0 .103.834l.005.03.003.02.002.01.001.004v.005L6 9l-.492.09v.007l.003.007v.004l.004.013.003.015.007.032.004.023.035.155a47.723 47.723 0 0 0 .645 2.543c.2.693.431 1.406.671 1.953.119.27.25.525.395.72.072.097.16.197.267.277.108.08.264.161.458.161s.35-.081.457-.161c.108-.08.197-.18.269-.277a3.82 3.82 0 0 0 .394-.72c.24-.547.471-1.26.671-1.953a43.395 43.395 0 0 0 .645-2.543l.034-.155.005-.023.007-.03.004-.017.002-.013v-.003h.001l.001-.008.002-.007L10 9l.492.089v-.001l.001-.005.001-.005.001-.009.002-.012a12.85 12.85 0 0 0 .11-.872c.049-.532.082-1.252.016-1.98-.065-.719-.232-1.5-.623-2.114Zm-3.156.538C7.09 4.242 7.438 4 8 4c.562 0 .91.242 1.156.628.266.417.411 1.01.471 1.667.059.646.03 1.302-.016 1.8-.022.249-.048.455-.069.598l-.025.163v.001L9.51 8.9l-.002.011-.01.045a35.535 35.535 0 0 1-.18.788 42.27 42.27 0 0 1-.488 1.868c-.196.682-.413 1.344-.626 1.829a3.756 3.756 0 0 1-.205.406 3.809 3.809 0 0 1-.203-.406c-.213-.485-.43-1.147-.626-1.829a42.256 42.256 0 0 1-.668-2.656l-.01-.045v-.003l-.002-.002V8.9l-.002-.012-.005-.03a11.871 11.871 0 0 1-.094-.762 10.238 10.238 0 0 1-.016-1.8c.06-.656.206-1.25.47-1.667ZM18 4.09C17.59 3.446 16.938 3 16 3s-1.59.446-2 1.09c-.39.615-.558 1.396-.623 2.115-.066.728-.033 1.448.016 1.98a12.847 12.847 0 0 0 .108.864l.003.02.002.01.001.004v.005L14 9l-.492.09v.007l.003.007v.004l.004.013.003.015.006.032.005.023.035.155a47.723 47.723 0 0 0 .645 2.543c.2.693.431 1.406.671 1.953.119.27.25.525.394.72.073.097.16.197.268.277.108.08.264.161.458.161s.35-.081.457-.161c.107-.08.197-.18.269-.277a3.82 3.82 0 0 0 .394-.72c.24-.547.471-1.26.671-1.953a43.4 43.4 0 0 0 .645-2.543l.034-.155.005-.023.007-.03.003-.017.003-.013v-.003h.001l.001-.008.002-.007L18 9l.492.089v-.001l.001-.005.001-.005.001-.009.002-.012.007-.038.028-.185a12.9 12.9 0 0 0 .076-.648 11.28 11.28 0 0 0 .015-1.98c-.065-.72-.232-1.5-.623-2.115Zm-3.156.537C15.09 4.242 15.438 4 16 4c.562 0 .91.242 1.156.628.266.417.411 1.01.471 1.667.059.646.03 1.302-.016 1.8a11.797 11.797 0 0 1-.094.76v.002l-.007.042-.002.011-.01.045a34.588 34.588 0 0 1-.18.788 42.2 42.2 0 0 1-.488 1.868c-.196.682-.413 1.344-.626 1.829a3.746 3.746 0 0 1-.205.406 3.813 3.813 0 0 1-.203-.406c-.213-.485-.43-1.147-.626-1.829a42.481 42.481 0 0 1-.668-2.656l-.01-.045a.008.008 0 0 0 0-.003l-.002-.002V8.9l-.002-.012a11.915 11.915 0 0 1-.1-.792 10.23 10.23 0 0 1-.015-1.8c.06-.656.206-1.25.47-1.667ZM16 18a1 1 0 1 1 0 2 1 1 0 0 1 0-2Zm0 3a2 2 0 1 0 0-4 2 2 0 0 0 0 4Zm-7-2a1 1 0 1 0-2 0 1 1 0 0 0 2 0Zm1 0a2 2 0 1 1-4 0 2 2 0 0 1 4 0Z" clip-rule="evenodd"/></symbol>
  <use href="#icon"/>
</svg>
