<svg xmlns="http://www.w3.org/2000/svg">
  <symbol id="icon" fill="none" viewBox="0 0 16 16"><path fill="currentColor" fill-rule="evenodd" d="M3.383 1a1.5 1.5 0 0 0-1.489 1.313l-.89 7.117A.504.504 0 0 0 1 9.5v4A1.5 1.5 0 0 0 2.5 15h11a1.5 1.5 0 0 0 1.5-1.5v-4a.495.495 0 0 0-.003-.062l-.891-7.124A1.5 1.5 0 0 0 12.617 1H3.383ZM2 10v3.5a.5.5 0 0 0 .5.5h11a.5.5 0 0 0 .5-.5V10h-2.882a.5.5 0 0 0-.447.276l-.447.895A1.5 1.5 0 0 1 8.882 12H7.118a1.5 1.5 0 0 1-1.342-.83l-.447-.894A.5.5 0 0 0 4.882 10H2Zm11.934-1-.82-6.562A.5.5 0 0 0 12.616 2H3.383a.5.5 0 0 0-.496.438L2.067 9h2.815a1.5 1.5 0 0 1 1.342.83l.447.894a.5.5 0 0 0 .447.276h1.764a.5.5 0 0 0 .447-.276l.447-.895A1.5 1.5 0 0 1 11.118 9h2.816Z" clip-rule="evenodd"/></symbol>
  <symbol id="icon-large" fill="none" viewBox="0 0 24 24"><path fill="currentColor" fill-rule="evenodd" d="M5.395 3a1.5 1.5 0 0 0-1.49 1.334l-.901 8.104A.504.504 0 0 0 3 12.5v7A1.5 1.5 0 0 0 4.5 21h15a1.5 1.5 0 0 0 1.5-1.5v-7a.495.495 0 0 0-.004-.062l-.9-8.104A1.5 1.5 0 0 0 18.605 3H5.395Zm14.546 9-.84-7.555A.5.5 0 0 0 18.606 4H5.395a.5.5 0 0 0-.497.445L4.058 12H6.78a1.5 1.5 0 0 1 1.423 1.026l.544 1.632a.5.5 0 0 0 .475.342h5.558a.5.5 0 0 0 .475-.342l.544-1.632A1.5 1.5 0 0 1 17.22 12h2.72ZM4 13v6.5a.5.5 0 0 0 .5.5h15a.5.5 0 0 0 .5-.5V13h-2.78a.5.5 0 0 0-.474.342l-.544 1.632A1.5 1.5 0 0 1 14.78 16H9.221a1.5 1.5 0 0 1-1.423-1.026l-.544-1.632A.5.5 0 0 0 6.779 13H4Z" clip-rule="evenodd"/></symbol>
  <use href="#icon"/>
</svg>
