<svg xmlns="http://www.w3.org/2000/svg">
  <symbol id="icon" fill="none" viewBox="0 0 16 16"><path fill="currentColor" d="M12.6 2.01a.5.5 0 0 1 .4.49v4.959l.993 5.959A.501.501 0 0 1 13.5 14h-11a.5.5 0 0 1-.493-.582L3 7.459V2.5l.01-.1A.5.5 0 0 1 3.5 2h9l.1.01ZM3.09 13h9.82l-.834-5H3.924l-.834 5ZM8 8.5a.5.5 0 0 1 .5.5v3a.5.5 0 0 1-1 0V9a.5.5 0 0 1 .5-.5Zm-2.459.002a.5.5 0 0 1 .456.54l-.25 3a.5.5 0 0 1-.996-.084l.25-3 .019-.099a.5.5 0 0 1 .521-.357Zm4.916 0a.5.5 0 0 1 .522.357l.018.099.25 3-.002.102a.5.5 0 0 1-.975.08l-.019-.098-.25-3 .002-.102a.5.5 0 0 1 .454-.438ZM4 7h1V4.5l.01-.1A.5.5 0 0 1 5.5 4h5l.1.01a.5.5 0 0 1 .4.49V7h1V3H4v4Zm2 0h4V5H6v2Z"/></symbol>
  <symbol id="icon-large" fill="none" viewBox="0 0 24 24"><path fill="currentColor" d="M18.5 2A1.5 1.5 0 0 1 20 3.5v5.98l.909 10.895A1.5 1.5 0 0 1 19.414 22H4.586a1.5 1.5 0 0 1-1.495-1.625L4 9.48V3.5A1.5 1.5 0 0 1 5.5 2h13ZM4.09 20.458a.5.5 0 0 0 .497.542h14.826a.5.5 0 0 0 .498-.542L19.041 10H4.96l-.872 10.458ZM12 12a.5.5 0 0 1 .5.5v6a.5.5 0 0 1-1 0v-6a.5.5 0 0 1 .5-.5Zm-3.958.002a.5.5 0 0 1 .454.438l.002.102-.5 6a.5.5 0 0 1-.996-.084l.5-6 .019-.099a.5.5 0 0 1 .521-.357Zm7.916 0a.5.5 0 0 1 .522.357l.018.099.5 6-.002.102a.5.5 0 0 1-.975.08l-.019-.098-.5-6 .002-.102a.5.5 0 0 1 .454-.438ZM5.5 3a.5.5 0 0 0-.5.5V9h1.5V5l.01-.1A.5.5 0 0 1 7 4.5h10l.101.01a.5.5 0 0 1 .4.49v4H19V3.5a.5.5 0 0 0-.5-.5h-13Zm2 6h9V5.5h-9V9Z"/></symbol>
  <use href="#icon"/>
</svg>
