<svg xmlns="http://www.w3.org/2000/svg">
  <symbol id="icon" fill="none" viewBox="0 0 16 16"><path fill="currentColor" fill-rule="evenodd" d="M9.748 1.726a.5.5 0 0 1 .504 0l3 1.75a.5.5 0 0 1 .248.432v3.518a.5.5 0 0 1-.248.432L10.5 9.463v-.889a1.5 1.5 0 0 0-.744-1.295l-3-1.75A1.5 1.5 0 0 0 6.5 5.41V3.908a.5.5 0 0 1 .248-.432l3-1.75ZM5.5 5.41V3.908a1.5 1.5 0 0 1 .744-1.296l3-1.75a1.5 1.5 0 0 1 1.512 0l3 1.75a1.5 1.5 0 0 1 .744 1.296v3.518a1.5 1.5 0 0 1-.744 1.295l-3.256 1.9v1.471a1.5 1.5 0 0 1-.744 1.296l-3 1.75a1.5 1.5 0 0 1-1.512 0l-3-1.75a1.5 1.5 0 0 1-.744-1.296V8.574a1.5 1.5 0 0 1 .744-1.295l3-1.75A1.5 1.5 0 0 1 5.5 5.41Zm.752.982a.5.5 0 0 0-.504 0l-3 1.75a.5.5 0 0 0-.248.432v3.518a.5.5 0 0 0 .248.432l3 1.75a.5.5 0 0 0 .504 0l3-1.75a.5.5 0 0 0 .248-.432V8.574a.5.5 0 0 0-.248-.432l-3-1.75Zm-1.7 2.884a.5.5 0 0 1 .672-.223l1 .5A.5.5 0 0 1 6.5 10v2.117l.576-.346a.5.5 0 1 1 .515.858l-1.334.8a.5.5 0 0 1-.514 0l-1.334-.8a.5.5 0 0 1 .515-.858l.576.346v-1.808l-.724-.362a.5.5 0 0 1-.223-.67ZM6.5 8.166a.5.5 0 1 1-1 0 .5.5 0 0 1 1 0Zm4-4.283.576.346a.5.5 0 1 0 .515-.858l-1.334-.8a.5.5 0 0 0-.514 0l-1.334.8a.5.5 0 1 0 .515.858l.576-.346V6a.5.5 0 0 0 .276.447l1 .5a.5.5 0 0 0 .448-.894L10.5 5.69V3.883Z" clip-rule="evenodd"/></symbol>
  <symbol id="icon-large" fill="none" viewBox="0 0 24 24"><path fill="currentColor" fill-rule="evenodd" d="M14.748 2.226a.5.5 0 0 1 .504 0l5 2.916a.5.5 0 0 1 .248.432v5.852a.5.5 0 0 1-.248.431L15.5 14.63v-2.056a1.5 1.5 0 0 0-.744-1.295l-5-2.917a1.5 1.5 0 0 0-.256-.119V5.574a.5.5 0 0 1 .248-.432l5-2.916ZM8.5 8.243V5.574a1.5 1.5 0 0 1 .744-1.295l5-2.917a1.5 1.5 0 0 1 1.512 0l5 2.917a1.5 1.5 0 0 1 .744 1.295v5.852a1.5 1.5 0 0 1-.744 1.295L15.5 15.787v2.639a1.5 1.5 0 0 1-.744 1.295l-5 2.917a1.5 1.5 0 0 1-1.512 0l-5-2.917a1.5 1.5 0 0 1-.744-1.295v-5.852a1.5 1.5 0 0 1 .744-1.295l5-2.917a1.5 1.5 0 0 1 .256-.119Zm.752.983a.5.5 0 0 0-.504 0l-5 2.916a.5.5 0 0 0-.248.432v5.852a.5.5 0 0 0 .248.432l5 2.916a.5.5 0 0 0 .504 0l5-2.916a.5.5 0 0 0 .248-.432v-5.852a.5.5 0 0 0-.248-.431l-5-2.917Zm-2.2 4.8a.5.5 0 0 1 .672-.223l1.5.75A.5.5 0 0 1 9.5 15v3.617l1.243-.746a.5.5 0 1 1 .514.858l-2 1.2a.5.5 0 0 1-.514 0l-2-1.2a.5.5 0 0 1 .514-.858l1.243.746v-3.308l-1.224-.612a.5.5 0 0 1-.223-.67ZM9.75 12.25a.75.75 0 1 1-1.5 0 .75.75 0 0 1 1.5 0Zm5.75-6.867 1.243.746a.5.5 0 1 0 .514-.858l-2-1.2a.5.5 0 0 0-.514 0l-2 1.2a.5.5 0 0 0 .514.858l1.243-.746V9.5a.5.5 0 0 0 .276.447l1.5.75a.5.5 0 1 0 .448-.894L15.5 9.19V5.383Z" clip-rule="evenodd"/></symbol>
  <use href="#icon"/>
</svg>
