<svg xmlns="http://www.w3.org/2000/svg">
  <symbol id="icon" fill="none" viewBox="0 0 16 16"><path fill="currentColor" d="M13.353 10.522a.5.5 0 0 1 .386.918l-5.02 2.738c-.448.244-.99.244-1.438 0l-5.02-2.738-.084-.058a.5.5 0 0 1 .47-.86l.092.04L7.761 13.3a.5.5 0 0 0 .478 0l5.021-2.738.093-.04ZM2.061 7.76a.5.5 0 0 1 .585-.24l.093.04 5.022 2.74a.5.5 0 0 0 .478 0l5.021-2.738a.5.5 0 1 1 .479.877l-5.02 2.739c-.448.244-.99.244-1.438 0l-5.02-2.74-.084-.056a.5.5 0 0 1-.116-.621Zm5.22-5.938c.448-.245.99-.245 1.438 0l5.02 2.739a.5.5 0 0 1 0 .877l-5.02 2.739c-.448.244-.99.244-1.438 0l-5.02-2.74a.5.5 0 0 1 0-.876l5.02-2.74Zm.958.877a.5.5 0 0 0-.478 0L3.543 5 7.76 7.3a.5.5 0 0 0 .478 0L12.456 5 8.239 2.7Z"/></symbol>
  <symbol id="icon-large" fill="none" viewBox="0 0 24 24"><path fill="currentColor" fill-rule="evenodd" d="M12.254 2.57a.5.5 0 0 0-.447-.03l-.06.03-8.5 5a.5.5 0 0 0 0 .86l8.5 5a.502.502 0 0 0 .507 0l8.5-5a.5.5 0 0 0 0-.86l-8.5-5ZM12 12.42 4.485 8 12 3.58 19.514 8 12 12.42Zm8.246-.85a.5.5 0 0 1 .508.86l-8.5 5a.502.502 0 0 1-.508 0l-8.5-5a.5.5 0 0 1 .508-.86L12 16.42l8.246-4.85Zm0 4a.5.5 0 0 1 .508.86l-8.5 5a.502.502 0 0 1-.508 0l-8.5-5a.5.5 0 0 1 .508-.86L12 20.42l8.246-4.85Z" clip-rule="evenodd"/></symbol>
  <use href="#icon"/>
</svg>
