<svg xmlns="http://www.w3.org/2000/svg">
  <symbol id="icon" fill="none" viewBox="0 0 16 16"><path fill="currentColor" fill-rule="evenodd" d="M4 1a.5.5 0 0 0 0 1h8a.5.5 0 0 0 0-1H4ZM2.5 3.5A.5.5 0 0 1 3 3h10a.5.5 0 0 1 0 1H3a.5.5 0 0 1-.5-.5Zm-1.501 3a1.5 1.5 0 0 1 1.5-1.5H13.5A1.5 1.5 0 0 1 15 6.5v7a1.5 1.5 0 0 1-1.5 1.5H2.499a1.5 1.5 0 0 1-1.5-1.5v-7Zm1.5-.5a.5.5 0 0 0-.5.5v7a.5.5 0 0 0 .5.5H13.5a.5.5 0 0 0 .5-.5v-7a.5.5 0 0 0-.5-.5H2.499Z" clip-rule="evenodd"/></symbol>
  <symbol id="icon-large" fill="none" viewBox="0 0 24 24"><path fill="currentColor" fill-rule="evenodd" d="M6.5 3a.5.5 0 0 0 0 1h11a.5.5 0 0 0 0-1h-11ZM4 5.5a.5.5 0 0 1 .5-.5h15a.5.5 0 0 1 0 1h-15a.5.5 0 0 1-.5-.5Zm-2 3A1.5 1.5 0 0 1 3.5 7h17A1.5 1.5 0 0 1 22 8.5v11a1.5 1.5 0 0 1-1.5 1.5h-17A1.5 1.5 0 0 1 2 19.5v-11ZM3.5 8a.5.5 0 0 0-.5.5v11a.5.5 0 0 0 .5.5h17a.5.5 0 0 0 .5-.5v-11a.5.5 0 0 0-.5-.5h-17Z" clip-rule="evenodd"/></symbol>
  <use href="#icon"/>
</svg>
