<svg xmlns="http://www.w3.org/2000/svg">
  <symbol id="icon" fill="none" viewBox="0 0 16 16"><path fill="currentColor" fill-rule="evenodd" d="M3.498 6.5C3.497 3.792 5.497 2 7.998 2s4.502 1.792 4.5 4.5c0 2.086-1.047 3.976-2.198 5.369a11.821 11.821 0 0 1-1.625 1.625c-.235.19-.433.33-.58.42a2.07 2.07 0 0 1-.097.056 2.135 2.135 0 0 1-.097-.056 5.687 5.687 0 0 1-.58-.42 11.827 11.827 0 0 1-1.624-1.625C4.547 10.476 3.5 8.586 3.498 6.5Zm4.41 7.512Zm.179 0-.007-.002a.122.122 0 0 0 .007.002ZM7.997 1c-3.02 0-5.5 2.208-5.499 5.5.001 2.414 1.205 4.524 2.428 6.006a12.816 12.816 0 0 0 1.766 1.765c.258.21.493.377.687.496.097.06.19.111.278.15.068.03.197.083.34.083a.861.861 0 0 0 .342-.083 2.42 2.42 0 0 0 .278-.15c.194-.119.429-.287.687-.495a12.82 12.82 0 0 0 1.767-1.766c1.224-1.482 2.428-3.592 2.427-6.006h-.5.5c.002-3.292-2.48-5.5-5.5-5.5ZM6.499 6.5a1.5 1.5 0 1 1 3 0 1.5 1.5 0 0 1-3 0Zm1.5-2.5a2.5 2.5 0 1 0 0 5 2.5 2.5 0 0 0 0-5Z" clip-rule="evenodd"/></symbol>
  <symbol id="icon-large" fill="none" viewBox="0 0 24 24"><path fill="currentColor" fill-rule="evenodd" d="M5 10c0-3.97 3.13-7 7-7s7 3.03 7 7c0 2.415-1.223 4.731-2.712 6.648-1.483 1.908-3.184 3.359-4.038 4.035a.393.393 0 0 1-.5 0c-.854-.676-2.555-2.127-4.038-4.035C6.222 14.73 5 12.415 5 10Zm7-8c-4.414 0-8 3.47-8 8 0 2.74 1.377 5.273 2.923 7.261 1.551 1.997 3.32 3.505 4.207 4.206a1.394 1.394 0 0 0 1.74 0c.886-.7 2.655-2.21 4.207-4.206C18.623 15.273 20 12.741 20 10c0-4.53-3.586-8-8-8Zm-2.002 8a2 2 0 1 1 4 0 2 2 0 0 1-4 0Zm2-3a3 3 0 1 0 0 6 3 3 0 0 0 0-6Z" clip-rule="evenodd"/></symbol>
  <use href="#icon"/>
</svg>
