<svg xmlns="http://www.w3.org/2000/svg">
  <symbol id="icon" fill="none" viewBox="0 0 16 16"><path fill="currentColor" d="M8 1.5a3 3 0 0 1 3 3V7h.5A1.5 1.5 0 0 1 13 8.5v4a1.5 1.5 0 0 1-1.5 1.5h-7A1.5 1.5 0 0 1 3 12.5v-4A1.5 1.5 0 0 1 4.5 7H10V4.5a2 2 0 1 0-4 0V5H5v-.5a3 3 0 0 1 3-3ZM4.5 8a.5.5 0 0 0-.5.5v4a.5.5 0 0 0 .5.5h7a.5.5 0 0 0 .5-.5v-4a.5.5 0 0 0-.5-.5h-7Z"/></symbol>
  <symbol id="icon-large" fill="none" viewBox="0 0 24 24"><path fill="currentColor" fill-rule="evenodd" d="M13.009 2.142A3 3 0 0 1 15 4.967V8H5.5A1.5 1.5 0 0 0 4 9.5v10A1.5 1.5 0 0 0 5.5 21h13a1.5 1.5 0 0 0 1.5-1.5v-10A1.5 1.5 0 0 0 18.5 8H16V4.967a4 4 0 0 0-2.654-3.768C10.74.27 8 2.201 8 4.967V6h1V4.967c0-2.075 2.055-3.523 4.009-2.825ZM18.5 9a.5.5 0 0 1 .5.5v10a.5.5 0 0 1-.5.5h-13a.5.5 0 0 1-.5-.5v-10a.5.5 0 0 1 .5-.5h13ZM11 13a1 1 0 1 1 1.5.866V16.5a.5.5 0 0 1-1 0v-2.634A1 1 0 0 1 11 13Z" clip-rule="evenodd"/></symbol>
  <use href="#icon"/>
</svg>
