<svg xmlns="http://www.w3.org/2000/svg">
  <symbol id="icon" fill="none" viewBox="0 0 16 16"><path fill="currentColor" d="M8.87 2.535a3.328 3.328 0 0 1 4.582 4.825l-2.107 2.002A.502.502 0 0 1 11 9.5H9.5V11a.5.5 0 0 1-.146.354l-1 1a.5.5 0 0 1-.708 0L6 10.707l-3.646 3.646-.708-.707L5.293 10 3.646 8.354a.5.5 0 0 1 0-.708l1-1 .077-.062A.5.5 0 0 1 5 6.5h1.5V5a.5.5 0 0 1 .155-.362L8.87 2.535Zm3.937.767a2.328 2.328 0 0 0-3.25-.041L7.5 5.214V7a.5.5 0 0 1-.5.5H5.207l-.5.5L8 11.293l.5-.5V9a.5.5 0 0 1 .5-.5h1.8l1.964-1.864a2.328 2.328 0 0 0 .043-3.334Zm-1.66.844a.5.5 0 1 1 .707.708l-2 2a.5.5 0 0 1-.708-.708l2-2Z"/></symbol>
  <symbol id="icon-large" fill="none" viewBox="0 0 24 24"><path fill="currentColor" fill-rule="evenodd" d="M14.396 3.396a4.389 4.389 0 1 1 6.207 6.207l-4.25 4.25A.5.5 0 0 1 16 14h-2v2a.5.5 0 0 1-.146.353l-1.5 1.5a.5.5 0 0 1-.707 0L9.25 15.457l-6.897 6.896-.707-.707 6.897-6.896-2.397-2.397a.5.5 0 0 1 0-.707l1.5-1.5.077-.062A.5.5 0 0 1 8 10h2V8a.5.5 0 0 1 .146-.354l4.25-4.25Zm5.5.707a3.39 3.39 0 0 0-4.793 0L11 8.207V10.5a.5.5 0 0 1-.5.5H8.207l-1 1L12 16.793l1-1V13.5a.5.5 0 0 1 .5-.5h2.293l4.104-4.104a3.39 3.39 0 0 0 0-4.793Zm-1.043 1.043a.5.5 0 0 0-.707 0l-5 5a.5.5 0 1 0 .707.707l5-5a.5.5 0 0 0 0-.707Z" clip-rule="evenodd"/></symbol>
  <use href="#icon"/>
</svg>
