<svg xmlns="http://www.w3.org/2000/svg">
  <symbol id="icon" fill="none" viewBox="0 0 16 16"><path fill="currentColor" d="M5.008 2.15c.307-.115.644-.126.958-.032l4.346 1.304a.502.502 0 0 0 .327-.014l2.311-.91A1.5 1.5 0 0 1 15 3.892l.001 7.414a1.5 1.5 0 0 1-.974 1.404l-3.036 1.139a1.5 1.5 0 0 1-.957.032L5.68 12.575a.502.502 0 0 0-.32.01l-2.334.877A1.5 1.5 0 0 1 1 12.057L.999 4.693c0-.625.388-1.185.974-1.405L5.008 2.15ZM6 11.628l4 1.2V4.37l-4-1.2v8.457Zm8-7.734a.5.5 0 0 0-.684-.466l-2.311.91H11v8.44l2.677-1.003a.5.5 0 0 0 .324-.468L14 3.894Zm-11.677.33a.501.501 0 0 0-.324.47L2 12.056a.5.5 0 0 0 .675.468L5 11.653V3.221L2.323 4.225Z"/></symbol>
  <symbol id="icon-large" fill="none" viewBox="0 0 24 24"><path fill="currentColor" fill-rule="evenodd" d="M21 5.388v11.891a.5.5 0 0 1-.342.475L16 19.306V6.361l4.342-1.448a.5.5 0 0 1 .658.475Zm-6 .989v12.96l-6-1.714V4.663l6 1.714ZM8 4.694v12.945l-4.342 1.448A.5.5 0 0 1 3 18.612V6.721a.5.5 0 0 1 .342-.475L8 4.694Zm12.975 14.008A1.5 1.5 0 0 0 22 17.28V5.388a1.5 1.5 0 0 0-1.975-1.423l-4.39 1.463a.502.502 0 0 1-.295.007l-6.405-1.83a1.5 1.5 0 0 0-.886.018L3.025 5.298A1.5 1.5 0 0 0 2 6.72v11.891a1.5 1.5 0 0 0 1.975 1.423l4.39-1.463a.502.502 0 0 1 .295-.007l6.405 1.83c.29.084.6.077.886-.018l5.024-1.675Z" clip-rule="evenodd"/></symbol>
  <use href="#icon"/>
</svg>
