<svg xmlns="http://www.w3.org/2000/svg">
  <symbol id="icon" fill="none" viewBox="0 0 16 16"><path fill="currentColor" d="M10.647 11.647a.5.5 0 0 1 .628-.065l.079.065 1.5 1.5.064.078a.5.5 0 0 1 0 .55l-.064.079-1.5 1.5a.5.5 0 0 1-.707-.707l.646-.646H10.5a.5.5 0 0 1 0-1h.793l-.646-.647-.065-.078a.5.5 0 0 1 .065-.629Zm-8.147.354a.5.5 0 0 1 .5.5v.5h.5a.5.5 0 0 1 0 1h-1a.5.5 0 0 1-.5-.5v-1a.5.5 0 0 1 .5-.5ZM6 13a.5.5 0 0 1 0 1h-.5a.5.5 0 0 1 0-1H6Zm2.5 0a.5.5 0 0 1 0 1H8a.5.5 0 0 1 0-1h.5Zm5.1-10.99a.5.5 0 0 1 .4.49v11a.5.5 0 0 1-1 0V3H2.5a.5.5 0 0 1 0-1h11l.1.01ZM2.5 9.5a.5.5 0 0 1 .5.5v.5a.5.5 0 0 1-1 0V10a.5.5 0 0 1 .5-.5Zm0-2.5a.5.5 0 0 1 .5.5V8a.5.5 0 0 1-1 0v-.5a.5.5 0 0 1 .5-.5Zm-.275-3.918a.5.5 0 0 1 .629.064l1.5 1.5.064.078a.501.501 0 0 1-.693.693l-.078-.064L3 4.708V5.5a.5.5 0 0 1-1 0v-.792l-.646.646a.5.5 0 0 1-.707-.707l1.5-1.5.078-.064Z"/></symbol>
  <symbol id="icon-large" fill="none" viewBox="0 0 24 24"><path fill="currentColor" d="M17.147 18.147a.5.5 0 0 1 .629-.065l.078.065 2 2 .064.078a.5.5 0 0 1-.064.629l-2 2a.5.5 0 1 1-.707-.707L18.293 21H16a.5.5 0 0 1 0-1h2.293l-1.146-1.146-.065-.078a.5.5 0 0 1 .065-.63ZM3.5 18.5a.5.5 0 0 1 .5.5v1h1a.5.5 0 0 1 0 1H3.5a.5.5 0 0 1-.5-.5V19a.5.5 0 0 1 .5-.5ZM8 20a.5.5 0 0 1 0 1H7a.5.5 0 0 1 0-1h1Zm3 0a.5.5 0 0 1 0 1h-1a.5.5 0 0 1 0-1h1Zm3 0a.5.5 0 0 1 0 1h-1a.5.5 0 0 1 0-1h1Zm6.6-16.99a.5.5 0 0 1 .4.49v17a.5.5 0 0 1-1 0V4H3.5a.5.5 0 0 1 0-1h17l.1.01ZM3.5 15.5a.5.5 0 0 1 .5.5v1a.5.5 0 0 1-1 0v-1a.5.5 0 0 1 .5-.5Zm0-3a.5.5 0 0 1 .5.5v1a.5.5 0 0 1-1 0v-1a.5.5 0 0 1 .5-.5Zm0-3a.5.5 0 0 1 .5.5v1a.5.5 0 0 1-1 0v-1a.5.5 0 0 1 .5-.5Zm-.275-5.418a.5.5 0 0 1 .629.065l2 2 .064.078a.5.5 0 0 1-.693.693l-.078-.064L4 5.707V8a.5.5 0 0 1-1 0V5.707L1.854 6.854a.5.5 0 0 1-.707-.707l2-2 .078-.065Z"/></symbol>
  <use href="#icon"/>
</svg>
