<svg xmlns="http://www.w3.org/2000/svg">
  <symbol id="icon" fill="none" viewBox="0 0 16 16"><path fill="currentColor" d="M12.5 2a.5.5 0 0 1 0 1 4 4 0 0 0-4 4v1l-.002.02.001 4.273 2.147-2.146a.5.5 0 0 1 .707.707l-3 3a.5.5 0 0 1-.707 0l-3-3-.064-.079a.5.5 0 0 1 .693-.693l.079.064 2.145 2.146V8H7.5V7a4 4 0 0 0-4-4 .5.5 0 0 1 0-1A5 5 0 0 1 8 4.818 5 5 0 0 1 12.5 2Z"/></symbol>
  <symbol id="icon-large" fill="none" viewBox="0 0 24 24"><path fill="currentColor" fill-rule="evenodd" d="M12.073 8.833A9.003 9.003 0 0 1 20.5 3a.5.5 0 0 1 0 1 8 8 0 0 0-8 8v7.293l2.646-2.646a.5.5 0 1 1 .707.707l-3.5 3.5a.5.5 0 0 1-.707 0l-3.5-3.5a.5.5 0 1 1 .707-.707l2.647 2.646V11.5A7.5 7.5 0 0 0 4 4h-.5a.5.5 0 0 1 0-1H4a8.504 8.504 0 0 1 8.073 5.833Z" clip-rule="evenodd"/></symbol>
  <use href="#icon"/>
</svg>
