<svg xmlns="http://www.w3.org/2000/svg">
  <symbol id="icon" fill="none" viewBox="0 0 16 16"><path fill="currentColor" d="M7.725 1.582a.501.501 0 0 1 .629.064l2 2 .064.078a.5.5 0 0 1-.693.694l-.078-.065L8.5 3.207V7.5h4.293l-1.146-1.147-.065-.078a.5.5 0 0 1 .693-.693l.079.064 2 2a.5.5 0 0 1 0 .707l-2 2a.5.5 0 0 1-.707-.707L12.793 8.5H8.501v4.292l1.146-1.146a.5.5 0 0 1 .707.707l-2 2a.5.5 0 0 1-.707 0l-2-2-.065-.078a.5.5 0 0 1 .694-.693l.078.064L7.5 12.793 7.501 8.5H3.207l1.147 1.146.064.078a.5.5 0 0 1-.693.694l-.078-.065-2-2a.5.5 0 0 1 0-.707l2-2a.5.5 0 0 1 .707.707L3.207 7.5H7.5V3.207L6.354 4.353a.5.5 0 1 1-.707-.707l2-2 .078-.064Z"/></symbol>
  <symbol id="icon-large" fill="none" viewBox="0 0 24 24"><path fill="currentColor" fill-rule="evenodd" d="M12.354 2.146a.5.5 0 0 0-.63-.064l-.078.064-3 3a.5.5 0 1 0 .708.708L11.5 3.707V11.5H3.707l2.147-2.146a.5.5 0 1 0-.708-.708l-3 3a.5.5 0 0 0 0 .707l3 3a.5.5 0 1 0 .708-.707L3.707 12.5H11.5v7.793l-2.146-2.146a.5.5 0 1 0-.708.707l3 3a.5.5 0 0 0 .707 0l3-3a.5.5 0 1 0-.707-.707L12.5 20.293V12.5h7.793l-2.146 2.146a.5.5 0 1 0 .707.707l3-3a.5.5 0 0 0 0-.707l-3-3a.5.5 0 1 0-.707.708l2.146 2.146H12.5V3.707l2.146 2.147a.5.5 0 1 0 .707-.708l-3-3Z" clip-rule="evenodd"/></symbol>
  <use href="#icon"/>
</svg>
