<svg xmlns="http://www.w3.org/2000/svg">
  <symbol id="icon" fill="none" viewBox="0 0 16 16"><path fill="currentColor" fill-rule="evenodd" d="M8.5 1.5a.5.5 0 0 0-1 0V4a.5.5 0 0 0 1 0V1.5ZM4.146 4.146a.5.5 0 0 1 .708 0l.5.5a.5.5 0 0 1-.708.708l-.5-.5a.5.5 0 0 1 0-.708ZM1 8a.5.5 0 0 1 .5-.5H4a.5.5 0 0 1 0 1H1.5A.5.5 0 0 1 1 8Zm4.354 3.354a.5.5 0 1 0-.708-.707l-.5.5a.5.5 0 1 0 .708.707l.5-.5ZM8 11.5a.5.5 0 0 1 .5.5v2.5a.5.5 0 0 1-1 0V12a.5.5 0 0 1 .5-.5ZM7 8a1 1 0 1 1 2 0 1 1 0 0 1-2 0Zm1-2a2 2 0 1 0 0 4 2 2 0 0 0 0-4Zm2.646 4.646a.5.5 0 0 1 .708 0l.5.5a.5.5 0 0 1-.708.708l-.5-.5a.5.5 0 0 1 0-.708ZM12 7.5a.5.5 0 0 0 0 1h2.5a.5.5 0 0 0 0-1H12Zm-.146-3.354a.5.5 0 0 1 0 .708l-.5.5a.5.5 0 0 1-.708-.708l.5-.5a.5.5 0 0 1 .708 0Z" clip-rule="evenodd"/></symbol>
  <symbol id="icon-large" fill="none" viewBox="0 0 24 24"><path fill="currentColor" fill-rule="evenodd" d="M12.5 2.5a.5.5 0 0 0-1 0v5a.5.5 0 0 0 1 0v-5ZM6.646 6.646a.5.5 0 0 1 .708 0l1.5 1.5a.5.5 0 1 1-.708.708l-1.5-1.5a.5.5 0 0 1 0-.708ZM2 12a.5.5 0 0 1 .5-.5h5a.5.5 0 0 1 0 1h-5A.5.5 0 0 1 2 12Zm6.854 3.854a.5.5 0 0 0-.708-.708l-1.5 1.5a.5.5 0 0 0 .708.708l1.5-1.5ZM12 16a.5.5 0 0 1 .5.5v5a.5.5 0 0 1-1 0v-5a.5.5 0 0 1 .5-.5Zm-1-4a1 1 0 1 1 2 0 1 1 0 0 1-2 0Zm1-2a2 2 0 1 0 0 4 2 2 0 0 0 0-4Zm3.146 5.146a.5.5 0 0 1 .708 0l1.5 1.5a.5.5 0 0 1-.708.708l-1.5-1.5a.5.5 0 0 1 0-.708ZM16.5 11.5a.5.5 0 0 0 0 1h5a.5.5 0 0 0 0-1h-5Zm.854-4.854a.5.5 0 0 1 0 .708l-1.5 1.5a.5.5 0 0 1-.708-.708l1.5-1.5a.5.5 0 0 1 .708 0Z" clip-rule="evenodd"/></symbol>
  <use href="#icon"/>
</svg>
