<svg xmlns="http://www.w3.org/2000/svg">
  <symbol id="icon" fill="none" viewBox="0 0 16 16"><path fill="currentColor" fill-rule="evenodd" d="M8 1a.5.5 0 0 1 .5.5v1a.5.5 0 0 1-1 0v-1A.5.5 0 0 1 8 1Zm0 3a.5.5 0 0 1 .5.5v1a.5.5 0 0 1-1 0v-1A.5.5 0 0 1 8 4Zm0 3a.5.5 0 0 1 .5.5v1a.5.5 0 0 1-1 0v-1A.5.5 0 0 1 8 7Zm0 3a.5.5 0 0 1 .5.5v1a.5.5 0 0 1-1 0v-1A.5.5 0 0 1 8 10Zm0 3a.5.5 0 0 1 .5.5v1a.5.5 0 0 1-1 0v-1A.5.5 0 0 1 8 13Zm6.763-9.925A.5.5 0 0 1 15 3.5v9a.5.5 0 0 1-.724.447l-4-2A.5.5 0 0 1 10 10.5v-5a.5.5 0 0 1 .276-.447l4-2a.5.5 0 0 1 .487.022ZM11 5.809v4.382l3 1.5V4.309l-3 1.5ZM1.724 3.053A.5.5 0 0 0 1 3.5v9a.5.5 0 0 0 .724.447l4-2A.5.5 0 0 0 6 10.5v-5a.5.5 0 0 0-.276-.447l-4-2ZM2 11.69V4.309l3 1.5v4.382l-3 1.5Z" clip-rule="evenodd"/></symbol>
  <symbol id="icon-large" fill="none" viewBox="0 0 24 24"><path fill="currentColor" fill-rule="evenodd" d="M12 3a.5.5 0 0 1 .5.5V5a.5.5 0 0 1-1 0V3.5A.5.5 0 0 1 12 3Zm0 3.5a.5.5 0 0 1 .5.5v2a.5.5 0 0 1-1 0V7a.5.5 0 0 1 .5-.5Zm0 4a.5.5 0 0 1 .5.5v2a.5.5 0 0 1-1 0v-2a.5.5 0 0 1 .5-.5Zm0 4a.5.5 0 0 1 .5.5v2a.5.5 0 0 1-1 0v-2a.5.5 0 0 1 .5-.5Zm0 4a.5.5 0 0 1 .5.5v1.5a.5.5 0 0 1-1 0V19a.5.5 0 0 1 .5-.5Zm8.77-13.42a.5.5 0 0 1 .23.42v13a.5.5 0 0 1-.707.455l-5.5-2.5A.5.5 0 0 1 14.5 16V8a.5.5 0 0 1 .293-.455l5.5-2.5a.5.5 0 0 1 .478.035ZM15.5 8.322v7.356l4.5 2.046V6.277l-4.5 2.045ZM3.707 5.045A.5.5 0 0 0 3 5.5v13a.5.5 0 0 0 .707.455l5.5-2.5A.5.5 0 0 0 9.5 16V8a.5.5 0 0 0-.293-.455l-5.5-2.5ZM4 17.724V6.277l4.5 2.045v7.356L4 17.724Z" clip-rule="evenodd"/></symbol>
  <use href="#icon"/>
</svg>
