<svg xmlns="http://www.w3.org/2000/svg">
  <symbol id="icon" fill="none" viewBox="0 0 16 16"><path fill="currentColor" fill-rule="evenodd" d="M11.5 1.5A.5.5 0 0 1 12 1h2.5a.5.5 0 0 1 .5.5V4a.5.5 0 0 1-1 0V2.707l-2.146 2.147-.708-.708L13.293 2H12a.5.5 0 0 1-.5-.5ZM6 5a1 1 0 0 0-1 1v4a1 1 0 0 0 1 1h4a1 1 0 0 0 1-1V6a1 1 0 0 0-1-1H6Zm0 1h4v4H6V6Zm-1.146 5.854L2.707 14H4a.5.5 0 0 1 0 1H1.5a.5.5 0 0 1-.5-.5V12a.5.5 0 0 1 1 0v1.293l2.146-2.147.708.708ZM15 12a.5.5 0 0 0-1 0v1.293l-2.146-2.147-.708.708L13.293 14H12a.5.5 0 0 0 0 1h2.5a.5.5 0 0 0 .5-.5V12ZM1 1.5a.5.5 0 0 1 .5-.5H4a.5.5 0 0 1 0 1H2.707l2.147 2.146-.708.708L2 2.707V4a.5.5 0 0 1-1 0V1.5Z" clip-rule="evenodd"/></symbol>
  <symbol id="icon-large" fill="none" viewBox="0 0 24 24"><path fill="currentColor" fill-rule="evenodd" d="M16.5 3a.5.5 0 0 0 0 1h2.793l-3.147 3.146.708.708L20 4.707V7.5a.5.5 0 0 0 1 0v-4a.5.5 0 0 0-.5-.5h-4ZM9 9.5a.5.5 0 0 1 .5-.5h5a.5.5 0 0 1 .5.5v5a.5.5 0 0 1-.5.5h-5a.5.5 0 0 1-.5-.5v-5ZM9.5 8A1.5 1.5 0 0 0 8 9.5v5A1.5 1.5 0 0 0 9.5 16h5a1.5 1.5 0 0 0 1.5-1.5v-5A1.5 1.5 0 0 0 14.5 8h-5ZM4 16.5v2.793l3.146-3.147.708.708L4.707 20H7.5a.5.5 0 0 1 0 1h-4a.5.5 0 0 1-.5-.5v-4a.5.5 0 0 1 1 0Zm17 0a.5.5 0 0 0-1 0v2.793l-3.146-3.147-.708.708L19.293 20H16.5a.5.5 0 0 0 0 1h4a.5.5 0 0 0 .5-.5v-4ZM4.707 4H7.5a.5.5 0 0 0 0-1h-4a.5.5 0 0 0-.5.5v4a.5.5 0 0 0 1 0V4.707l3.146 3.147.708-.708L4.707 4Z" clip-rule="evenodd"/></symbol>
  <use href="#icon"/>
</svg>
