<svg xmlns="http://www.w3.org/2000/svg">
  <symbol id="icon" fill="none" viewBox="0 0 16 16"><path fill="currentColor" fill-rule="evenodd" d="M2 2.5a.5.5 0 0 1 .5-.5h1a.5.5 0 0 0 0-1h-1A1.5 1.5 0 0 0 1 2.5v1a.5.5 0 0 0 1 0v-1ZM5.5 1a.5.5 0 0 0 0 1H7a.5.5 0 0 0 0-1H5.5ZM9 1a.5.5 0 0 0 0 1h1.5a.5.5 0 0 0 0-1H9Zm3.5 0a.5.5 0 0 0 0 1h1a.5.5 0 0 1 .5.5v1a.5.5 0 0 0 1 0v-1A1.5 1.5 0 0 0 13.5 1h-1ZM2 5.5a.5.5 0 0 0-1 0v2h1v-2Zm13 0a.5.5 0 0 0-1 0V7a.5.5 0 0 0 1 0V5.5ZM15 9a.5.5 0 0 0-1 0v1.5a.5.5 0 0 0 1 0V9Zm0 3.5a.5.5 0 1 0-1 0v1a.5.5 0 0 1-.5.5h-1a.5.5 0 1 0 0 1h1a1.5 1.5 0 0 0 1.5-1.5v-1ZM10.5 14h-2v1h2a.5.5 0 0 0 0-1Zm-5-5h-3A1.5 1.5 0 0 0 1 10.5v3A1.5 1.5 0 0 0 2.5 15h3A1.5 1.5 0 0 0 7 13.5v-3A1.5 1.5 0 0 0 5.5 9Zm-3 1h3a.5.5 0 0 1 .5.5v3a.5.5 0 0 1-.5.5h-3a.5.5 0 0 1-.5-.5v-3a.5.5 0 0 1 .5-.5Zm5.354-1.146L11 5.707V7.5a.5.5 0 0 0 1 0v-3a.5.5 0 0 0-.5-.5h-3a.5.5 0 1 0 0 1h1.793L7.146 8.146a.5.5 0 1 0 .708.708Z" clip-rule="evenodd"/></symbol>
  <symbol id="icon-large" fill="none" viewBox="0 0 24 24"><path fill="currentColor" fill-rule="evenodd" d="M4 4.5a.5.5 0 0 1 .5-.5h1a.5.5 0 0 0 0-1h-1A1.5 1.5 0 0 0 3 4.5v1a.5.5 0 0 0 1 0v-1ZM8.5 3a.5.5 0 0 0 0 1h2a.5.5 0 0 0 0-1h-2Zm5 0a.5.5 0 0 0 0 1h2a.5.5 0 0 0 0-1h-2Zm5 0a.5.5 0 0 0 0 1h1a.5.5 0 0 1 .5.5v1a.5.5 0 0 0 1 0v-1A1.5 1.5 0 0 0 19.5 3h-1ZM4 8.5a.5.5 0 0 0-1 0v2a.5.5 0 0 0 1 0v-2Zm17 0a.5.5 0 0 0-1 0v2a.5.5 0 0 0 1 0v-2Zm0 5a.5.5 0 0 0-1 0v2a.5.5 0 0 0 1 0v-2Zm0 5a.5.5 0 0 0-1 0v1a.5.5 0 0 1-.5.5h-1a.5.5 0 0 0 0 1h1a1.5 1.5 0 0 0 1.5-1.5v-1ZM13.5 20a.5.5 0 0 0 0 1h2a.5.5 0 0 0 0-1h-2ZM13 6.5a.5.5 0 0 1 .5-.5h4a.5.5 0 0 1 .5.5v4a.5.5 0 0 1-1 0V7.707l-4.146 4.147a.5.5 0 0 1-.708-.707L16.293 7H13.5a.5.5 0 0 1-.5-.5Zm-9 8a.5.5 0 0 1 .5-.5h5a.5.5 0 0 1 .5.5v5a.5.5 0 0 1-.5.5h-5a.5.5 0 0 1-.5-.5v-5Zm.5-1.5A1.5 1.5 0 0 0 3 14.5v5A1.5 1.5 0 0 0 4.5 21h5a1.5 1.5 0 0 0 1.5-1.5v-5A1.5 1.5 0 0 0 9.5 13h-5Z" clip-rule="evenodd"/></symbol>
  <use href="#icon"/>
</svg>
