<svg xmlns="http://www.w3.org/2000/svg">
  <symbol id="icon" fill="none" viewBox="0 0 16 16"><path fill="currentColor" d="M5.5 2A1.5 1.5 0 0 1 7 3.5V4h2v-.5A1.5 1.5 0 0 1 10.5 2h2A1.5 1.5 0 0 1 14 3.5v2A1.5 1.5 0 0 1 12.5 7h-2A1.5 1.5 0 0 1 9 5.5V5H7v.5A1.5 1.5 0 0 1 5.5 7H5v2h.5A1.5 1.5 0 0 1 7 10.5v2A1.5 1.5 0 0 1 5.5 14h-2A1.5 1.5 0 0 1 2 12.5v-2A1.5 1.5 0 0 1 3.5 9H4V7h-.5A1.5 1.5 0 0 1 2 5.5v-2A1.5 1.5 0 0 1 3.5 2h2Zm-2 8a.5.5 0 0 0-.5.5v2a.5.5 0 0 0 .5.5h2a.5.5 0 0 0 .5-.5v-2a.5.5 0 0 0-.5-.5h-2Zm0-7a.5.5 0 0 0-.5.5v2a.5.5 0 0 0 .5.5h2a.5.5 0 0 0 .5-.5v-2a.5.5 0 0 0-.5-.5h-2Zm7 0a.5.5 0 0 0-.5.5v2a.5.5 0 0 0 .5.5h2a.5.5 0 0 0 .5-.5v-2a.5.5 0 0 0-.5-.5h-2Z"/></symbol>
  <symbol id="icon-large" fill="none" viewBox="0 0 24 24"><path fill="currentColor" d="M9.5 3A1.5 1.5 0 0 1 11 4.5v2h2v-2A1.5 1.5 0 0 1 14.5 3h5A1.5 1.5 0 0 1 21 4.5v5a1.5 1.5 0 0 1-1.5 1.5h-5A1.5 1.5 0 0 1 13 9.5v-2h-2v2A1.5 1.5 0 0 1 9.5 11h-2v2h2a1.5 1.5 0 0 1 1.5 1.5v5A1.5 1.5 0 0 1 9.5 21h-5A1.5 1.5 0 0 1 3 19.5v-5A1.5 1.5 0 0 1 4.5 13h2v-2h-2A1.5 1.5 0 0 1 3 9.5v-5A1.5 1.5 0 0 1 4.5 3h5Zm-5 11a.5.5 0 0 0-.5.5v5a.5.5 0 0 0 .5.5h5a.5.5 0 0 0 .5-.5v-5a.5.5 0 0 0-.5-.5h-5Zm0-10a.5.5 0 0 0-.5.5v5a.5.5 0 0 0 .5.5h5a.5.5 0 0 0 .5-.5v-5a.5.5 0 0 0-.5-.5h-5Zm10 0a.5.5 0 0 0-.5.5v5a.5.5 0 0 0 .5.5h5a.5.5 0 0 0 .5-.5v-5a.5.5 0 0 0-.5-.5h-5Z"/></symbol>
  <use href="#icon"/>
</svg>
