<svg xmlns="http://www.w3.org/2000/svg">
  <symbol id="icon" fill="none" viewBox="0 0 16 16"><path fill="currentColor" d="M5.5 9A1.5 1.5 0 0 1 7 10.5v2A1.5 1.5 0 0 1 5.5 14h-2A1.5 1.5 0 0 1 2 12.5v-2A1.5 1.5 0 0 1 3.5 9h2Zm5 4a.5.5 0 0 1 0 1h-2v-1h2Zm3-1a.5.5 0 0 1 .5.5 1.5 1.5 0 0 1-1.347 1.492L12.5 14l-.1-.01a.5.5 0 0 1 0-.98l.2-.02a.501.501 0 0 0 .39-.39l.02-.2a.5.5 0 0 1 .49-.4Zm-10-2a.5.5 0 0 0-.5.5v2a.5.5 0 0 0 .5.5h2a.5.5 0 0 0 .5-.5v-2a.5.5 0 0 0-.5-.5h-2Zm10-1.5a.5.5 0 0 1 .5.5v1.5a.5.5 0 0 1-1 0V9a.5.5 0 0 1 .5-.5Zm-2.5-4a.5.5 0 0 1 .5.5v2.5a.5.5 0 0 1-1 0V6.207L7.854 8.854a.5.5 0 1 1-.708-.708L9.793 5.5H8.5a.5.5 0 0 1 0-1H11ZM2.5 5a.5.5 0 0 1 .5.5v2H2v-2a.5.5 0 0 1 .5-.5Zm11 0a.5.5 0 0 1 .5.5V7a.5.5 0 0 1-1 0V5.5a.5.5 0 0 1 .5-.5Zm-10-3a.5.5 0 0 1 .1.99l-.2.02a.501.501 0 0 0-.39.39l-.02.2A.5.5 0 0 1 2 3.5 1.5 1.5 0 0 1 3.5 2Zm9.153.008A1.5 1.5 0 0 1 14 3.5a.5.5 0 0 1-.99.1l-.02-.2a.501.501 0 0 0-.39-.39l-.2-.02a.5.5 0 0 1 .1-.99l.153.008Zm-5.552.002a.5.5 0 0 1 0 .98L7 3H5.5a.5.5 0 0 1 0-1H7l.1.01ZM10.5 2a.5.5 0 0 1 0 1H9a.5.5 0 0 1 0-1h1.5Z"/></symbol>
  <symbol id="icon-large" fill="none" viewBox="0 0 24 24"><path fill="currentColor" fill-rule="evenodd" d="M16 20.5a.5.5 0 0 0-.5-.5h-2a.5.5 0 0 0 0 1h2a.5.5 0 0 0 .5-.5Zm4-2v1a.5.5 0 0 1-.5.5h-1a.5.5 0 0 0 0 1h1a1.5 1.5 0 0 0 1.5-1.5v-1a.5.5 0 0 0-1 0Zm.5-5.5a.5.5 0 0 0-.5.5v2a.5.5 0 0 0 1 0v-2a.5.5 0 0 0-.5-.5ZM3 8.5v2a.5.5 0 0 0 1 0v-2a.5.5 0 0 0-1 0Zm17 0v2a.5.5 0 0 0 1 0v-2a.5.5 0 0 0-1 0Zm-17-4v1a.5.5 0 0 0 1 0v-1a.5.5 0 0 1 .5-.5h1a.5.5 0 0 0 0-1h-1A1.5 1.5 0 0 0 3 4.5Zm17 0v1a.5.5 0 0 0 1 0v-1A1.5 1.5 0 0 0 19.5 3h-1a.5.5 0 0 0 0 1h1a.5.5 0 0 1 .5.5Zm-9-1a.5.5 0 0 0-.5-.5h-2a.5.5 0 0 0 0 1h2a.5.5 0 0 0 .5-.5Zm5 0a.5.5 0 0 0-.5-.5h-2a.5.5 0 0 0 0 1h2a.5.5 0 0 0 .5-.5Zm1 7V7.707l-4.146 4.147a.5.5 0 1 1-.707-.707L16.293 7H13.5a.5.5 0 0 1 0-1h4a.5.5 0 0 1 .5.5v4a.5.5 0 0 1-1 0ZM9.5 14a.5.5 0 0 1 .5.5v5a.5.5 0 0 1-.5.5h-5a.5.5 0 0 1-.5-.5v-5a.5.5 0 0 1 .5-.5h5Zm0 7a1.5 1.5 0 0 0 1.5-1.5v-5A1.5 1.5 0 0 0 9.5 13h-5A1.5 1.5 0 0 0 3 14.5v5A1.5 1.5 0 0 0 4.5 21h5Z" clip-rule="evenodd"/></symbol>
  <use href="#icon"/>
</svg>
