<svg xmlns="http://www.w3.org/2000/svg">
  <symbol id="icon" fill="none" viewBox="0 0 16 16"><path fill="currentColor" d="M6.5 2A1.5 1.5 0 0 1 8 3.5V5l.19-.01c.438-.043.85-.237 1.164-.55l.292-.294a.5.5 0 0 1 .707 0l.293.293a1.914 1.914 0 0 0 2.707 0l.293-.293A.5.5 0 0 1 14 4v1.205a2.915 2.915 0 0 1-4 0c-.473.446-1.08.72-1.723.781L8 6v2h5.5a.5.5 0 0 1 0 1H8v2h5.5a.5.5 0 0 1 0 1H8v1.5a.5.5 0 0 1-.5.5h-5a.5.5 0 0 1-.5-.5v-10A1.5 1.5 0 0 1 3.5 2h3Zm-3 1a.5.5 0 0 0-.5.5V13h4V3.5a.5.5 0 0 0-.5-.5h-3Zm2 1a.5.5 0 0 1 0 1h-1a.5.5 0 0 1 0-1h1Z"/></symbol>
  <symbol id="icon-large" fill="none" viewBox="0 0 24 24"><path fill="currentColor" d="M10.5 3A1.5 1.5 0 0 1 12 4.5V9l.19-.01c.438-.043.85-.237 1.164-.55l.293-.294a.5.5 0 0 1 .707 0l.293.293a1.914 1.914 0 0 0 2.707 0l.293-.293a.5.5 0 0 1 .707 0l.293.293A1.914 1.914 0 0 0 21 8.718v1.105a2.914 2.914 0 0 1-3-.618 2.915 2.915 0 0 1-4 0c-.473.446-1.08.72-1.723.781L12 10v3h8.5a.5.5 0 0 1 0 1H12v4h8.5a.5.5 0 0 1 0 1H12v1.5a.5.5 0 0 1-.5.5h-8a.5.5 0 0 1-.5-.5v-16A1.5 1.5 0 0 1 4.5 3h6Zm-6 1a.5.5 0 0 0-.5.5V20h7V4.5a.5.5 0 0 0-.5-.5h-6ZM8 5.5A1.5 1.5 0 0 1 9.5 7v1A1.5 1.5 0 0 1 8 9.5H7A1.5 1.5 0 0 1 5.5 8V7A1.5 1.5 0 0 1 7 5.5h1Zm-1 1a.5.5 0 0 0-.5.5v1a.5.5 0 0 0 .5.5h1a.5.5 0 0 0 .5-.5V7a.5.5 0 0 0-.5-.5H7Z"/></symbol>
  <use href="#icon"/>
</svg>
