<svg xmlns="http://www.w3.org/2000/svg">
  <symbol id="icon" fill="none" viewBox="0 0 16 16"><path fill="currentColor" fill-rule="evenodd" d="M14 3.5a.5.5 0 0 0-.5-.5H6v10h7.5a.5.5 0 0 0 .5-.5v-9ZM5 13V3H2.5a.5.5 0 0 0-.5.5v9a.5.5 0 0 0 .5.5H5Zm10-.5a1.5 1.5 0 0 1-1.5 1.5h-11A1.5 1.5 0 0 1 1 12.5v-9A1.5 1.5 0 0 1 2.5 2h11A1.5 1.5 0 0 1 15 3.5v9Zm-4.354-6.854a.5.5 0 1 1 .707.708L9.707 8l1.646 1.646a.5.5 0 1 1-.707.707l-2-2a.5.5 0 0 1 0-.707l2-2Z" clip-rule="evenodd"/></symbol>
  <symbol id="icon-large" fill="none" viewBox="0 0 24 24"><path fill="currentColor" fill-rule="evenodd" d="M21 5.5a.5.5 0 0 0-.5-.5H8v14h12.5a.5.5 0 0 0 .5-.5v-13ZM7 19V5H3.5a.5.5 0 0 0-.5.5v13a.5.5 0 0 0 .5.5H7Zm15-.5a1.5 1.5 0 0 1-1.5 1.5h-17A1.5 1.5 0 0 1 2 18.5v-13A1.5 1.5 0 0 1 3.5 4h17A1.5 1.5 0 0 1 22 5.5v13Zm-6.354-9.854a.5.5 0 1 1 .707.708L13.707 12l2.646 2.646a.5.5 0 1 1-.707.707l-3-3a.5.5 0 0 1 0-.707l3-3Z" clip-rule="evenodd"/></symbol>
  <use href="#icon"/>
</svg>
