<svg xmlns="http://www.w3.org/2000/svg">
  <symbol id="icon" fill="none" viewBox="0 0 16 16"><path fill="currentColor" fill-rule="evenodd" d="M2.5 3a.5.5 0 0 0-.5.5v9a.5.5 0 0 0 .5.5H10V3H2.5Zm11 10H11V3h2.5a.5.5 0 0 1 .5.5v9a.5.5 0 0 1-.5.5ZM1 3.5A1.5 1.5 0 0 1 2.5 2h11A1.5 1.5 0 0 1 15 3.5v9a1.5 1.5 0 0 1-1.5 1.5h-11A1.5 1.5 0 0 1 1 12.5v-9Zm6.354 2.854a.5.5 0 1 0-.708-.708l-2 2a.5.5 0 0 0 0 .708l2 2a.5.5 0 0 0 .708-.708L5.707 8l1.647-1.646Z" clip-rule="evenodd"/></symbol>
  <symbol id="icon-large" fill="none" viewBox="0 0 24 24"><path fill="currentColor" fill-rule="evenodd" d="M3.5 5a.5.5 0 0 0-.5.5v13a.5.5 0 0 0 .5.5H16V5H3.5Zm17 14H17V5h3.5a.5.5 0 0 1 .5.5v13a.5.5 0 0 1-.5.5ZM2 5.5A1.5 1.5 0 0 1 3.5 4h17A1.5 1.5 0 0 1 22 5.5v13a1.5 1.5 0 0 1-1.5 1.5h-17A1.5 1.5 0 0 1 2 18.5v-13Zm9.354 3.854a.5.5 0 0 0-.708-.708l-3 3a.5.5 0 0 0 0 .708l3 3a.5.5 0 0 0 .708-.708L8.707 12l2.647-2.646Z" clip-rule="evenodd"/></symbol>
  <use href="#icon"/>
</svg>
