<svg xmlns="http://www.w3.org/2000/svg">
  <symbol id="icon" fill="none" viewBox="0 0 16 16"><path fill="currentColor" fill-rule="evenodd" d="M1 12V4.478c0-.513.34-.903.719-1.176.391-.282.925-.514 1.54-.701C4.494 2.225 6.17 2 8 2c1.83 0 3.507.231 4.743.613.615.19 1.148.426 1.54.71.378.274.717.666.717 1.177V12c0 .578-.44.988-.884 1.257-.47.286-1.111.52-1.84.702-.945.237-1.776-.517-1.776-1.427v-1.377A19.612 19.612 0 0 0 8 11c-.89 0-1.736.056-2.5.155v1.377c0 .91-.83 1.664-1.775 1.427-.73-.183-1.37-.416-1.841-.702C1.44 12.987 1 12.577 1 12Zm1-6.185V12c0 .024.027.174.403.402.35.212.881.415 1.565.586.252.063.532-.132.532-.456V7.068a.552.552 0 0 0-.444-.523c-.813-.185-1.529-.43-2.056-.73Zm12 .014V12c0 .024-.027.174-.403.402-.35.212-.881.415-1.565.586-.252.063-.532-.132-.532-.456V7.068a.55.55 0 0 1 .443-.522c.813-.182 1.53-.421 2.057-.717Zm-.305-1.697c.28.202.305.333.305.368 0 .029-.038.2-.482.452-.408.23-1.02.445-1.792.618-.689.154-1.226.756-1.226 1.498v3.08A20.573 20.573 0 0 0 8 10c-.881 0-1.725.052-2.5.148v-3.08c0-.742-.537-1.343-1.224-1.499-.77-.175-1.383-.394-1.79-.629C2.044 4.686 2 4.51 2 4.478c0-.034.024-.164.303-.365.267-.192.685-.385 1.247-.555C4.667 3.218 6.24 3 8 3c1.758 0 3.331.223 4.448.568.562.174.98.37 1.247.564Z" clip-rule="evenodd"/></symbol>
  <symbol id="icon-large" fill="none" viewBox="0 0 24 24"><path fill="currentColor" fill-rule="evenodd" d="M21 18V7.409c-.13.08-.268.155-.414.226-.781.38-1.867.693-3.14.922A.532.532 0 0 0 17 9.07v9.98c0 .313.27.524.541.471 1.15-.223 2.065-.509 2.679-.822.307-.157.515-.307.64-.441.123-.131.14-.216.14-.258Zm1-12c0-.619-.468-1.077-.982-1.397-.541-.337-1.291-.622-2.173-.854C17.073 3.283 14.654 3 12 3c-2.653 0-5.073.283-6.845.749-.882.232-1.632.517-2.173.854C2.468 4.923 2 5.38 2 6v12c0 .37.173.687.408.94.233.25.553.465.918.65.732.374 1.75.682 2.943.914.923.179 1.73-.55 1.731-1.453v-2.815A32.625 32.625 0 0 1 12 16c1.434 0 2.79.085 4 .236v2.815c0 .903.808 1.632 1.731 1.453 1.194-.232 2.211-.54 2.943-.913.365-.186.684-.402.918-.652.235-.252.408-.568.408-.939V6ZM3 18V7.409c.13.08.268.155.414.226.781.38 1.867.693 3.14.922.264.047.446.27.446.513v9.98c0 .313-.27.524-.541.471-1.15-.223-2.065-.509-2.679-.822-.307-.157-.515-.307-.64-.441C3.017 18.127 3 18.042 3 18Zm.51-12.549C3.065 5.73 3 5.928 3 6c0 .043.019.133.154.272.138.142.365.3.699.463.664.325 1.65.616 2.878.837C7.448 7.702 8 8.32 8 9.07v6.158A33.858 33.858 0 0 1 12 15c1.424 0 2.778.081 4 .228V9.07c0-.751.552-1.369 1.269-1.498 1.228-.221 2.214-.512 2.879-.837.333-.162.56-.32.698-.463.135-.14.154-.229.154-.272 0-.072-.064-.27-.51-.549-.421-.261-1.063-.515-1.9-.735C16.923 4.277 14.593 4 12 4s-4.923.277-6.59.716c-.837.22-1.479.474-1.9.735Z" clip-rule="evenodd"/></symbol>
  <use href="#icon"/>
</svg>
