<svg xmlns="http://www.w3.org/2000/svg">
  <symbol id="icon" fill="none" viewBox="0 0 16 16"><path fill="currentColor" d="M13.6 2.01a.5.5 0 0 1 .4.49v11a.5.5 0 1 1-1 0V3H3v10.5a.5.5 0 0 1-1 0v-11l.01-.1A.501.501 0 0 1 2.5 2h11l.1.01ZM9.5 4A1.5 1.5 0 0 1 11 5.5v3.7c.084-.044.169-.087.252-.135a.501.501 0 0 1 .496.87 7.653 7.653 0 0 1-.748.372v.11c0 .082-.007.165-.021.247l-.347 2.083A1.5 1.5 0 0 1 9.152 14H6.847a1.5 1.5 0 0 1-1.48-1.253l-.346-2.083a1.508 1.508 0 0 1-.02-.247v-.11a7.583 7.583 0 0 1-.53-.252l-.219-.12-.082-.06a.5.5 0 0 1 .486-.85l.093.04.252.133V5.5A1.5 1.5 0 0 1 6.5 4h3Zm-3.147 8.582c.04.24.25.417.493.418h2.307a.5.5 0 0 0 .493-.418l.317-1.913a7.556 7.556 0 0 1-3.93-.003l.32 1.916ZM6 9.614c1.3.417 2.699.416 4 0V7H6v2.614ZM6.5 5a.5.5 0 0 0-.5.5V6h4v-.5a.5.5 0 0 0-.5-.5h-3Z"/></symbol>
  <symbol id="icon-large" fill="none" viewBox="0 0 24 24"><path fill="currentColor" d="M19.5 2a.5.5 0 0 1 .5.5V4h1.5a.5.5 0 0 1 0 1H20v16.5a.5.5 0 0 1-1 0V5H5v16.5a.5.5 0 0 1-1 0V5H2.5a.5.5 0 0 1 0-1H4V2.5a.5.5 0 0 1 1 0V4h14V2.5a.5.5 0 0 1 .5-.5Zm-5 5A1.5 1.5 0 0 1 16 8.5v6.665c.1-.04.2-.079.297-.122a.5.5 0 0 1 .406.914c-.231.102-.466.197-.703.284v.136c0 .06-.004.122-.011.183l-.034.18-.78 3.124A1.501 1.501 0 0 1 13.719 21h-3.438a1.5 1.5 0 0 1-1.418-1.014l-.038-.122-.78-3.124A1.503 1.503 0 0 1 8 16.377v-.135a11.54 11.54 0 0 1-.42-.164l-.283-.121-.088-.051a.5.5 0 0 1 .398-.895l.096.032.297.122V8.5A1.5 1.5 0 0 1 9.5 7h5ZM9.796 19.62a.5.5 0 0 0 .486.38h3.437a.5.5 0 0 0 .485-.38l.764-3.054a11.576 11.576 0 0 1-5.937-.001l.765 3.056ZM9 15.518c1.959.58 4.042.58 6 0V11H9v4.518ZM9.5 8a.5.5 0 0 0-.5.5V10h6V8.5a.5.5 0 0 0-.5-.5h-5Z"/></symbol>
  <use href="#icon"/>
</svg>
