<svg xmlns="http://www.w3.org/2000/svg">
  <symbol id="icon" fill="none" viewBox="0 0 16 16"><path fill="currentColor" d="M8 11.001a.5.5 0 0 1 .49.398l.01.101v2l-.01.1a.5.5 0 0 1-.98 0l-.01-.1v-2l.01-.1A.5.5 0 0 1 8 11Zm-3.354-.354a.5.5 0 0 1 .708.707l-1 1a.5.5 0 0 1-.708-.707l1-1Zm6 0a.5.5 0 0 1 .63-.064l.079.063.998 1a.5.5 0 0 1-.707.707l-1-1-.063-.078a.5.5 0 0 1 .063-.629ZM3.5 6.5a1.5 1.5 0 0 1 1.413 1H6a.5.5 0 0 1 0 1H4.913a1.5 1.5 0 1 1-1.413-2Zm9 0a1.5 1.5 0 1 1-1.413 2H10a.5.5 0 0 1 0-1h1.087a1.5 1.5 0 0 1 1.413-1Zm-9 1a.5.5 0 1 0 0 1 .5.5 0 0 0 0-1Zm9 0a.5.5 0 1 0 0 1 .5.5 0 0 0 0-1ZM3.647 3.646a.5.5 0 0 1 .628-.063l.08.063.999 1a.5.5 0 0 1-.708.708l-.999-1-.064-.079a.5.5 0 0 1 .064-.629Zm8 0a.5.5 0 0 1 .707.708l-1 1a.5.5 0 0 1-.707-.708l1-1ZM8 2a.5.5 0 0 1 .49.4l.01.1v2l-.01.1a.5.5 0 0 1-.98 0l-.01-.1v-2l.01-.1A.5.5 0 0 1 8 2Z"/></symbol>
  <symbol id="icon-large" fill="none" viewBox="0 0 24 24"><path fill="currentColor" d="M12 16.5a.5.5 0 0 1 .5.5v3.5a.5.5 0 0 1-1 0V17a.5.5 0 0 1 .5-.5Zm-4.354-.854a.5.5 0 0 1 .707.707l-2 2a.5.5 0 0 1-.707-.707l2-2Zm8 0a.501.501 0 0 1 .708 0l2 2a.5.5 0 0 1-.63.772l-.078-.065-2-2a.5.5 0 0 1 0-.707ZM5 10c.931 0 1.712.638 1.934 1.5H10v1H6.934A1.999 1.999 0 0 1 3 12a2 2 0 0 1 2-2Zm14 0a2 2 0 1 1-1.935 2.5H14v-1h3.065A1.999 1.999 0 0 1 19 10ZM5 11a1 1 0 1 0 0 2 1 1 0 0 0 0-2Zm14 0a1 1 0 1 0 0 2 1 1 0 0 0 0-2ZM5.646 5.646a.5.5 0 0 1 .707 0l2 2a.5.5 0 0 1-.707.707l-2-2a.5.5 0 0 1 0-.707Zm12 0a.5.5 0 0 1 .707.707l-2 2a.5.5 0 0 1-.707-.707l2-2ZM12 3a.5.5 0 0 1 .5.5V7a.5.5 0 0 1-1 0V3.5A.5.5 0 0 1 12 3Z"/></symbol>
  <use href="#icon"/>
</svg>
