<svg xmlns="http://www.w3.org/2000/svg">
  <symbol id="icon" fill="none" viewBox="0 0 16 16"><path fill="currentColor" d="M9.5 2a.5.5 0 0 1 .5.5v11a.5.5 0 0 1-1 0v-11a.5.5 0 0 1 .5-.5ZM3 6.5a1.5 1.5 0 0 1 1.413 1H8v1H4.413A1.5 1.5 0 0 1 3 9.5l-.153-.008A1.5 1.5 0 0 1 3 6.5Zm0 1a.5.5 0 0 0 0 1l.1-.01A.5.5 0 0 0 3 7.5Zm10.5 0a.5.5 0 0 1 0 1H11v-1h2.5Z"/></symbol>
  <symbol id="icon-large" fill="none" viewBox="0 0 24 24"><path fill="currentColor" d="M15.5 3a.5.5 0 0 1 .5.5v17a.5.5 0 0 1-1 0v-17a.5.5 0 0 1 .5-.5ZM5 10a2 2 0 0 1 1.935 1.5H14v1H6.935A1.999 1.999 0 0 1 3 12a2 2 0 0 1 2-2Zm0 1a1 1 0 1 0 0 2 1 1 0 0 0 0-2Zm15.5.5a.5.5 0 0 1 0 1H17v-1h3.5Z"/></symbol>
  <use href="#icon"/>
</svg>
