<svg xmlns="http://www.w3.org/2000/svg">
  <symbol id="icon" fill="none" viewBox="0 0 16 16"><path fill="currentColor" d="M8 1.5a6.5 6.5 0 1 1 0 13 6.5 6.5 0 0 1 0-13Zm0 1a5.5 5.5 0 1 0 0 11 5.5 5.5 0 0 0 0-11Zm-1.5 2a1 1 0 0 1 1 1v5a1 1 0 0 1-1 1h-1a1 1 0 0 1-1-1v-5a1 1 0 0 1 1-1h1Zm4 0a1 1 0 0 1 1 1v5a1 1 0 0 1-1 1h-1a1 1 0 0 1-1-1v-5a1 1 0 0 1 1-1h1Zm-5 6h1v-5h-1v5Zm4 0h1v-5h-1v5Z"/></symbol>
  <symbol id="icon-large" fill="none" viewBox="0 0 24 24"><path fill="currentColor" fill-rule="evenodd" d="M21 12a9 9 0 1 0-18 0 9 9 0 0 0 18 0Zm1 0c0 5.523-4.477 10-10 10S2 17.523 2 12 6.477 2 12 2s10 4.477 10 10ZM10 8a.5.5 0 0 0-.5-.5h-1A.5.5 0 0 0 8 8v8a.5.5 0 0 0 .5.5h1a.5.5 0 0 0 .5-.5V8Zm1 8a1.5 1.5 0 0 1-1.5 1.5h-1A1.5 1.5 0 0 1 7 16V8a1.5 1.5 0 0 1 1.5-1.5h1A1.5 1.5 0 0 1 11 8v8Zm4.5-8.5a.5.5 0 0 1 .5.5v8a.5.5 0 0 1-.5.5h-1a.5.5 0 0 1-.5-.5V8a.5.5 0 0 1 .5-.5h1Zm0 10A1.5 1.5 0 0 0 17 16V8a1.5 1.5 0 0 0-1.5-1.5h-1A1.5 1.5 0 0 0 13 8v8a1.5 1.5 0 0 0 1.5 1.5h1Z" clip-rule="evenodd"/></symbol>
  <use href="#icon"/>
</svg>
