<svg xmlns="http://www.w3.org/2000/svg">
  <symbol id="icon" fill="none" viewBox="0 0 16 16"><path fill="currentColor" fill-rule="evenodd" d="M7.869 1.018a.5.5 0 0 1 .263 0l5.5 1.5a.5.5 0 0 1 .36.569l-1.5 8.5a.5.5 0 0 1-.192.313l-4 3a.5.5 0 0 1-.6 0l-4-3a.5.5 0 0 1-.192-.313l-1.5-8.5a.5.5 0 0 1 .36-.57l5.5-1.5ZM3.143 3.766l1.315 7.453 3.042 2.28V5.35L3.143 3.766Zm1.007-.698L8 4.468l3.85-1.4L8 2.018l-3.85 1.05Zm8.707.698L8.5 5.35v8.15l3.042-2.281 1.315-7.453Z" clip-rule="evenodd"/></symbol>
  <symbol id="icon-large" fill="none" viewBox="0 0 24 24"><path fill="currentColor" fill-rule="evenodd" d="M11.886 2.013a.5.5 0 0 1 .229 0l8.5 2a.5.5 0 0 1 .374.593l-2.5 11.5a.5.5 0 0 1-.151.263l-6 5.5a.5.5 0 0 1-.676 0l-6-5.5a.5.5 0 0 1-.15-.263l-2.5-11.5a.5.5 0 0 1 .374-.593l8.5-2ZM4.179 5.27l2.276 10.469 5.045 4.624V7.853L4.18 5.27Zm1.096-.674L12 6.97l6.726-2.374L12 3.014 5.275 4.596Zm14.546.674-7.32 2.584v12.51l5.044-4.625 2.276-10.47Z" clip-rule="evenodd"/></symbol>
  <use href="#icon"/>
</svg>
