<svg xmlns="http://www.w3.org/2000/svg">
  <symbol id="icon" fill="none" viewBox="0 0 16 16"><path fill="currentColor" fill-rule="evenodd" d="M10.835 1.628a1.5 1.5 0 0 0-2.403.39L7.244 4.393a.5.5 0 0 1-.3.254L2.44 6.034a1.5 1.5 0 0 0-.62 2.494L4.294 11 .646 14.647l.708.707L5 11.707l2.472 2.472a1.5 1.5 0 0 0 2.494-.62l1.386-4.503a.5.5 0 0 1 .254-.3l2.377-1.188a1.5 1.5 0 0 0 .39-2.403l-3.538-3.537Zm-1.508.837a.5.5 0 0 1 .8-.13l3.538 3.538a.5.5 0 0 1-.13.8L11.16 7.861a1.5 1.5 0 0 0-.763.901l-1.385 4.504a.5.5 0 0 1-.832.206L2.528 7.821a.5.5 0 0 1 .207-.831l4.503-1.386a1.5 1.5 0 0 0 .9-.763l1.189-2.376Z" clip-rule="evenodd"/></symbol>
  <symbol id="icon-large" fill="none" viewBox="0 0 24 24"><path fill="currentColor" fill-rule="evenodd" d="M15.799 2.591a1.5 1.5 0 0 0-2.378.343l-2.157 3.955a.5.5 0 0 1-.305.242L4.018 9.06a1.5 1.5 0 0 0-.66 2.506l4.185 4.185-4.897 4.896.708.707 4.896-4.896 4.184 4.184a1.5 1.5 0 0 0 2.507-.659l1.928-6.94a.5.5 0 0 1 .242-.306l3.955-2.157a1.5 1.5 0 0 0 .344-2.38L15.8 2.59Zm-1.5.822a.5.5 0 0 1 .793-.115l5.61 5.61a.5.5 0 0 1-.115.793l-3.955 2.157a1.5 1.5 0 0 0-.727.916l-1.928 6.94a.5.5 0 0 1-.835.22l-9.077-9.076a.5.5 0 0 1 .22-.835l6.941-1.928a1.5 1.5 0 0 0 .916-.727l2.157-3.955Z" clip-rule="evenodd"/></symbol>
  <use href="#icon"/>
</svg>
