<svg xmlns="http://www.w3.org/2000/svg">
  <symbol id="icon" fill="none" viewBox="0 0 16 16"><path fill="currentColor" d="M6.5 2a.5.5 0 0 1 0 1H6v6a1 1 0 0 0 1 1h6v-.5a.5.5 0 0 1 1 0v5a.5.5 0 0 1-1 0V14H6.5A4.5 4.5 0 0 1 2 9.5V3h-.5a.5.5 0 0 1 0-1h5ZM3 9.5A3.5 3.5 0 0 0 6.5 13H13v-2H7a2 2 0 0 1-2-2V3H3v6.5ZM12 6c.276 0 .49.237.622.48A1 1 0 0 0 13.5 7v1a1.993 1.993 0 0 1-1.5-.68 1.993 1.993 0 0 1-3 0c-.367.416-.902.68-1.5.68V7a1 1 0 0 0 .878-.52C8.51 6.236 8.724 6 9 6s.49.237.622.48a1 1 0 0 0 1.756 0c.133-.243.346-.48.622-.48Zm0-3c.276 0 .49.237.622.48A1 1 0 0 0 13.5 4v1a1.993 1.993 0 0 1-1.5-.68 1.993 1.993 0 0 1-3 0c-.367.416-.902.68-1.5.68V4a1 1 0 0 0 .878-.52C8.51 3.236 8.724 3 9 3s.49.237.622.48a1 1 0 0 0 1.756 0c.133-.243.346-.48.622-.48Z"/></symbol>
  <symbol id="icon-large" fill="none" viewBox="0 0 24 24"><path fill="currentColor" d="M9.5 3a.5.5 0 0 1 0 1H9v9.5a1.5 1.5 0 0 0 1.5 1.5H20v-.5a.5.5 0 0 1 1 0v6a.5.5 0 0 1-1 0V20h-9.5A6.5 6.5 0 0 1 4 13.5V4h-.5a.5.5 0 0 1 0-1h6ZM5 13.5a5.5 5.5 0 0 0 5.5 5.5H18v-3h-7.5A2.5 2.5 0 0 1 8 13.5V6H5v7.5ZM19 19h1v-3h-1v3Zm-1.5-9a.5.5 0 0 1 .354.146l.293.293c.359.36.845.561 1.353.561h.5v1h-.5c-.745 0-1.46-.285-2-.795a2.915 2.915 0 0 1-4 0c-.54.51-1.255.795-2 .795H11v-1h.5c.508 0 .995-.202 1.354-.56l.293-.293a.5.5 0 0 1 .707 0l.293.293a1.914 1.914 0 0 0 2.707 0l.293-.293A.5.5 0 0 1 17.5 10Zm0-4a.5.5 0 0 1 .354.146l.293.293c.359.36.845.561 1.353.561h.5v1h-.5c-.745 0-1.46-.285-2-.795a2.915 2.915 0 0 1-4 0c-.54.51-1.255.795-2 .795H11V7h.5c.508 0 .995-.202 1.354-.56l.293-.294a.5.5 0 0 1 .707 0l.293.293a1.914 1.914 0 0 0 2.707 0l.293-.293A.5.5 0 0 1 17.5 6ZM5 5h3V4H5v1Z"/></symbol>
  <use href="#icon"/>
</svg>
