<svg xmlns="http://www.w3.org/2000/svg">
  <symbol id="icon" fill="none" viewBox="0 0 16 16"><path fill="currentColor" d="M2.5 2a.5.5 0 0 1 .5.5v5h2.5v1H3v5a.5.5 0 0 1-1 0v-11a.5.5 0 0 1 .5-.5Zm6 11.5a.5.5 0 0 1-1 0V12h1v1.5Zm5-11.5a.5.5 0 0 1 .5.5v11a.5.5 0 0 1-1 0v-5h-2.5v-1H13v-5a.5.5 0 0 1 .5-.5ZM8 2a.5.5 0 0 1 .5.5v2h-1v-2A.5.5 0 0 1 8 2Z" opacity=".4"/><path fill="currentColor" d="M8 3.5a3 3 0 0 1 3 3v3a3 3 0 0 1-6 0v-3a3 3 0 0 1 3-3Zm0 1a2 2 0 0 0-2 2v3a2 2 0 0 0 4 0v-3a2 2 0 0 0-2-2Z"/></symbol>
  <symbol id="icon-large" fill="none" viewBox="0 0 24 24"><path fill="currentColor" d="M3.5 3a.5.5 0 0 1 .5.5v8h4.5v1H4v8a.5.5 0 0 1-1 0v-17a.5.5 0 0 1 .5-.5Zm17 0a.5.5 0 0 1 .5.5v17a.5.5 0 0 1-1 0v-8h-4.5v-1H20v-8a.5.5 0 0 1 .5-.5Z" opacity=".48"/><path fill="currentColor" d="M12 3a4 4 0 0 1 4 4v10a4 4 0 0 1-8 0V7a4 4 0 0 1 4-4Zm0 1a3 3 0 0 0-3 3v10a3 3 0 1 0 6 0V7a3 3 0 0 0-3-3Z"/></symbol>
  <use href="#icon"/>
</svg>
