<svg xmlns="http://www.w3.org/2000/svg">
  <symbol id="icon" fill="none" viewBox="0 0 16 16"><path fill="currentColor" d="M8 1.75a1.75 1.75 0 0 1 1.629 2.384l1.855 1.442a1.75 1.75 0 1 1 1.056 3.17l-.618 2.269A1.747 1.747 0 0 1 11 14.25 1.75 1.75 0 0 1 9.324 13H6.676a1.75 1.75 0 1 1-2.6-1.985l-.618-2.268a1.748 1.748 0 1 1 1.057-3.172l1.854-1.442A1.75 1.75 0 0 1 8 1.75Zm-3 10a.75.75 0 1 0 0 1.5.75.75 0 0 0 0-1.5Zm6 0a.75.75 0 1 0 0 1.5.75.75 0 0 0 0-1.5ZM9.016 4.923a1.74 1.74 0 0 1-2.033 0L5.13 6.364a1.743 1.743 0 0 1-.706 2.12l.618 2.268A1.748 1.748 0 0 1 6.676 12h2.648c.212-.71.86-1.23 1.634-1.248l.617-2.268a1.748 1.748 0 0 1-.705-2.119L9.016 4.923ZM3.5 6.25a.75.75 0 1 0 0 1.5.75.75 0 0 0 0-1.5Zm9 0a.75.75 0 1 0 0 1.5.75.75 0 0 0 0-1.5ZM8 2.75a.75.75 0 1 0 0 1.5.75.75 0 0 0 0-1.5Z"/></symbol>
  <symbol id="icon-large" fill="none" viewBox="0 0 24 24"><path fill="currentColor" d="M12 3a2 2 0 0 1 2 2c0 .253-.05.494-.136.717l3.85 2.75A2 2 0 0 1 21 10a1.996 1.996 0 0 1-1.932 1.997l-1.16 5.223a1.998 1.998 0 1 1-2.842 2.281h-6.13a1.999 1.999 0 1 1-2.843-2.281L4.93 11.996A1.998 1.998 0 0 1 5 8c.49 0 .937.176 1.284.468l3.85-2.751A2 2 0 0 1 12 3ZM7 18a1 1 0 1 0 0 2 1 1 0 0 0 0-2Zm10 0a1 1 0 1 0 0 2 1 1 0 0 0 0-2ZM13.284 6.531a1.99 1.99 0 0 1-2.57 0l-3.85 2.751C6.95 9.505 7 9.747 7 10c0 .777-.445 1.45-1.093 1.78l1.16 5.223A2 2 0 0 1 8.935 18.5h6.13a1.998 1.998 0 0 1 1.866-1.497l1.16-5.223a1.998 1.998 0 0 1-.957-2.498l-3.85-2.75ZM5 9a1 1 0 1 0 0 2 1 1 0 0 0 0-2Zm14 0a1 1 0 1 0 0 2 1 1 0 0 0 0-2Zm-7-5a1 1 0 1 0 0 2 1 1 0 0 0 0-2Z"/></symbol>
  <use href="#icon"/>
</svg>
