<svg xmlns="http://www.w3.org/2000/svg">
  <symbol id="icon" fill="none" viewBox="0 0 16 16"><path fill="currentColor" d="M4.5 9A1.5 1.5 0 0 1 6 10.5v2a1.5 1.5 0 0 1-3 0v-2A1.5 1.5 0 0 1 4.5 9ZM8 5a1.5 1.5 0 0 1 1.5 1.5v6a1.5 1.5 0 0 1-3 0v-6A1.5 1.5 0 0 1 8 5Zm3.5 2A1.5 1.5 0 0 1 13 8.5v4a1.5 1.5 0 0 1-3 0v-4A1.5 1.5 0 0 1 11.5 7Zm2-5A1.5 1.5 0 0 1 15 3.5v8a1.5 1.5 0 0 1-1.347 1.492L13.5 13v-1a.5.5 0 0 0 .5-.5v-8a.5.5 0 0 0-.5-.5h-11a.5.5 0 0 0-.5.5v8a.5.5 0 0 0 .4.49l.1.01v1l-.154-.008A1.5 1.5 0 0 1 1 11.5v-8A1.5 1.5 0 0 1 2.5 2h11Zm-9 8a.5.5 0 0 0-.5.5v2a.5.5 0 0 0 1 0v-2a.5.5 0 0 0-.5-.5ZM8 6a.5.5 0 0 0-.5.5v6a.5.5 0 0 0 1 0v-6A.5.5 0 0 0 8 6Zm3.5 2a.5.5 0 0 0-.5.5v4a.5.5 0 0 0 1 0v-4a.5.5 0 0 0-.5-.5Z"/></symbol>
  <symbol id="icon-large" fill="none" viewBox="0 0 24 24"><path fill="currentColor" d="M6 14a1.5 1.5 0 0 1 1.5 1.5v3a1.5 1.5 0 0 1-3 0v-3A1.5 1.5 0 0 1 6 14Zm4-4a1.5 1.5 0 0 1 1.5 1.5v7a1.5 1.5 0 0 1-3 0v-7A1.5 1.5 0 0 1 10 10Zm4 2a1.5 1.5 0 0 1 1.5 1.5v5a1.5 1.5 0 0 1-3 0v-5A1.5 1.5 0 0 1 14 12Zm4-4a1.5 1.5 0 0 1 1.5 1.5v9a1.5 1.5 0 0 1-3 0v-9A1.5 1.5 0 0 1 18 8ZM6 15a.5.5 0 0 0-.5.5v3a.5.5 0 0 0 1 0v-3A.5.5 0 0 0 6 15Zm4-4a.5.5 0 0 0-.5.5v7a.5.5 0 0 0 1 0v-7a.5.5 0 0 0-.5-.5Zm4 2a.5.5 0 0 0-.5.5v5a.5.5 0 0 0 1 0v-5a.5.5 0 0 0-.5-.5Zm4-4a.5.5 0 0 0-.5.5v9a.5.5 0 0 0 1 0v-9A.5.5 0 0 0 18 9Zm2.5-5A1.5 1.5 0 0 1 22 5.5v11a1.5 1.5 0 0 1-1.5 1.5H20v-1h.5a.5.5 0 0 0 .5-.5v-11a.5.5 0 0 0-.5-.5h-17a.5.5 0 0 0-.5.5v11a.5.5 0 0 0 .5.5H4v1h-.5A1.5 1.5 0 0 1 2 16.5v-11A1.5 1.5 0 0 1 3.5 4h17Z"/></symbol>
  <use href="#icon"/>
</svg>
