<svg xmlns="http://www.w3.org/2000/svg">
  <symbol id="icon" fill="none" viewBox="0 0 16 16"><path fill="currentColor" fill-rule="evenodd" d="M4.5 2a.5.5 0 0 0-.5.5V4h8V2.5a.5.5 0 0 0-.5-.5h-7ZM3 2.5V4h-.5A1.5 1.5 0 0 0 1 5.5v5A1.5 1.5 0 0 0 2.5 12H3v1.5A1.5 1.5 0 0 0 4.5 15h7a1.5 1.5 0 0 0 1.5-1.5V12h.5a1.5 1.5 0 0 0 1.5-1.5v-5A1.5 1.5 0 0 0 13.5 4H13V2.5A1.5 1.5 0 0 0 11.5 1h-7A1.5 1.5 0 0 0 3 2.5ZM13 11h.5a.5.5 0 0 0 .5-.5v-5a.5.5 0 0 0-.5-.5h-11a.5.5 0 0 0-.5.5v5a.5.5 0 0 0 .5.5H3V8.5a.5.5 0 0 1 .5-.5h9a.5.5 0 0 1 .5.5V11Zm-9 1v1.5a.5.5 0 0 0 .5.5h7a.5.5 0 0 0 .5-.5V9H4v3Zm1.5-1.5A.5.5 0 0 1 6 10h4a.5.5 0 0 1 0 1H6a.5.5 0 0 1-.5-.5ZM6 12a.5.5 0 1 0 0 1h4a.5.5 0 1 0 0-1H6Z" clip-rule="evenodd"/></symbol>
  <symbol id="icon-large" fill="none" viewBox="0 0 24 24"><path fill="currentColor" fill-rule="evenodd" d="M7 3.5a.5.5 0 0 1 .5-.5h9a.5.5 0 0 1 .5.5V6H7V3.5ZM6 6V3.5A1.5 1.5 0 0 1 7.5 2h9A1.5 1.5 0 0 1 18 3.5V6h2.5A1.5 1.5 0 0 1 22 7.5v9a1.5 1.5 0 0 1-1.5 1.5H18v2.5a1.5 1.5 0 0 1-1.5 1.5h-9A1.5 1.5 0 0 1 6 20.5V18H3.5A1.5 1.5 0 0 1 2 16.5v-9A1.5 1.5 0 0 1 3.5 6H6Zm14.5 11H18v-3.5a.5.5 0 0 0-.5-.5h-11a.5.5 0 0 0-.5.5V17H3.5a.5.5 0 0 1-.5-.5v-9a.5.5 0 0 1 .5-.5h17a.5.5 0 0 1 .5.5v9a.5.5 0 0 1-.5.5ZM7 14v6.5a.5.5 0 0 0 .5.5h9a.5.5 0 0 0 .5-.5V14H7Zm-.5-4a.5.5 0 0 0 0 1h3a.5.5 0 0 0 0-1h-3ZM9 16.5a.5.5 0 0 1 .5-.5h5a.5.5 0 0 1 0 1h-5a.5.5 0 0 1-.5-.5Zm.5 1.5a.5.5 0 0 0 0 1h5a.5.5 0 0 0 0-1h-5Z" clip-rule="evenodd"/></symbol>
  <use href="#icon"/>
</svg>
