<svg xmlns="http://www.w3.org/2000/svg">
  <symbol id="icon" fill="none" viewBox="0 0 16 16"><path fill="currentColor" d="M12 10c1.18 0 2.049.592 2.604 1.146a5.052 5.052 0 0 1 .826 1.096l.011.023.005.01h.001v.001l.04.11a.499.499 0 0 1 0 .228l-.04.11v.002l-.006.01-.011.022a4.432 4.432 0 0 1-.201.332 5.052 5.052 0 0 1-.625.764C14.049 14.408 13.178 15 12 15c-1.18 0-2.049-.592-2.604-1.146a5.056 5.056 0 0 1-.826-1.096l-.011-.023-.005-.01h-.001v-.001a.5.5 0 0 1 0-.448v-.002l.006-.01.011-.022a4.458 4.458 0 0 1 .201-.332c.139-.208.347-.485.625-.764C9.951 10.592 10.821 10 12 10Zm-1.5-8A1.5 1.5 0 0 1 12 3.5V4h.5A1.5 1.5 0 0 1 14 5.5V9h-1V5.5a.5.5 0 0 0-.5-.5h-9a.5.5 0 0 0-.5.5v5a.5.5 0 0 0 .5.5H4V7.5l.01-.1A.5.5 0 0 1 4.5 7h7l.1.01a.5.5 0 0 1 .4.49V9h-1V8H5v4.5a.5.5 0 0 0 .5.5H8v1H5.5A1.5 1.5 0 0 1 4 12.5V12h-.5A1.5 1.5 0 0 1 2 10.5v-5A1.5 1.5 0 0 1 3.5 4H4v-.5A1.5 1.5 0 0 1 5.5 2h5Zm1.5 9c-.82 0-1.451.408-1.896.854a4.062 4.062 0 0 0-.5.61l-.023.036.023.035c.111.167.278.39.5.611.445.446 1.075.854 1.896.854.82 0 1.451-.408 1.896-.854.222-.22.389-.444.5-.61l.022-.036-.021-.035a4.065 4.065 0 0 0-.5-.611C13.45 11.408 12.82 11 12 11Zm0 .75a.75.75 0 1 1 0 1.5.75.75 0 0 1 0-1.5ZM8 12H6.5a.5.5 0 0 1 0-1H8v1Zm1-2H6.5a.5.5 0 0 1 0-1H9v1ZM5.5 3a.5.5 0 0 0-.5.5V4h6v-.5a.5.5 0 0 0-.5-.5h-5Z"/></symbol>
  <symbol id="icon-large" fill="none" viewBox="0 0 24 24"><path fill="currentColor" fill-rule="evenodd" d="M17 3.5a.5.5 0 0 0-.5-.5h-9a.5.5 0 0 0-.5.5V6h10V3.5ZM18 6V3.5A1.5 1.5 0 0 0 16.5 2h-9A1.5 1.5 0 0 0 6 3.5V6H3.5A1.5 1.5 0 0 0 2 7.5v9A1.5 1.5 0 0 0 3.5 18H6v2.5A1.5 1.5 0 0 0 7.5 22h6a.5.5 0 0 0 0-1h-6a.5.5 0 0 1-.5-.5V14h10v.5a.5.5 0 0 0 1 0v-1a.5.5 0 0 0-.5-.5h-11a.5.5 0 0 0-.49.4l-.01.1V17H3.5a.5.5 0 0 1-.5-.5v-9a.5.5 0 0 1 .5-.5h17a.5.5 0 0 1 .5.5v7a.5.5 0 0 0 1 0v-7A1.5 1.5 0 0 0 20.5 6H18Zm4.06 11.415C21.437 16.723 20.436 16 19 16s-2.436.723-3.06 1.415a5.432 5.432 0 0 0-.887 1.358l-.012.028-.002.005v.004l-.002.001v.002L15.5 19l-.464-.186a.5.5 0 0 0 0 .372L15.5 19a33.85 33.85 0 0 0-.464.186v.002h.001l.001.002.001.004.001.003.001.002.012.028.043.093a5.432 5.432 0 0 0 .845 1.265C16.563 21.277 17.563 22 19 22c1.436 0 2.436-.723 3.06-1.415a5.432 5.432 0 0 0 .887-1.358l.012-.028.001-.002v-.003l.002-.004.001-.001v-.002L22.5 19l.464.186a.5.5 0 0 0 0-.372L22.5 19l.464-.186v-.002h-.001l-.001-.002-.001-.004-.002-.005-.012-.028a4.825 4.825 0 0 0-.208-.41 5.432 5.432 0 0 0-.68-.948Zm-5.375.67C17.187 17.527 17.936 17 19 17s1.814.527 2.315 1.085c.252.28.435.56.555.77.02.036.037.07.052.101l.022.044a2.55 2.55 0 0 0-.021.044c-.016.031-.033.065-.053.1a4.39 4.39 0 0 1-.555.771C20.813 20.473 20.064 21 19 21s-1.814-.527-2.315-1.085a4.438 4.438 0 0 1-.611-.877l-.02-.038.02-.038a1.62 1.62 0 0 1 .056-.107c.12-.21.303-.49.555-.77ZM19 20a1 1 0 1 0 0-2 1 1 0 0 0 0 2Zm-9-9.5a.5.5 0 0 0-.5-.5h-3a.5.5 0 0 0 0 1h3a.5.5 0 0 0 .5-.5Zm3.5 5.5a.5.5 0 0 1 0 1h-4a.5.5 0 0 1 0-1h4Zm.5 2.5a.5.5 0 0 0-.5-.5h-4a.5.5 0 0 0 0 1h4a.5.5 0 0 0 .5-.5Z" clip-rule="evenodd"/></symbol>
  <use href="#icon"/>
</svg>
