<svg xmlns="http://www.w3.org/2000/svg">
  <symbol id="icon" fill="none" viewBox="0 0 16 16"><path fill="currentColor" d="M8 1.5a6.5 6.5 0 1 1 0 13 6.5 6.5 0 0 1 0-13Zm0 10a5.771 5.771 0 0 0-3.207.967A5.474 5.474 0 0 0 8 13.5a5.473 5.473 0 0 0 3.206-1.033A5.771 5.771 0 0 0 8 11.5Zm0-9a5.5 5.5 0 0 0-3.983 9.29A6.77 6.77 0 0 1 8 10.5a6.77 6.77 0 0 1 3.982 1.29A5.5 5.5 0 0 0 8 2.5ZM8 4a3 3 0 1 1 0 6 3 3 0 0 1 0-6Zm0 1a2 2 0 1 0 0 4 2 2 0 0 0 0-4Z"/></symbol>
  <symbol id="icon-large" fill="none" viewBox="0 0 24 24"><path fill="currentColor" fill-rule="evenodd" d="M21 12a9 9 0 1 0-15.814 5.88A9.473 9.473 0 0 1 12 15a9.473 9.473 0 0 1 6.814 2.88A8.965 8.965 0 0 0 21 12Zm-9 9a8.968 8.968 0 0 1-6.119-2.4A8.474 8.474 0 0 1 12 16c2.403 0 4.572.997 6.119 2.6A8.968 8.968 0 0 1 12 21Zm0 1C6.477 22 2 17.523 2 12S6.477 2 12 2s10 4.477 10 10-4.477 10-10 10Zm0-15a3 3 0 1 1 0 6 3 3 0 0 1 0-6Zm-4 3a4 4 0 1 0 8 0 4 4 0 0 0-8 0Z" clip-rule="evenodd"/></symbol>
  <use href="#icon"/>
</svg>
