<svg xmlns="http://www.w3.org/2000/svg">
  <symbol id="icon" fill="none" viewBox="0 0 16 16"><path fill="currentColor" d="M4.5 2a.5.5 0 0 1 .5.5v1h8.501a1.5 1.5 0 0 1 1.5 1.5v7.5a1.5 1.5 0 0 1-1.5 1.5h-10.5a2 2 0 0 1-1.991-1.796L1 12V4a2 2 0 0 1 2-2h1.5Zm.5 8.5a.5.5 0 0 1-.499.5h-1.5a1 1 0 0 0 0 2h10.5a.5.5 0 0 0 .5-.5V5a.5.5 0 0 0-.5-.5h-8.5v6ZM8.5 7h2V6h1v1h1v1h-1v1.5h1v1h-1v1h-1v-1h-2v1h-1v-1h-1v-1h1V8h-1V7h1V6h1v1ZM3 3a1 1 0 0 0-1 1v6.27A1.99 1.99 0 0 1 3 10h1V3H3Zm5.5 5v1.5h2V8h-2Z"/></symbol>
  <symbol id="icon-large" fill="none" viewBox="0 0 24 24"><path fill="currentColor" fill-rule="evenodd" d="M4.5 3A2.5 2.5 0 0 0 2 5.5V17a3 3 0 0 0 3 3h15.5a1.5 1.5 0 0 0 1.5-1.5v-12A1.5 1.5 0 0 0 20.5 5H7V3.5a.5.5 0 0 0-.5-.5h-2ZM7 6h13.5a.5.5 0 0 1 .5.5v12a.5.5 0 0 1-.5.5H5a2 2 0 1 1 0-4h1.5a.5.5 0 0 0 .5-.5V6Zm-1 8V4H4.5A1.5 1.5 0 0 0 3 5.5v9.264A2.989 2.989 0 0 1 5 14h1Zm5-6h1v1.5h4V8h1v1.5h1.5v1H17v4h1.5v1H17V17h-1v-1.5h-4V17h-1v-1.5H9.5v-1H11v-4H9.5v-1H11V8Zm1 2.5v4h4v-4h-4Z" clip-rule="evenodd"/></symbol>
  <use href="#icon"/>
</svg>
