<svg xmlns="http://www.w3.org/2000/svg">
  <symbol id="icon" fill="none" viewBox="0 0 16 16"><path fill="currentColor" d="M7.5 10.5a.5.5 0 0 1 .5.5v1h5.5a.5.5 0 0 1 0 1H8v1a.5.5 0 0 1-1 0v-3a.5.5 0 0 1 .5-.5ZM6 13H2.5a.5.5 0 0 1 0-1H6v1Zm5.5-7a.5.5 0 0 1 .5.5v1h1.5a.5.5 0 0 1 0 1H12v1a.5.5 0 0 1-1 0v-3a.5.5 0 0 1 .5-.5ZM10 8.5H2.5a.5.5 0 0 1 0-1H10v1Zm-4.5-7A.5.5 0 0 1 6 2v1h7.5a.5.5 0 0 1 0 1H6v1a.5.5 0 0 1-1 0V2a.5.5 0 0 1 .5-.5ZM4 4H2.5a.5.5 0 0 1 0-1H4v1Z"/></symbol>
  <symbol id="icon-large" fill="none" viewBox="0 0 24 24"><path fill="currentColor" fill-rule="evenodd" d="M8 4a1.5 1.5 0 1 1 0 3 1.5 1.5 0 0 1 0-3Zm2.45 2a2.5 2.5 0 0 1-4.9 0H3.5a.5.5 0 0 1 0-1h2.05a2.5 2.5 0 0 1 4.9 0H20.5a.5.5 0 0 1 0 1H10.45ZM16 10.5a1.5 1.5 0 1 1 0 3 1.5 1.5 0 0 1 0-3Zm2.45 2a2.5 2.5 0 0 1-4.9 0H3.5a.5.5 0 0 1 0-1h10.05a2.5 2.5 0 0 1 4.9 0h2.05a.5.5 0 0 1 0 1h-2.05ZM8 17a1.5 1.5 0 1 1 0 3 1.5 1.5 0 0 1 0-3Zm2.45 2a2.5 2.5 0 0 1-4.9 0H3.5a.5.5 0 0 1 0-1h2.05a2.5 2.5 0 0 1 4.9 0H20.5a.5.5 0 0 1 0 1H10.45Z" clip-rule="evenodd"/></symbol>
  <use href="#icon"/>
</svg>
