<svg xmlns="http://www.w3.org/2000/svg">
  <symbol id="icon" fill="none" viewBox="0 0 16 16"><path fill="currentColor" d="M7 1.5A2 2 0 0 1 8.935 4H10.5A1.5 1.5 0 0 1 12 5.5v1.564a2 2 0 1 1 0 3.87V12.5a1.5 1.5 0 0 1-1.5 1.5H8.118a.5.5 0 0 1-.373-.833 1 1 0 1 0-1.49 0 .5.5 0 0 1-.373.833H3.5A1.5 1.5 0 0 1 2 12.5v-2.382a.5.5 0 0 1 .833-.373 1 1 0 1 0 0-1.49A.5.5 0 0 1 2 7.882V5.5A1.5 1.5 0 0 1 3.5 4h1.565A2 2 0 0 1 7 1.5Zm0 1a1 1 0 0 0-.745 1.667.5.5 0 0 1-.373.833H3.5a.5.5 0 0 0-.5.5v1.564a2 2 0 1 1 0 3.87V12.5a.5.5 0 0 0 .5.5h1.565a2 2 0 1 1 3.87 0H10.5a.5.5 0 0 0 .5-.5v-2.382a.5.5 0 0 1 .833-.373 1 1 0 1 0 0-1.49.5.5 0 0 1-.833-.373V5.5a.5.5 0 0 0-.5-.5H8.118a.5.5 0 0 1-.373-.833A1 1 0 0 0 7 2.5Z"/></symbol>
  <symbol id="icon-large" fill="none" viewBox="0 0 24 24"><path fill="currentColor" d="M13 4a2 2 0 1 0-3.6 1.2.5.5 0 0 1-.4.8H4.5a.5.5 0 0 0-.5.5v3.672a3 3 0 1 1 0 5.655V19.5a.5.5 0 0 0 .5.5h3.673a3 3 0 1 1 5.654 0H17.5a.5.5 0 0 0 .5-.5V15a.5.5 0 0 1 .8-.4 2 2 0 1 0 0-3.201A.501.501 0 0 1 18 11V6.5a.5.5 0 0 0-.5-.5H13a.5.5 0 0 1-.4-.8c.252-.334.4-.75.4-1.2Zm1 0c0 .35-.062.687-.173 1H17.5A1.5 1.5 0 0 1 19 6.5v3.672a3 3 0 1 1 0 5.655V19.5a1.5 1.5 0 0 1-1.5 1.5H13a.5.5 0 0 1-.4-.8 2 2 0 1 0-3.201 0A.5.5 0 0 1 9 21H4.5A1.5 1.5 0 0 1 3 19.5V15a.5.5 0 0 1 .8-.4 2 2 0 1 0 0-3.201A.501.501 0 0 1 3 11V6.5A1.5 1.5 0 0 1 4.5 5h3.673A3 3 0 1 1 14 4Z"/></symbol>
  <use href="#icon"/>
</svg>
