<svg xmlns="http://www.w3.org/2000/svg">
  <symbol id="icon" fill="none" viewBox="0 0 16 16"><path fill="currentColor" d="M8 1.5a6.5 6.5 0 1 1 0 13 6.5 6.5 0 0 1 0-13ZM8.501 5a.5.5 0 0 1-1 0L7.5 2.523A5.5 5.5 0 0 0 2.523 7.5H5l.1.01a.5.5 0 0 1 0 .98l-.1.011L2.523 8.5A5.499 5.499 0 0 0 7.5 13.476V11a.5.5 0 0 1 1 0v2.476A5.499 5.499 0 0 0 13.477 8.5H11a.5.5 0 0 1 0-1h2.477A5.5 5.5 0 0 0 8.5 2.523L8.501 5Z"/></symbol>
  <symbol id="icon-large" fill="none" viewBox="0 0 24 24"><path fill="currentColor" fill-rule="evenodd" d="M16.5 12.5h4.486a9 9 0 0 1-8.486 8.486V16.5a.5.5 0 0 0-1 0v4.486A9 9 0 0 1 3.014 12.5H7.5a.5.5 0 0 0 0-1H3.014A9.001 9.001 0 0 1 11.5 3.014V7.5a.5.5 0 0 0 1 0V3.014a9 9 0 0 1 8.486 8.486H16.5a.5.5 0 0 0 0 1ZM22 12c0 5.523-4.477 10-10 10S2 17.523 2 12 6.477 2 12 2s10 4.477 10 10Z" clip-rule="evenodd"/></symbol>
  <use href="#icon"/>
</svg>
