<svg xmlns="http://www.w3.org/2000/svg">
  <symbol id="icon" fill="none" viewBox="0 0 16 16"><path fill="currentColor" d="M2.146 2.146a.501.501 0 0 1 .629-.064l.078.064 11 11 .065.078a.5.5 0 0 1-.694.694l-.078-.065-11-11-.064-.078a.501.501 0 0 1 .064-.629Zm3.899 6.015L3.5 10.707v1.792h1.793l2.545-2.545.707.707-2.692 2.692a.5.5 0 0 1-.353.146H3a.5.5 0 0 1-.5-.5v-2.5c0-.132.053-.26.146-.353l2.692-2.692.707.707Zm3.894-5.308a1.5 1.5 0 0 1 2.121 0l1.086 1.086a1.5 1.5 0 0 1 0 2.121l-2.482 2.482-.707-.707L11.293 6.5 9.5 4.707 8.164 6.042l-.707-.707 2.482-2.482Zm1.414.707a.5.5 0 0 0-.707 0l-.44.44L12 5.792l.44-.439a.5.5 0 0 0 0-.707L11.352 3.56Z"/></symbol>
  <symbol id="icon-large" fill="none" viewBox="0 0 24 24"><path fill="currentColor" d="m9.043 11.164-5.897 5.897a.501.501 0 0 0-.146.353V21h3.586c.132 0 .26-.053.353-.146l5.897-5.897.707.707-5.897 5.897a1.5 1.5 0 0 1-1.06.44H2.5a.5.5 0 0 1-.5-.5v-4.087c0-.397.158-.779.44-1.06l5.896-5.897.707.707ZM2.146 2.147a.5.5 0 0 1 .63-.065l.077.065 19 19 .065.078a.5.5 0 0 1-.694.693l-.078-.064-19-19-.064-.078a.5.5 0 0 1 .064-.63Zm14.407.104a1.5 1.5 0 0 1 2.007.103l3.086 3.086.103.114a1.5 1.5 0 0 1 0 1.893l-.103.114-5.982 5.982-.707-.707L18.293 9.5 14.5 5.707l-3.336 3.336-.707-.707 5.982-5.982.114-.103Zm1.3.81a.5.5 0 0 0-.629-.064l-.078.064L15.206 5 19 8.792l1.94-1.94.063-.077a.5.5 0 0 0 0-.551l-.064-.078-3.086-3.086Z"/></symbol>
  <use href="#icon"/>
</svg>
