<svg xmlns="http://www.w3.org/2000/svg">
  <symbol id="icon" fill="none" viewBox="0 0 16 16"><path fill="currentColor" fill-rule="evenodd" d="M2.5 2a.5.5 0 0 0-.5.5v5h12v-5a.5.5 0 0 0-.5-.5h-11ZM14 8.5h-1.658l1.091 2H14v-2Zm-2.797 0H9.63l.461 2h2.204l-1.09-2Zm-2.6 0H7.397l-.462 2h2.128l-.462-2Zm-2.232 0H4.797l-1.091 2H5.91l.461-2Zm-2.713 0H2v2h.567l1.09-2Zm-.498 3h2.52L5.101 14H2.5a.5.5 0 0 1-.489-.393l1.15-2.107ZM9.871 14H6.13l.576-2.5h2.59L9.87 14Zm1.027 0-.577-2.5h2.518l1.15 2.107A.5.5 0 0 1 13.5 14h-2.602ZM2 11.5h.021L2 11.54v-.04Zm12 .04-.021-.04H14v.04ZM1 2.5A1.5 1.5 0 0 1 2.5 1h11A1.5 1.5 0 0 1 15 2.5v11a1.5 1.5 0 0 1-1.5 1.5h-11A1.5 1.5 0 0 1 1 13.5v-11Z" clip-rule="evenodd"/></symbol>
  <symbol id="icon-large" fill="none" viewBox="0 0 24 24"><path fill="currentColor" fill-rule="evenodd" d="M4.5 4a.5.5 0 0 0-.5.5v7h16v-7a.5.5 0 0 0-.5-.5h-15ZM20 12.5h-2.163l1.616 3H20v-3Zm-3.299 0h-2.57l.706 3h3.48l-1.616-3Zm-3.597 0h-2.208l-.706 3h3.62l-.706-3Zm-3.235 0h-2.57l-1.616 3h3.48l.706-3Zm-3.706 0H4v3h.548l1.615-3ZM4 16.5h.01l-.01.017V16.5Zm0 3v-.874L5.145 16.5h3.783L8.104 20H4.5a.5.5 0 0 1-.5-.5Zm10.045-3h-4.09L9.13 20h5.738l-.824-3.5Zm1.851 3.5-.824-3.5h3.783L20 18.626v.874a.5.5 0 0 1-.5.5h-3.604ZM20 16.517l-.009-.017H20v.017ZM3 4.5A1.5 1.5 0 0 1 4.5 3h15A1.5 1.5 0 0 1 21 4.5v15a1.5 1.5 0 0 1-1.5 1.5h-15A1.5 1.5 0 0 1 3 19.5v-15Z" clip-rule="evenodd"/></symbol>
  <use href="#icon"/>
</svg>
