<svg xmlns="http://www.w3.org/2000/svg">
  <symbol id="icon" fill="none" viewBox="0 0 16 16"><path fill="currentColor" d="M8 1.5a6.5 6.5 0 1 1 0 13 6.5 6.5 0 0 1 0-13Zm0 1a5.5 5.5 0 1 0 0 11 5.5 5.5 0 0 0 0-11ZM8 4a4 4 0 1 1 0 8 4 4 0 0 1 0-8Zm0 1a3 3 0 1 0 0 6 3 3 0 0 0 0-6Z"/></symbol>
  <symbol id="icon-large" fill="none" viewBox="0 0 24 24"><path fill="currentColor" fill-rule="evenodd" d="M12 3a9 9 0 1 1 0 18 9 9 0 0 1 0-18Zm0 19c5.523 0 10-4.477 10-10S17.523 2 12 2 2 6.477 2 12s4.477 10 10 10Zm0-16a6 6 0 1 1 0 12 6 6 0 0 1 0-12Zm0 13a7 7 0 1 0 0-14 7 7 0 0 0 0 14Z" clip-rule="evenodd"/></symbol>
  <use href="#icon"/>
</svg>
