<svg xmlns="http://www.w3.org/2000/svg">
  <symbol id="icon" fill="none" viewBox="0 0 16 16"><path fill="currentColor" fill-rule="evenodd" d="M2 8a6 6 0 0 1 6-6c1.767 0 3.255.764 4.35 2H10.5a.5.5 0 0 0 0 1h3a.5.5 0 0 0 .5-.5v-3a.5.5 0 0 0-1 0v1.729c-1.255-1.364-2.968-2.23-5-2.23A7 7 0 1 0 15 8a.5.5 0 1 0-1 0A6 6 0 1 1 2 8Z" clip-rule="evenodd"/></symbol>
  <symbol id="icon-large" fill="none" viewBox="0 0 24 24"><path fill="currentColor" fill-rule="evenodd" d="M4 12a8 8 0 0 1 8-8c2.533 0 4.896 1.176 6.37 3H15.5a.5.5 0 0 0 0 1h4a.5.5 0 0 0 .5-.5v-4a.5.5 0 0 0-1 0v2.694C17.329 4.236 14.751 3 12 3a9 9 0 1 0 9 9 .5.5 0 0 0-1 0 8 8 0 1 1-16 0Z" clip-rule="evenodd"/></symbol>
  <use href="#icon"/>
</svg>
