<svg xmlns="http://www.w3.org/2000/svg">
  <symbol id="icon" fill="none" viewBox="0 0 16 16"><path fill="currentColor" fill-rule="evenodd" d="M3.5 2a.5.5 0 0 0-.5.5v11a.5.5 0 0 0 .5.5h9a.5.5 0 0 0 .5-.5V6h-2.5A1.5 1.5 0 0 1 9 4.5V2H3.5Zm6.5.707V4.5a.5.5 0 0 0 .5.5h1.793L10 2.707ZM2 2.5A1.5 1.5 0 0 1 3.5 1h5.793a1 1 0 0 1 .707.293L13.707 5a1 1 0 0 1 .293.707V13.5a1.5 1.5 0 0 1-1.5 1.5h-9A1.5 1.5 0 0 1 2 13.5v-11ZM8 7a.5.5 0 0 1 .5.5v4a.5.5 0 0 1-1 0v-4A.5.5 0 0 1 8 7Zm2.5 1.5a.5.5 0 0 1 .5.5v2.5a.5.5 0 0 1-1 0V9a.5.5 0 0 1 .5-.5Zm-5 1a.5.5 0 0 1 .5.5v1.5a.5.5 0 0 1-1 0V10a.5.5 0 0 1 .5-.5Z" clip-rule="evenodd"/></symbol>
  <symbol id="icon-large" fill="none" viewBox="0 0 24 24"><path fill="currentColor" fill-rule="evenodd" d="M5.5 3a.5.5 0 0 0-.5.5v17a.5.5 0 0 0 .5.5h13a.5.5 0 0 0 .5-.5v-11h-5A1.5 1.5 0 0 1 12.5 8V3h-7Zm8 .707V8a.5.5 0 0 0 .5.5h4.293L13.5 3.707ZM4 3.5A1.5 1.5 0 0 1 5.5 2h7.086a1.5 1.5 0 0 1 1.06.44l5.915 5.914A1.5 1.5 0 0 1 20 9.414V20.5a1.5 1.5 0 0 1-1.5 1.5h-13A1.5 1.5 0 0 1 4 20.5v-17Zm8 8.5a.5.5 0 0 1 .5.5v5a.5.5 0 0 1-1 0v-5a.5.5 0 0 1 .5-.5Zm3.5 2a.5.5 0 0 1 .5.5v3a.5.5 0 0 1-1 0v-3a.5.5 0 0 1 .5-.5Zm-7 1a.5.5 0 0 1 .5.5v2a.5.5 0 0 1-1 0v-2a.5.5 0 0 1 .5-.5Z" clip-rule="evenodd"/></symbol>
  <use href="#icon"/>
</svg>
