<svg xmlns="http://www.w3.org/2000/svg">
  <symbol id="icon" fill="none" viewBox="0 0 16 16"><path fill="currentColor" d="M11.93 9.758a1.558 1.558 0 0 1 2.028 2.365l-2.633 2.257a.5.5 0 0 1-.325.12H9.5A.5.5 0 0 1 9 14v-1.5a.5.5 0 0 1 .175-.38l2.756-2.362ZM11.087 2a1.5 1.5 0 0 1 1.06.44l1.414 1.414.1.11a1.5 1.5 0 0 1 .34.95V8h-1V4.914a.5.5 0 0 0-.084-.277l-.063-.076L11.5 3.207V5.5a.5.5 0 0 1-.5.5H5a.5.5 0 0 1-.5-.5V3h-1a.5.5 0 0 0-.5.5v9a.5.5 0 0 0 .5.5h1V9.499a1.5 1.5 0 0 1 1.5-1.5L10 8v1l-4-.001a.5.5 0 0 0-.5.5V13H8v1H3.5A1.5 1.5 0 0 1 2 12.5v-9A1.5 1.5 0 0 1 3.5 2h7.586Zm2.253 8.546a.558.558 0 0 0-.757-.03L10 12.73v.771h.815l2.493-2.137a.558.558 0 0 0 .03-.817ZM5.5 5h5V3h-5v2Z"/></symbol>
  <symbol id="icon-large" fill="none" viewBox="0 0 24 24"><path fill="currentColor" fill-rule="evenodd" d="M3 4.5v15A1.5 1.5 0 0 0 4.5 21H13v-1H8v-6.5a.5.5 0 0 1 .5-.5h7a.5.5 0 0 1 .5.5V16h1v-2.5a1.5 1.5 0 0 0-1.5-1.5h-7A1.5 1.5 0 0 0 7 13.5V20H4.5a.5.5 0 0 1-.5-.5v-15a.5.5 0 0 1 .5-.5H7v4.5a.5.5 0 0 0 .5.5h9a.5.5 0 0 0 .5-.5V4h.086a.5.5 0 0 1 .354.146l2.413 2.415a.5.5 0 0 1 .147.353V13h1V6.914a1.5 1.5 0 0 0-.44-1.06l-2.413-2.415A1.5 1.5 0 0 0 17.085 3H4.5A1.5 1.5 0 0 0 3 4.5ZM8 4v4h8V4H8Zm11.44 11.854a1.5 1.5 0 0 1 2.12 0l.587.585a1.5 1.5 0 0 1 0 2.122l-.793.793-3.5 3.5A.5.5 0 0 1 17.5 23h-2a.5.5 0 0 1-.5-.5v-2a.5.5 0 0 1 .146-.354l3.5-3.499.001-.001.793-.793Zm2 2-.44.439L19.707 17l.44-.44a.5.5 0 0 1 .707 0l.585.587a.5.5 0 0 1 0 .707ZM20.293 19 19 17.707l-3 3V22h1.293l3-3Z" clip-rule="evenodd"/></symbol>
  <use href="#icon"/>
</svg>
