<svg xmlns="http://www.w3.org/2000/svg">
  <symbol id="icon" fill="none" viewBox="0 0 16 16"><path fill="currentColor" d="M11.5 8.5a3 3 0 1 1 0 6 3 3 0 0 1 0-6Zm1-6.5A1.5 1.5 0 0 1 14 3.5v4.878a3.994 3.994 0 0 0-1-.586V3.5a.5.5 0 0 0-.5-.5h-9a.5.5 0 0 0-.5.5v9a.5.5 0 0 0 .5.5h4.292c.147.363.346.7.587 1H3.5A1.5 1.5 0 0 1 2 12.5v-9A1.5 1.5 0 0 1 3.5 2h9Zm-1 7.5a2 2 0 1 0 0 4 2 2 0 0 0 0-4Zm.303 1.276a.5.5 0 0 1 .894.448l-.75 1.5a.5.5 0 0 1-.8.13l-.75-.75-.065-.079a.5.5 0 0 1 .693-.693l.079.064.258.26.44-.88Zm-3.49-5.272a.5.5 0 0 1 .433.559L8.38 8.998c-.346.43-.605.934-.75 1.483a.498.498 0 0 1-.375-.544l.5-4a.5.5 0 0 1 .559-.434Zm-2.667.642a.5.5 0 1 1 .708.708L5.207 8l1.147 1.146.064.079a.5.5 0 0 1-.693.693l-.079-.064-1.5-1.5a.5.5 0 0 1 0-.708l1.5-1.5Zm4 0a.5.5 0 0 1 .63-.064l.078.064 1.358 1.359a4.068 4.068 0 0 0-1.275.139l-.79-.79-.065-.079a.5.5 0 0 1 .064-.629Z"/></symbol>
  <symbol id="icon-large" fill="none" viewBox="0 0 24 24"><path fill="currentColor" fill-rule="evenodd" d="M20 4.5a.5.5 0 0 0-.5-.5h-15a.5.5 0 0 0-.5.5v15a.5.5 0 0 0 .5.5H13v1H4.5A1.5 1.5 0 0 1 3 19.5v-15A1.5 1.5 0 0 1 4.5 3h15A1.5 1.5 0 0 1 21 4.5V13h-1V4.5ZM19 16a3 3 0 1 1 0 6 3 3 0 0 1 0-6Zm0 7a4 4 0 1 0 0-8 4 4 0 0 0 0 8Zm1.854-5.104a.5.5 0 0 0-.707 0L18.5 19.543l-.646-.646a.5.5 0 1 0-.707.707l1 1a.5.5 0 0 0 .707 0l2-2a.5.5 0 0 0 0-.707Zm-11.5-9.25a.5.5 0 0 0-.708 0l-3 3a.5.5 0 0 0 0 .707l3 3a.5.5 0 1 0 .708-.707L6.707 12l2.647-2.646a.5.5 0 0 0 0-.708Zm3.171.196a.5.5 0 0 1 .95.316l-2 6a.5.5 0 0 1-.95-.316l2-6Zm2.829-.196a.5.5 0 1 0-.707.708L17.293 12l-2.646 2.646a.5.5 0 1 0 .707.707l3-3a.5.5 0 0 0 0-.707l-3-3Z" clip-rule="evenodd"/></symbol>
  <use href="#icon"/>
</svg>
