<svg xmlns="http://www.w3.org/2000/svg">
  <symbol id="icon" fill="none" viewBox="0 0 16 16"><path fill="currentColor" d="M2.5 12a.5.5 0 0 1 .49.4l.02.2c.04.196.194.35.39.39l.2.02a.5.5 0 0 1-.1.99 1.5 1.5 0 0 1-1.492-1.347L2 12.5l.01-.1a.501.501 0 0 1 .49-.4ZM7 13a.5.5 0 0 1 0 1H5.5a.5.5 0 0 1 0-1H7Zm3.5 0a.5.5 0 0 1 0 1H9a.5.5 0 0 1 0-1h1.5Zm3-1a.5.5 0 0 1 .5.5l-.008.153A1.5 1.5 0 0 1 12.5 14a.5.5 0 0 1 0-1 .5.5 0 0 0 .49-.4l.01-.1.01-.1a.501.501 0 0 1 .49-.4Zm-11-3.5A.5.5 0 0 1 3 9v1.5a.5.5 0 0 1-1 0V9a.5.5 0 0 1 .5-.5Zm11 0a.5.5 0 0 1 .5.5v1.5l-.01.1a.5.5 0 0 1-.98 0l-.01-.1V9a.5.5 0 0 1 .5-.5ZM2.5 5a.5.5 0 0 1 .5.5V7a.5.5 0 0 1-1 0V5.5a.5.5 0 0 1 .5-.5Zm11 0a.5.5 0 0 1 .5.5V7a.5.5 0 0 1-1 0V5.5a.5.5 0 0 1 .5-.5Zm-10-3a.5.5 0 0 1 .1.99l-.2.02a.502.502 0 0 0-.401.49.5.5 0 1 1-1 0c0-.828.673-1.5 1.501-1.5Zm9 0a1.5 1.5 0 0 1 1.499 1.5.5.5 0 1 1-1 0 .5.5 0 0 0-.398-.49l-.202-.02A.5.5 0 0 1 12.5 2Zm-5.4.01A.5.5 0 0 1 7 3H5.5a.5.5 0 0 1 0-1h1.499l.102.01Zm3.5 0a.501.501 0 0 1-.1.99H9a.5.5 0 0 1-.001-1h1.5l.102.01Z"/></symbol>
  <symbol id="icon-large" fill="none" viewBox="0 0 24 24"><path fill="currentColor" d="M4.5 3h1a.5.5 0 0 1 0 1h-1a.5.5 0 0 0-.5.5v1a.5.5 0 0 1-1 0v-1A1.5 1.5 0 0 1 4.5 3ZM4 10.5a.5.5 0 0 1-1 0v-2a.5.5 0 0 1 1 0v2Zm0 5a.5.5 0 0 1-1 0v-2a.5.5 0 0 1 1 0v2Zm.5 4.5h1a.5.5 0 0 1 0 1h-1A1.5 1.5 0 0 1 3 19.5v-1a.5.5 0 0 1 1 0v1a.5.5 0 0 0 .5.5Zm4-17h2a.5.5 0 0 1 0 1h-2a.5.5 0 0 1 0-1Zm0 17h2a.5.5 0 0 1 0 1h-2a.5.5 0 0 1 0-1Zm5-17h2a.5.5 0 0 1 0 1h-2a.5.5 0 0 1 0-1Zm0 17h2a.5.5 0 0 1 0 1h-2a.5.5 0 0 1 0-1Zm5-17h1A1.5 1.5 0 0 1 21 4.5v1a.5.5 0 0 1-1 0v-1a.5.5 0 0 0-.5-.5h-1a.5.5 0 0 1 0-1Zm0 17h1a.5.5 0 0 0 .5-.5v-1a.5.5 0 0 1 1 0v1a1.5 1.5 0 0 1-1.5 1.5h-1a.5.5 0 0 1 0-1Zm2.5-9.5a.5.5 0 0 1-1 0v-2a.5.5 0 0 1 1 0v2Zm0 5a.5.5 0 0 1-1 0v-2a.5.5 0 0 1 1 0v2Z"/></symbol>
  <use href="#icon"/>
</svg>
