<svg xmlns="http://www.w3.org/2000/svg">
  <symbol id="icon" fill="none" viewBox="0 0 16 16"><path fill="currentColor" fill-rule="evenodd" d="M2 2.5a.5.5 0 0 1 .5-.5h1a.5.5 0 0 0 0-1h-1A1.5 1.5 0 0 0 1 2.5v1a.5.5 0 0 0 1 0v-1ZM5.5 1a.5.5 0 1 0 0 1H7a.5.5 0 0 0 0-1H5.5Zm7 0a.5.5 0 0 0 0 1h1a.5.5 0 0 1 .5.5v1a.5.5 0 1 0 1 0v-1A1.5 1.5 0 0 0 13.5 1h-1ZM9 1a.5.5 0 0 0 0 1h1.5a.5.5 0 1 0 0-1H9ZM2 5.5a.5.5 0 0 0-1 0V7a.5.5 0 0 0 1 0V5.5Zm13 0a.5.5 0 0 0-1 0V7a.5.5 0 0 0 1 0V5.5ZM2 9a.5.5 0 0 0-1 0v1.5a.5.5 0 0 0 1 0V9Zm13 0a.5.5 0 0 0-1 0v1.5a.5.5 0 0 0 1 0V9ZM2 12.5a.5.5 0 0 0-1 0v1A1.5 1.5 0 0 0 2.5 15h1a.5.5 0 0 0 0-1h-1a.5.5 0 0 1-.5-.5v-1Zm13 0a.5.5 0 1 0-1 0v1a.5.5 0 0 1-.5.5h-1a.5.5 0 1 0 0 1h1a1.5 1.5 0 0 0 1.5-1.5v-1ZM5.5 14a.5.5 0 1 0 0 1H7a.5.5 0 0 0 0-1H5.5ZM9 14a.5.5 0 1 0 0 1h1.5a.5.5 0 1 0 0-1H9ZM4.5 3.5a1 1 0 0 0-1 1v2a1 1 0 0 0 1 1h2a1 1 0 0 0 1-1v-2a1 1 0 0 0-1-1h-2Zm0 1h2v2h-2v-2Zm4 0a1 1 0 0 1 1-1h2a1 1 0 0 1 1 1v2a1 1 0 0 1-1 1h-2a1 1 0 0 1-1-1v-2Zm3 0h-2v2h2v-2Zm-2 4a1 1 0 0 0-1 1v2a1 1 0 0 0 1 1h2a1 1 0 0 0 1-1v-2a1 1 0 0 0-1-1h-2Zm0 1h2v2h-2v-2Z" clip-rule="evenodd"/></symbol>
  <symbol id="icon-large" fill="none" viewBox="0 0 24 24"><path fill="currentColor" fill-rule="evenodd" d="M4 4.5a.5.5 0 0 1 .5-.5h1a.5.5 0 0 0 0-1h-1A1.5 1.5 0 0 0 3 4.5v1a.5.5 0 0 0 1 0v-1ZM8.5 3a.5.5 0 0 0 0 1h2a.5.5 0 0 0 0-1h-2Zm5 0a.5.5 0 0 0 0 1h2a.5.5 0 0 0 0-1h-2Zm5 0a.5.5 0 0 0 0 1h1a.5.5 0 0 1 .5.5v1a.5.5 0 0 0 1 0v-1A1.5 1.5 0 0 0 19.5 3h-1ZM4 8.5a.5.5 0 0 0-1 0v2a.5.5 0 0 0 1 0v-2Zm17 0a.5.5 0 0 0-1 0v2a.5.5 0 0 0 1 0v-2Zm-17 5a.5.5 0 0 0-1 0v2a.5.5 0 0 0 1 0v-2Zm17 0a.5.5 0 0 0-1 0v2a.5.5 0 0 0 1 0v-2Zm-17 5a.5.5 0 0 0-1 0v1A1.5 1.5 0 0 0 4.5 21h1a.5.5 0 0 0 0-1h-1a.5.5 0 0 1-.5-.5v-1Zm17 0a.5.5 0 0 0-1 0v1a.5.5 0 0 1-.5.5h-1a.5.5 0 0 0 0 1h1a1.5 1.5 0 0 0 1.5-1.5v-1ZM8.5 20a.5.5 0 0 0 0 1h2a.5.5 0 0 0 0-1h-2Zm5 0a.5.5 0 0 0 0 1h2a.5.5 0 0 0 0-1h-2ZM7 6a1 1 0 0 0-1 1v3a1 1 0 0 0 1 1h3a1 1 0 0 0 1-1V7a1 1 0 0 0-1-1H7Zm0 1h3v3H7V7Zm6 0a1 1 0 0 1 1-1h3a1 1 0 0 1 1 1v3a1 1 0 0 1-1 1h-3a1 1 0 0 1-1-1V7Zm4 0h-3v3h3V7Zm-3 6a1 1 0 0 0-1 1v3a1 1 0 0 0 1 1h3a1 1 0 0 0 1-1v-3a1 1 0 0 0-1-1h-3Zm0 1h3v3h-3v-3Z" clip-rule="evenodd"/></symbol>
  <use href="#icon"/>
</svg>
