<svg xmlns="http://www.w3.org/2000/svg">
  <symbol id="icon" fill="none" viewBox="0 0 16 16"><path fill="currentColor" fill-rule="evenodd" d="M2.512 3.26a.5.5 0 0 1 .677-.648L13.417 7.55a.5.5 0 0 1 0 .9L3.19 13.389a.5.5 0 0 1-.677-.647l1.779-4.15c.013-.03.025-.06.035-.09H8a.5.5 0 1 0 0-1H4.326a1.5 1.5 0 0 0-.035-.092L2.512 3.26Zm1.112-1.548c-1.25-.603-2.577.666-2.03 1.941l1.778 4.15a.5.5 0 0 1 0 .394l-1.779 4.15c-.546 1.275.782 2.545 2.031 1.942L13.852 9.35c1.13-.546 1.13-2.156 0-2.702L3.624 1.712Z" clip-rule="evenodd"/></symbol>
  <symbol id="icon-large" fill="none" viewBox="0 0 24 24"><path fill="currentColor" fill-rule="evenodd" d="M3.842 4.696a.5.5 0 0 1 .693-.62l14.953 7.477a.5.5 0 0 1 0 .894L4.535 19.923a.5.5 0 0 1-.693-.62l2.5-6.785.006-.018H12a.5.5 0 0 0 0-1H6.348a1.539 1.539 0 0 0-.006-.019l-2.5-6.785Zm1.14-1.514c-1.216-.608-2.548.585-2.078 1.86l2.5 6.785a.5.5 0 0 1 0 .346l-2.5 6.785c-.47 1.275.863 2.468 2.078 1.86l14.953-7.477c1.105-.552 1.105-2.13 0-2.683L4.982 3.182Z" clip-rule="evenodd"/></symbol>
  <use href="#icon"/>
</svg>
