<svg xmlns="http://www.w3.org/2000/svg">
  <symbol id="icon" fill="none" viewBox="0 0 16 16"><path fill="currentColor" fill-rule="evenodd" d="M4.5 2a.5.5 0 0 0-.5.5v11a.5.5 0 0 0 .5.5h7a.5.5 0 0 0 .5-.5v-11a.5.5 0 0 0-.5-.5h-7ZM3 2.5A1.5 1.5 0 0 1 4.5 1h7A1.5 1.5 0 0 1 13 2.5v11a1.5 1.5 0 0 1-1.5 1.5h-7A1.5 1.5 0 0 1 3 13.5v-11Zm5.75 9.75a.75.75 0 1 1-1.5 0 .75.75 0 0 1 1.5 0ZM7 3a.5.5 0 0 0 0 1h2a.5.5 0 0 0 0-1H7Z" clip-rule="evenodd"/></symbol>
  <symbol id="icon-large" fill="none" viewBox="0 0 24 24"><path fill="currentColor" fill-rule="evenodd" d="M6.5 3a.5.5 0 0 0-.5.5v17a.5.5 0 0 0 .5.5h11a.5.5 0 0 0 .5-.5v-17a.5.5 0 0 0-.5-.5h-11ZM5 3.5A1.5 1.5 0 0 1 6.5 2h11A1.5 1.5 0 0 1 19 3.5v17a1.5 1.5 0 0 1-1.5 1.5h-11A1.5 1.5 0 0 1 5 20.5v-17ZM13 19a1 1 0 1 1-2 0 1 1 0 0 1 2 0ZM10.5 4a.5.5 0 0 0 0 1h3a.5.5 0 0 0 0-1h-3Z" clip-rule="evenodd"/></symbol>
  <use href="#icon"/>
</svg>
