<svg xmlns="http://www.w3.org/2000/svg">
  <symbol id="icon" fill="none" viewBox="0 0 16 16"><path fill="currentColor" d="M8 1.5a6.5 6.5 0 1 1 0 13 6.5 6.5 0 0 1 0-13Zm0 1a5.5 5.5 0 1 0 0 11 5.5 5.5 0 0 0 0-11Zm2.697 7.602a.5.5 0 1 1 .606.796l-.235-.308.235.308h-.001l-.001.001-.002.001-.005.004a.55.55 0 0 1-.053.036 1.835 1.835 0 0 1-.13.078c-.11.06-.267.133-.475.205-.418.143-1.036.277-1.886.277-.85 0-1.468-.134-1.886-.277a3.158 3.158 0 0 1-.475-.205 1.894 1.894 0 0 1-.183-.114l-.005-.004H6.2v-.002h-.002l.235-.308-.235.308a.5.5 0 0 1 .605-.796h.002c.01.007.031.02.062.037.063.034.17.085.324.138.31.107.817.223 1.56.223.743 0 1.25-.116 1.56-.223a2.166 2.166 0 0 0 .386-.175h.001Zm.005-.003H10.7l.004-.002-.002.002ZM7 5a.5.5 0 0 1 .5.5v2a.5.5 0 0 1-1 0v-2A.5.5 0 0 1 7 5Zm3.5 0a.5.5 0 0 1 .5.5v2a.5.5 0 0 1-1 0v-2a.5.5 0 0 1 .5-.5Z"/></symbol>
  <symbol id="icon-large" fill="none" viewBox="0 0 24 24"><path fill="currentColor" fill-rule="evenodd" d="M21 12a9 9 0 1 0-18 0 9 9 0 0 0 18 0Zm1 0c0 5.523-4.477 10-10 10S2 17.523 2 12 6.477 2 12 2s10 4.477 10 10Zm-5.775 3.082a.5.5 0 0 1 .693.693l-.064.079-.01.01-.017.015-.052.045a2.599 2.599 0 0 1-.182.14 4.12 4.12 0 0 1-.702.393c-.628.279-1.572.543-2.891.543s-2.263-.264-2.89-.543a4.118 4.118 0 0 1-.703-.393 2.597 2.597 0 0 1-.234-.185l-.017-.016-.01-.01-.064-.078a.5.5 0 0 1 .77-.63l-.001-.001.002.002.018.016c.021.018.059.048.112.086.108.076.283.184.533.295.497.221 1.303.457 2.484.457s1.987-.236 2.484-.457a3.13 3.13 0 0 0 .533-.295 2.12 2.12 0 0 0 .112-.086l.02-.018-.003.002.079-.064ZM10 8.5v3a.5.5 0 0 0 1 0v-3a.5.5 0 0 0-1 0Zm5 0v3a.5.5 0 0 0 1 0v-3a.5.5 0 0 0-1 0Z" clip-rule="evenodd"/></symbol>
  <use href="#icon"/>
</svg>
