<svg xmlns="http://www.w3.org/2000/svg">
  <symbol id="icon" fill="none" viewBox="0 0 16 16"><path fill="currentColor" d="M7.225 8.082a.5.5 0 0 1 .693.693l-.065.078-5 5a.5.5 0 0 1-.707-.707l5-5 .079-.064Zm2.921-2.936a.5.5 0 0 1 .707.707l-1.5 1.5a.5.5 0 1 1-.707-.707l1.5-1.5Zm3-3a.5.5 0 0 1 .707.707l-1.5 1.5a.5.5 0 0 1-.707-.707l1.5-1.5Z"/></symbol>
  <symbol id="icon-large" fill="none" viewBox="0 0 24 24"><path fill="currentColor" d="M11.146 12.146a.5.5 0 1 1 .707.707l-8 8a.5.5 0 1 1-.707-.707l8-8Zm3-3a.5.5 0 0 1 .707.708l-1.5 1.5a.5.5 0 0 1-.707-.707l1.5-1.5Zm3-3a.5.5 0 0 1 .707.708l-1.5 1.5a.5.5 0 0 1-.707-.708l1.5-1.5Zm3-3a.5.5 0 0 1 .707.708l-1.5 1.5a.5.5 0 0 1-.707-.708l1.5-1.5Z"/></symbol>
  <use href="#icon"/>
</svg>
