<svg xmlns="http://www.w3.org/2000/svg">
  <symbol id="icon" fill="none" viewBox="0 0 16 16"><path fill="currentColor" d="M8 1.5c1.076 0 1.95.85 1.995 1.915a5.014 5.014 0 0 1 2.588 2.589A1.998 1.998 0 0 1 14.5 8l-.01.204a1.998 1.998 0 0 1-1.908 1.792 5.012 5.012 0 0 1-2.587 2.587l-.006.121a2 2 0 0 1-3.985-.121 5.014 5.014 0 0 1-2.589-2.588 1.997 1.997 0 0 1 0-3.991 5.016 5.016 0 0 1 2.589-2.589A1.998 1.998 0 0 1 8 1.5Zm0 10a1 1 0 1 0 1 1l-.005-.102A1 1 0 0 0 8 11.5Zm1.777-7.084a1.999 1.999 0 0 1-3.554 0 4.018 4.018 0 0 0-1.807 1.807A1.999 1.999 0 0 1 5.5 8l-.01.204a2 2 0 0 1-1.074 1.572 4.018 4.018 0 0 0 1.807 1.808 1.999 1.999 0 0 1 3.553 0 4.018 4.018 0 0 0 1.808-1.808 1.998 1.998 0 0 1-.001-3.553 4.017 4.017 0 0 0-1.806-1.807ZM3.5 7a1 1 0 1 0 1 1l-.005-.103A1 1 0 0 0 3.5 7Zm9 0a1 1 0 1 0 1 1l-.005-.103A1 1 0 0 0 12.5 7ZM8 2.5a1 1 0 1 0 1 1l-.005-.103A1 1 0 0 0 8 2.5Z"/></symbol>
  <symbol id="icon-large" fill="none" viewBox="0 0 24 24"><path fill="currentColor" d="M12 3c1.025 0 1.868.772 1.984 1.766a7.513 7.513 0 0 1 5.25 5.249A2 2 0 0 1 21 12l-.01.204a1.998 1.998 0 0 1-1.759 1.78 7.51 7.51 0 0 1-5.247 5.248 1.998 1.998 0 0 1-3.97.001 7.513 7.513 0 0 1-5.248-5.249 1.999 1.999 0 0 1 0-3.97 7.512 7.512 0 0 1 5.249-5.247A2 2 0 0 1 12 3Zm0 15a1 1 0 1 0 1 1l-.005-.103A1 1 0 0 0 12 18Zm1.846-12.234a1.998 1.998 0 0 1-3.694 0 6.516 6.516 0 0 0-4.386 4.386A2 2 0 0 1 7 12l-.01.204a2 2 0 0 1-1.224 1.643 6.515 6.515 0 0 0 4.386 4.386 2 2 0 0 1 3.695 0 6.514 6.514 0 0 0 4.386-4.386 2 2 0 0 1 0-3.695 6.515 6.515 0 0 0-4.387-4.386ZM5 11a1 1 0 1 0 1 1l-.005-.103A1 1 0 0 0 5 11Zm14 0a1 1 0 1 0 1 1l-.005-.103A1 1 0 0 0 19 11Zm-7-7a1 1 0 1 0 1 1l-.005-.103A1 1 0 0 0 12 4Z"/></symbol>
  <use href="#icon"/>
</svg>
