<svg xmlns="http://www.w3.org/2000/svg">
  <symbol id="icon" fill="none" viewBox="0 0 16 16"><path fill="currentColor" d="M8.209 1.593A.5.5 0 0 1 9 2v12a.5.5 0 0 1-.791.407l-3.24-2.314A.5.5 0 0 0 4.68 12H2.5A1.5 1.5 0 0 1 1 10.5v-5A1.5 1.5 0 0 1 2.5 4h2.18a.5.5 0 0 0 .29-.093l3.239-2.314ZM5.552 4.72c-.255.181-.56.279-.872.279H2.5a.5.5 0 0 0-.5.5v5a.5.5 0 0 0 .5.5h2.18a1.5 1.5 0 0 1 .872.28L8 13.026V2.972L5.552 4.72Zm8.595.925a.5.5 0 1 1 .707.708L13.207 8l1.646 1.646.065.079a.5.5 0 0 1-.693.693l-.079-.064L12.5 8.707l-1.646 1.646a.5.5 0 1 1-.707-.707L11.793 8l-1.646-1.646-.065-.079a.5.5 0 0 1 .693-.693l.079.064L12.5 7.293l1.646-1.647Z"/></symbol>
  <symbol id="icon-large" fill="none" viewBox="0 0 24 24"><path fill="currentColor" fill-rule="evenodd" d="M12.744 3.063a.5.5 0 0 0-.506.011L5.98 6.926A.502.502 0 0 1 5.717 7H2.5A1.5 1.5 0 0 0 1 8.5v7A1.5 1.5 0 0 0 2.5 17h3.217c.092 0 .184.026.262.074l6.26 3.852A.5.5 0 0 0 13 20.5v-17a.5.5 0 0 0-.256-.437ZM2.5 16a.5.5 0 0 1-.5-.5v-7a.5.5 0 0 1 .5-.5h3.217a1.5 1.5 0 0 0 .786-.223L12 4.395v15.21l-5.497-3.382A1.5 1.5 0 0 0 5.717 16H2.5Zm19.354-6.854a.5.5 0 0 0-.707 0L19 11.293l-2.146-2.147a.5.5 0 1 0-.707.708L18.293 12l-2.146 2.146a.5.5 0 1 0 .707.707L19 12.707l2.146 2.146a.5.5 0 1 0 .707-.707L19.707 12l2.146-2.146a.5.5 0 0 0 0-.708Z" clip-rule="evenodd"/></symbol>
  <use href="#icon"/>
</svg>
