<svg xmlns="http://www.w3.org/2000/svg">
  <symbol id="icon" fill="none" viewBox="0 0 16 16"><path fill="currentColor" d="M8.209 1.593A.5.5 0 0 1 9 2v12a.5.5 0 0 1-.791.407l-3.24-2.314A.5.5 0 0 0 4.68 12H2.5A1.5 1.5 0 0 1 1 10.5v-5A1.5 1.5 0 0 1 2.5 4h2.18a.5.5 0 0 0 .29-.093l3.239-2.314Zm3.408.723a.5.5 0 0 1 .621-.118l.083.057.3.266A7.482 7.482 0 0 1 15 8a7.487 7.487 0 0 1-2.679 5.745.5.5 0 0 1-.642-.765A6.486 6.486 0 0 0 14 8a6.482 6.482 0 0 0-2.062-4.749l-.26-.23-.07-.073a.5.5 0 0 1 .01-.632ZM5.552 4.721c-.255.181-.56.279-.872.279H2.5a.5.5 0 0 0-.5.5v5a.5.5 0 0 0 .5.5h2.18a1.5 1.5 0 0 1 .872.28L8 13.026V2.972L5.552 4.72Zm4.523-.052a.5.5 0 0 1 .624-.103l.082.059.171.16A4.488 4.488 0 0 1 12.305 8a4.49 4.49 0 0 1-1.524 3.375.5.5 0 0 1-.662-.75A3.49 3.49 0 0 0 11.305 8a3.49 3.49 0 0 0-1.052-2.501l-.134-.124-.068-.074a.5.5 0 0 1 .024-.632Z"/></symbol>
  <symbol id="icon-large" fill="none" viewBox="0 0 24 24"><path fill="currentColor" fill-rule="evenodd" d="M12.744 3.063a.5.5 0 0 0-.506.011L5.98 6.926A.502.502 0 0 1 5.717 7H2.5A1.5 1.5 0 0 0 1 8.5v7A1.5 1.5 0 0 0 2.5 17h3.217c.092 0 .184.026.262.074l6.26 3.852A.5.5 0 0 0 13 20.5v-17a.5.5 0 0 0-.256-.437ZM2.5 16a.5.5 0 0 1-.5-.5v-7a.5.5 0 0 1 .5-.5h3.217a1.5 1.5 0 0 0 .786-.223L12 4.395v15.21l-5.497-3.382A1.5 1.5 0 0 0 5.717 16H2.5ZM22 12a9.474 9.474 0 0 0-3.042-6.968.5.5 0 1 1 .68-.732A10.473 10.473 0 0 1 23 12c0 3.043-1.295 5.783-3.362 7.7a.5.5 0 1 1-.68-.733A9.474 9.474 0 0 0 22 12Zm-5 0a5.477 5.477 0 0 0-1.375-3.638.5.5 0 0 1 .75-.662A6.478 6.478 0 0 1 18 12a6.478 6.478 0 0 1-1.625 4.3.5.5 0 0 1-.75-.662A5.477 5.477 0 0 0 17 12Z" clip-rule="evenodd"/></symbol>
  <use href="#icon"/>
</svg>
