<svg xmlns="http://www.w3.org/2000/svg">
  <symbol id="icon" fill="none" viewBox="0 0 16 16"><path fill="currentColor" d="M8.051 1.504a.502.502 0 0 1 .084.016l.023.005.004.002c.032.01.062.024.09.041l4.695 2.71a1.5 1.5 0 0 1 .75 1.299v4.846c0 .535-.287 1.03-.75 1.298l-4.692 2.707a.502.502 0 0 1-.093.043l-.024.007a.507.507 0 0 1-.064.015l-.033.003a.477.477 0 0 1-.147-.01c-.013-.003-.026-.005-.038-.009-.005-.001-.01-.001-.014-.003l-.026-.012a.507.507 0 0 1-.054-.025l-.012-.005-.496-.287a.5.5 0 0 1 .5-.865l.246.143 4.447-2.568a.5.5 0 0 0 .25-.432V5.577a.501.501 0 0 0-.25-.433L7.999 2.576l-.246.143a.5.5 0 1 1-.499-.866l.496-.286.022-.01a.5.5 0 0 1 .058-.027l.012-.005c.02-.006.04-.01.06-.014l.005-.002a.494.494 0 0 1 .06-.007L7.99 1.5h.021c.014 0 .027.002.041.004ZM4.74 11.967a.5.5 0 0 1 .603-.08l.62.359a.5.5 0 0 1-.5.865l-.62-.358a.5.5 0 0 1-.103-.786ZM2.673 9.945a.5.5 0 0 1 .631.478.5.5 0 0 0 .25.432.5.5 0 0 1-.5.866 1.5 1.5 0 0 1-.75-1.298c0-.224.154-.42.37-.478ZM8 4.5a.5.5 0 0 1 .5.5v2.717l1.007.604.532.318.16.097.044.025.01.007.003.002.001.001.082.06a.5.5 0 0 1-.505.84l-.09-.042h-.001v-.001l-.003-.002-.012-.006-.043-.026-.16-.097-.531-.319-1.25-.75A.5.5 0 0 1 7.5 8V5a.5.5 0 0 1 .5-.5ZM2.933 7.159a.5.5 0 0 1 .371.483v.715a.5.5 0 0 1-1 0v-.715a.5.5 0 0 1 .629-.483Zm.121-2.88a.492.492 0 0 1 .595.077l.008.008c.23.23.18.617-.103.78a.5.5 0 0 0-.25.433.5.5 0 0 1-1 0 1.5 1.5 0 0 1 .75-1.299Zm2.406-1.39a.5.5 0 0 1 .501.866l-.619.356a.5.5 0 1 1-.5-.866l.618-.357Z"/></symbol>
  <symbol id="icon-large" fill="none" viewBox="0 0 24 24"><path fill="currentColor" fill-rule="evenodd" d="M10.674 21.69a.5.5 0 0 1 .686-.167l.64.391 8.26-5.048a.5.5 0 0 0 .24-.427V7.561a.5.5 0 0 0-.24-.427L12 2.086l-.64.39a.5.5 0 0 1-.521-.853l.9-.55a.5.5 0 0 1 .53.005l8.513 5.203a1.5 1.5 0 0 1 .718 1.28v8.878a1.5 1.5 0 0 1-.718 1.28l-8.514 5.203a.5.5 0 0 1-.529.005l-.9-.55a.5.5 0 0 1-.165-.688Zm-4.5-2.75a.5.5 0 0 1 .686-.167l1.801 1.1a.5.5 0 0 1-.521.854l-1.801-1.1a.5.5 0 0 1-.165-.688ZM2.5 16a.5.5 0 0 1 1 0v.719l.661.404a.5.5 0 0 1-.521.854l-.9-.55A.5.5 0 0 1 2.5 17v-1Zm0-3v-2a.5.5 0 0 1 1 0v2a.5.5 0 0 1-1 0Zm0-5V7a.5.5 0 0 1 .24-.427l.9-.55a.5.5 0 0 1 .521.854L3.5 7.28V8a.5.5 0 0 1-1 0Zm5.64-4.727a.5.5 0 0 1 .521.854l-1.8 1.1a.5.5 0 0 1-.522-.854l1.8-1.1ZM12 7a.5.5 0 0 0-.5.5V12a.5.5 0 0 0 .223.416l3 2a.5.5 0 1 0 .554-.832L12.5 11.732V7.5A.5.5 0 0 0 12 7Z" clip-rule="evenodd"/></symbol>
  <use href="#icon"/>
</svg>
