<svg xmlns="http://www.w3.org/2000/svg">
  <symbol id="icon" fill="none" viewBox="0 0 16 16"><path fill="currentColor" fill-rule="evenodd" d="M8.252.568a.5.5 0 0 0-.504 0l-.667.389a.5.5 0 1 0 .504.864L8 1.579l.415.242a.5.5 0 0 0 .504-.864L8.252.568ZM5.919 2.793a.5.5 0 1 0-.504-.864l-1.334.778a.5.5 0 1 0 .504.864l1.334-.778Zm4.666-.864a.5.5 0 0 0-.504.864l1.334.778a.5.5 0 0 0 .504-.864l-1.334-.778ZM2.92 4.543a.5.5 0 1 0-.504-.864l-.667.39A.5.5 0 0 0 1.5 4.5v.778a.5.5 0 0 0 1 0v-.49l.419-.245Zm10.666-.864a.5.5 0 0 0-.504.864l.419.244v.49a.5.5 0 0 0 1 0V4.5a.5.5 0 0 0-.248-.432l-.667-.389ZM2.5 7.222a.5.5 0 0 0-1 0v1.556a.5.5 0 0 0 1 0V7.222Zm12 0a.5.5 0 0 0-1 0v1.556a.5.5 0 0 0 1 0V7.222Zm-12 3.5a.5.5 0 0 0-1 0v.778a.5.5 0 0 0 .248.432l.667.389a.5.5 0 0 0 .504-.864l-.419-.244v-.49Zm12 0a.5.5 0 0 0-1 0v.49l-.419.245a.5.5 0 0 0 .504.864l.667-.39a.5.5 0 0 0 .248-.431v-.778ZM4.585 12.43a.5.5 0 0 0-.504.864l1.334.778a.5.5 0 0 0 .504-.864l-1.334-.778Zm7.334.864a.5.5 0 0 0-.504-.864l-1.334.778a.5.5 0 1 0 .504.864l1.334-.778Zm-4.334.886a.5.5 0 0 0-.504.864l.667.389a.5.5 0 0 0 .504 0l.667-.389a.5.5 0 1 0-.504-.864L8 14.421l-.415-.242ZM6.5 5.5a.5.5 0 0 0-1 0v5a.5.5 0 0 0 1 0v-5Zm4 0a.5.5 0 0 0-1 0v5a.5.5 0 0 0 1 0v-5Z" clip-rule="evenodd"/></symbol>
  <symbol id="icon-large" fill="none" viewBox="0 0 24 24"><path fill="currentColor" fill-rule="evenodd" d="M12.26 1.073a.5.5 0 0 0-.52 0l-.9.55a.5.5 0 1 0 .52.854l.64-.391.64.39a.5.5 0 1 0 .52-.853l-.9-.55Zm3.6 2.2a.5.5 0 1 0-.52.854l1.8 1.1a.5.5 0 1 0 .52-.854l-1.8-1.1Zm-7.2.854a.5.5 0 0 0-.52-.854l-1.8 1.1a.5.5 0 0 0 .52.854l1.8-1.1Zm-4.5 2.75a.5.5 0 0 0-.52-.854l-.9.55A.5.5 0 0 0 2.5 7v1a.5.5 0 0 0 1 0v-.72l.66-.403Zm16.2-.854a.5.5 0 1 0-.52.854l.66.403V8a.5.5 0 0 0 1 0V7a.5.5 0 0 0-.24-.427l-.9-.55ZM3.5 11a.5.5 0 0 0-1 0v2a.5.5 0 0 0 1 0v-2Zm18 0a.5.5 0 0 0-1 0v2a.5.5 0 0 0 1 0v-2Zm-18 5a.5.5 0 0 0-1 0v1a.5.5 0 0 0 .24.427l.9.55a.5.5 0 1 0 .52-.854l-.66-.403V16Zm18 0a.5.5 0 0 0-1 0v.72l-.66.403a.5.5 0 1 0 .52.854l.9-.55A.5.5 0 0 0 21.5 17v-1ZM6.86 18.773a.5.5 0 1 0-.52.854l1.8 1.1a.5.5 0 1 0 .52-.854l-1.8-1.1Zm10.8.854a.5.5 0 1 0-.52-.854l-1.8 1.1a.5.5 0 1 0 .52.854l1.8-1.1Zm-6.3 1.896a.5.5 0 1 0-.52.854l.9.55a.5.5 0 0 0 .52 0l.9-.55a.5.5 0 1 0-.52-.854l-.64.391-.64-.39ZM10 8.5a.5.5 0 0 0-1 0v7a.5.5 0 0 0 1 0v-7Zm5 0a.5.5 0 0 0-1 0v7a.5.5 0 0 0 1 0v-7Z" clip-rule="evenodd"/></symbol>
  <use href="#icon"/>
</svg>
