<svg xmlns="http://www.w3.org/2000/svg">
  <symbol id="icon" fill="none" viewBox="0 0 16 16"><path fill="currentColor" fill-rule="evenodd" d="M7.585 1.82 8 1.58l5.252 3.064a.5.5 0 0 1 .248.431v5.852a.5.5 0 0 1-.248.432L8 14.42l-.415-.242a.5.5 0 0 0-.504.864l.667.389a.5.5 0 0 0 .512-.005l5.496-3.206a1.5 1.5 0 0 0 .744-1.295V5.074a1.5 1.5 0 0 0-.744-1.295L8.26.573a.5.5 0 0 0-.512-.005l-.667.39a.5.5 0 1 0 .504.863ZM6.1 2.11a.5.5 0 0 1-.18.683l-1.334.778a.5.5 0 0 1-.504-.864l1.334-.778a.5.5 0 0 1 .684.18Zm-3 1.75a.5.5 0 0 1-.18.683l-.419.244v.49a.5.5 0 0 1-1 0V4.5a.5.5 0 0 1 .248-.432l.667-.389a.5.5 0 0 1 .684.18ZM2 6.721a.5.5 0 0 1 .5.5v1.556a.5.5 0 0 1-1 0V7.222a.5.5 0 0 1 .5-.5Zm0 3.5a.5.5 0 0 1 .5.5v.49l.419.245a.5.5 0 1 1-.504.864l-.667-.389A.5.5 0 0 1 1.5 11.5v-.778a.5.5 0 0 1 .5-.5Zm1.901 2.387a.5.5 0 0 1 .684-.18l1.334.778a.5.5 0 1 1-.504.864l-1.334-.778a.5.5 0 0 1-.18-.684ZM8.5 4.5a.5.5 0 0 0-1 0V8a.5.5 0 0 0 .243.429l2.5 1.5a.5.5 0 1 0 .514-.858L8.5 7.717V4.5Z" clip-rule="evenodd"/></symbol>
  <symbol id="icon-large" fill="none" viewBox="0 0 24 24"><path fill="currentColor" fill-rule="evenodd" d="m11.36 2.477.64-.391 8.26 5.048a.5.5 0 0 1 .24.427v8.878a.5.5 0 0 1-.24.427L12 21.914l-.64-.39a.5.5 0 1 0-.52.853l.9.55a.5.5 0 0 0 .53-.006l8.512-5.202a1.5 1.5 0 0 0 .718-1.28V7.561a1.5 1.5 0 0 0-.718-1.28L12.27 1.079a.5.5 0 0 0-.53-.006l-.9.55a.5.5 0 1 0 .52.854Zm-2.533.962a.5.5 0 0 1-.166.688l-1.8 1.1a.5.5 0 1 1-.522-.854l1.8-1.1a.5.5 0 0 1 .688.166Zm-4.5 2.75a.5.5 0 0 1-.166.688L3.5 7.28V8a.5.5 0 0 1-1 0V7a.5.5 0 0 1 .24-.427l.9-.55a.5.5 0 0 1 .687.166ZM3 10.5a.5.5 0 0 1 .5.5v2a.5.5 0 0 1-1 0v-2a.5.5 0 0 1 .5-.5Zm0 5a.5.5 0 0 1 .5.5v.72l.66.403a.5.5 0 0 1-.52.854l-.9-.55A.5.5 0 0 1 2.5 17v-1a.5.5 0 0 1 .5-.5Zm3.173 3.44a.5.5 0 0 1 .688-.167l1.8 1.1a.5.5 0 0 1-.522.854l-1.8-1.1a.5.5 0 0 1-.166-.688ZM12.5 7.5a.5.5 0 0 0-1 0V12a.5.5 0 0 0 .223.416l3 2a.5.5 0 0 0 .554-.832L12.5 11.733V7.5Z" clip-rule="evenodd"/></symbol>
  <use href="#icon"/>
</svg>
