<svg xmlns="http://www.w3.org/2000/svg">
  <symbol id="icon" fill="none" viewBox="0 0 16 16"><path fill="currentColor" d="M7.25 1.855a1.5 1.5 0 0 1 1.5 0l4.196 2.423a1.5 1.5 0 0 1 .75 1.299v4.846a1.5 1.5 0 0 1-.75 1.298L8.75 14.144a1.5 1.5 0 0 1-1.5 0l-4.196-2.423a1.5 1.5 0 0 1-.75-1.298V5.577a1.5 1.5 0 0 1 .75-1.299L7.25 1.855Zm1 .866a.5.5 0 0 0-.5 0L3.554 5.144a.5.5 0 0 0-.25.433v4.846a.5.5 0 0 0 .25.432l4.196 2.423a.5.5 0 0 0 .5 0l4.196-2.423a.5.5 0 0 0 .25-.432V5.577a.5.5 0 0 0-.25-.433L8.25 2.721ZM9.85 5.7a.501.501 0 0 1 .8.6l-3 4a.502.502 0 0 1-.754.053l-1.5-1.5-.064-.078a.5.5 0 0 1 .693-.693l.079.064 1.091 1.092L9.85 5.7Z"/></symbol>
  <symbol id="icon-large" fill="none" viewBox="0 0 24 24"><path fill="currentColor" fill-rule="evenodd" d="M20.26 7.134a.5.5 0 0 1 .24.426v8.88a.5.5 0 0 1-.24.426l-8 4.889a.5.5 0 0 1-.52 0l-8-4.889a.5.5 0 0 1-.24-.427V7.56a.5.5 0 0 1 .24-.426l8-4.889a.5.5 0 0 1 .52 0l8 4.889Zm.522 10.585a1.5 1.5 0 0 0 .718-1.28V7.56a1.5 1.5 0 0 0-.718-1.279l-8-4.89a1.5 1.5 0 0 0-1.564 0l-8 4.89a1.5 1.5 0 0 0-.718 1.28v8.878a1.5 1.5 0 0 0 .718 1.28l8 4.89a1.5 1.5 0 0 0 1.564 0l8-4.89ZM15.82 9.116a.5.5 0 0 0-.704.064l-4.65 5.579-1.612-1.613a.5.5 0 0 0-.708.707l2 2a.5.5 0 0 0 .738-.033l5-6a.5.5 0 0 0-.064-.704Z" clip-rule="evenodd"/></symbol>
  <use href="#icon"/>
</svg>
