<svg xmlns="http://www.w3.org/2000/svg">
  <symbol id="icon" fill="none" viewBox="0 0 16 16"><path fill="currentColor" fill-rule="evenodd" d="M2 8a6 6 0 1 1 12 0A6 6 0 0 1 2 8Zm6-7a7 7 0 1 0 0 14A7 7 0 0 0 8 1ZM5.5 6a.5.5 0 0 1 .5-.5h4a.5.5 0 0 1 .5.5v4a.5.5 0 0 1-.5.5H6a.5.5 0 0 1-.5-.5V6ZM6 4.5A1.5 1.5 0 0 0 4.5 6v4A1.5 1.5 0 0 0 6 11.5h4a1.5 1.5 0 0 0 1.5-1.5V6A1.5 1.5 0 0 0 10 4.5H6Z" clip-rule="evenodd"/></symbol>
  <symbol id="icon-large" fill="none" viewBox="0 0 24 24"><path fill="currentColor" fill-rule="evenodd" d="M3 12a9 9 0 1 1 18 0 9 9 0 0 1-18 0Zm9-10C6.477 2 2 6.477 2 12s4.477 10 10 10 10-4.477 10-10S17.523 2 12 2ZM8 8.5a.5.5 0 0 1 .5-.5h7a.5.5 0 0 1 .5.5v7a.5.5 0 0 1-.5.5h-7a.5.5 0 0 1-.5-.5v-7ZM8.5 7A1.5 1.5 0 0 0 7 8.5v7A1.5 1.5 0 0 0 8.5 17h7a1.5 1.5 0 0 0 1.5-1.5v-7A1.5 1.5 0 0 0 15.5 7h-7Z" clip-rule="evenodd"/></symbol>
  <use href="#icon"/>
</svg>
