<svg xmlns="http://www.w3.org/2000/svg">
  <symbol id="icon" fill="none" viewBox="0 0 16 16"><path fill="currentColor" d="M9.5 1.5a.5.5 0 0 1 0 1h-1v1.023a5.5 5.5 0 1 1-1 0V2.5h-1a.5.5 0 0 1 0-1h3ZM8 4.5a4.5 4.5 0 1 0 0 9 4.5 4.5 0 0 0 0-9Zm1.646 2.146a.5.5 0 1 1 .707.708l-2 2a.5.5 0 1 1-.707-.708l2-2Z"/></symbol>
  <symbol id="icon-large" fill="none" viewBox="0 0 24 24"><path fill="currentColor" fill-rule="evenodd" d="M15 1.5a.5.5 0 0 0-.5-.5h-5a.5.5 0 0 0 0 1h2v1.013a9.5 9.5 0 1 0 10 9.487c0-5.079-3.986-9.227-9-9.487V2h2a.5.5 0 0 0 .5-.5ZM12 4a8.5 8.5 0 1 1 0 17 8.5 8.5 0 0 1 0-17Zm4.854 3.646a.5.5 0 0 0-.707 0l-4.5 4.5a.5.5 0 1 0 .707.707l4.5-4.5a.5.5 0 0 0 0-.707Z" clip-rule="evenodd"/></symbol>
  <use href="#icon"/>
</svg>
