<svg xmlns="http://www.w3.org/2000/svg">
  <symbol id="icon" fill="none" viewBox="0 0 16 16"><path fill="currentColor" fill-rule="evenodd" d="M2.5 3a.5.5 0 0 0-.5.5V5h12V3.5a.5.5 0 0 0-.5-.5h-11ZM14 6h-3v3h3V6Zm-4 0H6v3h4V6ZM5 6H2v3h3V6Zm-3 6.5V10h3v3H2.5a.5.5 0 0 1-.5-.5Zm4 .5v-3h4v3H6Zm5 0v-3h3v2.5a.5.5 0 0 1-.5.5H11ZM1 3.5A1.5 1.5 0 0 1 2.5 2h11A1.5 1.5 0 0 1 15 3.5v9a1.5 1.5 0 0 1-1.5 1.5h-11A1.5 1.5 0 0 1 1 12.5v-9Z" clip-rule="evenodd"/></symbol>
  <symbol id="icon-large" fill="none" viewBox="0 0 24 24"><path fill="currentColor" fill-rule="evenodd" d="M3.5 5a.5.5 0 0 0-.5.5V8h18V5.5a.5.5 0 0 0-.5-.5h-17ZM21 9h-5v4.5h5V9Zm-6 0H9v4.5h6V9ZM8 9H3v4.5h5V9Zm-6-.5v-3A1.5 1.5 0 0 1 3.5 4h17A1.5 1.5 0 0 1 22 5.5v13a1.5 1.5 0 0 1-1.5 1.5h-17A1.5 1.5 0 0 1 2 18.5v-10Zm14 6h5v4a.5.5 0 0 1-.5.5H16v-4.5Zm-7 0h6V19H9v-4.5ZM8 19v-4.5H3v4a.5.5 0 0 0 .5.5H8Z" clip-rule="evenodd"/></symbol>
  <use href="#icon"/>
</svg>
