<svg xmlns="http://www.w3.org/2000/svg">
  <symbol id="icon" fill="none" viewBox="0 0 16 16"><path fill="currentColor" fill-rule="evenodd" d="M8.414 1a1.5 1.5 0 0 0-1.06.44l-6 6a1.5 1.5 0 0 0 0 2.12l5.085 5.086a1.5 1.5 0 0 0 2.122 0l6-6A1.5 1.5 0 0 0 15 7.586V2.5A1.5 1.5 0 0 0 13.5 1H8.414Zm-.353 1.146A.5.5 0 0 1 8.414 2H13.5a.5.5 0 0 1 .5.5v5.086a.5.5 0 0 1-.147.353l-6 6a.5.5 0 0 1-.707 0L2.061 8.854a.5.5 0 0 1 0-.708l6-6ZM10.5 5a.5.5 0 1 1 1 0 .5.5 0 0 1-1 0Zm.5-1.5a1.5 1.5 0 1 0 0 3 1.5 1.5 0 0 0 0-3Z" clip-rule="evenodd"/></symbol>
  <symbol id="icon-large" fill="none" viewBox="0 0 24 24"><path fill="currentColor" fill-rule="evenodd" d="M12.414 2a1.5 1.5 0 0 0-1.06.44l-9 9a1.5 1.5 0 0 0 0 2.12l8.085 8.086a1.5 1.5 0 0 0 2.122 0l9-9a1.5 1.5 0 0 0 .439-1.06V3.5A1.5 1.5 0 0 0 20.5 2h-8.086Zm-.353 1.146A.5.5 0 0 1 12.414 3H20.5a.5.5 0 0 1 .5.5v8.086a.5.5 0 0 1-.146.353l-9 9a.5.5 0 0 1-.708 0l-8.085-8.085a.5.5 0 0 1 0-.708l9-9ZM16 7a1 1 0 1 1 2 0 1 1 0 0 1-2 0Zm1-2a2 2 0 1 0 0 4 2 2 0 0 0 0-4Z" clip-rule="evenodd"/></symbol>
  <use href="#icon"/>
</svg>
