<svg xmlns="http://www.w3.org/2000/svg">
  <symbol id="icon" fill="none" viewBox="0 0 16 16"><path fill="currentColor" fill-rule="evenodd" d="M7.646 2.06a.5.5 0 0 1 .708 0l5.585 5.586a.5.5 0 0 1 0 .707L8.354 13.94a.5.5 0 0 1-.708 0L2.061 8.353a.5.5 0 0 1 0-.707l5.585-5.585Zm1.415-.707a1.5 1.5 0 0 0-2.122 0L1.354 6.94a1.5 1.5 0 0 0 0 2.122l5.585 5.585a1.5 1.5 0 0 0 2.122 0l5.585-5.585a1.5 1.5 0 0 0 0-2.122L9.061 1.353ZM6.5 8a1.5 1.5 0 1 1 3 0 1.5 1.5 0 0 1-3 0ZM8 5.5a2.5 2.5 0 1 0 0 5 2.5 2.5 0 0 0 0-5Z" clip-rule="evenodd"/></symbol>
  <symbol id="icon-large" fill="none" viewBox="0 0 24 24"><path fill="currentColor" fill-rule="evenodd" d="M11.646 2.56a.5.5 0 0 1 .707 0l9.086 9.086a.5.5 0 0 1 0 .707l-9.085 9.086a.5.5 0 0 1-.708 0l-9.085-9.086a.5.5 0 0 1 0-.707l9.085-9.085Zm1.415-.707a1.5 1.5 0 0 0-2.122 0L1.854 10.94a1.5 1.5 0 0 0 0 2.121l9.085 9.086a1.5 1.5 0 0 0 2.122 0l9.085-9.086a1.5 1.5 0 0 0 0-2.12l-9.085-9.087ZM9 12a3 3 0 1 1 6 0 3 3 0 0 1-6 0Zm3-4a4 4 0 1 0 0 8 4 4 0 0 0 0-8Z" clip-rule="evenodd"/></symbol>
  <use href="#icon"/>
</svg>
