<svg xmlns="http://www.w3.org/2000/svg">
  <symbol id="icon" fill="none" viewBox="0 0 16 16"><path fill="currentColor" d="M13.5 2a.5.5 0 0 1 .5.5v2a.5.5 0 0 1-1 0V3H8.5v10h2a.5.5 0 0 1 0 1h-5a.5.5 0 0 1 0-1h2V3H3v1.5a.5.5 0 0 1-1 0v-2l.01-.1A.5.5 0 0 1 2.5 2h11Z"/></symbol>
  <symbol id="icon-large" fill="none" viewBox="0 0 24 24"><path fill="currentColor" fill-rule="evenodd" d="M19 4v1.5a.5.5 0 0 0 1 0v-2a.5.5 0 0 0-.5-.5h-15a.5.5 0 0 0-.49.4L4 3.5v2a.5.5 0 0 0 1 0V4h6.5v16h-3a.5.5 0 0 0 0 1h7a.5.5 0 0 0 0-1h-3V4H19Z" clip-rule="evenodd"/></symbol>
  <use href="#icon"/>
</svg>
