<svg xmlns="http://www.w3.org/2000/svg">
  <symbol id="icon" fill="none" viewBox="0 0 16 16"><path fill="currentColor" d="M8.853 11.147a.5.5 0 0 1 .002.707l-1.177 1.178a3.328 3.328 0 0 1-4.712-4.703l1.18-1.183a.5.5 0 0 1 .708.707l-1.18 1.182a2.33 2.33 0 0 0 3.298 3.29l1.174-1.178a.5.5 0 0 1 .707 0Zm-5.102-6.58a.5.5 0 0 1-.31.929l-.1-.021-1.5-.5-.092-.042a.501.501 0 0 1 .31-.93l.099.023 1.5.499.093.043Zm7.681 7.682.043.092.5 1.501.022.098a.5.5 0 0 1-.93.311l-.042-.093-.5-1.5-.021-.099a.5.5 0 0 1 .928-.31ZM4.933 1.75l.042.093.5 1.5.021.098a.5.5 0 0 1-.928.311l-.043-.093-.5-1.5-.021-.098a.5.5 0 0 1 .93-.31Zm9.318 9.318a.501.501 0 0 1-.31.93l-.1-.022-1.5-.5-.092-.043a.5.5 0 0 1 .31-.928l.1.021 1.5.5.092.042Zm-1.234-8.094a3.328 3.328 0 0 1 .01 4.697l-1.172 1.183-.078.065a.5.5 0 0 1-.632-.77l1.172-1.18a2.33 2.33 0 0 0-3.305-3.28L7.855 4.853l-.078.064a.5.5 0 0 1-.632-.77l1.157-1.165a3.328 3.328 0 0 1 4.591-.126l.124.117Z"/></symbol>
  <symbol id="icon-large" fill="none" viewBox="0 0 24 24"><path fill="currentColor" fill-rule="evenodd" d="M16.276 18.053a.5.5 0 0 1 .671.223l1 2a.5.5 0 0 1-.894.448l-1-2a.5.5 0 0 1 .223-.671Zm1.777-1.777a.5.5 0 0 1 .67-.223l2 1a.5.5 0 0 1-.447.894l-2-1a.5.5 0 0 1-.223-.67Zm-15-10a.5.5 0 0 1 .67-.223l2 1a.5.5 0 0 1-.447.894l-2-1a.5.5 0 0 1-.223-.67Zm3.223-3.223a.5.5 0 0 1 .671.223l1 2a.5.5 0 0 1-.894.448l-1-2a.5.5 0 0 1 .223-.671Zm-.13 7.094a.5.5 0 1 1 .708.707l-1.5 1.5a4.45 4.45 0 0 0 6.292 6.293l1.5-1.5a.5.5 0 1 1 .707.707l-1.5 1.5a5.45 5.45 0 1 1-7.707-7.707l1.5-1.5Zm13.207-5.5a5.45 5.45 0 0 0-7.707 0l-1.5 1.5a.5.5 0 1 0 .707.707l1.5-1.5a4.45 4.45 0 0 1 6.293 6.293l-1.5 1.5a.5.5 0 1 0 .707.707l1.5-1.5a5.45 5.45 0 0 0 0-7.707Z" clip-rule="evenodd"/></symbol>
  <use href="#icon"/>
</svg>
