<svg xmlns="http://www.w3.org/2000/svg">
  <symbol id="icon" fill="none" viewBox="0 0 16 16"><path fill="currentColor" d="M8 1.5a6.5 6.5 0 1 1 0 13 6.5 6.5 0 0 1 0-13Zm0 1a5.5 5.5 0 1 0 0 11 5.5 5.5 0 0 0 0-11Zm-.275 2.582a.5.5 0 0 1 .629.064l2 2 .064.079a.5.5 0 0 1-.693.693l-.079-.064L8.5 6.707V10.5a.5.5 0 0 1-1 0V6.707L6.354 7.854a.5.5 0 1 1-.708-.708l2-2 .079-.064Z"/></symbol>
  <symbol id="icon-large" fill="none" viewBox="0 0 24 24"><path fill="currentColor" fill-rule="evenodd" d="M21 12a9 9 0 1 0-18 0 9 9 0 0 0 18 0Zm1 0c0 5.523-4.477 10-10 10S2 17.523 2 12 6.477 2 12 2s10 4.477 10 10Zm-9.5-2.793 2.146 2.146a.5.5 0 1 0 .707-.707l-3-3a.5.5 0 0 0-.628-.064l-.079.064-3 3a.5.5 0 1 0 .708.707L11.5 9.207V16a.5.5 0 0 0 1 0V9.207Z" clip-rule="evenodd"/></symbol>
  <use href="#icon"/>
</svg>
