<svg xmlns="http://www.w3.org/2000/svg">
  <symbol id="icon" fill="none" viewBox="0 0 16 16"><path fill="currentColor" d="M8.001 9.5a6 6 0 0 1 5.589 3.82.472.472 0 0 1-.12.515c-.272.254-.707.102-.849-.242a4.998 4.998 0 0 0-9.243 0c-.142.344-.577.496-.849.241a.471.471 0 0 1-.118-.515A6 6 0 0 1 8.001 9.5ZM8 1.5a3.5 3.5 0 1 1 0 7 3.5 3.5 0 0 1 0-7Zm0 1a2.5 2.5 0 1 0 0 5 2.5 2.5 0 0 0 0-5Z"/></symbol>
  <symbol id="icon-large" fill="none" viewBox="0 0 24 24"><path fill="currentColor" fill-rule="evenodd" d="M12 4a3 3 0 1 1 0 6 3 3 0 0 1 0-6Zm0 7a4 4 0 1 0 0-8 4 4 0 0 0 0 8Zm8.263 8.297C19.421 15.168 16.54 12 12 12s-7.42 3.168-8.262 7.297C3.549 20.222 4.292 21 5.17 21h13.657c.88 0 1.624-.778 1.435-1.703Zm-15.546.2C5.49 15.712 8.048 13 12 13c3.952 0 6.51 2.713 7.282 6.496.05.242-.14.504-.454.504H5.171c-.312 0-.503-.262-.454-.504Z" clip-rule="evenodd"/></symbol>
  <use href="#icon"/>
</svg>
