<svg xmlns="http://www.w3.org/2000/svg">
  <symbol id="icon" fill="none" viewBox="0 0 16 16"><path fill="currentColor" d="M4.5 8A3.5 3.5 0 0 1 8 11.5v2a.5.5 0 0 1-1 0v-2a2.5 2.5 0 0 0-5 0v2a.5.5 0 0 1-1 0v-2A3.5 3.5 0 0 1 4.5 8Zm7 0a3.5 3.5 0 0 1 3.5 3.5v2a.5.5 0 0 1-1 0v-2a2.5 2.5 0 0 0-5 0c0-.686-.154-1.335-.428-1.917A3.497 3.497 0 0 1 11.5 8Zm-7-6a2.5 2.5 0 1 1 0 5 2.5 2.5 0 0 1 0-5Zm7 0a2.5 2.5 0 1 1 0 5 2.5 2.5 0 0 1 0-5Zm-7 1a1.5 1.5 0 1 0 0 3 1.5 1.5 0 0 0 0-3Zm7 0a1.5 1.5 0 1 0 0 3 1.5 1.5 0 0 0 0-3Z"/></symbol>
  <symbol id="icon-large" fill="none" viewBox="0 0 24 24"><path fill="currentColor" fill-rule="evenodd" d="M8 4a3 3 0 1 1 0 6 3 3 0 0 1 0-6ZM4 7a4 4 0 1 0 8 0 4 4 0 0 0-8 0Zm12.5-2a2.5 2.5 0 1 1 0 5 2.5 2.5 0 0 1 0-5ZM13 7.5a3.5 3.5 0 1 0 7 0 3.5 3.5 0 0 0-7 0Zm9.943 10.947C22.543 14.764 20.014 12 16.5 12c-.771 0-1.502.134-2.176.388l.352.936c.56-.21 1.17-.324 1.824-.324 2.89 0 5.09 2.258 5.45 5.556.023.216-.157.444-.45.444H17v1h4.5c.812 0 1.54-.671 1.443-1.553ZM8 12c4.045 0 6.599 3.288 6.956 7.458.075.87-.64 1.542-1.456 1.542h-11c-.816 0-1.53-.672-1.456-1.542C1.4 15.288 3.954 12 8 12Zm0 1c-3.352 0-5.63 2.697-5.96 6.543-.02.23.171.457.46.457h11c.289 0 .48-.227.46-.457C13.63 15.697 11.352 13 8 13Z" clip-rule="evenodd"/></symbol>
  <use href="#icon"/>
</svg>
