<svg xmlns="http://www.w3.org/2000/svg">
  <symbol id="icon" fill="none" viewBox="0 0 16 16"><path fill="currentColor" d="M12.5 10a.5.5 0 0 1 .5.5V12h1.5a.5.5 0 0 1 0 1H13v1.5a.5.5 0 0 1-1 0V13h-1.5a.5.5 0 0 1 0-1H12v-1.5a.5.5 0 0 1 .5-.5ZM8 9.5c.701 0 1.374.12 2 .342v1.078a4.978 4.978 0 0 0-2-.42 5 5 0 0 0-4.622 3.093c-.142.344-.577.496-.849.241a.472.472 0 0 1-.118-.515A6 6 0 0 1 8 9.5Zm0-8a3.5 3.5 0 1 1 0 7 3.5 3.5 0 0 1 0-7Zm0 1a2.5 2.5 0 1 0 0 5 2.5 2.5 0 0 0 0-5Z"/></symbol>
  <symbol id="icon-large" fill="none" viewBox="0 0 24 24"><path fill="currentColor" fill-rule="evenodd" d="M12 4a3 3 0 1 1 0 6 3 3 0 0 1 0-6ZM8 7a4 4 0 1 0 8 0 4 4 0 0 0-8 0Zm4 5c1.946 0 3.607.586 4.933 1.604l-.608.793C15.18 13.518 13.735 13 12 13c-3.952 0-6.511 2.713-7.283 6.496-.05.242.142.504.454.504h8.33v1H5.17c-.879 0-1.622-.778-1.433-1.703C4.58 15.168 7.46 12 12 12Zm6.5 10v-2.5H16a.5.5 0 0 1 0-1h2.5V16a.5.5 0 0 1 1 0v2.5H22a.5.5 0 1 1 0 1h-2.5V22a.5.5 0 1 1-1 0Z" clip-rule="evenodd"/></symbol>
  <use href="#icon"/>
</svg>
