<svg xmlns="http://www.w3.org/2000/svg">
  <symbol id="icon" fill="none" viewBox="0 0 16 16"><path fill="currentColor" d="M12 9a3 3 0 1 1 0 6 3 3 0 0 1 0-6Zm0 1a2 2 0 1 0 0 4 2 2 0 0 0 0-4Zm-4-.5c.283 0 .56.02.833.058a3.974 3.974 0 0 0-.545.953 4.53 4.53 0 0 0-.287-.011 5.001 5.001 0 0 0-4.623 3.093c-.143.344-.577.496-.849.241a.471.471 0 0 1-.118-.515A6 6 0 0 1 8 9.5Zm4 1a.5.5 0 0 1 .5.5v.793l.353.354.065.078a.5.5 0 0 1-.694.693l-.078-.064-.5-.5A.5.5 0 0 1 11.5 12v-1a.5.5 0 0 1 .5-.5Zm-4-9a3.5 3.5 0 1 1 0 7 3.5 3.5 0 0 1 0-7Zm0 1a2.5 2.5 0 1 0 0 5 2.5 2.5 0 0 0 0-5Z"/></symbol>
  <symbol id="icon-large" fill="none" viewBox="0 0 24 24"><path fill="currentColor" fill-rule="evenodd" d="M12 4a3 3 0 1 1 0 6 3 3 0 0 1 0-6ZM8 7a4 4 0 1 0 8 0 4 4 0 0 0-8 0Zm4 5c1.627 0 3.057.41 4.26 1.142l-.52.854C14.701 13.364 13.454 13 12 13c-3.952 0-6.511 2.713-7.283 6.496-.05.242.142.504.454.504h7.83v1H5.17c-.879 0-1.622-.778-1.433-1.703C4.58 15.168 7.46 12 12 12Zm7 4a3 3 0 1 1 0 6 3 3 0 0 1 0-6Zm-4 3a4 4 0 1 0 8 0 4 4 0 0 0-8 0Zm4-2a.5.5 0 0 0-.5.5V19a.5.5 0 0 0 .146.354l1 1a.5.5 0 1 0 .707-.707l-.853-.854V17.5a.5.5 0 0 0-.5-.5Z" clip-rule="evenodd"/></symbol>
  <use href="#icon"/>
</svg>
