<svg xmlns="http://www.w3.org/2000/svg">
  <symbol id="icon" fill="none" viewBox="0 0 16 16"><path fill="currentColor" fill-rule="evenodd" d="M13.325 7.546C12.969 6.66 11.589 4 7.957 4 4.325 4 2.945 6.66 2.588 7.546a1.21 1.21 0 0 0 0 .908C2.945 9.34 4.325 12 7.957 12c3.631 0 5.012-2.66 5.368-3.546a1.211 1.211 0 0 0 0-.908Zm-9.809.374C3.818 7.17 4.944 5 7.956 5c3.013 0 4.139 2.17 4.441 2.92a.209.209 0 0 1 0 .16c-.302.75-1.428 2.92-4.44 2.92-3.013 0-4.139-2.17-4.44-2.92a.209.209 0 0 1 0-.16ZM7.956 7a1 1 0 1 0 0 2 1 1 0 0 0 0-2Z" clip-rule="evenodd"/></symbol>
  <symbol id="icon-large" fill="none" viewBox="0 0 24 24"><path fill="currentColor" d="M12 4.5c6.96 0 9.41 5.744 9.881 7.063l.034.107c.057.217.057.442 0 .659l-.034.107c-.47 1.318-2.92 7.064-9.881 7.064-6.526 0-9.087-5.05-9.77-6.767l-.112-.297a1.289 1.289 0 0 1 0-.873l.112-.297C2.913 9.548 5.475 4.5 12 4.5Zm0 1c-6.272 0-8.495 5.151-8.94 6.4a.289.289 0 0 0 0 .2c.445 1.248 2.667 6.4 8.94 6.4 6.272 0 8.494-5.152 8.94-6.4l.014-.05a.282.282 0 0 0 0-.1l-.014-.05c-.446-1.25-2.669-6.4-8.94-6.4ZM12 9a3 3 0 1 1-.001 6 3 3 0 0 1 0-6Zm0 1a2 2 0 1 0 0 4 2 2 0 0 0 0-4Z"/></symbol>
  <use href="#icon"/>
</svg>
