<svg xmlns="http://www.w3.org/2000/svg">
  <symbol id="icon" fill="none" viewBox="0 0 16 16"><path fill="currentColor" d="M8 3a.5.5 0 0 1 .5.5v9a.5.5 0 0 1-1 0v-9A.5.5 0 0 1 8 3ZM6.5 5.192c-1.789.505-2.608 1.88-2.918 2.57l-.066.158a.209.209 0 0 0 0 .16l.066.157c.31.692 1.13 2.065 2.918 2.57v1.035C4.13 11.3 3.054 9.502 2.667 8.64l-.079-.186a1.211 1.211 0 0 1 0-.908l.08-.186c.385-.862 1.46-2.66 3.832-3.203v1.035Zm3-1.014c2.495.61 3.524 2.62 3.824 3.368l.04.111c.066.225.066.461 0 .686l-.04.111c-.3.747-1.329 2.757-3.824 3.367v-1.04c1.873-.568 2.653-2.095 2.897-2.7l.011-.041a.204.204 0 0 0 0-.08l-.011-.04c-.244-.606-1.023-2.134-2.897-2.702v-1.04Z"/></symbol>
  <symbol id="icon-large" fill="none" viewBox="0 0 24 24"><path fill="currentColor" d="M12 2a.5.5 0 0 1 .5.5v19a.5.5 0 0 1-1 0v-19A.5.5 0 0 1 12 2Zm1.5 2.595c5.82.748 7.947 5.75 8.382 6.968l.033.108c.057.217.057.441 0 .658l-.033.107c-.435 1.219-2.563 6.221-8.382 6.97v-1.013c5.134-.737 7.032-5.15 7.44-6.293l.014-.05a.282.282 0 0 0 0-.1l-.014-.05c-.408-1.143-2.306-5.557-7.44-6.294V4.595Zm-3 1.011c-5.134.736-7.032 5.151-7.44 6.294a.287.287 0 0 0 0 .2c.408 1.143 2.306 5.557 7.44 6.293v1.01c-5.425-.698-7.642-5.09-8.27-6.67l-.112-.296a1.288 1.288 0 0 1 0-.873l.113-.297c.627-1.58 2.844-5.973 8.27-6.67v1.01Zm0 5.074a1.99 1.99 0 0 0 0 2.64v1.275a2.995 2.995 0 0 1 0-5.19v1.275Zm3-1.276a2.997 2.997 0 0 1 0 5.19V13.32a1.99 1.99 0 0 0 0-2.64V9.405Z"/></symbol>
  <use href="#icon"/>
</svg>
