<svg xmlns="http://www.w3.org/2000/svg">
  <symbol id="icon" fill="none" viewBox="0 0 16 16"><path fill="currentColor" fill-rule="evenodd" d="M8 3.25a1.25 1.25 0 1 1 2.5 0 1.25 1.25 0 0 1-2.5 0ZM9.25 1a2.25 2.25 0 1 0 0 4.5 2.25 2.25 0 0 0 0-4.5ZM3 8.002l-.252-.432a.5.5 0 0 0 .504.864l.006-.003.021-.013.087-.048a14.712 14.712 0 0 1 1.504-.71c.667-.268 1.43-.513 2.16-.617L4.038 14.31a.5.5 0 1 0 .924.38l1.925-4.675 2.152 1.291.466 3.265a.5.5 0 0 0 .99-.142l-.5-3.5a.5.5 0 0 0-.238-.358l-2.485-1.49.851-2.067c.734.098 1.191.518 1.789 1.068l.098.09C10.694 8.8 11.527 9.5 13 9.5a.5.5 0 1 0 0-1c-1.081 0-1.673-.477-2.314-1.065l-.133-.123c-.606-.561-1.329-1.231-2.52-1.31-1.205-.081-2.541.33-3.536.73a15.713 15.713 0 0 0-1.711.817l-.027.015-.008.004-.002.001.251.433Z" clip-rule="evenodd"/></symbol>
  <symbol id="icon-large" fill="none" viewBox="0 0 24 24"><path fill="currentColor" fill-rule="evenodd" d="M12 5a2 2 0 1 1 4 0 2 2 0 0 1-4 0Zm2-3a3 3 0 1 0 0 6 3 3 0 0 0 0-6ZM4.5 12l-.345-.362a.5.5 0 0 0 .69.724l.007-.006.025-.024.105-.095a14.721 14.721 0 0 1 1.853-1.385c1.208-.759 2.721-1.438 4.135-1.353.125.008.27.04.434.102L6.045 21.29a.5.5 0 1 0 .91.417l3.325-7.256L14 16.777V21.5a.5.5 0 0 0 1 0v-5a.5.5 0 0 0-.235-.424l-4-2.5a.511.511 0 0 0-.067-.035l1.588-3.466c.21.14.427.3.65.472.371.288.745.604 1.115.917l.042.035c.379.32.757.638 1.107.901a8.214 8.214 0 0 0 2.929 1.398c.4.1.735.15.974.176a4.944 4.944 0 0 0 .362.025h.023l.008.001h.003l.001-.5v.5a.5.5 0 0 0 0-1h-.01l-.055-.002a3.997 3.997 0 0 1-.226-.019 6.212 6.212 0 0 1-.838-.152A7.211 7.211 0 0 1 15.8 11.6a24.822 24.822 0 0 1-1.062-.865l-.047-.04c-.366-.309-.754-.637-1.143-.939a9.46 9.46 0 0 0-1.237-.835c-.407-.222-.845-.394-1.28-.42-1.736-.105-3.473.716-4.728 1.504a15.747 15.747 0 0 0-1.985 1.484 8.386 8.386 0 0 0-.118.107l-.032.03-.009.008-.002.003h-.001L4.5 12Z" clip-rule="evenodd"/></symbol>
  <use href="#icon"/>
</svg>
