<svg xmlns="http://www.w3.org/2000/svg">
  <symbol id="icon" fill="none" viewBox="0 0 16 16"><path fill="currentColor" d="M8 12a1 1 0 1 1 0 2 1 1 0 0 1 0-2Zm0-3a4.98 4.98 0 0 1 2.473.653l.305.189.078.065a.5.5 0 0 1-.545.814l-.09-.048-.244-.15A3.979 3.979 0 0 0 8 10a3.98 3.98 0 0 0-2.222.673l-.09.048a.5.5 0 0 1-.466-.88l.305-.188A4.98 4.98 0 0 1 8 9Zm0-3.5c1.64 0 3.178.44 4.503 1.206l.261.157.08.063a.5.5 0 0 1-.519.83l-.09-.044-.233-.14A7.962 7.962 0 0 0 8 6.5a7.963 7.963 0 0 0-4.236 1.212.5.5 0 0 1-.529-.849A8.961 8.961 0 0 1 8 5.5ZM8 2c2.32 0 4.5.609 6.386 1.675l.374.219.08.061a.5.5 0 0 1-.51.836l-.09-.043-.346-.203A11.943 11.943 0 0 0 8 3c-2.286 0-4.422.64-6.24 1.748a.5.5 0 0 1-.52-.854A12.944 12.944 0 0 1 8 2Z"/></symbol>
  <symbol id="icon-large" fill="none" viewBox="0 0 24 24"><path fill="currentColor" fill-rule="evenodd" d="M22.091 7.901A14.948 14.948 0 0 0 12.001 4 14.949 14.949 0 0 0 1.907 7.901a.501.501 0 0 0 .674.74A13.947 13.947 0 0 1 12 5c3.627 0 6.931 1.379 9.418 3.642a.5.5 0 0 0 .673-.74ZM12 8.5c2.72 0 5.199 1.034 7.063 2.73a.5.5 0 0 1-.673.74A9.465 9.465 0 0 0 12 9.5a9.463 9.463 0 0 0-6.39 2.47.5.5 0 0 1-.674-.74A10.464 10.464 0 0 1 12 8.5Zm4.036 6.06A5.98 5.98 0 0 0 12 13a5.98 5.98 0 0 0-4.035 1.56.5.5 0 0 0 .672.74A4.98 4.98 0 0 1 12 14a4.98 4.98 0 0 1 3.363 1.3.5.5 0 1 0 .673-.74ZM12 20a1 1 0 1 0 0-2 1 1 0 0 0 0 2Z" clip-rule="evenodd"/></symbol>
  <use href="#icon"/>
</svg>
