<svg xmlns="http://www.w3.org/2000/svg">
  <symbol id="icon" fill="none" viewBox="0 0 16 16"><path fill="currentColor" d="M6.5 9a.5.5 0 0 1 .5.5v3a.5.5 0 0 1-1 0v-1.793l-3.147 3.147a.5.5 0 0 1-.707-.707l3.147-3.146H3.5a.5.5 0 0 1 0-1h3Zm6.646-6.853a.5.5 0 0 1 .707.707L10.707 6H12.5a.5.5 0 1 1 0 1h-3a.5.5 0 0 1-.5-.5v-3a.5.5 0 0 1 1 0v1.793l3.146-3.146Z"/></symbol>
  <symbol id="icon-large" fill="none" viewBox="0 0 24 24"><path fill="currentColor" fill-rule="evenodd" d="M20.854 3.146a.5.5 0 0 0-.707 0L14 9.293V5.5a.5.5 0 0 0-1 0v5a.5.5 0 0 0 .5.5h5a.5.5 0 0 0 0-1h-3.793l6.146-6.146a.5.5 0 0 0 0-.708ZM10 14.707V18.5a.5.5 0 0 0 1 0v-5a.5.5 0 0 0-.5-.5h-5a.5.5 0 0 0 0 1h3.793l-6.147 6.146a.5.5 0 1 0 .708.707L10 14.707Z" clip-rule="evenodd"/></symbol>
  <use href="#icon"/>
</svg>
