<svg xmlns="http://www.w3.org/2000/svg">
  <symbol id="icon" fill="none" viewBox="0 0 16 16"><path fill="currentColor" fill-rule="evenodd" d="M2 3.5a.5.5 0 0 1 .5-.5h11a.5.5 0 0 1 .5.5V6H2V3.5ZM14 9V7H2v5.5a.5.5 0 0 0 .5.5H8v1H2.5A1.5 1.5 0 0 1 1 12.5v-9A1.5 1.5 0 0 1 2.5 2h11A1.5 1.5 0 0 1 15 3.5V9h-1Zm-1.5 1a.5.5 0 0 1 .5.5v2h2a.5.5 0 0 1 0 1h-2v2a.5.5 0 0 1-1 0v-2h-2a.5.5 0 0 1 0-1h2v-2a.5.5 0 0 1 .5-.5Zm-2-6a.5.5 0 0 0 0 1h2a.5.5 0 0 0 0-1h-2Z" clip-rule="evenodd"/></symbol>
  <symbol id="icon-large" fill="none" viewBox="0 0 24 24"><path fill="currentColor" fill-rule="evenodd" d="M3 5.5a.5.5 0 0 1 .5-.5h17a.5.5 0 0 1 .5.5V8H3V5.5ZM21 14V9H3v9.5a.5.5 0 0 0 .5.5h10v1h-10A1.5 1.5 0 0 1 2 18.5v-13A1.5 1.5 0 0 1 3.5 4h17A1.5 1.5 0 0 1 22 5.5V14h-1Zm-2 1.5a.5.5 0 0 1 .5.5v2.5H22a.5.5 0 0 1 0 1h-2.5V22a.5.5 0 0 1-1 0v-2.5H16a.5.5 0 0 1 0-1h2.5V16a.5.5 0 0 1 .5-.5ZM17.5 6a.5.5 0 0 0 0 1h2a.5.5 0 0 0 0-1h-2Z" clip-rule="evenodd"/></symbol>
  <use href="#icon"/>
</svg>
