<svg xmlns="http://www.w3.org/2000/svg">
  <symbol id="icon" fill="none" viewBox="0 0 16 16"><path fill="currentColor" fill-rule="evenodd" d="M10.5 1.5A.5.5 0 0 1 11 1h3.5a.5.5 0 0 1 .5.5V5a.5.5 0 0 1-1 0V2.707l-3.646 3.647a.5.5 0 0 1-.708-.708L13.293 2H11a.5.5 0 0 1-.5-.5Zm-4.146 8.854a.5.5 0 0 0-.708-.708L2 13.293V11a.5.5 0 0 0-1 0v3.5a.5.5 0 0 0 .5.5H5a.5.5 0 0 0 0-1H2.707l3.647-3.646Zm8.146.146a.5.5 0 0 1 .5.5v3.5a.5.5 0 0 1-.5.5H11a.5.5 0 0 1 0-1h2.293l-3.647-3.646a.5.5 0 0 1 .708-.708L14 13.293V11a.5.5 0 0 1 .5-.5ZM1 1.5a.5.5 0 0 1 .5-.5H5a.5.5 0 0 1 0 1H2.707l3.647 3.646a.5.5 0 1 1-.708.708L2 2.707V5a.5.5 0 0 1-1 0V1.5Z" clip-rule="evenodd"/></symbol>
  <symbol id="icon-large" fill="none" viewBox="0 0 24 24"><path fill="currentColor" fill-rule="evenodd" d="M16.5 3a.5.5 0 0 0 0 1h2.793l-4.647 4.646a.5.5 0 0 0 .708.708L20 4.707V7.5a.5.5 0 0 0 1 0v-4a.5.5 0 0 0-.5-.5h-4ZM9.354 15.354a.5.5 0 0 0-.708-.708L4 19.293V16.5a.5.5 0 0 0-1 0v4a.5.5 0 0 0 .5.5h4a.5.5 0 0 0 0-1H4.707l4.647-4.646ZM20.5 16a.5.5 0 0 1 .5.5v4a.5.5 0 0 1-.5.5h-4a.5.5 0 0 1 0-1h2.793l-4.647-4.646a.5.5 0 0 1 .708-.708L20 19.293V16.5a.5.5 0 0 1 .5-.5ZM7.5 4H4.707l4.647 4.646a.5.5 0 1 1-.708.708L4 4.707V7.5a.5.5 0 0 1-1 0v-4a.5.5 0 0 1 .5-.5h4a.5.5 0 0 1 0 1Z" clip-rule="evenodd"/></symbol>
  <use href="#icon"/>
</svg>
