<svg xmlns="http://www.w3.org/2000/svg">
  <symbol id="icon" fill="none" viewBox="0 0 16 16"><path fill="currentColor" fill-rule="evenodd" d="M2.5 2a.5.5 0 0 0-.5.5v11a.5.5 0 0 0 .5.5h11a.5.5 0 0 0 .5-.5V8h1v5.5a1.5 1.5 0 0 1-1.5 1.5h-11A1.5 1.5 0 0 1 1 13.5v-11A1.5 1.5 0 0 1 2.5 1H8v1H2.5Zm11.5.707-6.029 6.03a.5.5 0 1 1-.707-.708L13.294 2H10.5a.5.5 0 0 1 0-1h4a.5.5 0 0 1 .5.5v4a.5.5 0 0 1-1 0V2.707Z" clip-rule="evenodd"/></symbol>
  <symbol id="icon-large" fill="none" viewBox="0 0 24 24"><path fill="currentColor" fill-rule="evenodd" d="M4.5 4a.5.5 0 0 0-.5.5v15a.5.5 0 0 0 .5.5h15a.5.5 0 0 0 .5-.5V12h1v7.5a1.5 1.5 0 0 1-1.5 1.5h-15A1.5 1.5 0 0 1 3 19.5v-15A1.5 1.5 0 0 1 4.5 3H12v1H4.5Zm15.5.707V9.5a.5.5 0 0 0 1 0v-6a.5.5 0 0 0-.5-.5h-6a.5.5 0 0 0 0 1h4.793l-8.147 8.146a.5.5 0 0 0 .708.708L20 4.707Z" clip-rule="evenodd"/></symbol>
  <use href="#icon"/>
</svg>
