<svg xmlns="http://www.w3.org/2000/svg">
  <symbol id="icon" fill="none" viewBox="0 0 16 16"><path fill="currentColor" d="M6 9H3.75a.75.75 0 0 0 0 1.5h7.5a1.75 1.75 0 0 1 0 3.5H7.5a.5.5 0 0 1 0-1h3.75a.75.75 0 0 0 0-1.5h-7.5a1.75 1.75 0 0 1 0-3.5H6v1Zm5.175-6.882a1.167 1.167 0 0 1 1.65 0l1.057 1.057a1.167 1.167 0 0 1 0 1.65L9.854 8.853A.5.5 0 0 1 9.5 9h-2a.5.5 0 0 1-.5-.5v-2a.5.5 0 0 1 .147-.354l4.028-4.028ZM8 6.707V8h1.293l2.5-2.5L10.5 4.207 8 6.707Zm4.118-3.882a.167.167 0 0 0-.236 0l-.675.675L12.5 4.793l.675-.675a.168.168 0 0 0 0-.236l-1.057-1.057Z"/></symbol>
  <symbol id="icon-large" fill="none" viewBox="0 0 24 24"><path fill="currentColor" fill-rule="evenodd" d="M17.44 2.853a1.5 1.5 0 0 1 2.12 0l1.587 1.586a1.5 1.5 0 0 1 0 2.122l-1.293 1.292-5 5A.5.5 0 0 1 14.5 13h-3a.5.5 0 0 1-.5-.5v-3a.5.5 0 0 1 .146-.354l5-4.999.001-.001 1.293-1.293Zm-.94 2.354-4.5 4.5V12h2.293l4.5-4.5L16.5 5.207Zm3 1.586L17.207 4.5l.94-.94a.5.5 0 0 1 .707 0l1.585 1.586a.5.5 0 0 1 0 .707l-.939.94ZM18 18.5a1.5 1.5 0 0 0-1.5-1.5h-11a2.5 2.5 0 0 1 0-5H9v1H5.5a1.5 1.5 0 1 0 0 3h11a2.5 2.5 0 0 1 0 5h-5a.5.5 0 0 1 0-1h5a1.5 1.5 0 0 0 1.5-1.5Z" clip-rule="evenodd"/></symbol>
  <use href="#icon"/>
</svg>
