<svg xmlns="http://www.w3.org/2000/svg">
  <symbol id="icon" fill="none" viewBox="0 0 16 16"><path fill="currentColor" d="M4 11a.5.5 0 0 1 .416.223l.896 1.345a1.578 1.578 0 1 1-2.625 0l.897-1.345.038-.05A.5.5 0 0 1 4 11Zm-.481 2.122a.578.578 0 1 0 .961 0l-.48-.72-.481.72ZM9.646 2.147a1.914 1.914 0 0 1 2.707 2.707l-.17.17a1.757 1.757 0 0 1-.219 2.218l-.444.445a.737.737 0 0 1-1.041 0l-.48-.48-3.15 3.147a.501.501 0 0 1-.353.146h-2a.5.5 0 0 1-.5-.5V8.004a.5.5 0 0 1 .146-.353l3.15-3.15-.479-.48a.737.737 0 0 1 0-1.041l.444-.445a1.758 1.758 0 0 1 2.218-.218l.171-.17ZM4.996 8.21V9.5h1.293L9.29 6.498 8 5.207 4.996 8.211Zm6.65-5.357a.915.915 0 0 0-1.293 0l-.389.388a.658.658 0 0 1-.93 0 .757.757 0 0 0-1.07 0l-.257.258 3.292 3.293.258-.258a.757.757 0 0 0 0-1.07.658.658 0 0 1 0-.93l.389-.388a.914.914 0 0 0 0-1.293Z"/></symbol>
  <symbol id="icon-large" fill="none" viewBox="0 0 24 24"><path fill="currentColor" fill-rule="evenodd" d="M20.354 1.768a2.621 2.621 0 0 0-3.707 0l-1.671 1.67a1.757 1.757 0 0 0-2.218.218l-.889.89a.815.815 0 0 0 0 1.151l.42.421-5.975 5.873a1.78 1.78 0 0 0-.39 1.968l-.447.675a1.363 1.363 0 0 0 1.888 1.89l.674-.45a1.8 1.8 0 0 0 1.975-.369l5.983-5.88.427.427a.815.815 0 0 0 1.152 0l.889-.888a1.757 1.757 0 0 0 .218-2.22l1.67-1.67a2.621 2.621 0 0 0 0-3.706Zm-5.064 7.35-2.293-2.293-5.981 5.878a.782.782 0 0 0-.152.908.82.82 0 0 1-.051.82l-.504.758a.363.363 0 0 0 .502.503l.754-.503.096-.055a.825.825 0 0 1 .63-.039l.102.042.117.048a.803.803 0 0 0 .803-.193l5.977-5.874Zm2.064-6.643a1.621 1.621 0 0 1 2.293 2.293l-1.89 1.888a.658.658 0 0 0 0 .93.757.757 0 0 1 0 1.07L17 9.414l-4.293-4.293.758-.757a.757.757 0 0 1 1.07 0 .657.657 0 0 0 .93 0l1.889-1.89ZM6 18a.5.5 0 0 1 .416.223l1.345 2.016a2.117 2.117 0 1 1-3.522 0l1.345-2.016.038-.05A.5.5 0 0 1 6 18Zm-.929 2.794a1.117 1.117 0 1 0 1.858 0L6 19.4l-.929 1.394Z" clip-rule="evenodd"/></symbol>
  <use href="#icon"/>
</svg>
