<svg xmlns="http://www.w3.org/2000/svg">
  <symbol id="icon" fill="none" viewBox="0 0 16 16"><path fill="currentColor" d="M8 1.5a4.5 4.5 0 0 1 3 7.852V11.5A1.5 1.5 0 0 1 9.5 13v.5a.5.5 0 0 1-.5.5H7a.5.5 0 0 1-.5-.5V13A1.5 1.5 0 0 1 5 11.5V9.352A4.5 4.5 0 0 1 8 1.5ZM6 9.965V11.5a.5.5 0 0 0 .5.5h3a.5.5 0 0 0 .5-.5V9.965H6ZM8 2.5a3.5 3.5 0 0 0-1.858 6.465h3.716A3.5 3.5 0 0 0 8 2.5Z"/></symbol>
  <symbol id="icon-large" fill="none" viewBox="0 0 24 24"><path fill="currentColor" fill-rule="evenodd" d="M12 3c3.912 0 7 2.678 7 6.5 0 2.647-1.473 4.499-3.733 5.693a.5.5 0 0 0-.267.442v.865a.5.5 0 0 1-.5.5h-2v-5.016a10.31 10.31 0 0 0 1.085-.13.501.501 0 0 0-.17-.986c-.44.075-.93.132-1.415.132-.484 0-.976-.057-1.415-.132a.5.5 0 0 0-.17.986c.333.057.703.106 1.085.13V17h-2a.5.5 0 0 1-.5-.5v-.865a.5.5 0 0 0-.267-.442C6.473 14 5 12.147 5 9.5 5 5.678 8.087 3 12 3Zm0 15H9.5A1.5 1.5 0 0 1 8 16.5v-.573c-2.355-1.33-4-3.43-4-6.427C4 5.037 7.628 2 12 2s8 3.037 8 7.5c0 2.997-1.645 5.096-4 6.427v.573a1.5 1.5 0 0 1-1.5 1.5H12Zm3.019.75a.5.5 0 0 1 .16.967l-.097.026h-.003l-.003.001h-.005l-.008.002-.022.004A19.749 19.749 0 0 1 12 20a19.63 19.63 0 0 1-2.118-.128 22.795 22.795 0 0 1-.892-.117l-.036-.006-.017-.003-.013-.002h-.006l-.098-.027a.5.5 0 0 1 .262-.96h.003l.012.002.012.002.036.006.183.027c.16.023.39.053.665.084A18.72 18.72 0 0 0 12 19c.725 0 1.454-.06 2.007-.122a21.559 21.559 0 0 0 .848-.111l.036-.006.012-.002.012-.002h.003l.1-.007Zm-1.124 2.025a.5.5 0 0 1 .21.977A10.21 10.21 0 0 1 12 22a10.22 10.22 0 0 1-2.105-.248.5.5 0 0 1 .21-.977A9.22 9.22 0 0 0 12 21a9.22 9.22 0 0 0 1.895-.225Z" clip-rule="evenodd"/></symbol>
  <use href="#icon"/>
</svg>
