<svg xmlns="http://www.w3.org/2000/svg">
  <symbol id="icon" fill="none" viewBox="0 0 16 16"><path fill="currentColor" d="M11.5 2A1.5 1.5 0 0 1 13 3.5V9h.5l.1.01a.5.5 0 0 1 .4.49v3a1.5 1.5 0 0 1-1.5 1.5h-9A1.5 1.5 0 0 1 2 12.5v-3l.01-.1A.5.5 0 0 1 2.5 9H3V3.5A1.5 1.5 0 0 1 4.5 2h7ZM3 12.5a.5.5 0 0 0 .5.5h9a.5.5 0 0 0 .5-.5V10H3v2.5ZM9 11a.5.5 0 0 1 0 1H7a.5.5 0 0 1 0-1h2ZM4.5 3a.5.5 0 0 0-.5.5V9h8V3.5a.5.5 0 0 0-.5-.5h-7Zm4.656 1.387a.5.5 0 0 1 .803.561l-.05.09-1.75 2.5a.5.5 0 0 1-.722.103l-1.25-1-.072-.072a.5.5 0 0 1 .612-.764l.085.054.833.667 1.446-2.063.065-.076Z"/></symbol>
  <symbol id="icon-large" fill="none" viewBox="0 0 24 24"><path fill="currentColor" d="M20.6 14.01a.5.5 0 0 1 .4.49v4a2.5 2.5 0 0 1-2.5 2.5h-13A2.5 2.5 0 0 1 3 18.5v-4l.01-.1a.5.5 0 0 1 .49-.4h17l.1.01ZM4 18.5A1.5 1.5 0 0 0 5.5 20h13a1.5 1.5 0 0 0 1.5-1.5V15H4v3.5Zm9.5-2.5a.5.5 0 0 1 0 1h-3a.5.5 0 0 1 0-1h3Zm5-13A1.5 1.5 0 0 1 20 4.5v8a.5.5 0 0 1-.5.5h-15a.5.5 0 0 1-.5-.5v-8A1.5 1.5 0 0 1 5.5 3h13Zm-13 1a.5.5 0 0 0-.5.5V12h14V4.5a.5.5 0 0 0-.5-.5h-13Zm9.124 1.67a.5.5 0 1 1 .752.66l-3.5 4a.5.5 0 0 1-.73.024l-2-2-.064-.079a.5.5 0 0 1 .693-.693l.079.064 1.622 1.623 3.148-3.598Z"/></symbol>
  <use href="#icon"/>
</svg>
