<svg xmlns="http://www.w3.org/2000/svg">
  <symbol id="icon" fill="none" viewBox="0 0 16 16"><path fill="currentColor" d="M8 4.13c0-.868 1.03-1.323 1.673-.74l4.257 3.87a1.001 1.001 0 0 1 0 1.48l-4.257 3.869c-.642.584-1.673.129-1.673-.74V9.585L4.673 12.61c-.642.584-1.673.129-1.673-.74V4.13c0-.867 1.03-1.322 1.673-.739L8 6.415V4.13Zm-4 7.74 4-3.637v-.468L4 4.13v7.74Zm5 0L13.257 8 9 4.13v7.74Z"/></symbol>
  <symbol id="icon-large" fill="none" viewBox="0 0 24 24"><path fill="currentColor" fill-rule="evenodd" d="M14.43 5.386C13.446 4.609 12 5.31 12 6.564v3.22L6.43 5.387C5.446 4.609 4 5.31 4 6.564v10.873c0 1.253 1.446 1.954 2.43 1.177L12 14.215v3.222c0 1.253 1.446 1.954 2.43 1.177l6.885-5.436a1.5 1.5 0 0 0 0-2.356L14.43 5.386ZM12 12.942v-1.884L5.81 6.17a.5.5 0 0 0-.81.393v10.873a.5.5 0 0 0 .81.392L12 12.942Zm1.81 4.887a.5.5 0 0 1-.81-.392V6.564a.5.5 0 0 1 .81-.393l6.886 5.436a.5.5 0 0 1 0 .786l-6.886 5.436Z" clip-rule="evenodd"/></symbol>
  <use href="#icon"/>
</svg>
