<svg xmlns="http://www.w3.org/2000/svg">
  <symbol id="icon" fill="none" viewBox="0 0 16 16"><path fill="currentColor" fill-rule="evenodd" d="M8 2a6 6 0 1 0 0 12A6 6 0 0 0 8 2ZM1 8a7 7 0 1 1 14 0A7 7 0 0 1 1 8Zm5.796 2.097a.5.5 0 0 0-.599.8L6.5 10.5l-.303.398.002.001.002.002.005.004.014.01a1.316 1.316 0 0 0 .17.103c.11.06.266.133.475.205.417.143 1.035.277 1.885.277.85 0 1.468-.134 1.885-.277.209-.072.366-.146.476-.205a1.895 1.895 0 0 0 .17-.104l.013-.01.005-.003.002-.002h.001v-.001L11 10.5l.303.398a.5.5 0 0 0-.6-.8l-.007.004a2.158 2.158 0 0 1-.386.175c-.309.107-.816.223-1.56.223-.744 0-1.251-.117-1.56-.223a2.158 2.158 0 0 1-.386-.175l-.008-.005ZM7.5 5.5a.5.5 0 1 0-1 0v2a.5.5 0 0 0 1 0v-2Zm3.5 0a.5.5 0 0 0-1 0v2a.5.5 0 0 0 1 0v-2Z" clip-rule="evenodd"/></symbol>
  <symbol id="icon-large" fill="none" viewBox="0 0 24 24"><path fill="currentColor" fill-rule="evenodd" d="M12 3a9 9 0 1 0 0 18 9 9 0 0 0 0-18ZM2 12C2 6.477 6.477 2 12 2s10 4.477 10 10-4.477 10-10 10S2 17.523 2 12Zm7.85 3.143a.5.5 0 0 0-.704.71L9.5 15.5l-.353.354.001.002.003.002.005.005.017.016.051.045c.043.037.104.085.183.14.158.112.39.254.702.393.628.279 1.572.543 2.891.543s2.263-.264 2.89-.543c.313-.14.545-.28.703-.392a2.553 2.553 0 0 0 .234-.186l.017-.016.005-.005.003-.003.001-.001-.353-.354.354.354a.5.5 0 0 0-.704-.711h-.001l-.006.007-.014.012a1.618 1.618 0 0 1-.113.086 3.128 3.128 0 0 1-.532.295c-.497.221-1.303.457-2.484.457s-1.987-.236-2.484-.457a3.131 3.131 0 0 1-.532-.295 1.623 1.623 0 0 1-.133-.104l-.001-.001Zm6.299 0-.001.002.001-.001ZM11 8.5a.5.5 0 0 0-1 0v3a.5.5 0 0 0 1 0v-3Zm5 0a.5.5 0 0 0-1 0v3a.5.5 0 0 0 1 0v-3Z" clip-rule="evenodd"/></symbol>
  <use href="#icon"/>
</svg>
