<svg xmlns="http://www.w3.org/2000/svg">
  <symbol id="icon" fill="none" viewBox="0 0 16 16"><path fill="currentColor" d="M7.333 1.863a.795.795 0 0 1 1.334 0l.06.11L10.27 5.36l3.537.489c.695.096.905.943.452 1.394l-2.602 2.59.656 3.704c.109.62-.54 1.224-1.182.859L8 12.614l-3.13 1.782c-.642.365-1.29-.238-1.181-.859l.654-3.705-2.6-2.589c-.454-.45-.244-1.298.451-1.394l3.537-.49 1.542-3.385.06-.111Zm-.735 4.006a.804.804 0 0 1-.62.466l-3.277.452L5.114 9.19l.068.076a.83.83 0 0 1 .162.653l-.6 3.398 2.865-1.63.093-.046a.79.79 0 0 1 .596 0l.094.046 2.864 1.63-.6-3.398a.828.828 0 0 1 .23-.73l2.412-2.402-3.276-.452a.801.801 0 0 1-.573-.377l-.046-.089L8 2.79 6.598 5.87Z"/></symbol>
  <symbol id="icon-large" fill="none" viewBox="0 0 24 24"><path fill="currentColor" d="M11.17 2.437a1.005 1.005 0 0 1 1.735.133l2.64 5.512.004.002 6.077.798c.836.11 1.175 1.14.56 1.723l-4.445 4.203v.002l1.115 6.004c.145.78-.62 1.384-1.325 1.127l-.14-.063L12 18.965h-.003l-5.389 2.913c-.739.4-1.62-.233-1.465-1.064L6.26 14.81l-.001-.002-4.445-4.204c-.615-.581-.276-1.612.56-1.722l6.077-.798a.004.004 0 0 0 .003-.002l2.64-5.512.077-.133Zm.826.565-2.64 5.512a1.003 1.003 0 0 1-.775.561l-6.077.798H2.5v.003l-.001.001H2.5l4.445 4.204a1 1 0 0 1 .297.911l-1.116 6.004v.002l.003.001.004-.001 5.389-2.913c.297-.161.657-.161.954 0l5.39 2.913.002.001.003-.001h.001v-.002l-1.116-6.004a1 1 0 0 1 .297-.91l4.445-4.204v-.002l-.001-.003h-.002l-6.077-.798a1.004 1.004 0 0 1-.774-.561l-2.641-5.512V3h-.006v.002Z"/></symbol>
  <use href="#icon"/>
</svg>
