<svg xmlns="http://www.w3.org/2000/svg">
  <symbol id="icon" fill="none" viewBox="0 0 16 16"><path fill="currentColor" d="M7.25 1.856a1.5 1.5 0 0 1 1.5 0l4.196 2.423a1.5 1.5 0 0 1 .75 1.298v4.846a1.5 1.5 0 0 1-.75 1.299L8.75 14.145a1.5 1.5 0 0 1-1.5 0l-4.196-2.423a1.5 1.5 0 0 1-.75-1.299V5.577a1.5 1.5 0 0 1 .75-1.298L7.25 1.856Zm-3.946 8.567a.5.5 0 0 0 .25.433L7.5 13.134V8.175L3.304 5.752v4.671ZM8.5 8.175v4.959l3.946-2.278a.5.5 0 0 0 .25-.433v-4.67L8.5 8.174Zm-.25-5.453a.5.5 0 0 0-.5 0L3.901 4.944 8 7.31l4.098-2.366L8.25 2.722Z"/></symbol>
  <symbol id="icon-large" fill="none" viewBox="0 0 24 24"><path fill="currentColor" fill-rule="evenodd" d="M20.041 7 12 11.913 3.959 7l7.78-4.755a.5.5 0 0 1 .522 0L20.04 7Zm.459.892-8 4.888v8.829l7.76-4.743a.5.5 0 0 0 .24-.427V7.892Zm-9 4.888-8-4.888v8.547a.5.5 0 0 0 .24.427l7.76 4.743V12.78Zm10 3.66a1.5 1.5 0 0 1-.718 1.279l-8 4.89a1.5 1.5 0 0 1-1.564 0l-8-4.89a1.5 1.5 0 0 1-.718-1.28V7.56a1.5 1.5 0 0 1 .718-1.279l8-4.89a1.5 1.5 0 0 1 1.564 0l8 4.89a1.5 1.5 0 0 1 .718 1.28v8.878Z" clip-rule="evenodd"/></symbol>
  <use href="#icon"/>
</svg>
