<svg xmlns="http://www.w3.org/2000/svg">
  <symbol id="icon" fill="none" viewBox="0 0 16 16"><path fill="currentColor" d="M5.854 10.854 3.707 13H5a.5.5 0 0 1 0 1H2.5a.5.5 0 0 1-.5-.5V11a.5.5 0 0 1 1 0v1.293l2.146-2.146.708.707ZM13 12.293V11a.5.5 0 0 1 1 0v2.5a.5.5 0 0 1-.5.5H11a.5.5 0 0 1 0-1h1.293l-2.146-2.146.707-.707L13 12.293ZM9 5.5A1.5 1.5 0 0 1 10.5 7v2A1.5 1.5 0 0 1 9 10.5H7A1.5 1.5 0 0 1 5.5 9V7A1.5 1.5 0 0 1 7 5.5h2Zm-2 1a.5.5 0 0 0-.5.5v2a.5.5 0 0 0 .5.5h2a.5.5 0 0 0 .5-.5V7a.5.5 0 0 0-.5-.5H7ZM5 2a.5.5 0 0 1 0 1H3.707l2.147 2.146-.708.708L3 3.707V5a.5.5 0 0 1-1 0V2.5l.01-.1A.5.5 0 0 1 2.5 2H5Zm8.6.01a.5.5 0 0 1 .4.49V5a.5.5 0 0 1-1 0V3.707l-2.146 2.147-.707-.708L12.293 3H11a.5.5 0 0 1 0-1h2.5l.1.01Z"/></symbol>
  <symbol id="icon-large" fill="none" viewBox="0 0 24 24"><path fill="currentColor" d="M3.5 16a.5.5 0 0 1 .5.5v2.793l3.146-3.146.708.707L4.707 20H7.5a.5.5 0 0 1 0 1h-4a.5.5 0 0 1-.5-.5v-4a.5.5 0 0 1 .5-.5Zm17 0a.5.5 0 0 1 .5.5v4a.5.5 0 0 1-.5.5h-4a.5.5 0 0 1 0-1h2.793l-3.146-3.146.707-.707L20 19.293V16.5a.5.5 0 0 1 .5-.5Zm-6-8A1.5 1.5 0 0 1 16 9.5v5a1.5 1.5 0 0 1-1.5 1.5h-5A1.5 1.5 0 0 1 8 14.5v-5A1.5 1.5 0 0 1 9.5 8h5Zm-5 1a.5.5 0 0 0-.5.5v5a.5.5 0 0 0 .5.5h5a.5.5 0 0 0 .5-.5v-5a.5.5 0 0 0-.5-.5h-5Zm-2-6a.5.5 0 0 1 0 1H4.707l3.147 3.146-.708.708L4 4.707V7.5a.5.5 0 0 1-1 0v-4l.01-.1A.5.5 0 0 1 3.5 3h4Zm13.1.01a.5.5 0 0 1 .4.49v4a.5.5 0 0 1-1 0V4.707l-3.146 3.147-.707-.708L19.293 4H16.5a.5.5 0 0 1 0-1h4l.1.01Z"/></symbol>
  <use href="#icon"/>
</svg>
