<svg xmlns="http://www.w3.org/2000/svg">
  <symbol id="icon" fill="none" viewBox="0 0 16 16"><path fill="currentColor" d="M9.5 2a4.5 4.5 0 0 1 1.306 8.807 4.5 4.5 0 1 1-5.614-5.614A4.502 4.502 0 0 1 9.5 2Zm-3 4a3.5 3.5 0 1 0 0 7 3.5 3.5 0 0 0 0-7Zm2.184 3.904.187.04.191.029a.5.5 0 0 1-.124.992 4.43 4.43 0 0 1-.246-.037l-.24-.051-.097-.033a.5.5 0 0 1 .228-.953l.1.013ZM6.065 8.61a.5.5 0 0 1 .632.006l.072.072.124.147c.128.143.269.277.42.397a.5.5 0 0 1-.626.78 4.525 4.525 0 0 1-.539-.51l-.16-.189-.054-.084a.5.5 0 0 1 .131-.619ZM9.5 3a3.5 3.5 0 0 0-3.163 2.004C6.39 5.002 6.445 5 6.5 5A4.5 4.5 0 0 1 11 9.5c0 .054-.003.108-.005.162A3.498 3.498 0 0 0 9.5 3ZM5.47 6.504a.5.5 0 0 1 .535.336l.022.098.03.19.039.188.013.101a.5.5 0 0 1-.953.228l-.033-.096-.05-.241-.038-.246-.003-.101a.5.5 0 0 1 .438-.457Z"/></symbol>
  <symbol id="icon-large" fill="none" viewBox="0 0 24 24"><path fill="currentColor" fill-rule="evenodd" d="M21 9.5A6.5 6.5 0 0 0 8.469 7.07a7.5 7.5 0 0 1 8.46 8.46A6.503 6.503 0 0 0 21 9.501Zm-4.321 7.178a7.5 7.5 0 1 0-9.357-9.357 7.5 7.5 0 1 0 9.357 9.357Zm-3.197-.757c.332.052.671.079 1.018.079a.5.5 0 0 1 0 1c-.399 0-.79-.03-1.173-.09a.5.5 0 0 1 .155-.99Zm-4.94-2.71a.5.5 0 0 1 .698.11 6.546 6.546 0 0 0 1.44 1.439.5.5 0 0 1-.59.807 7.54 7.54 0 0 1-1.657-1.658.5.5 0 0 1 .109-.698ZM7 9.5a.5.5 0 0 1 1 0c0 .347.027.686.08 1.018a.5.5 0 0 1-.99.155A7.555 7.555 0 0 1 7 9.5ZM9.5 8a6.5 6.5 0 1 1 0 13 6.5 6.5 0 0 1 0-13Z" clip-rule="evenodd"/></symbol>
  <use href="#icon"/>
</svg>
