<svg xmlns="http://www.w3.org/2000/svg">
  <symbol id="icon" fill="none" viewBox="0 0 16 16"><path fill="currentColor" d="M8.26 13.288a.5.5 0 0 1 .48.877l-.021.012c-.448.244-.99.244-1.438 0l-.021-.011a.5.5 0 0 1 .48-.878l.02.011a.5.5 0 0 0 .479 0l.021-.011Zm-3.76-.925a.5.5 0 0 1 .739-.439l.5.273a.5.5 0 1 1-.478.878l-.5-.273a.5.5 0 0 1-.261-.44Zm6.26-.439a.5.5 0 1 1 .479.878l-.499.273a.5.5 0 0 1-.48-.878l.5-.273ZM2.062 10.76a.5.5 0 0 1 .585-.239l.093.04.5.273a.5.5 0 1 1-.478.877l-.5-.272-.084-.058a.5.5 0 0 1-.116-.62Zm11.292-.239a.5.5 0 0 1 .386.918l-.5.272a.5.5 0 0 1-.479-.877l.5-.273.093-.04Zm-5.092-.233a.5.5 0 0 1 .479.877l-.021.012c-.448.244-.99.244-1.438 0l-.021-.011a.5.5 0 0 1 .48-.878l.02.011a.5.5 0 0 0 .479 0l.021-.011ZM4.5 9.363a.5.5 0 0 1 .739-.439l.5.273a.5.5 0 1 1-.478.878l-.5-.273a.501.501 0 0 1-.261-.44Zm6.26-.439a.5.5 0 1 1 .479.878l-.499.273a.5.5 0 0 1-.48-.878l.5-.273ZM2.062 7.76a.5.5 0 0 1 .585-.239l.093.04.5.272a.5.5 0 1 1-.478.877l-.5-.272-.084-.057a.5.5 0 0 1-.116-.62Zm11.2-.199a.5.5 0 0 1 .478.877l-.5.272a.5.5 0 1 1-.479-.877l.5-.272Zm-5.98-5.74a1.51 1.51 0 0 1 1.438 0l5.02 2.74a.5.5 0 0 1 0 .877l-5.02 2.74a1.51 1.51 0 0 1-1.438 0l-5.02-2.74a.5.5 0 0 1 0-.877l5.02-2.74Zm.958.879a.5.5 0 0 0-.479 0L3.544 5 7.76 7.3a.5.5 0 0 0 .478 0L12.456 5 8.239 2.7Z"/></symbol>
  <symbol id="icon-large" fill="none" viewBox="0 0 24 24"><path fill="currentColor" fill-rule="evenodd" d="M12.254 2.57a.5.5 0 0 0-.447-.03l-.06.03-8.5 5a.5.5 0 0 0-.001.86l8.5 5a.502.502 0 0 0 .508 0l8.5-5a.5.5 0 0 0 0-.86l-8.5-5ZM12 12.42 4.485 8 12 3.58 19.514 8 12 12.42Zm.809 3.524a.5.5 0 0 1 .507.862l-1.062.625a.502.502 0 0 1-.508 0l-1.062-.625a.5.5 0 0 1 .507-.862l.532.313.277.163.277-.163.532-.313Zm-6.02-2.01a.5.5 0 0 1 .684-.177l1.593.937a.5.5 0 0 1-.507.862l-1.594-.938a.5.5 0 0 1-.177-.684Zm9.738-.177a.5.5 0 0 1 .508.861l-1.594.938a.5.5 0 0 1-.507-.862l1.593-.937ZM3.07 11.747a.5.5 0 0 1 .685-.178l1.594.938a.5.5 0 0 1-.508.861l-1.594-.937a.5.5 0 0 1-.177-.685Zm17.177-.178a.5.5 0 0 1 .508.862l-1.594.937a.5.5 0 0 1-.508-.861l1.594-.938Zm-7.437 8.375a.5.5 0 0 1 .507.862l-1.062.625a.502.502 0 0 1-.508 0l-1.062-.625a.5.5 0 0 1 .507-.862l.532.313.277.163.277-.163.532-.313Zm-6.02-2.01a.5.5 0 0 1 .684-.177l1.593.937a.5.5 0 0 1-.507.862l-1.594-.938a.5.5 0 0 1-.177-.684Zm9.738-.177a.5.5 0 0 1 .508.861l-1.594.938a.5.5 0 0 1-.507-.862l1.593-.937ZM3.07 15.747a.5.5 0 0 1 .685-.178l1.594.938a.5.5 0 0 1-.508.861l-1.594-.937a.5.5 0 0 1-.177-.685Zm17.177-.178a.5.5 0 0 1 .508.862l-1.594.937a.5.5 0 0 1-.508-.861l1.594-.938Z" clip-rule="evenodd"/></symbol>
  <use href="#icon"/>
</svg>
