<svg xmlns="http://www.w3.org/2000/svg">
  <symbol id="icon" fill="none" viewBox="0 0 16 16"><path fill="currentColor" fill-rule="evenodd" d="M2 8a6 6 0 1 1 12 0A6 6 0 0 1 2 8Zm6-7a7 7 0 1 0 0 14A7 7 0 0 0 8 1Zm.5 3.5a.5.5 0 0 0-1 0V8a.5.5 0 0 0 .146.354l2 2a.5.5 0 0 0 .708-.708L8.5 7.793V4.5Z" clip-rule="evenodd"/></symbol>
  <symbol id="icon-large" fill="none" viewBox="0 0 24 24"><path fill="currentColor" fill-rule="evenodd" d="M3 12a9 9 0 1 1 18 0 9 9 0 0 1-18 0Zm9-10C6.477 2 2 6.477 2 12s4.477 10 10 10 10-4.477 10-10S17.523 2 12 2Zm.5 4a.5.5 0 0 0-1 0v6a.5.5 0 0 0 .146.354l3.5 3.5a.5.5 0 0 0 .708-.708L12.5 11.793V6Z" clip-rule="evenodd"/></symbol>
  <use href="#icon"/>
</svg>
