<svg xmlns="http://www.w3.org/2000/svg">
  <symbol id="icon" fill="none" viewBox="0 0 16 16"><path fill="currentColor" d="M12.5 10a.5.5 0 0 1 .5.5V12h1.5a.5.5 0 0 1 0 1H13v1.5a.5.5 0 0 1-1 0V13h-1.5a.5.5 0 1 1 0-1H12v-1.5a.5.5 0 0 1 .5-.5Zm.75-5.608a.5.5 0 1 1 .5.865l-2.94 1.699c.12.325.191.676.191 1.044a3 3 0 0 1-2.5 2.958V13.5a.5.5 0 0 1-1 0v-2.543a3 3 0 0 1-2.31-4.002L2.25 5.257a.5.5 0 0 1 .5-.865l2.938 1.696A2.995 2.995 0 0 1 8 5c.93 0 1.761.423 2.312 1.088l2.938-1.696ZM8 6a2 2 0 1 0 0 4 2 2 0 0 0 0-4Z"/></symbol>
  <symbol id="icon-large" fill="none" viewBox="0 0 24 24"><path fill="currentColor" d="M19 15.5a.5.5 0 0 1 .5.5v2.5H22a.5.5 0 0 1 0 1h-2.5V22a.5.5 0 0 1-1 0v-2.5H16a.5.5 0 0 1 0-1h2.5V16a.5.5 0 0 1 .5-.5Zm1.24-9.121a.5.5 0 0 1 .52.853l-5.113 3.125a4 4 0 0 1-3.146 5.61V20.5a.5.5 0 0 1-1 0v-4.532a4 4 0 0 1-3.148-5.61L3.239 7.231a.5.5 0 0 1 .522-.853l5.114 3.125A3.992 3.992 0 0 1 12 8c1.265 0 2.391.588 3.124 1.504l5.115-3.125ZM12 9a3 3 0 1 0 0 6 3 3 0 0 0 0-6Z"/></symbol>
  <use href="#icon"/>
</svg>
