<svg xmlns="http://www.w3.org/2000/svg">
  <symbol id="icon" fill="none" viewBox="0 0 16 16"><path fill="currentColor" fill-rule="evenodd" d="M3 2a1 1 0 0 1 1-1h2a1 1 0 0 1 1 1v5.5h2V4a1 1 0 0 1 1-1h2a1 1 0 0 1 1 1v3.5h1.5a.5.5 0 0 1 0 1H13V12a1 1 0 0 1-1 1h-2a1 1 0 0 1-1-1V8.5H7V14a1 1 0 0 1-1 1H4a1 1 0 0 1-1-1V8.5H1.5a.5.5 0 0 1 0-1H3V2Zm3 0H4v12h2V2Zm4 2h2v8h-2V4Z" clip-rule="evenodd"/></symbol>
  <symbol id="icon-large" fill="none" viewBox="0 0 24 24"><path fill="currentColor" fill-rule="evenodd" d="M7.5 5a.5.5 0 0 0-.5.5v13a.5.5 0 0 0 .5.5h2a.5.5 0 0 0 .5-.5v-13a.5.5 0 0 0-.5-.5h-2ZM6 5.5A1.5 1.5 0 0 1 7.5 4h2A1.5 1.5 0 0 1 11 5.5v6h2v-4A1.5 1.5 0 0 1 14.5 6h2A1.5 1.5 0 0 1 18 7.5v4h2.5a.5.5 0 0 1 0 1H18v4a1.5 1.5 0 0 1-1.5 1.5h-2a1.5 1.5 0 0 1-1.5-1.5v-4h-2v6A1.5 1.5 0 0 1 9.5 20h-2A1.5 1.5 0 0 1 6 18.5v-6H3.5a.5.5 0 0 1 0-1H6v-6Zm8 2a.5.5 0 0 1 .5-.5h2a.5.5 0 0 1 .5.5v9a.5.5 0 0 1-.5.5h-2a.5.5 0 0 1-.5-.5v-9Z" clip-rule="evenodd"/></symbol>
  <use href="#icon"/>
</svg>
