<svg xmlns="http://www.w3.org/2000/svg">
  <symbol id="icon" fill="none" viewBox="0 0 16 16"><path fill="currentColor" fill-rule="evenodd" d="M5.3 2.6A1.5 1.5 0 0 1 6.5 2h3a1.5 1.5 0 0 1 1.2.6l.9 1.2a.5.5 0 0 0 .4.2h1.5A1.5 1.5 0 0 1 15 5.5v7a1.5 1.5 0 0 1-1.5 1.5H8v-1h5.5a.5.5 0 0 0 .5-.5v-7a.5.5 0 0 0-.5-.5H12a1.5 1.5 0 0 1-1.2-.6l-.9-1.2a.5.5 0 0 0-.4-.2h-3a.5.5 0 0 0-.4.2l-.9 1.2A1.5 1.5 0 0 1 4 5H2.5a.5.5 0 0 0-.5.5v7a.5.5 0 0 0 .5.5h2.793l-1.147-1.146a.5.5 0 0 1 .708-.708l2 2a.5.5 0 0 1 0 .708l-2 2a.5.5 0 0 1-.708-.708L5.293 14H2.5A1.5 1.5 0 0 1 1 12.5v-7A1.5 1.5 0 0 1 2.5 4H4a.5.5 0 0 0 .4-.2l.9-1.2Zm1.2 5.9a1.5 1.5 0 1 1 3 0 1.5 1.5 0 0 1-3 0ZM8 6a2.5 2.5 0 1 0 0 5 2.5 2.5 0 0 0 0-5Z" clip-rule="evenodd"/></symbol>
  <symbol id="icon-large" fill="none" viewBox="0 0 24 24"><path fill="currentColor" fill-rule="evenodd" d="M8.787 3.668A1.5 1.5 0 0 1 10.035 3h3.93c.501 0 .97.25 1.248.668l1.406 2.11a.5.5 0 0 0 .416.222H20.5A1.5 1.5 0 0 1 22 7.5v12a1.5 1.5 0 0 1-1.5 1.5H12v-1h8.5a.5.5 0 0 0 .5-.5v-12a.5.5 0 0 0-.5-.5h-3.465a1.5 1.5 0 0 1-1.248-.668l-1.406-2.11A.5.5 0 0 0 13.965 4h-3.93a.5.5 0 0 0-.416.223L8.213 6.332A1.5 1.5 0 0 1 6.965 7H3.5a.5.5 0 0 0-.5.5v12a.5.5 0 0 0 .5.5h4.293l-1.647-1.646a.5.5 0 0 1 .708-.708l2.5 2.5a.5.5 0 0 1 0 .708l-2.5 2.5a.5.5 0 0 1-.708-.708L7.793 21H3.5A1.5 1.5 0 0 1 2 19.5v-12A1.5 1.5 0 0 1 3.5 6h3.465a.5.5 0 0 0 .416-.223l1.406-2.11ZM9 13a3 3 0 1 1 6 0 3 3 0 0 1-6 0Zm3-4a4 4 0 1 0 0 8 4 4 0 0 0 0-8Z" clip-rule="evenodd"/></symbol>
  <use href="#icon"/>
</svg>
