<svg xmlns="http://www.w3.org/2000/svg">
  <symbol id="icon" fill="none" viewBox="0 0 16 16"><path fill="currentColor" d="M8 1.5a3 3 0 0 1 3 3v.57c.471.152.834.54.955 1.025l.768-.51a.5.5 0 1 1 .554.831L12 7.268V9h1.5a.5.5 0 0 1 0 1H12v.5c0 .248-.024.49-.067.726l1.113 1.113.064.078a.5.5 0 0 1-.693.694l-.078-.065-.76-.76a3.998 3.998 0 0 1-7.158 0l-.729.729a.5.5 0 0 1-.707-.707l1.081-1.082A4.02 4.02 0 0 1 4 10.5V10H2.5a.5.5 0 0 1 0-1H4V7.268l-1.277-.852-.078-.064a.5.5 0 0 1 .542-.816l.09.048.767.511c.12-.485.485-.873.956-1.025V4.5a3 3 0 0 1 3-3ZM5.444 6A.444.444 0 0 0 5 6.445V10.5a3 3 0 0 0 2.5 2.957V6H5.444ZM8.5 13.457A3 3 0 0 0 11 10.5V6.445A.444.444 0 0 0 10.556 6H8.5v7.457ZM8 2.5a2 2 0 0 0-2 2V5h4v-.5a2 2 0 0 0-2-2Z"/></symbol>
  <symbol id="icon-large" fill="none" viewBox="0 0 24 24"><path fill="currentColor" d="M12 2a5 5 0 0 1 5 5h.5c.75 0 1.37.55 1.48 1.27l1.834-.734.098-.028a.5.5 0 0 1 .363.909l-.09.047L19 9.338V13h2.5a.5.5 0 0 1 0 1H19v1c0 .971-.198 1.896-.556 2.737l1.91 1.91.064.078a.5.5 0 0 1-.693.693l-.079-.064-1.685-1.686A6.994 6.994 0 0 1 12 22a6.995 6.995 0 0 1-5.962-3.332l-1.684 1.686a.5.5 0 1 1-.708-.707l1.909-1.91A6.979 6.979 0 0 1 5 15v-1H2.5a.5.5 0 0 1 0-1H5V9.338l-2.186-.874-.09-.047a.5.5 0 0 1 .364-.91l.098.03 1.833.733A1.5 1.5 0 0 1 6.5 7H7a5 5 0 0 1 5-5ZM6.5 8a.5.5 0 0 0-.5.5V15a5.998 5.998 0 0 0 5.5 5.977V8h-5Zm6 12.977A5.998 5.998 0 0 0 18 15V8.5a.5.5 0 0 0-.5-.5h-5v12.977ZM12 3a4 4 0 0 0-4 4h8a4 4 0 0 0-4-4Z"/></symbol>
  <use href="#icon"/>
</svg>
