<svg xmlns="http://www.w3.org/2000/svg">
  <symbol id="icon" fill="none" viewBox="0 0 16 16"><path fill="currentColor" fill-rule="evenodd" d="M11.56 1.353a1.5 1.5 0 0 0-2.12 0L1.353 9.44a1.5 1.5 0 0 0 0 2.121l3.085 3.086a1.5 1.5 0 0 0 2.122 0l8.085-8.085a1.5 1.5 0 0 0 0-2.122L11.56 1.354Zm-1.414.708a.5.5 0 0 1 .708 0l3.085 3.085a.5.5 0 0 1 0 .707L5.854 13.94a.5.5 0 0 1-.707 0L2.06 10.853a.5.5 0 0 1 0-.707l1.19-1.189 1.396 1.396a.5.5 0 1 0 .707-.707L3.957 8.25 5.75 6.457l1.897 1.896a.5.5 0 0 0 .707-.707L6.457 5.75 8.25 3.957l1.397 1.396a.5.5 0 1 0 .707-.707L8.957 3.25l1.19-1.19Z" clip-rule="evenodd"/></symbol>
  <symbol id="icon-large" fill="none" viewBox="0 0 24 24"><path fill="currentColor" fill-rule="evenodd" d="M16.56 2.353a1.5 1.5 0 0 0-2.12 0L2.353 14.44a1.5 1.5 0 0 0 0 2.122l5.085 5.085a1.5 1.5 0 0 0 2.122 0L21.646 9.561a1.5 1.5 0 0 0 0-2.122l-5.085-5.086Zm-1.413.708a.5.5 0 0 1 .707 0l5.085 5.085a.5.5 0 0 1 0 .707L8.854 20.94a.5.5 0 0 1-.707 0L3.06 15.853a.5.5 0 0 1 0-.707l1.19-1.189 1.396 1.396a.5.5 0 1 0 .707-.707L4.957 13.25l1.293-1.293 2.897 2.896a.5.5 0 1 0 .707-.707L6.957 11.25 8.75 9.457l1.396 1.396a.5.5 0 1 0 .708-.707L9.457 8.75l1.793-1.793 2.896 2.896a.5.5 0 1 0 .708-.707L11.957 6.25l1.293-1.293 1.396 1.396a.5.5 0 0 0 .708-.707L13.957 4.25l1.19-1.19Z" clip-rule="evenodd"/></symbol>
  <use href="#icon"/>
</svg>
