<svg xmlns="http://www.w3.org/2000/svg">
  <symbol id="icon" fill="none" viewBox="0 0 16 16"><path fill="currentColor" fill-rule="evenodd" d="M3.65 4C4.739 2.765 6.232 2 8 2a6 6 0 1 1-6 6 .5.5 0 0 0-1 0 7 7 0 1 0 7-7c-2.03 0-3.748.864-5 2.227V1.5a.5.5 0 0 0-1 0v3a.5.5 0 0 0 .5.5h3a.5.5 0 0 0 0-1H3.65Z" clip-rule="evenodd"/></symbol>
  <symbol id="icon-large" fill="none" viewBox="0 0 24 24"><path fill="currentColor" fill-rule="evenodd" d="M5.63 7C7.104 5.176 9.467 4 12 4a8 8 0 1 1-8 8 .5.5 0 0 0-1 0 9 9 0 1 0 9-9C9.249 3 6.671 4.236 5 6.194V3.5a.5.5 0 0 0-1 0v4a.5.5 0 0 0 .5.5h4a.5.5 0 0 0 0-1H5.63Z" clip-rule="evenodd"/></symbol>
  <use href="#icon"/>
</svg>
