<svg xmlns="http://www.w3.org/2000/svg">
  <symbol id="icon" fill="none" viewBox="0 0 16 16"><path fill="currentColor" fill-rule="evenodd" d="M8.5 8a6 6 0 0 1 6-6 .5.5 0 0 0 0-1 7 7 0 0 0-7 7v1.793L5.354 7.647a.5.5 0 0 0-.708.707l3 3a.5.5 0 0 0 .708 0l3-3a.5.5 0 1 0-.708-.707L8.5 9.793V8Zm-6-6a.5.5 0 0 0-.5.5v11a.5.5 0 0 0 .5.5h11a.5.5 0 0 0 .5-.5V6h1v7.5a1.5 1.5 0 0 1-1.5 1.5h-11A1.5 1.5 0 0 1 1 13.5v-11A1.5 1.5 0 0 1 2.5 1H7v1H2.5Z" clip-rule="evenodd"/></symbol>
  <symbol id="icon-large" fill="none" viewBox="0 0 24 24"><path fill="currentColor" fill-rule="evenodd" d="M4.5 4a.5.5 0 0 0-.5.5v15a.5.5 0 0 0 .5.5h15a.5.5 0 0 0 .5-.5V8h1v11.5a1.5 1.5 0 0 1-1.5 1.5h-15A1.5 1.5 0 0 1 3 19.5v-15A1.5 1.5 0 0 1 4.5 3H12v1H4.5Zm3.146 7.646a.5.5 0 0 1 .708 0l3.146 3.147V11.5A8.5 8.5 0 0 1 20 3h.5a.5.5 0 0 1 0 1H20a7.5 7.5 0 0 0-7.5 7.5v3.293l3.146-3.147a.5.5 0 0 1 .708.708l-4 4a.5.5 0 0 1-.708 0l-4-4a.5.5 0 0 1 0-.708Z" clip-rule="evenodd"/></symbol>
  <use href="#icon"/>
</svg>
