<svg xmlns="http://www.w3.org/2000/svg">
  <symbol id="icon" fill="none" viewBox="0 0 16 16"><path fill="currentColor" fill-rule="evenodd" d="M1 2.5A1.5 1.5 0 0 1 2.5 1h4A1.5 1.5 0 0 1 8 2.5v2.218a1.914 1.914 0 0 0 2.354-.279l.292-.293a.5.5 0 0 1 .708 0l.292.293a1.914 1.914 0 0 0 2.708 0l.292-.293A.5.5 0 0 1 15 4v1.205a2.914 2.914 0 0 1-4 0 2.914 2.914 0 0 1-3 .618V8h6.5a.5.5 0 0 1 0 1H8v3h6.5a.5.5 0 0 1 0 1H8v1.5a.5.5 0 0 1-.5.5h-6a.5.5 0 0 1-.5-.5v-12ZM2.5 2a.5.5 0 0 0-.5.5V14h5V2.5a.5.5 0 0 0-.5-.5h-4ZM4 3.5a.5.5 0 0 0 0 1h1a.5.5 0 0 0 0-1H4Z" clip-rule="evenodd"/></symbol>
  <symbol id="icon-large" fill="none" viewBox="0 0 24 24"><path fill="currentColor" fill-rule="evenodd" d="M4.5 4a.5.5 0 0 0-.5.5V20h7V4.5a.5.5 0 0 0-.5-.5h-6ZM3 4.5A1.5 1.5 0 0 1 4.5 3h6A1.5 1.5 0 0 1 12 4.5V9c.508 0 .995-.202 1.354-.56l.292-.294a.5.5 0 0 1 .708 0l.292.293a1.914 1.914 0 0 0 2.708 0l.292-.293a.5.5 0 0 1 .708 0l.292.293A1.914 1.914 0 0 0 21 8.718v1.105a2.913 2.913 0 0 1-3-.618 2.914 2.914 0 0 1-4 0c-.54.51-1.255.795-2 .795v3h8.5a.5.5 0 0 1 0 1H12v4h8.5a.5.5 0 0 1 0 1H12v1.5a.5.5 0 0 1-.5.5h-8a.5.5 0 0 1-.5-.5v-16Zm3 1a.5.5 0 0 0-.5.5v3a.5.5 0 0 0 .5.5h3a.5.5 0 0 0 .5-.5V6a.5.5 0 0 0-.5-.5H6Zm.5 3v-2h2v2h-2Z" clip-rule="evenodd"/></symbol>
  <use href="#icon"/>
</svg>
