<svg xmlns="http://www.w3.org/2000/svg">
  <symbol id="icon" fill="none" viewBox="0 0 16 16"><path fill="currentColor" fill-rule="evenodd" d="M2.928 2.462A.5.5 0 0 1 3.426 2h9.148a.5.5 0 0 1 .498.462l.847 11a.5.5 0 0 1-.499.538H2.58a.5.5 0 0 1-.499-.538l.847-11ZM3.426 1A1.5 1.5 0 0 0 1.93 2.385l-.846 11A1.5 1.5 0 0 0 2.58 15h10.84a1.5 1.5 0 0 0 1.496-1.615l-.846-11A1.5 1.5 0 0 0 12.574 1H3.426ZM6 4.5a.5.5 0 0 0-1 0 3 3 0 0 0 6 0 .5.5 0 0 0-1 0 2 2 0 1 1-4 0Z" clip-rule="evenodd"/></symbol>
  <symbol id="icon-large" fill="none" viewBox="0 0 24 24"><path fill="currentColor" fill-rule="evenodd" d="M4.944 4.47A.5.5 0 0 1 5.443 4h13.114a.5.5 0 0 1 .5.47l.882 15a.5.5 0 0 1-.5.53H4.561a.5.5 0 0 1-.5-.53l.883-15ZM5.443 3a1.5 1.5 0 0 0-1.498 1.412l-.882 15A1.5 1.5 0 0 0 4.561 21h14.878a1.5 1.5 0 0 0 1.498-1.588l-.883-15A1.5 1.5 0 0 0 18.558 3H5.443ZM9 7.5a.5.5 0 0 0-1 0 4 4 0 0 0 8 0 .5.5 0 0 0-1 0 3 3 0 0 1-6 0Z" clip-rule="evenodd"/></symbol>
  <use href="#icon"/>
</svg>
