<svg xmlns="http://www.w3.org/2000/svg">
  <symbol id="icon" fill="none" viewBox="0 0 16 16"><path fill="currentColor" fill-rule="evenodd" d="M8 3c3.314 0 6 2.23 6 5s-2.686 5-6 5c-1.157 0-2.318-.394-3.25-.933a.5.5 0 0 0-.526.016l-.064.05c-.604.562-1.15.845-1.575.959-.08.021-.155.035-.224.046a4.57 4.57 0 0 0 .336-.769c.221-.674.318-1.538-.075-2.365C2.291 9.307 2 8.657 2 8c0-2.77 2.686-5 6-5Zm0 11c3.682 0 7-2.51 7-6s-3.318-6-7-6-7 2.51-7 6c0 .918.402 1.767.719 2.434l.078.194c.153.462.103.963-.05 1.43-.177.54-.466.954-.6 1.088a.5.5 0 0 0 .096.783c.422.253.997.29 1.6.129.535-.144 1.122-.45 1.725-.954C5.56 13.621 6.763 14 8 14Zm0-5.25a.75.75 0 1 0 0-1.5.75.75 0 0 0 0 1.5ZM11.75 8a.75.75 0 1 1-1.5 0 .75.75 0 0 1 1.5 0ZM5 8.75a.75.75 0 1 0 0-1.5.75.75 0 0 0 0 1.5Z" clip-rule="evenodd"/></symbol>
  <symbol id="icon-large" fill="none" viewBox="0 0 24 24"><path fill="currentColor" fill-rule="evenodd" d="M12 4c5.024 0 9 3.633 9 8s-3.976 8-9 8c-1.81 0-3.49-.474-4.897-1.287a.5.5 0 0 0-.527.015l-.063.051c-1.386 1.287-2.82 1.28-3.687 1.029a6.61 6.61 0 0 0 .842-1.416c.392-.92.6-2.1.039-3.28A7.212 7.212 0 0 1 3 12c0-4.367 3.976-8 9-8Zm0 17c5.47 0 10-3.979 10-9s-4.53-9-10-9S2 6.979 2 12a8.21 8.21 0 0 0 .804 3.542c.395.83.27 1.691-.056 2.457a5.628 5.628 0 0 1-1.102 1.648.5.5 0 0 0 .097.782c.924.554 3.107 1.03 5.173-.677A10.812 10.812 0 0 0 12 21Zm4-8a1 1 0 1 0 0-2 1 1 0 0 0 0 2Zm-3-1a1 1 0 1 1-2 0 1 1 0 0 1 2 0Zm-5 1a1 1 0 1 0 0-2 1 1 0 0 0 0 2Z" clip-rule="evenodd"/></symbol>
  <use href="#icon"/>
</svg>
