<svg xmlns="http://www.w3.org/2000/svg">
  <symbol id="icon" fill="none" viewBox="0 0 16 16"><path fill="currentColor" fill-rule="evenodd" d="M7.748 1.726a.5.5 0 0 1 .504 0L13.008 4.5 8 7.421l-5.008-2.92 4.756-2.775ZM2.5 5.37v2.342l2 1.166V6.537l-2-1.166Zm3 1.75v2.342l2 1.167V8.287l-2-1.166Zm3 1.166v2.342l2-1.166V7.12l-2 1.166Zm3-1.75V8.88l2-1.166V5.37l-2 1.166Zm0 3.5 2-1.166v2.055a.5.5 0 0 1-.248.432L11.5 12.379v-2.342Zm-3 1.75 2-1.167v2.343l-2 1.167v-2.343Zm-3-1.167 2 1.167v2.342l-2-1.166V10.62Zm-3-1.75 2 1.167v2.342l-1.752-1.021a.5.5 0 0 1-.248-.432V8.87ZM8.756.863a1.5 1.5 0 0 0-1.512 0l-5 2.917A1.5 1.5 0 0 0 1.5 5.074v5.852a1.5 1.5 0 0 0 .744 1.295l5 2.917a1.5 1.5 0 0 0 1.512 0l5-2.917a1.5 1.5 0 0 0 .744-1.295V5.074a1.5 1.5 0 0 0-.744-1.295l-5-2.917Z" clip-rule="evenodd"/></symbol>
  <symbol id="icon-large" fill="none" viewBox="0 0 24 24"><path fill="currentColor" fill-rule="evenodd" d="M11.74 2.245a.5.5 0 0 1 .52 0L20.042 7 12 11.914 3.959 7l7.78-4.755ZM3.5 7.892v3.828L7 13.858V10.03L3.5 7.892Zm4.5 2.75v3.828l3.5 2.138V12.78L8 10.642Zm4.5 2.138v3.829l3.5-2.14v-3.827l-3.5 2.138Zm4.5-2.75v3.829l3.5-2.14V7.893L17 10.03Zm0 5 3.5-2.138v3.547a.5.5 0 0 1-.24.427L17 18.858V15.03Zm-4.5 2.75 3.5-2.139v3.829l-3.5 2.139V17.78ZM8 15.641l3.5 2.14v3.828L8 19.468V15.64Zm-4.5-2.75 3.5 2.14v3.827l-3.26-1.992a.5.5 0 0 1-.24-.427v-3.547Zm9.282-11.499a1.5 1.5 0 0 0-1.564 0l-8 4.889A1.5 1.5 0 0 0 2.5 7.56v8.878a1.5 1.5 0 0 0 .718 1.28l8 4.889a1.5 1.5 0 0 0 1.564 0l8-4.889a1.5 1.5 0 0 0 .718-1.28V7.561a1.5 1.5 0 0 0-.718-1.28l-8-4.889Z" clip-rule="evenodd"/></symbol>
  <use href="#icon"/>
</svg>
