<svg xmlns="http://www.w3.org/2000/svg">
  <symbol id="icon" fill="none" viewBox="0 0 16 16"><path fill="currentColor" fill-rule="evenodd" d="M8.266 1.758a.5.5 0 0 0-.532 0l-5 3.14a.5.5 0 0 0-.234.424v5.356a.5.5 0 0 0 .234.423l5 3.141a.5.5 0 0 0 .532 0l5-3.14a.5.5 0 0 0 .234-.424V5.322a.5.5 0 0 0-.234-.423l-5-3.141ZM7.202.91a1.5 1.5 0 0 1 1.596 0l5 3.14a1.5 1.5 0 0 1 .702 1.27v5.357a1.5 1.5 0 0 1-.702 1.27l-5 3.141a1.5 1.5 0 0 1-1.596 0l-5-3.14a1.5 1.5 0 0 1-.702-1.271V5.322a1.5 1.5 0 0 1 .702-1.27l5-3.141Zm-1.124 9.366a.5.5 0 0 1 .69-.153l.732.465V8.274l-.768-.489a.5.5 0 0 1 .536-.843l.993.631a.501.501 0 0 1 .239.435v2.581l.732-.466a.5.5 0 0 1 .536.844l-1.5.955a.5.5 0 0 1-.536 0l-1.5-.955a.5.5 0 0 1-.154-.69ZM8 6.38a.625.625 0 1 0 0-1.25.625.625 0 0 0 0 1.25Z" clip-rule="evenodd"/></symbol>
  <symbol id="icon-large" fill="none" viewBox="0 0 24 24"><path fill="currentColor" fill-rule="evenodd" d="M11.74 2.245a.5.5 0 0 1 .52 0l8 4.89a.5.5 0 0 1 .24.426v8.878a.5.5 0 0 1-.24.427l-8 4.889a.5.5 0 0 1-.52 0l-8-4.89a.5.5 0 0 1-.24-.426V7.561a.5.5 0 0 1 .24-.427l8-4.889Zm1.042-.853a1.5 1.5 0 0 0-1.564 0l-8 4.889A1.5 1.5 0 0 0 2.5 7.56v8.878a1.5 1.5 0 0 0 .718 1.28l8 4.889a1.5 1.5 0 0 0 1.564 0l8-4.889a1.5 1.5 0 0 0 .718-1.28V7.561a1.5 1.5 0 0 0-.718-1.28l-8-4.889Zm-2.558 8.16a.5.5 0 1 0-.448.895l1.724.862v5.308L9.757 15.57a.5.5 0 1 0-.514.858l2.5 1.5a.5.5 0 0 0 .514 0l2.5-1.5a.5.5 0 0 0-.514-.858L12.5 16.617V11a.5.5 0 0 0-.276-.447l-2-1ZM12 8.25a.75.75 0 1 0 0-1.5.75.75 0 0 0 0 1.5Z" clip-rule="evenodd"/></symbol>
  <use href="#icon"/>
</svg>
