<svg xmlns="http://www.w3.org/2000/svg">
  <symbol id="icon" fill="none" viewBox="0 0 16 16"><path fill="currentColor" d="M10 2c1.018 0 1.963.176 2.672.48.354.151.672.344.91.584.238.243.418.56.418.936v5c0 .376-.18.693-.419.936-.237.24-.555.433-.91.585-.708.303-1.653.479-2.671.479v1.5a.5.5 0 0 1-.303.46l-3.5 1.5a.502.502 0 0 1-.394 0l-3.5-1.5A.5.5 0 0 1 2 12.5v-4a.5.5 0 0 1 .303-.46l3.5-1.5.097-.03A.502.502 0 0 1 6 6.5V4c0-.376.18-.693.419-.936.237-.24.555-.433.91-.585C8.036 2.176 8.981 2 10 2ZM3 12.169l2.5 1.071v-2.91L3 9.26v2.91Zm3.5-1.839v2.91L9 12.17V9.26l-2.5 1.07ZM13 5.358a3.767 3.767 0 0 1-.328.163C11.962 5.824 11.018 6 10 6c-1.018 0-1.963-.176-2.672-.48A3.773 3.773 0 0 1 7 5.359v1.526L9.697 8.04A.5.5 0 0 1 10 8.5V10c.915 0 1.72-.16 2.278-.398.28-.12.474-.25.591-.37.115-.116.131-.194.131-.232V5.358ZM3.77 8.5 6 9.455 8.23 8.5 6 7.544 3.77 8.5ZM10 3c-.915 0-1.72.16-2.278.398-.28.12-.474.25-.591.37C7.016 3.884 7 3.962 7 4c0 .038.016.116.13.232.118.12.312.25.592.37C8.279 4.84 9.085 5 10 5s1.72-.16 2.278-.398c.28-.12.474-.25.591-.37.115-.116.131-.194.131-.232 0-.038-.016-.116-.13-.232-.118-.12-.312-.25-.592-.37C11.721 3.16 10.915 3 10 3Z"/></symbol>
  <symbol id="icon-large" fill="none" viewBox="0 0 24 24"><path fill="currentColor" fill-rule="evenodd" d="M18.811 4.68C19.663 5.106 20 5.6 20 6s-.337.894-1.189 1.32C17.99 7.731 16.82 8 15.5 8c-1.32 0-2.49-.269-3.312-.68C11.337 6.894 11 6.4 11 6s.337-.894 1.188-1.32C13.01 4.269 14.18 4 15.5 4c1.32 0 2.49.269 3.311.68Z" clip-rule="evenodd"/></symbol>
  <use href="#icon"/>
</svg>
