<svg xmlns="http://www.w3.org/2000/svg">
  <symbol id="icon" fill="none" viewBox="0 0 16 16"><path fill="currentColor" fill-rule="evenodd" d="M7.074 12.959c.292.027.6.041.926.041.325 0 .634-.014.926-.041a.5.5 0 1 1 .093.995 11.05 11.05 0 0 1-2.038 0 .5.5 0 0 1 .093-.995Zm-4.73-1.795a.5.5 0 0 1 .707.015c.375.39.84.757 1.418 1.057a.5.5 0 0 1-.46.888 6.4 6.4 0 0 1-1.68-1.253.5.5 0 0 1 .015-.707Zm10.605.015a.5.5 0 0 1 .722.692c-.446.465-.998.9-1.68 1.253a.5.5 0 0 1-.46-.888 5.396 5.396 0 0 0 1.418-1.057ZM.755 6.817a.5.5 0 0 1 .953.303 5.378 5.378 0 0 0-.204.884v.005l.001.001a6.357 6.357 0 0 1-.75-1.193Zm13.862-.325a.5.5 0 0 1 .628.325 6.362 6.362 0 0 1 .246 1.087.49.49 0 0 1 0 .09.499.499 0 0 1-.007.161 6.26 6.26 0 0 1-.239 1.028.5.5 0 0 1-.953-.303c.131-.413.184-.73.202-.861l.001-.01.001-.009v-.009l-.001-.001v-.01a5.386 5.386 0 0 0-.203-.86.5.5 0 0 1 .325-.629ZM4.01 2.876a.5.5 0 0 1 .46.888c-.579.3-1.043.667-1.418 1.057a.5.5 0 0 1-.722-.692 6.39 6.39 0 0 1 1.68-1.253Zm7.308.214a.5.5 0 0 1 .674-.214 6.401 6.401 0 0 1 1.68 1.253.5.5 0 0 1-.722.692 5.398 5.398 0 0 0-1.418-1.057.5.5 0 0 1-.214-.674ZM8 2c.355 0 .695.016 1.019.046a.5.5 0 0 1-.093.995C8.634 3.014 8.326 3 8 3c-.325 0-.634.014-.926.041a.5.5 0 1 1-.093-.995C7.306 2.016 7.645 2 8 2Zm-.043 2c3.631 0 5.012 2.66 5.368 3.546.118.293.118.615 0 .908C12.969 9.34 11.589 12 7.957 12c-3.632 0-5.012-2.66-5.369-3.546a1.21 1.21 0 0 1 0-.908C2.945 6.66 4.325 4 7.957 4Zm0 1c-3.013 0-4.139 2.17-4.44 2.92a.209.209 0 0 0 0 .16c.301.75 1.427 2.92 4.44 2.92 3.012 0 4.138-2.17 4.44-2.92a.209.209 0 0 0 0-.16C12.095 7.17 10.969 5 7.957 5Zm0 2a1 1 0 1 0 0 2 1 1 0 0 0 0-2Z" clip-rule="evenodd"/></symbol>
  <symbol id="icon-large" fill="none" viewBox="0 0 24 24"><path fill="currentColor" fill-rule="evenodd" d="M12.848 20.974a.5.5 0 1 1 .064.997 14.22 14.22 0 0 1-1.824 0 .5.5 0 1 1 .064-.997 13.224 13.224 0 0 0 1.696 0Zm-6.419-.775a.5.5 0 0 1 .665-.241c.49.23 1.013.429 1.572.59a.5.5 0 0 1-.278.96 11.656 11.656 0 0 1-1.717-.644.5.5 0 0 1-.242-.665Zm10.476-.241a.5.5 0 0 1 .425.906c-.536.251-1.109.469-1.719.645a.5.5 0 0 1-.276-.961c.558-.161 1.08-.36 1.57-.59Zm-13.893-2.49a.5.5 0 0 1 .707.021c.375.397.787.782 1.24 1.142a.5.5 0 0 1-.621.783c-.494-.392-.942-.81-1.346-1.238a.5.5 0 0 1 .02-.707Zm17.269.021a.5.5 0 1 1 .727.687c-.405.428-.852.846-1.345 1.238a.5.5 0 0 1-.622-.783c.453-.36.866-.745 1.24-1.142ZM1.044 14.564a.5.5 0 0 1 .68.19c.134.238.28.482.438.73a.5.5 0 0 1-.842.539 16.02 16.02 0 0 1-.467-.778.5.5 0 0 1 .19-.68Zm21.232.19a.5.5 0 0 1 .871.491c-.142.253-.297.513-.467.778a.5.5 0 1 1-.841-.54c.158-.247.304-.491.437-.728ZM1.32 7.979a.5.5 0 0 1 .842.539 14.79 14.79 0 0 0-.438.728.5.5 0 1 1-.87-.49c.141-.253.297-.513.466-.777Zm20.67-.152a.5.5 0 0 1 .69.152c.17.264.325.524.467.777a.5.5 0 0 1-.871.49 14.98 14.98 0 0 0-.438-.728.5.5 0 0 1 .152-.69ZM4.338 4.586a.5.5 0 0 1 .622.783c-.454.36-.866.745-1.24 1.142a.5.5 0 0 1-.728-.687c.404-.428.852-.846 1.346-1.238Zm14.623.08a.5.5 0 0 1 .702-.08c.493.392.94.81 1.345 1.238a.5.5 0 1 1-.727.687 11.832 11.832 0 0 0-1.24-1.142.5.5 0 0 1-.08-.703ZM8.388 2.491a.5.5 0 0 1 .278.961 10.59 10.59 0 0 0-1.572.59.5.5 0 0 1-.423-.906 11.647 11.647 0 0 1 1.717-.645Zm7.223 0c.61.176 1.183.394 1.719.645a.5.5 0 0 1-.425.906c-.49-.23-1.012-.429-1.57-.59a.5.5 0 0 1 .276-.96ZM12 2c.31 0 .615.01.912.03a.5.5 0 1 1-.064.997 13.254 13.254 0 0 0-1.696 0 .5.5 0 0 1-.064-.998c.297-.019.6-.029.912-.029Zm0 2c6.923 0 9.77 6.073 10.347 7.503.129.32.129.674 0 .994C21.77 13.927 18.923 20 12 20s-9.77-6.073-10.347-7.503a1.325 1.325 0 0 1 0-.994C2.23 10.073 5.077 4 12 4Zm0 1c-6.237 0-8.853 5.473-9.419 6.876a.327.327 0 0 0 0 .248C3.147 13.526 5.763 19 12 19s8.853-5.473 9.419-6.876a.327.327 0 0 0 0-.248C20.853 10.474 18.237 5 12 5Zm0 4a3 3 0 1 1 0 6 3 3 0 0 1 0-6Zm0 7a4 4 0 1 0 0-8 4 4 0 0 0 0 8Z" clip-rule="evenodd"/></symbol>
  <use href="#icon"/>
</svg>
