<svg xmlns="http://www.w3.org/2000/svg">
  <symbol id="icon" fill="none" viewBox="0 0 16 16"><path fill="currentColor" fill-rule="evenodd" d="M6.223 2.267A6.007 6.007 0 0 0 2.02 7.501h2.987c.047-1.646.323-3.144.759-4.277a6.18 6.18 0 0 1 .457-.957ZM8 2c-.156 0-.36.08-.603.347-.243.267-.485.682-.698 1.236-.384 1-.645 2.371-.692 3.917h3.986c-.047-1.546-.308-2.917-.692-3.917-.213-.554-.455-.969-.698-1.236C8.36 2.08 8.156 2 8 2Zm2.993 5.5c-.047-1.645-.323-3.143-.759-4.276a6.178 6.178 0 0 0-.457-.957A6.005 6.005 0 0 1 13.98 7.5h-2.987Zm-1 1H6.007c.046 1.546.307 2.918.69 3.917.214.554.456.969.699 1.236.243.267.447.347.603.347.156 0 .36-.08.603-.347.243-.267.485-.682.698-1.236.384-1 .645-2.37.691-3.917Zm-.216 5.233c.17-.285.323-.608.457-.957.436-1.133.712-2.631.759-4.276h2.986a6.005 6.005 0 0 1-4.202 5.233ZM8 15A7 7 0 1 0 8 1a7 7 0 0 0 0 14Zm-1.777-1.267a6.179 6.179 0 0 1-.457-.957c-.436-1.133-.712-2.63-.759-4.275H2.021a6.005 6.005 0 0 0 4.202 5.232Z" clip-rule="evenodd"/></symbol>
  <symbol id="icon-large" fill="none" viewBox="0 0 24 24"><path fill="currentColor" fill-rule="evenodd" d="M9.74 3.286A9.005 9.005 0 0 0 3.015 11.5h4.491c.053-2.477.498-4.73 1.206-6.412.293-.696.638-1.31 1.03-1.802ZM12 3c-.38 0-.786.18-1.203.6-.418.42-.818 1.053-1.165 1.877-.647 1.536-1.074 3.652-1.126 6.023h6.988c-.053-2.371-.48-4.487-1.126-6.023-.347-.824-.747-1.457-1.165-1.878C12.786 3.181 12.38 3 12 3Zm4.495 8.5c-.053-2.477-.498-4.73-1.206-6.412-.293-.696-.638-1.31-1.03-1.802a9.005 9.005 0 0 1 6.727 8.214h-4.491Zm-1 1h-6.99c.053 2.371.48 4.487 1.127 6.023.347.824.747 1.457 1.165 1.878.417.418.823.599 1.203.599.38 0 .786-.18 1.203-.6.418-.42.818-1.053 1.165-1.877.647-1.536 1.073-3.652 1.126-6.023Zm-1.236 8.214c.392-.492.737-1.106 1.03-1.802.708-1.682 1.153-3.935 1.206-6.412h4.491a9.005 9.005 0 0 1-6.727 8.214ZM12 22c5.523 0 10-4.477 10-10S17.523 2 12 2 2 6.477 2 12s4.477 10 10 10Zm-2.26-1.286c-.391-.492-.736-1.106-1.03-1.802-.707-1.682-1.152-3.935-1.205-6.412H3.014a9.005 9.005 0 0 0 6.727 8.214Z" clip-rule="evenodd"/></symbol>
  <use href="#icon"/>
</svg>
