<svg xmlns="http://www.w3.org/2000/svg">
  <symbol id="icon" fill="none" viewBox="0 0 16 16"><path fill="currentColor" fill-rule="evenodd" d="M8 2C4.778 2 2 4.778 2 8c0 2.588 1.797 4.903 4.193 5.704a.858.858 0 0 0 .882-.19c.25-.226.425-.596.425-1.014A2.5 2.5 0 0 1 10 10h2.411c.921 0 1.568-.588 1.584-1.42.003-.177.005-.37.005-.58 0-3.224-2.778-6-6-6ZM1 8c0-3.774 3.226-7 7-7s7 3.224 7 7c0 .216-.002.415-.005.598C14.967 10.062 13.786 11 12.41 11H10a1.5 1.5 0 0 0-1.5 1.5c0 .687-.284 1.331-.755 1.756a1.857 1.857 0 0 1-1.869.396C3.1 13.725 1 11.047 1 8Zm5 1.75a1 1 0 1 1-2 0 1 1 0 0 1 2 0ZM5.25 7.5a1 1 0 1 0 0-2 1 1 0 0 0 0 2ZM9 4.5a1 1 0 1 1-2 0 1 1 0 0 1 2 0ZM11 7a1 1 0 1 0 0-2 1 1 0 0 0 0 2Z" clip-rule="evenodd"/></symbol>
  <symbol id="icon-large" fill="none" viewBox="0 0 24 24"><path fill="currentColor" fill-rule="evenodd" d="M12 3a9 9 0 0 0-2.57 17.628c.543.161 1.042.01 1.422-.337.389-.355.648-.916.648-1.541a3.25 3.25 0 0 1 3.25-3.25h2.75A3.5 3.5 0 0 0 21 12a9 9 0 0 0-9-9ZM2 12C2 6.477 6.477 2 12 2s10 4.477 10 10a4.5 4.5 0 0 1-4.5 4.5h-2.75a2.25 2.25 0 0 0-2.25 2.25c0 .894-.369 1.727-.973 2.28-.612.56-1.47.828-2.382.556C5.014 20.358 2 16.531 2 12Zm5.5 1.5a.5.5 0 1 0 0 1 .5.5 0 0 0 0-1ZM6 14a1.5 1.5 0 1 1 3 0 1.5 1.5 0 0 1-3 0Zm1.5-4.5a.5.5 0 1 1 1 0 .5.5 0 0 1-1 0ZM8 8a1.5 1.5 0 1 0 0 3 1.5 1.5 0 0 0 0-3Zm4-1.5a.5.5 0 1 0 0 1 .5.5 0 0 0 0-1Zm-1.5.5a1.5 1.5 0 1 1 3 0 1.5 1.5 0 0 1-3 0Zm5 2a.5.5 0 1 1 1 0 .5.5 0 0 1-1 0Zm.5-1.5a1.5 1.5 0 1 0 0 3 1.5 1.5 0 0 0 0-3Z" clip-rule="evenodd"/></symbol>
  <use href="#icon"/>
</svg>
