<svg xmlns="http://www.w3.org/2000/svg">
  <symbol id="icon" fill="none" viewBox="0 0 16 16"><path fill="currentColor" fill-rule="evenodd" d="M2 9a1 1 0 0 0-1 1v1a.5.5 0 0 0 1 0v-1h1a.5.5 0 0 0 0-1H2Zm3 0a.5.5 0 0 0 0 1h1v1a.5.5 0 0 0 1 0v-1a1 1 0 0 0-1-1H5Zm-3 4a.5.5 0 0 0-1 0v1a1 1 0 0 0 1 1h1a.5.5 0 0 0 0-1H2v-1Zm5 0a.5.5 0 0 0-1 0v1H5a.5.5 0 0 0 0 1h1a1 1 0 0 0 1-1v-1Zm7-3.5a.5.5 0 1 0-1 0v1a1.5 1.5 0 0 1-1.5 1.5h-.793l.646-.646a.5.5 0 1 0-.707-.707l-1.5 1.5a.5.5 0 0 0 0 .707l1.5 1.5a.5.5 0 0 0 .707-.708L10.707 13h.793a2.5 2.5 0 0 0 2.5-2.5v-1Zm-4-7a.5.5 0 0 1 .5-.5h3a.5.5 0 0 1 .5.5v3a.5.5 0 0 1-.5.5h-3a.5.5 0 0 1-.5-.5v-3Zm.5-1.5A1.5 1.5 0 0 0 9 2.5v3A1.5 1.5 0 0 0 10.5 7h3A1.5 1.5 0 0 0 15 5.5v-3A1.5 1.5 0 0 0 13.5 1h-3Zm-6 3A1.5 1.5 0 0 0 3 5.5v1a.5.5 0 0 1-1 0v-1A2.5 2.5 0 0 1 4.5 3h.793l-.647-.646a.5.5 0 1 1 .707-.708l1.5 1.5a.5.5 0 0 1 0 .708l-1.5 1.5a.5.5 0 1 1-.707-.708L5.293 4H4.5Z" clip-rule="evenodd"/></symbol>
  <symbol id="icon-large" fill="none" viewBox="0 0 24 24"><path fill="currentColor" fill-rule="evenodd" d="M4 14.5a.5.5 0 0 1 .5-.5.5.5 0 0 0 0-1A1.5 1.5 0 0 0 3 14.5a.5.5 0 0 0 1 0ZM6.5 13a.5.5 0 0 0 0 1h1a.5.5 0 0 0 0-1h-1Zm3 0a.5.5 0 0 0 0 1 .5.5 0 0 1 .5.5.5.5 0 0 0 1 0A1.5 1.5 0 0 0 9.5 13ZM4 16.5a.5.5 0 0 0-1 0v1a.5.5 0 0 0 1 0v-1Zm7 0a.5.5 0 0 0-1 0v1a.5.5 0 0 0 1 0v-1Zm-7 3a.5.5 0 0 0-1 0A1.5 1.5 0 0 0 4.5 21a.5.5 0 0 0 0-1 .5.5 0 0 1-.5-.5Zm7 0a.5.5 0 0 0-1 0 .5.5 0 0 1-.5.5.5.5 0 0 0 0 1 1.5 1.5 0 0 0 1.5-1.5Zm-4.5.5a.5.5 0 0 0 0 1h1a.5.5 0 0 0 0-1h-1ZM21 14.5a.5.5 0 0 0-1 0v2a3.5 3.5 0 0 1-3.5 3.5h-1.793l1.147-1.146a.5.5 0 0 0-.708-.708l-2 2a.5.5 0 0 0 0 .708l2 2a.5.5 0 0 0 .708-.708L14.707 21H16.5a4.5 4.5 0 0 0 4.5-4.5v-2Zm-7-10a.5.5 0 0 1 .5-.5h5a.5.5 0 0 1 .5.5v5a.5.5 0 0 1-.5.5h-5a.5.5 0 0 1-.5-.5v-5Zm.5-1.5A1.5 1.5 0 0 0 13 4.5v5a1.5 1.5 0 0 0 1.5 1.5h5A1.5 1.5 0 0 0 21 9.5v-5A1.5 1.5 0 0 0 19.5 3h-5Zm-7 1A3.5 3.5 0 0 0 4 7.5v2a.5.5 0 0 1-1 0v-2A4.5 4.5 0 0 1 7.5 3h1.793L8.146 1.854a.5.5 0 1 1 .708-.708l2 2a.5.5 0 0 1 0 .708l-2 2a.5.5 0 0 1-.708-.708L9.293 4H7.5Z" clip-rule="evenodd"/></symbol>
  <use href="#icon"/>
</svg>
