<svg xmlns="http://www.w3.org/2000/svg">
  <symbol id="icon" fill="none" viewBox="0 0 16 16"><path fill="currentColor" fill-rule="evenodd" d="M7.748 1.726a.5.5 0 0 1 .504 0L13.008 4.5l-2.222 1.296-2.534-1.478a.5.5 0 0 0-.504 0L5.214 5.796 2.992 4.5l4.756-2.774ZM2.5 5.37v5.555a.5.5 0 0 0 .248.431L7.5 14.13v-2.593L4.748 9.932A.5.5 0 0 1 4.5 9.5V6.537l-2-1.166Zm9 1.166V9.5a.5.5 0 0 1-.248.432L8.5 11.537v2.592l4.752-2.771a.5.5 0 0 0 .248-.432V5.37l-2 1.166ZM8.756.862a1.5 1.5 0 0 0-1.512 0l-5 2.917A1.5 1.5 0 0 0 1.5 5.074v5.852a1.5 1.5 0 0 0 .744 1.295l5 2.917a1.5 1.5 0 0 0 1.512 0l5-2.917a1.5 1.5 0 0 0 .744-1.295V5.074a1.5 1.5 0 0 0-.744-1.295l-5-2.917ZM5.5 9.212V6.788L8 5.33l2.5 1.458v2.426L8 10.67 5.5 9.213Z" clip-rule="evenodd"/></symbol>
  <symbol id="icon-large" fill="none" viewBox="0 0 24 24"><path fill="currentColor" fill-rule="evenodd" d="M11.74 2.245a.5.5 0 0 1 .52 0L20.042 7l-3.09 1.888-4.694-2.817a.5.5 0 0 0-.514 0L7.048 8.888 3.958 7l7.781-4.755Zm5.76 7.48 3-1.834v8.548a.5.5 0 0 1-.24.427l-7.76 4.742v-3.825l4.757-2.854a.5.5 0 0 0 .243-.43V9.726Zm-6 8.058-4.757-2.854a.5.5 0 0 1-.243-.43V9.726l-3-1.834v8.548a.5.5 0 0 0 .24.427l7.76 4.742v-3.825Zm1.282-16.391a1.5 1.5 0 0 0-1.564 0l-8 4.889A1.5 1.5 0 0 0 2.5 7.56v8.878a1.5 1.5 0 0 0 .718 1.28l8 4.889a1.5 1.5 0 0 0 1.564 0l8-4.889a1.5 1.5 0 0 0 .718-1.28V7.561a1.5 1.5 0 0 0-.718-1.28l-8-4.889ZM7.5 14.217V9.783l4.5-2.7 4.5 2.7v4.434l-4.5 2.7-4.5-2.7Z" clip-rule="evenodd"/></symbol>
  <use href="#icon"/>
</svg>
