<svg xmlns="http://www.w3.org/2000/svg">
  <symbol id="icon" fill="none" viewBox="0 0 16 16"><path fill="currentColor" d="M8 1.5a6.498 6.498 0 0 1 6.479 6h.021v1h-.021a6.498 6.498 0 0 1-12.958 0l-.021.001v-1l.02-.001A6.5 6.5 0 0 1 8 1.5Zm-1.99 7c.05 1.403.306 2.646.683 3.55.211.507.45.885.69 1.128.238.241.446.322.617.322.171 0 .38-.08.617-.322.24-.243.479-.62.69-1.127.377-.905.632-2.148.682-3.551H6.011Zm-3.487 0a5.503 5.503 0 0 0 3.618 4.677 5.82 5.82 0 0 1-.37-.742c-.436-1.046-.71-2.424-.76-3.935H2.523Zm8.466 0c-.05 1.511-.324 2.889-.76 3.935-.11.265-.235.514-.37.742A5.502 5.502 0 0 0 13.475 8.5h-2.487ZM9.86 2.822c.135.228.26.477.37.743.436 1.046.71 2.424.76 3.935h2.487a5.503 5.503 0 0 0-3.618-4.678ZM8 2.5c-.171 0-.38.08-.617.322-.24.243-.479.62-.69 1.127-.377.905-.632 2.148-.682 3.551h3.978c-.05-1.403-.305-2.646-.682-3.55-.211-.507-.45-.885-.69-1.128C8.38 2.581 8.171 2.5 8 2.5Zm-1.86.322A5.504 5.504 0 0 0 2.524 7.5h2.488c.05-1.511.324-2.889.76-3.935.11-.266.234-.515.37-.743Z"/></symbol>
  <symbol id="icon-large" fill="none" viewBox="0 0 24 24"><path fill="currentColor" fill-rule="evenodd" d="M16.495 12.5h4.491a9.005 9.005 0 0 1-6.727 8.214c.392-.493.737-1.106 1.03-1.803.708-1.681 1.153-3.934 1.206-6.411Zm0-1h4.491a9.005 9.005 0 0 0-6.727-8.214c.392.493.737 1.106 1.03 1.803.708 1.682 1.153 3.934 1.206 6.411ZM9.74 3.286c-.392.493-.737 1.106-1.03 1.803C8.003 6.77 7.558 9.023 7.505 11.5H3.014A9.005 9.005 0 0 1 9.74 3.286ZM8.506 11.5c.053-2.371.48-4.487 1.127-6.023.346-.823.746-1.457 1.165-1.877.416-.419.822-.6 1.202-.6s.786.181 1.202.6c.419.42.819 1.054 1.165 1.877.647 1.536 1.074 3.652 1.127 6.023H8.506Zm0 1h6.988c-.053 2.371-.48 4.486-1.127 6.023-.346.823-.746 1.457-1.165 1.877-.416.419-.822.6-1.202.6s-.786-.181-1.202-.6c-.419-.42-.819-1.053-1.165-1.877-.647-1.537-1.074-3.652-1.127-6.023Zm-1 0H3.013a9.005 9.005 0 0 0 6.727 8.214c-.392-.493-.737-1.106-1.03-1.803-.708-1.681-1.153-3.934-1.206-6.411ZM12 22c5.523 0 10-4.477 10-10S17.523 2 12 2 2 6.477 2 12s4.477 10 10 10Z" clip-rule="evenodd"/></symbol>
  <use href="#icon"/>
</svg>
