<svg xmlns="http://www.w3.org/2000/svg">
  <symbol id="icon" fill="none" viewBox="0 0 16 16"><path fill="currentColor" d="M8 1.5a6.5 6.5 0 1 1 0 13 6.5 6.5 0 0 1 0-13Zm0 1a5.5 5.5 0 1 0 0 11 5.5 5.5 0 0 0 0-11Zm0 8.25a.75.75 0 1 1 0 1.5.75.75 0 0 1 0-1.5ZM8 4c1.235 0 2.5.841 2.5 2.25 0 .707-.362 1.236-.712 1.581a3.52 3.52 0 0 1-.864.616c-.083.041-.424.263-.424.953v.1a.5.5 0 0 1-1 0v-.1c0-1.11.592-1.655.977-1.847.095-.048.368-.195.61-.434.241-.238.413-.526.413-.869C9.5 5.559 8.865 5 8 5s-1.5.56-1.5 1.25a.5.5 0 0 1-1 0C5.5 4.841 6.765 4 8 4Z"/></symbol>
  <symbol id="icon-large" fill="none" viewBox="0 0 24 24"><path fill="currentColor" fill-rule="evenodd" d="M21 12a9 9 0 1 0-18 0 9 9 0 0 0 18 0Zm1 0c0 5.523-4.477 10-10 10S2 17.523 2 12 6.477 2 12 2s10 4.477 10 10Zm-9.25 4.75a.75.75 0 1 1-1.5 0 .75.75 0 0 1 1.5 0ZM11.5 14v.5a.5.5 0 0 0 1 0V14c0-1.002.552-1.467.724-1.553h.002c.175-.089.725-.363 1.235-.827.51-.463 1.039-1.17 1.039-2.12 0-.932-.47-1.693-1.13-2.207A3.909 3.909 0 0 0 12 6.5c-.855 0-1.714.284-2.37.793C8.97 7.807 8.5 8.568 8.5 9.5a.5.5 0 0 0 1 0c0-.568.28-1.057.744-1.418A2.912 2.912 0 0 1 12 7.5c.645 0 1.286.217 1.756.582.464.361.744.85.744 1.418 0 .55-.304 1.01-.71 1.38a4.505 4.505 0 0 1-1.014.673C12.281 11.8 11.5 12.603 11.5 14Z" clip-rule="evenodd"/></symbol>
  <use href="#icon"/>
</svg>
