<svg xmlns="http://www.w3.org/2000/svg">
  <symbol id="icon" fill="none" viewBox="0 0 16 16"><path fill="currentColor" d="M7 14q-.64-.02-.97-.53c-.19-.3-.25-.67-.26-1.03L5.8 12H2.5a.5.5 0 0 1 0-1h3.48a9 9 0 0 1 1.84-3.6q.38-.45.84-.77c0-.8-.05-1.52-.15-2.04q-.14-.7-.31-1c-.12-.23-.22-.3-.26-.31q-.03-.04-.13.01-.15.06-.38.34c-.62.8-1.17 2.65-.93 4.81a.5.5 0 0 1-1 .11c-.26-2.33.32-4.46 1.14-5.53q.31-.42.74-.63c.3-.14.65-.18.98-.02.31.14.55.42.72.75q.27.5.41 1.29.14.74.17 1.79.16-.03.34-.03c.67 0 1.15.3 1.43.76.26.43.32.95.32 1.4q-.01.52-.08.96l.08-.03A8 8 0 0 1 13.5 9a.5.5 0 0 1 0 1c-.43 0-1.01.11-1.5.23l-.78.22-.05.02h-.01a.5.5 0 0 1-.64-.62l.01-.02.03-.1a7 7 0 0 0 .2-1.4q0-.58-.18-.89c-.1-.15-.25-.27-.58-.27q-.16 0-.34.06A21 21 0 0 1 9.23 11h4.27a.5.5 0 0 1 0 1H8.94a6 6 0 0 1-.27.67C8.34 13.35 7.81 14 7 14m-4.15-3.65a.5.5 0 0 1-.7-.7L2.79 9l-.64-.65a.5.5 0 0 1 .7-.7l.65.64.65-.64a.5.5 0 1 1 .7.7L4.21 9l.64.65a.5.5 0 0 1-.7.7l-.65-.64zM8.2 11q.14-.52.23-1.14.14-.92.2-1.86l-.06.06A8 8 0 0 0 7.02 11zM7 13c.2 0 .47-.16.77-.77l.1-.23H6.8l-.03.43c0 .27.06.43.1.5Q6.9 13 7 13"/></symbol>
  <symbol id="icon-large" fill="none" viewBox="0 0 24 24"><path fill="currentColor" d="M10.5 21c-.47 0-.76-.34-.9-.65a3 3 0 0 1-.28-1.17 8 8 0 0 1 .04-1.68H3.5a.5.5 0 0 1 0-1h6.03l.15-.65a10 10 0 0 1 2.93-5c.1-1.48.07-2.83-.1-3.76q-.2-1.05-.5-1.5c-.18-.32-.34-.41-.44-.44-.1-.02-.24 0-.45.14q-.34.22-.7.8c-.98 1.55-1.7 4.65-.93 7.8a.5.5 0 0 1-.97.23c-.82-3.4-.09-6.77 1.05-8.57q.44-.69.98-1.08c.36-.25.8-.4 1.25-.29.46.11.81.44 1.08.9q.4.66.61 1.83c.16.84.2 1.96.16 3.18a7 7 0 0 1 1.18-.56l.12-.04a1 1 0 0 1 .43.03c.2.07.32.22.4.36.13.24.16.56.16.82 0 .57-.11 1.33-.24 2.04l-.19 1.03a3 3 0 0 1 .88-.52 2.2 2.2 0 0 1 1.52.03c.85.28 1.37.67 2.4.26a.5.5 0 0 1 .38.92c-1.47.59-2.45-.02-3.1-.24-.32-.1-.57-.13-.86-.03-.32.11-.75.4-1.35 1.13l-.14.14a.6.6 0 0 1-.32.12.5.5 0 0 1-.46-.23l-.1-.25-.02-.32.04-.33c.07-.48.22-1.2.34-1.89a12 12 0 0 0 .21-2q-.75.31-1.36.8a40 40 0 0 1-.75 5.14h7.68a.5.5 0 1 1 0 1h-7.92a17 17 0 0 1-.49 1.6q-.27.76-.61 1.26c-.2.29-.52.64-.98.64m-6.65-5.65a.5.5 0 0 1-.7-.7l1.14-1.15-1.14-1.15a.5.5 0 0 1 .7-.7L5 12.79l1.15-1.14a.5.5 0 0 1 .7.7L5.71 13.5l1.14 1.15a.5.5 0 0 1-.7.7L5 14.21zm7.94 1.15a33 33 0 0 0 .68-4.06 10 10 0 0 0-1.92 4.06zm-1.27 3.46.14-.17q.23-.33.5-1.04.2-.56.39-1.25h-1.18q-.12.91-.06 1.6.05.57.18.8z"/></symbol>
  <use href="#icon"/>
</svg>
