<svg xmlns="http://www.w3.org/2000/svg">
  <symbol id="icon" fill="none" viewBox="0 0 16 16"><path fill="currentColor" d="M8 2a.5.5 0 0 1 .5.5v9.793l2.646-2.647a.5.5 0 0 1 .707.707l-3.5 3.5a.5.5 0 0 1-.707 0l-3.5-3.5-.064-.078a.5.5 0 0 1 .693-.693l.078.064L7.5 12.293V2.5A.5.5 0 0 1 8 2Z"/></symbol>
  <symbol id="icon-large" fill="none" viewBox="0 0 24 24"><path fill="currentColor" fill-rule="evenodd" d="M12 3a.5.5 0 0 0-.5.5v15.793l-6.146-6.146a.5.5 0 1 0-.708.707l7 7a.5.5 0 0 0 .707 0l7-7a.5.5 0 1 0-.707-.707L12.5 19.293V3.5A.5.5 0 0 0 12 3Z" clip-rule="evenodd"/></symbol>
  <use href="#icon"/>
</svg>
