<svg xmlns="http://www.w3.org/2000/svg">
  <symbol id="icon" fill="none" viewBox="0 0 16 16"><path fill="currentColor" d="M13.5 11a.5.5 0 0 1 .5.5v1a1.5 1.5 0 0 1-1.5 1.5h-9A1.5 1.5 0 0 1 2 12.5v-1a.5.5 0 0 1 1 0v1a.5.5 0 0 0 .5.5h9a.5.5 0 0 0 .5-.5v-1a.5.5 0 0 1 .5-.5ZM8 2a.5.5 0 0 1 .354.146l2.5 2.5.064.079a.5.5 0 0 1-.693.693l-.079-.064L8.5 3.707V10.5a.5.5 0 0 1-1 0V3.707L5.854 5.354a.5.5 0 1 1-.708-.708l2.5-2.5.077-.062A.5.5 0 0 1 8 2Z"/></symbol>
  <symbol id="icon-large" fill="none" viewBox="0 0 24 24"><path fill="currentColor" fill-rule="evenodd" d="M12.354 3.146a.5.5 0 0 0-.63-.064l-.078.064-4 4a.5.5 0 1 0 .708.708L11.5 4.707V15.5a.5.5 0 0 0 1 0V4.707l3.146 3.147a.5.5 0 1 0 .707-.708l-4-4ZM3 19.5v-5a.5.5 0 0 1 1 0v5a.5.5 0 0 0 .5.5h15a.5.5 0 0 0 .5-.5v-5a.5.5 0 0 1 1 0v5a1.5 1.5 0 0 1-1.5 1.5h-15A1.5 1.5 0 0 1 3 19.5Z" clip-rule="evenodd"/></symbol>
  <use href="#icon"/>
</svg>
