<svg xmlns="http://www.w3.org/2000/svg">
  <symbol id="icon" fill="none" viewBox="0 0 16 16"><path fill="currentColor" d="M8 2c3.682 0 7 2.51 7 6s-3.318 6-7 6c-1.236 0-2.44-.379-3.431-.896-.603.504-1.19.81-1.725.953-.604.162-1.178.124-1.6-.129a.5.5 0 0 1-.097-.782c.134-.134.424-.549.6-1.089.175-.533.216-1.111-.028-1.624C1.402 9.767 1 8.917 1 8c0-3.49 3.32-6 7-6Zm0 1C4.687 3 2 5.23 2 8c0 .657.291 1.307.623 2.004.393.827.296 1.691.075 2.365-.092.28-.211.541-.336.768.069-.01.144-.024.223-.045.426-.115.972-.398 1.576-.959l.063-.05a.5.5 0 0 1 .526-.016C5.682 12.606 6.844 13 8 13c3.314 0 6-2.23 6-5s-2.686-5-6-5Zm0 2a.5.5 0 0 1 .5.5v2h2a.5.5 0 0 1 0 1h-2v2a.5.5 0 0 1-1 0v-2h-2a.5.5 0 0 1 0-1h2v-2A.5.5 0 0 1 8 5Z"/></symbol>
  <symbol id="icon-large" fill="none" viewBox="0 0 24 24"><path fill="currentColor" d="M12 3c5.47 0 10 3.98 10 9 0 5.022-4.53 9-10 9-1.853 0-3.592-.454-5.083-1.248-2.067 1.708-4.249 1.231-5.173.677a.501.501 0 0 1-.097-.782A5.63 5.63 0 0 0 2.749 18c.326-.766.45-1.628.055-2.457A8.214 8.214 0 0 1 2 12c0-5.022 4.531-9 10-9Zm0 1c-5.024 0-9 3.633-9 8 0 1.104.252 2.156.708 3.113.56 1.18.353 2.36-.04 3.28a6.572 6.572 0 0 1-.841 1.415c.867.252 2.3.258 3.686-1.028l.064-.051a.5.5 0 0 1 .526-.016A9.78 9.78 0 0 0 12.001 20c5.024 0 9-3.632 9-8 0-4.367-3.976-8-9-8Zm0 3a.5.5 0 0 1 .5.5v4h4a.5.5 0 0 1 0 1h-4v4a.5.5 0 0 1-1 0v-4h-4a.5.5 0 0 1 0-1h4v-4A.5.5 0 0 1 12 7Z"/></symbol>
  <use href="#icon"/>
</svg>
