<svg xmlns="http://www.w3.org/2000/svg">
  <symbol id="icon" fill="none" viewBox="0 0 16 16"><path fill="currentColor" d="M13 2a.5.5 0 0 1 0 1h-1l.9 1.2.052.087a.5.5 0 0 1-.783.588l-.07-.075L10.75 3H10v2.05a2.5 2.5 0 0 1 2 2.45v5.333c0 .644-.523 1.167-1.167 1.167H8.167A1.167 1.167 0 0 1 7 12.833V7.5a2.5 2.5 0 0 1 2-2.45V3l-.206.005A4 4 0 0 0 5 7v2.087A1.5 1.5 0 0 1 6 10.5v3a.5.5 0 0 1-.5.5h-2a.5.5 0 0 1-.5-.5v-3a1.5 1.5 0 0 1 1-1.413V7a5 5 0 0 1 5-5h4Zm-8.5 8a.5.5 0 0 0-.5.5V13h1v-2.5a.5.5 0 0 0-.5-.5ZM8 12.833c0 .092.075.167.167.167h2.666a.167.167 0 0 0 .167-.167V9H8v3.833ZM9.5 6A1.5 1.5 0 0 0 8 7.5V8h3v-.5A1.5 1.5 0 0 0 9.5 6Z"/></symbol>
  <symbol id="icon-large" fill="none" viewBox="0 0 24 24"><path fill="currentColor" fill-rule="evenodd" d="M5 9a7 7 0 0 1 7-7h5.5a.5.5 0 0 1 0 1H15v.5a.5.5 0 0 0 .5.5h2a.5.5 0 0 1 0 1h-2A1.5 1.5 0 0 1 14 3.5V3h-1.5v2.031A4 4 0 0 1 16 9v11.5a1.5 1.5 0 0 1-1.5 1.5h-5A1.5 1.5 0 0 1 8 20.5V9a4 4 0 0 1 3.5-3.969v-2.01A6 6 0 0 0 6 9v7.085A1.5 1.5 0 0 1 7 17.5v4a.5.5 0 0 1-.5.5h-2a.5.5 0 0 1-.5-.5v-4a1.5 1.5 0 0 1 1-1.415V9Zm7-3a3 3 0 0 0-3 3v2h6V9a3 3 0 0 0-3-3ZM9 16v-4h6v4H9Zm0 1v3.5a.5.5 0 0 0 .5.5h5a.5.5 0 0 0 .5-.5V17H9Zm-3.5 0a.5.5 0 0 1 .5.5V21H5v-3.5a.5.5 0 0 1 .5-.5Z" clip-rule="evenodd"/></symbol>
  <use href="#icon"/>
</svg>
