<svg xmlns="http://www.w3.org/2000/svg">
  <symbol id="icon" fill="none" viewBox="0 0 16 16"><path fill="currentColor" d="M8.5 6A1.5 1.5 0 0 1 10 7.5v5A1.5 1.5 0 0 1 8.5 14h-5A1.5 1.5 0 0 1 2 12.5v-5A1.5 1.5 0 0 1 3.5 6h5Zm-5 1a.5.5 0 0 0-.5.5v5a.5.5 0 0 0 .5.5h5a.5.5 0 0 0 .5-.5v-5a.5.5 0 0 0-.5-.5h-5ZM6 8a.5.5 0 0 1 .5.5v1h1a.5.5 0 0 1 0 1h-1v1a.5.5 0 0 1-1 0v-1h-1a.5.5 0 0 1 0-1h1v-1A.5.5 0 0 1 6 8Zm7.5 0a.5.5 0 0 1 .5.5 1.5 1.5 0 0 1-1.5 1.5H12a.5.5 0 0 1 0-1h.5a.5.5 0 0 0 .49-.4l.02-.2a.5.5 0 0 1 .49-.4Zm0-3a.5.5 0 0 1 .5.5v1a.5.5 0 0 1-1 0v-1a.5.5 0 0 1 .5-.5Zm-6-3a.5.5 0 0 1 .1.99l-.2.02a.5.5 0 0 0-.4.49V4a.5.5 0 0 1-1 0v-.5A1.5 1.5 0 0 1 7.5 2Zm5 0A1.5 1.5 0 0 1 14 3.5a.5.5 0 0 1-.99.1l-.02-.2a.501.501 0 0 0-.39-.39l-.2-.02a.5.5 0 0 1 .1-.99Zm-2 0a.5.5 0 0 1 0 1h-1a.5.5 0 0 1 0-1h1Z"/></symbol>
  <symbol id="icon-large" fill="none" viewBox="0 0 24 24"><path fill="currentColor" d="M14.5 8A1.5 1.5 0 0 1 16 9.5v10a1.5 1.5 0 0 1-1.5 1.5h-10A1.5 1.5 0 0 1 3 19.5v-10A1.5 1.5 0 0 1 4.5 8h10Zm-10 1a.5.5 0 0 0-.5.5v10a.5.5 0 0 0 .5.5h10a.5.5 0 0 0 .5-.5v-10a.5.5 0 0 0-.5-.5h-10Zm5 2a.5.5 0 0 1 .5.5V14h2.5a.5.5 0 0 1 0 1H10v2.5a.5.5 0 0 1-1 0V15H6.5a.5.5 0 0 1 0-1H9v-2.5a.5.5 0 0 1 .5-.5Zm11 2a.5.5 0 0 1 .5.5v1a1.5 1.5 0 0 1-1.5 1.5H18v-1h1.5a.5.5 0 0 0 .5-.5v-1a.5.5 0 0 1 .5-.5Zm0-5a.5.5 0 0 1 .5.5v2a.5.5 0 0 1-1 0v-2a.5.5 0 0 1 .5-.5Zm-10-5a.5.5 0 0 1 0 1h-1a.5.5 0 0 0-.5.5V6H8V4.5A1.5 1.5 0 0 1 9.5 3h1Zm9 0A1.5 1.5 0 0 1 21 4.5v1a.5.5 0 0 1-1 0v-1a.5.5 0 0 0-.5-.5h-1a.5.5 0 0 1 0-1h1Zm-4 0a.5.5 0 0 1 0 1h-2a.5.5 0 0 1 0-1h2Z"/></symbol>
  <use href="#icon"/>
</svg>
