<svg xmlns="http://www.w3.org/2000/svg">
  <symbol id="icon" fill="none" viewBox="0 0 16 16"><path fill="currentColor" d="M8 1.5a6.5 6.5 0 1 1 0 13 6.5 6.5 0 0 1 0-13ZM2.714 9.52A5.501 5.501 0 0 0 8 13.5c.057 0 .191-.035.386-.281.19-.241.382-.62.553-1.134a10.18 10.18 0 0 0 .378-1.634c-.426.031-.866.049-1.317.049-1.695 0-3.251-.228-4.4-.611a6.11 6.11 0 0 1-.886-.37Zm10.571 0a6.113 6.113 0 0 1-.885.369c-.59.196-1.287.35-2.055.456-.105.768-.26 1.465-.456 2.055-.108.322-.232.62-.37.885a5.508 5.508 0 0 0 3.766-3.765ZM8 2.5A5.5 5.5 0 0 0 2.5 8c0 .057.035.191.281.386.241.19.62.382 1.134.553C4.937 9.28 6.382 9.5 8 9.5c.498 0 .98-.024 1.438-.063C9.476 8.98 9.5 8.498 9.5 8c0-1.618-.22-3.063-.56-4.085-.172-.513-.364-.893-.554-1.134C8.19 2.535 8.057 2.5 8 2.5Zm1.52.214c.138.265.261.564.369.886.383 1.149.611 2.705.611 4.4 0 .45-.018.891-.049 1.317a10.18 10.18 0 0 0 1.634-.378c.513-.17.893-.363 1.134-.553.246-.195.281-.329.281-.386a5.501 5.501 0 0 0-3.98-5.286Z"/></symbol>
  <symbol id="icon-large" fill="none" viewBox="0 0 24 24"><path fill="currentColor" fill-rule="evenodd" d="M21 12a9.003 9.003 0 0 0-7.022-8.782c.371.508.694 1.154.966 1.891C15.603 6.897 16 9.333 16 12c0 .931-.048 1.835-.14 2.692 1.012-.17 1.92-.404 2.685-.686.827-.305 1.461-.656 1.88-1.02.42-.366.575-.7.575-.986Zm-.218 1.978c-.508.371-1.154.694-1.891.966-.906.334-1.98.6-3.164.783-.182 1.185-.449 2.258-.783 3.164-.272.737-.595 1.383-.966 1.89a9.012 9.012 0 0 0 6.804-6.803Zm-5.944.86c.105-.892.162-1.845.162-2.838 0-2.58-.386-4.894-.994-6.545-.305-.827-.656-1.461-1.02-1.88C12.62 3.155 12.285 3 12 3a9 9 0 0 0-9 9c0 .285.156.62.575.985.419.365 1.053.716 1.88 1.02C7.105 14.615 9.42 15 12 15c.993 0 1.946-.057 2.838-.162Zm-11.62-.86c.508.371 1.154.694 1.891.966C6.897 15.603 9.333 16 12 16c.931 0 1.835-.048 2.692-.14a15.102 15.102 0 0 1-.686 2.685c-.305.827-.656 1.461-1.02 1.88-.366.42-.7.575-.986.575a9.003 9.003 0 0 1-8.782-7.022ZM2 12c0 5.523 4.477 10 10 10s10-4.477 10-10S17.523 2 12 2 2 6.477 2 12Z" clip-rule="evenodd"/></symbol>
  <use href="#icon"/>
</svg>
