<svg xmlns="http://www.w3.org/2000/svg">
  <symbol id="icon" fill="none" viewBox="0 0 16 16"><path fill="currentColor" d="M12.5 4a.5.5 0 0 1 .497.444l1 9A.5.5 0 0 1 13.5 14h-11a.501.501 0 0 1-.497-.556l1-9 .02-.091A.5.5 0 0 1 3.5 4h9Zm-9.441 9H7.5v-1a.5.5 0 0 1 1 0v1h4.441l-.888-8H8.5v1a.5.5 0 0 1-1 0V5H3.947l-.888 8ZM8 7.5a.5.5 0 0 1 .5.5v2a.5.5 0 0 1-1 0V8a.5.5 0 0 1 .5-.5ZM13.5 2a.5.5 0 0 1 0 1h-11a.5.5 0 0 1 0-1h11Z"/></symbol>
  <symbol id="icon-large" fill="none" viewBox="0 0 24 24"><path fill="currentColor" fill-rule="evenodd" d="M21 3.5a.5.5 0 0 0-.5-.5h-17a.5.5 0 0 0 0 1h17a.5.5 0 0 0 .5-.5ZM17.5 6a.5.5 0 0 1 .49.396l3 14a.501.501 0 0 1-.49.604h-17a.5.5 0 0 1-.492-.588l2.5-14 .023-.086A.5.5 0 0 1 6 6h11.5ZM4.098 20H11.5v-2.5a.5.5 0 0 1 1 0V20h7.38L17.097 7H12.5v2.5a.5.5 0 0 1-1 0V7H6.419L4.098 20Zm7.402-5.25v-2.5a.5.5 0 0 1 1 0v2.5a.5.5 0 0 1-1 0Z" clip-rule="evenodd"/></symbol>
  <use href="#icon"/>
</svg>
