<svg xmlns="http://www.w3.org/2000/svg">
  <symbol id="icon" fill="none" viewBox="0 0 16 16"><path fill="currentColor" fill-rule="evenodd" d="M3 2.5a.5.5 0 0 1 .5-.5h9a.5.5 0 0 1 .5.5V7H3V2.5ZM3 8h10v4.5a.5.5 0 0 1-.5.5h-9a.5.5 0 0 1-.5-.5V8Zm.5-7A1.5 1.5 0 0 0 2 2.5v10A1.5 1.5 0 0 0 3.5 14H4v.5a.5.5 0 0 0 1 0V14h6v.5a.5.5 0 0 0 1 0V14h.5a1.5 1.5 0 0 0 1.5-1.5v-10A1.5 1.5 0 0 0 12.5 1h-9Zm3 3a.5.5 0 0 0 0 1h3a.5.5 0 1 0 0-1h-3Zm0 6a.5.5 0 1 0 0 1h3a.5.5 0 0 0 0-1h-3Z" clip-rule="evenodd"/></symbol>
  <symbol id="icon-large" fill="none" viewBox="0 0 24 24"><path fill="currentColor" fill-rule="evenodd" d="M5.5 3a.5.5 0 0 0-.5.5v7h14v-7a.5.5 0 0 0-.5-.5h-13ZM4 10.5v8A1.5 1.5 0 0 0 5.5 20H6v1.5a.5.5 0 0 0 1 0V20h10v1.5a.5.5 0 0 0 1 0V20h.5a1.5 1.5 0 0 0 1.5-1.5v-15A1.5 1.5 0 0 0 18.5 2h-13A1.5 1.5 0 0 0 4 3.5v7ZM17.5 19h1a.5.5 0 0 0 .5-.5v-7H5v7a.5.5 0 0 0 .5.5h12Zm-8-13a.5.5 0 0 0 0 1h5a.5.5 0 0 0 0-1h-5Zm0 8.5a.5.5 0 0 0 0 1h5a.5.5 0 0 0 0-1h-5Z" clip-rule="evenodd"/></symbol>
  <use href="#icon"/>
</svg>
