<svg xmlns="http://www.w3.org/2000/svg">
  <symbol id="icon" fill="none" viewBox="0 0 16 16"><path fill="currentColor" fill-rule="evenodd" d="M9.354 1.354a.5.5 0 1 0-.708-.708l-1.5 1.5a.5.5 0 0 0 0 .708l1.5 1.5a.5.5 0 1 0 .708-.708L8.707 3H10.5A2.5 2.5 0 0 1 13 5.5v2a.5.5 0 0 0 1 0v-2A3.5 3.5 0 0 0 10.5 2H8.707l.647-.646ZM6.5 7a.5.5 0 0 1 .5-.5h2a.5.5 0 0 1 .5.5v2a.5.5 0 0 1-.5.5H7a.5.5 0 0 1-.5-.5V7ZM7 5.5A1.5 1.5 0 0 0 5.5 7v2A1.5 1.5 0 0 0 7 10.5h2A1.5 1.5 0 0 0 10.5 9V7A1.5 1.5 0 0 0 9 5.5H7ZM2.5 8a.5.5 0 0 1 .5.5v2A2.5 2.5 0 0 0 5.5 13h1.793l-.647-.646a.5.5 0 0 1 .708-.708l1.5 1.5a.5.5 0 0 1 0 .708l-1.5 1.5a.5.5 0 0 1-.708-.708L7.293 14H5.5A3.5 3.5 0 0 1 2 10.5v-2a.5.5 0 0 1 .5-.5Z" clip-rule="evenodd"/></symbol>
  <symbol id="icon-large" fill="none" viewBox="0 0 24 24"><path fill="currentColor" fill-rule="evenodd" d="M3.5 14a.5.5 0 0 1 .5.5v2A3.5 3.5 0 0 0 7.5 20h1.793l-1.147-1.146a.5.5 0 0 1 .708-.708l2 2a.5.5 0 0 1 0 .708l-2 2a.5.5 0 0 1-.708-.708L9.293 21H7.5A4.5 4.5 0 0 1 3 16.5v-2a.5.5 0 0 1 .5-.5ZM9 9.5a.5.5 0 0 1 .5-.5h5a.5.5 0 0 1 .5.5v5a.5.5 0 0 1-.5.5h-5a.5.5 0 0 1-.5-.5v-5ZM9.5 8A1.5 1.5 0 0 0 8 9.5v5A1.5 1.5 0 0 0 9.5 16h5a1.5 1.5 0 0 0 1.5-1.5v-5A1.5 1.5 0 0 0 14.5 8h-5Zm5.207-5 1.147-1.146a.5.5 0 0 0-.708-.708l-2 2a.5.5 0 0 0 0 .708l2 2a.5.5 0 0 0 .708-.708L14.707 4H16.5A3.5 3.5 0 0 1 20 7.5v2a.5.5 0 0 0 1 0v-2A4.5 4.5 0 0 0 16.5 3h-1.793Z" clip-rule="evenodd"/></symbol>
  <use href="#icon"/>
</svg>
