<svg xmlns="http://www.w3.org/2000/svg">
  <symbol id="icon" fill="none" viewBox="0 0 16 16"><path fill="currentColor" fill-rule="evenodd" d="M2 1.5a.5.5 0 0 0-1 0v13a.5.5 0 0 0 .5.5H2c.745 0 1.46-.285 2-.795a2.914 2.914 0 0 0 4 0 2.914 2.914 0 0 0 4 0 2.914 2.914 0 0 0 3 .618v-1.105a1.914 1.914 0 0 1-2.354-.279l-.292-.293a.5.5 0 0 0-.708 0l-.292.293a1.914 1.914 0 0 1-2.708 0l-.292-.293a.5.5 0 0 0-.708 0l-.292.293a1.914 1.914 0 0 1-2.708 0l-.292-.293a.5.5 0 0 0-.708 0l-.292.293C2.994 13.8 2.508 14 2 14v-4h5.5v.5a.5.5 0 0 0 1 0v-2H9a1.5 1.5 0 0 1 1.5 1.5v2.5h1V10A2.5 2.5 0 0 0 9 7.5h-.5v-1H9a3.5 3.5 0 0 1 3.5 3.5v2.5h1V10A4.5 4.5 0 0 0 9 5.5h-.5v-2a.5.5 0 0 0-1 0V4H2V1.5ZM2 5v4h5.5V5H2Z" clip-rule="evenodd"/></symbol>
  <symbol id="icon-large" fill="none" viewBox="0 0 24 24"><path fill="currentColor" fill-rule="evenodd" d="M4 3.5a.5.5 0 0 0-1 0v17a.5.5 0 0 0 .5.5H4c.745 0 1.46-.285 2-.795a2.914 2.914 0 0 0 4 0 2.914 2.914 0 0 0 4 0 2.914 2.914 0 0 0 4 0c.54.51 1.255.795 2 .795h1v-1h-1c-.508 0-.995-.202-1.354-.56l-.292-.294a.5.5 0 0 0-.708 0l-.292.293a1.914 1.914 0 0 1-2.708 0l-.292-.293a.5.5 0 0 0-.708 0l-.292.293a1.914 1.914 0 0 1-2.708 0l-.292-.293a.5.5 0 0 0-.708 0l-.292.293a1.914 1.914 0 0 1-2.708 0l-.292-.293a.5.5 0 0 0-.708 0l-.292.293C4.994 19.8 4.508 20 4 20v-2c.745 0 1.46-.285 2-.795a2.914 2.914 0 0 0 4 0 2.914 2.914 0 0 0 4 0 2.914 2.914 0 0 0 4 0c.54.51 1.255.795 2 .795h1v-1h-1c-.508 0-.995-.202-1.354-.56l-.292-.294a.5.5 0 0 0-.708 0l-.292.293a1.914 1.914 0 0 1-2.708 0l-.292-.293a.5.5 0 0 0-.708 0l-.292.293a1.914 1.914 0 0 1-2.708 0l-.292-.293a.5.5 0 0 0-.708 0l-.292.293a1.914 1.914 0 0 1-2.708 0l-.292-.293a.5.5 0 0 0-.708 0l-.292.293C4.994 16.8 4.508 17 4 17v-4h7.5v.5a.5.5 0 0 0 1 0V11h1a2.5 2.5 0 0 1 2.5 2.5v2h1v-2a3.5 3.5 0 0 0-3.5-3.5h-1V8h1a5.5 5.5 0 0 1 5.5 5.5v2h1v-2A6.5 6.5 0 0 0 13.5 7h-1V4.5a.5.5 0 0 0-1 0V5H4V3.5ZM4 6v6h7.5V6H4Z" clip-rule="evenodd"/></symbol>
  <use href="#icon"/>
</svg>
