<svg xmlns="http://www.w3.org/2000/svg">
  <symbol id="icon" fill="none" viewBox="0 0 16 16"><path fill="currentColor" d="M4.259 10.5a4.495 4.495 0 0 0 3.74 2c1.56 0 2.935-.794 3.742-2h1.157a5.499 5.499 0 0 1-9.796 0H4.26Zm8.74-4a1.5 1.5 0 0 1 0 3l-.153-.008a1.5 1.5 0 0 1-1.26-.992H4.414A1.5 1.5 0 0 1 3 9.5l-.154-.008A1.5 1.5 0 1 1 4.413 7.5h7.174A1.5 1.5 0 0 1 13 6.5Zm-10 1a.5.5 0 0 0 0 1l.101-.01A.5.5 0 0 0 3 7.5Zm10 0a.5.5 0 0 0 0 1l.101-.01a.5.5 0 0 0-.1-.99Zm-5-5a5.499 5.499 0 0 1 4.9 3h-1.157A4.495 4.495 0 0 0 8 3.5c-1.56 0-2.935.794-3.742 2H3.1a5.5 5.5 0 0 1 4.899-3Z"/></symbol>
  <symbol id="icon-large" fill="none" viewBox="0 0 24 24"><path fill="currentColor" d="M5.126 15a7.5 7.5 0 0 0 13.748 0h1.08a8.502 8.502 0 0 1-15.908 0h1.08ZM20 10a2 2 0 0 1 2 2l-.011.204a2 2 0 0 1-3.924.296H5.935A1.998 1.998 0 0 1 2 12a2 2 0 0 1 3.935-.5h12.13A2 2 0 0 1 20 10ZM4 11a1 1 0 1 0 1 1l-.005-.103A1 1 0 0 0 4 11Zm16 0a1 1 0 1 0 1 1l-.005-.103A1 1 0 0 0 20 11Zm-8-7.5A8.503 8.503 0 0 1 19.954 9h-1.08A7.5 7.5 0 0 0 5.126 9h-1.08A8.503 8.503 0 0 1 12 3.5Z"/></symbol>
  <use href="#icon"/>
</svg>
