<svg xmlns="http://www.w3.org/2000/svg">
  <symbol id="icon" fill="none" viewBox="0 0 16 16"><path fill="currentColor" d="M12.5 9a1.5 1.5 0 0 1 1.5 1.5v.5l.102.005A1 1 0 0 1 15 12v2a1 1 0 0 1-1 1h-3a1 1 0 0 1-1-1v-2a1 1 0 0 1 .898-.995L11 11v-.5A1.5 1.5 0 0 1 12.5 9ZM11 14h3v-2h-3v2ZM8 9.5a6.02 6.02 0 0 1 1.5.19v1.039a5.001 5.001 0 0 0-6.123 2.864c-.142.344-.576.496-.848.241a.471.471 0 0 1-.118-.515A6 6 0 0 1 8 9.5Zm4.5.5a.5.5 0 0 0-.5.5v.5h1v-.5a.5.5 0 0 0-.5-.5ZM8 1.5a3.5 3.5 0 1 1 0 7 3.5 3.5 0 0 1 0-7Zm0 1a2.5 2.5 0 1 0 0 5 2.5 2.5 0 0 0 0-5Z"/></symbol>
  <symbol id="icon-large" fill="none" viewBox="0 0 24 24"><path fill="currentColor" fill-rule="evenodd" d="M12 4a3 3 0 1 1 0 6 3 3 0 0 1 0-6ZM8 7a4 4 0 1 0 8 0 4 4 0 0 0-8 0Zm4 5c1.391 0 2.64.299 3.725.845l-.45.893C14.338 13.267 13.246 13 12 13c-3.952 0-6.511 2.713-7.283 6.496-.05.242.142.504.454.504h7.83v1H5.17c-.879 0-1.622-.778-1.433-1.703C4.58 15.168 7.46 12 12 12Zm7 3a2 2 0 0 1 2 2h-4a2 2 0 0 1 2-2Zm-3 2.085V17a3 3 0 1 1 6 0v.085a1.5 1.5 0 0 1 1 1.415v3a1.5 1.5 0 0 1-1.5 1.5h-5a1.5 1.5 0 0 1-1.5-1.5v-3a1.5 1.5 0 0 1 1-1.415Zm5.5.915a.5.5 0 0 1 .5.5v3a.5.5 0 0 1-.5.5h-5a.5.5 0 0 1-.5-.5v-3a.5.5 0 0 1 .5-.5h5Z" clip-rule="evenodd"/></symbol>
  <use href="#icon"/>
</svg>
