<svg xmlns="http://www.w3.org/2000/svg">
  <symbol id="icon" fill="none" viewBox="0 0 16 16"><path fill="currentColor" fill-rule="evenodd" d="M1.854 1.146a.5.5 0 1 0-.708.708l3.501 3.5-2.207.68a1.5 1.5 0 0 0-.62 2.494L4.294 11 .646 14.646l.708.708L5 11.707l2.472 2.472c.8.8 2.162.46 2.494-.62l.68-2.207 3.5 3.502a.5.5 0 0 0 .708-.708l-13-13Zm7.991 9.406L5.448 6.155l-2.713.834a.5.5 0 0 0-.207.832l5.651 5.651a.5.5 0 0 0 .832-.207l.834-2.713ZM8.432 2.017a1.5 1.5 0 0 1 2.403-.39l3.537 3.538a1.5 1.5 0 0 1-.39 2.403l-2.758 1.38-.448-.895 2.76-1.38a.5.5 0 0 0 .13-.8l-3.539-3.538a.5.5 0 0 0-.8.13l-1.38 2.759-.894-.448 1.38-2.759Z" clip-rule="evenodd"/></symbol>
  <symbol id="icon-large" fill="none" viewBox="0 0 24 24"><path fill="currentColor" fill-rule="evenodd" d="M2.854 2.146a.5.5 0 1 0-.708.708L7.41 8.117l-3.392.943a1.5 1.5 0 0 0-.66 2.505l4.185 4.185-4.897 4.896.708.708 4.896-4.897 4.184 4.185a1.5 1.5 0 0 0 2.507-.66l.942-3.392 5.263 5.264a.5.5 0 0 0 .708-.708l-19-19ZM15.07 15.778 8.222 8.929l-3.937 1.094a.5.5 0 0 0-.22.835l9.077 9.076a.5.5 0 0 0 .835-.22l1.094-3.936ZM13.42 2.934a1.5 1.5 0 0 1 2.38-.344l5.61 5.61a1.5 1.5 0 0 1-.343 2.378l-3.955 2.157a.5.5 0 0 0-.242.305l-.096.343-.963-.268.095-.342a1.5 1.5 0 0 1 .727-.915L20.587 9.7a.5.5 0 0 0 .114-.792l-5.61-5.61a.5.5 0 0 0-.792.114l-2.157 3.955a1.5 1.5 0 0 1-.916.727l-.342.095-.268-.963.343-.096a.5.5 0 0 0 .305-.242l2.157-3.955Z" clip-rule="evenodd"/></symbol>
  <use href="#icon"/>
</svg>
