<svg xmlns="http://www.w3.org/2000/svg">
  <symbol id="icon" fill="none" viewBox="0 0 16 16"><path fill="currentColor" fill-rule="evenodd" d="M13.5 3a.5.5 0 0 1 .5.5V6H2V3.5a.5.5 0 0 1 .5-.5h11ZM2 7h12v2.5h-1.5a.5.5 0 0 0 0 1H14v2a.5.5 0 0 1-.5.5h-11a.5.5 0 0 1-.5-.5v-2h1.5a.5.5 0 0 0 0-1H2V7Zm11.5 7a1.5 1.5 0 0 0 1.5-1.5v-9A1.5 1.5 0 0 0 13.5 2h-11A1.5 1.5 0 0 0 1 3.5v9A1.5 1.5 0 0 0 2.5 14h11Zm-6-4a.5.5 0 0 0-.5-.5H5.5a.5.5 0 0 0 0 1H7a.5.5 0 0 0 .5-.5Zm3.5 0a.5.5 0 0 0-.5-.5H9a.5.5 0 0 0 0 1h1.5a.5.5 0 0 0 .5-.5Zm2-5.5a.5.5 0 0 0-.5-.5h-2a.5.5 0 0 0 0 1h2a.5.5 0 0 0 .5-.5Z" clip-rule="evenodd"/></symbol>
  <symbol id="icon-large" fill="none" viewBox="0 0 24 24"><path fill="currentColor" fill-rule="evenodd" d="M20.5 5a.5.5 0 0 1 .5.5V8H3V5.5a.5.5 0 0 1 .5-.5h17ZM3 9h18v5a.5.5 0 0 0-.5-.5h-2a.5.5 0 0 0 0 1h2a.5.5 0 0 0 .5-.5v4.5a.5.5 0 0 1-.5.5h-17a.5.5 0 0 1-.5-.5V14a.5.5 0 0 0 .5.5h2a.5.5 0 0 0 0-1h-2a.5.5 0 0 0-.5.5V9Zm17.5 11a1.5 1.5 0 0 0 1.5-1.5v-13A1.5 1.5 0 0 0 20.5 4h-17A1.5 1.5 0 0 0 2 5.5v13A1.5 1.5 0 0 0 3.5 20h17ZM11 14a.5.5 0 0 0-.5-.5h-2a.5.5 0 0 0 0 1h2a.5.5 0 0 0 .5-.5Zm5 0a.5.5 0 0 0-.5-.5h-2a.5.5 0 0 0 0 1h2a.5.5 0 0 0 .5-.5Zm4-7.5a.5.5 0 0 0-.5-.5h-2a.5.5 0 0 0 0 1h2a.5.5 0 0 0 .5-.5Z" clip-rule="evenodd"/></symbol>
  <use href="#icon"/>
</svg>
