<svg xmlns="http://www.w3.org/2000/svg">
  <symbol id="icon" fill="none" viewBox="0 0 16 16"><path fill="currentColor" d="M10 1.5c1.701 0 3.108 1.152 3.742 2.542.565 1.235.553 2.746-.455 3.892.618.489 1.023 1.068 1.217 1.698.245.792.141 1.61-.203 2.333-.683 1.434-2.327 2.535-4.3 2.535H4A1.5 1.5 0 0 1 2.5 13v-3H2a.5.5 0 0 1-.5-.5l-.002-3A.5.5 0 0 1 2 6h.5V3A1.5 1.5 0 0 1 4 1.5h6Zm-6 1a.5.5 0 0 0-.5.5v3.5A.5.5 0 0 1 3 7h-.5v2H3a.5.5 0 0 1 .5.5V13a.5.5 0 0 0 .5.5h6c1.61 0 2.89-.9 3.399-1.966.25-.528.31-1.086.15-1.607-.161-.519-.555-1.052-1.306-1.501a.501.501 0 0 1-.055-.82c1.03-.823 1.144-2.056.645-3.149C12.327 3.348 11.233 2.5 10 2.5H4Zm6.375 6.25a1.625 1.625 0 0 1 0 3.25H5.647A.647.647 0 0 1 5 11.354V9.396c0-.356.29-.646.647-.646h4.728ZM6 11h4.375a.625.625 0 0 0 0-1.25H6V11Zm3.875-7a1.625 1.625 0 0 1 0 3.25H5.634A.634.634 0 0 1 5 6.616V4.634c0-.35.284-.634.634-.634h4.241ZM6 6.25h3.875a.625.625 0 0 0 0-1.25H6v1.25Z"/></symbol>
  <symbol id="icon-large" fill="none" viewBox="0 0 24 24"><path fill="currentColor" fill-rule="evenodd" d="M4 3.5A1.5 1.5 0 0 1 5.5 2h10a5.5 5.5 0 0 1 4.082 9.19A6 6 0 0 1 16 22H5.5A1.5 1.5 0 0 1 4 20.5v-6H2.5A.5.5 0 0 1 2 14v-4a.5.5 0 0 1 .5-.5H4v-6ZM5 10a.5.5 0 0 1-.5.5H3v3h1.5a.5.5 0 0 1 .5.5v6.5a.5.5 0 0 0 .5.5H16a5 5 0 0 0 2.543-9.306.5.5 0 0 1-.075-.806A4.493 4.493 0 0 0 20 7.5 4.5 4.5 0 0 0 15.5 3h-10a.5.5 0 0 0-.5.5V10Zm11.5-2A1.5 1.5 0 0 0 15 6.5H8.5v3H15A1.5 1.5 0 0 0 16.5 8Zm1 0a2.5 2.5 0 0 1-2.5 2.5H8.22a.72.72 0 0 1-.72-.72V6.22a.72.72 0 0 1 .72-.72H15A2.5 2.5 0 0 1 17.5 8ZM16 14.5a1.5 1.5 0 0 1 0 3H8.5v-3H16Zm0 4a2.5 2.5 0 0 0 0-5H8.244a.744.744 0 0 0-.744.744v3.512c0 .41.333.744.744.744H16Z" clip-rule="evenodd"/></symbol>
  <use href="#icon"/>
</svg>
