<svg xmlns="http://www.w3.org/2000/svg">
  <symbol id="icon" fill="none" viewBox="0 0 16 16"><path fill="currentColor" d="M2.5 2a.5.5 0 0 1 .5.5v10a.5.5 0 0 0 .5.5h1V7.5l.01-.1A.5.5 0 0 1 5 7h2.5a.5.5 0 0 1 .5.5V13h1.5V3.5l.01-.1A.5.5 0 0 1 10 3h2.5a.5.5 0 0 1 .5.5V13h.5a.5.5 0 0 1 0 1h-10A1.5 1.5 0 0 1 2 12.5v-10a.5.5 0 0 1 .5-.5Zm8 11H12V4h-1.5v9Zm-5 0H7V8H5.5v5Z"/></symbol>
  <symbol id="icon-large" fill="none" viewBox="0 0 24 24"><path fill="currentColor" fill-rule="evenodd" d="M2 3.5v16A1.5 1.5 0 0 0 3.5 21h18a.5.5 0 0 0 0-1h-18a.5.5 0 0 1-.5-.5v-16a.5.5 0 0 0-1 0ZM7.5 9a.5.5 0 0 1 .5.5v7a.5.5 0 0 1-.5.5h-1a.5.5 0 0 1-.5-.5v-7a.5.5 0 0 1 .5-.5h1Zm0 9A1.5 1.5 0 0 0 9 16.5v-7A1.5 1.5 0 0 0 7.5 8h-1A1.5 1.5 0 0 0 5 9.5v7A1.5 1.5 0 0 0 6.5 18h1ZM14 6.5a.5.5 0 0 0-.5-.5h-1a.5.5 0 0 0-.5.5v10a.5.5 0 0 0 .5.5h1a.5.5 0 0 0 .5-.5v-10Zm1 10a1.5 1.5 0 0 1-1.5 1.5h-1a1.5 1.5 0 0 1-1.5-1.5v-10A1.5 1.5 0 0 1 12.5 5h1A1.5 1.5 0 0 1 15 6.5v10Zm4.5-4.5a.5.5 0 0 1 .5.5v4a.5.5 0 0 1-.5.5h-1a.5.5 0 0 1-.5-.5v-4a.5.5 0 0 1 .5-.5h1Zm0 6a1.5 1.5 0 0 0 1.5-1.5v-4a1.5 1.5 0 0 0-1.5-1.5h-1a1.5 1.5 0 0 0-1.5 1.5v4a1.5 1.5 0 0 0 1.5 1.5h1Z" clip-rule="evenodd"/></symbol>
  <use href="#icon"/>
</svg>
