<svg xmlns="http://www.w3.org/2000/svg">
  <symbol id="icon" fill="none" viewBox="0 0 16 16"><path fill="currentColor" fill-rule="evenodd" d="M13.5 3a.5.5 0 0 1 .5.5v9a.5.5 0 0 1-.5.5h-11a.5.5 0 0 1-.5-.5v-9a.5.5 0 0 1 .5-.5h11Zm0 11a1.5 1.5 0 0 0 1.5-1.5v-9A1.5 1.5 0 0 0 13.5 2h-11A1.5 1.5 0 0 0 1 3.5v9A1.5 1.5 0 0 0 2.5 14h11ZM13 4.5a.5.5 0 0 0-.5-.5h-9a.5.5 0 0 0-.49.4L3 4.5v2a.5.5 0 0 0 .5.5h9a.5.5 0 0 0 .5-.5v-2ZM12 6H4V5h8v1Z" clip-rule="evenodd"/></symbol>
  <symbol id="icon-large" fill="none" viewBox="0 0 24 24"><path fill="currentColor" fill-rule="evenodd" d="M20.5 5a.5.5 0 0 1 .5.5v13a.5.5 0 0 1-.5.5h-17a.5.5 0 0 1-.5-.5v-13a.5.5 0 0 1 .5-.5h17Zm0 15a1.5 1.5 0 0 0 1.5-1.5v-13A1.5 1.5 0 0 0 20.5 4h-17A1.5 1.5 0 0 0 2 5.5v13A1.5 1.5 0 0 0 3.5 20h17Zm-3-12a.5.5 0 0 1 .5.5v1a.5.5 0 0 1-.5.5h-11a.5.5 0 0 1-.5-.5v-1a.5.5 0 0 1 .5-.5h11Zm0 3A1.5 1.5 0 0 0 19 9.5v-1A1.5 1.5 0 0 0 17.5 7h-11A1.5 1.5 0 0 0 5 8.5v1A1.5 1.5 0 0 0 6.5 11h11Z" clip-rule="evenodd"/></symbol>
  <use href="#icon"/>
</svg>
