<svg xmlns="http://www.w3.org/2000/svg">
  <symbol id="icon" fill="none" viewBox="0 0 16 16"><path fill="currentColor" d="M10 2c1.018 0 1.963.176 2.672.48.354.151.672.344.91.584.238.243.418.56.418.936v5c0 .376-.18.693-.419.936-.237.24-.555.433-.91.585-.708.303-1.653.479-2.671.479v1.5a.5.5 0 0 1-.303.46l-3.5 1.5a.502.502 0 0 1-.394 0l-3.5-1.5A.5.5 0 0 1 2 12.5v-4a.5.5 0 0 1 .303-.46l3.5-1.5.097-.03A.502.502 0 0 1 6 6.5V4c0-.376.18-.693.419-.936.237-.24.555-.433.91-.585C8.036 2.176 8.981 2 10 2ZM3 12.169l2.5 1.071v-2.91L3 9.26v2.91Zm3.5-1.839v2.91L9 12.17V9.26l-2.5 1.07ZM13 5.358a3.767 3.767 0 0 1-.328.163C11.962 5.824 11.018 6 10 6c-1.018 0-1.963-.176-2.672-.48A3.773 3.773 0 0 1 7 5.359v1.526L9.697 8.04A.5.5 0 0 1 10 8.5V10c.915 0 1.72-.16 2.278-.398.28-.12.474-.25.591-.37.115-.116.131-.194.131-.232V5.358ZM3.77 8.5 6 9.455 8.23 8.5 6 7.544 3.77 8.5ZM10 3c-.915 0-1.72.16-2.278.398-.28.12-.474.25-.591.37C7.016 3.884 7 3.962 7 4c0 .038.016.116.13.232.118.12.312.25.592.37C8.279 4.84 9.085 5 10 5s1.72-.16 2.278-.398c.28-.12.474-.25.591-.37.115-.116.131-.194.131-.232 0-.038-.016-.116-.13-.232-.118-.12-.312-.25-.592-.37C11.721 3.16 10.915 3 10 3Z"/></symbol>
  <symbol id="icon-large" fill="none" viewBox="0 0 24 24"><path fill="currentColor" d="M15.5 3c1.441 0 2.77.291 3.759.785C20.217 4.265 21 5.018 21 6v8c0 .982-.783 1.736-1.741 2.215-.988.494-2.318.785-3.759.785-.168 0-.335-.006-.5-.014V18l-.002.016a.495.495 0 0 1-.014.102c-.003.014-.008.028-.012.041a.501.501 0 0 1-.116.191l-.024.021c-.013.011-.024.023-.038.033l-.006.003a.495.495 0 0 1-.059.034l-.022.014-5.5 2.5a.501.501 0 0 1-.312.034l-.102-.034-5.5-2.5-.023-.014a.492.492 0 0 1-.06-.034l-.004-.003c-.014-.01-.026-.022-.039-.033l-.02-.017-.006-.006a.5.5 0 0 1-.098-.146l-.004-.008-.021-.064-.003-.012A.497.497 0 0 1 3 18.016V12a.5.5 0 0 1 .008-.09c.001-.009.005-.017.007-.026a.501.501 0 0 1 .018-.06l.01-.027a.506.506 0 0 1 .039-.073c.003-.006.008-.01.012-.015a.507.507 0 0 1 .106-.107l.03-.022a.508.508 0 0 1 .063-.035l5.5-2.5.102-.034a.501.501 0 0 1 .312.034l.793.36V6c0-.982.783-1.736 1.741-2.215C12.73 3.291 14.06 3 15.5 3ZM4 17.678l4.5 2.045V14.82L4 12.776v4.902Zm5.5-2.857v4.902l4.5-2.045v-4.902l-4.5 2.045ZM20 7.754a4.56 4.56 0 0 1-.741.46C18.27 8.71 16.94 9 15.5 9c-1.441 0-2.77-.291-3.759-.785A4.56 4.56 0 0 1 11 7.754v2.105l3.707 1.686c.022.01.043.022.063.035a.487.487 0 0 1 .135.129l.01.012.006.008a.507.507 0 0 1 .035.068l.01.026a.51.51 0 0 1 .02.06l.005.027c.006.03.009.06.009.09v3.985c.164.009.33.015.5.015 1.32 0 2.49-.269 3.311-.68C19.663 14.895 20 14.4 20 14V7.754ZM4.708 12 9 13.95 13.291 12 9 10.049 4.708 12ZM15.5 4c-1.32 0-2.49.269-3.312.68C11.337 5.106 11 5.6 11 6s.337.894 1.188 1.32c.822.411 1.992.68 3.312.68 1.32 0 2.49-.269 3.311-.68C19.663 6.894 20 6.4 20 6s-.337-.894-1.189-1.32C17.99 4.269 16.82 4 15.5 4Z"/></symbol>
  <use href="#icon"/>
</svg>
