<svg xmlns="http://www.w3.org/2000/svg">
  <symbol id="icon" fill="none" viewBox="0 0 16 16"><path fill="currentColor" d="M2.5 10a.5.5 0 0 1 .5.5v2a.5.5 0 0 0 .5.5h2a.5.5 0 0 1 0 1h-2A1.5 1.5 0 0 1 2 12.5v-2a.5.5 0 0 1 .5-.5Zm11 0a.5.5 0 0 1 .5.5v2a1.5 1.5 0 0 1-1.5 1.5h-2a.5.5 0 0 1 0-1h2a.5.5 0 0 0 .5-.5v-2a.5.5 0 0 1 .5-.5ZM7.229 4.28a1.5 1.5 0 0 1 1.542 0l2 1.2a1.5 1.5 0 0 1 .729 1.287v2.467c0 .527-.277 1.015-.729 1.287l-2 1.2a1.5 1.5 0 0 1-1.542 0l-2-1.2A1.501 1.501 0 0 1 4.5 9.233V6.767a1.5 1.5 0 0 1 .729-1.287l2-1.2ZM5.5 9.234c0 .176.093.339.243.43L7.5 10.716V8.282l-2-1.2v2.152Zm3-.952v2.435l1.757-1.054a.501.501 0 0 0 .243-.429V7.082l-2 1.2Zm-.243-3.144a.5.5 0 0 0-.514 0L5.972 6.2 8 7.417 10.027 6.2l-1.77-1.062ZM5.5 2a.5.5 0 0 1 0 1h-2a.5.5 0 0 0-.5.5v2a.5.5 0 0 1-1 0v-2A1.5 1.5 0 0 1 3.5 2h2Zm7 0A1.5 1.5 0 0 1 14 3.5v2a.5.5 0 0 1-1 0v-2a.5.5 0 0 0-.5-.5h-2a.5.5 0 0 1 0-1h2Z"/></symbol>
  <symbol id="icon-large" fill="none" viewBox="0 0 24 24"><path fill="currentColor" fill-rule="evenodd" d="M3 7.5v-3A1.5 1.5 0 0 1 4.5 3h3a.5.5 0 0 1 0 1h-3a.5.5 0 0 0-.5.5v3a.5.5 0 0 1-1 0Zm9.5 5.28 4-2.444v3.598a.5.5 0 0 1-.243.428L12.5 16.617V12.78Zm-1 0-4-2.444v3.598a.5.5 0 0 0 .243.428l3.757 2.255V12.78Zm4.488-3.303-3.731-2.24a.5.5 0 0 0-.514 0l-3.731 2.24L12 11.913l3.988-2.436Zm1.512 4.457a1.5 1.5 0 0 1-.729 1.286l-4 2.4a1.5 1.5 0 0 1-1.543 0l-4-2.4a1.5 1.5 0 0 1-.728-1.286v-3.868a1.5 1.5 0 0 1 .729-1.286l4-2.4a1.5 1.5 0 0 1 1.543 0l4 2.4a1.5 1.5 0 0 1 .728 1.286v3.868ZM20 4.5v3a.5.5 0 0 0 1 0v-3A1.5 1.5 0 0 0 19.5 3h-3a.5.5 0 0 0 0 1h3a.5.5 0 0 1 .5.5Zm-17 15v-3a.5.5 0 0 1 1 0v3a.5.5 0 0 0 .5.5h3a.5.5 0 0 1 0 1h-3A1.5 1.5 0 0 1 3 19.5Zm17-3v3a.5.5 0 0 1-.5.5h-3a.5.5 0 0 0 0 1h3a1.5 1.5 0 0 0 1.5-1.5v-3a.5.5 0 0 0-1 0Z" clip-rule="evenodd"/></symbol>
  <use href="#icon"/>
</svg>
