<svg xmlns="http://www.w3.org/2000/svg">
  <symbol id="icon" fill="none" viewBox="0 0 16 16"><path fill="currentColor" d="M7.725 11.082a.501.501 0 0 1 .629.064l2 2 .064.078a.5.5 0 0 1-.693.694l-.079-.065L8 12.207l-1.646 1.646a.5.5 0 0 1-.708-.707l2-2 .079-.064ZM13.5 9a.5.5 0 0 1 0 1h-11a.5.5 0 0 1 0-1h11Zm0-3a.5.5 0 0 1 0 1h-11a.5.5 0 0 1 0-1h11ZM9.646 2.146a.5.5 0 0 1 .707.707l-2 2a.5.5 0 0 1-.707 0l-2-2-.064-.078a.5.5 0 0 1 .693-.693l.079.064L8 3.793l1.646-1.647Z"/></symbol>
  <symbol id="icon-large" fill="none" viewBox="0 0 24 24"><path fill="currentColor" fill-rule="evenodd" d="M16.354 1.646a.5.5 0 0 0-.707 0L12 5.293 8.354 1.646a.5.5 0 1 0-.708.708l4 4a.5.5 0 0 0 .707 0l4-4a.5.5 0 0 0 0-.708ZM21 8.5a.5.5 0 0 0-.5-.5h-17a.5.5 0 0 0 0 1h17a.5.5 0 0 0 .5-.5Zm-.5 3a.5.5 0 0 1 0 1h-17a.5.5 0 0 1 0-1h17Zm-8.775 6.082a.5.5 0 0 1 .629.064l4 4a.5.5 0 1 1-.707.707L12 18.707l-3.646 3.646a.5.5 0 1 1-.708-.707l4-4 .079-.064ZM20.5 15a.5.5 0 0 1 0 1h-17a.5.5 0 0 1 0-1h17Z" clip-rule="evenodd"/></symbol>
  <use href="#icon"/>
</svg>
