<svg xmlns="http://www.w3.org/2000/svg">
  <symbol id="icon" fill="none" viewBox="0 0 16 16"><path fill="currentColor" fill-rule="evenodd" d="M8.416 1.723a.5.5 0 0 0-.832 0L5.906 4.239A2.419 2.419 0 0 0 7.92 8h.162a2.419 2.419 0 0 0 2.013-3.76L8.416 1.722Zm-1.678 3.07L8 2.902l1.262 1.893A1.419 1.419 0 0 1 8.08 7h-.162a1.419 1.419 0 0 1-1.18-2.206ZM1.5 8a.5.5 0 0 1 .5.5V11c.508 0 .995-.202 1.354-.56l.292-.294a.5.5 0 0 1 .708 0l.292.293a1.914 1.914 0 0 0 2.708 0l.292-.293a.5.5 0 0 1 .708 0l.292.293a1.914 1.914 0 0 0 2.708 0l.292-.293a.5.5 0 0 1 .708 0l.292.293c.36.36.846.561 1.354.561V8.5a.5.5 0 0 1 1 0v4a2.5 2.5 0 0 1-2.5 2.5h-9A2.5 2.5 0 0 1 1 12.5v-4a.5.5 0 0 1 .5-.5Zm.5 4.5V12c.745 0 1.46-.285 2-.795a2.914 2.914 0 0 0 4 0 2.914 2.914 0 0 0 4 0c.54.51 1.255.795 2 .795v.5a1.5 1.5 0 0 1-1.5 1.5h-9A1.5 1.5 0 0 1 2 12.5Z" clip-rule="evenodd"/></symbol>
  <symbol id="icon-large" fill="none" viewBox="0 0 24 24"><path fill="currentColor" fill-rule="evenodd" d="M12.407 3.21a.5.5 0 0 0-.814 0L9.618 5.973A3.32 3.32 0 0 0 9 7.904v.18a3 3 0 0 0 6 0v-.18a3.32 3.32 0 0 0-.618-1.93L12.407 3.21Zm-1.975 3.345L12 4.36l1.568 2.195c.28.394.432.865.432 1.349v.18a2 2 0 0 1-4 0v-.18c0-.484.151-.955.432-1.349ZM4 11.5a.5.5 0 0 0-1 0v7A2.5 2.5 0 0 0 5.5 21h13a2.5 2.5 0 0 0 2.5-2.5v-7a.5.5 0 0 0-1 0V13a.5.5 0 0 0-.354.146l-.292.293a1.914 1.914 0 0 1-2.708 0l-.292-.293a.5.5 0 0 0-.708 0l-.292.293a1.914 1.914 0 0 1-2.708 0l-.292-.293a.5.5 0 0 0-.708 0l-.292.293a1.914 1.914 0 0 1-2.708 0l-.292-.293a.5.5 0 0 0-.708 0l-.292.293a1.914 1.914 0 0 1-2.708 0l-.292-.293A.5.5 0 0 0 4 13v-1.5ZM18 15c.745 0 1.46-.285 2-.795V16a.5.5 0 0 0-.354.146l-.292.293a1.914 1.914 0 0 1-2.708 0l-.292-.293a.5.5 0 0 0-.708 0l-.292.293a1.914 1.914 0 0 1-2.708 0l-.292-.293a.5.5 0 0 0-.708 0l-.292.293a1.914 1.914 0 0 1-2.708 0l-.292-.293a.5.5 0 0 0-.708 0l-.292.293a1.914 1.914 0 0 1-2.708 0l-.292-.293A.5.5 0 0 0 4 16v-1.795a2.914 2.914 0 0 0 4 0 2.914 2.914 0 0 0 4 0 2.914 2.914 0 0 0 4 0c.54.51 1.255.795 2 .795ZM4 17.205V18.5A1.5 1.5 0 0 0 5.5 20h13a1.5 1.5 0 0 0 1.5-1.5v-1.295a2.914 2.914 0 0 1-4 0 2.914 2.914 0 0 1-4 0 2.914 2.914 0 0 1-4 0 2.914 2.914 0 0 1-4 0Z" clip-rule="evenodd"/></symbol>
  <use href="#icon"/>
</svg>
