<svg xmlns="http://www.w3.org/2000/svg">
  <symbol id="icon" fill="none" viewBox="0 0 16 16"><path fill="currentColor" fill-rule="evenodd" d="M2.032 3.325A.5.5 0 0 1 2.5 3h11a.5.5 0 0 1 .468.325L8.354 8.939a.5.5 0 0 1-.708 0L2.032 3.325ZM2 4.707v7.586L5.793 8.5 2 4.707Zm4.5 4.5L2.707 13h10.586L9.5 9.207l-.44.44a1.5 1.5 0 0 1-2.12 0l-.44-.44Zm3.707-.707L14 12.293V4.707L10.207 8.5ZM2.5 2A1.5 1.5 0 0 0 1 3.5v9A1.5 1.5 0 0 0 2.5 14h11a1.5 1.5 0 0 0 1.5-1.5v-9A1.5 1.5 0 0 0 13.5 2h-11Z" clip-rule="evenodd"/></symbol>
  <symbol id="icon-large" fill="none" viewBox="0 0 24 24"><path fill="currentColor" fill-rule="evenodd" d="M3.265 5.058A.498.498 0 0 1 3.5 5h17c.085 0 .165.021.235.058l-8.381 8.381a.5.5 0 0 1-.708 0l-8.38-8.38Zm5.778 7.192L3 6.207v12.086l6.043-6.043ZM20.293 19H3.707l6.043-6.043 1.19 1.19a1.5 1.5 0 0 0 2.12 0l1.19-1.19L20.293 19Zm.707-.707V6.207l-6.043 6.043L21 18.293ZM3.5 4A1.5 1.5 0 0 0 2 5.5v13A1.5 1.5 0 0 0 3.5 20h17a1.5 1.5 0 0 0 1.5-1.5v-13A1.5 1.5 0 0 0 20.5 4h-17Z" clip-rule="evenodd"/></symbol>
  <use href="#icon"/>
</svg>
