<svg xmlns="http://www.w3.org/2000/svg">
  <symbol id="icon" fill="none" viewBox="0 0 16 16"><path fill="currentColor" d="M13.5 7a.5.5 0 0 1 .5.5v6a.5.5 0 0 1-1 0v-4H8.5v2a.5.5 0 0 1-.5.5H3v1.5a.5.5 0 0 1-1 0V10a.5.5 0 0 1 1 0v1h4.5V7.5a.5.5 0 0 1 1 0v1H13v-1a.5.5 0 0 1 .5-.5Zm-11 0a.5.5 0 0 1 .5.5V8a.5.5 0 0 1-1 0v-.5a.5.5 0 0 1 .5-.5Zm0-2.5A.5.5 0 0 1 3 5v.5a.5.5 0 0 1-1 0V5a.5.5 0 0 1 .5-.5Zm5.5 0a.5.5 0 0 1 .5.5v.5a.5.5 0 0 1-1 0V5a.5.5 0 0 1 .5-.5Zm5.5 0a.5.5 0 0 1 .5.5v.5a.5.5 0 0 1-1 0V5a.5.5 0 0 1 .5-.5ZM3 2a.5.5 0 0 1 .101.99l-.1.01-.011.1a.5.5 0 0 1-.98 0L2 3l-.1-.01A.5.5 0 0 1 2 2h1Zm5.5 0a.5.5 0 0 1 .101.99l-.1.01-.011.1a.5.5 0 0 1-.98 0L7.5 3l-.1-.01A.5.5 0 0 1 7.5 2h1ZM14 2a.5.5 0 0 1 .101.99l-.1.01-.011.1a.5.5 0 0 1-.98 0L13 3l-.101-.01A.5.5 0 0 1 13 2h1Z"/></symbol>
  <symbol id="icon-large" fill="none" viewBox="0 0 24 24"><path fill="currentColor" d="M20.5 13.5a.5.5 0 0 1 .5.5v6.5a.5.5 0 0 1-1 0V16h-7.5v2.5a.5.5 0 0 1-.5.5H4v1.5a.5.5 0 0 1-1 0v-3a.5.5 0 0 1 1 0v.5h7.5v-4a.5.5 0 0 1 1 0v1H20v-1a.5.5 0 0 1 .5-.5Zm-17 0a.5.5 0 0 1 .5.5v1.5a.5.5 0 0 1-1 0V14a.5.5 0 0 1 .5-.5Zm0-3.5a.5.5 0 0 1 .5.5V12a.5.5 0 0 1-1 0v-1.5a.5.5 0 0 1 .5-.5Zm8.5 0a.5.5 0 0 1 .5.5V12a.5.5 0 0 1-1 0v-1.5a.5.5 0 0 1 .5-.5Zm8.5 0a.5.5 0 0 1 .5.5V12a.5.5 0 0 1-1 0v-1.5a.5.5 0 0 1 .5-.5Zm-17-3.5A.5.5 0 0 1 4 7v1.5a.5.5 0 0 1-1 0V7a.5.5 0 0 1 .5-.5Zm8.5 0a.5.5 0 0 1 .5.5v1.5a.5.5 0 0 1-1 0V7a.5.5 0 0 1 .5-.5Zm8.5 0a.5.5 0 0 1 .5.5v1.5a.5.5 0 0 1-1 0V7a.5.5 0 0 1 .5-.5ZM4.5 3a.5.5 0 0 1 0 1H4v1a.5.5 0 0 1-1 0V4h-.5a.5.5 0 0 1 0-1h2ZM13 3a.5.5 0 0 1 0 1h-.5v1a.5.5 0 0 1-1 0V4H11a.5.5 0 0 1 0-1h2Zm8.5 0a.5.5 0 0 1 0 1H21v1a.5.5 0 0 1-1 0V4h-.5a.5.5 0 0 1 0-1h2Z"/></symbol>
  <use href="#icon"/>
</svg>
