<svg xmlns="http://www.w3.org/2000/svg">
  <symbol id="icon" fill="none" viewBox="0 0 16 16"><path fill="currentColor" fill-rule="evenodd" d="M2 2.995a1 1 0 0 1 1-1h1V10H3a1.99 1.99 0 0 0-1 .268V2.995ZM1 12V2.995a2 2 0 0 1 2-2h1.5a.5.5 0 0 1 .5.5V3h8.5A1.5 1.5 0 0 1 15 4.5v8a1.5 1.5 0 0 1-1.5 1.5H3a2 2 0 0 1-2-2Zm4-8v6.5a.5.5 0 0 1-.5.5H3a1 1 0 1 0 0 2h10.5a.5.5 0 0 0 .5-.5v-8a.5.5 0 0 0-.5-.5H5Zm3.5 1.5v1h2v-1h1v1h1v1h-1v2h1v1h-1v1h-1v-1h-2v1h-1v-1h-1v-1h1v-2h-1v-1h1v-1h1Zm0 2v2h2v-2h-2Z" clip-rule="evenodd"/></symbol>
  <symbol id="icon-large" fill="none" viewBox="0 0 24 24"><path fill="currentColor" fill-rule="evenodd" d="M3 5.5A1.5 1.5 0 0 1 4.5 4H6v10H5a2.99 2.99 0 0 0-2 .764V5.5ZM2 17V5.5A2.5 2.5 0 0 1 4.5 3h2a.5.5 0 0 1 .5.5V5h13.5A1.5 1.5 0 0 1 22 6.5v12a1.5 1.5 0 0 1-1.5 1.5H5a3 3 0 0 1-3-3ZM7 6h13.5a.5.5 0 0 1 .5.5v12a.5.5 0 0 1-.5.5H5a2 2 0 1 1 0-4h1.5a.5.5 0 0 0 .5-.5V6Zm5 2v1.5h4V8h1v1.5h1.5v1H17v4h1.5v1H17V17h-1v-1.5h-4V17h-1v-1.5H9.5v-1H11v-4H9.5v-1H11V8h1Zm0 2.5v4h4v-4h-4Z" clip-rule="evenodd"/></symbol>
  <use href="#icon"/>
</svg>
