<svg xmlns="http://www.w3.org/2000/svg">
  <symbol id="icon" fill="none" viewBox="0 0 16 16"><path fill="currentColor" d="M11.5 2a.5.5 0 0 1 0 1H10v10h1.5a.5.5 0 1 1 0 1h-4a.5.5 0 0 1 0-1H9V3H7.5a.5.5 0 0 1 0-1h4ZM8 6H3.5a.5.5 0 0 0-.5.5v3a.5.5 0 0 0 .5.5H8v1H3.5A1.5 1.5 0 0 1 2 9.5v-3A1.5 1.5 0 0 1 3.5 5H8v1Zm4.5-1A1.5 1.5 0 0 1 14 6.5v3a1.5 1.5 0 0 1-1.5 1.5H11v-1h1.5a.5.5 0 0 0 .5-.5v-3a.5.5 0 0 0-.5-.5H11V5h1.5Z"/></symbol>
  <symbol id="icon-large" fill="none" viewBox="0 0 24 24"><path fill="currentColor" d="M17 3a.5.5 0 0 1 0 1h-2.5v16H17l.1.01a.5.5 0 0 1 0 .98L17 21h-6a.5.5 0 0 1 0-1h2.5V4H11a.5.5 0 0 1 0-1h6Zm-5 6H5a1 1 0 0 0-1 1v4a1 1 0 0 0 1 1h7v1H5a2 2 0 0 1-2-2v-4a2 2 0 0 1 2-2h7v1Zm7-1a2 2 0 0 1 2 2v4a2 2 0 0 1-2 2h-3v-1h3a1 1 0 0 0 1-1v-4a1 1 0 0 0-1-1h-3V8h3Z"/></symbol>
  <use href="#icon"/>
</svg>
