<svg xmlns="http://www.w3.org/2000/svg">
  <symbol id="icon" fill="none" viewBox="0 0 16 16"><path fill="currentColor" fill-rule="evenodd" d="M2 1.5a.5.5 0 0 1 .5-.5h10.996a.5.5 0 0 1 .5.5v1.369a.5.5 0 0 1-.424.494l-4.072.62v8.023l4.057.498a.5.5 0 0 1 .44.496v1.502a.5.5 0 0 1-.5.5H2.5a.5.5 0 0 1-.5-.5V13a.5.5 0 0 1 .44-.496l4.06-.498v-8.01l-4.061-.5A.5.5 0 0 1 2 3V1.5ZM3 2v.558l3.622.445a1 1 0 0 1 .878.992v8.011a1 1 0 0 1-.878.993L3 13.443v.559h9.996v-.56L9.378 13a1 1 0 0 1-.878-.993V3.983a1 1 0 0 1 .85-.99l3.646-.554V2H3Z" clip-rule="evenodd"/></symbol>
  <symbol id="icon-large" fill="none" viewBox="0 0 24 24"><path fill="currentColor" fill-rule="evenodd" d="M4 2.5a.5.5 0 0 1 .5-.5h15a.5.5 0 0 1 .5.5v2a.5.5 0 0 1-.418.493l-5.164.86a.5.5 0 0 0-.418.494v11.306a.5.5 0 0 0 .418.493l5.164.86A.5.5 0 0 1 20 19.5v2a.5.5 0 0 1-.5.5h-15a.5.5 0 0 1-.5-.5v-2a.5.5 0 0 1 .418-.493l5.164-.86a.5.5 0 0 0 .418-.494V6.347a.5.5 0 0 0-.418-.493l-5.164-.86A.5.5 0 0 1 4 4.5v-2ZM5 3v1.076l4.747.792A1.5 1.5 0 0 1 11 6.348v11.305a1.5 1.5 0 0 1-1.253 1.48L5 19.922V21h14v-1.076l-4.747-.791A1.5 1.5 0 0 1 13 17.652V6.347a1.5 1.5 0 0 1 1.253-1.48L19 4.078V3H5Z" clip-rule="evenodd"/></symbol>
  <use href="#icon"/>
</svg>
