<svg xmlns="http://www.w3.org/2000/svg">
  <symbol id="icon" fill="none" viewBox="0 0 16 16"><path fill="currentColor" d="M13.5 2A1.5 1.5 0 0 1 15 3.5v7a1.5 1.5 0 0 1-1.5 1.5h-1.691l.638 1.276.036.095a.5.5 0 0 1-.876.439l-.054-.086L10.69 12H5.31l-.862 1.724a.5.5 0 0 1-.894-.448L4.19 12H2.5A1.5 1.5 0 0 1 1 10.5v-7A1.5 1.5 0 0 1 2.5 2h11Zm-11 1a.5.5 0 0 0-.5.5v7a.5.5 0 0 0 .5.5h11a.5.5 0 0 0 .5-.5v-7a.5.5 0 0 0-.5-.5h-11Zm3 4a.5.5 0 0 1 .5.5v2a.5.5 0 0 1-1 0v-2a.5.5 0 0 1 .5-.5ZM8 4.5a.5.5 0 0 1 .5.5v4.5a.5.5 0 0 1-1 0V5a.5.5 0 0 1 .5-.5ZM10.5 6a.5.5 0 0 1 .5.5v3a.5.5 0 0 1-1 0v-3a.5.5 0 0 1 .5-.5Z"/></symbol>
  <symbol id="icon-large" fill="none" viewBox="0 0 24 24"><path fill="currentColor" fill-rule="evenodd" d="M23 3.5a.5.5 0 0 0-.5-.5h-21a.5.5 0 0 0 0 1H3v12.5A1.5 1.5 0 0 0 4.5 18h6.566l-1.482 2.223a.5.5 0 1 0 .832.554L12 18.401l1.584 2.376a.5.5 0 1 0 .832-.554L12.934 18H19.5a1.5 1.5 0 0 0 1.5-1.5V4h1.5a.5.5 0 0 0 .5-.5ZM19.5 17h-15a.5.5 0 0 1-.5-.5V4h16v12.5a.5.5 0 0 1-.5.5ZM8 11.5v2a.5.5 0 0 0 1 0v-2a.5.5 0 0 0-1 0Zm3.5 2v-6a.5.5 0 0 1 1 0v6a.5.5 0 0 1-1 0Zm3.5-4v4a.5.5 0 0 0 1 0v-4a.5.5 0 0 0-1 0Z" clip-rule="evenodd"/></symbol>
  <use href="#icon"/>
</svg>
