<svg xmlns="http://www.w3.org/2000/svg">
  <symbol id="icon" fill="none" viewBox="0 0 16 16"><path fill="currentColor" d="M12.5 13a.5.5 0 0 1 0 1h-9a.5.5 0 0 1 0-1h9ZM8 2a.5.5 0 0 1 .457.297l1.75 3.94 3.002-2.144a.5.5 0 0 1 .786.477l-.878 6.142A1.5 1.5 0 0 1 11.633 12H4.367a1.5 1.5 0 0 1-1.485-1.288L2.005 4.57a.5.5 0 0 1 .786-.477l3 2.143 1.752-3.94.035-.064A.5.5 0 0 1 8 2ZM6.457 7.203a.5.5 0 0 1-.748.204L3.16 5.586l.712 4.984a.5.5 0 0 0 .495.43h7.266a.5.5 0 0 0 .495-.43l.711-4.984-2.549 1.821a.5.5 0 0 1-.747-.204L8 3.731 6.457 7.203Z"/></symbol>
  <symbol id="icon-large" fill="none" viewBox="0 0 24 24"><path fill="currentColor" fill-rule="evenodd" d="M12.435 3.252a.5.5 0 0 0-.833-.056l-.037.056-3.744 6.55-6.06-3.728a.5.5 0 0 0-.752.52l2.344 12.19A1.5 1.5 0 0 0 4.826 20h14.348a1.5 1.5 0 0 0 1.473-1.217l2.344-12.188a.5.5 0 0 0-.753-.52l-6.06 3.728-3.743-6.551Zm-4.311 7.732a.501.501 0 0 0 .31-.236L12 4.508l3.565 6.24a.501.501 0 0 0 .697.178l5.532-3.405L20.164 16H3.836l-1.63-8.48 5.532 3.406a.5.5 0 0 0 .386.058ZM4.028 17l.307 1.595a.5.5 0 0 0 .491.405h14.348a.5.5 0 0 0 .491-.405L19.972 17H4.028Z" clip-rule="evenodd"/></symbol>
  <use href="#icon"/>
</svg>
