<svg xmlns="http://www.w3.org/2000/svg">
  <symbol id="icon" fill="none" viewBox="0 0 16 16"><path fill="currentColor" d="M11.995 9a.5.5 0 0 1 .5.5v.563a2 2 0 0 1 .93.533l.485-.279a.5.5 0 1 1 .5.866l-.485.28a1.973 1.973 0 0 1 0 1.073l.485.281a.5.5 0 0 1-.5.866l-.486-.28c-.251.254-.57.44-.929.532v.565a.5.5 0 0 1-1 0v-.568a1.994 1.994 0 0 1-.922-.534l-.493.285a.5.5 0 0 1-.5-.866l.493-.285a2.001 2.001 0 0 1 0-1.065l-.493-.284a.5.5 0 0 1 .5-.866l.492.283c.25-.255.567-.441.923-.534V9.5a.5.5 0 0 1 .5-.5ZM8 9.5c.282 0 .56.02.832.057-.223.29-.407.61-.545.954a5 5 0 0 0-4.91 3.082c-.141.344-.577.496-.848.24a.472.472 0 0 1-.119-.514A6.001 6.001 0 0 1 8 9.5Zm4 1.5a1 1 0 1 0 0 2 1 1 0 0 0 0-2ZM8 1.5a3.5 3.5 0 1 1 0 7 3.5 3.5 0 0 1 0-7Zm0 1a2.5 2.5 0 1 0 0 5 2.5 2.5 0 0 0 0-5Z"/></symbol>
  <symbol id="icon-large" fill="none" viewBox="0 0 24 24"><path fill="currentColor" d="M19 15a.5.5 0 0 1 .5.5v1.05c.54.11 1.016.396 1.369.794l.912-.527a.5.5 0 0 1 .5.866l-.912.525a2.494 2.494 0 0 1 0 1.583l.912.526a.5.5 0 1 1-.5.866l-.912-.528a2.493 2.493 0 0 1-1.37.794V22.5a.5.5 0 0 1-1 0v-1.05a2.494 2.494 0 0 1-1.368-.795l-.913.528a.5.5 0 1 1-.5-.866l.912-.526a2.497 2.497 0 0 1 0-1.583l-.911-.525a.5.5 0 0 1 .5-.866l.912.527a2.495 2.495 0 0 1 1.369-.794V15.5a.5.5 0 0 1 .5-.5Zm-7-3c1.627 0 3.057.41 4.26 1.142l-.26.427-.261.427c-1.037-.631-2.286-.996-3.74-.996-3.951 0-6.51 2.713-7.282 6.496-.05.242.142.504.454.504H13v1H5.17c-.878 0-1.621-.778-1.433-1.703C4.58 15.168 7.46 12 12 12Zm7 5.5a1.5 1.5 0 1 0 0 3 1.5 1.5 0 0 0 0-3ZM12 3a4 4 0 1 1 0 8 4 4 0 0 1 0-8Zm0 1a3 3 0 1 0 0 6 3 3 0 0 0 0-6Z"/></symbol>
  <use href="#icon"/>
</svg>
