<svg xmlns="http://www.w3.org/2000/svg">
  <symbol id="icon" fill="none" viewBox="0 0 16 16"><path fill="currentColor" d="M6.146 9.147a.5.5 0 1 1 .708.707l-3.147 3.147H5.5a.5.5 0 1 1 0 1h-3a.5.5 0 0 1-.5-.5v-3a.5.5 0 0 1 1 0v1.793l3.146-3.147Zm3 0a.5.5 0 0 1 .63-.064l.078.064L13 12.293v-1.792a.5.5 0 0 1 1 0v3a.5.5 0 0 1-.5.5h-3a.5.5 0 0 1 0-1h1.793L9.146 9.854l-.064-.078a.5.5 0 0 1 .064-.629ZM13.5 2a.5.5 0 0 1 .5.5v3a.5.5 0 0 1-1 0V3.708L9.854 6.854a.5.5 0 0 1-.708-.707L12.293 3H10.5a.5.5 0 0 1 0-1h3Zm-8 0a.5.5 0 0 1 0 1H3.707l3.147 3.147.064.078a.5.5 0 0 1-.693.693l-.079-.064L3 3.708V5.5a.5.5 0 0 1-1 0v-3l.01-.1A.5.5 0 0 1 2.5 2h3Z"/></symbol>
  <symbol id="icon-large" fill="none" viewBox="0 0 24 24"><path fill="currentColor" fill-rule="evenodd" d="M20 4.707V7.5a.5.5 0 0 0 1 0v-4a.5.5 0 0 0-.5-.5h-4a.5.5 0 0 0 0 1h2.793l-4.646 4.646a.5.5 0 1 0 .707.708L20 4.707Zm-10.646 9.94a.5.5 0 0 0-.708 0L4 19.293V16.5a.5.5 0 0 0-1 0v4a.5.5 0 0 0 .5.5h4a.5.5 0 0 0 0-1H4.707l4.647-4.646a.5.5 0 0 0 0-.707ZM20 16.5a.5.5 0 0 1 1 0v4a.5.5 0 0 1-.5.5h-4a.5.5 0 0 1 0-1h2.793l-4.646-4.646a.5.5 0 1 1 .707-.707L20 19.293V16.5ZM7.5 4H4.707l4.647 4.646a.5.5 0 1 1-.708.708L4 4.707V7.5a.5.5 0 0 1-1 0v-4l.01-.1A.5.5 0 0 1 3.5 3h4a.5.5 0 0 1 0 1Z" clip-rule="evenodd"/></symbol>
  <use href="#icon"/>
</svg>
