<svg xmlns="http://www.w3.org/2000/svg">
  <symbol id="icon" fill="none" viewBox="0 0 16 16"><path fill="currentColor" fill-rule="evenodd" d="M14 3.5a.5.5 0 0 0-.5-.5h-11a.5.5 0 0 0-.5.5V6h12V3.5Zm1 3a.5.5 0 0 1-.5.5h-13a.5.5 0 0 1-.5-.5v-3A1.5 1.5 0 0 1 2.5 2h11A1.5 1.5 0 0 1 15 3.5v3Zm-14 6V12a.5.5 0 0 1 1 0v.5a.5.5 0 0 0 .5.5H3a.5.5 0 0 1 0 1h-.5A1.5 1.5 0 0 1 1 12.5Zm6 .5a.5.5 0 0 1 0 1H5a.5.5 0 0 1 0-1h2Zm4 0a.5.5 0 0 1 0 1H9a.5.5 0 0 1 0-1h2Zm3-.5V12a.5.5 0 0 1 1 0v.5a1.5 1.5 0 0 1-1.5 1.5H13a.5.5 0 0 1 0-1h.5a.5.5 0 0 0 .5-.5ZM1 10V8.5a.5.5 0 0 1 1 0V10a.5.5 0 0 1-1 0Zm13 0V8.5a.5.5 0 0 1 1 0V10a.5.5 0 0 1-1 0Zm-1-5.5a.5.5 0 0 0-.5-.5h-2a.5.5 0 0 0 0 1h2a.5.5 0 0 0 .5-.5Z" clip-rule="evenodd"/></symbol>
  <symbol id="icon-large" fill="none" viewBox="0 0 24 24"><path fill="currentColor" fill-rule="evenodd" d="M21 9v.5a.5.5 0 0 0 1 0v-4A1.5 1.5 0 0 0 20.5 4h-17A1.5 1.5 0 0 0 2 5.5v4a.5.5 0 0 0 1 0V9h18Zm0-1V5.5a.5.5 0 0 0-.5-.5h-17a.5.5 0 0 0-.5.5V8h18Zm-1.5-2a.5.5 0 0 1 0 1h-2a.5.5 0 0 1 0-1h2ZM2 17.5v1A1.5 1.5 0 0 0 3.5 20h1a.5.5 0 0 0 0-1h-1a.5.5 0 0 1-.5-.5v-1a.5.5 0 0 0-1 0Zm9 2a.5.5 0 0 0-.5-.5H8a.5.5 0 0 0 0 1h2.5a.5.5 0 0 0 .5-.5Zm5.5 0a.5.5 0 0 0-.5-.5h-2.5a.5.5 0 0 0 0 1H16a.5.5 0 0 0 .5-.5Zm4.5-2v1a.5.5 0 0 1-.5.5h-1a.5.5 0 0 0 0 1h1a1.5 1.5 0 0 0 1.5-1.5v-1a.5.5 0 0 0-1 0Zm-19-5v2a.5.5 0 0 0 1 0v-2a.5.5 0 0 0-1 0Zm19 0v2a.5.5 0 0 0 1 0v-2a.5.5 0 0 0-1 0Z" clip-rule="evenodd"/></symbol>
  <use href="#icon"/>
</svg>
