<svg xmlns="http://www.w3.org/2000/svg">
  <symbol id="icon" fill="none" viewBox="0 0 16 16"><path fill="currentColor" d="M13.864 9.306c.17.11.325.227.461.351.39.355.675.809.675 1.343 0 .534-.284.987-.675 1.343-.39.355-.928.652-1.55.891C11.53 13.714 9.84 14 8 14c-1.84 0-3.529-.286-4.775-.766-.622-.239-1.16-.536-1.55-.891C1.285 11.987 1 11.534 1 11c0-.534.284-.988.675-1.343.136-.124.29-.24.46-.35.145.302.314.592.503.867a2.51 2.51 0 0 0-.29.222C2.08 10.64 2 10.844 2 11c0 .156.08.36.348.603.267.243.681.485 1.235.698 1.074.413 2.58.68 4.269.696.049.001.098.004.148.004.05 0 .098-.003.147-.004 1.69-.015 3.195-.283 4.27-.696.554-.213.968-.455 1.235-.698.267-.242.348-.447.348-.603 0-.156-.08-.361-.348-.604a2.511 2.511 0 0 0-.29-.222 6.55 6.55 0 0 0 .502-.868ZM7.33 1.776a1.5 1.5 0 0 1 1.342 0l3 1.5a1.5 1.5 0 0 1 .829 1.342v3.764a1.5 1.5 0 0 1-.83 1.341l-3 1.5a1.5 1.5 0 0 1-1.34 0l-3-1.5a1.5 1.5 0 0 1-.83-1.341V4.618a1.5 1.5 0 0 1 .83-1.342l3-1.5ZM4.5 8.382a.5.5 0 0 0 .276.447L7.5 10.19V6.308l-3-1.5v3.574Zm4-2.074v3.882l2.724-1.361a.5.5 0 0 0 .276-.447V4.808l-3 1.5Zm-.276-3.637a.5.5 0 0 0-.448 0L5.118 3.999 8 5.44 10.88 4 8.225 2.67Z"/></symbol>
  <symbol id="icon-large" fill="none" viewBox="0 0 24 24"><path fill="currentColor" fill-rule="evenodd" d="m17.5 6.81-5 2.5v5.88l4.724-2.36a.5.5 0 0 0 .276-.448V6.809Zm-6 8.38V9.31l-5-2.5v5.572a.5.5 0 0 0 .276.447l4.724 2.362Zm.724-11.52L16.882 6 12 8.44 7.118 6l4.658-2.33a.5.5 0 0 1 .448 0Zm5.447 10.054a1.5 1.5 0 0 0 .829-1.342V6.618a1.5 1.5 0 0 0-.83-1.342l-5-2.5a1.5 1.5 0 0 0-1.34 0l-5 2.5a1.5 1.5 0 0 0-.83 1.342v5.764a1.5 1.5 0 0 0 .83 1.342l5 2.5a1.5 1.5 0 0 0 1.34 0l5-2.5ZM2 15.5c0-1.093.557-2.072 1.435-2.87l.672.74C3.368 14.043 3 14.771 3 15.5c0 1.103.859 2.22 2.516 3.093C7.15 19.453 9.44 20 12 20s4.85-.547 6.484-1.407C20.141 17.72 21 16.603 21 15.5c0-.729-.368-1.457-1.107-2.13l.672-.74c.878.798 1.435 1.777 1.435 2.87 0 1.659-1.268 3.04-3.05 3.978C17.146 20.428 14.688 21 12 21c-2.688 0-5.146-.573-6.95-1.522C3.269 18.54 2 17.158 2 15.5Z" clip-rule="evenodd"/></symbol>
  <use href="#icon"/>
</svg>
