<svg xmlns="http://www.w3.org/2000/svg">
  <symbol id="icon" fill="none" viewBox="0 0 16 16"><path fill="currentColor" d="M3.758 9.5a4.5 4.5 0 0 0 8.485 0h1.048A5.501 5.501 0 0 1 8 13.5a5.501 5.501 0 0 1-5.291-4h1.049ZM14 7.5a.5.5 0 0 1 0 1H2a.5.5 0 0 1 0-1h12Zm-6-5a5.501 5.501 0 0 1 5.292 4h-1.05a4.501 4.501 0 0 0-8.485 0H2.709a5.5 5.5 0 0 1 5.29-4Z"/></symbol>
  <symbol id="icon-large" fill="none" viewBox="0 0 24 24"><path fill="currentColor" d="M4.65 13.5a7.502 7.502 0 0 0 14.7 0h1.015c-.709 3.978-4.183 7-8.365 7-4.183 0-7.657-3.022-8.365-7H4.65Zm16.85-2a.5.5 0 0 1 0 1h-19a.5.5 0 0 1 0-1h19Zm-9.5-8c4.182 0 7.656 3.021 8.365 7h-1.016a7.503 7.503 0 0 0-14.699 0H3.635A8.5 8.5 0 0 1 12 3.5Z"/></symbol>
  <use href="#icon"/>
</svg>
