<svg xmlns="http://www.w3.org/2000/svg">
  <symbol id="icon" fill="none" viewBox="0 0 16 16"><path fill="currentColor" d="M11.5 2A1.5 1.5 0 0 1 13 3.5v9a1.5 1.5 0 0 1-1.5 1.5h-7A1.5 1.5 0 0 1 3 12.5V11h1v1.5a.5.5 0 0 0 .5.5h7a.5.5 0 0 0 .5-.5v-9a.5.5 0 0 0-.5-.5h-7a.5.5 0 0 0-.5.5V5H3V3.5A1.5 1.5 0 0 1 4.5 2h7ZM5.646 6.146a.5.5 0 0 1 .708 0l1.5 1.5c.034.034.06.073.082.114a.48.48 0 0 1 .054.141.502.502 0 0 1 0 .196.492.492 0 0 1-.047.127.495.495 0 0 1-.09.13l-1.5 1.5a.5.5 0 0 1-.707-.708l.647-.646H2.5a.5.5 0 0 1 0-1h3.793l-.647-.647a.5.5 0 0 1 0-.707Z"/></symbol>
  <symbol id="icon-large" fill="none" viewBox="0 0 24 24"><path fill="currentColor" d="M17.5 3A1.5 1.5 0 0 1 19 4.5v15a1.5 1.5 0 0 1-1.5 1.5h-11A1.5 1.5 0 0 1 5 19.5V15h1v4.5a.5.5 0 0 0 .5.5h11a.5.5 0 0 0 .5-.5v-15a.5.5 0 0 0-.5-.5h-11a.5.5 0 0 0-.5.5V9H5V4.5A1.5 1.5 0 0 1 6.5 3h11ZM8.646 9.146a.5.5 0 0 1 .708 0l2.5 2.5a.5.5 0 0 1 0 .707l-2.5 2.5a.5.5 0 0 1-.708-.707l1.647-1.646H3.5a.5.5 0 0 1 0-1h6.793L8.646 9.854a.5.5 0 0 1 0-.708Z"/></symbol>
  <use href="#icon"/>
</svg>
