<svg xmlns="http://www.w3.org/2000/svg">
  <symbol id="icon" fill="none" viewBox="0 0 16 16"><path fill="currentColor" d="M12.5 8A1.5 1.5 0 0 1 14 9.5v3a1.5 1.5 0 0 1-1.5 1.5h-9A1.5 1.5 0 0 1 2 12.5v-3A1.5 1.5 0 0 1 3.5 8h9Zm-9 1a.5.5 0 0 0-.5.5v3a.5.5 0 0 0 .5.5h9a.5.5 0 0 0 .5-.5v-3a.5.5 0 0 0-.5-.5h-1v1.5a.5.5 0 0 1-1 0V9h-2v2a.5.5 0 0 1-1 0V9h-2v1.5a.5.5 0 0 1-1 0V9h-1Zm10-7a.5.5 0 0 1 .5.5v3a.5.5 0 0 1-1 0v-1H3v1a.5.5 0 0 1-1 0v-3a.5.5 0 0 1 1 0v1h10v-1a.5.5 0 0 1 .5-.5Z"/></symbol>
  <symbol id="icon-large" fill="none" viewBox="0 0 24 24"><path fill="currentColor" fill-rule="evenodd" d="M21 4.5V6H3V4.5a.5.5 0 0 0-1 0v4a.5.5 0 0 0 1 0V7h18v1.5a.5.5 0 0 0 1 0v-4a.5.5 0 0 0-1 0Zm0 8a.5.5 0 0 0-.5-.5H19v2a.5.5 0 0 1-1 0v-2h-2v3.5a.5.5 0 0 1-1 0V12h-2.5v2a.5.5 0 0 1-1 0v-2H9v3.5a.5.5 0 0 1-1 0V12H6v2a.5.5 0 0 1-1 0v-2H3.5a.5.5 0 0 0-.5.5v6a.5.5 0 0 0 .5.5h17a.5.5 0 0 0 .5-.5v-6Zm1 6a1.5 1.5 0 0 1-1.5 1.5h-17A1.5 1.5 0 0 1 2 18.5v-6A1.5 1.5 0 0 1 3.5 11h17a1.5 1.5 0 0 1 1.5 1.5v6Z" clip-rule="evenodd"/></symbol>
  <use href="#icon"/>
</svg>
