<svg xmlns="http://www.w3.org/2000/svg">
  <symbol id="icon" fill="none" viewBox="0 0 16 16"><path fill="currentColor" fill-rule="evenodd" d="M7.5 12v2a.5.5 0 0 0 1 0v-2h-1ZM8 1.5a.5.5 0 0 0-.5.5v7h1V2a.5.5 0 0 0-.5-.5ZM4.397 4.096a.5.5 0 0 1 .707 0l1.5 1.5a.5.5 0 0 1 0 .708l-1.5 1.5a.5.5 0 1 1-.707-.708l.853-.853c-.99.185-1.81.464-2.385.79C2.2 7.41 2 7.762 2 8c0 .156.08.36.348.603.267.243.68.485 1.235.698 1.106.425 2.667.7 4.417.7s3.311-.275 4.417-.7c.554-.213.968-.455 1.235-.698C13.92 8.36 14 8.156 14 8c0-.237-.199-.59-.865-.968-.638-.36-1.575-.664-2.714-.846a.5.5 0 0 1 .158-.989c1.21.195 2.273.526 3.048.965C14.373 6.585 15 7.197 15 8c0 .535-.284.988-.675 1.343-.39.355-.928.652-1.55.892C11.53 10.714 9.84 11 8 11c-1.84 0-3.529-.286-4.775-.765-.622-.24-1.16-.537-1.55-.892C1.285 8.988 1 8.535 1 8c0-.803.627-1.415 1.373-1.838.66-.373 1.526-.669 2.514-.868l-.49-.49a.5.5 0 0 1 0-.708Z" clip-rule="evenodd"/></symbol>
  <symbol id="icon-large" fill="none" viewBox="0 0 24 24"><path fill="currentColor" fill-rule="evenodd" d="M11.5 17v3.5a.5.5 0 0 0 1 0V17h-1ZM12 3a.5.5 0 0 0-.5.5V14h1V3.5A.5.5 0 0 0 12 3ZM7.646 6.546a.5.5 0 0 1 .708 0l2 2a.5.5 0 0 1 0 .708l-2 2a.5.5 0 1 1-.708-.707L9.013 9.18c-1.832.229-3.379.659-4.454 1.2C3.429 10.946 3 11.536 3 12c0 .286.156.62.575.986.419.364 1.053.714 1.88 1.02C7.105 14.612 9.42 15 12 15s4.894-.387 6.545-.995c.827-.305 1.461-.655 1.88-1.02.42-.365.575-.7.575-.985 0-.463-.429-1.053-1.559-1.62-1.084-.546-2.648-.979-4.501-1.206a.5.5 0 0 1 .12-.992c1.924.236 3.61.69 4.83 1.304C21.068 10.076 22 10.917 22 12c0 .681-.376 1.268-.918 1.74-.543.473-1.3.875-2.191 1.204C17.103 15.602 14.667 16 12 16s-5.103-.398-6.89-1.056c-.892-.329-1.65-.732-2.192-1.204C2.376 13.268 2 12.68 2 12c0-1.083.933-1.923 2.11-2.514 1.151-.58 2.718-1.017 4.507-1.262l-.97-.97a.5.5 0 0 1 0-.708Z" clip-rule="evenodd"/></symbol>
  <use href="#icon"/>
</svg>
