<svg xmlns="http://www.w3.org/2000/svg">
  <symbol id="icon" fill="none" viewBox="0 0 16 16"><path fill="currentColor" d="M7.25 1.855a1.5 1.5 0 0 1 1.5 0l4.196 2.423a1.5 1.5 0 0 1 .75 1.299v4.846a1.5 1.5 0 0 1-.75 1.298L8.75 14.144a1.5 1.5 0 0 1-1.5 0l-4.196-2.423a1.5 1.5 0 0 1-.75-1.298V5.577a1.5 1.5 0 0 1 .75-1.299L7.25 1.855Zm1 .866a.5.5 0 0 0-.5 0L3.554 5.144a.5.5 0 0 0-.25.433v4.846a.5.5 0 0 0 .25.432l4.196 2.423a.5.5 0 0 0 .5 0l4.196-2.423a.5.5 0 0 0 .25-.432V5.577a.5.5 0 0 0-.25-.433L8.25 2.721ZM6.146 6.146a.5.5 0 0 1 .63-.064l.078.064L8 7.293l1.146-1.147.08-.063a.5.5 0 0 1 .628.77L8.707 8l1.147 1.146.064.08a.5.5 0 0 1-.693.692l-.079-.065L8 8.707 6.854 9.853a.5.5 0 0 1-.708-.707L7.293 8 6.146 6.853l-.064-.078a.5.5 0 0 1 .064-.629Z"/></symbol>
  <symbol id="icon-large" fill="none" viewBox="0 0 24 24"><path fill="currentColor" fill-rule="evenodd" d="M20.26 7.134a.5.5 0 0 1 .24.426v8.88a.5.5 0 0 1-.24.426l-8 4.889a.5.5 0 0 1-.52 0l-8-4.889a.5.5 0 0 1-.24-.427V7.56a.5.5 0 0 1 .24-.426l8-4.889a.5.5 0 0 1 .52 0l8 4.889Zm.522 10.585a1.5 1.5 0 0 0 .718-1.28V7.56a1.5 1.5 0 0 0-.718-1.279l-8-4.89a1.5 1.5 0 0 0-1.564 0l-8 4.89a1.5 1.5 0 0 0-.718 1.28v8.878a1.5 1.5 0 0 0 .718 1.28l8 4.89a1.5 1.5 0 0 0 1.564 0l8-4.89Zm-5.428-9.073a.5.5 0 0 0-.707 0L12 11.293 9.354 8.646a.5.5 0 1 0-.708.707L11.293 12l-2.647 2.646a.5.5 0 1 0 .708.707L12 12.707l2.646 2.646a.5.5 0 1 0 .707-.707L12.707 12l2.646-2.647a.5.5 0 0 0 0-.707Z" clip-rule="evenodd"/></symbol>
  <use href="#icon"/>
</svg>
