<svg xmlns="http://www.w3.org/2000/svg">
  <symbol id="icon" fill="none" viewBox="0 0 16 16"><path fill="currentColor" d="M6 2a1 1 0 0 1 1 1v4.5h2V5a1 1 0 0 1 1-1h2a1 1 0 0 1 1 1v2.5h1.5a.5.5 0 0 1 0 1H13V11a1 1 0 0 1-1 1h-2a1 1 0 0 1-1-1V8.5H7V13a1 1 0 0 1-1 1H4a1 1 0 0 1-1-1V8.5H1.5a.5.5 0 0 1 0-1H3V3a1 1 0 0 1 1-1h2ZM4 13h2V3H4v10Zm6-2h2V5h-2v6Z"/></symbol>
  <symbol id="icon-large" fill="none" viewBox="0 0 24 24"><path fill="currentColor" fill-rule="evenodd" d="M10 5.5a.5.5 0 0 0-.5-.5h-2a.5.5 0 0 0-.5.5v13a.5.5 0 0 0 .5.5h2a.5.5 0 0 0 .5-.5v-13Zm1 13A1.5 1.5 0 0 1 9.5 20h-2A1.5 1.5 0 0 1 6 18.5v-6H3.5a.5.5 0 0 1 0-1H6v-6A1.5 1.5 0 0 1 7.5 4h2A1.5 1.5 0 0 1 11 5.5v6h2v-4A1.5 1.5 0 0 1 14.5 6h2A1.5 1.5 0 0 1 18 7.5v4h2.5a.5.5 0 0 1 0 1H18v4a1.5 1.5 0 0 1-1.5 1.5h-2a1.5 1.5 0 0 1-1.5-1.5v-4h-2v6ZM16.5 7a.5.5 0 0 1 .5.5v9a.5.5 0 0 1-.5.5h-2a.5.5 0 0 1-.5-.5v-9a.5.5 0 0 1 .5-.5h2Z" clip-rule="evenodd"/></symbol>
  <use href="#icon"/>
</svg>
