<svg xmlns="http://www.w3.org/2000/svg">
  <symbol id="icon" fill="none" viewBox="0 0 16 16"><path fill="currentColor" d="M13.5 11a.5.5 0 0 1 .5.5v2a.5.5 0 0 1-1 0V12H3v1.5a.5.5 0 0 1-1 0v-2a.5.5 0 0 1 .5-.5h11Zm-.854-9.354a.5.5 0 0 1 .707.707l-1.261 1.26A5.982 5.982 0 0 1 14 8v1.5a.5.5 0 0 1-.5.5h-11a.5.5 0 0 1-.5-.5V8c0-1.732.734-3.291 1.907-4.386l-1.26-1.26-.065-.079a.5.5 0 0 1 .693-.693l.078.064 1.345 1.345A5.971 5.971 0 0 1 8 2a5.97 5.97 0 0 1 3.3.99l1.346-1.344ZM8 3a5 5 0 0 0-5 5v1h10V8a5 5 0 0 0-5-5ZM5 6.25a.75.75 0 1 1 0 1.5.75.75 0 0 1 0-1.5Zm6 0a.75.75 0 1 1 0 1.5.75.75 0 0 1 0-1.5Z"/></symbol>
  <symbol id="icon-large" fill="none" viewBox="0 0 24 24"><path fill="currentColor" fill-rule="evenodd" d="M3.146 3.146a.5.5 0 0 1 .708 0l2.558 2.56A9.953 9.953 0 0 1 12 4c2.07 0 3.992.629 5.587 1.705l2.56-2.559a.5.5 0 1 1 .707.708l-2.459 2.458A9.98 9.98 0 0 1 22 14v1.5a.5.5 0 0 1-.5.5h-19a.5.5 0 0 1-.5-.5V14a9.98 9.98 0 0 1 3.605-7.688L3.146 3.854a.5.5 0 0 1 0-.708ZM12 5a9 9 0 0 1 9 9v1H3v-1a9 9 0 0 1 9-9Zm9 13v2.5a.5.5 0 0 0 1 0v-3a.5.5 0 0 0-.5-.5h-19a.5.5 0 0 0-.49.4l-.01.1v3a.5.5 0 0 0 1 0V18h18ZM9 12a1 1 0 1 1-2 0 1 1 0 0 1 2 0Zm7 1a1 1 0 1 0 0-2 1 1 0 0 0 0 2Z" clip-rule="evenodd"/></symbol>
  <use href="#icon"/>
</svg>
