<svg xmlns="http://www.w3.org/2000/svg">
  <symbol id="icon" fill="none" viewBox="0 0 16 16"><path fill="currentColor" d="M12.5 2A1.5 1.5 0 0 1 14 3.5v8a1.5 1.5 0 0 1-1.5 1.5h-2.086a.5.5 0 0 0-.354.146l-1.706 1.707a.5.5 0 0 1-.708 0L5.94 13.146A.5.5 0 0 0 5.586 13H3.5A1.5 1.5 0 0 1 2 11.5v-8A1.5 1.5 0 0 1 3.5 2h9Zm-9 1a.5.5 0 0 0-.5.5v8a.5.5 0 0 0 .5.5h2.086a1.5 1.5 0 0 1 1.06.44L8 13.793l1.354-1.353a1.5 1.5 0 0 1 1.06-.44H12.5a.5.5 0 0 0 .5-.5v-8a.5.5 0 0 0-.5-.5h-9Zm5 5.5a.5.5 0 0 1 0 1h-3a.5.5 0 0 1 0-1h3Zm2-3a.5.5 0 0 1 0 1h-5a.5.5 0 0 1 0-1h5Z"/></symbol>
  <symbol id="icon-large" fill="none" viewBox="0 0 24 24"><path fill="currentColor" fill-rule="evenodd" d="M20.5 4a.5.5 0 0 1 .5.5v13a.5.5 0 0 1-.5.5h-5.531a1.5 1.5 0 0 0-1.153.54l-1.432 1.718a.5.5 0 0 1-.768 0l-1.432-1.718A1.5 1.5 0 0 0 9.03 18H3.5a.5.5 0 0 1-.5-.5v-13a.5.5 0 0 1 .5-.5h17Zm0 15a1.5 1.5 0 0 0 1.5-1.5v-13A1.5 1.5 0 0 0 20.5 3h-17A1.5 1.5 0 0 0 2 4.5v13A1.5 1.5 0 0 0 3.5 19h5.531c.149 0 .29.066.385.18l1.432 1.718a1.5 1.5 0 0 0 2.304 0l1.432-1.718a.501.501 0 0 1 .385-.18H20.5ZM18 7.5a.5.5 0 0 0-.5-.5h-11a.5.5 0 0 0 0 1h11a.5.5 0 0 0 .5-.5Zm-.5 3a.5.5 0 0 1 0 1h-11a.5.5 0 0 1 0-1h11Zm-5 4a.5.5 0 0 0-.5-.5H6.5a.5.5 0 0 0 0 1H12a.5.5 0 0 0 .5-.5Z" clip-rule="evenodd"/></symbol>
  <use href="#icon"/>
</svg>
