<svg xmlns="http://www.w3.org/2000/svg">
  <symbol id="icon" fill="none" viewBox="0 0 16 16"><path fill="currentColor" d="M12.5 2a.5.5 0 0 1 .101.99L12.5 3v8h.5a.5.5 0 0 1 .485.379l.5 2A.5.5 0 0 1 13.5 14h-11a.502.502 0 0 1-.486-.621l.5-2 .028-.08A.5.5 0 0 1 3 11h.5V3l-.1-.01A.5.5 0 0 1 3.5 2h9ZM3.14 13h9.72l-.25-1H3.39l-.25 1ZM4.5 3v8H6V8.5l.01-.1A.5.5 0 0 1 6.5 8h3l.1.01a.5.5 0 0 1 .4.49V11h1.5V3h-7ZM7 11h2V9H7v2Zm0-5a.5.5 0 1 1 0 1H6a.5.5 0 0 1 0-1h1Zm3 0a.5.5 0 0 1 0 1H9a.5.5 0 0 1 0-1h1ZM7 4a.5.5 0 1 1 0 1H6a.5.5 0 0 1 0-1h1Zm3 0a.5.5 0 0 1 0 1H9a.5.5 0 0 1 0-1h1Z"/></symbol>
  <symbol id="icon-large" fill="none" viewBox="0 0 24 24"><path fill="currentColor" d="M19.5 2a.5.5 0 0 1 0 1H19v15h.5a.5.5 0 0 1 .416.223l2 3A.5.5 0 0 1 21.5 22h-19a.5.5 0 0 1-.416-.777l2-3 .038-.05A.5.5 0 0 1 4.5 18H5V3h-.5a.5.5 0 1 1 0-1h15ZM3.434 21h17.131l-1.333-2H4.767l-1.333 2ZM6 18h3v-3.5l.01-.1a.5.5 0 0 1 .49-.4h5l.1.01a.5.5 0 0 1 .4.49V18h3V3H6v15Zm4 0h1.5v-3H10v3Zm2.5 0H14v-3h-1.5v3Zm-2-7a.5.5 0 0 1 0 1h-2a.5.5 0 0 1 0-1h2Zm5 0a.5.5 0 0 1 0 1h-2a.5.5 0 1 1 0-1h2Zm-5-3a.5.5 0 0 1 0 1h-2a.5.5 0 1 1 0-1h2Zm5 0a.5.5 0 0 1 0 1h-2a.5.5 0 1 1 0-1h2Zm-5-3a.5.5 0 0 1 0 1h-2a.5.5 0 1 1 0-1h2Zm5 0a.5.5 0 0 1 0 1h-2a.5.5 0 1 1 0-1h2Z"/></symbol>
  <use href="#icon"/>
</svg>
