<svg xmlns="http://www.w3.org/2000/svg">
  <symbol id="icon" fill="none" viewBox="0 0 16 16"><path fill="currentColor" d="M13.5 2A1.5 1.5 0 0 1 15 3.5v9a1.5 1.5 0 0 1-1.5 1.5h-11A1.5 1.5 0 0 1 1 12.5v-9A1.5 1.5 0 0 1 2.5 2h11Zm-11 1a.5.5 0 0 0-.5.5v9a.5.5 0 0 0 .5.5h11a.5.5 0 0 0 .5-.5v-9a.5.5 0 0 0-.5-.5h-11Zm10.1 1.01a.5.5 0 0 1 .4.49v7a.5.5 0 0 1-.5.5h-9a.5.5 0 0 1-.5-.5v-7l.01-.1A.5.5 0 0 1 3.5 4h9l.1.01ZM4.958 11h6.086L8 8.633 4.957 11ZM4 10.477 7.186 8 4 5.521v4.956ZM8.813 8 12 10.477V5.521L8.813 8ZM8 7.366 11.043 5H4.957L8 7.366Z"/></symbol>
  <symbol id="icon-large" fill="none" viewBox="0 0 24 24"><path fill="currentColor" d="M20.5 4A1.5 1.5 0 0 1 22 5.5v13a1.5 1.5 0 0 1-1.5 1.5h-17A1.5 1.5 0 0 1 2 18.5v-13A1.5 1.5 0 0 1 3.5 4h17Zm-17 1a.5.5 0 0 0-.5.5v13a.5.5 0 0 0 .5.5h17a.5.5 0 0 0 .5-.5v-13a.5.5 0 0 0-.5-.5h-17Zm15.1 2.01a.5.5 0 0 1 .4.49v9a.5.5 0 0 1-.5.5h-13a.5.5 0 0 1-.5-.5v-9l.01-.1A.5.5 0 0 1 5.5 7h13l.1.01ZM7.1 16h9.8L12 12.607 7.1 16Zm5.778-4L18 15.546V8.453L12.878 12ZM6 15.545 11.121 12 6 8.454v7.09Zm6-4.153L16.9 8H7.1l4.9 3.392Z"/></symbol>
  <use href="#icon"/>
</svg>
