<svg xmlns="http://www.w3.org/2000/svg">
  <symbol id="icon" fill="none" viewBox="0 0 16 16"><path fill="currentColor" d="M8 2a3 3 0 0 1 3 3v6a3 3 0 0 1-5.996.154L5 11V5a3 3 0 0 1 3-3ZM2.5 3a.5.5 0 0 1 .5.5v9a.5.5 0 0 1-1 0v-9a.5.5 0 0 1 .5-.5ZM8 3a2 2 0 0 0-2 2v6l.01.204A2 2 0 0 0 10 11V5a2 2 0 0 0-2-2Zm5.5 0a.5.5 0 0 1 .5.5v9a.5.5 0 0 1-1 0v-9a.5.5 0 0 1 .5-.5Z"/></symbol>
  <symbol id="icon-large" fill="none" viewBox="0 0 24 24"><path fill="currentColor" d="M12 3a5 5 0 0 1 5 5v8a5 5 0 0 1-10 0V8a5 5 0 0 1 5-5ZM3.5 4a.5.5 0 0 1 .5.5v15a.5.5 0 0 1-1 0v-15a.5.5 0 0 1 .5-.5ZM12 4a4 4 0 0 0-4 4v8a4 4 0 0 0 8 0V8a4 4 0 0 0-4-4Zm8.5 0a.5.5 0 0 1 .5.5v15a.5.5 0 0 1-1 0v-15a.5.5 0 0 1 .5-.5Z"/></symbol>
  <use href="#icon"/>
</svg>
