<svg xmlns="http://www.w3.org/2000/svg">
  <symbol id="icon" fill="none" viewBox="0 0 16 16"><path fill="currentColor" d="M8.5 1.5a1.5 1.5 0 0 1 1.48 1.7l2 1.2a1.5 1.5 0 0 1 2.52 1.1c0 .7-.47 1.27-1.1 1.45l-1.28 4.68a1.5 1.5 0 1 1-2.03 1.87H7.4a1.5 1.5 0 1 1-2.54-1.49L3.24 9.98 3 10a1.5 1.5 0 1 1 .27-2.98l3.75-3.75L7 3c0-.83.67-1.5 1.5-1.5M6 12.5a.5.5 0 1 0 0 1 .5.5 0 0 0 0-1m5.5 0a.5.5 0 1 0 0 1 .5.5 0 0 0 0-1M9.52 4.1a1.5 1.5 0 0 1-1.97.06l-3.4 3.39a1.5 1.5 0 0 1-.02 1.93l1.63 2.04.24-.02c.65 0 1.2.42 1.41 1h2.68a1.5 1.5 0 0 1 1.01-.95l1.28-4.68a1.5 1.5 0 0 1-.86-1.58zM3 8a.5.5 0 1 0 0 1 .5.5 0 0 0 0-1m10-3a.5.5 0 1 0 0 1 .5.5 0 0 0 0-1M8.5 2.5a.5.5 0 1 0 0 1 .5.5 0 0 0 0-1"/></symbol>
  <symbol id="icon-large" fill="none" viewBox="0 0 24 24"><path fill="currentColor" d="M12 2a2 2 0 0 1 1.99 2.19l4.36 2.18a2 2 0 1 1 1.82 3.12l-1.59 8.6a2 2 0 1 1-2.51 2.41h-4.64a2 2 0 1 1-3.67-1.49l-.16-.21-2.94-3.92A2 2 0 0 1 2 13a2 2 0 0 1 2.27-1.98l6-6Q10.02 4.55 10 4c0-1.1.9-2 2-2M9.5 19a1 1 0 1 0 0 2 1 1 0 0 0 0-2m8.46 0a1 1 0 1 0 .43.08zM13.65 5.13a2 2 0 0 1-2.66.6l-5.73 5.72a2 2 0 0 1 .23 2.88L8.4 18.2l.07.09a2 2 0 0 1 2.96 1.21h4.64a2 2 0 0 1 1.5-1.45l1.61-8.73a2 2 0 0 1-1.17-2zM4 12a1 1 0 1 0 0 2 1 1 0 0 0 0-2m16-5.5a1 1 0 1 0 0 2 1 1 0 0 0 0-2M12 3a1 1 0 1 0 0 2 1 1 0 0 0 0-2"/></symbol>
  <use href="#icon"/>
</svg>
