<svg xmlns="http://www.w3.org/2000/svg">
  <symbol id="icon" fill="none" viewBox="0 0 16 16"><path fill="currentColor" d="M5 8.5A1.5 1.5 0 0 1 6.5 10v2.5A1.5 1.5 0 0 1 5 14H3.5A1.5 1.5 0 0 1 2 12.5V10a1.5 1.5 0 0 1 1.5-1.5H5Zm7.5 0A1.5 1.5 0 0 1 14 10v2.5a1.5 1.5 0 0 1-1.5 1.5H9a1.5 1.5 0 0 1-1.5-1.5V10A1.5 1.5 0 0 1 9 8.5h3.5Zm-9 1a.5.5 0 0 0-.5.5v2.5a.5.5 0 0 0 .5.5H5a.5.5 0 0 0 .5-.5V10a.5.5 0 0 0-.5-.5H3.5Zm5.5 0a.5.5 0 0 0-.5.5v2.5a.5.5 0 0 0 .5.5h3.5a.5.5 0 0 0 .5-.5V10a.5.5 0 0 0-.5-.5H9ZM7 2a1.5 1.5 0 0 1 1.5 1.5V6A1.5 1.5 0 0 1 7 7.5H3.5A1.5 1.5 0 0 1 2 6V3.5A1.5 1.5 0 0 1 3.5 2H7Zm5.653.008A1.5 1.5 0 0 1 14 3.5V6a1.5 1.5 0 0 1-1.5 1.5H11A1.5 1.5 0 0 1 9.5 6V3.5A1.5 1.5 0 0 1 11 2h1.5l.153.008ZM3.5 3a.5.5 0 0 0-.5.5V6a.5.5 0 0 0 .5.5H7a.5.5 0 0 0 .5-.5V3.5A.5.5 0 0 0 7 3H3.5ZM11 3a.5.5 0 0 0-.5.5V6a.5.5 0 0 0 .5.5h1.5A.5.5 0 0 0 13 6V3.5a.5.5 0 0 0-.4-.49L12.5 3H11Z"/></symbol>
  <symbol id="icon-large" fill="none" viewBox="0 0 24 24"><path fill="currentColor" d="M7.5 13A1.5 1.5 0 0 1 9 14.5v5A1.5 1.5 0 0 1 7.5 21h-3A1.5 1.5 0 0 1 3 19.5v-5A1.5 1.5 0 0 1 4.5 13h3Zm12 0a1.5 1.5 0 0 1 1.5 1.5v5a1.5 1.5 0 0 1-1.5 1.5h-7a1.5 1.5 0 0 1-1.5-1.5v-5a1.5 1.5 0 0 1 1.5-1.5h7Zm-15 1a.5.5 0 0 0-.5.5v5a.5.5 0 0 0 .5.5h3a.5.5 0 0 0 .5-.5v-5a.5.5 0 0 0-.5-.5h-3Zm8 0a.5.5 0 0 0-.5.5v5a.5.5 0 0 0 .5.5h7a.5.5 0 0 0 .5-.5v-5a.5.5 0 0 0-.5-.5h-7Zm-1-11A1.5 1.5 0 0 1 13 4.5v5a1.5 1.5 0 0 1-1.5 1.5h-7A1.5 1.5 0 0 1 3 9.5v-5A1.5 1.5 0 0 1 4.5 3h7Zm8 0A1.5 1.5 0 0 1 21 4.5v5a1.5 1.5 0 0 1-1.5 1.5h-3A1.5 1.5 0 0 1 15 9.5v-5A1.5 1.5 0 0 1 16.5 3h3Zm-15 1a.5.5 0 0 0-.5.5v5a.5.5 0 0 0 .5.5h7a.5.5 0 0 0 .5-.5v-5a.5.5 0 0 0-.5-.5h-7Zm12 0a.5.5 0 0 0-.5.5v5a.5.5 0 0 0 .5.5h3a.5.5 0 0 0 .5-.5v-5a.5.5 0 0 0-.5-.5h-3Z"/></symbol>
  <use href="#icon"/>
</svg>
