<svg xmlns="http://www.w3.org/2000/svg">
  <symbol id="icon" fill="none" viewBox="0 0 16 16"><path fill="currentColor" d="M2.5 2a.5.5 0 0 1 .5.5V13h10.5a.5.5 0 0 1 0 1h-11a.5.5 0 0 1-.5-.5v-11a.5.5 0 0 1 .5-.5Zm8.137 7.8c.285-.17.655-.028.722.297.08.39.124.79.136 1.2l.652-.65a.5.5 0 0 1 .707.706l-1.5 1.5a.5.5 0 0 1-.707 0l-1.5-1.5-.064-.078a.5.5 0 0 1 .693-.693l.078.064.64.64a6.013 6.013 0 0 0-.1-.917.542.542 0 0 1 .243-.57Zm-1.23-2.501a.474.474 0 0 1 .72.039c.183.247.351.508.501.779a.47.47 0 0 1-.18.63c-.255.154-.584.049-.73-.21a6.014 6.014 0 0 0-.353-.547.536.536 0 0 1 .043-.691Zm-4.76-4.153a.5.5 0 0 1 .707.707l-.652.652c.41.011.81.056 1.199.135.325.067.468.437.298.722a.541.541 0 0 1-.569.244 6.02 6.02 0 0 0-.918-.101l.642.641.064.078a.501.501 0 0 1-.693.694l-.078-.065-1.5-1.5a.5.5 0 0 1 0-.707l1.5-1.5Zm2.604 2.405a.472.472 0 0 1 .631-.18c.271.15.531.317.779.5a.475.475 0 0 1 .04.72.537.537 0 0 1-.693.043 6.004 6.004 0 0 0-.547-.352c-.258-.147-.363-.477-.21-.731Z"/></symbol>
  <symbol id="icon-large" fill="none" viewBox="0 0 24 24"><path fill="currentColor" d="M3.5 3a.5.5 0 0 1 .5.5V20h16.5a.5.5 0 0 1 0 1h-17a.5.5 0 0 1-.5-.5v-17a.5.5 0 0 1 .5-.5Zm12.26 12.963a.482.482 0 0 1 .67.38c.046.38.07.765.07 1.157v.793l1.147-1.147.078-.064a.5.5 0 0 1 .693.693l-.064.078-2 2a.5.5 0 0 1-.63.065l-.077-.065-2-2-.065-.078a.5.5 0 0 1 .694-.693l.078.064 1.146 1.147V17.5a9.04 9.04 0 0 0-.054-.993.524.524 0 0 1 .314-.544ZM15 13.416a.482.482 0 0 1 .717.204c.095.227.182.458.26.692a.48.48 0 0 1-.277.593.52.52 0 0 1-.685-.323 8.915 8.915 0 0 0-.2-.527.525.525 0 0 1 .185-.64Zm-1.458-2.252a.482.482 0 0 1 .716.027c.164.202.32.41.469.625a.481.481 0 0 1-.137.672.522.522 0 0 1-.714-.144 9.046 9.046 0 0 0-.362-.482.524.524 0 0 1 .028-.698Zm-2.031-1.755a.48.48 0 0 1 .672-.137c.214.148.423.304.625.468.223.181.23.514.027.717a.524.524 0 0 1-.697.028 9.03 9.03 0 0 0-.482-.362.522.522 0 0 1-.145-.714ZM6.225 5.582a.5.5 0 0 1 .693.693l-.064.078L5.707 7.5H6.5c.391 0 .777.024 1.156.068.32.038.504.374.38.671a.524.524 0 0 1-.544.315A9.135 9.135 0 0 0 6.5 8.5h-.793l1.147 1.146.064.078a.5.5 0 0 1-.693.694l-.078-.065-2-2a.5.5 0 0 1 0-.707l2-2 .078-.064Zm2.869 2.717a.48.48 0 0 1 .593-.278c.234.08.466.166.692.261.28.118.373.464.204.717a.525.525 0 0 1-.638.185 8.932 8.932 0 0 0-.528-.2.521.521 0 0 1-.323-.685Z"/></symbol>
  <use href="#icon"/>
</svg>
