<svg xmlns="http://www.w3.org/2000/svg">
  <symbol id="icon" fill="none" viewBox="0 0 16 16"><path fill="currentColor" d="M8.94 1.854a1.5 1.5 0 0 1 2.121 0l3.086 3.086a1.5 1.5 0 0 1 0 2.12L7.06 14.148a1.5 1.5 0 0 1-2.121 0L1.854 11.06a1.5 1.5 0 0 1 0-2.121L8.94 1.854Zm1.414.707a.5.5 0 0 0-.707 0l-1.19 1.19 1.397 1.396.064.078a.501.501 0 0 1-.693.693l-.078-.064L7.75 4.457 6.457 5.75l1.897 1.897.064.078a.501.501 0 0 1-.693.693l-.078-.064L5.75 6.457 4.457 7.75l1.397 1.397.064.078a.501.501 0 0 1-.693.693l-.078-.064L3.75 8.457l-1.189 1.19a.5.5 0 0 0 0 .707l3.086 3.086a.5.5 0 0 0 .707 0l7.086-7.086a.5.5 0 0 0 0-.707L10.354 2.56Z"/></symbol>
  <symbol id="icon-large" fill="none" viewBox="0 0 24 24"><path fill="currentColor" fill-rule="evenodd" d="M16.56 2.353a1.5 1.5 0 0 0-2.12 0L2.354 14.44a1.5 1.5 0 0 0 0 2.121l5.086 5.086a1.5 1.5 0 0 0 2.12 0L21.648 9.56a1.5 1.5 0 0 0 0-2.12L16.56 2.352Zm-1.413.707a.5.5 0 0 1 .707 0l5.085 5.086a.5.5 0 0 1 0 .707L8.854 20.94a.5.5 0 0 1-.707 0L3.06 15.853a.5.5 0 0 1 0-.707l1.19-1.19 1.396 1.397a.5.5 0 0 0 .707-.707L4.957 13.25l1.293-1.293 2.897 2.896a.5.5 0 0 0 .707-.707L6.957 11.25 8.75 9.457l1.397 1.396a.5.5 0 0 0 .707-.707L9.457 8.75l1.793-1.793 2.897 2.896a.5.5 0 1 0 .707-.707L11.957 6.25l1.293-1.293 1.397 1.396a.5.5 0 1 0 .707-.707L13.957 4.25l1.19-1.19Z" clip-rule="evenodd"/></symbol>
  <use href="#icon"/>
</svg>
