<svg xmlns="http://www.w3.org/2000/svg">
  <symbol id="icon" fill="none" viewBox="0 0 16 16"><path fill="currentColor" d="M7.725 2.082a.5.5 0 0 1 .629.065l2.5 2.5.064.078a.5.5 0 0 1-.693.693l-.079-.064L8.5 3.707V9a4 4 0 0 0 4 4 .5.5 0 0 1 0 1A5 5 0 0 1 8 11.18 5 5 0 0 1 3.5 14a.5.5 0 0 1 0-1 4 4 0 0 0 4-4V3.707L5.854 5.354a.5.5 0 1 1-.708-.707l2.5-2.5.079-.065Z"/></symbol>
  <symbol id="icon-large" fill="none" viewBox="0 0 24 24"><path fill="currentColor" d="M11.725 3.082a.5.5 0 0 1 .628.064l4 4 .065.079a.5.5 0 0 1-.693.693l-.079-.065L12.5 4.707V13a7 7 0 0 0 7 7 .5.5 0 0 1 0 1 8.002 8.002 0 0 1-7.5-5.213A8.002 8.002 0 0 1 4.5 21a.5.5 0 0 1 0-1 7 7 0 0 0 7-7V4.707L8.353 7.853a.5.5 0 1 1-.707-.707l4-4 .079-.064Z"/></symbol>
  <use href="#icon"/>
</svg>
