<svg xmlns="http://www.w3.org/2000/svg">
  <symbol id="icon" fill="none" viewBox="0 0 16 16"><path fill="currentColor" d="M5.5 9A1.5 1.5 0 0 1 7 10.5v2A1.5 1.5 0 0 1 5.5 14h-2A1.5 1.5 0 0 1 2 12.5v-2A1.5 1.5 0 0 1 3.5 9h2Zm-2 1a.5.5 0 0 0-.5.5v2a.5.5 0 0 0 .5.5h2a.5.5 0 0 0 .5-.5v-2a.5.5 0 0 0-.5-.5h-2Zm1.146-8.353a.5.5 0 0 1 .63-.065l.077.065 1.5 1.5.063.076a.5.5 0 0 1 0 .555l-.063.076-1.5 1.5a.5.5 0 0 1-.707-.707L5.293 4H4.5A1.5 1.5 0 0 0 3 5.5v1l-.01.1a.5.5 0 0 1-.98 0L2 6.5v-1A2.5 2.5 0 0 1 4.5 3h.793l-.647-.646-.064-.078a.5.5 0 0 1 .064-.63ZM9.5 5a.5.5 0 0 1 .5.5V6h.5a.5.5 0 0 1 0 1H10a1 1 0 0 1-1-1v-.5a.5.5 0 0 1 .5-.5Zm4 0a.5.5 0 0 1 .5.5V6a1 1 0 0 1-1 1h-.5a.5.5 0 0 1 0-1h.5v-.5a.5.5 0 0 1 .5-.5Zm-3-3a.5.5 0 0 1 0 1H10v.5a.5.5 0 0 1-1 0V3a1 1 0 0 1 1-1h.5ZM13 2a1 1 0 0 1 1 1v.5a.5.5 0 0 1-1 0V3h-.5a.5.5 0 0 1 0-1h.5Z"/></symbol>
  <symbol id="icon-large" fill="none" viewBox="0 0 24 24"><path fill="currentColor" d="M9.5 13a1.5 1.5 0 0 1 1.5 1.5v5A1.5 1.5 0 0 1 9.5 21h-5A1.5 1.5 0 0 1 3 19.5v-5A1.5 1.5 0 0 1 4.5 13h5Zm-5 1a.5.5 0 0 0-.5.5v5a.5.5 0 0 0 .5.5h5a.5.5 0 0 0 .5-.5v-5a.5.5 0 0 0-.5-.5h-5ZM8.146 3.146a.501.501 0 0 1 .629-.064l.078.064 2 2 .063.076a.5.5 0 0 1-.063.631l-2 2a.5.5 0 0 1-.707-.707L9.292 6H8.5A3.5 3.5 0 0 0 5 9.5v1a.5.5 0 0 1-1 0v-1A4.5 4.5 0 0 1 8.5 5h.792L8.146 3.853l-.064-.078a.501.501 0 0 1 .064-.629ZM13.499 9a.5.5 0 0 1 .49.4l.02.2c.04.196.195.35.39.39l.201.02a.5.5 0 0 1-.1.99A1.5 1.5 0 0 1 13 9.5a.5.5 0 0 1 .5-.5Zm4 1a.5.5 0 0 1 0 1h-1a.5.5 0 0 1 0-1h1Zm3-1a.5.5 0 0 1 .5.5 1.5 1.5 0 0 1-1.5 1.5.5.5 0 0 1-.1-.99l.201-.02a.501.501 0 0 0 .39-.39l.02-.2a.501.501 0 0 1 .49-.4Zm-7-3a.5.5 0 0 1 .5.5v1a.5.5 0 1 1-1 0v-1a.5.5 0 0 1 .5-.5Zm7 0a.5.5 0 0 1 .5.5v1a.5.5 0 1 1-1 0v-1a.5.5 0 0 1 .5-.5Zm-6-3a.5.5 0 0 1 .101.99l-.201.02a.502.502 0 0 0-.39.39l-.02.2a.5.5 0 0 1-.99-.1A1.5 1.5 0 0 1 14.5 3Zm5 0A1.5 1.5 0 0 1 21 4.5a.5.5 0 0 1-.99.1l-.02-.2a.502.502 0 0 0-.389-.39l-.201-.02a.501.501 0 0 1 .1-.99Zm-2 0a.5.5 0 0 1 0 1h-1a.5.5 0 0 1 0-1h1Z"/></symbol>
  <use href="#icon"/>
</svg>
