<svg xmlns="http://www.w3.org/2000/svg">
  <symbol id="icon" fill="none" viewBox="0 0 16 16"><path fill="currentColor" d="m4.37 6.486-.904.165a.5.5 0 0 0-.263.845l5.3 5.301a.5.5 0 0 0 .846-.264l.164-.904.86.86-.04.223c-.217 1.19-1.681 1.648-2.536.792L5.5 11.207l-3.147 3.147-.707-.707L4.793 10.5 2.496 8.203c-.855-.855-.398-2.319.792-2.536l.222-.04.86.859Zm-2.224-4.34a.5.5 0 0 1 .63-.064l.077.065 11 11 .065.079a.5.5 0 0 1-.693.692l-.079-.064-11-11-.064-.078a.501.501 0 0 1 .064-.63Zm5.786.372a1.5 1.5 0 0 1 2.403-.39l3.537 3.537a1.5 1.5 0 0 1-.39 2.403l-2.196 1.097-.734-.734c.054-.037.111-.072.171-.102l2.312-1.156a.5.5 0 0 0 .13-.8L9.628 2.834a.5.5 0 0 0-.801.13L7.67 5.277c-.03.06-.065.117-.102.171l-.735-.735 1.098-2.195Z"/></symbol>
  <symbol id="icon-large" fill="none" viewBox="0 0 24 24"><path fill="currentColor" d="M2.146 2.146a.5.5 0 0 1 .63-.064l.078.064 19 19 .064.079a.5.5 0 0 1-.693.693l-.079-.064-19-19-.064-.079a.5.5 0 0 1 .064-.629Zm4.97 7.09-2.83.787a.5.5 0 0 0-.22.835l9.076 9.077a.5.5 0 0 0 .835-.22l.786-2.831.812.812-.635 2.286a1.5 1.5 0 0 1-2.505.66L8.25 16.457l-4.896 4.896-.708-.707 4.897-4.896-4.185-4.185a1.5 1.5 0 0 1 .66-2.505l2.285-.636.812.812Zm6.403-6.459a1.501 1.501 0 0 1 2.28-.185l5.61 5.61.122.138a1.5 1.5 0 0 1-.465 2.24l-3.955 2.156a.503.503 0 0 0-.206.212l-.037.093-.37 1.335-.813-.813.22-.79.048-.143c.128-.328.367-.602.679-.772l3.955-2.157.099-.07a.502.502 0 0 0 .09-.627l-.075-.096-5.61-5.61a.5.5 0 0 0-.722.016l-.07.1-2.157 3.954a1.5 1.5 0 0 1-.915.727l-.792.22-.812-.813 1.336-.37a.502.502 0 0 0 .305-.243l2.157-3.955.098-.157Z"/></symbol>
  <use href="#icon"/>
</svg>
