<svg xmlns="http://www.w3.org/2000/svg">
  <symbol id="icon" fill="none" viewBox="0 0 16 16"><path fill="currentColor" d="M10.086 2c.398 0 .78.158 1.061.44l3.414 3.413a1.5 1.5 0 0 1 .44 1.06V12.5a1.5 1.5 0 0 1-1.5 1.5h-11A1.5 1.5 0 0 1 1 12.5v-9A1.5 1.5 0 0 1 2.5 2h7.585ZM2.5 3a.5.5 0 0 0-.5.5v9a.5.5 0 0 0 .5.5H6v-1.5a.5.5 0 0 1 .5-.5H14V7h-2.5A1.5 1.5 0 0 1 10 5.5V3H2.5ZM7 13h2v-1H7v1Zm3 0h3.5a.5.5 0 0 0 .5-.5V12h-4v1Zm1-7.5a.5.5 0 0 0 .5.5h1.793l-2.292-2.293V5.5Z"/></symbol>
  <symbol id="icon-large" fill="none" viewBox="0 0 24 24"><path fill="currentColor" d="M16.086 4a1.5 1.5 0 0 1 1.06.44l4.415 4.414A1.5 1.5 0 0 1 22 9.914V18.5a1.5 1.5 0 0 1-1.5 1.5h-17A1.5 1.5 0 0 1 2 18.5v-13A1.5 1.5 0 0 1 3.5 4h12.586ZM13 17v2h2v-2h-2Zm3 0v2h4.5a.5.5 0 0 0 .5-.5V17h-5ZM3.5 5a.5.5 0 0 0-.5.5v13a.5.5 0 0 0 .5.5H12v-2.5a.5.5 0 0 1 .5-.5H21v-6h-3.5A1.5 1.5 0 0 1 16 8.5V5H3.5ZM17 8.5a.5.5 0 0 0 .5.5h2.793L17 5.707V8.5Z"/></symbol>
  <use href="#icon"/>
</svg>
