<svg xmlns="http://www.w3.org/2000/svg">
  <symbol id="icon" fill="none" viewBox="0 0 16 16"><path fill="currentColor" d="M8 2a4.528 4.528 0 0 1 4.508 4.111l.484.121a1.833 1.833 0 0 1 1.376 1.98l-.239 2.157A1.834 1.834 0 0 1 12.307 12h-.416l-.121.485A2 2 0 0 1 9.83 14H8a.5.5 0 0 1 0-1h1.83a1 1 0 0 0 .97-.758l.206-.832.5-4.493a3.528 3.528 0 1 0-7.012 0l.503 4.527A.501.501 0 0 1 4.5 12h-.806c-.935 0-1.72-.702-1.823-1.63l-.24-2.165c-.1-.907.481-1.75 1.365-1.977l.496-.128A4.529 4.529 0 0 1 8 2Zm4.059 9h.248c.424 0 .781-.32.828-.741l.24-2.156a.834.834 0 0 0-.627-.9l-.26-.066-.43 3.863ZM3.245 7.196a.833.833 0 0 0-.62.899l.24 2.164a.833.833 0 0 0 .829.741h.248L3.51 7.127l-.266.07Z"/></symbol>
  <symbol id="icon-large" fill="none" viewBox="0 0 24 24"><path fill="currentColor" d="M12 3c3.6 0 6.426 3.01 6.272 6.544l.47.095a2.5 2.5 0 0 1 1.985 2.804l-.433 3.034a2.498 2.498 0 0 1-2.948 2.1l-.142 1.215A2.5 2.5 0 0 1 14.72 21H12a.5.5 0 0 1 0-1h2.721c.761 0 1.4-.57 1.49-1.325l1.033-8.778a5.28 5.28 0 1 0-10.488 0l.829 7.044c.03.26-.146.5-.403.55l-.525.102a2.5 2.5 0 0 1-2.95-2.102l-.435-3.048A2.5 2.5 0 0 1 5.257 9.64l.47-.095C5.572 6.009 8.398 3 12 3Zm-6.547 7.62a1.5 1.5 0 0 0-1.19 1.682l.435 3.048a1.5 1.5 0 0 0 1.77 1.26l.069-.013-.713-6.053-.371.075Zm12.01 5.962.062.013a1.5 1.5 0 0 0 1.779-1.26l.433-3.032a1.5 1.5 0 0 0-1.19-1.684l-.373-.075-.71 6.038Z"/></symbol>
  <use href="#icon"/>
</svg>
