<svg xmlns="http://www.w3.org/2000/svg">
  <symbol id="icon" fill="none" viewBox="0 0 16 16"><path fill="currentColor" d="M6.5 2A1.5 1.5 0 0 1 8 3.5v.257l.182-.182a1.5 1.5 0 0 1 2.12 0l2.122 2.122a1.5 1.5 0 0 1 0 2.121L12.242 8h.258A1.5 1.5 0 0 1 14 9.5v3a1.5 1.5 0 0 1-1.5 1.5H5l-.154-.004A3 3 0 0 1 2 11V3.5A1.5 1.5 0 0 1 3.5 2h3Zm-3 1a.5.5 0 0 0-.5.5V11a2 2 0 0 0 4 0V3.5a.5.5 0 0 0-.5-.5h-3Zm3.743 10H12.5a.5.5 0 0 0 .5-.5v-3a.5.5 0 0 0-.5-.5h-1.258l-3.999 4ZM5 10a1 1 0 1 1 0 2 1 1 0 0 1 0-2Zm4.596-5.718a.5.5 0 0 0-.707 0L8 5.171v5.657l3.717-3.717a.5.5 0 0 0 0-.707L9.596 4.282Z"/></symbol>
  <symbol id="icon-large" fill="none" viewBox="0 0 24 24"><path fill="currentColor" fill-rule="evenodd" d="M11.5 3a.5.5 0 0 1 .5.5v13a4.48 4.48 0 0 1-.91 2.713A4.5 4.5 0 0 1 3 16.5v-13a.5.5 0 0 1 .5-.5h8ZM2 16.5A5.5 5.5 0 0 0 7.5 22h13a1.5 1.5 0 0 0 1.5-1.5v-8a1.5 1.5 0 0 0-1.307-1.488 1.5 1.5 0 0 0-.047-2.073L15.06 3.354a1.5 1.5 0 0 0-2.072-.047A1.5 1.5 0 0 0 11.5 2h-8A1.5 1.5 0 0 0 2 3.5v13ZM20.5 12h-.793l-7.827 7.827c-.343.45-.754.847-1.217 1.173H20.5a.5.5 0 0 0 .5-.5v-8a.5.5 0 0 0-.5-.5Zm-7.567 5.36 7.006-7.006a.5.5 0 0 0 0-.708l-5.585-5.585a.5.5 0 0 0-.707 0L13 4.707V16.5c0 .293-.023.58-.067.86ZM7.5 15a1.5 1.5 0 1 1 0 3 1.5 1.5 0 0 1 0-3Zm0 4a2.5 2.5 0 1 0 0-5 2.5 2.5 0 0 0 0 5Z" clip-rule="evenodd"/></symbol>
  <use href="#icon"/>
</svg>
