<svg xmlns="http://www.w3.org/2000/svg">
  <symbol id="icon" fill="none" viewBox="0 0 16 16"><path fill="currentColor" fill-rule="evenodd" d="M10.5 1a.5.5 0 0 0-.5.5v1.035a3.483 3.483 0 0 0-1.596.662l-.732-.733a.5.5 0 0 0-.708.708l.733.732A3.489 3.489 0 0 0 7.145 5a3.834 3.834 0 0 0-3.39 2.08A3.5 3.5 0 0 0 4.5 14h5.667A2.833 2.833 0 0 0 13 11.167c0-.813-.342-1.544-.89-2.059.17-.088.333-.19.486-.305l.732.733a.5.5 0 0 0 .708-.708l-.733-.732a3.479 3.479 0 0 0 .662-1.596H15a.5.5 0 0 0 0-1h-1.035a3.482 3.482 0 0 0-.662-1.596l.733-.732a.5.5 0 0 0-.708-.708l-.732.733A3.483 3.483 0 0 0 11 2.535V1.5a.5.5 0 0 0-.5-.5ZM13 6a2.5 2.5 0 0 0-4.844-.871 3.836 3.836 0 0 1 2.825 3.325A2.502 2.502 0 0 0 13.001 6ZM2 10.5A2.5 2.5 0 0 0 4.5 13h5.667a1.833 1.833 0 0 0 .426-3.614l-.164-.032-.09-.021A.5.5 0 0 1 10 8.855v-.022a2.833 2.833 0 0 0-5.44-1.11.502.502 0 0 1-.395.3L4.1 7.525h-.001l.066.496A2.5 2.5 0 0 0 2 10.5Z" clip-rule="evenodd"/></symbol>
  <symbol id="icon-large" fill="none" viewBox="0 0 24 24"><path fill="currentColor" fill-rule="evenodd" d="M16 3.5a.5.5 0 0 1 1 0v1.527a4.478 4.478 0 0 1 2.309.957l1.08-1.08a.5.5 0 1 1 .707.707l-1.08 1.08A4.48 4.48 0 0 1 20.972 9H22.5a.5.5 0 0 1 0 1h-1.528a4.478 4.478 0 0 1-.956 2.309l1.08 1.08a.5.5 0 1 1-.707.707l-1.08-1.08a4.49 4.49 0 0 1-1.47.781A4 4 0 0 1 14.5 20H5.999a5 5 0 0 1-.941-9.911 5.497 5.497 0 0 1 7.376-2.522c.15-.314.334-.607.549-.876l-1.08-1.08a.5.5 0 1 1 .707-.707l1.08 1.08A4.479 4.479 0 0 1 16 5.027V3.5Zm.5 2.5a3.5 3.5 0 0 1 .585 6.951 3.993 3.993 0 0 0-1.6-.824 5.494 5.494 0 0 0-2.191-4.032A3.5 3.5 0 0 1 16.5 6ZM6 19a4 4 0 0 1-.717-7.935l.182-.03a.5.5 0 0 0 .393-.299A4.502 4.502 0 0 1 14.5 12.5v.035a.5.5 0 0 0 .34.478l.089.021.268.051A2.997 2.997 0 0 1 14.5 19H6Z" clip-rule="evenodd"/></symbol>
  <use href="#icon"/>
</svg>
