<svg xmlns="http://www.w3.org/2000/svg">
  <symbol id="icon" fill="none" viewBox="0 0 16 16"><path fill="currentColor" d="M9.646 11.146a.5.5 0 0 1 .707.707l-2 2a.5.5 0 0 1-.707 0l-2-2-.064-.078a.5.5 0 0 1 .693-.693l.079.064L8 12.793l1.646-1.647ZM13.5 7.5a.5.5 0 0 1 0 1h-11a.5.5 0 0 1 0-1h11ZM7.725 2.082a.5.5 0 0 1 .629.064l2 2 .064.078a.5.5 0 0 1-.693.694l-.079-.065L8 3.207 6.354 4.853a.5.5 0 1 1-.708-.707l2-2 .079-.064Z"/></symbol>
  <symbol id="icon-large" fill="none" viewBox="0 0 24 24"><path fill="currentColor" fill-rule="evenodd" d="M12.354 2.646a.5.5 0 0 0-.63-.064l-.078.064-4 4a.5.5 0 1 0 .708.708L12 3.707l3.646 3.647a.5.5 0 1 0 .707-.708l-4-4ZM20.5 11.5a.5.5 0 0 1 0 1h-17a.5.5 0 0 1 0-1h17Zm-4.854 5.146a.5.5 0 1 1 .707.707l-4 4a.5.5 0 0 1-.707 0l-4-4a.5.5 0 1 1 .708-.707L12 20.293l3.646-3.646Z" clip-rule="evenodd"/></symbol>
  <use href="#icon"/>
</svg>
