<svg xmlns="http://www.w3.org/2000/svg">
  <symbol id="icon" fill="none" viewBox="0 0 16 16"><path fill="currentColor" d="M12.5 2A1.5 1.5 0 0 1 14 3.5v3.086c0 .397-.158.779-.44 1.06l-6.5 6.5a1.5 1.5 0 0 1-2.12 0L1.854 11.06a1.5 1.5 0 0 1 0-2.12l6.5-6.5A1.5 1.5 0 0 1 9.414 2H12.5ZM9.414 3a.5.5 0 0 0-.353.146l-6.5 6.5a.5.5 0 0 0 0 .707l3.086 3.086a.5.5 0 0 0 .707 0l6.5-6.5A.5.5 0 0 0 13 6.586V3.5a.5.5 0 0 0-.5-.5H9.414ZM10.5 4.5a1 1 0 1 1 0 2 1 1 0 0 1 0-2Z"/></symbol>
  <symbol id="icon-large" fill="none" viewBox="0 0 24 24"><path fill="currentColor" fill-rule="evenodd" d="M20.5 3a.5.5 0 0 1 .5.5v8.086a.5.5 0 0 1-.146.354l-9 9a.5.5 0 0 1-.707 0L3.06 12.852a.5.5 0 0 1 0-.707l9-9A.5.5 0 0 1 12.413 3H20.5Zm1.06 9.646a1.5 1.5 0 0 0 .44-1.06V3.5A1.5 1.5 0 0 0 20.5 2h-8.086a1.5 1.5 0 0 0-1.06.44l-9 9a1.5 1.5 0 0 0 0 2.12l8.085 8.086a1.5 1.5 0 0 0 2.121 0l9-9ZM17 6a1 1 0 1 1 0 2 1 1 0 0 1 0-2Zm0 3a2 2 0 1 0 0-4 2 2 0 0 0 0 4Z" clip-rule="evenodd"/></symbol>
  <use href="#icon"/>
</svg>
