<svg xmlns="http://www.w3.org/2000/svg">
  <symbol id="icon" fill="none" viewBox="0 0 16 16"><path fill="currentColor" fill-rule="evenodd" d="M13.5 5a.5.5 0 0 1 .5.5v7a.5.5 0 0 1-.5.5h-11a.5.5 0 0 1-.5-.5v-7a.5.5 0 0 1 .5-.5H4a1.5 1.5 0 0 0 1.2-.6l.9-1.2a.5.5 0 0 1 .4-.2h3a.5.5 0 0 1 .4.2l.9 1.2A1.5 1.5 0 0 0 12 5h1.5Zm0 9a1.5 1.5 0 0 0 1.5-1.5v-7A1.5 1.5 0 0 0 13.5 4H12a.5.5 0 0 1-.4-.2l-.9-1.2A1.5 1.5 0 0 0 9.5 2h-3a1.5 1.5 0 0 0-1.2.6l-.9 1.2A.5.5 0 0 1 4 4H2.5A1.5 1.5 0 0 0 1 5.5v7A1.5 1.5 0 0 0 2.5 14h11ZM8 7a1.5 1.5 0 1 1 0 3 1.5 1.5 0 0 1 0-3Zm0 4a2.5 2.5 0 1 0 0-5 2.5 2.5 0 0 0 0 5Z" clip-rule="evenodd"/></symbol>
  <symbol id="icon-large" fill="none" viewBox="0 0 24 24"><path fill="currentColor" fill-rule="evenodd" d="M20.5 7a.5.5 0 0 1 .5.5v12a.5.5 0 0 1-.5.5h-17a.5.5 0 0 1-.5-.5v-12a.5.5 0 0 1 .5-.5h3.465a1.5 1.5 0 0 0 1.248-.668l1.406-2.11A.5.5 0 0 1 10.035 4h3.93a.5.5 0 0 1 .416.223l1.406 2.109A1.5 1.5 0 0 0 17.035 7H20.5Zm0 14a1.5 1.5 0 0 0 1.5-1.5v-12A1.5 1.5 0 0 0 20.5 6h-3.465a.5.5 0 0 1-.416-.223l-1.406-2.109A1.5 1.5 0 0 0 13.965 3h-3.93a1.5 1.5 0 0 0-1.248.668l-1.406 2.11A.5.5 0 0 1 6.965 6H3.5A1.5 1.5 0 0 0 2 7.5v12A1.5 1.5 0 0 0 3.5 21h17ZM12 10a3 3 0 1 1 0 6 3 3 0 0 1 0-6Zm0 7a4 4 0 1 0 0-8 4 4 0 0 0 0 8Z" clip-rule="evenodd"/></symbol>
  <use href="#icon"/>
</svg>
