<svg xmlns="http://www.w3.org/2000/svg">
  <symbol id="icon" fill="none" viewBox="0 0 16 16"><path fill="currentColor" d="M7.411 1.786a1.501 1.501 0 0 1 1.36.093l4 2.4a1.5 1.5 0 0 1 .729 1.287v4.867a1.5 1.5 0 0 1-.729 1.286l-4 2.4a1.5 1.5 0 0 1-1.36.095l-.182-.094-4-2.4a1.5 1.5 0 0 1-.729-1.287V5.566a1.5 1.5 0 0 1 .729-1.286l4-2.4.182-.094ZM3.5 10.433a.5.5 0 0 0 .243.429l3.795 2.276v-1.833L5.243 9.928A.5.5 0 0 1 5 9.5V6.737l-1.5-.9v4.596ZM11 6.737V9.5a.5.5 0 0 1-.243.428l-2.295 1.377v1.833l3.795-2.276a.5.5 0 0 0 .243-.429V5.837l-1.5.9Zm-5 .045v2.434l2 1.2 2-1.2V6.782l-2-1.2-2 1.2Zm2.257-4.045a.5.5 0 0 0-.453-.031l-.06.03-3.81 2.286 1.528.917 2.281-1.368.06-.031a.5.5 0 0 1 .454.03l2.28 1.369 1.528-.917-3.808-2.285Z"/></symbol>
  <symbol id="icon-large" fill="none" viewBox="0 0 24 24"><path fill="currentColor" d="M11.403 1.296a1.5 1.5 0 0 1 1.38.096l8 4.89A1.5 1.5 0 0 1 21.5 7.56v8.878a1.5 1.5 0 0 1-.559 1.168l-.159.112-8 4.89a1.5 1.5 0 0 1-1.379.095l-.185-.096-8-4.89A1.5 1.5 0 0 1 2.5 16.44V7.561a1.5 1.5 0 0 1 .718-1.28l8-4.89.185-.095ZM3.5 16.439a.5.5 0 0 0 .24.427l7.76 4.742v-3.826L6.743 14.93a.5.5 0 0 1-.243-.43V9.725l-3-1.833v8.547Zm14-6.714V14.5a.5.5 0 0 1-.243.429L12.5 17.782v3.826l7.76-4.742.053-.038a.5.5 0 0 0 .187-.389V7.892l-3 1.833Zm-10 .057v4.435l4.5 2.7 4.5-2.7V9.782l-4.5-2.7-4.5 2.7Zm4.76-7.537a.5.5 0 0 0-.46-.032l-.06.032L3.957 7l3.09 1.889 4.695-2.817.06-.03a.5.5 0 0 1 .454.03l4.694 2.817L20.04 7l-7.78-4.754Z"/></symbol>
  <use href="#icon"/>
</svg>
