<svg xmlns="http://www.w3.org/2000/svg">
  <symbol id="icon" fill="none" viewBox="0 0 16 16"><path fill="currentColor" fill-rule="evenodd" d="M8 2a6 6 0 0 0-6 6c0 .156.08.36.347.603.267.243.682.485 1.236.698C4.69 9.726 6.25 10 8 10c.661 0 1.296-.04 1.89-.11.07-.595.11-1.23.11-1.89 0-1.75-.274-3.311-.699-4.417-.213-.554-.455-.969-.698-1.236C8.36 2.08 8.156 2 8 2Zm1.726 8.914A16.99 16.99 0 0 1 8 11c-1.84 0-3.529-.286-4.776-.766a6.178 6.178 0 0 1-.957-.457A6.003 6.003 0 0 0 8 14c.156 0 .36-.08.603-.347.243-.267.485-.682.698-1.236.168-.436.312-.942.425-1.503Zm1.044-.144c.745-.13 1.424-.312 2.006-.536.349-.134.672-.286.957-.457a6.014 6.014 0 0 1-3.956 3.956c.17-.285.323-.608.457-.957.224-.582.406-1.26.536-2.006ZM14 8c0 .156-.08.36-.347.603-.267.243-.682.485-1.236.698a9.388 9.388 0 0 1-1.503.425A16.99 16.99 0 0 0 11 8c0-1.84-.286-3.529-.766-4.776a6.178 6.178 0 0 0-.457-.957A6.003 6.003 0 0 1 14 8Zm1 0A7 7 0 1 1 1 8a7 7 0 0 1 14 0Z" clip-rule="evenodd"/></symbol>
  <symbol id="icon-large" fill="none" viewBox="0 0 24 24"><path fill="currentColor" fill-rule="evenodd" d="M12 3a9 9 0 0 0-9 9c0 .285.155.62.575.985.418.365 1.053.716 1.88 1.02C7.106 14.615 9.42 15 12 15c.993 0 1.946-.057 2.838-.162.105-.892.162-1.845.162-2.838 0-2.58-.386-4.894-.994-6.545-.305-.827-.656-1.462-1.02-1.88C12.62 3.155 12.285 3 12 3Zm2.692 12.86c-.857.091-1.76.14-2.692.14-2.667 0-5.103-.397-6.89-1.056-.738-.272-1.384-.595-1.892-.966A9.003 9.003 0 0 0 12 21c.285 0 .62-.155.985-.575.365-.419.716-1.053 1.02-1.88.283-.766.517-1.674.687-2.685Zm1.034-.133c1.185-.182 2.258-.45 3.164-.783.738-.272 1.384-.595 1.892-.966a9.012 9.012 0 0 1-6.804 6.804c.371-.508.694-1.154.966-1.892.334-.906.6-1.979.782-3.164ZM21 12c0 .285-.155.62-.575.985-.419.365-1.053.716-1.88 1.02-.766.283-1.674.517-2.685.687.091-.857.14-1.76.14-2.692 0-2.667-.397-5.103-1.056-6.89-.272-.738-.595-1.384-.966-1.892A9.003 9.003 0 0 1 21 12Zm1 0c0 5.523-4.477 10-10 10S2 17.523 2 12 6.477 2 12 2s10 4.477 10 10Z" clip-rule="evenodd"/></symbol>
  <use href="#icon"/>
</svg>
