<svg xmlns="http://www.w3.org/2000/svg">
  <symbol id="icon" fill="none" viewBox="0 0 16 16"><path fill="currentColor" fill-rule="evenodd" d="M2 2.5a.5.5 0 0 1 .5-.5h11a.5.5 0 0 1 .5.5v1a.5.5 0 0 1-.5.5h-11a.5.5 0 0 1-.5-.5v-1ZM2.5 1A1.5 1.5 0 0 0 1 2.5v1A1.5 1.5 0 0 0 2.5 5h11A1.5 1.5 0 0 0 15 3.5v-1A1.5 1.5 0 0 0 13.5 1h-11Zm0 6a.5.5 0 0 0-.5.5v1a.5.5 0 0 0 .5.5h11a.5.5 0 0 0 .5-.5v-1a.5.5 0 0 0-.5-.5h-11ZM1 7.5A1.5 1.5 0 0 1 2.5 6h11A1.5 1.5 0 0 1 15 7.5v1a1.5 1.5 0 0 1-1.5 1.5h-11A1.5 1.5 0 0 1 1 8.5v-1ZM2.5 12a.5.5 0 0 0-.5.5v1a.5.5 0 0 0 .5.5h11a.5.5 0 0 0 .5-.5v-1a.5.5 0 0 0-.5-.5h-11Zm-1.5.5A1.5 1.5 0 0 1 2.5 11h11a1.5 1.5 0 0 1 1.5 1.5v1a1.5 1.5 0 0 1-1.5 1.5h-11A1.5 1.5 0 0 1 1 13.5v-1Z" clip-rule="evenodd"/></symbol>
  <symbol id="icon-large" fill="none" viewBox="0 0 24 24"><path fill="currentColor" fill-rule="evenodd" d="M4 4.5a.5.5 0 0 1 .5-.5h15a.5.5 0 0 1 .5.5v2a.5.5 0 0 1-.5.5h-15a.5.5 0 0 1-.5-.5v-2ZM4.5 3A1.5 1.5 0 0 0 3 4.5v2A1.5 1.5 0 0 0 4.5 8h15A1.5 1.5 0 0 0 21 6.5v-2A1.5 1.5 0 0 0 19.5 3h-15Zm0 7.5a.5.5 0 0 0-.5.5v2a.5.5 0 0 0 .5.5h15a.5.5 0 0 0 .5-.5v-2a.5.5 0 0 0-.5-.5h-15ZM3 11a1.5 1.5 0 0 1 1.5-1.5h15A1.5 1.5 0 0 1 21 11v2a1.5 1.5 0 0 1-1.5 1.5h-15A1.5 1.5 0 0 1 3 13v-2Zm1.5 6a.5.5 0 0 0-.5.5v2a.5.5 0 0 0 .5.5h15a.5.5 0 0 0 .5-.5v-2a.5.5 0 0 0-.5-.5h-15Zm-1.5.5A1.5 1.5 0 0 1 4.5 16h15a1.5 1.5 0 0 1 1.5 1.5v2a1.5 1.5 0 0 1-1.5 1.5h-15A1.5 1.5 0 0 1 3 19.5v-2Z" clip-rule="evenodd"/></symbol>
  <use href="#icon"/>
</svg>
