<svg xmlns="http://www.w3.org/2000/svg">
  <symbol id="icon" fill="none" viewBox="0 0 16 16"><path fill="currentColor" d="M12.5 9.5a3 3 0 1 1 0 6 3 3 0 0 1 0-6Zm0 1a2 2 0 1 0 0 4 2 2 0 0 0 0-4Zm0 2a.5.5 0 0 1 .5.5v.5a.5.5 0 0 1-1 0V13a.5.5 0 0 1 .5-.5ZM5.008 2.15c.307-.115.644-.126.958-.032l4.346 1.304.082.017c.082.01.167 0 .245-.03l2.311-.912.186-.06A1.5 1.5 0 0 1 15 3.894v5.485a3.994 3.994 0 0 0-1-.586V3.894l-.004-.066a.5.5 0 0 0-.68-.4l-2.311.91L11 4.34v4.452c-.363.147-.7.346-1 .587V4.371l-4-1.2v8.457l2.502.75-.002.122c0 .33.04.65.115.956l-2.935-.88a.502.502 0 0 0-.242-.011l-.078.021-2.334.876A1.5 1.5 0 0 1 1 12.057L.999 4.694c0-.626.388-1.186.974-1.406l3.035-1.137ZM2.323 4.226A.501.501 0 0 0 2 4.694v7.363a.5.5 0 0 0 .675.469L5 11.654V3.22L2.323 4.225ZM12.5 11a.5.5 0 1 1 0 1 .5.5 0 0 1 0-1Z"/></symbol>
  <symbol id="icon-large" fill="none" viewBox="0 0 24 24"><path fill="currentColor" fill-rule="evenodd" d="M20.342 4.913a.5.5 0 0 1 .658.475V13h1V5.388a1.5 1.5 0 0 0-1.975-1.423l-4.39 1.463a.502.502 0 0 1-.295.007l-6.405-1.83a1.5 1.5 0 0 0-.886.018L3.025 5.298A1.5 1.5 0 0 0 2 6.72v11.891a1.5 1.5 0 0 0 1.975 1.423l4.39-1.463a.502.502 0 0 1 .295-.007l3.202.915.276-.96L9 17.623V4.663l6 1.714V13h1V6.36l4.342-1.447ZM8 4.693 3.342 6.247A.5.5 0 0 0 3 6.721v11.891a.5.5 0 0 0 .658.475L8 17.639V4.694ZM18.5 15a3.5 3.5 0 1 1 0 7 3.5 3.5 0 0 1 0-7Zm0 8a4.5 4.5 0 1 0 0-9 4.5 4.5 0 0 0 0 9Zm-.5-2.5v-2a.5.5 0 0 1 1 0v2a.5.5 0 0 1-1 0Zm.505-3.1a.625.625 0 1 0 0-1.25.625.625 0 0 0 0 1.25Z" clip-rule="evenodd"/></symbol>
  <use href="#icon"/>
</svg>
