<svg xmlns="http://www.w3.org/2000/svg">
  <symbol id="icon" fill="none" viewBox="0 0 16 16"><path fill="currentColor" d="M12.5 10a.5.5 0 0 1 .5.5V12h1.5a.5.5 0 0 1 0 1H13v1.5a.5.5 0 0 1-1 0V13h-1.5a.5.5 0 0 1 0-1H12v-1.5a.5.5 0 0 1 .5-.5Zm.725-7.918a.5.5 0 0 1 .693.694l-.065.078-3.41 3.409A3 3 0 0 1 8 11a2.982 2.982 0 0 1-1.736-.557l-3.41 3.41a.5.5 0 0 1-.708-.706l3.41-3.41A2.983 2.983 0 0 1 5 8a3 3 0 0 1 3-3c.648 0 1.246.208 1.736.557l3.41-3.41.079-.065ZM8 6a2 2 0 1 0 0 4 2 2 0 0 0 0-4Z"/></symbol>
  <symbol id="icon-large" fill="none" viewBox="0 0 24 24"><path fill="currentColor" d="M19 15.5a.5.5 0 0 1 .5.5v2.5H22a.5.5 0 0 1 0 1h-2.5V22a.5.5 0 1 1-1 0v-2.5H16a.5.5 0 0 1 0-1h2.5V16a.5.5 0 0 1 .5-.5Zm1.146-12.354a.5.5 0 0 1 .707.707l-5.695 5.695a4 4 0 0 1-5.61 5.61l-5.695 5.695a.5.5 0 0 1-.707-.707l5.694-5.695a4 4 0 0 1 5.611-5.611l5.695-5.694ZM12 9a3 3 0 1 0 0 6 3 3 0 0 0 0-6Z"/></symbol>
  <use href="#icon"/>
</svg>
