<svg xmlns="http://www.w3.org/2000/svg">
  <symbol id="icon" fill="none" viewBox="0 0 16 16"><path fill="currentColor" d="M6 8H4.347a.501.501 0 0 0-.494.417l-.666 4a.5.5 0 0 0 .494.582h8.638a.5.5 0 0 0 .493-.582l-.666-4A.501.501 0 0 0 11.653 8H10V7h1.653a1.5 1.5 0 0 1 1.48 1.252l.666 4A1.5 1.5 0 0 1 12.319 14H3.681a1.5 1.5 0 0 1-1.48-1.747l.666-4A1.5 1.5 0 0 1 4.347 7H6v1Zm1.724-5.918a.501.501 0 0 1 .63.064l2.5 2.5.064.078a.5.5 0 0 1-.693.693l-.079-.064L8.5 3.707V9.5a.5.5 0 0 1-1 0V3.707L5.853 5.353a.5.5 0 1 1-.707-.707l2.5-2.5.078-.064Z"/></symbol>
  <symbol id="icon-large" fill="none" viewBox="0 0 24 24"><path fill="currentColor" fill-rule="evenodd" d="M12.354 2.146a.5.5 0 0 0-.63-.064l-.078.064-3.5 3.5a.5.5 0 1 0 .708.708L11.5 3.707V12.5a.5.5 0 0 0 1 0V3.707l2.646 2.647a.5.5 0 1 0 .707-.708l-3.5-3.5ZM4 20.5v-11A1.5 1.5 0 0 1 5.5 8H9v1H5.5a.5.5 0 0 0-.5.5v11a.5.5 0 0 0 .5.5h13a.5.5 0 0 0 .5-.5v-11a.5.5 0 0 0-.5-.5H15V8h3.5A1.5 1.5 0 0 1 20 9.5v11a1.5 1.5 0 0 1-1.5 1.5h-13A1.5 1.5 0 0 1 4 20.5Z" clip-rule="evenodd"/></symbol>
  <use href="#icon"/>
</svg>
