<svg xmlns="http://www.w3.org/2000/svg">
  <symbol id="icon" fill="none" viewBox="0 0 16 16"><path fill="currentColor" d="M4.5 2a1 1 0 0 1 1 1v10a1 1 0 0 1-1 1H3a1 1 0 0 1-1-1V3a1 1 0 0 1 1-1h1.5ZM9 2a1 1 0 0 1 1 1v10a1 1 0 0 1-1 1H7.5a1 1 0 0 1-1-1V3a1 1 0 0 1 1-1H9ZM3 13h1.5V3H3v10Zm4.5 0H9V3H7.5v10ZM13 6a.5.5 0 0 1 .5.5v1h1a.5.5 0 0 1 0 1h-1v1a.5.5 0 0 1-1 0v-1h-1a.5.5 0 0 1 0-1h1v-1A.5.5 0 0 1 13 6Z"/></symbol>
  <symbol id="icon-large" fill="none" viewBox="0 0 24 24"><path fill="currentColor" d="M6.5 3A1.5 1.5 0 0 1 8 4.5v15A1.5 1.5 0 0 1 6.5 21h-2A1.5 1.5 0 0 1 3 19.5v-15A1.5 1.5 0 0 1 4.5 3h2ZM13 3a1.5 1.5 0 0 1 1.5 1.5v15A1.5 1.5 0 0 1 13 21h-2a1.5 1.5 0 0 1-1.5-1.5v-15A1.5 1.5 0 0 1 11 3h2ZM4.5 4a.5.5 0 0 0-.5.5v15a.5.5 0 0 0 .5.5h2a.5.5 0 0 0 .5-.5v-15a.5.5 0 0 0-.5-.5h-2ZM11 4a.5.5 0 0 0-.5.5v15a.5.5 0 0 0 .5.5h2a.5.5 0 0 0 .5-.5v-15A.5.5 0 0 0 13 4h-2Zm7.5 5.5a.5.5 0 0 1 .5.5v1.5h1.5a.5.5 0 1 1 0 1H19V14a.5.5 0 0 1-1 0v-1.5h-1.5a.5.5 0 0 1 0-1H18V10a.5.5 0 0 1 .5-.5Z"/></symbol>
  <use href="#icon"/>
</svg>
