<svg xmlns="http://www.w3.org/2000/svg">
  <symbol id="icon" fill="none" viewBox="0 0 16 16"><path fill="currentColor" d="M7.631 1.596c.24-.08.5-.08.739 0l5.285 1.761a.506.506 0 0 1 .345.48c0 2.381.133 5.14-1.194 7.384-.126.213-.267.42-.426.604-.54.631-1.362 1.188-2.104 1.615-.752.433-1.468.759-1.833.916a1.105 1.105 0 0 1-.884 0 18.538 18.538 0 0 1-1.834-.916c-.742-.427-1.564-.983-2.104-1.615-.159-.185-.3-.39-.426-.604C1.867 8.977 2 6.219 2 3.837c0-.217.14-.41.346-.48l5.285-1.761Zm.317.949L3 4.193c-.006 2.37-.046 4.658 1.055 6.519.104.175.212.33.325.463.426.498 1.127.986 1.844 1.4.707.406 1.386.714 1.732.864.03.012.06.012.09 0a17.49 17.49 0 0 0 1.73-.865c.718-.412 1.419-.901 1.845-1.4.113-.131.221-.287.325-.462 1.1-1.86 1.06-4.15 1.053-6.519L8.053 2.545a.168.168 0 0 0-.105 0Z"/></symbol>
  <symbol id="icon-large" fill="none" viewBox="0 0 24 24"><path fill="currentColor" d="M11.577 2.103a1.5 1.5 0 0 1 .846 0l8.213 2.415a.508.508 0 0 1 .364.487v.442c0 2.152.084 4.51-.191 6.73-.278 2.231-.925 4.39-2.43 6.148-.798.934-2.034 1.722-3.158 2.314a24.333 24.333 0 0 1-2.729 1.215 1.405 1.405 0 0 1-.984 0 24.33 24.33 0 0 1-2.729-1.215c-1.124-.592-2.36-1.38-3.159-2.314-1.504-1.759-2.151-3.917-2.429-6.147C2.915 9.958 3 7.599 3 5.448v-.443a.51.51 0 0 1 .364-.487l8.213-2.415Zm.564.96a.5.5 0 0 0-.282 0L4 5.372v.074c0 2.205-.081 4.467.185 6.607.264 2.128.867 4.069 2.195 5.62.672.787 1.77 1.504 2.865 2.08a23.3 23.3 0 0 0 2.612 1.163.404.404 0 0 0 .286 0 23.302 23.302 0 0 0 2.612-1.163c1.095-.576 2.193-1.293 2.865-2.08 1.328-1.551 1.93-3.492 2.195-5.62.266-2.14.185-4.402.185-6.607v-.073l-7.86-2.312Z"/></symbol>
  <use href="#icon"/>
</svg>
