<svg xmlns="http://www.w3.org/2000/svg">
  <symbol id="icon" fill="none" viewBox="0 0 16 16"><path fill="currentColor" d="M6.146 9.147a.5.5 0 1 1 .707.707l-3.146 3.147H5.5a.5.5 0 1 1 0 1h-3a.5.5 0 0 1-.5-.5v-3a.5.5 0 0 1 1 0v1.793l3.146-3.147ZM13.5 2a.5.5 0 0 1 .5.5v3a.5.5 0 0 1-1 0V3.708L9.853 6.854a.5.5 0 0 1-.707-.707L12.293 3H10.5a.5.5 0 0 1 0-1h3Z"/></symbol>
  <symbol id="icon-large" fill="none" viewBox="0 0 24 24"><path fill="currentColor" fill-rule="evenodd" d="M20 4.707V8.5a.5.5 0 0 0 1 0v-5a.5.5 0 0 0-.5-.5h-5a.5.5 0 0 0 0 1h3.793l-5.646 5.646a.5.5 0 1 0 .707.707L20 4.708Zm-9.646 8.94a.5.5 0 0 0-.708 0L4 19.293V15.5a.5.5 0 0 0-1 0v5a.5.5 0 0 0 .5.5h5a.5.5 0 0 0 0-1H4.707l5.647-5.646a.5.5 0 0 0 0-.707Z" clip-rule="evenodd"/></symbol>
  <use href="#icon"/>
</svg>
