<svg xmlns="http://www.w3.org/2000/svg">
  <symbol id="icon" fill="none" viewBox="0 0 16 16"><path fill="currentColor" d="M8 12.75a.75.75 0 1 1 0 1.5.75.75 0 0 1 0-1.5ZM6.68 2.885c.568-1.047 2.072-1.047 2.64 0l4.82 8.9A1.5 1.5 0 0 1 12.82 14H10.5v-1h2.321a.5.5 0 0 0 .44-.738l-4.822-8.9a.5.5 0 0 0-.879 0l-4.821 8.9a.5.5 0 0 0 .44.738h2.32v1H3.18a1.5 1.5 0 0 1-1.319-2.215l4.82-8.9ZM8 6.5a.5.5 0 0 1 .5.5v4a.5.5 0 0 1-1 0V7a.5.5 0 0 1 .5-.5Z"/></symbol>
  <symbol id="icon-large" fill="none" viewBox="0 0 24 24"><path fill="currentColor" d="M10.681 3.39c.567-1.049 2.072-1.049 2.639 0l8.323 15.398A1.5 1.5 0 0 1 20.323 21H3.678a1.5 1.5 0 0 1-1.32-2.212L10.68 3.39Zm1.759.476a.5.5 0 0 0-.88 0L3.239 19.263a.5.5 0 0 0 .44.737h16.645a.5.5 0 0 0 .44-.737L12.44 3.866ZM12 16.25a.75.75 0 1 1 0 1.5.75.75 0 0 1 0-1.5Zm0-7.75a.5.5 0 0 1 .5.5v5a.501.501 0 0 1-1 0V9a.5.5 0 0 1 .5-.5Z"/></symbol>
  <use href="#icon"/>
</svg>
