<svg xmlns="http://www.w3.org/2000/svg">
  <symbol id="icon" fill="none" viewBox="0 0 16 16"><path fill="currentColor" fill-rule="evenodd" d="M6.03 2.984a.985.985 0 0 1 1.97 0V8.5a.5.5 0 0 0 1 0v-.839a.502.502 0 0 0 .01-.1v-.572a.99.99 0 1 1 1.98 0v1.474l-.001.027V9a.5.5 0 1 0 1 0v-.53a.99.99 0 0 1 .99-.97.98.98 0 0 1 .985.984c-.021 2.049-.155 3.896-.928 5.83a.5.5 0 1 0 .928.372c.845-2.111.978-4.11 1-6.191A1.98 1.98 0 0 0 12.98 6.5a1.98 1.98 0 0 0-1.002.27A1.99 1.99 0 0 0 9 5.269V2.984a1.985 1.985 0 1 0-3.97 0V8.91l-.376-.742A1.958 1.958 0 0 0 1.157 9.93l2.396 4.793a.5.5 0 1 0 .894-.448L2.051 9.484a.958.958 0 0 1 1.712-.862l1.322 2.604A.5.5 0 0 0 6.03 11V2.984Z" clip-rule="evenodd"/></symbol>
  <symbol id="icon-large" fill="none" viewBox="0 0 24 24"><path fill="currentColor" fill-rule="evenodd" d="M8.5 6a1.5 1.5 0 1 1 3 0v7a.5.5 0 0 0 1 0v-1.5a1.5 1.5 0 0 1 3 0v2a.5.5 0 0 0 1 0A1.5 1.5 0 0 1 18 12c.827 0 1.514.674 1.542 1.517l.001.037c.079 2.357.136 4.092-1.002 6.749a.5.5 0 0 0 .919.394c1.226-2.862 1.162-4.782 1.084-7.156l-.002-.058C20.496 12.118 19.382 11 18 11a2.49 2.49 0 0 0-1.5.5 2.5 2.5 0 0 0-4-2V6a2.5 2.5 0 0 0-5 0v8.695l-1.09-1.816a2.319 2.319 0 0 0-4.002 2.343l3.158 5.526a.5.5 0 0 0 .868-.496l-3.157-5.526a1.319 1.319 0 0 1 2.276-1.333l2.018 3.364A.5.5 0 0 0 8.5 16.5V6Z" clip-rule="evenodd"/></symbol>
  <use href="#icon"/>
</svg>
