<svg xmlns="http://www.w3.org/2000/svg">
  <symbol id="icon" fill="none" viewBox="0 0 16 16"><path fill="currentColor" d="M13.5 8a.5.5 0 0 1 .5.5v3a2.5 2.5 0 0 1-2.5 2.5h-7a2.5 2.5 0 0 1-2.487-2.244L2 11.5v-3a.5.5 0 0 1 1 0v1.716c.127-.078.246-.17.354-.277l.292-.293a.5.5 0 0 1 .708 0l.292.293a1.914 1.914 0 0 0 2.708 0l.292-.293a.5.5 0 0 1 .708 0l.292.293a1.914 1.914 0 0 0 2.707 0l.293-.293a.5.5 0 0 1 .707 0l.293.293c.108.107.227.199.354.277V8.5a.5.5 0 0 1 .5-.5ZM12 10.705a2.915 2.915 0 0 1-4 0 2.915 2.915 0 0 1-4 0c-.29.274-.631.48-1 .615v.18l.008.153A1.5 1.5 0 0 0 4.5 13h7a1.5 1.5 0 0 0 1.5-1.5v-.18a2.912 2.912 0 0 1-1-.615ZM8 1.5a.5.5 0 0 1 .416.223l1.678 2.516.094.153A2.42 2.42 0 0 1 8.08 8h-.162a2.419 2.419 0 0 1-2.013-3.76l1.678-2.517.038-.05A.5.5 0 0 1 8 1.5ZM6.738 4.794A1.42 1.42 0 0 0 7.918 7h.163a1.419 1.419 0 0 0 1.235-2.117l-.054-.09L8 2.902 6.738 4.794Z"/></symbol>
  <symbol id="icon-large" fill="none" viewBox="0 0 24 24"><path fill="currentColor" d="M20.5 11a.5.5 0 0 1 .5.5v7a2.5 2.5 0 0 1-2.5 2.5h-13A2.5 2.5 0 0 1 3 18.5v-7a.5.5 0 0 1 1 0V13l.098.01a.5.5 0 0 1 .256.136l.292.293a1.914 1.914 0 0 0 2.708 0l.292-.293a.5.5 0 0 1 .708 0l.292.293a1.914 1.914 0 0 0 2.707 0l.293-.293a.5.5 0 0 1 .707 0l.293.293a1.914 1.914 0 0 0 2.707 0l.293-.293a.5.5 0 0 1 .707 0l.293.293a1.914 1.914 0 0 0 2.707 0l.293-.293a.5.5 0 0 1 .256-.136L20 13v-1.5a.5.5 0 0 1 .5-.5Zm-.71 6.386a2.914 2.914 0 0 1-3.79-.18 2.915 2.915 0 0 1-4 0 2.915 2.915 0 0 1-4 0 2.915 2.915 0 0 1-4 0V18.5A1.5 1.5 0 0 0 5.5 20h13a1.5 1.5 0 0 0 1.5-1.5v-1.295l-.21.18Zm0-3a2.914 2.914 0 0 1-3.79-.18 2.915 2.915 0 0 1-4 0 2.915 2.915 0 0 1-4 0 2.915 2.915 0 0 1-4 0V16l.098.01a.5.5 0 0 1 .256.136l.292.293a1.914 1.914 0 0 0 2.708 0l.292-.293a.5.5 0 0 1 .708 0l.292.293a1.914 1.914 0 0 0 2.707 0l.293-.293a.5.5 0 0 1 .707 0l.293.293a1.914 1.914 0 0 0 2.707 0l.293-.293a.5.5 0 0 1 .707 0l.293.293a1.914 1.914 0 0 0 2.707 0l.293-.293a.5.5 0 0 1 .256-.136L20 16v-1.795l-.21.18ZM12 3a.5.5 0 0 1 .407.209l1.975 2.765c.402.563.618 1.238.618 1.93v.181a3 3 0 0 1-4.362 2.672l-.182-.1A3 3 0 0 1 9 8.085v-.182c0-.691.216-1.366.618-1.93l1.975-2.764.08-.088A.5.5 0 0 1 12 3Zm-1.568 3.556A2.32 2.32 0 0 0 10 7.903v.182a2 2 0 0 0 .97 1.715l.122.066a2 2 0 0 0 1.937-.066l.11-.071A2 2 0 0 0 14 8.085v-.182c0-.483-.15-.954-.432-1.347L12 4.36l-1.568 2.196Z"/></symbol>
  <use href="#icon"/>
</svg>
