<svg xmlns="http://www.w3.org/2000/svg">
  <symbol id="icon" fill="none" viewBox="0 0 16 16"><path fill="currentColor" d="M8 1.5a6.5 6.5 0 1 1 0 13 6.5 6.5 0 0 1 0-13Zm0 1a5.5 5.5 0 1 0 0 11 5.5 5.5 0 0 0 0-11Zm-.75 7.395c.915 0 1.547.162 1.966.343.208.09.361.185.469.264a1.497 1.497 0 0 1 .165.14l.02.02.001.003.002.002.06.082a.5.5 0 0 1-.732.652l-.074-.068.01.01a.557.557 0 0 0-.045-.035 1.424 1.424 0 0 0-.275-.152c-.278-.12-.772-.261-1.567-.261-.795 0-1.289.14-1.567.261a1.424 1.424 0 0 0-.32.188l.006-.007a.5.5 0 0 1-.802-.588l.06-.082.002-.002.002-.003.02-.02.038-.037c.031-.028.073-.064.126-.103.108-.079.26-.173.47-.264.418-.181 1.05-.343 1.965-.343ZM5.5 5a.5.5 0 0 1 .5.5v2a.5.5 0 0 1-1 0v-2a.5.5 0 0 1 .5-.5ZM9 5a.5.5 0 0 1 .5.5v2a.5.5 0 0 1-1 0v-2A.5.5 0 0 1 9 5Z"/></symbol>
  <symbol id="icon-large" fill="none" viewBox="0 0 24 24"><path fill="currentColor" fill-rule="evenodd" d="M21 12a9 9 0 1 0-18 0 9 9 0 0 0 18 0Zm1 0c0 5.523-4.477 10-10 10S2 17.523 2 12 6.477 2 12 2s10 4.477 10 10Zm-7.775 4.918a.5.5 0 0 0 .693-.693l-.064-.079-.01-.01-.017-.015a2.599 2.599 0 0 0-.234-.186 4.12 4.12 0 0 0-.702-.392C13.263 15.264 12.319 15 11 15s-2.263.264-2.89.543a4.119 4.119 0 0 0-.703.393 2.597 2.597 0 0 0-.234.185l-.017.016-.01.01-.064.078a.5.5 0 0 0 .77.63l-.001.001.02-.018a1.62 1.62 0 0 1 .112-.086c.108-.076.283-.184.533-.295C9.013 16.236 9.819 16 11 16s1.987.236 2.484.457c.25.111.425.219.533.295.053.038.09.068.112.086l.02.018-.002-.003.078.065ZM8 8.5v3a.5.5 0 0 0 1 0v-3a.5.5 0 0 0-1 0Zm5 0v3a.5.5 0 0 0 1 0v-3a.5.5 0 0 0-1 0Z" clip-rule="evenodd"/></symbol>
  <use href="#icon"/>
</svg>
