<svg xmlns="http://www.w3.org/2000/svg">
  <symbol id="icon" fill="none" viewBox="0 0 16 16"><path fill="currentColor" d="M13.5 13a.5.5 0 0 1 0 1h-11a.5.5 0 0 1 0-1h11Zm-2-11a.5.5 0 0 1 .5.5V7a4 4 0 0 1-8 0V2.5a.5.5 0 0 1 1 0V7a3 3 0 0 0 6 0V2.5a.5.5 0 0 1 .5-.5Z"/></symbol>
  <symbol id="icon-large" fill="none" viewBox="0 0 24 24"><path fill="currentColor" fill-rule="evenodd" d="M6 3.5V13a6 6 0 0 0 12 0V3.5a.5.5 0 0 0-1 0V13a5 5 0 0 1-10 0V3.5a.5.5 0 0 0-1 0Zm13 17a.5.5 0 0 0-.5-.5h-13a.5.5 0 0 0 0 1h13a.5.5 0 0 0 .5-.5Z" clip-rule="evenodd"/></symbol>
  <use href="#icon"/>
</svg>
