<svg xmlns="http://www.w3.org/2000/svg">
  <symbol id="icon" fill="none" viewBox="0 0 16 16"><path fill="currentColor" d="M8.5 2c1.52 0 2.508 1.6 1.829 2.96L9.809 6h2.19a2 2 0 0 1 2 2v.88c0 .789-.11 1.575-.327 2.334l-.277.972a2.5 2.5 0 0 1-2.404 1.813H3.167A1.168 1.168 0 0 1 2 12.832V7.166C2 6.522 2.522 6 3.167 6H5.29c.06-.116.13-.228.21-.333L8.1 2.2a.502.502 0 0 1 .4-.2ZM3.167 7A.168.168 0 0 0 3 7.167v5.665c0 .092.075.167.167.167h2.336A2.487 2.487 0 0 1 5 11.5V7.166c0-.055.003-.111.006-.166h-1.84Zm3.132-.734c-.194.26-.3.576-.3.9V11.5A1.5 1.5 0 0 0 7.5 13h3.492a1.5 1.5 0 0 0 1.442-1.087l.278-.972A7.48 7.48 0 0 0 13 8.881V8a1 1 0 0 0-1-1H9a.502.502 0 0 1-.447-.724l.882-1.764a1.045 1.045 0 0 0-.705-1.486L6.3 6.266Z"/></symbol>
  <symbol id="icon-large" fill="none" viewBox="0 0 24 24"><path fill="currentColor" d="M11.967 3c1.794 0 3.004 1.835 2.297 3.485L12.758 10h5.992A2.25 2.25 0 0 1 21 12.25v.25c0 .598-.265 1.133-.68 1.5.416.366.68.902.68 1.5v.25c0 .795-.413 1.49-1.035 1.89A2 2 0 0 1 18.5 21h-14A1.5 1.5 0 0 1 3 19.5v-8A1.5 1.5 0 0 1 4.5 10h2.723a2.5 2.5 0 0 1 .106-.209l3.593-6.287A1 1 0 0 1 11.79 3h.177ZM4.5 11a.5.5 0 0 0-.5.5v8a.5.5 0 0 0 .5.5h3.004A2.486 2.486 0 0 1 7 18.5v-7.499H4.5Zm3.697-.713c-.13.227-.197.484-.197.744v7.47A1.5 1.5 0 0 0 9.5 20h9a1 1 0 0 0 0-2 .5.5 0 0 1 0-1h.25c.69 0 1.25-.56 1.25-1.25v-.25a1 1 0 0 0-.898-.996L19 14.5l-.1-.01a.5.5 0 0 1 .1-.99 1 1 0 0 0 1-1v-.25c0-.69-.56-1.25-1.25-1.25h-5.992a1 1 0 0 1-.92-1.393l1.508-3.516a1.5 1.5 0 0 0-1.38-2.09h-.176l-3.593 6.286Z"/></symbol>
  <use href="#icon"/>
</svg>
