<svg xmlns="http://www.w3.org/2000/svg">
  <symbol id="icon" fill="none" viewBox="0 0 16 16"><path fill="currentColor" d="M3 11a1 1 0 1 1 0 2 1 1 0 0 1 0-2Zm10.5.5a.5.5 0 0 1 0 1h-7a.5.5 0 0 1 0-1h7ZM3 7a1 1 0 1 1 0 2 1 1 0 0 1 0-2Zm10.5.5a.5.5 0 0 1 0 1h-7a.5.5 0 0 1 0-1h7ZM3 3a1 1 0 1 1 0 2 1 1 0 0 1 0-2Zm10.5.5a.5.5 0 0 1 0 1h-7a.5.5 0 0 1 0-1h7Z"/></symbol>
  <symbol id="icon-large" fill="none" viewBox="0 0 24 24"><path fill="currentColor" fill-rule="evenodd" d="M19.5 4a.5.5 0 0 1 .5.5v2a.5.5 0 0 1-.5.5h-15a.5.5 0 0 1-.5-.5v-2a.5.5 0 0 1 .5-.5h15Zm0 4A1.5 1.5 0 0 0 21 6.5v-2A1.5 1.5 0 0 0 19.5 3h-15A1.5 1.5 0 0 0 3 4.5v2A1.5 1.5 0 0 0 4.5 8h15Zm.5 3a.5.5 0 0 0-.5-.5h-15a.5.5 0 0 0-.5.5v2a.5.5 0 0 0 .5.5h15a.5.5 0 0 0 .5-.5v-2Zm1 2a1.5 1.5 0 0 1-1.5 1.5h-15A1.5 1.5 0 0 1 3 13v-2a1.5 1.5 0 0 1 1.5-1.5h15A1.5 1.5 0 0 1 21 11v2Zm-1 4.5a.5.5 0 0 0-.5-.5h-15a.5.5 0 0 0-.5.5v2a.5.5 0 0 0 .5.5h15a.5.5 0 0 0 .5-.5v-2Zm1 2a1.5 1.5 0 0 1-1.5 1.5h-15A1.5 1.5 0 0 1 3 19.5v-2A1.5 1.5 0 0 1 4.5 16h15a1.5 1.5 0 0 1 1.5 1.5v2Z" clip-rule="evenodd"/></symbol>
  <use href="#icon"/>
</svg>
