<svg xmlns="http://www.w3.org/2000/svg">
  <symbol id="icon" fill="none" viewBox="0 0 16 16"><path fill="currentColor" d="M8.293 2A1 1 0 0 1 9 2.293L12.707 6a1 1 0 0 1 .293.707V12.5a1.5 1.5 0 0 1-1.5 1.5h-7A1.5 1.5 0 0 1 3 12.5v-9A1.5 1.5 0 0 1 4.5 2h3.793ZM4.5 3a.5.5 0 0 0-.5.5v9a.5.5 0 0 0 .5.5h7a.5.5 0 0 0 .5-.5V7H9.5A1.5 1.5 0 0 1 8 5.5V3H4.5ZM6 10a.5.5 0 0 1 .5.5v1a.5.5 0 0 1-1 0v-1A.5.5 0 0 1 6 10Zm2-2a.5.5 0 0 1 .5.5v3a.5.5 0 0 1-1 0v-3A.5.5 0 0 1 8 8Zm2 1a.5.5 0 0 1 .5.5v2a.5.5 0 0 1-1 0v-2A.5.5 0 0 1 10 9ZM9 5.5a.5.5 0 0 0 .5.5h1.793L9 3.707V5.5Z"/></symbol>
  <symbol id="icon-large" fill="none" viewBox="0 0 24 24"><path fill="currentColor" fill-rule="evenodd" d="M4 20.5v-17A1.5 1.5 0 0 1 5.5 2h7.086a1.5 1.5 0 0 1 1.06.44l5.915 5.914A1.5 1.5 0 0 1 20 9.414V20.5a1.5 1.5 0 0 1-1.5 1.5h-13A1.5 1.5 0 0 1 4 20.5Zm1 0a.5.5 0 0 0 .5.5h13a.5.5 0 0 0 .5-.5v-11h-5A1.5 1.5 0 0 1 12.5 8V3h-7a.5.5 0 0 0-.5.5v17Zm8.5-16.793V8a.5.5 0 0 0 .5.5h4.293L13.5 3.707ZM8 17.5v-2a.5.5 0 0 1 1 0v2a.5.5 0 0 1-1 0Zm3.5-5a.5.5 0 0 1 1 0v5a.5.5 0 0 1-1 0v-5Zm3.5 5v-3a.5.5 0 0 1 1 0v3a.5.5 0 0 1-1 0Z" clip-rule="evenodd"/></symbol>
  <use href="#icon"/>
</svg>
