<svg xmlns="http://www.w3.org/2000/svg">
  <symbol id="icon" fill="none" viewBox="0 0 16 16"><path fill="currentColor" d="M3.5 12a.5.5 0 0 1 .49.4l.02.2c.04.196.194.35.39.39l.2.02a.5.5 0 0 1-.1.99A1.5 1.5 0 0 1 3 12.5a.5.5 0 0 1 .5-.5ZM7 13a.5.5 0 0 1 0 1h-.5a.5.5 0 0 1 0-1H7Zm2.5 0a.5.5 0 0 1 0 1H9a.5.5 0 0 1 0-1h.5Zm3-1a.5.5 0 0 1 .5.5 1.5 1.5 0 0 1-1.5 1.5.5.5 0 0 1-.1-.99l.2-.02a.501.501 0 0 0 .39-.39l.02-.2a.5.5 0 0 1 .49-.4Zm-9-3.5A.5.5 0 0 1 4 9v1.5a.5.5 0 0 1-1 0V9a.5.5 0 0 1 .5-.5Zm9 .5a.5.5 0 0 1 .5.5v1a.5.5 0 0 1-1 0v-1a.5.5 0 0 1 .5-.5ZM8.293 2A1 1 0 0 1 9 2.293L12.707 6a1 1 0 0 1 .293.707V7.5a.5.5 0 0 1-1 0V7H9.5A1.5 1.5 0 0 1 8 5.5V3H6.5a.5.5 0 0 1 0-1h1.793ZM3.5 5a.5.5 0 0 1 .5.5V7a.5.5 0 0 1-1 0V5.5a.5.5 0 0 1 .5-.5Zm5.5.5a.5.5 0 0 0 .5.5h1.793L9 3.707V5.5ZM4.5 2a.5.5 0 0 1 .1.99l-.2.02a.501.501 0 0 0-.39.39l-.02.2A.5.5 0 0 1 3 3.5 1.5 1.5 0 0 1 4.5 2Z"/></symbol>
  <symbol id="icon-large" fill="none" viewBox="0 0 24 24"><path fill="currentColor" fill-rule="evenodd" d="M4 20.5V19a.5.5 0 0 1 1 0v1.5a.5.5 0 0 0 .5.5H7a.5.5 0 0 1 0 1H5.5A1.5 1.5 0 0 1 4 20.5Zm9 .5a.5.5 0 0 1 0 1h-2a.5.5 0 0 1 0-1h2Zm6-.5V19a.5.5 0 0 1 1 0v1.5a1.5 1.5 0 0 1-1.5 1.5H17a.5.5 0 0 1 0-1h1.5a.5.5 0 0 0 .5-.5Zm-15-5v-2a.5.5 0 0 1 1 0v2a.5.5 0 0 1-1 0Zm15 0v-2a.5.5 0 0 1 1 0v2a.5.5 0 0 1-1 0ZM4 10V8a.5.5 0 0 1 1 0v2a.5.5 0 0 1-1 0Zm16-1a.498.498 0 0 0-.152-.359l-6.49-6.49A.499.499 0 0 0 13 2h-2a.5.5 0 0 0 0 1h1.5v5A1.5 1.5 0 0 0 14 9.5h5v.5a.5.5 0 0 0 1 0V9Zm-6.5-5.293L18.293 8.5H14a.5.5 0 0 1-.5-.5V3.707ZM4 5V3.5A1.5 1.5 0 0 1 5.5 2H7a.5.5 0 0 1 0 1H5.5a.5.5 0 0 0-.5.5V5a.5.5 0 0 1-1 0Z" clip-rule="evenodd"/></symbol>
  <use href="#icon"/>
</svg>
