<svg xmlns="http://www.w3.org/2000/svg">
  <symbol id="icon" fill="none" viewBox="0 0 16 16"><path fill="currentColor" d="M4.392 6.508a4.923 4.923 0 0 0-.81 1.255l-.066.157a.209.209 0 0 0 0 .16l.067.157C3.966 9.094 5.133 11 7.957 11c.307 0 .593-.024.862-.065l.843.842A6.34 6.34 0 0 1 7.957 12c-3.405 0-4.83-2.339-5.29-3.36l-.078-.186a1.21 1.21 0 0 1 0-.908l.079-.186a6.022 6.022 0 0 1 1.018-1.558l.706.706Zm7.15 4.327c-.255.2-.54.386-.86.549l-.755-.756c.34-.142.639-.316.9-.508l.715.715ZM7.957 4c3.632 0 5.012 2.66 5.368 3.546l.039.111c.066.225.066.461 0 .686l-.04.111a6.01 6.01 0 0 1-1.057 1.692l-.707-.707a4.94 4.94 0 0 0 .837-1.359l.012-.04a.2.2 0 0 0 0-.08l-.012-.04C12.095 7.17 10.97 5 7.957 5c-.277 0-.538.019-.783.053l-.851-.85A6.42 6.42 0 0 1 7.957 4ZM6.052 5.345a4.341 4.341 0 0 0-.914.495l-.715-.716c.257-.197.545-.381.868-.54l.76.76Z"/><path stroke="currentColor" stroke-linecap="round" stroke-linejoin="round" d="m2.5 2.5 11 11"/></symbol>
  <symbol id="icon-large" fill="none" viewBox="0 0 24 24"><path fill="currentColor" d="M2.147 2.146a.501.501 0 0 1 .629-.064l.078.064 19 19 .065.078a.501.501 0 0 1-.694.694l-.078-.065-19-19-.064-.078a.5.5 0 0 1 .064-.629Zm3.587 5.708C4.073 9.386 3.304 11.22 3.06 11.9a.288.288 0 0 0 0 .2c.446 1.248 2.668 6.4 8.94 6.4 1.43 0 2.647-.27 3.682-.698l.764.764c-1.222.568-2.69.934-4.445.934-6.526 0-9.087-5.05-9.77-6.767l-.112-.297a1.288 1.288 0 0 1 0-.873l.112-.297c.349-.877 1.188-2.622 2.794-4.12l.709.708ZM12.001 4.5c6.96 0 9.41 5.745 9.882 7.063l.033.108c.057.216.057.441 0 .658l-.034.107c-.254.713-1.09 2.723-2.907 4.417l-.709-.709c1.661-1.532 2.432-3.365 2.675-4.045l.014-.05a.28.28 0 0 0 0-.1l-.014-.049c-.446-1.249-2.668-6.4-8.94-6.4-1.429 0-2.647.27-3.682.697l-.763-.763c1.222-.567 2.69-.934 4.445-.934Zm-1.994 7.627a1.995 1.995 0 0 0 1.866 1.866l.902.902a2.998 2.998 0 0 1-.774.105 3 3 0 0 1-2.897-3.776l.903.903ZM12 9a3 3 0 0 1 3 3c0 .267-.04.526-.106.773l-.901-.901a1.997 1.997 0 0 0-1.866-1.866l-.902-.902A3 3 0 0 1 12 9Z"/></symbol>
  <use href="#icon"/>
</svg>
