<svg xmlns="http://www.w3.org/2000/svg">
  <symbol id="icon" fill="none" viewBox="0 0 16 16"><path fill="currentColor" d="M12.5 2A1.5 1.5 0 0 1 14 3.5v9a1.5 1.5 0 0 1-1.5 1.5h-9A1.5 1.5 0 0 1 2 12.5v-9A1.5 1.5 0 0 1 3.5 2h9ZM4.947 8.224A.5.5 0 0 1 4.5 8.5L3 8.499V12.5a.5.5 0 0 0 .5.5h9a.5.5 0 0 0 .5-.5v-4h-1.191l-1.362 2.724a.5.5 0 0 1-.863.053L6.062 5.994l-1.115 2.23ZM3.5 3a.5.5 0 0 0-.5.5v3.999h1.19l1.363-2.723.033-.056a.5.5 0 0 1 .83.003l3.521 5.282 1.116-2.229.036-.06A.5.5 0 0 1 11.5 7.5H13v-4a.5.5 0 0 0-.5-.5h-9Z"/></symbol>
  <symbol id="icon-large" fill="none" viewBox="0 0 24 24"><path fill="currentColor" fill-rule="evenodd" d="M19.5 4a.5.5 0 0 1 .5.5v7h-2a.5.5 0 0 0-.402.203l-.037.058L15 16.456 9.438 6.261a.5.5 0 0 0-.84-.058l-.036.058L5.704 11.5H4v-7a.5.5 0 0 1 .5-.5h15ZM4 12.5v7a.5.5 0 0 0 .5.5h15a.5.5 0 0 0 .5-.5v-7h-1.704l-2.857 5.24a.5.5 0 0 1-.877 0L9 7.542l-2.562 4.696A.5.5 0 0 1 6 12.5H4ZM19.5 21a1.5 1.5 0 0 0 1.5-1.5v-15A1.5 1.5 0 0 0 19.5 3h-15A1.5 1.5 0 0 0 3 4.5v15A1.5 1.5 0 0 0 4.5 21h15Z" clip-rule="evenodd"/></symbol>
  <use href="#icon"/>
</svg>
