<svg xmlns="http://www.w3.org/2000/svg">
  <symbol id="icon" fill="none" viewBox="0 0 16 16"><path fill="currentColor" d="M8 11.5a.5.5 0 0 1 .5.5v2a.5.5 0 0 1-1 0v-2a.5.5 0 0 1 .5-.5Zm-3.354-.854a.5.5 0 1 1 .708.707l-.5.5a.5.5 0 1 1-.708-.707l.5-.5Zm6 0a.5.5 0 0 1 .63-.064l.078.064.5.5.064.079a.5.5 0 0 1-.693.693l-.079-.064-.5-.5-.064-.079a.5.5 0 0 1 .064-.629ZM8 6a2 2 0 1 1 0 4 2 2 0 0 1 0-4Zm0 1a1 1 0 1 0 0 2 1 1 0 0 0 0-2Zm-4 .5a.5.5 0 0 1 0 1H2a.5.5 0 0 1 0-1h2Zm10 0a.5.5 0 0 1 0 1h-2a.5.5 0 0 1 0-1h2Zm-2.854-3.354a.5.5 0 1 1 .707.708l-.5.5a.5.5 0 1 1-.707-.708l.5-.5Zm-7 0a.5.5 0 0 1 .63-.064l.078.064.5.5.064.079a.5.5 0 0 1-.693.693l-.079-.064-.5-.5-.064-.079a.5.5 0 0 1 .064-.629ZM8 1.5a.5.5 0 0 1 .5.5v2a.5.5 0 0 1-1 0V2a.5.5 0 0 1 .5-.5Z"/></symbol>
  <symbol id="icon-large" fill="none" viewBox="0 0 24 24"><path fill="currentColor" fill-rule="evenodd" d="M11.5 2.5v5a.5.5 0 0 0 1 0v-5a.5.5 0 0 0-1 0ZM6.646 6.646a.5.5 0 0 1 .708 0l1.5 1.5a.5.5 0 1 1-.708.708l-1.5-1.5a.5.5 0 0 1 0-.708ZM7.5 11.5a.5.5 0 0 1 0 1h-5a.5.5 0 0 1 0-1h5Zm1.354 3.646a.5.5 0 0 0-.708 0l-1.5 1.5a.5.5 0 1 0 .708.707l1.5-1.5a.5.5 0 0 0 0-.707ZM11.5 21.5v-5a.5.5 0 0 1 1 0v5a.5.5 0 0 1-1 0ZM12 11a1 1 0 1 1 0 2 1 1 0 0 1 0-2Zm0 3a2 2 0 1 0 0-4 2 2 0 0 0 0 4Zm3.146 1.146a.5.5 0 0 1 .707 0l1.5 1.5a.5.5 0 1 1-.707.707l-1.5-1.5a.5.5 0 0 1 0-.707ZM22 12a.5.5 0 0 0-.5-.5h-5a.5.5 0 0 0 0 1h5a.5.5 0 0 0 .5-.5Zm-5.354-5.354a.5.5 0 1 1 .707.708l-1.5 1.5a.5.5 0 1 1-.707-.708l1.5-1.5Z" clip-rule="evenodd"/></symbol>
  <use href="#icon"/>
</svg>
