<svg xmlns="http://www.w3.org/2000/svg">
  <symbol id="icon" fill="none" viewBox="0 0 16 16"><path fill="currentColor" fill-rule="evenodd" d="M8.252 1.726a.5.5 0 0 0-.504 0L5.992 2.75 8 3.921l2.008-1.171-1.756-1.024ZM11 3.329 8.992 4.5 11 5.671l2.008-1.17L11 3.328Zm-.992 2.921L8 5.079 5.992 6.25 8 7.421l2.008-1.171ZM5 5.671 7.008 4.5 5 3.329 2.992 4.5 5 5.671ZM2.5 7.713V5.37l5 2.916v2.342l-5-2.916Zm6 2.917V8.287l5-2.916v2.342l-5 2.917Zm-1 1.157-5-2.916v2.055a.5.5 0 0 0 .248.432L7.5 14.13v-2.343Zm1 2.343v-2.343l5-2.916v2.055a.5.5 0 0 1-.248.432L8.5 14.13ZM7.244.862a1.5 1.5 0 0 1 1.512 0l5 2.917a1.5 1.5 0 0 1 .744 1.295v5.852a1.5 1.5 0 0 1-.744 1.295l-5 2.917a1.5 1.5 0 0 1-1.512 0l-5-2.917a1.5 1.5 0 0 1-.744-1.295V5.074a1.5 1.5 0 0 1 .744-1.295l5-2.917Z" clip-rule="evenodd"/></symbol>
  <symbol id="icon-large" fill="none" viewBox="0 0 24 24"><path fill="currentColor" fill-rule="evenodd" d="M12.26 2.245a.5.5 0 0 0-.52 0L8.458 4.25 12 6.414l3.541-2.164-3.28-2.005Zm4.24 2.591L12.959 7 16.5 9.164 20.041 7 16.5 4.836Zm-.959 4.914L12 7.586 8.459 9.75 12 11.914l3.541-2.164ZM7.5 9.164 11.041 7 7.5 4.836 3.959 7 7.5 9.164Zm-4 2.556V7.892l8 4.888v3.829l-8-4.89Zm9 4.888V12.78l8-4.888v3.828l-8 4.888Zm-1 1.172-8-4.889v3.548a.5.5 0 0 0 .24.427l7.76 4.742V17.78Zm1 3.828V17.78l8-4.889v3.548a.5.5 0 0 1-.24.427l-7.76 4.742ZM11.218 1.392a1.5 1.5 0 0 1 1.564 0l8 4.889a1.5 1.5 0 0 1 .718 1.28v8.878a1.5 1.5 0 0 1-.718 1.28l-8 4.889a1.5 1.5 0 0 1-1.564 0l-8-4.889a1.5 1.5 0 0 1-.718-1.28V7.561a1.5 1.5 0 0 1 .718-1.28l8-4.889Z" clip-rule="evenodd"/></symbol>
  <use href="#icon"/>
</svg>
