<svg xmlns="http://www.w3.org/2000/svg">
  <symbol id="icon" fill="none" viewBox="0 0 16 16"><path fill="currentColor" fill-rule="evenodd" d="M8 2a6 6 0 1 0 0 12A6 6 0 0 0 8 2ZM1 8a7 7 0 1 1 14 0A7 7 0 0 1 1 8Zm4.5-1.5A1.5 1.5 0 0 1 7 5h.5v-.5a.5.5 0 0 1 1 0V5h1.25a.5.5 0 0 1 0 1H7a.5.5 0 0 0-.5.5V7a.5.5 0 0 0 .5.5h2A1.5 1.5 0 0 1 10.5 9v.5A1.5 1.5 0 0 1 9 11h-.5v.5a.5.5 0 0 1-1 0V11H6.25a.5.5 0 0 1 0-1H9a.5.5 0 0 0 .5-.5V9a.5.5 0 0 0-.5-.5H7A1.5 1.5 0 0 1 5.5 7v-.5Z" clip-rule="evenodd"/></symbol>
  <symbol id="icon-large" fill="none" viewBox="0 0 24 24"><path fill="currentColor" fill-rule="evenodd" d="M12 3a9 9 0 1 0 0 18 9 9 0 0 0 0-18ZM2 12C2 6.477 6.477 2 12 2s10 4.477 10 10-4.477 10-10 10S2 17.523 2 12Zm6-1.75A2.25 2.25 0 0 1 10.25 8h1.25V6.5a.5.5 0 0 1 1 0V8H15a.5.5 0 0 1 0 1h-2.5v2.5h1.25a2.25 2.25 0 0 1 0 4.5H12.5v1.5a.5.5 0 0 1-1 0V16H9a.5.5 0 0 1 0-1h2.5v-2.5h-1.25A2.25 2.25 0 0 1 8 10.25Zm3.5 1.25V9h-1.25a1.25 1.25 0 1 0 0 2.5h1.25Zm1 1V15h1.25a1.25 1.25 0 1 0 0-2.5H12.5Z" clip-rule="evenodd"/></symbol>
  <use href="#icon"/>
</svg>
