<svg xmlns="http://www.w3.org/2000/svg">
  <symbol id="icon" fill="none" viewBox="0 0 16 16"><path fill="currentColor" fill-opacity=".24" d="M6.5 8V6a1.5 1.5 0 1 1 3 0v2a1.5 1.5 0 1 1-3 0Z"/><path fill="currentColor" fill-rule="evenodd" d="M6.5 1.997a3.5 3.5 0 0 0-3.5 3.5V7h3V6a2 2 0 0 1 1.5-1.937V1.997h-1Zm2 0v2.066A2 2 0 0 1 10 6v1h3V5.497a3.5 3.5 0 0 0-3.5-3.5h-1ZM3 8h3v.023a2 2 0 0 0 4 0V8h3v.997a5 5 0 0 1-10 0V8ZM2 5.497a4.5 4.5 0 0 1 4.5-4.5h3a4.5 4.5 0 0 1 4.5 4.5v3.5a6 6 0 0 1-12 0v-3.5ZM6.5 11.5A.5.5 0 0 1 7 11h2a.5.5 0 0 1 0 1H7a.5.5 0 0 1-.5-.5ZM8 5a1 1 0 0 0-1 1v2.023a1 1 0 0 0 2 0V6a1 1 0 0 0-1-1Z" clip-rule="evenodd"/></symbol>
  <symbol id="icon-large" fill="none" viewBox="0 0 24 24"><path fill="currentColor" fill-opacity=".24" d="M10.5 12V9a1.5 1.5 0 0 1 3 0v3a1.5 1.5 0 0 1-3 0Z"/><path fill="currentColor" fill-rule="evenodd" d="M10.5 3A5.5 5.5 0 0 0 5 8.5V11h5V9a2 2 0 0 1 1.5-1.937V3h-1Zm2 0v4.063A2 2 0 0 1 14 9v2h5V8.5A5.5 5.5 0 0 0 13.5 3h-1ZM5 12h5a2 2 0 1 0 4 0h5v2a7 7 0 1 1-14 0v-2ZM4 8.5A6.5 6.5 0 0 1 10.5 2h3A6.5 6.5 0 0 1 20 8.5V14a8 8 0 1 1-16 0V8.5Zm6 7.5a.5.5 0 0 1 .5-.5h3a.5.5 0 0 1 0 1h-3a.5.5 0 0 1-.5-.5Zm2-8a1 1 0 0 0-1 1v3a1 1 0 1 0 2 0V9a1 1 0 0 0-1-1Z" clip-rule="evenodd"/></symbol>
  <use href="#icon"/>
</svg>
