<svg xmlns="http://www.w3.org/2000/svg">
  <symbol id="icon" fill="currentColor"><path fill-rule="evenodd" d="M3.5 2A1.5 1.5 0 0 0 2 3.5v9A1.5 1.5 0 0 0 3.5 14h9a1.5 1.5 0 0 0 1.5-1.5v-9A1.5 1.5 0 0 0 12.5 2h-9ZM3 3.707v8.586L7.293 8 3 3.707ZM3.707 13h8.586L8 8.707 3.707 13ZM13 12.293V3.707L8.707 8 13 12.293ZM12.293 3H3.707L8 7.293 12.293 3Z" clip-rule="evenodd"/></symbol>
  <symbol id="icon-large" fill="currentColor" viewBox="0 0 22 22"><path fill-rule="evenodd" d="M3.5 2A1.5 1.5 0 0 0 2 3.5v15A1.5 1.5 0 0 0 3.5 20h15a1.5 1.5 0 0 0 1.5-1.5v-15A1.5 1.5 0 0 0 18.5 2h-15ZM3 3.707v14.586L10.293 11 3 3.707ZM3.707 19h14.586L11 11.707 3.707 19ZM19 18.293V3.707L11.707 11 19 18.293ZM18.293 3H3.707L11 10.293 18.293 3Z" clip-rule="evenodd"/></symbol>
  <use href="#icon"/>
</svg>
