<svg xmlns="http://www.w3.org/2000/svg">
  <symbol id="icon" fill="none" viewBox="0 0 16 16"><path fill="currentColor" fill-rule="evenodd" d="M3.5 2a1.5 1.5 0 1 0 0 3 1.5 1.5 0 0 0 0-3ZM1 3.5a2.5 2.5 0 1 1 5 0 2.5 2.5 0 0 1-5 0Zm9.354-1.646a.5.5 0 0 0-.708-.707l-2 2a.5.5 0 0 0 0 .707l2 2a.5.5 0 0 0 .707-.707L9.207 4H13.5a.5.5 0 0 1 .5.5v7a.5.5 0 0 1-.5.5h-5a.5.5 0 0 0 0 1h5a1.5 1.5 0 0 0 1.5-1.5v-7A1.5 1.5 0 0 0 13.5 3H9.207l1.147-1.146ZM1.999 12.5a1.5 1.5 0 1 1 3 0 1.5 1.5 0 0 1-3 0ZM3.5 10a2.5 2.5 0 1 0 0 5 2.5 2.5 0 0 0 0-5Z" clip-rule="evenodd"/></symbol>
  <symbol id="icon-large" fill="none" viewBox="0 0 24 24"><path fill="currentColor" fill-rule="evenodd" d="M4 6.5a2.5 2.5 0 1 1 5 0 2.5 2.5 0 0 1-5 0ZM6.5 3a3.5 3.5 0 1 0 0 7 3.5 3.5 0 0 0 0-7Zm8.354 1.146a.5.5 0 0 1 0 .708L13.707 6H19.5A1.5 1.5 0 0 1 21 7.5v9a1.5 1.5 0 0 1-1.5 1.5h-6a.5.5 0 0 1 0-1h6a.5.5 0 0 0 .5-.5v-9a.5.5 0 0 0-.5-.5h-5.793l1.147 1.146a.5.5 0 0 1-.708.708l-2-2a.5.5 0 0 1 0-.708l2-2a.5.5 0 0 1 .708 0ZM4 17.5a2.5 2.5 0 1 1 5 0 2.5 2.5 0 0 1-5 0ZM6.5 14a3.5 3.5 0 1 0 0 7 3.5 3.5 0 0 0 0-7Z" clip-rule="evenodd"/></symbol>
  <use href="#icon"/>
</svg>
