<svg xmlns="http://www.w3.org/2000/svg">
  <symbol id="icon" fill="none" viewBox="0 0 16 16"><path fill="currentColor" fill-rule="evenodd" d="M8 2.984V8.5a.5.5 0 0 0 1 0v-.839a.502.502 0 0 0 .01-.1v-.572a.99.99 0 0 1 1.98 0v1.453l-.001.047V9a.5.5 0 0 0 1 0v-.544a.99.99 0 0 1 .99-.956c.549 0 .991.445.986.984-.022 2.049-.155 3.896-.93 5.83a.5.5 0 1 0 .93.371c.844-2.11.978-4.109 1-6.19A1.982 1.982 0 0 0 12.978 6.5a1.98 1.98 0 0 0-1 .27A1.99 1.99 0 0 0 9 5.269V2.984a1.985 1.985 0 0 0-3.97 0v5.925l-.376-.74a1.959 1.959 0 0 0-3.498 1.762l2.397 4.793a.5.5 0 0 0 .894-.447L2.051 9.485a.96.96 0 0 1 1.712-.863l1.322 2.605.045.072a.501.501 0 0 0 .9-.299V2.984a.985.985 0 0 1 1.97 0Z" clip-rule="evenodd"/></symbol>
  <symbol id="icon-large" fill="none" viewBox="0 0 24 24"><path fill="currentColor" fill-rule="evenodd" d="M11.5 6v7a.5.5 0 0 0 1 0v-1.5a1.5 1.5 0 0 1 3 0v2a.5.5 0 0 0 1 0A1.5 1.5 0 0 1 18 12c.827 0 1.514.674 1.542 1.517l.001.035c.079 2.358.136 4.093-1.003 6.75a.501.501 0 0 0 .92.395c1.227-2.862 1.163-4.782 1.084-7.156l-.002-.058C20.497 12.118 19.382 11 18 11a2.49 2.49 0 0 0-1.5.5 2.5 2.5 0 0 0-4-2V6a2.5 2.5 0 0 0-5 0v8.695L6.41 12.88a2.319 2.319 0 0 0-4.002 2.344l3.157 5.525a.5.5 0 0 0 .87-.496l-3.159-5.525a1.32 1.32 0 0 1 2.277-1.333l2.018 3.363A.5.5 0 0 0 8.5 16.5V6a1.5 1.5 0 1 1 3 0Z" clip-rule="evenodd"/></symbol>
  <use href="#icon"/>
</svg>
