<svg xmlns="http://www.w3.org/2000/svg">
  <symbol id="icon" fill="none" viewBox="0 0 16 16"><path fill="currentColor" d="M12 12a.5.5 0 0 1 .354.146l.293.293c.358.359.845.562 1.353.562v1c-.745 0-1.46-.286-2-.795a2.915 2.915 0 0 1-4 0 2.915 2.915 0 0 1-4 0c-.54.51-1.255.795-2 .795v-1c.508 0 .995-.203 1.354-.562l.292-.293a.5.5 0 0 1 .708 0l.292.293a1.915 1.915 0 0 0 2.708 0l.292-.293a.5.5 0 0 1 .708 0l.292.293a1.915 1.915 0 0 0 2.707 0l.293-.293A.5.5 0 0 1 12 12ZM8 2a.5.5 0 0 1 .5.5v2H9A4.5 4.5 0 0 1 13.5 9v2.5h-1V9A3.5 3.5 0 0 0 9 5.5h-.5v1H9A2.5 2.5 0 0 1 11.5 9v2.5h-1V9A1.5 1.5 0 0 0 9 7.5h-.5v2a.5.5 0 0 1-1 0V9H2V8h5.5V4H2V3h5.5v-.5A.5.5 0 0 1 8 2Z"/></symbol>
  <symbol id="icon-large" fill="none" viewBox="0 0 24 24"><path fill="currentColor" d="M3.5 3a.5.5 0 0 1 .5.5V5h7.5v-.5a.5.5 0 0 1 1 0V7h1a6.5 6.5 0 0 1 6.5 6.5v2h-1v-2A5.5 5.5 0 0 0 13.5 8h-1v2h1a3.5 3.5 0 0 1 3.5 3.5v2h-1v-2a2.5 2.5 0 0 0-2.5-2.5h-1v2.5a.5.5 0 0 1-1 0V13H4v4l.19-.01a1.91 1.91 0 0 0 1.164-.55l.292-.294a.5.5 0 0 1 .708 0l.292.293a1.914 1.914 0 0 0 2.708 0l.292-.293a.5.5 0 0 1 .707 0l.293.293a1.914 1.914 0 0 0 2.707 0l.293-.293a.5.5 0 0 1 .707 0l.293.293a1.914 1.914 0 0 0 2.707 0l.293-.293a.5.5 0 0 1 .707 0l.293.293c.36.36.846.561 1.354.561h1v1h-1c-.745 0-1.46-.285-2-.795a2.915 2.915 0 0 1-4 0 2.915 2.915 0 0 1-4 0 2.915 2.915 0 0 1-4 0c-.473.446-1.08.72-1.723.781L4 18v2l.19-.01a1.91 1.91 0 0 0 1.164-.55l.292-.294a.5.5 0 0 1 .708 0l.292.293a1.914 1.914 0 0 0 2.708 0l.292-.293a.5.5 0 0 1 .707 0l.293.293a1.914 1.914 0 0 0 2.707 0l.293-.293a.5.5 0 0 1 .707 0l.293.293a1.914 1.914 0 0 0 2.707 0l.293-.293a.5.5 0 0 1 .707 0l.293.293c.36.36.846.561 1.354.561h1v1h-1c-.745 0-1.46-.285-2-.795a2.915 2.915 0 0 1-4 0 2.915 2.915 0 0 1-4 0 2.915 2.915 0 0 1-4 0c-.54.51-1.255.795-2 .795h-.5a.5.5 0 0 1-.5-.5v-17a.5.5 0 0 1 .5-.5Zm.5 9h7.5V6H4v6Z"/></symbol>
  <use href="#icon"/>
</svg>
