<svg xmlns="http://www.w3.org/2000/svg">
  <symbol id="icon" fill="none" viewBox="0 0 16 16"><path fill="currentColor" d="M12.5 2A1.5 1.5 0 0 1 14 3.5v9a1.5 1.5 0 0 1-1.5 1.5h-9A1.5 1.5 0 0 1 2 12.5v-9A1.5 1.5 0 0 1 3.5 2h9ZM3 12.5a.5.5 0 0 0 .5.5h9a.5.5 0 0 0 .5-.5v-2H3v2Zm0-6v3h10v-3H3ZM3.5 3a.5.5 0 0 0-.5.5v2h10v-2a.5.5 0 0 0-.5-.5h-9Z"/></symbol>
  <symbol id="icon-large" fill="none" viewBox="0 0 24 24"><path fill="currentColor" d="M18.75 3.25a2 2 0 0 1 2 2v13.5a2 2 0 0 1-2 2H5.25a2 2 0 0 1-2-2V5.25a2 2 0 0 1 2-2h13.5Zm-14.5 15.5a1 1 0 0 0 1 1h13.5a1 1 0 0 0 1-1V15.5H4.25v3.25Zm0-9.25v5h15.5v-5H4.25Zm1-5.25a1 1 0 0 0-1 1V8.5h15.5V5.25a1 1 0 0 0-1-1H5.25Z"/></symbol>
  <use href="#icon"/>
</svg>
