<svg xmlns="http://www.w3.org/2000/svg">
  <symbol id="icon" fill="none" viewBox="0 0 16 16"><path fill="currentColor" d="M12.146 10.647a.5.5 0 0 1 .707 0l1.5 1.5a.5.5 0 0 1 0 .707l-1.5 1.499a.5.5 0 1 1-.707-.707l.648-.647H9.5a.5.5 0 1 1 0-.998h3.293l-.647-.647a.5.5 0 0 1 0-.707Zm1-8.5a.5.5 0 0 1 .707.707l-3.41 3.41c.35.49.557 1.089.557 1.736a3 3 0 0 1-3 3 2.984 2.984 0 0 1-1.736-.556l-3.41 3.41a.5.5 0 0 1-.708-.707l3.41-3.411A2.983 2.983 0 0 1 5 8a3 3 0 0 1 4.736-2.444l3.41-3.41ZM8 6a2 2 0 1 0 0 4 2 2 0 0 0 0-4Zm0 1.25a.75.75 0 1 1 0 1.5.75.75 0 0 1 0-1.5Z"/></symbol>
  <symbol id="icon-large" fill="none" viewBox="0 0 24 24"><path fill="currentColor" d="M20.147 3.146a.5.5 0 1 1 .707.707l-5.696 5.695a4 4 0 0 1-5.61 5.61l-5.694 5.695a.5.5 0 0 1-.707-.707l5.694-5.695a4 4 0 0 1 5.61-5.61l5.696-5.695Zm-1.5 13a.5.5 0 0 1 .707 0l2 2a.5.5 0 0 1 0 .707l-2 2a.5.5 0 0 1-.707-.707L19.79 19H14.5a.5.5 0 0 1 0-1l5.29-.001-1.144-1.145a.5.5 0 0 1 0-.708ZM12 9a3 3 0 1 0 0 6 3 3 0 0 0 0-6Zm0 1a2 2 0 1 1 0 4 2 2 0 0 1 0-4Zm0 1a1 1 0 1 0 0 2 1 1 0 0 0 0-2Z"/></symbol>
  <use href="#icon"/>
</svg>
