<svg xmlns="http://www.w3.org/2000/svg">
  <symbol id="icon" fill="none" viewBox="0 0 16 16"><path fill="currentColor" d="M10.006 1.5a2.499 2.499 0 0 1 2.49 2.288c.461.073.891.25 1.238.537.477.395.767.975.767 1.675 0 .682-.276 1.298-.718 1.748A2.493 2.493 0 0 1 14.5 9.5a2.5 2.5 0 0 1-2.002 2.45l.002.05a2.5 2.5 0 0 1-2.5 2.5c-.82 0-1.545-.397-2-1.006A2.493 2.493 0 0 1 6 14.5 2.5 2.5 0 0 1 3.5 12v-.05a2.501 2.501 0 0 1-1.99-2.225L1.5 9.5a2.5 2.5 0 0 1 .075-.596 2.4 2.4 0 0 1 .641-1.155A2.489 2.489 0 0 1 1.5 6c0-.7.29-1.28.767-1.675.348-.287.78-.465 1.243-.538A2.5 2.5 0 0 1 6 1.5c.821 0 1.548.398 2.003 1.009A2.494 2.494 0 0 1 10.006 1.5ZM6 2.5a1.5 1.5 0 0 0-1.487 1.306c.3.065.553.182.755.31a.501.501 0 0 1-.535.845 1.34 1.34 0 0 0-.62-.206L4 4.75l-.168.006c-.384.028-.703.155-.927.34-.247.204-.405.5-.405.904 0 .478.225.903.576 1.178C3.362 7.064 3.674 7 4 7a.5.5 0 0 1 0 1 1.499 1.499 0 0 0-.005 2.999l.02-.001.035-.002.012.001c.177-.007.346-.044.501-.106a.501.501 0 0 1 .375.927 2.494 2.494 0 0 1-.435.13c0 .017-.003.034-.003.052a1.5 1.5 0 0 0 2.993.153L7.5 12V9.47c-.516.067-.934.234-1.146.446a.5.5 0 0 1-.707-.707c.448-.448 1.156-.673 1.853-.744V7.058a4.047 4.047 0 0 1-.362-.023c-.312-.037-.693-.134-.991-.431a.5.5 0 1 1 .707-.708c.066.066.181.12.4.146.083.01.164.013.246.016V4A1.5 1.5 0 0 0 6 2.5Zm4.006 0a1.5 1.5 0 0 0-1.5 1.5l-.006.06v1.998c.083-.003.164-.006.247-.016.219-.026.334-.08.4-.146a.5.5 0 0 1 .707.708c-.298.297-.679.394-.991.431a4.05 4.05 0 0 1-.363.023v1.407c.698.071 1.406.296 1.854.744a.5.5 0 0 1-.707.707c-.212-.212-.63-.38-1.147-.446V12l.007.153A1.501 1.501 0 0 0 11.501 12c0-.017-.004-.034-.004-.052a2.483 2.483 0 0 1-.434-.13.5.5 0 0 1 .375-.927c.155.062.322.099.499.106h.013l.036.001.017.001A1.5 1.5 0 0 0 12.001 8a.5.5 0 1 1 0-1c.325 0 .636.064.921.178.352-.275.579-.7.579-1.178 0-.404-.159-.7-.405-.904-.224-.186-.544-.312-.928-.34l-.167-.006-.115.005c-.257.02-.461.107-.618.206a.5.5 0 0 1-.535-.845c.203-.129.457-.246.759-.311A1.499 1.499 0 0 0 10.006 2.5Z"/></symbol>
  <symbol id="icon-large" fill="none" viewBox="0 0 24 24"><path fill="currentColor" d="M14.788 3.014A2.998 2.998 0 0 1 17.46 5.53 3.5 3.5 0 0 1 20.5 9c0 .932-.367 1.777-.961 2.404l.03.022.054.041c.156.12.301.251.435.395l.05.053a3.139 3.139 0 0 1 .238.298 3.456 3.456 0 0 1 .24.383l.024.047c.022.041.042.083.062.126l.02.042.06.143c.007.018.015.035.021.053l.029.08a3.468 3.468 0 0 1 .166.692l.007.06c.01.075.017.152.02.23l.005.18-.012.294a3.5 3.5 0 0 1-2.491 3.058 3.499 3.499 0 0 1-3.318 3.393L15 21a3.496 3.496 0 0 1-3-1.702 3.495 3.495 0 0 1-2.678 1.688L9 21a3.5 3.5 0 0 1-3.498-3.4 3.498 3.498 0 0 1-2.49-3.056L3 14.25l.005-.18v-.018l.007-.089a3.55 3.55 0 0 1 .08-.509 3.48 3.48 0 0 1 .125-.419c.012-.034.026-.068.04-.101.01-.028.022-.056.034-.083l.037-.081a3.41 3.41 0 0 1 .055-.11l.03-.063.066-.114c.01-.016.018-.033.028-.048.03-.05.061-.1.094-.149l.036-.051c.025-.035.05-.07.076-.103.02-.027.043-.053.064-.08l.023-.028.058-.07.033-.038.05-.053a3.41 3.41 0 0 1 .518-.457 3.5 3.5 0 0 1 2.08-5.875A2.999 2.999 0 0 1 9.499 3l.289.013A2.997 2.997 0 0 1 12 4.345 2.995 2.995 0 0 1 14.5 3l.288.014ZM9.5 4a2 2 0 0 0-1.948 1.545c.43.068.834.214 1.198.424a.5.5 0 1 1-.5.865 2.482 2.482 0 0 0-1.08-.328L7 6.5l-.256.013a2.5 2.5 0 0 0-1.338 4.412A3.5 3.5 0 0 1 6.5 10.75a.5.5 0 0 1 0 1 2.49 2.49 0 0 0-2.188 1.29A2.492 2.492 0 0 0 4 14.25l.01.23a2.501 2.501 0 0 0 2.084 2.237h.001a2.511 2.511 0 0 0 1.655-.3.5.5 0 1 1 .5.864 3.486 3.486 0 0 1-1.739.468A2.501 2.501 0 0 0 9 20l.23-.01a2.5 2.5 0 0 0 2.235-2.074l.022-.088.013-.028v-7.32c-.867-.063-1.754-.32-2.4-1.179a.5.5 0 0 1 .8-.602c.388.518.92.719 1.6.778V6l-.011-.212A2.001 2.001 0 0 0 9.691 4.01L9.5 4Zm5 0a2.002 2.002 0 0 0-1.99 1.788L12.5 6v3.477c.68-.059 1.211-.26 1.6-.777a.5.5 0 0 1 .8.6c-.646.86-1.533 1.118-2.4 1.18v7.323a.499.499 0 0 1 .034.113A2.501 2.501 0 0 0 15 20l.256-.012a2.5 2.5 0 0 0 2.231-2.239 3.485 3.485 0 0 1-1.737-.467.5.5 0 0 1 .5-.866 2.488 2.488 0 0 0 1.651.301h.004a2.5 2.5 0 0 0 2.084-2.236l.01-.23a2.51 2.51 0 0 0-.555-1.572l-.046-.054a2.517 2.517 0 0 0-.716-.578 2.49 2.49 0 0 0-1.182-.297.5.5 0 0 1 0-1 3.5 3.5 0 0 1 1.093.175 2.5 2.5 0 0 0-1.456-4.422l-.142-.003c-.454.001-.88.123-1.245.334a.5.5 0 0 1-.5-.865c.363-.21.767-.355 1.196-.424a2 2 0 0 0-1.755-1.536L14.5 4ZM10 13a.5.5 0 0 1 0 1c-.654 0-1.235.314-1.6.801a.501.501 0 0 1-.8-.601A2.997 2.997 0 0 1 10 13Zm4 0c.982 0 1.854.473 2.4 1.2a.5.5 0 0 1-.8.6A1.997 1.997 0 0 0 14 14a.5.5 0 0 1 0-1Z"/></symbol>
  <use href="#icon"/>
</svg>
