<svg xmlns="http://www.w3.org/2000/svg">
  <symbol id="icon" fill="none" viewBox="0 0 16 16"><path fill="currentColor" d="M7.5 2a.5.5 0 0 1 .5.5V13h5.5a.5.5 0 0 1 0 1h-11a.5.5 0 0 1 0-1h2v-2l.01-.1a.5.5 0 0 1 .49-.4h2v-8a.5.5 0 0 1 .5-.5Zm-2 11H7v-1.5H5.5V13Zm6-2.75a.5.5 0 0 1 .5.5v.543l.647-.647.078-.064a.5.5 0 0 1 .693.693l-.064.078-1.5 1.5a.5.5 0 0 1-.63.065l-.077-.065-1.5-1.5-.065-.078a.5.5 0 0 1 .694-.693l.078.064.646.647v-.543a.5.5 0 0 1 .5-.5Zm0-2.25a.5.5 0 0 1 .5.5V9a.5.5 0 0 1-1 0v-.5a.5.5 0 0 1 .5-.5Zm0-2.5a.5.5 0 0 1 .5.5v.5a.5.5 0 0 1-1 0V6a.5.5 0 0 1 .5-.5Zm-.275-3.418a.501.501 0 0 1 .629.064l1.5 1.5.064.078a.501.501 0 0 1-.693.694l-.078-.065L12 3.707v.543a.5.5 0 0 1-1 0v-.543l-.646.646a.5.5 0 1 1-.707-.707l1.5-1.5.078-.064Z"/></symbol>
  <symbol id="icon-large" fill="none" viewBox="0 0 24 24"><path fill="currentColor" d="M11.5 3a.5.5 0 0 1 .5.5V20h8.5a.5.5 0 0 1 0 1h-17a.5.5 0 0 1 0-1H8v-2.5l.01-.1a.501.501 0 0 1 .49-.4H11V3.5a.5.5 0 0 1 .5-.5ZM9 20h2v-2H9v2Zm7.5-3.5a.5.5 0 0 1 .5.5v1.293l1.146-1.147.078-.064a.501.501 0 0 1 .694.693l-.065.078-2 2a.5.5 0 0 1-.629.065l-.078-.065-2-2-.065-.078a.501.501 0 0 1 .694-.693l.078.064 1.146 1.147V17a.5.5 0 0 1 .5-.5Zm0-3a.5.5 0 0 1 .5.5v1a.5.5 0 1 1-1 0v-1a.5.5 0 0 1 .5-.5Zm0-3a.5.5 0 0 1 .5.5v1a.5.5 0 1 1-1 0v-1a.5.5 0 0 1 .5-.5Zm0-3a.5.5 0 0 1 .5.5v1a.5.5 0 1 1-1 0V8a.5.5 0 0 1 .5-.5Zm-.276-4.418a.501.501 0 0 1 .629.064l2 2 .064.078a.5.5 0 0 1-.693.694l-.078-.065L17 4.707V6a.5.5 0 1 1-1 0V4.707l-1.147 1.146a.5.5 0 0 1-.707-.707l2-2 .078-.064Z"/></symbol>
  <use href="#icon"/>
</svg>
