<svg xmlns="http://www.w3.org/2000/svg">
  <symbol id="icon" fill="none" viewBox="0 0 16 16"><path fill="currentColor" d="M7.429 1.768a1.5 1.5 0 0 1 1.321.087l4.196 2.423a1.5 1.5 0 0 1 .75 1.3v4.845a1.5 1.5 0 0 1-.75 1.299L8.75 14.145a1.5 1.5 0 0 1-1.321.087l-.179-.087-4.196-2.423a1.5 1.5 0 0 1-.75-1.3V5.578a1.5 1.5 0 0 1 .75-1.299L7.25 1.855l.179-.087Zm.821.954a.5.5 0 0 0-.44-.03l-.06.03-4.196 2.423a.5.5 0 0 0-.25.432v4.846a.5.5 0 0 0 .25.432l4.196 2.423.06.03a.5.5 0 0 0 .44-.03l4.196-2.423a.5.5 0 0 0 .25-.432V5.577a.5.5 0 0 0-.25-.432L8.25 2.722Z"/></symbol>
  <symbol id="icon-large" fill="none" viewBox="0 0 24 24"><path fill="currentColor" d="M11.403 1.296a1.5 1.5 0 0 1 1.38.096l8 4.89A1.5 1.5 0 0 1 21.5 7.56v8.878a1.5 1.5 0 0 1-.559 1.168l-.159.112-8 4.89a1.5 1.5 0 0 1-1.379.095l-.185-.096-8-4.89A1.5 1.5 0 0 1 2.5 16.44V7.561a1.5 1.5 0 0 1 .718-1.28l8-4.89.185-.095Zm.858.95a.5.5 0 0 0-.46-.033l-.062.032-8 4.889a.5.5 0 0 0-.239.427v8.878a.5.5 0 0 0 .24.427l8 4.889.06.032a.5.5 0 0 0 .46-.032l8-4.889.053-.038a.5.5 0 0 0 .187-.389V7.561a.5.5 0 0 0-.24-.427l-8-4.889Z"/></symbol>
  <use href="#icon"/>
</svg>
