<svg xmlns="http://www.w3.org/2000/svg">
  <symbol id="icon" fill="none" viewBox="0 0 16 16"><path fill="currentColor" d="M12.5 1A1.5 1.5 0 0 1 14 2.5V9h-1V2.5a.5.5 0 0 0-.5-.5h-9a.5.5 0 0 0-.5.5v11a.5.5 0 0 0 .5.5H9v1H3.5A1.5 1.5 0 0 1 2 13.5v-11A1.5 1.5 0 0 1 3.5 1h9Zm2 11a.5.5 0 0 1 0 1h-4a.5.5 0 1 1 0-1h4Zm-7-.5a.5.5 0 0 1 0 1H5a.5.5 0 0 1 0-1h2.5ZM11 6a.5.5 0 0 1 0 1H5a.5.5 0 0 1 0-1h6Zm0-2.5a.5.5 0 0 1 0 1H5a.5.5 0 0 1 0-1h6Z"/></symbol>
  <symbol id="icon-large" fill="none" viewBox="0 0 24 24"><path fill="currentColor" d="M18.5 2A1.5 1.5 0 0 1 20 3.5V14h-1V3.5a.5.5 0 0 0-.5-.5h-13a.5.5 0 0 0-.5.5v17a.5.5 0 0 0 .5.5H14v1H5.5A1.5 1.5 0 0 1 4 20.5v-17A1.5 1.5 0 0 1 5.5 2h13Zm4 17a.5.5 0 0 1 0 1h-6a.5.5 0 0 1 0-1h6Zm-11-1a.5.5 0 0 1 0 1h-4a.5.5 0 0 1 0-1h4Zm2-7a.5.5 0 0 1 0 1h-6a.5.5 0 0 1 0-1h6Zm3-3a.5.5 0 0 1 0 1h-9a.5.5 0 0 1 0-1h9Zm0-3a.5.5 0 0 1 0 1h-9a.5.5 0 0 1 0-1h9Z"/></symbol>
  <use href="#icon"/>
</svg>
