<svg xmlns="http://www.w3.org/2000/svg">
  <symbol id="icon" fill="none" viewBox="0 0 16 16"><path fill="currentColor" fill-rule="evenodd" d="M11.225 3.082a.5.5 0 0 1 .629.064l2 2a.5.5 0 1 1-.707.708L12 4.707V12.5a.5.5 0 1 1-1 0V4.707L9.854 5.854a.5.5 0 1 1-.708-.708l2-2 .079-.064ZM9 11.5a.5.5 0 0 0-.5-.5h-6a.5.5 0 0 0 0 1h6a.5.5 0 0 0 .5-.5ZM7 8a.5.5 0 0 0-.5-.5h-4a.5.5 0 0 0 0 1h4A.5.5 0 0 0 7 8ZM5 4.5a.5.5 0 0 0-.5-.5h-2a.5.5 0 0 0 0 1h2a.5.5 0 0 0 .5-.5Z" clip-rule="evenodd"/></symbol>
  <symbol id="icon-large" fill="none" viewBox="0 0 24 24"><path fill="currentColor" fill-rule="evenodd" d="M17.947 3.276a.5.5 0 0 0-.858-.06l-.036.06-1.997 3.994-.007.013-1.496 2.993a.5.5 0 0 0 .894.448L15.81 8h3.382l1.362 2.724a.5.5 0 0 0 .894-.448l-1.496-2.993-.007-.013-1.997-3.994ZM18.691 7 17.5 4.618 16.31 7h2.38Zm1.809 6a.5.5 0 0 1 .38.825L15.587 20H20.5a.5.5 0 0 1 0 1h-6a.5.5 0 0 1-.38-.825L19.413 14H14.5a.5.5 0 0 1 0-1h6ZM9.146 16.146a.5.5 0 1 1 .708.707l-2.995 2.995a.499.499 0 0 1-.718 0l-2.995-2.994a.5.5 0 1 1 .708-.707L6 18.293V4.5a.5.5 0 0 1 1 0v13.793l2.146-2.146Z" clip-rule="evenodd"/></symbol>
  <use href="#icon"/>
</svg>
