<svg xmlns="http://www.w3.org/2000/svg">
  <symbol id="icon" fill="none" viewBox="0 0 16 16"><path fill="currentColor" d="M11.086 2a1.5 1.5 0 0 1 1.06.44l1.414 1.414a1.5 1.5 0 0 1 .44 1.06V12.5a1.5 1.5 0 0 1-1.5 1.5h-9A1.5 1.5 0 0 1 2 12.5v-9A1.5 1.5 0 0 1 3.5 2h7.586ZM3.5 3a.5.5 0 0 0-.5.5v9a.5.5 0 0 0 .5.5h1V9.499a1.5 1.5 0 0 1 1.5-1.5L10 8a1.5 1.5 0 0 1 1.5 1.5V13h1a.5.5 0 0 0 .5-.5V4.914a.5.5 0 0 0-.146-.353L11.5 3.207V5.5a.5.5 0 0 1-.5.5H5a.5.5 0 0 1-.5-.5V3h-1ZM6 8.999a.5.5 0 0 0-.5.5V13h5V9.5A.5.5 0 0 0 10 9l-4-.001ZM5.5 5h5V3h-5v2Z"/></symbol>
  <symbol id="icon-large" fill="none" viewBox="0 0 24 24"><path fill="currentColor" fill-rule="evenodd" d="M3 19.5v-15A1.5 1.5 0 0 1 4.5 3h12.586a1.5 1.5 0 0 1 1.06.44l2.415 2.414A1.5 1.5 0 0 1 21 6.914V19.5a1.5 1.5 0 0 1-1.5 1.5h-15A1.5 1.5 0 0 1 3 19.5ZM16 4H8v4h8V4ZM7 4v4.5a.5.5 0 0 0 .5.5h9a.5.5 0 0 0 .5-.5V4h.086a.5.5 0 0 1 .354.146l2.413 2.415a.5.5 0 0 1 .147.353V19.5a.5.5 0 0 1-.5.5H17v-6.5a1.5 1.5 0 0 0-1.5-1.5h-7A1.5 1.5 0 0 0 7 13.5V20H4.5a.5.5 0 0 1-.5-.5v-15a.5.5 0 0 1 .5-.5H7Zm9 16H8v-6.5a.5.5 0 0 1 .5-.5h7a.5.5 0 0 1 .5.5V20Z" clip-rule="evenodd"/></symbol>
  <use href="#icon"/>
</svg>
