<svg xmlns="http://www.w3.org/2000/svg">
  <symbol id="icon" fill="none" viewBox="0 0 16 16"><path fill="currentColor" fill-rule="evenodd" d="M14.354 1.646a1.914 1.914 0 0 0-2.707 0l-1.17 1.17a1.758 1.758 0 0 0-2.22.22l-.888.888a.814.814 0 0 0 0 1.152l.424.424-6.647 6.646A.5.5 0 0 0 1 12.5v1.996a.5.5 0 0 0 .5.5h2a.5.5 0 0 0 .353-.146L10.5 8.207l.424.424a.814.814 0 0 0 1.152 0l.889-.889a1.758 1.758 0 0 0 .219-2.218l1.17-1.17a1.914 1.914 0 0 0 0-2.708ZM9.793 7.5 8.5 6.207l-6.5 6.5v1.29h1.293l6.5-6.497Zm2.56-5.146a.914.914 0 0 1 1.293 1.292l-1.388 1.39a.657.657 0 0 0 0 .929.757.757 0 0 1 0 1.07l-.758.758L8.207 4.5l.758-.758a.757.757 0 0 1 1.07 0 .657.657 0 0 0 .93 0l1.389-1.388Z" clip-rule="evenodd"/></symbol>
  <symbol id="icon-large" fill="none" viewBox="0 0 24 24"><path fill="currentColor" fill-rule="evenodd" d="M19.854 4.146a2.621 2.621 0 0 0-3.708 0l-1.67 1.67a1.758 1.758 0 0 0-2.218.22l-.89.888a.814.814 0 0 0 0 1.152l.425.424-8.083 8.083a1.606 1.606 0 0 0-.3 1.854.053.053 0 0 1-.004.053l-.43.644a1.362 1.362 0 0 0 1.89 1.89l.644-.43a.053.053 0 0 1 .053-.003 1.606 1.606 0 0 0 1.854-.301l8.083-8.083.424.424a.814.814 0 0 0 1.152 0l.889-.889a1.758 1.758 0 0 0 .218-2.218l1.67-1.67a2.621 2.621 0 0 0 0-3.708ZM14.793 11.5 12.5 9.207 4.417 17.29a.606.606 0 0 0-.113.7c.169.337.144.74-.066 1.054l-.43.645a.362.362 0 0 0 .503.503l.645-.43c.314-.21.717-.235 1.055-.066a.607.607 0 0 0 .7-.113l8.082-8.083Zm2.06-6.646a1.621 1.621 0 1 1 2.293 2.292l-1.888 1.89a.657.657 0 0 0 0 .929.757.757 0 0 1 0 1.07l-.758.758L12.207 7.5l.758-.758a.757.757 0 0 1 1.07 0 .657.657 0 0 0 .93 0l1.889-1.888Z" clip-rule="evenodd"/></symbol>
  <use href="#icon"/>
</svg>
