<svg xmlns="http://www.w3.org/2000/svg">
  <symbol id="icon" fill="none" viewBox="0 0 16 16"><path fill="currentColor" fill-rule="evenodd" d="M7.748 1.726a.5.5 0 0 1 .504 0l5 2.917a.5.5 0 0 1 .248.431v5.852a.5.5 0 0 1-.248.432l-5 2.916a.5.5 0 0 1-.504 0l-5-2.916a.5.5 0 0 1-.248-.432V5.074a.5.5 0 0 1 .248-.431l5-2.917ZM8.756.862a1.5 1.5 0 0 0-1.512 0l-5 2.917A1.5 1.5 0 0 0 1.5 5.074v5.852a1.5 1.5 0 0 0 .744 1.295l5 2.917a1.5 1.5 0 0 0 1.512 0l5-2.917a1.5 1.5 0 0 0 .744-1.295V5.074a1.5 1.5 0 0 0-.744-1.295l-5-2.917ZM7.748 5.226a.5.5 0 0 1 .504 0l1.756 1.024L8 7.421 5.992 6.25l1.756-1.024ZM5.5 7.12v2.055a.5.5 0 0 0 .248.432L7.5 10.629V8.287l-2-1.166Zm3 1.166v2.342l1.752-1.021a.5.5 0 0 0 .248-.432V7.12l-2 1.166Zm.256-3.925a1.5 1.5 0 0 0-1.512 0l-2 1.167A1.5 1.5 0 0 0 4.5 6.824v2.352a1.5 1.5 0 0 0 .744 1.295l2 1.167a1.5 1.5 0 0 0 1.512 0l2-1.167a1.5 1.5 0 0 0 .744-1.295V6.824a1.5 1.5 0 0 0-.744-1.295l-2-1.167Z" clip-rule="evenodd"/></symbol>
  <symbol id="icon-large" fill="none" viewBox="0 0 24 24"><path fill="currentColor" fill-rule="evenodd" d="M11.74 2.245a.5.5 0 0 1 .52 0l8 4.89a.5.5 0 0 1 .24.426v8.878a.5.5 0 0 1-.24.427l-8 4.889a.5.5 0 0 1-.52 0l-8-4.89a.5.5 0 0 1-.24-.426V7.561a.5.5 0 0 1 .24-.427l8-4.889Zm1.042-.853a1.5 1.5 0 0 0-1.564 0l-8 4.889A1.5 1.5 0 0 0 2.5 7.56v8.878a1.5 1.5 0 0 0 .718 1.28l8 4.889a1.5 1.5 0 0 0 1.564 0l8-4.889a1.5 1.5 0 0 0 .718-1.28V7.561a1.5 1.5 0 0 0-.718-1.28l-8-4.889ZM16 10.642l-3.5 2.138v3.829l3.26-1.993a.5.5 0 0 0 .24-.427v-3.547Zm-.459-.892L12 11.914 8.459 9.75l3.28-2.005a.5.5 0 0 1 .522 0l3.28 2.005ZM8 10.642v3.547a.5.5 0 0 0 .24.427l3.26 1.992V12.78L8 10.642Zm4.782-3.75a1.5 1.5 0 0 0-1.564 0l-3.5 2.139A1.5 1.5 0 0 0 7 10.31v3.878a1.5 1.5 0 0 0 .718 1.28l3.5 2.139a1.5 1.5 0 0 0 1.564 0l3.5-2.139A1.5 1.5 0 0 0 17 14.19v-3.878a1.5 1.5 0 0 0-.718-1.28l-3.5-2.139Z" clip-rule="evenodd"/></symbol>
  <use href="#icon"/>
</svg>
