<svg xmlns="http://www.w3.org/2000/svg">
  <symbol id="icon" fill="none" viewBox="0 0 16 16"><path fill="currentColor" d="M2 7.5a.5.5 0 0 1 .5.5 5.5 5.5 0 0 0 9.273 4H11a.5.5 0 0 1 0-1h2a.5.5 0 0 1 .5.5v2a.5.5 0 0 1-1 0v-.813A6.5 6.5 0 0 1 1.5 8a.5.5 0 0 1 .5-.499Zm4.94-1.896a1.5 1.5 0 0 1 2.12 0l1.336 1.335a1.5 1.5 0 0 1 0 2.122l-1.335 1.335a1.5 1.5 0 0 1-2.122 0L5.604 9.061a1.5 1.5 0 0 1 0-2.122l1.335-1.335Zm1.414.707a.5.5 0 0 0-.708 0L6.311 7.646a.5.5 0 0 0 0 .708l1.335 1.335a.5.5 0 0 0 .708 0l1.335-1.335a.5.5 0 0 0 0-.708L8.354 6.311ZM8 1.5A6.5 6.5 0 0 1 14.5 8a.5.5 0 0 1-1 0 5.5 5.5 0 0 0-9.273-4H5a.5.5 0 0 1 0 1H3a.5.5 0 0 1-.5-.5v-2a.5.5 0 0 1 1 0v.812A6.478 6.478 0 0 1 8 1.5Z"/></symbol>
  <symbol id="icon-large" fill="none" viewBox="0 0 24 24"><path fill="currentColor" fill-rule="evenodd" d="M15.854 1.146a.5.5 0 0 0-.707 0l-2 2a.5.5 0 0 0 0 .708l2 2a.5.5 0 1 0 .707-.708L14.707 4H16.5A3.5 3.5 0 0 1 20 7.5v2a.5.5 0 0 0 1 0v-2A4.5 4.5 0 0 0 16.5 3h-1.793l1.146-1.146a.5.5 0 0 0 0-.708Zm-7.708 17a.5.5 0 0 1 .708 0l2 2a.5.5 0 0 1 0 .707l-2 2a.5.5 0 1 1-.708-.707L9.293 21H7.5A4.5 4.5 0 0 1 3 16.5v-2a.5.5 0 0 1 1 0v2A3.5 3.5 0 0 0 7.5 20h1.793l-1.147-1.146a.5.5 0 0 1 0-.707ZM15 9.5a.5.5 0 0 0-.5-.5h-5a.5.5 0 0 0-.5.5v5a.5.5 0 0 0 .5.5h5a.5.5 0 0 0 .5-.5v-5Zm1 5a1.5 1.5 0 0 1-1.5 1.5h-5A1.5 1.5 0 0 1 8 14.5v-5A1.5 1.5 0 0 1 9.5 8h5A1.5 1.5 0 0 1 16 9.5v5Z" clip-rule="evenodd"/></symbol>
  <use href="#icon"/>
</svg>
