<svg xmlns="http://www.w3.org/2000/svg">
  <symbol id="icon" fill="none" viewBox="0 0 16 16"><path fill="currentColor" d="M8 1.5A6.5 6.5 0 1 1 1.5 8a.5.5 0 0 1 1 0A5.5 5.5 0 1 0 8 2.5a.5.5 0 0 1 0-1ZM3.05 3.05a1 1 0 0 1 1.25-.132l4.752 3.074a2.212 2.212 0 1 1-3.06 3.06L2.918 4.3l-.045-.074A1.001 1.001 0 0 1 3.05 3.05Zm3.782 5.458.083.115c.418.507 1.17.587 1.686.18l.106-.096a1.212 1.212 0 0 0-.084-1.791l-.115-.085-4.751-3.074 3.075 4.75Z"/></symbol>
  <symbol id="icon-large" fill="none" viewBox="0 0 24 24"><path fill="currentColor" fill-rule="evenodd" d="M11.5 2.5v3.077a.5.5 0 0 0 1 0V3.014a9 9 0 1 1-7.132 2.901.5.5 0 1 0-.736-.676A9.966 9.966 0 0 0 2 12c0 5.523 4.477 10 10 10s10-4.477 10-10S17.523 2 12 2a.5.5 0 0 0-.49.4l-.01.1Zm1.143 9.03a.803.803 0 1 1-1.114 1.113l-2.226-3.34 3.34 2.226ZM12.197 14a1.803 1.803 0 0 0 1-3.303l-5.42-3.613a.5.5 0 0 0-.693.693l3.613 5.42c.335.502.898.803 1.5.803Z" clip-rule="evenodd"/></symbol>
  <use href="#icon"/>
</svg>
