<svg xmlns="http://www.w3.org/2000/svg">
  <symbol id="icon" fill="none" viewBox="0 0 16 16"><path fill="currentColor" d="M2.5 2a.5.5 0 0 1 .5.5v10a.5.5 0 0 0 .5.5h10a.5.5 0 0 1 0 1h-10A1.5 1.5 0 0 1 2 12.5v-10a.5.5 0 0 1 .5-.5Zm1.951 5.768a3.032 3.032 0 0 1 4.403-.122 2.032 2.032 0 0 0 3.023-.167l.232-.292a.5.5 0 0 1 .782.625l-.234.292a3.032 3.032 0 0 1-4.388.366l-.123-.116a2.032 2.032 0 0 0-3.023.167l-.232.291a.5.5 0 0 1-.782-.624l.234-.292.108-.128Z"/></symbol>
  <symbol id="icon-large" fill="none" viewBox="0 0 24 24"><path fill="currentColor" d="M3.5 3a.5.5 0 0 1 .5.5v16a.5.5 0 0 0 .5.5h16a.5.5 0 0 1 0 1h-16A1.5 1.5 0 0 1 3 19.5v-16a.5.5 0 0 1 .5-.5Zm2.052 8.692a5.132 5.132 0 0 1 7.302-.046l.16.153a4.13 4.13 0 0 0 5.87-.354l.24-.275a.5.5 0 0 1 .752.659l-.24.275a5.132 5.132 0 0 1-7.29.44l-.2-.191a4.132 4.132 0 0 0-5.878.037l-.15.164-.242.275a.5.5 0 1 1-.752-.659l.24-.275.188-.203Z"/></symbol>
  <use href="#icon"/>
</svg>
