<svg xmlns="http://www.w3.org/2000/svg">
  <symbol id="icon" fill="none" viewBox="0 0 16 16"><path fill="currentColor" d="M9.646 4.146a.5.5 0 0 1 .63-.064l.078.064 3.5 3.5a.5.5 0 0 1 0 .707l-3.5 3.5a.5.5 0 1 1-.708-.707L12.293 8.5H2.5a.5.5 0 0 1 0-1h9.793L9.646 4.853l-.064-.078a.5.5 0 0 1 .064-.629Z"/></symbol>
  <symbol id="icon-large" fill="none" viewBox="0 0 24 24"><path fill="currentColor" fill-rule="evenodd" d="M14.354 5.146a.5.5 0 1 0-.707.708l5.646 5.646H3.5a.5.5 0 0 0 0 1h15.793l-5.646 5.646a.5.5 0 1 0 .707.707l6.5-6.5a.5.5 0 0 0 0-.707l-6.5-6.5Z" clip-rule="evenodd"/></symbol>
  <use href="#icon"/>
</svg>
