<svg xmlns="http://www.w3.org/2000/svg">
  <symbol id="icon" fill="none" viewBox="0 0 16 16"><path fill="currentColor" fill-rule="evenodd" d="M3.5 2a.5.5 0 0 0-.5.5V3a.5.5 0 0 1-1 0v-.5A1.5 1.5 0 0 1 3.5 1H4a.5.5 0 0 1 0 1h-.5Zm3-.5A.5.5 0 0 1 7 1h2.5c.138 0 .263.056.354.146l4 4c.09.091.146.216.146.354V7a.5.5 0 0 1-1 0V6h-2.5A1.5 1.5 0 0 1 9 4.5V2H7a.5.5 0 0 1-.5-.5ZM10 2.707V4.5a.5.5 0 0 0 .5.5h1.793L10 2.707ZM2.5 5a.5.5 0 0 1 .5.5v1a.5.5 0 0 1-1 0v-1a.5.5 0 0 1 .5-.5Zm0 4a.5.5 0 0 1 .5.5v1a.5.5 0 0 1-1 0v-1a.5.5 0 0 1 .5-.5Zm11.5.5v1a.5.5 0 0 1-1 0v-1a.5.5 0 0 1 1 0Zm-11.5 3a.5.5 0 0 1 .5.5v.5a.5.5 0 0 0 .5.5H4a.5.5 0 0 1 0 1h-.5A1.5 1.5 0 0 1 2 13.5V13a.5.5 0 0 1 .5-.5ZM14 13v.5a1.5 1.5 0 0 1-1.5 1.5H12a.5.5 0 0 1 0-1h.5a.5.5 0 0 0 .5-.5V13a.5.5 0 0 1 1 0Zm-7.5 1.5A.5.5 0 0 1 7 14h2a.5.5 0 0 1 0 1H7a.5.5 0 0 1-.5-.5Z" clip-rule="evenodd"/></symbol>
  <symbol id="icon-large" fill="none" viewBox="0 0 24 24"><path fill="currentColor" fill-rule="evenodd" d="M5.5 3a.5.5 0 0 0-.5.5V5a.5.5 0 0 1-1 0V3.5A1.5 1.5 0 0 1 5.5 2H7a.5.5 0 0 1 0 1H5.5Zm5-.5A.5.5 0 0 1 11 2h2c.138 0 .263.056.354.146l6.5 6.5A.5.5 0 0 1 20 9v1a.5.5 0 0 1-1 0v-.5h-5A1.5 1.5 0 0 1 12.5 8V3H11a.5.5 0 0 1-.5-.5Zm3 1.207V8a.5.5 0 0 0 .5.5h4.293L13.5 3.707ZM4.5 7.5A.5.5 0 0 1 5 8v2a.5.5 0 0 1-1 0V8a.5.5 0 0 1 .5-.5Zm0 5.5a.5.5 0 0 1 .5.5v2a.5.5 0 0 1-1 0v-2a.5.5 0 0 1 .5-.5Zm15.5.5v2a.5.5 0 0 1-1 0v-2a.5.5 0 0 1 1 0Zm-15.5 5a.5.5 0 0 1 .5.5v1.5a.5.5 0 0 0 .5.5H7a.5.5 0 0 1 0 1H5.5A1.5 1.5 0 0 1 4 20.5V19a.5.5 0 0 1 .5-.5ZM20 19v1.5a1.5 1.5 0 0 1-1.5 1.5H17a.5.5 0 0 1 0-1h1.5a.5.5 0 0 0 .5-.5V19a.5.5 0 0 1 1 0Zm-9.5 2.5a.5.5 0 0 1 .5-.5h2a.5.5 0 0 1 0 1h-2a.5.5 0 0 1-.5-.5Z" clip-rule="evenodd"/></symbol>
  <use href="#icon"/>
</svg>
