<svg xmlns="http://www.w3.org/2000/svg">
  <symbol id="icon" fill="none" viewBox="0 0 16 16"><path fill="currentColor" d="M10.5 2A1.5 1.5 0 0 1 12 3.5V4h.5A1.5 1.5 0 0 1 14 5.5v5a1.5 1.5 0 0 1-1.5 1.5H12v.5a1.5 1.5 0 0 1-1.5 1.5h-5A1.5 1.5 0 0 1 4 12.5V12h-.5A1.5 1.5 0 0 1 2 10.5v-5A1.5 1.5 0 0 1 3.5 4H4v-.5A1.5 1.5 0 0 1 5.5 2h5ZM5 12.5a.5.5 0 0 0 .5.5h5a.5.5 0 0 0 .5-.5V8H5v4.5ZM9.5 11a.5.5 0 0 1 0 1h-3a.5.5 0 0 1 0-1h3Zm-6-6a.5.5 0 0 0-.5.5v5a.5.5 0 0 0 .5.5H4V7.5l.01-.1A.5.5 0 0 1 4.5 7h7a.5.5 0 0 1 .5.5V11h.5a.5.5 0 0 0 .5-.5v-5a.5.5 0 0 0-.5-.5h-9Zm6.1 4.01a.5.5 0 0 1 0 .98l-.1.01h-3a.5.5 0 0 1 0-1h3l.1.01ZM5.5 3a.5.5 0 0 0-.5.5V4h6v-.5a.5.5 0 0 0-.5-.5h-5Z"/></symbol>
  <symbol id="icon-large" fill="none" viewBox="0 0 24 24"><path fill="currentColor" fill-rule="evenodd" d="M16.5 3a.5.5 0 0 1 .5.5V6H7V3.5a.5.5 0 0 1 .5-.5h9ZM6 6V3.5A1.5 1.5 0 0 1 7.5 2h9A1.5 1.5 0 0 1 18 3.5V6h2.5A1.5 1.5 0 0 1 22 7.5v9a1.5 1.5 0 0 1-1.5 1.5H18v2.5a1.5 1.5 0 0 1-1.5 1.5h-9A1.5 1.5 0 0 1 6 20.5V18H3.5A1.5 1.5 0 0 1 2 16.5v-9A1.5 1.5 0 0 1 3.5 6H6Zm14.5 11H18v-3.5a.5.5 0 0 0-.5-.5h-11a.5.5 0 0 0-.49.4l-.01.1V17H3.5a.5.5 0 0 1-.5-.5v-9a.5.5 0 0 1 .5-.5h17a.5.5 0 0 1 .5.5v9a.5.5 0 0 1-.5.5ZM17 14H7v6.5a.5.5 0 0 0 .5.5h9a.5.5 0 0 0 .5-.5V14Zm-7-3.5a.5.5 0 0 0-.5-.5h-3a.5.5 0 0 0 0 1h3a.5.5 0 0 0 .5-.5Zm4.5 5.5a.5.5 0 0 1 0 1h-5a.5.5 0 0 1 0-1h5Zm.5 2.5a.5.5 0 0 0-.5-.5h-5a.5.5 0 0 0 0 1h5a.5.5 0 0 0 .5-.5Z" clip-rule="evenodd"/></symbol>
  <use href="#icon"/>
</svg>
