<svg xmlns="http://www.w3.org/2000/svg">
  <symbol id="icon" fill="none" viewBox="0 0 16 16"><path fill="currentColor" d="M8 1.5a6.5 6.5 0 1 1 0 13 6.5 6.5 0 0 1 0-13Zm0 1a5.5 5.5 0 1 0 0 11 5.5 5.5 0 0 0 0-11ZM8 5a.5.5 0 0 1 .5.5v2h2a.5.5 0 0 1 0 1h-2v2a.5.5 0 0 1-1 0v-2h-2a.5.5 0 0 1 0-1h2v-2A.5.5 0 0 1 8 5Z"/></symbol>
  <symbol id="icon-large" fill="none" viewBox="0 0 24 24"><path fill="currentColor" fill-rule="evenodd" d="M12 3a9 9 0 1 1 0 18 9 9 0 0 1 0-18Zm0 19c5.523 0 10-4.477 10-10S17.523 2 12 2 2 6.477 2 12s4.477 10 10 10Zm-.5-9.5v3a.5.5 0 0 0 1 0v-3h3a.5.5 0 0 0 0-1h-3v-3a.5.5 0 0 0-1 0v3h-3a.5.5 0 0 0 0 1h3Z" clip-rule="evenodd"/></symbol>
  <use href="#icon"/>
</svg>
