<svg xmlns="http://www.w3.org/2000/svg">
  <symbol id="icon" fill="none" viewBox="0 0 16 16"><path fill="currentColor" d="M8 1a.5.5 0 0 1 .5.5v13a.5.5 0 0 1-1 0v-13A.5.5 0 0 1 8 1ZM6.5 3h-4a.5.5 0 0 0-.5.5v9a.5.5 0 0 0 .5.5h4v1h-4A1.5 1.5 0 0 1 1 12.5v-9A1.5 1.5 0 0 1 2.5 2h4v1Zm4.625 10a.5.5 0 0 1 0 1H9.5v-1h1.625Zm3.375-1.5a.5.5 0 0 1 .5.5v.5a1.5 1.5 0 0 1-1.5 1.5H13a.5.5 0 0 1 0-1h.5a.5.5 0 0 0 .5-.5V12a.5.5 0 0 1 .5-.5Zm0-3a.5.5 0 0 1 .5.5v1a.5.5 0 0 1-1 0V9a.5.5 0 0 1 .5-.5Zm0-3a.5.5 0 0 1 .5.5v1a.5.5 0 0 1-1 0V6a.5.5 0 0 1 .5-.5Zm-1-3.5A1.5 1.5 0 0 1 15 3.5V4a.5.5 0 0 1-1 0v-.5a.5.5 0 0 0-.5-.5H13a.5.5 0 0 1 0-1h.5Zm-2.375 0a.5.5 0 0 1 0 1H9.5V2h1.625Z"/></symbol>
  <symbol id="icon-large" fill="none" viewBox="0 0 24 24"><path fill="currentColor" fill-rule="evenodd" d="M11.5 2.5v19a.5.5 0 0 0 1 0v-19a.5.5 0 0 0-1 0ZM2 5.5v13A1.5 1.5 0 0 0 3.5 20h6v-1h-6a.5.5 0 0 1-.5-.5v-13a.5.5 0 0 1 .5-.5h6V4h-6A1.5 1.5 0 0 0 2 5.5ZM17 4a.5.5 0 0 1 0 1h-2.5V4H17Zm4 1.5V6a.5.5 0 0 0 1 0v-.5A1.5 1.5 0 0 0 20.5 4H20a.5.5 0 0 0 0 1h.5a.5.5 0 0 1 .5.5Zm0 5V9a.5.5 0 0 1 1 0v1.5a.5.5 0 0 1-1 0Zm0 3V15a.5.5 0 0 0 1 0v-1.5a.5.5 0 0 0-1 0Zm0 5V18a.5.5 0 0 1 1 0v.5a1.5 1.5 0 0 1-1.5 1.5H20a.5.5 0 0 1 0-1h.5a.5.5 0 0 0 .5-.5Zm-3.5 1a.5.5 0 0 0-.5-.5h-2.5v1H17a.5.5 0 0 0 .5-.5Z" clip-rule="evenodd"/></symbol>
  <use href="#icon"/>
</svg>
