<svg xmlns="http://www.w3.org/2000/svg">
  <symbol id="icon" fill="none" viewBox="0 0 16 16"><path fill="currentColor" d="M6.647 6.646a.5.5 0 0 1 .707.707L6.207 8.5 7.5 9.793l1.147-1.147a.5.5 0 0 1 .707.707L8.207 10.5l.647.646a.5.5 0 0 1 0 .707l-.5.5a3.33 3.33 0 0 1-4.328.327l-1.172 1.173a.5.5 0 1 1-.707-.707l1.171-1.173a3.33 3.33 0 0 1 .329-4.327l.5-.5.076-.062a.5.5 0 0 1 .63.062l.647.647 1.147-1.147ZM4.354 8.353a2.329 2.329 0 0 0 3.293 3.293l.146-.146L4.5 8.207l-.146.146Zm8.793-6.207a.5.5 0 0 1 .707.707L12.68 4.026a3.329 3.329 0 0 1-.326 4.327l-.5.5a.5.5 0 0 1-.707 0l-4-4a.5.5 0 0 1 0-.707l.5-.5a3.33 3.33 0 0 1 4.326-.327l1.174-1.173Zm-1.5 2.207a2.329 2.329 0 0 0-3.293 0l-.147.147L11.5 7.793l.147-.147a2.33 2.33 0 0 0 0-3.293Z"/></symbol>
  <symbol id="icon-large" fill="none" viewBox="0 0 24 24"><path fill="currentColor" fill-rule="evenodd" d="M21.854 2.146a.5.5 0 0 0-.707 0l-2.665 2.665a4.743 4.743 0 0 0-6.335.335l-1 1a.5.5 0 0 0 0 .708l6 6a.5.5 0 0 0 .707 0l1-1a4.743 4.743 0 0 0 .335-6.336l2.665-2.664a.5.5 0 0 0 0-.708Zm-3.707 3.708a3.743 3.743 0 0 0-5.293 0l-.647.646 5.293 5.293.646-.646a3.743 3.743 0 0 0 0-5.293Zm-8 4.292a.5.5 0 1 1 .707.707L8.707 13 11 15.293l2.146-2.146a.5.5 0 1 1 .707.707L11.707 16l1.146 1.146a.5.5 0 0 1 0 .707l-1 1a4.743 4.743 0 0 1-6.335.336l-2.664 2.665a.5.5 0 1 1-.708-.707l2.665-2.665a4.743 4.743 0 0 1 .335-6.335l1-1 .079-.065a.5.5 0 0 1 .629.064L8 12.293l2.146-2.146Zm-4.293 8a3.743 3.743 0 0 0 5.292 0l.647-.646-1.146-1.146-3-3L6.5 12.207l-.646.646a3.743 3.743 0 0 0 0 5.293Z" clip-rule="evenodd"/></symbol>
  <use href="#icon"/>
</svg>
