<svg xmlns="http://www.w3.org/2000/svg">
  <symbol id="icon" fill="none" viewBox="0 0 16 16"><path fill="currentColor" d="M13.61 9.187a.5.5 0 0 1 .78.625l-2 2.5a.501.501 0 0 1-.744.041l-1.07-1.07-1.66 2.494a.5.5 0 0 1-.832-.555l2-3 .071-.085a.503.503 0 0 1 .698.01l1.105 1.104 1.651-2.064ZM8 9.5c.282 0 .56.02.832.057-.223.29-.407.61-.545.954a5.001 5.001 0 0 0-4.91 3.082c-.142.344-.577.496-.849.24a.472.472 0 0 1-.118-.514A6.002 6.002 0 0 1 8 9.5Zm0-8a3.5 3.5 0 1 1 0 7 3.5 3.5 0 0 1 0-7Zm0 1a2.5 2.5 0 1 0 0 5 2.5 2.5 0 0 0 0-5Z"/></symbol>
  <symbol id="icon-large" fill="none" viewBox="0 0 24 24"><path fill="currentColor" d="M12 12c2.147 0 3.946.714 5.33 1.93l-.33.375-.33.376C15.474 13.63 13.91 13 12 13c-3.952 0-6.512 2.713-7.283 6.496-.05.242.142.504.454.504H12v1H5.17c-.878 0-1.621-.778-1.433-1.703C4.58 15.168 7.46 12 12 12Zm8.084 3.223a.5.5 0 0 1 .832.554l-2 3a.501.501 0 0 1-.77.076l-1.083-1.083-2.156 3.021a.501.501 0 0 1-.815-.582l2.5-3.5a.5.5 0 0 1 .761-.063l1.069 1.069 1.662-2.492ZM12 3a4 4 0 1 1 0 8 4 4 0 0 1 0-8Zm0 1a3 3 0 1 0 0 6 3 3 0 0 0 0-6Z"/></symbol>
  <use href="#icon"/>
</svg>
