<svg xmlns="http://www.w3.org/2000/svg">
  <symbol id="icon" fill="none" viewBox="0 0 16 16"><path fill="currentColor" d="M9.5 2A1.5 1.5 0 0 1 11 3.5V5h1.5A1.5 1.5 0 0 1 14 6.5v3a1.5 1.5 0 0 1-1.5 1.5H11v1.5A1.5 1.5 0 0 1 9.5 14h-3A1.5 1.5 0 0 1 5 12.5V11H3.5A1.5 1.5 0 0 1 2 9.5v-3A1.5 1.5 0 0 1 3.5 5H5V3.5A1.5 1.5 0 0 1 6.5 2h3Zm-3 1a.5.5 0 0 0-.5.5v2a.5.5 0 0 1-.5.5h-2a.5.5 0 0 0-.5.5v3a.5.5 0 0 0 .5.5h2a.5.5 0 0 1 .5.5v2a.5.5 0 0 0 .5.5h3a.5.5 0 0 0 .5-.5v-2a.5.5 0 0 1 .5-.5h2a.5.5 0 0 0 .5-.5v-3a.5.5 0 0 0-.5-.5h-2a.5.5 0 0 1-.5-.5v-2a.5.5 0 0 0-.5-.5h-3ZM8 6a2 2 0 1 1 0 4 2 2 0 0 1 0-4Zm0 1a1 1 0 1 0 0 2 1 1 0 0 0 0-2Z"/></symbol>
  <symbol id="icon-large" fill="none" viewBox="0 0 24 24"><path fill="currentColor" fill-rule="evenodd" d="M22 12a6 6 0 0 0-6-6H8a6 6 0 1 0 0 12h8a6 6 0 0 0 6-6Zm1 0a7 7 0 0 1-7 7H8A7 7 0 1 1 8 5h8a7 7 0 0 1 7 7ZM7 14v-1.5H5.5a.5.5 0 0 1 0-1H7V10a.5.5 0 0 1 1 0v1.5h1.5a.5.5 0 0 1 0 1H8V14a.5.5 0 0 1-1 0Zm9.5-3.5a1.5 1.5 0 1 1 0 3 1.5 1.5 0 0 1 0-3Zm0 4a2.5 2.5 0 1 0 0-5 2.5 2.5 0 0 0 0 5Z" clip-rule="evenodd"/></symbol>
  <use href="#icon"/>
</svg>
