<svg xmlns="http://www.w3.org/2000/svg">
  <symbol id="icon" fill="none" viewBox="0 0 16 16"><path fill="currentColor" d="M14.5 8.5a.5.5 0 0 1 .5.5v4.5a.501.501 0 0 1-.541.498l-6.5-.538a.5.5 0 0 1-.459-.499V9l.01-.101a.5.5 0 0 1 .49-.4h6.5ZM6 8.5a.5.5 0 0 1 .5.5v3.807a.5.5 0 0 1-.534.5l-4.5-.309A.5.5 0 0 1 1 12.5V9l.01-.101a.5.5 0 0 1 .49-.4H6Zm2.5 4 5.5.457V9.5H8.5v3ZM2 12.031l3.5.239V9.5H2v2.532Zm3.966-9.34a.5.5 0 0 1 .534.5V7a.5.5 0 0 1-.5.5H1.5A.5.5 0 0 1 1 7V3.5a.5.5 0 0 1 .466-.5l4.5-.307Zm8.496-.69A.5.5 0 0 1 15 2.5V7a.5.5 0 0 1-.5.5H8a.5.5 0 0 1-.5-.5V3a.5.5 0 0 1 .462-.499l6.5-.5ZM2 3.965V6.5h3.5V3.727l-3.5.24Zm6.5-.505V6.5H14V3.039l-5.5.422Z"/></symbol>
  <symbol id="icon-large" fill="none" viewBox="0 0 24 24"><path fill="currentColor" fill-rule="evenodd" d="M20.441 3.004A.5.5 0 0 1 21 3.5V11a.5.5 0 0 1-.5.5h-9a.5.5 0 0 1-.5-.498l-.031-6.438a.5.5 0 0 1 .441-.498l9.031-1.062Zm-8.47 2.002.027 5.494H20V4.062l-8.03.944ZM3 18.5a.5.5 0 0 0 .441.496l6 .706a.5.5 0 0 0 .559-.496V13a.5.5 0 0 0-.5-.5h-6a.5.5 0 0 0-.49.4L3 13v5.5Zm6 .143-5-.587V13.5h5v5.143ZM21 13a.5.5 0 0 0-.5-.5h-9a.5.5 0 0 0-.49.4L11 13v6.441a.5.5 0 0 0 .35.477l.091.02 9 1.058A.5.5 0 0 0 21 20.5V13Zm-1 6.938-8-.942V13.5h8v6.438ZM9.832 4.42a.5.5 0 0 0-.39-.122l-6 .705A.5.5 0 0 0 3 5.5V11a.5.5 0 0 0 .5.5h6a.5.5 0 0 0 .5-.5V4.794a.501.501 0 0 0-.168-.374ZM4 10.5V5.944l5-.588V10.5H4Z" clip-rule="evenodd"/></symbol>
  <use href="#icon"/>
</svg>
