<svg xmlns="http://www.w3.org/2000/svg">
  <symbol id="icon" fill="none" viewBox="0 0 16 16"><path fill="currentColor" d="M9.94 2.854a1.5 1.5 0 0 1 2.12 0l1.086 1.086a1.5 1.5 0 0 1 0 2.12l-7.292 7.294a.5.5 0 0 1-.354.146H3a.5.5 0 0 1-.5-.5v-2.5a.5.5 0 0 1 .146-.353L9.94 2.854ZM3.5 10.707V12.5h1.793l6-6L9.5 4.707l-6 6Zm7.854-7.146a.5.5 0 0 0-.707 0l-.44.44L12 5.792l.44-.44a.5.5 0 0 0 0-.706L11.354 3.56Z"/></symbol>
  <symbol id="icon-large" fill="none" viewBox="0 0 24 24"><path fill="currentColor" fill-rule="evenodd" d="M18.56 2.353a1.5 1.5 0 0 0-2.12 0l-14 14A1.5 1.5 0 0 0 2 17.415V21.5a.5.5 0 0 0 .5.5h4.086a1.5 1.5 0 0 0 1.06-.44l14-14a1.5 1.5 0 0 0 0-2.12l-3.085-3.087ZM6.587 21H3v-3.586a.5.5 0 0 1 .146-.354L14.5 5.708 18.293 9.5 6.939 20.854a.5.5 0 0 1-.353.146ZM19 8.793l1.94-1.94a.5.5 0 0 0 0-.707l-3.087-3.085a.5.5 0 0 0-.707 0L15.207 5 19 8.793Z" clip-rule="evenodd"/></symbol>
  <use href="#icon"/>
</svg>
