<svg xmlns="http://www.w3.org/2000/svg">
  <symbol id="icon" fill="none" viewBox="0 0 16 16"><path fill="currentColor" fill-rule="evenodd" d="M3.5 2a.5.5 0 0 0-.5.5v11a.5.5 0 0 0 .5.5H9v1H3.5A1.5 1.5 0 0 1 2 13.5v-11A1.5 1.5 0 0 1 3.5 1h5.793a1 1 0 0 1 .707.293L13.707 5a1 1 0 0 1 .293.707V8h-1V6h-2.5A1.5 1.5 0 0 1 9 4.5V2H3.5Zm6.5.707V4.5a.5.5 0 0 0 .5.5h1.793L10 2.707ZM11 9a1 1 0 0 0-1 1v5a1 1 0 0 0 1 1h4a1 1 0 0 0 1-1v-3.5a.498.498 0 0 0-.14-.347l-.006-.007-2-2-.007-.006A.499.499 0 0 0 13.5 9H11Zm2 1h-2v5h4v-3h-1.5a.5.5 0 0 1-.5-.5V10Zm1.293 1L14 10.707V11h.293Z" clip-rule="evenodd"/></symbol>
  <symbol id="icon-large" fill="none" viewBox="0 0 24 24"><path fill="currentColor" fill-rule="evenodd" d="M5 3.5a.5.5 0 0 1 .5-.5h7v5A1.5 1.5 0 0 0 14 9.5h5V12h1V9.414a1.5 1.5 0 0 0-.44-1.06l-5.914-5.915A1.5 1.5 0 0 0 12.586 2H5.5A1.5 1.5 0 0 0 4 3.5v17A1.5 1.5 0 0 0 5.5 22H13v-1H5.5a.5.5 0 0 1-.5-.5v-17Zm13.293 5L13.5 3.707V8a.5.5 0 0 0 .5.5h4.293ZM16.5 15a.5.5 0 0 0-.5.5v6a.5.5 0 0 0 .5.5h5a.5.5 0 0 0 .5-.5v-3h-2a1.5 1.5 0 0 1-1.5-1.5v-2h-2Zm3 .707V17a.5.5 0 0 0 .5.5h1.293L19.5 15.707ZM15 15.5a1.5 1.5 0 0 1 1.5-1.5H19a.5.5 0 0 1 .354.146l3.5 3.5A.5.5 0 0 1 23 18v3.5a1.5 1.5 0 0 1-1.5 1.5h-5a1.5 1.5 0 0 1-1.5-1.5v-6Z" clip-rule="evenodd"/></symbol>
  <use href="#icon"/>
</svg>
