<svg xmlns="http://www.w3.org/2000/svg">
  <symbol id="icon" fill="none" viewBox="0 0 16 16"><path fill="currentColor" fill-rule="evenodd" d="M2 2.5a.5.5 0 0 1 .5-.5h11a.5.5 0 0 1 .5.5v5.107a.5.5 0 0 1-.134.34L8.5 13.728v-3.54l3.376-3.858a.5.5 0 0 0-.752-.658L8.5 8.669V4.5a.5.5 0 0 0-1 0v4.17l-2.624-3a.5.5 0 1 0-.752.66L7.5 10.187v3.539l-5.366-5.78A.5.5 0 0 1 2 7.608V2.5ZM2.5 1A1.5 1.5 0 0 0 1 2.5v5.107c0 .379.143.744.4 1.021l5.5 5.923a1.5 1.5 0 0 0 2.2 0l5.5-5.923a1.5 1.5 0 0 0 .4-1.02V2.5A1.5 1.5 0 0 0 13.5 1h-11Z" clip-rule="evenodd"/></symbol>
  <symbol id="icon-large" fill="none" viewBox="0 0 24 24"><path fill="currentColor" fill-rule="evenodd" d="M4 4.5a.5.5 0 0 1 .5-.5h15a.5.5 0 0 1 .5.5v7.102a.5.5 0 0 1-.137.344L12.5 19.742v-5.535l4.354-4.353a.5.5 0 0 0-.708-.708L12.5 12.793V7.5a.5.5 0 0 0-1 0v5.293L7.854 9.146a.5.5 0 0 0-.708.708l4.354 4.353v5.535l-7.364-7.796A.5.5 0 0 1 4 11.602V4.5ZM4.5 3A1.5 1.5 0 0 0 3 4.5v7.102c0 .383.147.752.41 1.03l7.5 7.941a1.5 1.5 0 0 0 2.18 0l7.5-7.94a1.5 1.5 0 0 0 .41-1.03V4.5A1.5 1.5 0 0 0 19.5 3h-15Z" clip-rule="evenodd"/></symbol>
  <use href="#icon"/>
</svg>
