<svg xmlns="http://www.w3.org/2000/svg">
  <symbol id="icon" fill="none" viewBox="0 0 16 16"><path fill="currentColor" fill-rule="evenodd" d="M4.61 6.644A3.487 3.487 0 0 1 8 4a3.5 3.5 0 0 1 3.5 3.5.5.5 0 0 0 .5.5 2 2 0 1 1 0 4h-2v1h2a3 3 0 0 0 .476-5.962A4.5 4.5 0 0 0 8 3a4.487 4.487 0 0 0-4.269 3.085A3.501 3.501 0 0 0 4.5 13H6v-1H4.5a2.5 2.5 0 0 1-.313-4.98.5.5 0 0 0 .423-.376Zm3.036 1.002a.5.5 0 0 1 .708 0l2 2a.5.5 0 0 1-.708.708L8.5 9.207V13.5a.5.5 0 0 1-1 0V9.207l-1.146 1.147a.5.5 0 0 1-.708-.708l2-2Z" clip-rule="evenodd"/></symbol>
  <symbol id="icon-large" fill="none" viewBox="0 0 24 24"><path fill="currentColor" fill-rule="evenodd" d="M6.425 8.783a6 6 0 0 1 11.56 1.784.5.5 0 0 0 .443.46 4 4 0 0 1-.444 7.976L15 19l-.002 1 2.984.003a5 5 0 0 0 .959-9.908A7.001 7.001 0 0 0 5.6 8.165a6.002 6.002 0 0 0 .855 11.81.527.527 0 0 0 .04.003l2.5.025.01-1-2.48-.025a5 5 0 0 1-.47-9.889.5.5 0 0 0 .37-.306Zm2.221 6.363 3-3a.5.5 0 0 1 .708 0l3 3a.5.5 0 0 1-.708.708L12.5 13.707V20.5a.5.5 0 0 1-1 0v-6.793l-2.146 2.147a.5.5 0 0 1-.708-.708Z" clip-rule="evenodd"/></symbol>
  <use href="#icon"/>
</svg>
