<svg xmlns="http://www.w3.org/2000/svg">
  <symbol id="icon" fill="none" viewBox="0 0 16 16"><path fill="currentColor" fill-rule="evenodd" d="M7.016 14H2.01a12.46 12.46 0 0 1 .668-3.572l4.666 1.82A7.472 7.472 0 0 0 7.016 14Zm.692-2.684-4.666-1.82a12.515 12.515 0 0 1 2.273-3.474l3.54 3.54a7.51 7.51 0 0 0-1.147 1.754Zm1.854-2.461a7.51 7.51 0 0 1 1.754-1.147l-1.82-4.666a12.515 12.515 0 0 0-3.474 2.273l3.54 3.54Zm.866-6.177 1.82 4.666A7.472 7.472 0 0 1 14 7.016V2.01a12.46 12.46 0 0 0-3.572.668ZM14.5 1C7.044 1 1 7.044 1 14.5a.5.5 0 0 0 .5.5h6a.5.5 0 0 0 .5-.5A6.5 6.5 0 0 1 14.5 8a.5.5 0 0 0 .5-.5v-6a.5.5 0 0 0-.5-.5Z" clip-rule="evenodd"/></symbol>
  <symbol id="icon-large" fill="none" viewBox="0 0 24 24"><path fill="currentColor" fill-rule="evenodd" d="M11.013 20H4.007c.05-1.69.355-3.316.877-4.841l6.491 2.688A9.48 9.48 0 0 0 11.013 20Zm.692-3.098-6.469-2.68a16.515 16.515 0 0 1 3.249-5.03l4.953 4.953a9.503 9.503 0 0 0-1.733 2.757Zm2.44-3.464a9.503 9.503 0 0 1 2.757-1.733l-2.68-6.469a16.514 16.514 0 0 0-5.03 3.249l4.953 4.953Zm1.014-8.554 2.688 6.491c.689-.2 1.41-.323 2.153-.362V4.007c-1.69.05-3.316.355-4.841.877ZM20.5 3C10.835 3 3 10.835 3 20.5a.5.5 0 0 0 .5.5h8a.5.5 0 0 0 .5-.5 8.5 8.5 0 0 1 8.5-8.5.5.5 0 0 0 .5-.5v-8a.5.5 0 0 0-.5-.5Z" clip-rule="evenodd"/></symbol>
  <use href="#icon"/>
</svg>
