<svg xmlns="http://www.w3.org/2000/svg">
  <symbol id="icon" fill="none" viewBox="0 0 16 16"><path fill="currentColor" d="M8 1.5a6.5 6.5 0 1 1 0 13 6.5 6.5 0 0 1 0-13Zm0 1a5.5 5.5 0 1 0 0 11 5.5 5.5 0 0 0 0-11Zm-.75 6.412c1.36 0 2.588.686 3.194 1.858a.5.5 0 0 1-.888.46c-.418-.808-1.282-1.318-2.306-1.318-.96 0-1.78.448-2.223 1.17l-.083.147-.055.086a.5.5 0 0 1-.87-.45l.037-.095.12-.213c.64-1.042 1.8-1.645 3.074-1.645ZM6 7.5a.5.5 0 0 1-1 0V5h1v2.5Zm3.5 0a.5.5 0 0 1-1 0V5h1v2.5Z"/></symbol>
  <symbol id="icon-large" fill="none" viewBox="0 0 24 24"><path fill="currentColor" fill-rule="evenodd" d="M21 12a9 9 0 1 0-18 0 9 9 0 0 0 18 0Zm1 0c0 5.523-4.477 10-10 10S2 17.523 2 12 6.477 2 12 2s10 4.477 10 10Zm-8.444 4.73a.5.5 0 0 0 .888-.46 5 5 0 0 0-8.888 0 .5.5 0 0 0 .888.46 4 4 0 0 1 7.112 0ZM7 8v3.5a.5.5 0 0 0 1 0V8H7Zm5 0v3.5a.5.5 0 0 0 1 0V8h-1Z" clip-rule="evenodd"/></symbol>
  <use href="#icon"/>
</svg>
