<svg xmlns="http://www.w3.org/2000/svg">
  <symbol id="icon" fill="none" viewBox="0 0 16 16"><path fill="currentColor" fill-rule="evenodd" d="M2.5 3a.5.5 0 0 0-.5.5V6h12V3.5a.5.5 0 0 0-.5-.5h-11ZM2 12.5V7h12v5.5a.5.5 0 0 1-.5.5h-11a.5.5 0 0 1-.5-.5Zm-1-9A1.5 1.5 0 0 1 2.5 2h11A1.5 1.5 0 0 1 15 3.5v9a1.5 1.5 0 0 1-1.5 1.5h-11A1.5 1.5 0 0 1 1 12.5v-9Zm5.707 6H10.5a.5.5 0 0 1 0 1H6.707l.647.646a.5.5 0 0 1-.708.708l-1.5-1.5a.5.5 0 0 1 0-.708l1.5-1.5a.5.5 0 1 1 .708.708l-.647.646ZM10.5 4a.5.5 0 0 0 0 1h2a.5.5 0 0 0 0-1h-2Z" clip-rule="evenodd"/></symbol>
  <symbol id="icon-large" fill="none" viewBox="0 0 24 24"><path fill="currentColor" fill-rule="evenodd" d="M3.5 5a.5.5 0 0 0-.5.5V8h18V5.5a.5.5 0 0 0-.5-.5h-17ZM3 18.5V9h18v9.5a.5.5 0 0 1-.5.5h-17a.5.5 0 0 1-.5-.5Zm-1-13A1.5 1.5 0 0 1 3.5 4h17A1.5 1.5 0 0 1 22 5.5v13a1.5 1.5 0 0 1-1.5 1.5h-17A1.5 1.5 0 0 1 2 18.5v-13Zm7.707 8H15.5a.5.5 0 0 1 0 1H9.707l1.647 1.646a.5.5 0 0 1-.708.708l-2.5-2.5a.5.5 0 0 1 0-.708l2.5-2.5a.5.5 0 0 1 .708.708L9.707 13.5ZM17.5 6a.5.5 0 0 0 0 1h2a.5.5 0 0 0 0-1h-2Z" clip-rule="evenodd"/></symbol>
  <use href="#icon"/>
</svg>
