<svg xmlns="http://www.w3.org/2000/svg">
  <symbol id="icon" fill="none" viewBox="0 0 16 16"><path fill="currentColor" d="M8 1.5a6.5 6.5 0 1 1 0 13 6.5 6.5 0 0 1 0-13ZM6.586 7.032a.75.75 0 0 0-1.172 0l-2.048 2.56a1.73 1.73 0 0 1-.486.417 5.5 5.5 0 0 0 10.533-2.977l-2.047 2.56a1.75 1.75 0 0 1-2.732 0l-2.048-2.56ZM8 2.5a5.5 5.5 0 0 0-5.414 6.467l2.048-2.559.137-.154a1.75 1.75 0 0 1 2.595.154l2.048 2.56a.75.75 0 0 0 1.172 0l2.048-2.56.137-.154a1.75 1.75 0 0 1 .347-.266A5.5 5.5 0 0 0 8 2.5Zm2 1.75a.75.75 0 1 1 0 1.5.75.75 0 0 1 0-1.5Z"/></symbol>
  <symbol id="icon-large" fill="none" viewBox="0 0 24 24"><path fill="currentColor" d="M12 2c5.523 0 10 4.477 10 10s-4.477 10-10 10S2 17.523 2 12 6.477 2 12 2Zm8.754 8.96a1 1 0 0 0-1.37-.041l-.074.074-3.282 3.58a2.001 2.001 0 0 1-2.858.093l-.152-.164-2.803-3.363a1.001 1.001 0 0 0-1.506-.037l-3.234 3.53c-.495.54-1.211.74-1.872.606A9.001 9.001 0 0 0 21 12c0-.281-.016-.56-.041-.834l-.205-.205ZM12 3a9 9 0 0 0-8.8 10.887l.063.07a1 1 0 0 0 1.474 0l3.235-3.53a2 2 0 0 1 3.01.071l2.803 3.363.077.082a1 1 0 0 0 1.429-.045l3.282-3.58.15-.15a2.002 2.002 0 0 1 2.002-.38C19.738 5.886 16.207 3 12 3Zm4 4a1 1 0 1 1 0 2 1 1 0 0 1 0-2Z"/></symbol>
  <use href="#icon"/>
</svg>
