<svg xmlns="http://www.w3.org/2000/svg">
  <symbol id="icon" fill="none" viewBox="0 0 16 16"><path fill="currentColor" d="M4.75 8.375a2.875 2.875 0 1 1 0 5.75 2.875 2.875 0 0 1 0-5.75Zm7.75.125A1.5 1.5 0 0 1 14 10v2.5a1.5 1.5 0 0 1-1.5 1.5H10a1.5 1.5 0 0 1-1.5-1.5V10A1.5 1.5 0 0 1 10 8.5h2.5Zm-7.75.875a1.875 1.875 0 1 0 0 3.75 1.875 1.875 0 0 0 0-3.75ZM10 9.5a.5.5 0 0 0-.5.5v2.5a.5.5 0 0 0 .5.5h2.5a.5.5 0 0 0 .5-.5V10a.5.5 0 0 0-.5-.5H10Zm1.25-7.625a2.875 2.875 0 1 1 0 5.75 2.875 2.875 0 0 1 0-5.75ZM6 2a1.5 1.5 0 0 1 1.5 1.5V6A1.5 1.5 0 0 1 6 7.5H3.5A1.5 1.5 0 0 1 2 6V3.5A1.5 1.5 0 0 1 3.5 2H6Zm5.25.875a1.875 1.875 0 1 0 0 3.75 1.875 1.875 0 0 0 0-3.75ZM3.5 3a.5.5 0 0 0-.5.5V6a.5.5 0 0 0 .5.5H6a.5.5 0 0 0 .5-.5V3.5A.5.5 0 0 0 6 3H3.5Z"/></symbol>
  <symbol id="icon-large" fill="none" viewBox="0 0 24 24"><path fill="currentColor" d="M7 12.75a4.25 4.25 0 1 1 0 8.5 4.25 4.25 0 0 1 0-8.5Zm12.5.25a1.5 1.5 0 0 1 1.5 1.5v5a1.5 1.5 0 0 1-1.5 1.5h-5a1.5 1.5 0 0 1-1.5-1.5v-5a1.5 1.5 0 0 1 1.5-1.5h5ZM7 13.75a3.25 3.25 0 1 0 0 6.5 3.25 3.25 0 0 0 0-6.5Zm7.5.25a.5.5 0 0 0-.5.5v5a.5.5 0 0 0 .5.5h5a.5.5 0 0 0 .5-.5v-5a.5.5 0 0 0-.5-.5h-5ZM17 2.75a4.25 4.25 0 1 1 0 8.5 4.25 4.25 0 0 1 0-8.5ZM9.5 3A1.5 1.5 0 0 1 11 4.5v5A1.5 1.5 0 0 1 9.5 11h-5A1.5 1.5 0 0 1 3 9.5v-5A1.5 1.5 0 0 1 4.5 3h5Zm7.5.75a3.25 3.25 0 1 0 0 6.5 3.25 3.25 0 0 0 0-6.5ZM4.5 4a.5.5 0 0 0-.5.5v5a.5.5 0 0 0 .5.5h5a.5.5 0 0 0 .5-.5v-5a.5.5 0 0 0-.5-.5h-5Z"/></symbol>
  <use href="#icon"/>
</svg>
