<svg xmlns="http://www.w3.org/2000/svg">
  <symbol id="icon" fill="none" viewBox="0 0 16 16"><path fill="currentColor" fill-rule="evenodd" d="M12 3.5a.5.5 0 0 0-.5-.5h-9a.5.5 0 0 0-.5.5v9c0 .278.223.5.497.5h9.59a1.495 1.495 0 0 1-.087-.5v-9Zm1 9a.5.5 0 0 0 1 0v-8a.5.5 0 0 1 1 0v8a1.5 1.5 0 0 1-1.5 1.5H2.497C1.667 14 1 13.326 1 12.5v-9A1.5 1.5 0 0 1 2.5 2h9A1.5 1.5 0 0 1 13 3.5v9ZM10.5 10a.5.5 0 1 1 0 1h-7a.5.5 0 1 1 0-1h7Zm.5-5.5a.5.5 0 0 0-.5-.5h-7a.5.5 0 0 0-.49.4L3 4.5v4a.5.5 0 0 0 .5.5h7a.5.5 0 0 0 .5-.5v-4ZM10 8H4V5h6v3Z" clip-rule="evenodd"/></symbol>
  <symbol id="icon-large" fill="none" viewBox="0 0 24 24"><path fill="currentColor" fill-rule="evenodd" d="M19 5.5a.5.5 0 0 0-.5-.5h-15a.5.5 0 0 0-.5.5v13a.5.5 0 0 0 .5.5h15.587a1.495 1.495 0 0 1-.087-.5v-13Zm1 13a.5.5 0 0 0 1 0v-11a.5.5 0 0 1 1 0v11a1.5 1.5 0 0 1-1.5 1.5h-17A1.5 1.5 0 0 1 2 18.5v-13A1.5 1.5 0 0 1 3.5 4h15A1.5 1.5 0 0 1 20 5.5v13ZM16.5 15a.5.5 0 0 1 0 1h-11a.5.5 0 0 1 0-1h11Zm.5-7.5a.5.5 0 0 0-.5-.5h-11a.5.5 0 0 0-.49.4L5 7.5v5a.5.5 0 0 0 .5.5h11a.5.5 0 0 0 .5-.5v-5ZM16 12H6V8h10v4Z" clip-rule="evenodd"/></symbol>
  <use href="#icon"/>
</svg>
