<svg xmlns="http://www.w3.org/2000/svg">
  <symbol id="icon" fill="none" viewBox="0 0 16 16"><path fill="currentColor" d="M9.5 2A1.5 1.5 0 0 1 11 3.5V5h1.5A1.5 1.5 0 0 1 14 6.5v6a1.5 1.5 0 0 1-1.5 1.5h-6A1.5 1.5 0 0 1 5 12.5V11H3.5A1.5 1.5 0 0 1 2 9.5v-6A1.5 1.5 0 0 1 3.5 2h6ZM11 9.5A1.5 1.5 0 0 1 9.5 11H6v1.5a.5.5 0 0 0 .5.5h6a.5.5 0 0 0 .5-.5v-6a.5.5 0 0 0-.5-.5H11v3.5ZM6.5 6a.5.5 0 0 0-.5.5V10h3.5a.5.5 0 0 0 .5-.5V6H6.5Zm-3-3a.5.5 0 0 0-.5.5v6a.5.5 0 0 0 .5.5H5V6.5A1.5 1.5 0 0 1 6.5 5H10V3.5a.5.5 0 0 0-.5-.5h-6Z"/></symbol>
  <symbol id="icon-large" fill="none" viewBox="0 0 24 24"><path fill="currentColor" d="M14.5 3A1.5 1.5 0 0 1 16 4.5V8h3.5A1.5 1.5 0 0 1 21 9.5v10a1.5 1.5 0 0 1-1.5 1.5h-10A1.5 1.5 0 0 1 8 19.5V16H4.5A1.5 1.5 0 0 1 3 14.5v-10A1.5 1.5 0 0 1 4.5 3h10ZM16 14.5a1.5 1.5 0 0 1-1.5 1.5H9v3.5a.5.5 0 0 0 .5.5h10a.5.5 0 0 0 .5-.5v-10a.5.5 0 0 0-.5-.5H16v5.5ZM9.5 9a.5.5 0 0 0-.5.5V15h5.5a.5.5 0 0 0 .5-.5V9H9.5Zm-5-5a.5.5 0 0 0-.5.5v10a.5.5 0 0 0 .5.5H8V9.5A1.5 1.5 0 0 1 9.5 8H15V4.5a.5.5 0 0 0-.5-.5h-10Z"/></symbol>
  <use href="#icon"/>
</svg>
