<svg xmlns="http://www.w3.org/2000/svg">
  <symbol id="icon" fill="none" viewBox="0 0 16 16"><path fill="currentColor" d="M13.438 5.02a1.66 1.66 0 1 1-2.88.002L11.995 2.5l1.444 2.52Z" opacity=".48"/><path fill="currentColor" d="M6.5 2a.5.5 0 0 1 .47.33l4 11 .025.098a.5.5 0 0 1-.921.334l-.044-.091L8.877 10.5H4.123l-1.154 3.17a.5.5 0 0 1-.939-.34l4-11 .032-.072A.5.5 0 0 1 6.5 2ZM4.486 9.5h4.027L6.5 3.962 4.486 9.5ZM11.995 2c.18 0 .345.096.434.252l1.443 2.519a2.16 2.16 0 0 1-3.39 2.61l-.17-.19a2.16 2.16 0 0 1-.19-2.416l1.44-2.523.035-.056A.501.501 0 0 1 11.995 2ZM10.99 5.27a1.16 1.16 0 0 0 .101 1.297l.092.102a1.159 1.159 0 0 0 1.82-1.401l-1.008-1.761L10.99 5.27Z"/></symbol>
  <symbol id="icon-large" fill="none" viewBox="0 0 24 24"><path fill="currentColor" d="M20.888 6.485a3.059 3.059 0 1 1-4.776 0L18.5 3.5l2.388 2.985Z" opacity=".48"/><path fill="currentColor" d="M10 3a.5.5 0 0 1 .457.298l7.5 17 .032.097a.5.5 0 0 1-.896.395l-.05-.088-2.543-5.765V15H5.473l-2.516 5.702a.5.5 0 0 1-.914-.404l7.5-17 .034-.065A.5.5 0 0 1 10 3ZM5.914 14h8.172L10 4.737 5.914 14ZM18.5 3a.5.5 0 0 1 .39.188l2.39 2.985a3.56 3.56 0 1 1-5.56 0l2.39-2.986.08-.079A.5.5 0 0 1 18.5 3Zm-1.998 3.798a2.558 2.558 0 1 0 3.996 0L18.5 4.3l-1.998 2.498Z"/></symbol>
  <use href="#icon"/>
</svg>
