<svg xmlns="http://www.w3.org/2000/svg">
  <symbol id="icon" fill="none" viewBox="0 0 16 16"><path fill="currentColor" d="M10.537 2.371c.89-.619 2.068-.472 2.816.275.747.748.894 1.927.275 2.817-.67.964-1.705 2.35-2.78 3.395-.855.832-1.671 1.246-2.291 1.45-.227.074-.426.12-.589.148.019.133.032.268.032.405V11a3 3 0 0 1-3 3H2.5a.5.5 0 0 1-.353-.854l.19-.189a.415.415 0 0 0 .117-.339l-.16-1.44a2.862 2.862 0 0 1 3.25-3.147 4.16 4.16 0 0 1 .149-.589c.203-.62.617-1.436 1.448-2.29 1.046-1.076 2.432-2.11 3.396-2.78ZM5.14 9c-1.11 0-1.973.965-1.85 2.067l.16 1.44c.018.168.005.334-.034.493H5a2 2 0 0 0 2-2v-.139A1.862 1.862 0 0 0 5.14 9Zm1.844-2c-.161.284-.27.54-.341.755a2.99 2.99 0 0 0-.13.562l-.003.033c.481.263.878.66 1.14 1.14l.034-.003a2.99 2.99 0 0 0 .562-.13c.216-.07.471-.18.755-.341V9a2 2 0 0 0-2-2h-.017Zm5.663-3.646c-.425-.425-1.068-.489-1.538-.162-.95.661-2.272 1.652-3.25 2.657-.073.075-.141.15-.206.223a3 3 0 0 1 2.274 2.276c.074-.066.15-.133.225-.206 1.005-.978 1.995-2.3 2.656-3.25.327-.47.263-1.114-.161-1.538Z"/></symbol>
  <symbol id="icon-large" fill="none" viewBox="0 0 24 24"><path fill="currentColor" fill-rule="evenodd" d="M20.633 2.469a2.693 2.693 0 0 1 .436.035l.027.006h.006l.006.002h.005l.004.002h.003l-.09.367.091-.366c.18.044.32.185.364.364l-.181.045.181-.044.001.003.001.004.001.005.001.006.002.006a2.69 2.69 0 0 1 .04.463c0 .286-.036.689-.173 1.2-.272 1.022-.939 2.462-2.478 4.258-1.522 1.775-2.919 3.046-3.94 3.875-.51.415-.926.72-1.217.922l-.042.029A5.5 5.5 0 0 1 8.5 21h-7a.5.5 0 0 1 0-1.001c.11 0 .26-.054.445-.263.188-.21.374-.538.536-.974.325-.87.519-2.058.519-3.263a5.5 5.5 0 0 1 7.35-5.181l.028-.042c.202-.29.507-.707.922-1.217.829-1.021 2.1-2.418 3.875-3.94 1.796-1.54 3.236-2.206 4.259-2.478.51-.137.913-.173 1.199-.173Zm-6.323 9.456c-.433.351-.792.617-1.058.805a5.528 5.528 0 0 0-1.982-1.982c.188-.266.454-.625.805-1.058.174-.213.368-.445.584-.691.063.005.155.02.272.055.274.083.704.288 1.216.8.51.511.715.941.798 1.216.036.116.05.208.056.271-.246.216-.478.41-.691.584Zm.543-2.778c-.53-.532-1.026-.825-1.435-.982a32.017 32.017 0 0 1 2.407-2.285c1.704-1.46 3.014-2.044 3.866-2.272.358-.095.638-.128.836-.136-.008.198-.04.478-.135.837-.228.852-.812 2.162-2.272 3.866a32.088 32.088 0 0 1-2.285 2.408c-.157-.41-.45-.905-.982-1.436ZM8.5 11a4.5 4.5 0 1 1 0 9H2.99c.166-.264.308-.566.428-.888C3.793 18.107 4 16.795 4 15.5A4.5 4.5 0 0 1 8.5 11Zm3 4a.5.5 0 0 0-.5.5v.001c0 .006 0 .016-.002.031a2.603 2.603 0 0 1-.153.667c-.158.42-.475.953-1.122 1.385-.37.247-.894.377-1.492.428-.59.05-1.196.02-1.7-.011a.5.5 0 0 0-.061.998c.505.03 1.176.066 1.846.009.663-.057 1.385-.208 1.961-.592a3.854 3.854 0 0 0 1.503-1.865 3.61 3.61 0 0 0 .216-.95l.003-.06a.23.23 0 0 1 0-.008l.001-.02V15.5l-.5-.001h.5a.5.5 0 0 0-.5-.5Z" clip-rule="evenodd"/></symbol>
  <use href="#icon"/>
</svg>
