<svg xmlns="http://www.w3.org/2000/svg">
  <symbol id="icon" fill="none" viewBox="0 0 16 16"><path fill="currentColor" d="M12.5 2a1.5 1.5 0 1 1-1.413 2H5.25a1.75 1.75 0 1 0 0 3.5h5.5a2.75 2.75 0 1 1 0 5.5H4.913a1.5 1.5 0 1 1 0-1h5.837a1.75 1.75 0 1 0 0-3.5h-5.5a2.75 2.75 0 0 1 0-5.5h5.837A1.5 1.5 0 0 1 12.5 2Zm-9 10a.5.5 0 1 0 0 1 .5.5 0 0 0 0-1Zm9-9a.5.5 0 1 0 0 1 .5.5 0 0 0 0-1Z"/></symbol>
  <symbol id="icon-large" fill="none" viewBox="0 0 24 24"><path fill="currentColor" fill-rule="evenodd" d="M20 5a1 1 0 1 0-2 0 1 1 0 0 0 2 0Zm1 0a2 2 0 1 1-4 0 2 2 0 0 1 4 0Zm-2 10.5a3 3 0 0 0-3-3H8a4 4 0 0 1 0-8h8v1H8a3 3 0 0 0 0 6h8a4 4 0 0 1 0 8H8v-1h8a3 3 0 0 0 3-3ZM5 18a1 1 0 1 1 0 2 1 1 0 0 1 0-2Zm0 3a2 2 0 1 0 0-4 2 2 0 0 0 0 4Z" clip-rule="evenodd"/></symbol>
  <use href="#icon"/>
</svg>
