<svg xmlns="http://www.w3.org/2000/svg">
  <symbol id="icon" fill="none" viewBox="0 0 16 16"><path fill="currentColor" fill-rule="evenodd" d="M5.5 4a4 4 0 1 0 0 8h5a4 4 0 0 0 0-8h-5Zm-5 4a5 5 0 0 1 5-5h5a5 5 0 0 1 0 10h-5a5 5 0 0 1-5-5ZM5 6a.5.5 0 0 1 .5.5v1h1a.5.5 0 0 1 0 1h-1v1a.5.5 0 1 1-1 0v-1h-1a.5.5 0 0 1 0-1h1v-1A.5.5 0 0 1 5 6Zm5 2a1 1 0 1 1 2 0 1 1 0 0 1-2 0Zm1-2a2 2 0 1 0 0 4 2 2 0 0 0 0-4Z" clip-rule="evenodd"/></symbol>
  <symbol id="icon-large" fill="none" viewBox="0 0 24 24"><path fill="currentColor" fill-rule="evenodd" d="M8 6a6 6 0 1 0 0 12h8a6 6 0 0 0 0-12H8Zm-7 6a7 7 0 0 1 7-7h8a7 7 0 1 1 0 14H8a7 7 0 0 1-7-7Zm6.5-2.5a.5.5 0 0 1 .5.5v1.5h1.5a.5.5 0 0 1 0 1H8V14a.5.5 0 0 1-1 0v-1.5H5.5a.5.5 0 0 1 0-1H7V10a.5.5 0 0 1 .5-.5ZM15 12a1.5 1.5 0 1 1 3 0 1.5 1.5 0 0 1-3 0Zm1.5-2.5a2.5 2.5 0 1 0 0 5 2.5 2.5 0 0 0 0-5Z" clip-rule="evenodd"/></symbol>
  <use href="#icon"/>
</svg>
