<svg xmlns="http://www.w3.org/2000/svg">
  <symbol id="icon" fill="none" viewBox="0 0 16 16"><path fill="currentColor" fill-rule="evenodd" d="M7.5 1.5a1 1 0 0 0-.745 1.667.5.5 0 0 1-.373.833H3.5a.5.5 0 0 0-.5.5v2.063A2.002 2.002 0 0 1 5.5 8.5 2 2 0 0 1 3 10.437V12.5a.5.5 0 0 0 .5.5h2.063A2.002 2.002 0 0 1 7.5 10.5 2 2 0 0 1 9.437 13H11.5a.5.5 0 0 0 .5-.5V9.618a.5.5 0 0 1 .834-.373 1 1 0 1 0 0-1.491.5.5 0 0 1-.834-.372V4.5a.5.5 0 0 0-.5-.5H8.618a.5.5 0 0 1-.373-.833A1 1 0 0 0 7.5 1.5Zm-2 1a2 2 0 1 1 3.937.5H11.5A1.5 1.5 0 0 1 13 4.5v2.063A2.002 2.002 0 0 1 15.5 8.5a2 2 0 0 1-2.5 1.937V12.5a1.5 1.5 0 0 1-1.5 1.5H8.618a.5.5 0 0 1-.373-.834 1 1 0 1 0-1.491 0 .5.5 0 0 1-.372.834H3.5A1.5 1.5 0 0 1 2 12.5V9.618a.5.5 0 0 1 .833-.373 1 1 0 1 0 0-1.491A.5.5 0 0 1 2 7.383V4.5A1.5 1.5 0 0 1 3.5 3h2.063a2.002 2.002 0 0 1-.063-.5Z" clip-rule="evenodd"/></symbol>
  <symbol id="icon-large" fill="none" viewBox="0 0 24 24"><path fill="currentColor" fill-rule="evenodd" d="M2 13a2 2 0 0 0 3.2 1.6.5.5 0 0 1 .8.4v4.5a.5.5 0 0 0 .5.5h3.67a3 3 0 1 1 5.658 0H19.5a.5.5 0 0 0 .5-.5v-3.67a3 3 0 1 1 0-5.658V6.499a.5.5 0 0 0-.5-.5H15a.5.5 0 0 1-.4-.8 2 2 0 1 0-3.2 0 .5.5 0 0 1-.4.8H6.5a.5.5 0 0 0-.5.5V11a.5.5 0 0 1-.8.4A2 2 0 0 0 2 13Zm2 3a3 3 0 1 1 1-5.83V6.5A1.5 1.5 0 0 1 6.5 5h3.67a3 3 0 1 1 5.658 0H19.5A1.5 1.5 0 0 1 21 6.5V11a.5.5 0 0 1-.8.4 2 2 0 1 0 0 3.2.5.5 0 0 1 .8.4v4.5a1.5 1.5 0 0 1-1.5 1.5H15a.5.5 0 0 1-.4-.8 2 2 0 1 0-3.2 0 .5.5 0 0 1-.4.8H6.5A1.5 1.5 0 0 1 5 19.5v-3.67c-.313.11-.65.17-1 .17Z" clip-rule="evenodd"/></symbol>
  <use href="#icon"/>
</svg>
