<svg xmlns="http://www.w3.org/2000/svg">
  <symbol id="icon" fill="none" viewBox="0 0 16 16"><path fill="currentColor" fill-rule="evenodd" d="M12.354 1.646a.5.5 0 1 0-.707.708L13.293 4H6a5 5 0 0 0 0 10h5.5a.5.5 0 1 0 0-1H6a4 4 0 1 1 0-8h7.293l-1.646 1.646a.5.5 0 1 0 .707.708l2.5-2.5a.5.5 0 0 0 0-.708l-2.5-2.5Z" clip-rule="evenodd"/></symbol>
  <symbol id="icon-large" fill="none" viewBox="0 0 24 24"><path fill="currentColor" fill-rule="evenodd" d="M17.854 2.146a.5.5 0 0 0-.708.708L19.293 5H10a7 7 0 0 0 0 14h5.5a.5.5 0 0 0 0-1H10a6 6 0 0 1 0-12h9.293l-2.147 2.146a.5.5 0 0 0 .708.708l3-3a.5.5 0 0 0 0-.708l-3-3Z" clip-rule="evenodd"/></symbol>
  <use href="#icon"/>
</svg>
