<svg xmlns="http://www.w3.org/2000/svg">
  <symbol id="icon" fill="none" viewBox="0 0 16 16"><path fill="currentColor" fill-rule="evenodd" d="M1.5 1a.5.5 0 0 1 .5.5V14h12.5a.5.5 0 0 1 0 1h-13a.5.5 0 0 1-.5-.5v-13a.5.5 0 0 1 .5-.5ZM13 5.707 9.354 9.354a.5.5 0 0 1-.708 0L7 7.707l-3.146 3.147a.5.5 0 0 1-.708-.708l3.5-3.5a.5.5 0 0 1 .708 0L9 8.293 12.293 5H11a.5.5 0 0 1 0-1h2.5a.5.5 0 0 1 .5.5V7a.5.5 0 0 1-1 0V5.707Z" clip-rule="evenodd"/></symbol>
  <symbol id="icon-large" fill="none" viewBox="0 0 24 24"><path fill="currentColor" fill-rule="evenodd" d="M2.5 4a.5.5 0 0 1 .5.5v14a.5.5 0 0 0 .5.5h18a.5.5 0 0 1 0 1h-18A1.5 1.5 0 0 1 2 18.5v-14a.5.5 0 0 1 .5-.5ZM19 7.707V10.5a.5.5 0 0 0 1 0v-4a.5.5 0 0 0-.5-.5h-4a.5.5 0 0 0 0 1h2.793L13 12.293l-1.646-1.647a.5.5 0 0 0-.708 0l-5.5 5.5a.5.5 0 0 0 .708.708L11 11.707l1.646 1.647a.5.5 0 0 0 .708 0L19 7.707Z" clip-rule="evenodd"/></symbol>
  <use href="#icon"/>
</svg>
