<svg xmlns="http://www.w3.org/2000/svg">
  <symbol id="icon" fill="none" viewBox="0 0 16 16"><path fill="currentColor" fill-rule="evenodd" d="M5.5 4.5a2.5 2.5 0 1 1 5 0 2.5 2.5 0 0 1-5 0ZM8 1a3.5 3.5 0 1 0 0 7 3.5 3.5 0 0 0 0-7ZM2.765 13.524C3.575 11.217 5.643 9.5 8 9.5s4.425 1.717 5.235 4.024a.312.312 0 0 1-.054.311.46.46 0 0 1-.361.165H3.18a.46.46 0 0 1-.361-.165.312.312 0 0 1-.054-.311ZM8 8.5c-2.861 0-5.256 2.066-6.178 4.692-.34.97.464 1.808 1.358 1.808h9.64c.894 0 1.698-.838 1.358-1.808C13.256 10.566 10.861 8.5 8 8.5Z" clip-rule="evenodd"/></symbol>
  <symbol id="icon-large" fill="none" viewBox="0 0 24 24"><path fill="currentColor" fill-rule="evenodd" d="M9 7a3 3 0 1 1 6 0 3 3 0 0 1-6 0Zm3-4a4 4 0 1 0 0 8 4 4 0 0 0 0-8ZM4.717 19.497C5.49 15.713 8.047 13 12 13c3.952 0 6.51 2.713 7.283 6.497.05.242-.142.503-.455.503H5.172c-.313 0-.504-.261-.455-.503ZM12 12c-4.54 0-7.42 3.168-8.262 7.297-.19.925.555 1.703 1.434 1.703h13.656c.88 0 1.623-.778 1.434-1.703C19.42 15.168 16.54 12 12 12Z" clip-rule="evenodd"/></symbol>
  <use href="#icon"/>
</svg>
