<svg xmlns="http://www.w3.org/2000/svg">
  <symbol id="icon" fill="none" viewBox="0 0 16 16"><path fill="currentColor" fill-rule="evenodd" d="M8.5 1.5a.5.5 0 0 0-1 0v4.793L6.354 5.146a.5.5 0 1 0-.708.708l2 2a.5.5 0 0 0 .708 0l2-2a.5.5 0 0 0-.708-.708L8.5 6.293V1.5ZM2 3.5a.5.5 0 0 1 .5-.5H5V2H2.5A1.5 1.5 0 0 0 1 3.5v7A1.5 1.5 0 0 0 2.5 12h5v1h-2a.5.5 0 0 0 0 1h5a.5.5 0 0 0 0-1h-2v-1h5a1.5 1.5 0 0 0 1.5-1.5v-7A1.5 1.5 0 0 0 13.5 2H11v1h2.5a.5.5 0 0 1 .5.5V9H2V3.5ZM2 10v.5a.5.5 0 0 0 .5.5h11a.5.5 0 0 0 .5-.5V10H2Z" clip-rule="evenodd"/></symbol>
  <symbol id="icon-large" fill="none" viewBox="0 0 24 24"><path fill="currentColor" fill-rule="evenodd" d="M12.5 3.5a.5.5 0 0 0-1 0v6.793L9.354 8.146a.5.5 0 1 0-.708.708l3 3a.5.5 0 0 0 .351.146h.006a.5.5 0 0 0 .35-.146l3-3a.5.5 0 0 0-.707-.708L12.5 10.293V3.5ZM3 5.5a.5.5 0 0 1 .5-.5H8V4H3.5A1.5 1.5 0 0 0 2 5.5v11A1.5 1.5 0 0 0 3.5 18H9v2h-.5a.5.5 0 0 0 0 1h7a.5.5 0 0 0 0-1H15v-2h5.5a1.5 1.5 0 0 0 1.5-1.5v-11A1.5 1.5 0 0 0 20.5 4H16v1h4.5a.5.5 0 0 1 .5.5V14H3V5.5ZM3 15v1.5a.5.5 0 0 0 .5.5h17a.5.5 0 0 0 .5-.5V15H3Zm7 3v2h4v-2h-4Z" clip-rule="evenodd"/></symbol>
  <use href="#icon"/>
</svg>
