<svg xmlns="http://www.w3.org/2000/svg">
  <symbol id="icon" fill="none" viewBox="0 0 16 16"><path fill="currentColor" d="M1.5 2a.5.5 0 0 1 .5.5v11a.5.5 0 0 1-1 0v-11a.5.5 0 0 1 .5-.5Zm13 0a.5.5 0 0 1 .5.5v11a.5.5 0 0 1-1 0V8.012a.5.5 0 0 1-.082.264l-.065.078-1.5 1.5a.5.5 0 0 1-.707-.707l.647-.647H11.5a.5.5 0 0 1 0-1h.793l-.647-.646-.064-.078a.5.5 0 0 1 .693-.694l.078.065 1.5 1.5.065.078a.5.5 0 0 1 .082.263V2.5a.5.5 0 0 1 .5-.5ZM3.646 6.147a.5.5 0 1 1 .707.707l-.646.646H4.5a.5.5 0 0 1 0 1h-.793l.646.647.065.078a.5.5 0 0 1-.694.693l-.078-.064-1.5-1.5a.5.5 0 0 1 0-.707l1.5-1.5ZM7 7.5a.5.5 0 0 1 0 1h-.5a.5.5 0 0 1 0-1H7Zm2.5 0a.5.5 0 0 1 0 1H9a.5.5 0 0 1 0-1h.5Z"/></symbol>
  <symbol id="icon-large" fill="none" viewBox="0 0 24 24"><path fill="currentColor" d="M2.5 4a.5.5 0 0 1 .5.5v15a.5.5 0 0 1-1 0v-15a.5.5 0 0 1 .5-.5Zm19 0a.5.5 0 0 1 .5.5v15a.5.5 0 0 1-1 0v-15a.5.5 0 0 1 .5-.5Zm-3.354 5.647a.5.5 0 0 1 .63-.065l.078.065 2 2 .064.078a.5.5 0 0 1-.064.629l-2 2a.5.5 0 1 1-.707-.707l1.146-1.147H17.5a.5.5 0 0 1 0-1h1.793l-1.146-1.146-.065-.079a.5.5 0 0 1 .064-.628Zm-12.92-.065a.5.5 0 0 1 .693.693l-.064.079L4.707 11.5H6.5a.5.5 0 0 1 0 1H4.707l1.147 1.147.064.078a.5.5 0 0 1-.693.693l-.079-.064-2-2a.5.5 0 0 1 0-.707l2-2 .079-.065ZM9.5 11.5a.5.5 0 0 1 0 1h-1a.5.5 0 0 1 0-1h1Zm3 0a.5.5 0 0 1 0 1h-1a.5.5 0 0 1 0-1h1Zm3 0a.5.5 0 0 1 0 1h-1a.5.5 0 0 1 0-1h1Z"/></symbol>
  <use href="#icon"/>
</svg>
