<svg xmlns="http://www.w3.org/2000/svg">
  <symbol id="icon" fill="none" viewBox="0 0 16 16"><path fill="currentColor" d="M13.5 9.5a.5.5 0 0 1 .5.5v3.5a.5.5 0 0 1-1 0V12H3v1.5a.5.5 0 0 1-1 0V10a.5.5 0 0 1 1 0v1h10v-1a.5.5 0 0 1 .5-.5ZM2.5 7a.5.5 0 0 1 .5.5V8a.5.5 0 0 1-1 0v-.5a.5.5 0 0 1 .5-.5Zm8.147-2.354a.5.5 0 0 1 .707 0l1.5 1.5a.5.5 0 0 1 0 .707l-1.5 1.5a.5.5 0 0 1-.707-.707L11.293 7H4.708l.646.646a.5.5 0 0 1-.707.707l-1.5-1.5a.5.5 0 0 1 0-.707l1.5-1.5a.5.5 0 0 1 .707.707L4.708 6h6.585l-.646-.647a.5.5 0 0 1 0-.707ZM13.501 7a.5.5 0 0 1 .5.5V8a.5.5 0 0 1-1 0v-.5a.5.5 0 0 1 .5-.5Zm-11-2.5A.5.5 0 0 1 3 5v.5a.5.5 0 0 1-1 0V5a.5.5 0 0 1 .5-.5Zm11 0a.5.5 0 0 1 .5.5v.5a.5.5 0 0 1-1 0V5a.5.5 0 0 1 .5-.5ZM2.5 2a.5.5 0 0 1 .5.5V3a.5.5 0 0 1-1 0v-.5a.5.5 0 0 1 .5-.5Zm11 0a.5.5 0 0 1 .5.5V3a.5.5 0 0 1-1 0v-.5a.5.5 0 0 1 .5-.5Z"/></symbol>
  <symbol id="icon-large" fill="none" viewBox="0 0 24 24"><path fill="currentColor" d="M20.5 13.5a.5.5 0 0 1 .5.5v6.5a.5.5 0 0 1-1 0V16H4v4.5a.5.5 0 0 1-1 0V14a.5.5 0 0 1 1 0v1h16v-1a.5.5 0 0 1 .5-.5ZM3.5 10a.5.5 0 0 1 .5.5V12a.5.5 0 0 1-1 0v-1.5a.5.5 0 0 1 .5-.5Zm17 0a.5.5 0 0 1 .5.5V12a.5.5 0 0 1-1 0v-1.5a.5.5 0 0 1 .5-.5Zm-4.354-4.353a.5.5 0 0 1 .707 0l2 2a.5.5 0 0 1 0 .707l-2 2a.5.5 0 0 1-.707-.707L17.293 8.5H6.707l1.146 1.147a.5.5 0 1 1-.707.707l-2-2a.5.5 0 0 1 0-.707l2-2a.5.5 0 0 1 .707.707L6.707 7.5h10.586l-1.147-1.146a.5.5 0 0 1 0-.707ZM3.5 6.5A.5.5 0 0 1 4 7v1.5a.5.5 0 0 1-1 0V7a.5.5 0 0 1 .5-.5Zm17 0a.5.5 0 0 1 .5.5v1.5a.5.5 0 0 1-1 0V7a.5.5 0 0 1 .5-.5ZM3.5 3a.5.5 0 0 1 .5.5V5a.5.5 0 0 1-1 0V3.5a.5.5 0 0 1 .5-.5Zm17 0a.5.5 0 0 1 .5.5V5a.5.5 0 0 1-1 0V3.5a.5.5 0 0 1 .5-.5Z"/></symbol>
  <use href="#icon"/>
</svg>
