<svg xmlns="http://www.w3.org/2000/svg">
  <symbol id="icon" fill="none" viewBox="0 0 16 16"><path fill="currentColor" fill-rule="evenodd" d="M1.5 14.25V1.75a.25.25 0 0 1 .25-.25H14.5v6.25a.25.25 0 0 1-.25.25H14V2H2v12h6v.25a.25.25 0 0 1-.25.25h-6a.25.25 0 0 1-.25-.25ZM3 13V3h10v4H7v6H3Z" clip-rule="evenodd" opacity=".3"/><path fill="currentColor" fill-rule="evenodd" d="M2.5 2a.5.5 0 0 0-.5.5v11a.5.5 0 0 0 .5.5h5a.5.5 0 0 0 .5-.5v-5a.5.5 0 0 1 .5-.5h5a.5.5 0 0 0 .5-.5v-5a.5.5 0 0 0-.5-.5h-11ZM1 2.5A1.5 1.5 0 0 1 2.5 1h11A1.5 1.5 0 0 1 15 2.5v5A1.5 1.5 0 0 1 13.5 9H9v4.5A1.5 1.5 0 0 1 7.5 15h-5A1.5 1.5 0 0 1 1 13.5v-11Z" clip-rule="evenodd"/></symbol>
  <symbol id="icon-large" fill="none" viewBox="0 0 24 24"><path fill="currentColor" fill-rule="evenodd" d="M3.5 3.5v17H12v-1a.5.5 0 0 1-.5.5h-7a.5.5 0 0 1-.5-.5v-15a.5.5 0 0 1 .5-.5h15a.5.5 0 0 1 .5.5v7a.5.5 0 0 1-.5.5h1V3.5h-17ZM5 19V5h14v6h-7.5a.5.5 0 0 0-.5.5V19H5Z" clip-rule="evenodd" opacity=".3"/><path fill="currentColor" fill-rule="evenodd" d="M4.5 4a.5.5 0 0 0-.5.5v15a.5.5 0 0 0 .5.5h7a.5.5 0 0 0 .5-.5v-7a.5.5 0 0 1 .5-.5h7a.5.5 0 0 0 .5-.5v-7a.5.5 0 0 0-.5-.5h-15ZM3 4.5A1.5 1.5 0 0 1 4.5 3h15A1.5 1.5 0 0 1 21 4.5v7a1.5 1.5 0 0 1-1.5 1.5H13v6.5a1.5 1.5 0 0 1-1.5 1.5h-7A1.5 1.5 0 0 1 3 19.5v-15Z" clip-rule="evenodd"/></symbol>
  <use href="#icon"/>
</svg>
