<svg xmlns="http://www.w3.org/2000/svg">
  <symbol id="icon" fill="none" viewBox="0 0 16 16"><path fill="currentColor" fill-rule="evenodd" d="M10.491 1.87a.778.778 0 0 0-.964-.8l-.11.034c-.366.145-.97.423-1.321.846-.263.317-.42.76-.513 1.124l-.074.33a.78.78 0 0 0 1.06.88l.312-.134c.341-.159.748-.394 1.01-.71.35-.424.512-1.069.586-1.456l.014-.114Zm-1.626.718c.11-.132.304-.258.524-.372-.071.238-.159.453-.268.584-.11.132-.304.258-.524.372.07-.238.16-.453.268-.584Zm2.244 1.924c-.69-.153-1.304.076-1.786.27l-.137.056c-.456.186-.807.328-1.186.329-.38 0-.731-.143-1.187-.327l-.136-.055c-.482-.194-1.094-.421-1.782-.274-1.353.29-2.16 1.144-2.54 2.23-.368 1.055-.334 2.312-.095 3.484.24 1.179.699 2.329 1.237 3.195.27.433.57.812.887 1.09.31.27.693.49 1.116.49.484 0 .961-.142 1.358-.26l.035-.011c.435-.13.782-.228 1.107-.228.319 0 .658.105 1.097.242l.005.002c.406.126.91.283 1.426.255.592-.033 1.07-.36 1.43-.744.36-.384.647-.869.867-1.323a10.075 10.075 0 0 0 .618-1.652l.031-.116.005-.022.003-.01.004-.012v-.001L13 11l.486.119a.5.5 0 0 0-.188-.52c-.85-.631-1.257-1.358-1.307-2.053-.047-.648.21-1.36.88-2.045l.138-.137a.5.5 0 0 0 .062-.658L13 5.628l-.004-.003-.01-.01-.017-.014a6.634 6.634 0 0 0-.57-.447c-.332-.235-.817-.536-1.291-.642Zm2.19 6.087-.3.4.001.002.298-.402ZM9.696 5.71c.486-.196.836-.3 1.194-.221.267.06.616.258.932.482l.079.058.028.021c-.672.786-1.002 1.671-.937 2.57.07.957.58 1.842 1.434 2.563a9.087 9.087 0 0 1-.503 1.316c-.197.41-.432.793-.695 1.074-.265.281-.518.415-.757.429-.306.016-.64-.077-1.073-.211l-.068-.021c-.384-.121-.855-.268-1.33-.268-.488 0-.969.143-1.368.262l-.026.008c-.435.13-.781.23-1.107.23-.076 0-.23-.046-.459-.245-.22-.191-.459-.484-.695-.864-.471-.758-.888-1.796-1.106-2.867-.22-1.077-.227-2.133.06-2.953.276-.79.825-1.373 1.805-1.583.36-.077.713.028 1.2.223l.143.06c.426.174.964.395 1.552.395.588 0 1.125-.222 1.55-.397l.147-.06Z" clip-rule="evenodd"/></symbol>
  <symbol id="icon-large" fill="none" viewBox="0 0 24 24"><path fill="currentColor" fill-rule="evenodd" d="M15.113 3.466a.918.918 0 0 0-1.14-.946l-.128.042c-.55.218-1.403.614-1.884 1.195-.361.435-.582 1.056-.717 1.585l-.11.486a.92.92 0 0 0 1.253 1.039l.459-.197c.494-.23 1.064-.563 1.425-.998.48-.58.714-1.491.826-2.072l.016-.134Zm-2.382.93c.279-.337.838-.635 1.352-.85-.116.546-.303 1.151-.582 1.488-.28.337-.839.632-1.353.847.115-.545.303-1.15.583-1.486Zm3.377 2.616c-.963-.214-1.696.107-2.313.408l-.147.072C13.083 7.769 12.614 8 12 8c-.616 0-1.086-.23-1.652-.507a60.935 60.935 0 0 0-.143-.07c-.616-.298-1.347-.618-2.31-.411-1.926.412-3.061 1.57-3.586 3.065-.512 1.46-.432 3.207-.045 4.85.388 1.65 1.099 3.254 1.917 4.456.408.6.854 1.117 1.314 1.488.452.365.968.629 1.505.629.75 0 1.29-.307 1.723-.552l.023-.013c.446-.252.783-.435 1.254-.435.463 0 .794.191 1.248.457h.001c.44.258.998.585 1.778.542.789-.044 1.459-.458 1.998-.979.541-.522.992-1.19 1.348-1.828a14.62 14.62 0 0 0 1.085-2.482l.015-.045.003-.012.001-.004-.477-.15.477.148a.5.5 0 0 0-.12-.497l-.058-.052-.244-.186c-1.174-.937-1.744-1.901-1.819-2.828-.078-.982.389-2.073 1.607-3.22a.5.5 0 0 0 .061-.658l-.07-.077-.001-.002-.002-.001-.002-.002-.014-.013a1.274 1.274 0 0 0-.01-.01l-.04-.034a11.098 11.098 0 0 0-.81-.633c-.493-.35-1.187-.776-1.847-.922Zm-1.875 1.306c.588-.286 1.05-.465 1.659-.33.451.1 1.008.424 1.486.763.141.1.27.198.382.285-1.08 1.152-1.62 2.378-1.52 3.627.103 1.292.882 2.476 2.17 3.512a4.556 4.556 0 0 0-.013.036 13.606 13.606 0 0 1-.897 1.994c-.332.594-.726 1.168-1.17 1.596-.443.429-.898.674-1.357.7-.452.025-.776-.148-1.22-.407l-.048-.03c-.422-.247-.963-.564-1.705-.564-.749 0-1.289.306-1.72.55l-.026.015c-.447.253-.783.435-1.254.435-.213 0-.51-.11-.877-.407-.36-.291-.744-.725-1.116-1.273-.745-1.095-1.408-2.585-1.77-4.122-.363-1.544-.41-3.078.016-4.29.413-1.177 1.278-2.082 2.851-2.419.612-.131 1.077.049 1.664.334l.157.077c.545.269 1.216.6 2.075.6.858 0 1.53-.333 2.073-.603l.16-.079Z" clip-rule="evenodd"/></symbol>
  <use href="#icon"/>
</svg>
