<svg xmlns="http://www.w3.org/2000/svg">
  <symbol id="icon" fill="none" viewBox="0 0 16 16"><path fill="currentColor" fill-rule="evenodd" d="M10 2a3 3 0 0 1 3 3 .5.5 0 1 0 1 0 4 4 0 0 0-4-4 3.984 3.984 0 0 0-2.676 1.013A4 4 0 0 0 3 6a.5.5 0 0 0 1 0 3 3 0 0 1 3.43-2.97.5.5 0 0 0 .336-.071l.091-.073A2.976 2.976 0 0 1 10 2Zm.99 8.72V11a.5.5 0 0 0 1 0v-.542a.99.99 0 0 1 .988-.958.97.97 0 0 1 .98.979c-.017.776-.065 1.347-.195 1.908-.129.56-.343 1.13-.713 1.895a.5.5 0 0 0 .9.436c.39-.805.636-1.449.788-2.107.151-.657.203-1.306.22-2.11.025-1.113-.887-2.001-1.98-2.001-.36 0-.697.096-.989.263V4.989a1.99 1.99 0 0 0-3.868-.657 1.988 1.988 0 0 0-3.09 1.655v5.15l-.574-.973A1.848 1.848 0 0 0 1.27 12.04l1.595 2.713a.5.5 0 1 0 .861-.507l-1.594-2.713a.848.848 0 0 1 1.462-.86l1.505 2.55a.5.5 0 0 0 .93-.253V5.988a.988.988 0 1 1 1.977.001L8 10.5a.5.5 0 0 0 1 .002v-.847a.503.503 0 0 0 .009-.094V4.989a.99.99 0 0 1 1.98 0v5.456l-.001.044v.231Z" clip-rule="evenodd"/></symbol>
  <symbol id="icon-large" fill="none" viewBox="0 0 24 24"><path fill="currentColor" fill-rule="evenodd" d="M14 2.5A3.5 3.5 0 0 1 17.5 6a.5.5 0 0 0 1 0 4.5 4.5 0 0 0-7.47-3.381A4.5 4.5 0 0 0 5.5 7a.5.5 0 0 0 1 0 3.5 3.5 0 0 1 4.476-3.363.503.503 0 0 0 .582-.144c.042-.04.084-.08.127-.118A3.485 3.485 0 0 1 14 2.5Zm1.5 11V6a1.5 1.5 0 1 0-3 0v7a.5.5 0 1 1-1 0V7a1.5 1.5 0 1 0-3 0v9.5a.5.5 0 0 1-.929.257l-2.018-3.363a1.319 1.319 0 0 0-2.277 1.333l3.159 5.525a.5.5 0 0 1-.87.496l-3.157-5.525a2.32 2.32 0 0 1 4.002-2.344l1.09 1.816V7a2.5 2.5 0 0 1 4.156-1.872A2.5 2.5 0 0 1 16.5 6v5.5A2.49 2.49 0 0 1 18 11c1.382 0 2.497 1.118 2.542 2.483l.002.058c.079 2.374.143 4.294-1.084 7.156a.501.501 0 0 1-.92-.394c1.14-2.658 1.082-4.393 1.003-6.75l-.001-.036C19.514 12.674 18.827 12 18 12a1.5 1.5 0 0 0-1.5 1.5.5.5 0 1 1-1 0Z" clip-rule="evenodd"/></symbol>
  <use href="#icon"/>
</svg>
