<svg xmlns="http://www.w3.org/2000/svg">
  <symbol id="icon" fill="none" viewBox="0 0 16 16"><path fill="currentColor" fill-rule="evenodd" d="M9 2a.5.5 0 0 0-.79-.407L4.97 3.907A.5.5 0 0 1 4.68 4H2.5A1.5 1.5 0 0 0 1 5.5v5A1.5 1.5 0 0 0 2.5 12h2.18a.5.5 0 0 1 .29.093l3.24 2.314A.5.5 0 0 0 9 14V2ZM5.551 4.72 8 2.973v10.056L5.551 11.28A1.5 1.5 0 0 0 4.68 11H2.5a.5.5 0 0 1-.5-.5v-5a.5.5 0 0 1 .5-.5h2.18a1.5 1.5 0 0 0 .871-.28Zm6.566-2.404a.5.5 0 0 1 .705-.06A7.485 7.485 0 0 1 15.5 8a7.485 7.485 0 0 1-2.678 5.745.5.5 0 1 1-.644-.766A6.485 6.485 0 0 0 14.5 8a6.485 6.485 0 0 0-2.322-4.98.5.5 0 0 1-.06-.704ZM10.271 4.67a.5.5 0 0 1 .706-.044A4.49 4.49 0 0 1 12.5 8a4.49 4.49 0 0 1-1.523 3.375.5.5 0 0 1-.662-.75A3.49 3.49 0 0 0 11.5 8a3.49 3.49 0 0 0-1.185-2.625.5.5 0 0 1-.044-.706Z" clip-rule="evenodd"/></symbol>
  <symbol id="icon-large" fill="none" viewBox="0 0 24 24"><path fill="currentColor" fill-rule="evenodd" d="M13 3.5a.5.5 0 0 0-.762-.426L5.979 6.926A.5.5 0 0 1 5.717 7H2.5A1.5 1.5 0 0 0 1 8.5v7A1.5 1.5 0 0 0 2.5 17h3.217a.5.5 0 0 1 .262.074l6.259 3.852A.5.5 0 0 0 13 20.5v-17ZM6.503 7.777 12 4.395v15.21l-5.497-3.383A1.5 1.5 0 0 0 5.717 16H2.5a.5.5 0 0 1-.5-.5v-7a.5.5 0 0 1 .5-.5h3.217a1.5 1.5 0 0 0 .786-.223Zm12.429-3.45a.5.5 0 0 1 .706-.027A10.473 10.473 0 0 1 23 12c0 3.043-1.295 5.783-3.362 7.7a.5.5 0 1 1-.68-.733A9.473 9.473 0 0 0 22 12a9.473 9.473 0 0 0-3.042-6.967.5.5 0 0 1-.026-.707Zm-3.263 3.33a.5.5 0 0 1 .706.043A6.478 6.478 0 0 1 18 12a6.478 6.478 0 0 1-1.625 4.3.5.5 0 0 1-.75-.662A5.478 5.478 0 0 0 17 12a5.477 5.477 0 0 0-1.375-3.638.5.5 0 0 1 .044-.706Z" clip-rule="evenodd"/></symbol>
  <use href="#icon"/>
</svg>
