<svg xmlns="http://www.w3.org/2000/svg">
  <symbol id="icon" fill="none" viewBox="0 0 16 16"><path fill="currentColor" fill-rule="evenodd" d="M2 2.5a.5.5 0 0 1 .5-.5h3.264a.5.5 0 0 1 .224.053l1.577.789A1.5 1.5 0 0 0 8.236 3H13.5a.5.5 0 0 1 .5.5v1.585A1.498 1.498 0 0 0 13.5 5h-11c-.175 0-.344.03-.5.085V2.5ZM1 7V2.5A1.5 1.5 0 0 1 2.5 1h3.264a1.5 1.5 0 0 1 .67.158l1.578.79A.5.5 0 0 0 8.236 2H13.5A1.5 1.5 0 0 1 15 3.5v10a1.5 1.5 0 0 1-1.5 1.5H11v-1h2.5a.5.5 0 0 0 .5-.5V6.498A.5.5 0 0 0 13.5 6h-11a.5.5 0 0 0-.5.5v7a.5.5 0 0 0 .5.5H5v1H2.5A1.5 1.5 0 0 1 1 13.5V7Zm9.146 3.854L8.5 9.207V14.5a.5.5 0 0 1-1 0V9.207l-1.646 1.647a.5.5 0 0 1-.708-.708l2.5-2.5a.5.5 0 0 1 .708 0l2.5 2.5a.5.5 0 0 1-.708.708Z" clip-rule="evenodd"/></symbol>
  <symbol id="icon-large" fill="none" viewBox="0 0 24 24"><path fill="currentColor" fill-rule="evenodd" d="M3 4.5a.5.5 0 0 1 .5-.5h6.086a.5.5 0 0 1 .353.146l1.415 1.415a1.5 1.5 0 0 0 1.06.439H20.5a.5.5 0 0 1 .5.5v1.585A1.498 1.498 0 0 0 20.5 8h-17c-.175 0-.344.03-.5.085V4.5Zm-1 5v-5A1.5 1.5 0 0 1 3.5 3h6.086a1.5 1.5 0 0 1 1.06.44l1.415 1.414a.5.5 0 0 0 .353.146H20.5A1.5 1.5 0 0 1 22 6.5v13a1.5 1.5 0 0 1-1.5 1.5H16v-1h4.5a.5.5 0 0 0 .5-.5v-10a.5.5 0 0 0-.5-.5h-17a.5.5 0 0 0-.5.5v10a.5.5 0 0 0 .5.5H8v1H3.5A1.5 1.5 0 0 1 2 19.5v-10Zm12.146 6.854L12.5 14.707V20.5a.5.5 0 0 1-1 0v-5.793l-1.646 1.647a.5.5 0 0 1-.708-.708l2.5-2.5a.5.5 0 0 1 .708 0l2.5 2.5a.5.5 0 0 1-.708.708Z" clip-rule="evenodd"/></symbol>
  <use href="#icon"/>
</svg>
