<svg xmlns="http://www.w3.org/2000/svg">
  <symbol id="icon" fill="none" viewBox="0 0 16 16"><path fill="currentColor" fill-rule="evenodd" d="M1.5 14.25V1.75a.25.25 0 0 1 .25-.25H14.5v6.25a.25.25 0 0 1-.25.25H14V2H2v12h6v.25a.25.25 0 0 1-.25.25h-6a.25.25 0 0 1-.25-.25ZM3 13V3h10v4H7v6H3Z" clip-rule="evenodd" opacity=".3"/><path fill="currentColor" fill-rule="evenodd" d="M2 2.5a.5.5 0 0 1 .5-.5h11a.5.5 0 0 1 .5.5v5a.5.5 0 0 1-.5.5h-5a.5.5 0 0 0-.5.5v5a.5.5 0 0 1-.5.5h-5a.5.5 0 0 1-.5-.5v-11ZM2.5 1A1.5 1.5 0 0 0 1 2.5v11A1.5 1.5 0 0 0 2.5 15h5A1.5 1.5 0 0 0 9 13.5V9h4.5A1.5 1.5 0 0 0 15 7.5v-5A1.5 1.5 0 0 0 13.5 1h-11Zm7.5 9.5a.5.5 0 0 1 .5-.5H13a.5.5 0 0 1 0 1h-1.293l3.147 3.146a.5.5 0 0 1-.708.708L11 11.707V13a.5.5 0 0 1-1 0v-2.5Z" clip-rule="evenodd"/></symbol>
  <symbol id="icon-large" fill="none" viewBox="0 0 24 24"><path fill="currentColor" fill-rule="evenodd" d="M3.5 3.5v17H12v-1a.5.5 0 0 1-.5.5h-7a.5.5 0 0 1-.5-.5v-15a.5.5 0 0 1 .5-.5h15a.5.5 0 0 1 .5.5v7a.5.5 0 0 1-.5.5h1V3.5h-17ZM5 19V5h14v6h-7.5a.5.5 0 0 0-.5.5V19H5Z" clip-rule="evenodd" opacity=".3"/><path fill="currentColor" fill-rule="evenodd" d="M4 4.5a.5.5 0 0 1 .5-.5h15a.5.5 0 0 1 .5.5v7a.5.5 0 0 1-.5.5h-7a.5.5 0 0 0-.5.5v7a.5.5 0 0 1-.5.5h-7a.5.5 0 0 1-.5-.5v-15ZM4.5 3A1.5 1.5 0 0 0 3 4.5v15A1.5 1.5 0 0 0 4.5 21h7a1.5 1.5 0 0 0 1.5-1.5V13h6.5a1.5 1.5 0 0 0 1.5-1.5v-7A1.5 1.5 0 0 0 19.5 3h-15ZM15 15.5a.5.5 0 0 1 .5-.5h4a.5.5 0 0 1 0 1h-2.793l4.147 4.146a.5.5 0 0 1-.708.708L16 16.707V19.5a.5.5 0 0 1-1 0v-4Z" clip-rule="evenodd"/></symbol>
  <use href="#icon"/>
</svg>
