<svg xmlns="http://www.w3.org/2000/svg">
  <symbol id="icon" fill="none" viewBox="0 0 16 16"><path fill="currentColor" fill-rule="evenodd" d="M2 1.5a.5.5 0 0 0-1 0v13a.5.5 0 0 0 1 0V4h5.5v10.5a.5.5 0 0 0 1 0V4H14v10.5a.5.5 0 0 0 1 0v-13a.5.5 0 0 0-1 0V3H8.5V1.5a.5.5 0 0 0-1 0V3H2V1.5Z" clip-rule="evenodd"/></symbol>
  <symbol id="icon-large" fill="none" viewBox="0 0 24 24"><path fill="currentColor" fill-rule="evenodd" d="M4 3.5a.5.5 0 0 0-1 0v17a.5.5 0 0 0 1 0V8h7.5v12.5a.5.5 0 0 0 1 0V8H20v12.5a.5.5 0 0 0 1 0v-17a.5.5 0 0 0-1 0V7h-7.5V3.5a.5.5 0 0 0-1 0V7H4V3.5Z" clip-rule="evenodd"/></symbol>
  <use href="#icon"/>
</svg>
