<svg xmlns="http://www.w3.org/2000/svg">
  <symbol id="icon" fill="none" viewBox="0 0 16 16"><path fill="currentColor" fill-rule="evenodd" d="M2.5 3a.5.5 0 0 0-.5.5v9a.5.5 0 0 0 .5.5h11a.5.5 0 0 0 .5-.5v-9a.5.5 0 0 0-.5-.5h-11ZM1 3.5A1.5 1.5 0 0 1 2.5 2h11A1.5 1.5 0 0 1 15 3.5v9a1.5 1.5 0 0 1-1.5 1.5h-11A1.5 1.5 0 0 1 1 12.5v-9Zm2 1a.5.5 0 0 1 .5-.5h9a.5.5 0 0 1 .5.5v7a.5.5 0 0 1-.5.5h-9a.5.5 0 0 1-.5-.5v-7Zm1 5.978L7.186 8 4 5.522v4.956ZM4.957 5 8 7.367 11.043 5H4.957ZM12 5.522 8.814 8 12 10.478V5.522ZM11.043 11 8 8.633 4.957 11h6.086Z" clip-rule="evenodd"/></symbol>
  <symbol id="icon-large" fill="none" viewBox="0 0 24 24"><path fill="currentColor" fill-rule="evenodd" d="M3.5 5a.5.5 0 0 0-.5.5v13a.5.5 0 0 0 .5.5h17a.5.5 0 0 0 .5-.5v-13a.5.5 0 0 0-.5-.5h-17ZM2 5.5A1.5 1.5 0 0 1 3.5 4h17A1.5 1.5 0 0 1 22 5.5v13a1.5 1.5 0 0 1-1.5 1.5h-17A1.5 1.5 0 0 1 2 18.5v-13Zm3 2a.5.5 0 0 1 .5-.5h13a.5.5 0 0 1 .5.5v9a.5.5 0 0 1-.5.5h-13a.5.5 0 0 1-.5-.5v-9Zm1 8.046L11.122 12 6 8.454v7.092ZM7.1 8l4.9 3.392L16.9 8H7.1Zm10.9.454L12.878 12 18 15.546V8.454ZM16.9 16 12 12.608 7.1 16h9.8Z" clip-rule="evenodd"/></symbol>
  <use href="#icon"/>
</svg>
