<svg xmlns="http://www.w3.org/2000/svg">
  <symbol id="icon" fill="none" viewBox="0 0 16 16"><path fill="currentColor" fill-rule="evenodd" d="M3.5 2a.5.5 0 0 0-.5.5v11.445l4.367-3.573a1 1 0 0 1 1.266 0L13 13.945V2.5a.5.5 0 0 0-.5-.5h-9ZM2 2.5A1.5 1.5 0 0 1 3.5 1h9A1.5 1.5 0 0 1 14 2.5v11.445a1 1 0 0 1-1.633.774L8 11.146l-4.367 3.573A1 1 0 0 1 2 13.945V2.5Z" clip-rule="evenodd"/></symbol>
  <symbol id="icon-large" fill="none" viewBox="0 0 24 24"><path fill="currentColor" fill-rule="evenodd" d="M6.5 3A1.5 1.5 0 0 0 5 4.5v16.131a.5.5 0 0 0 .777.416l5.39-3.593a1.5 1.5 0 0 1 1.665 0l5.39 3.593a.5.5 0 0 0 .778-.416V4.5A1.5 1.5 0 0 0 17.5 3h-11ZM4 4.5A2.5 2.5 0 0 1 6.5 2h11A2.5 2.5 0 0 1 20 4.5v16.131c0 1.198-1.335 1.913-2.332 1.249l-5.39-3.594a.5.5 0 0 0-.555 0L6.332 21.88C5.335 22.544 4 21.83 4 20.632V4.5Z" clip-rule="evenodd"/></symbol>
  <use href="#icon"/>
</svg>
