<svg xmlns="http://www.w3.org/2000/svg">
  <symbol id="icon" fill="currentColor" viewBox="0 0 16 16"><path fill-rule="evenodd" d="M6 4a2 2 0 1 1 4 0v3H4.5A1.5 1.5 0 0 0 3 8.5v4A1.5 1.5 0 0 0 4.5 14h7a1.5 1.5 0 0 0 1.5-1.5v-4A1.5 1.5 0 0 0 11.5 7H11V4a3 3 0 0 0-6 0v.5a.5.5 0 0 0 1 0V4ZM4 8.5a.5.5 0 0 1 .5-.5h7a.5.5 0 0 1 .5.5v4a.5.5 0 0 1-.5.5h-7a.5.5 0 0 1-.5-.5v-4Z" clip-rule="evenodd"/></symbol>
  <symbol id="icon-large" fill="currentColor" viewBox="0 0 24 24"><path d="M11 13a1 1 0 1 1 1.5.866V16.5a.5.5 0 0 1-1 0v-2.634A1 1 0 0 1 11 13Z"/><path fill-rule="evenodd" d="M9 5a3 3 0 1 1 6 0v3H6.5A2.5 2.5 0 0 0 4 10.5v8A2.5 2.5 0 0 0 6.5 21h11a2.5 2.5 0 0 0 2.5-2.5v-8A2.5 2.5 0 0 0 17.5 8H16V5a4 4 0 0 0-8 0v.5a.5.5 0 0 0 1 0V5Zm-4 5.5A1.5 1.5 0 0 1 6.5 9h11a1.5 1.5 0 0 1 1.5 1.5v8a1.5 1.5 0 0 1-1.5 1.5h-11A1.5 1.5 0 0 1 5 18.5v-8Z" clip-rule="evenodd"/></symbol>
  <use href="#icon"/>
</svg>
