<svg xmlns="http://www.w3.org/2000/svg">
  <symbol id="icon" fill="none" viewBox="0 0 16 16"><path fill="currentColor" d="m8.5 12.792.647-.646a.5.5 0 0 1 .707.707l-1.5 1.5a.5.5 0 0 1-.707 0l-1.5-1.5-.065-.078a.5.5 0 0 1 .694-.693l.078.064.646.647V11h1v1.792ZM9 5.5A1.5 1.5 0 0 1 10.5 7v2A1.5 1.5 0 0 1 9 10.5H7A1.5 1.5 0 0 1 5.5 9V7A1.5 1.5 0 0 1 7 5.5h2Zm3.147.646a.5.5 0 0 1 .628-.064l.079.064 1.5 1.5a.5.5 0 0 1 0 .707l-1.5 1.5a.5.5 0 1 1-.707-.707l.646-.646H11v-1h1.793l-.646-.647-.065-.078a.5.5 0 0 1 .065-.629Zm-9 0a.5.5 0 0 1 .707.707l-.647.647H5v1H3.207l.647.646.064.078a.5.5 0 0 1-.693.694l-.078-.065-1.5-1.5a.5.5 0 0 1 0-.707l1.5-1.5ZM7 6.5a.5.5 0 0 0-.5.5v2a.5.5 0 0 0 .5.5h2a.5.5 0 0 0 .5-.5V7a.5.5 0 0 0-.5-.5H7Zm.725-4.918a.501.501 0 0 1 .629.064l1.5 1.5.064.078a.5.5 0 0 1-.693.694l-.078-.065-.647-.646L8.501 5h-1V3.206l-.647.647a.5.5 0 1 1-.707-.707l1.5-1.5.078-.064Z"/></symbol>
  <symbol id="icon-large" fill="none" viewBox="0 0 24 24"><path fill="currentColor" fill-rule="evenodd" d="M12.354 2.146a.5.5 0 0 0-.63-.064l-.078.064-3 3a.5.5 0 1 0 .708.708L11.5 3.707V8h-2A1.5 1.5 0 0 0 8 9.5v2H3.707l2.147-2.146a.5.5 0 1 0-.708-.708l-3 3a.5.5 0 0 0 0 .707l3 3a.5.5 0 1 0 .708-.707L3.707 12.5H8v2A1.5 1.5 0 0 0 9.5 16h2v4.293l-2.146-2.146a.5.5 0 1 0-.708.707l3 3a.5.5 0 0 0 .707 0l3-3a.5.5 0 1 0-.707-.707L12.5 20.293V16h2a1.5 1.5 0 0 0 1.5-1.5v-2h4.293l-2.146 2.146a.5.5 0 1 0 .707.707l3-3a.5.5 0 0 0 0-.707l-3-3a.5.5 0 1 0-.707.708l2.146 2.146H16v-2A1.5 1.5 0 0 0 14.5 8h-2V3.707l2.146 2.147a.5.5 0 1 0 .707-.708l-3-3ZM15 9.5a.5.5 0 0 0-.5-.5h-5a.5.5 0 0 0-.5.5v5a.5.5 0 0 0 .5.5h5a.5.5 0 0 0 .5-.5v-5Z" clip-rule="evenodd"/></symbol>
  <use href="#icon"/>
</svg>
