<svg xmlns="http://www.w3.org/2000/svg">
  <symbol id="icon" fill="none" viewBox="0 0 16 16"><path fill="currentColor" d="M8 1.5a6.5 6.5 0 1 1 0 13 6.5 6.5 0 0 1 0-13Zm0 1a5.5 5.5 0 1 0 0 11 5.5 5.5 0 0 0 0-11ZM8 4a.5.5 0 0 1 .5.5V5h1.25a.5.5 0 0 1 0 1H7a.5.5 0 0 0-.5.5V7a.5.5 0 0 0 .5.5h2A1.5 1.5 0 0 1 10.5 9v.5A1.5 1.5 0 0 1 9 11h-.5v.5a.5.5 0 0 1-1 0V11H6.25a.5.5 0 0 1 0-1H9a.5.5 0 0 0 .5-.5V9a.5.5 0 0 0-.5-.5H7A1.5 1.5 0 0 1 5.5 7v-.5A1.5 1.5 0 0 1 7 5h.5v-.5A.5.5 0 0 1 8 4Z"/></symbol>
  <symbol id="icon-large" fill="none" viewBox="0 0 24 24"><path fill="currentColor" d="M12 2c5.523 0 10 4.477 10 10s-4.477 10-10 10S2 17.523 2 12 6.477 2 12 2Zm0 1a9 9 0 1 0 0 18 9 9 0 0 0 0-18Zm0 3a.5.5 0 0 1 .5.5V8H15a.5.5 0 0 1 0 1h-2.5v2.5h1.25a2.25 2.25 0 0 1 0 4.5H12.5v1.5a.5.5 0 0 1-1 0V16H9a.5.5 0 0 1 0-1h2.5v-2.5h-1.25a2.25 2.25 0 0 1 0-4.5h1.25V6.5A.5.5 0 0 1 12 6Zm.5 9h1.25a1.25 1.25 0 1 0 0-2.5H12.5V15Zm-2.25-6a1.25 1.25 0 1 0 0 2.5h1.25V9h-1.25Z"/></symbol>
  <use href="#icon"/>
</svg>
