<svg xmlns="http://www.w3.org/2000/svg">
  <symbol id="icon" fill="none" viewBox="0 0 16 16"><path fill="currentColor" d="M7.048 2.232c.414-.73 1.49-.73 1.904 0l.078.167 1.247 3.324 3.325 1.247c.892.335.947 1.54.167 1.982l-.167.079-3.325 1.246-1.247 3.325c-.334.892-1.539.947-1.982.167l-.078-.167-1.247-3.325L2.399 9.03c-.952-.357-.952-1.704 0-2.061l3.324-1.247L6.97 2.399l.078-.167Zm1.046.518a.1.1 0 0 0-.188 0L6.5 6.5 2.75 7.906a.1.1 0 0 0 0 .188L6.5 9.5l1.406 3.75a.1.1 0 0 0 .171.029l.017-.029L9.5 9.5l3.668-1.376.082-.03a.1.1 0 0 0 .028-.17l-.028-.018L9.5 6.5 8.094 2.75Z"/></symbol>
  <symbol id="icon-large" fill="none" viewBox="0 0 24 24"><path fill="currentColor" fill-rule="evenodd" d="M20 2.5a1.5 1.5 0 1 1 0 3 1.5 1.5 0 0 1 0-3Zm0 4a2.5 2.5 0 1 0 0-5 2.5 2.5 0 0 0 0 5Zm-8.908-3.226a1 1 0 0 1 1.816 0l2.469 5.35 5.349 2.468a1 1 0 0 1 0 1.816l-5.349 2.469-2.469 5.349a1 1 0 0 1-1.816 0l-2.469-5.349-5.349-2.469a1 1 0 0 1 0-1.816l5.35-2.469 2.468-5.349Zm-1.56 5.768c-.1.216-.274.39-.49.49L3.693 12l5.349 2.469c.216.1.39.273.49.489L12 20.307l2.469-5.349a1 1 0 0 1 .489-.49L20.307 12l-5.349-2.469c-.216-.1-.39-.273-.49-.489L12 3.693 9.531 9.042ZM19.5 22v-1.5H18a.5.5 0 1 1 0-1h1.5V18a.5.5 0 1 1 1 0v1.5H22a.5.5 0 0 1 0 1h-1.5V22a.5.5 0 0 1-1 0Z" clip-rule="evenodd"/></symbol>
  <use href="#icon"/>
</svg>
