<svg xmlns="http://www.w3.org/2000/svg">
  <symbol id="icon" fill="none" viewBox="0 0 16 16"><path fill="currentColor" d="M12.956 1.987a1 1 0 0 1 1.086 1.086l-.06.654a4.503 4.503 0 0 1-1.343 2.82l-.606.589 1.173 4.768a1.5 1.5 0 0 1-.395 1.418l-.65.65a1 1 0 0 1-1.547-.163l-2.046-3.165-.538.533.177 1.24a.998.998 0 0 1-.283.848l-.717.717a1.5 1.5 0 0 1-2.46-.523l-.607-1.578-1.577-.605a1.5 1.5 0 0 1-.523-2.46l.718-.718a1 1 0 0 1 .848-.283l1.24.176.536-.533L2.22 5.415a1 1 0 0 1-.164-1.547l.652-.653a1.5 1.5 0 0 1 1.41-.397l4.73 1.13.66-.641A4.502 4.502 0 0 1 12.24 2.05l.716-.064Zm-.626 1.06a3.503 3.503 0 0 0-2.125.977l-.856.835a.501.501 0 0 1-.466.127L3.885 3.789a.5.5 0 0 0-.469.133l-.653.653 3.683 2.381a.502.502 0 0 1 .08.775l-1.15 1.146a.5.5 0 0 1-.425.14l-1.486-.212-.718.718a.5.5 0 0 0 .174.82l1.785.686.094.047a.5.5 0 0 1 .193.24L5.68 13.1a.5.5 0 0 0 .82.174l.718-.717-.212-1.487a.5.5 0 0 1 .143-.425L8.3 9.5l.088-.07a.5.5 0 0 1 .684.152l2.381 3.684.65-.65a.501.501 0 0 0 .133-.473l-1.244-5.045a.501.501 0 0 1 .137-.479l.813-.79a3.503 3.503 0 0 0 1.045-2.193l.06-.654-.717.065Z"/></symbol>
  <symbol id="icon-large" fill="none" viewBox="0 0 24 24"><path fill="currentColor" d="M7.055 16.802a.5.5 0 0 1 .194.24l1.216 3.16a.5.5 0 0 0 .82.173l1.563-1.563-.318-2.227a.501.501 0 0 1 .142-.425l2.12-2.121a.5.5 0 0 1 .761.063l4.618 6.464a.5.5 0 0 0 .76.063l.85-.85a.5.5 0 0 0 .12-.511l-2.986-8.96a.5.5 0 0 1 .12-.512l2.866-2.865a3.5 3.5 0 0 0 1.01-2.158l.168-1.849-1.849.169a3.5 3.5 0 0 0-2.158 1.01l-2.865 2.865a.5.5 0 0 1-.512.12l-8.96-2.986a.5.5 0 0 0-.511.121l-.85.85a.5.5 0 0 0 .064.76l6.464 4.617a.5.5 0 0 1 .062.76l-2.12 2.122a.5.5 0 0 1-.426.141l-2.227-.318-1.563 1.564a.5.5 0 0 0 .174.82l3.16 1.215.093.048Zm10.907-6.518 2.888 8.667a1.5 1.5 0 0 1-.363 1.535l-.849.85a1.5 1.5 0 0 1-2.281-.19l-4.274-5.983-1.527 1.527.318 2.228a.501.501 0 0 1-.142.424l-1.74 1.74a1.5 1.5 0 0 1-2.461-.522l-1.135-2.952-2.953-1.136a1.5 1.5 0 0 1-.522-2.46l1.74-1.74a.5.5 0 0 1 .425-.142l2.228.317 1.526-1.526-5.983-4.274a1.5 1.5 0 0 1-.19-2.282l.85-.85a1.5 1.5 0 0 1 1.535-.362l8.667 2.889 2.646-2.646a4.5 4.5 0 0 1 2.775-1.3l1.849-.168a1 1 0 0 1 1.087 1.087l-.169 1.849a4.5 4.5 0 0 1-1.3 2.774l-2.645 2.646Z"/></symbol>
  <use href="#icon"/>
</svg>
