<svg xmlns="http://www.w3.org/2000/svg">
  <symbol id="icon" fill="none" viewBox="0 0 16 16"><path fill="currentColor" fill-rule="evenodd" d="M2.5 1a.5.5 0 0 0 0 1H3v10h-.5a.5.5 0 0 0-.447.276l-1 2A.5.5 0 0 0 1.5 15h13a.5.5 0 0 0 .447-.724l-1-2A.5.5 0 0 0 13.5 12H13V2h.5a.5.5 0 0 0 0-1h-11ZM12 2H4v10h2V9.5a.5.5 0 0 1 .5-.5h3a.5.5 0 0 1 .5.5V12h2V2Zm-3 8v2H7v-2h2Zm-6.191 3-.5 1h11.382l-.5-1H2.809ZM5.5 3.5A.5.5 0 0 1 6 3h1a.5.5 0 0 1 0 1H6a.5.5 0 0 1-.5-.5Zm3 0A.5.5 0 0 1 9 3h1a.5.5 0 0 1 0 1H9a.5.5 0 0 1-.5-.5Zm-3 2A.5.5 0 0 1 6 5h1a.5.5 0 0 1 0 1H6a.5.5 0 0 1-.5-.5Zm3 0A.5.5 0 0 1 9 5h1a.5.5 0 0 1 0 1H9a.5.5 0 0 1-.5-.5Zm-3 2A.5.5 0 0 1 6 7h1a.5.5 0 0 1 0 1H6a.5.5 0 0 1-.5-.5Zm3 0A.5.5 0 0 1 9 7h1a.5.5 0 0 1 0 1H9a.5.5 0 0 1-.5-.5Z" clip-rule="evenodd"/></symbol>
  <symbol id="icon-large" fill="none" viewBox="0 0 24 24"><path fill="currentColor" fill-rule="evenodd" d="M4 2.5a.5.5 0 0 1 .5-.5h15a.5.5 0 0 1 0 1H19v15h.5a.5.5 0 0 1 .416.223l2 3A.5.5 0 0 1 21.5 22h-19a.5.5 0 0 1-.416-.777l2-3A.5.5 0 0 1 4.5 18H5V3h-.5a.5.5 0 0 1-.5-.5ZM6 3h12v15h-3v-3.5a.5.5 0 0 0-.5-.5h-5a.5.5 0 0 0-.5.5V18H6V3Zm8 12v3h-1.5v-3H14Zm-2.5 0v3H10v-3h1.5Zm-6.732 4-1.334 2h17.132l-1.334-2H4.768ZM8.5 5a.5.5 0 0 0 0 1h2a.5.5 0 0 0 0-1h-2Zm5 0a.5.5 0 0 0 0 1h2a.5.5 0 0 0 0-1h-2Zm-5 3a.5.5 0 0 0 0 1h2a.5.5 0 0 0 0-1h-2Zm5 0a.5.5 0 0 0 0 1h2a.5.5 0 0 0 0-1h-2Zm-5 3a.5.5 0 0 0 0 1h2a.5.5 0 0 0 0-1h-2Zm5 0a.5.5 0 0 0 0 1h2a.5.5 0 0 0 0-1h-2Z" clip-rule="evenodd"/></symbol>
  <use href="#icon"/>
</svg>
