<svg xmlns="http://www.w3.org/2000/svg">
  <symbol id="icon" fill="none" viewBox="0 0 16 16"><path fill="currentColor" d="M12.5 2A1.5 1.5 0 0 1 14 3.5v9a1.5 1.5 0 0 1-1.5 1.5h-9A1.5 1.5 0 0 1 2 12.5v-9A1.5 1.5 0 0 1 3.5 2h9Zm-.5 8.271a2.915 2.915 0 0 1-4 0 2.915 2.915 0 0 1-4 0c-.29.274-.631.48-1 .616V12.5a.5.5 0 0 0 .5.5h9a.5.5 0 0 0 .5-.5v-1.613a2.912 2.912 0 0 1-1-.616Zm0-4.022a2.914 2.914 0 0 1-4 0 2.914 2.914 0 0 1-4 0c-.29.274-.632.48-1 .614v2.92c.127-.079.246-.17.354-.277l.292-.293a.5.5 0 0 1 .708 0l.292.293a1.914 1.914 0 0 0 2.708 0l.292-.293a.5.5 0 0 1 .708 0l.292.293a1.914 1.914 0 0 0 2.707 0l.293-.293a.5.5 0 0 1 .707 0l.293.293c.108.107.227.198.354.276V6.863a2.911 2.911 0 0 1-1-.614ZM3.5 3a.5.5 0 0 0-.5.5v2.26c.127-.078.246-.17.354-.278l.292-.293a.5.5 0 0 1 .708 0l.292.293a1.914 1.914 0 0 0 2.708 0l.292-.293a.5.5 0 0 1 .708 0l.292.293a1.914 1.914 0 0 0 2.707 0l.293-.293a.5.5 0 0 1 .707 0l.293.293c.108.108.227.2.354.278V3.5a.5.5 0 0 0-.5-.5h-9Z"/></symbol>
  <symbol id="icon-large" fill="none" viewBox="0 0 24 24"><path fill="currentColor" d="M19.5 3A1.5 1.5 0 0 1 21 4.5v15a1.5 1.5 0 0 1-1.5 1.5h-15A1.5 1.5 0 0 1 3 19.5v-15A1.5 1.5 0 0 1 4.5 3h15Zm.5 13.205a2.915 2.915 0 0 1-4 0 2.915 2.915 0 0 1-4 0 2.915 2.915 0 0 1-4 0 2.915 2.915 0 0 1-4 0V19.5a.5.5 0 0 0 .5.5h15a.5.5 0 0 0 .5-.5v-3.295Zm0-4a2.915 2.915 0 0 1-4 0 2.915 2.915 0 0 1-4 0 2.915 2.915 0 0 1-4 0 2.915 2.915 0 0 1-4 0V15a.5.5 0 0 1 .354.146l.292.293a1.914 1.914 0 0 0 2.708 0l.292-.293a.5.5 0 0 1 .708 0l.292.293a1.914 1.914 0 0 0 2.707 0l.293-.293a.5.5 0 0 1 .707 0l.293.293a1.914 1.914 0 0 0 2.707 0l.293-.293a.5.5 0 0 1 .707 0l.293.293a1.914 1.914 0 0 0 2.707 0l.293-.293A.5.5 0 0 1 20 15v-2.795ZM4 11a.5.5 0 0 1 .354.146l.292.293a1.914 1.914 0 0 0 2.708 0l.292-.293a.5.5 0 0 1 .708 0l.292.293a1.914 1.914 0 0 0 2.707 0l.293-.293a.5.5 0 0 1 .707 0l.293.293a1.914 1.914 0 0 0 2.707 0l.293-.293a.5.5 0 0 1 .707 0l.293.293a1.914 1.914 0 0 0 2.707 0l.293-.293A.5.5 0 0 1 20 11V8.205a2.915 2.915 0 0 1-4 0 2.915 2.915 0 0 1-4 0 2.915 2.915 0 0 1-4 0 2.915 2.915 0 0 1-4 0V11Zm.5-7a.5.5 0 0 0-.5.5V7a.5.5 0 0 1 .354.146l.292.293a1.914 1.914 0 0 0 2.708 0l.292-.293a.5.5 0 0 1 .708 0l.292.293a1.914 1.914 0 0 0 2.707 0l.293-.293a.5.5 0 0 1 .707 0l.293.293a1.914 1.914 0 0 0 2.707 0l.293-.293a.5.5 0 0 1 .707 0l.293.293a1.914 1.914 0 0 0 2.707 0l.293-.293A.5.5 0 0 1 20 7V4.5a.5.5 0 0 0-.5-.5h-15Z"/></symbol>
  <use href="#icon"/>
</svg>
