<svg xmlns="http://www.w3.org/2000/svg">
  <symbol id="icon" fill="none" viewBox="0 0 16 16"><path fill="currentColor" fill-rule="evenodd" d="M6.854 4.354a.5.5 0 1 0-.708-.708l-4 4a.5.5 0 0 0 0 .708l4 4a.5.5 0 0 0 .708-.708L3.707 8.5H13.5a.5.5 0 0 0 0-1H3.707l3.147-3.146Z" clip-rule="evenodd"/></symbol>
  <symbol id="icon-large" fill="none" viewBox="0 0 24 24"><path fill="currentColor" fill-rule="evenodd" d="M10.354 5.854a.5.5 0 0 0-.708-.708l-6.5 6.5a.5.5 0 0 0 0 .708l6.5 6.5a.5.5 0 0 0 .708-.708L4.707 12.5H20.5a.5.5 0 0 0 0-1H4.707l5.647-5.646Z" clip-rule="evenodd"/></symbol>
  <use href="#icon"/>
</svg>
