<svg xmlns="http://www.w3.org/2000/svg">
  <symbol id="icon" fill="none" viewBox="0 0 16 16"><path fill="currentColor" d="M8.264 2.593a3 3 0 0 1 4.243 4.243l-4.42 4.419A1.75 1.75 0 1 1 5.613 8.78l4.42-4.419a.5.5 0 1 1 .707.707l-4.42 4.42a.75.75 0 0 0 1.06 1.06l4.42-4.42A2 2 0 0 0 8.972 3.3l-4.42 4.42a3.25 3.25 0 1 0 4.597 4.596l3.005-3.005a.5.5 0 0 1 .707.707l-3.005 3.005a4.25 4.25 0 0 1-6.011-6.01l4.419-4.42Z"/></symbol>
  <symbol id="icon-large" fill="none" viewBox="0 0 24 24"><path fill="currentColor" d="m8.782 13.167 6.364-6.364a.5.5 0 1 1 .707.707L9.49 13.874a1.5 1.5 0 1 0 2.12 2.122l6.365-6.364a3.5 3.5 0 0 0-4.95-4.95l-6.364 6.364a5.5 5.5 0 0 0 7.778 7.778l3.536-3.535a.5.5 0 1 1 .707.707l-3.536 3.535a6.5 6.5 0 1 1-9.192-9.192l6.364-6.364a4.5 4.5 0 0 1 6.364 6.364l-6.364 6.364a2.5 2.5 0 0 1-3.536-3.536Z"/></symbol>
  <use href="#icon"/>
</svg>
