<svg xmlns="http://www.w3.org/2000/svg">
  <symbol id="icon" fill="none" viewBox="0 0 16 16"><path fill="currentColor" fill-rule="evenodd" d="M12.281 2.71a2.45 2.45 0 0 0-3.451 0L4.15 7.362a3.874 3.874 0 0 0 0 5.5 3.927 3.927 0 0 0 5.53 0l2.601-2.585a.503.503 0 0 1 .71 0 .497.497 0 0 1 0 .705L10.39 13.57a4.934 4.934 0 0 1-6.95 0 4.867 4.867 0 0 1 0-6.91l4.68-4.655a3.457 3.457 0 0 1 4.87 0 3.41 3.41 0 0 1 0 4.842L8.31 11.5a1.98 1.98 0 0 1-2.79 0 1.953 1.953 0 0 1 0-2.773l4.68-4.654a.503.503 0 0 1 .71 0 .497.497 0 0 1 0 .705L6.23 9.432a.96.96 0 0 0 0 1.363.973.973 0 0 0 1.37 0l4.681-4.654a2.417 2.417 0 0 0 0-3.432Z" clip-rule="evenodd"/></symbol>
  <symbol id="icon-large" fill="none" viewBox="0 0 24 24"><path fill="currentColor" fill-rule="evenodd" d="M17.975 4.682a3.5 3.5 0 0 0-4.95 0l-6.364 6.364a5.5 5.5 0 0 0 7.778 7.778l3.536-3.535a.5.5 0 1 1 .707.707l-3.536 3.535a6.5 6.5 0 1 1-9.192-9.192l6.364-6.364a4.5 4.5 0 0 1 6.364 6.364l-6.364 6.364a2.5 2.5 0 0 1-3.536-3.536l6.364-6.364a.5.5 0 1 1 .707.707L9.49 13.874a1.5 1.5 0 1 0 2.12 2.122l6.365-6.364a3.5 3.5 0 0 0 0-4.95Z" clip-rule="evenodd"/></symbol>
  <use href="#icon"/>
</svg>
