<svg xmlns="http://www.w3.org/2000/svg">
  <symbol id="icon" fill="none" viewBox="0 0 16 16"><path fill="currentColor" fill-rule="evenodd" d="M3.5 2a.5.5 0 0 0-.5.5v4a.5.5 0 0 1-.5.5H2v2h.5a.5.5 0 0 1 .5.5v4a.5.5 0 0 0 .5.5h7c1.893 0 3.5-1.28 3.5-3 0-1.233-.672-2.523-1.603-3.073a.5.5 0 0 1 .002-.862C13.074 6.67 13.5 5.873 13.5 5c0-1.613-1.386-3-3-3h-7ZM2 2.5A1.5 1.5 0 0 1 3.5 1h7c2.166 0 4 1.834 4 4 0 .935-.361 1.852-1.02 2.49C14.426 8.345 15 9.716 15 11c0 2.437-2.236 4-4.5 4h-7A1.5 1.5 0 0 1 2 13.5V10h-.5a.5.5 0 0 1-.5-.5v-3a.5.5 0 0 1 .5-.5H2V2.5Zm3.5 1.894v1.737h4.553a.869.869 0 0 0 0-1.737H5.5Zm-1-.343c0-.363.294-.657.657-.657h4.896a1.869 1.869 0 0 1 0 3.737H5.157a.657.657 0 0 1-.657-.656V4.05Zm1 7.555V9.869h5.237a.869.869 0 0 1 0 1.737H5.5Zm-.327-2.737a.673.673 0 0 0-.673.673v2.39c0 .372.301.674.673.674h5.564a1.869 1.869 0 0 0 0-3.737H5.173Z" clip-rule="evenodd"/></symbol>
  <symbol id="icon-large" fill="none" viewBox="0 0 24 24"><path fill="currentColor" fill-rule="evenodd" d="M5.5 3a.5.5 0 0 0-.5.5V10a.5.5 0 0 1-.5.5H3v3h1.5a.5.5 0 0 1 .5.5v6.5a.5.5 0 0 0 .5.5H16a5 5 0 0 0 2.543-9.306.5.5 0 0 1-.075-.806A4.493 4.493 0 0 0 20 7.5 4.5 4.5 0 0 0 15.5 3h-10ZM4 3.5A1.5 1.5 0 0 1 5.5 2h10A5.5 5.5 0 0 1 21 7.5a5.491 5.491 0 0 1-1.415 3.688A6 6 0 0 1 16 22H5.5A1.5 1.5 0 0 1 4 20.5v-6H2.5A.5.5 0 0 1 2 14v-4a.5.5 0 0 1 .5-.5H4v-6Zm4.5 3v3H15a1.5 1.5 0 0 0 0-3H8.5Zm-1-.28a.72.72 0 0 1 .72-.72H15a2.5 2.5 0 0 1 0 5H8.22a.72.72 0 0 1-.72-.72V6.22Zm1 11.28v-3H16a1.5 1.5 0 0 1 0 3H8.5Zm-.256-4a.744.744 0 0 0-.744.744v3.512c0 .41.333.744.744.744H16a2.5 2.5 0 0 0 0-5H8.244Z" clip-rule="evenodd"/></symbol>
  <use href="#icon"/>
</svg>
