<svg xmlns="http://www.w3.org/2000/svg">
  <symbol id="icon" fill="none" viewBox="0 0 16 16"><path fill="currentColor" fill-rule="evenodd" d="M7.748 1.726a.5.5 0 0 1 .504 0L13.008 4.5 8 7.421l-5.008-2.92 4.756-2.775ZM2.5 5.37v2.342l5 2.917V8.287l-5-2.916Zm6 2.916v5.844l4.752-2.771a.5.5 0 0 0 .248-.432V5.37l-5 2.916Zm-6 .584 5 2.916v2.342l-4.752-2.771a.5.5 0 0 1-.248-.432V8.87Zm-1 2.055V5.074a1.5 1.5 0 0 1 .744-1.295l5-2.917a1.5 1.5 0 0 1 1.512 0l5 2.917a1.5 1.5 0 0 1 .744 1.295v5.852a1.5 1.5 0 0 1-.744 1.295l-5 2.917a1.5 1.5 0 0 1-1.512 0l-5-2.917a1.5 1.5 0 0 1-.744-1.295Z" clip-rule="evenodd"/></symbol>
  <symbol id="icon-large" fill="none" viewBox="0 0 24 24"><path fill="currentColor" fill-rule="evenodd" d="M11.74 2.245a.5.5 0 0 1 .52 0L20.042 7 12 11.914 3.959 7l7.78-4.755ZM3.5 7.892v3.828l8 4.888V12.78l-8-4.888Zm9 4.888v8.829l7.76-4.743a.5.5 0 0 0 .24-.427V7.892l-8 4.888Zm-9 .112 8 4.888v3.828l-7.76-4.742a.5.5 0 0 1-.24-.427v-3.547Zm9.282-11.5a1.5 1.5 0 0 0-1.564 0l-8 4.889A1.5 1.5 0 0 0 2.5 7.56v8.878a1.5 1.5 0 0 0 .718 1.28l8 4.889a1.5 1.5 0 0 0 1.564 0l8-4.889a1.5 1.5 0 0 0 .718-1.28V7.561a1.5 1.5 0 0 0-.718-1.28l-8-4.889Z" clip-rule="evenodd"/></symbol>
  <use href="#icon"/>
</svg>
