<svg xmlns="http://www.w3.org/2000/svg">
  <symbol id="icon" fill="none" viewBox="0 0 16 16"><path fill="currentColor" d="M7.25 1.855a1.5 1.5 0 0 1 1.5 0l4.196 2.423a1.5 1.5 0 0 1 .75 1.3v4.845a1.5 1.5 0 0 1-.75 1.299L8.75 14.144a1.5 1.5 0 0 1-1.5 0l-4.196-2.422a1.5 1.5 0 0 1-.75-1.3V5.578a1.5 1.5 0 0 1 .75-1.299L7.25 1.855Zm-3.946 8.568a.5.5 0 0 0 .25.432L7.5 13.134v-4.96L3.304 5.753v4.67ZM8.5 8.175v4.959l3.946-2.279a.5.5 0 0 0 .25-.432V5.752L8.5 8.175ZM6.532 6.462 8 7.309l1.466-.847L8 5.582l-1.468.88Zm-2.63-1.519 1.641.948L7.028 5l-1.582-.95-1.545.893ZM8.97 5l1.485.89 1.642-.947-1.546-.892L8.97 5Zm-.72-2.278a.5.5 0 0 0-.5 0l-1.313.756L8 4.417l1.563-.938-1.313-.757Z"/></symbol>
  <symbol id="icon-large" fill="none" viewBox="0 0 24 24"><path fill="currentColor" d="M11.403 1.296a1.5 1.5 0 0 1 1.38.096l8 4.89A1.5 1.5 0 0 1 21.5 7.56v8.878a1.5 1.5 0 0 1-.559 1.168l-.159.112-8 4.89a1.5 1.5 0 0 1-1.379.095l-.185-.096-8-4.89A1.5 1.5 0 0 1 2.5 16.44V7.561a1.5 1.5 0 0 1 .718-1.28l8-4.89.185-.095ZM3.5 16.439a.5.5 0 0 0 .24.427l7.76 4.742V12.78l-8-4.888v8.547Zm9-3.659v8.828l7.76-4.742.053-.038a.5.5 0 0 0 .187-.389V7.892l-8 4.888ZM8.459 9.75 12 11.912l3.54-2.164L12 7.586 8.459 9.749ZM3.958 7 7.5 9.162 11.04 7 7.499 4.835 3.958 6.999Zm9.001 0 3.54 2.163L20.041 7 16.5 4.835 12.959 7Zm-.698-4.755a.5.5 0 0 0-.46-.032l-.062.032L8.458 4.25 12 6.413l3.541-2.164-3.28-2.004Z"/></symbol>
  <use href="#icon"/>
</svg>
