<svg xmlns="http://www.w3.org/2000/svg">
  <symbol id="icon" fill="none" viewBox="0 0 16 16"><path fill="currentColor" d="M9.5 11a1.5 1.5 0 0 1 0 3h-7a1.5 1.5 0 0 1 0-3h7Zm5-3a.5.5 0 0 1 0 1h-1a.5.5 0 0 0-.5.5v3a.5.5 0 0 0 .5.5h1a.5.5 0 0 1 0 1h-1a1.5 1.5 0 0 1-1.5-1.5v-3A1.5 1.5 0 0 1 13.5 8h1Zm-12 4a.5.5 0 0 0 0 1h7a.5.5 0 0 0 0-1h-7Zm7-10a.5.5 0 0 1 .475.342l1 3 .018.078A.5.5 0 0 1 11 5.5v4a.5.5 0 0 1-.5.5h-9a.5.5 0 0 1-.5-.5v-3A1.5 1.5 0 0 1 2.5 5H6V2.5l.01-.1A.5.5 0 0 1 6.5 2h3Zm-7 4a.5.5 0 0 0-.5.5V9h8V6H2.5Zm2 1a.5.5 0 0 1 0 1h-1a.5.5 0 0 1 0-1h1ZM7 5h2.806L9.14 3H7v2Z"/></symbol>
  <symbol id="icon-large" fill="none" viewBox="0 0 24 24"><path fill="currentColor" d="M14 16a2 2 0 0 1 0 4H4a2 2 0 1 1 0-4h10Zm7.5-4a.5.5 0 0 1 0 1h-2a1.5 1.5 0 0 0-1.5 1.5v3l.008.153A1.5 1.5 0 0 0 19.5 19h2a.5.5 0 0 1 0 1h-2a2.5 2.5 0 0 1-2.487-2.245L17 17.5v-3a2.5 2.5 0 0 1 2.5-2.5h2ZM4 17a1 1 0 0 0 0 2h1v-2H4Zm2 2h2.5v-2H6v2Zm3.5 0H12v-2H9.5v2Zm3.5 0h1a1 1 0 0 0 0-2h-1v2Zm1.588-14.993c.2.036.362.19.403.395l1 5L16 9.5v5a.5.5 0 0 1-.5.5h-13a.5.5 0 0 1-.5-.5v-3.75C2 9.782 2.783 9 3.75 9H8V4.5a.5.5 0 0 1 .5-.5h6l.087.007ZM3.75 10a.75.75 0 0 0-.75.75V14h12v-4H3.75Zm3.75 1.5a.5.5 0 0 1 0 1H5a.5.5 0 1 1 0-1h2.5ZM9 9h5.89l-.8-4H9v4Z"/></symbol>
  <use href="#icon"/>
</svg>
