<svg xmlns="http://www.w3.org/2000/svg">
  <symbol id="icon" fill="none" viewBox="0 0 16 16"><path fill="currentColor" d="M8 2.5a4.5 4.5 0 0 1 4.413 3.621A3.5 3.5 0 0 1 11.5 13H5a4 4 0 0 1-1.105-7.845A4.5 4.5 0 0 1 8 2.5Zm0 1a3.5 3.5 0 0 0-3.193 2.065 1 1 0 0 1-.637.551A3.002 3.002 0 0 0 5 12h6.5a2.5 2.5 0 0 0 .652-4.913 1 1 0 0 1-.72-.772A3.501 3.501 0 0 0 8 3.5Z"/></symbol>
  <symbol id="icon-large" fill="none" viewBox="0 0 24 24"><path fill="currentColor" d="M1 14a6.002 6.002 0 0 1 4.6-5.836 7 7 0 0 1 13.34 1.932 5 5 0 0 1-.7 9.901l-.257.006L7 20a6 6 0 0 1-6-6Zm1 0a5 5 0 0 0 5 5l10.983.003.206-.005a4 4 0 0 0 .425-7.945l-.185-.026-.088-.017a.5.5 0 0 1-.357-.444l.5-.035-.5.035a6 6 0 0 0-11.56-1.783l-.027.057a.5.5 0 0 1-.342.249l-.215.047A5.002 5.002 0 0 0 2 14Z"/></symbol>
  <use href="#icon"/>
</svg>
