<svg xmlns="http://www.w3.org/2000/svg">
  <symbol id="icon" fill="none" viewBox="0 0 16 16"><path fill="currentColor" d="M2.146 2.146a.501.501 0 0 1 .629-.064l.078.064 11 11 .065.078a.5.5 0 0 1-.694.694l-.078-.065-11-11-.064-.078a.501.501 0 0 1 .064-.629Zm1.897 4.012A3 3 0 0 0 5 12h4.884l1 1H5a4 4 0 0 1-1.725-7.61l.768.768ZM8 2.5a4.5 4.5 0 0 1 4.413 3.62 3.501 3.501 0 0 1 2.586 3.38c0 .935-.368 1.784-.966 2.412l-.708-.708A2.488 2.488 0 0 0 14 9.5a2.501 2.501 0 0 0-1.848-2.413 1.001 1.001 0 0 1-.72-.772A3.501 3.501 0 0 0 6.15 4.03l-.72-.72A4.477 4.477 0 0 1 8 2.498Z"/></symbol>
  <symbol id="icon-large" fill="none" viewBox="0 0 24 24"><path fill="currentColor" d="M2.146 2.146a.5.5 0 0 1 .63-.064l.078.064 19 19 .064.079a.5.5 0 0 1-.693.693l-.079-.064-19-19-.064-.079a.5.5 0 0 1 .064-.629Zm4.348 6.47a6.012 6.012 0 0 0-.07.167.5.5 0 0 1-.37.306A5 5 0 0 0 7 19l9.882.002 1 1L7 20A6 6 0 0 1 5.6 8.164c.046-.101.093-.202.142-.3l.752.751ZM12 4a7 7 0 0 1 6.94 6.096 5 5 0 0 1 1.7 9.141l.36-.358-.651-.652a4.001 4.001 0 0 0-1.734-7.175l-.186-.025a.5.5 0 0 1-.445-.46 6 6 0 0 0-9.629-4.333l-.712-.713A6.965 6.965 0 0 1 12 4Z"/></symbol>
  <use href="#icon"/>
</svg>
