<svg xmlns="http://www.w3.org/2000/svg">
  <symbol id="icon" fill="none" viewBox="0 0 16 16"><path fill="currentColor" fill-rule="evenodd" d="M6.5 1A1.5 1.5 0 0 0 5 2.5V4h1V2.5a.5.5 0 0 1 .5-.5h7a.5.5 0 0 1 .5.5v7a.5.5 0 0 1-.5.5H12v1h1.5A1.5 1.5 0 0 0 15 9.5v-7A1.5 1.5 0 0 0 13.5 1h-7ZM2 6.5a.5.5 0 0 1 .5-.5h7a.5.5 0 0 1 .5.5v7a.5.5 0 0 1-.5.5h-7a.5.5 0 0 1-.5-.5v-7ZM2.5 5A1.5 1.5 0 0 0 1 6.5v7A1.5 1.5 0 0 0 2.5 15h7a1.5 1.5 0 0 0 1.5-1.5v-7A1.5 1.5 0 0 0 9.5 5h-7Z" clip-rule="evenodd"/></symbol>
  <symbol id="icon-large" fill="none" viewBox="0 0 24 24"><path fill="currentColor" fill-rule="evenodd" d="M9.5 2A1.5 1.5 0 0 0 8 3.5V6h1V3.5a.5.5 0 0 1 .5-.5h11a.5.5 0 0 1 .5.5v11a.5.5 0 0 1-.5.5H18v1h2.5a1.5 1.5 0 0 0 1.5-1.5v-11A1.5 1.5 0 0 0 20.5 2h-11ZM3 9.5a.5.5 0 0 1 .5-.5h11a.5.5 0 0 1 .5.5v11a.5.5 0 0 1-.5.5h-11a.5.5 0 0 1-.5-.5v-11ZM3.5 8A1.5 1.5 0 0 0 2 9.5v11A1.5 1.5 0 0 0 3.5 22h11a1.5 1.5 0 0 0 1.5-1.5v-11A1.5 1.5 0 0 0 14.5 8h-11Z" clip-rule="evenodd"/></symbol>
  <use href="#icon"/>
</svg>
