<svg xmlns="http://www.w3.org/2000/svg">
  <symbol id="icon" fill="none" viewBox="0 0 16 16"><path fill="currentColor" d="M2.303 3.276a2.177 2.177 0 0 1 2.92-.973l.244.122a2.45 2.45 0 0 1 1.33 2.537l-.25 1.752L8 7.441l5.777-2.888a.5.5 0 0 1 .447.894L6.546 9.285l.25 1.753a2.45 2.45 0 0 1-1.33 2.537l-.242.122a2.177 2.177 0 0 1-1.947-3.894L6.882 8 3.277 6.197a2.177 2.177 0 0 1-.974-2.92Zm1.42 7.421a1.177 1.177 0 1 0 1.054 2.106l.243-.122a1.45 1.45 0 0 0 .787-1.501l-.204-1.423-1.88.94Zm5.83-1.92a.5.5 0 0 1 .576-.26l.095.036 4 2a.5.5 0 0 1-.353.93l-.095-.036-4-2-.085-.054a.5.5 0 0 1-.138-.617Zm-4.776-5.58a1.177 1.177 0 1 0-1.053 2.106l1.879.94.204-1.423a1.45 1.45 0 0 0-.787-1.5l-.243-.123Z"/></symbol>
  <symbol id="icon-large" fill="none" viewBox="0 0 24 24"><path fill="currentColor" fill-rule="evenodd" d="M6 4a3 3 0 1 1 0 6 3 3 0 0 1 0-6Zm0 7a3.99 3.99 0 0 0 2.97-1.32L12.3 12l-3.33 2.32a4 4 0 1 0 .573.82l13.243-9.23a.5.5 0 1 0-.572-.82l-9.04 6.3-3.632-2.53A4 4 0 1 0 6 11Zm16.786 7.09a.5.5 0 1 1-.572.82l-7.173-5 .57-.82 7.175 5ZM6 14a3 3 0 1 1 0 6 3 3 0 0 1 0-6Z" clip-rule="evenodd"/></symbol>
  <use href="#icon"/>
</svg>
