<svg xmlns="http://www.w3.org/2000/svg">
  <symbol id="icon" fill="none" viewBox="0 0 16 16"><path fill="currentColor" d="M8 2c1.561 0 2.996.23 4.06.616.529.193.993.434 1.334.727.338.291.606.68.606 1.157v7c0 .477-.268.866-.606 1.157-.341.293-.805.534-1.334.727C10.996 13.77 9.56 14 8 14c-1.561 0-2.997-.23-4.06-.616-.529-.193-.993-.434-1.334-.727C2.267 12.366 2 11.977 2 11.5v-7c0-.477.267-.866.606-1.157.341-.293.805-.534 1.334-.727C5.003 2.23 6.44 2 8 2Zm5 7.44a5.248 5.248 0 0 1-.94.444c-1.064.386-2.499.616-4.06.616-1.561 0-2.997-.23-4.06-.616A5.176 5.176 0 0 1 3 9.439V11.5c0 .076.04.212.258.4.216.185.558.375 1.024.544C5.21 12.781 6.524 13 8 13s2.79-.219 3.718-.556c.466-.17.808-.359 1.024-.545.218-.187.258-.323.258-.399V9.44Zm-8.356 1.375c.144.043.295.083.454.12l.494.105.096.03a.5.5 0 0 1-.178.962l-.102-.009-.544-.115-.508-.136-.093-.039a.5.5 0 0 1 .38-.918ZM13 5.939c-.275.17-.593.318-.94.445C10.996 6.77 9.56 7 8 7c-1.561 0-2.997-.23-4.06-.616A5.176 5.176 0 0 1 3 5.939V8c0 .076.04.212.258.4.216.185.558.375 1.024.544C5.21 9.282 6.524 9.5 8 9.5s2.79-.218 3.718-.556c.466-.17.808-.359 1.024-.545C12.96 8.212 13 8.076 13 8V5.94ZM4.644 7.314c.144.044.295.084.454.122l.494.104.096.03a.5.5 0 0 1-.178.962l-.102-.009-.544-.115-.508-.137-.093-.038a.5.5 0 0 1 .38-.919ZM8 3c-1.476 0-2.79.218-3.718.556-.466.17-.808.359-1.024.545C3.04 4.288 3 4.424 3 4.5c0 .076.04.212.258.4.216.185.558.375 1.024.544C5.21 5.782 6.524 6 8 6s2.79-.218 3.718-.556c.466-.17.808-.359 1.024-.545.218-.187.258-.323.258-.399 0-.076-.04-.212-.258-.4-.216-.185-.558-.375-1.024-.544C10.79 3.218 9.476 3 8 3Z"/></symbol>
  <symbol id="icon-large" fill="none" viewBox="0 0 24 24"><path fill="currentColor" fill-rule="evenodd" d="M19.547 5.438c.383.266.453.464.453.562 0 .098-.07.296-.453.563-.368.256-.934.506-1.678.725C16.39 7.724 14.313 8 12 8c-2.313 0-4.388-.276-5.87-.712-.743-.219-1.309-.47-1.677-.726C4.07 6.296 4 6.098 4 6c0-.098.07-.296.453-.563.368-.256.934-.506 1.678-.725C7.61 4.276 9.687 4 12 4c2.313 0 4.388.276 5.87.712.743.219 1.309.47 1.677.726ZM3 6c0-.592.405-1.052.883-1.384.492-.342 1.171-.63 1.966-.863C7.444 3.283 9.619 3 12 3s4.556.284 6.151.753c.795.234 1.474.521 1.966.863.477.332.883.792.883 1.384v12c0 .592-.405 1.052-.883 1.384-.492.342-1.171.63-1.966.863-1.595.47-3.77.753-6.151.753s-4.556-.284-6.151-.753c-.795-.234-1.474-.521-1.966-.863C3.405 19.052 3 18.592 3 18V6Zm17 1.462V12c0 .098-.07.296-.453.563-.368.255-.934.506-1.678.725-1.48.436-3.556.712-5.869.712-2.313 0-4.388-.276-5.87-.712-.743-.219-1.309-.47-1.677-.726C4.07 12.296 4 12.098 4 12V7.462c.48.308 1.116.57 1.849.785C7.444 8.717 9.619 9 12 9s4.556-.284 6.151-.753c.733-.216 1.369-.477 1.849-.785ZM4 18v-4.538c.48.308 1.116.57 1.849.785 1.595.47 3.77.753 6.151.753s4.556-.284 6.151-.753c.733-.216 1.369-.477 1.849-.785V18c0 .098-.07.296-.453.563-.368.256-.934.506-1.678.725-1.48.436-3.556.712-5.869.712-2.313 0-4.388-.276-5.87-.712-.743-.219-1.309-.47-1.677-.726C4.07 18.297 4 18.099 4 18Zm4.077-1.288a15.53 15.53 0 0 1-1.936-.42.5.5 0 1 0-.282.958c.613.18 1.308.332 2.064.45a.5.5 0 1 0 .154-.988Zm0-6a15.53 15.53 0 0 1-1.936-.42.5.5 0 1 0-.282.958c.613.18 1.308.332 2.064.45a.5.5 0 1 0 .154-.988Z" clip-rule="evenodd"/></symbol>
  <use href="#icon"/>
</svg>
