<svg xmlns="http://www.w3.org/2000/svg">
  <symbol id="icon" fill="none" viewBox="0 0 16 16"><path fill="currentColor" d="M5.463 13.391a.54.54 0 0 1 .656-.223c.298.108.607.192.925.248a.54.54 0 0 1 .456.52c0 .293-.25.526-.539.48a6.455 6.455 0 0 1-1.27-.34.473.473 0 0 1-.228-.685Zm4.416-.223a.541.541 0 0 1 .656.223.473.473 0 0 1-.227.686c-.405.153-.83.268-1.269.338a.473.473 0 0 1-.539-.48c0-.26.2-.474.455-.52.318-.055.627-.14.924-.247ZM3.11 11.4a.54.54 0 0 1 .68.134c.205.245.431.471.676.677a.54.54 0 0 1 .134.678.473.473 0 0 1-.708.146 6.538 6.538 0 0 1-.927-.927.473.473 0 0 1 .146-.708Zm9.103.133a.539.539 0 0 1 .678-.134c.254.147.33.48.145.707-.277.34-.588.65-.927.928a.473.473 0 0 1-.708-.145.54.54 0 0 1 .134-.678c.245-.206.472-.433.678-.678ZM2.064 8.5c.26 0 .475.198.52.455.056.318.138.628.246.925a.54.54 0 0 1-.222.655.473.473 0 0 1-.686-.228 6.454 6.454 0 0 1-.338-1.268.473.473 0 0 1 .48-.54Zm11.873 0c.292 0 .524.249.478.538a6.46 6.46 0 0 1-.338 1.268.474.474 0 0 1-.686.228.54.54 0 0 1-.223-.655c.109-.297.192-.606.248-.924a.54.54 0 0 1 .52-.455ZM11.5 4a.501.501 0 0 1 .5.5v2.12a.5.5 0 0 1-1 0v-.913L8.354 8.353a.5.5 0 0 1-.707-.707L10.293 5h-.915a.5.5 0 0 1 0-1H11.5ZM1.922 5.69a.473.473 0 0 1 .686-.227.54.54 0 0 1 .222.656 5.46 5.46 0 0 0-.246.925.54.54 0 0 1-.52.456.474.474 0 0 1-.48-.54c.07-.44.185-.865.338-1.27Zm11.47-.227a.473.473 0 0 1 .685.227c.154.406.268.83.338 1.27a.473.473 0 0 1-.478.54.54.54 0 0 1-.52-.456 5.462 5.462 0 0 0-.249-.926.54.54 0 0 1 .224-.655ZM11.4 3.109a.473.473 0 0 1 .708-.145c.339.277.65.587.927.926a.474.474 0 0 1-.145.71.54.54 0 0 1-.68-.134 5.537 5.537 0 0 0-.677-.678.54.54 0 0 1-.133-.679Zm-7.51-.145a.473.473 0 0 1 .708.145.539.539 0 0 1-.134.679 5.533 5.533 0 0 0-.678.677.54.54 0 0 1-.678.133.473.473 0 0 1-.146-.707c.277-.339.589-.65.928-.927Zm3.07-1.38c.29-.046.54.187.54.48a.54.54 0 0 1-.457.52 5.46 5.46 0 0 0-.925.247.54.54 0 0 1-.656-.224.473.473 0 0 1 .229-.685 6.4 6.4 0 0 1 1.27-.338Zm2.078 0c.44.07.864.184 1.269.338a.473.473 0 0 1 .228.685.54.54 0 0 1-.656.224 5.463 5.463 0 0 0-.925-.247.538.538 0 0 1-.455-.52c0-.292.25-.525.54-.48Z"/></symbol>
  <symbol id="icon-large" fill="none" viewBox="0 0 24 24"><path fill="currentColor" d="M11.209 20.964a8.793 8.793 0 0 0 1.582 0 .522.522 0 0 1 .563.411.483.483 0 0 1-.42.581 9.913 9.913 0 0 1-1.867 0 .483.483 0 0 1-.422-.58.522.522 0 0 1 .564-.412Zm-4.05-.82a.523.523 0 0 1 .679-.164c.465.243.953.448 1.462.608.253.08.415.334.363.595a.48.48 0 0 1-.61.374 9.948 9.948 0 0 1-1.728-.717.482.482 0 0 1-.166-.696Zm9.002-.164a.523.523 0 0 1 .679.164.482.482 0 0 1-.166.696 9.942 9.942 0 0 1-1.73.717.48.48 0 0 1-.608-.374.523.523 0 0 1 .363-.595 8.99 8.99 0 0 0 1.462-.608ZM4.41 17.67a.524.524 0 0 1 .69.107c.34.405.715.78 1.12 1.12a.524.524 0 0 1 .107.689.482.482 0 0 1-.708.112c-.48-.398-.923-.84-1.321-1.32a.482.482 0 0 1 .113-.708Zm14.488.107a.523.523 0 0 1 .689-.107c.238.16.295.486.112.707a10 10 0 0 1-1.321 1.322.482.482 0 0 1-.708-.112.524.524 0 0 1 .108-.69c.405-.34.78-.714 1.12-1.12ZM2.816 14.336a.524.524 0 0 1 .596.363c.16.508.364.997.607 1.461a.523.523 0 0 1-.164.679.482.482 0 0 1-.697-.166 9.94 9.94 0 0 1-.717-1.728.481.481 0 0 1 .375-.609Zm18.366 0c.281.056.46.336.375.61a9.939 9.939 0 0 1-.716 1.727.482.482 0 0 1-.698.166.523.523 0 0 1-.164-.679 8.93 8.93 0 0 0 .608-1.46.523.523 0 0 1 .595-.364Zm-18.557-3.69c.26.052.433.297.41.562a9.013 9.013 0 0 0 0 1.583.523.523 0 0 1-.41.564.483.483 0 0 1-.581-.421 10.031 10.031 0 0 1 0-1.867.483.483 0 0 1 .58-.421Zm18.75-.001a.482.482 0 0 1 .58.42 9.956 9.956 0 0 1 0 1.867.483.483 0 0 1-.58.422.522.522 0 0 1-.411-.564 8.97 8.97 0 0 0 .037-.79 8.79 8.79 0 0 0-.037-.792.522.522 0 0 1 .41-.563ZM17.5 6a.5.5 0 0 1 .5.5V10a.5.5 0 0 1-1 0V7.707l-4.647 4.647a.5.5 0 0 1-.707-.707L16.293 7H14a.5.5 0 0 1 0-1h3.5ZM3.158 7.325a.482.482 0 0 1 .697-.166.523.523 0 0 1 .164.679A8.943 8.943 0 0 0 3.412 9.3a.523.523 0 0 1-.595.363.48.48 0 0 1-.375-.61c.186-.601.426-1.18.716-1.728Zm16.985-.166a.482.482 0 0 1 .698.166c.29.548.53 1.126.716 1.728a.481.481 0 0 1-.375.61.523.523 0 0 1-.595-.364 8.939 8.939 0 0 0-.608-1.461.523.523 0 0 1 .164-.679ZM5.62 4.3a.482.482 0 0 1 .709.113.524.524 0 0 1-.108.69 9.06 9.06 0 0 0-1.12 1.117.523.523 0 0 1-.69.107.482.482 0 0 1-.112-.708c.398-.48.84-.922 1.32-1.32Zm12.052.113a.482.482 0 0 1 .708-.113c.48.398.923.84 1.321 1.32a.483.483 0 0 1-.113.71.524.524 0 0 1-.69-.11 9.058 9.058 0 0 0-1.118-1.118.523.523 0 0 1-.108-.689Zm-8.619-1.97a.482.482 0 0 1 .61.375.524.524 0 0 1-.362.595 8.95 8.95 0 0 0-1.462.608.524.524 0 0 1-.68-.164.482.482 0 0 1 .167-.698 9.94 9.94 0 0 1 1.727-.716Zm5.894 0c.602.185 1.18.426 1.728.716a.482.482 0 0 1 .166.698.524.524 0 0 1-.68.164 8.947 8.947 0 0 0-1.46-.608.524.524 0 0 1-.364-.595.482.482 0 0 1 .61-.375ZM12.001 2c.314 0 .625.015.931.044a.482.482 0 0 1 .421.58.523.523 0 0 1-.562.411 8.986 8.986 0 0 0-1.583 0 .523.523 0 0 1-.564-.41.482.482 0 0 1 .421-.58c.308-.03.62-.045.936-.045Z"/></symbol>
  <use href="#icon"/>
</svg>
