<svg xmlns="http://www.w3.org/2000/svg">
  <symbol id="icon" fill="none" viewBox="0 0 16 16"><path fill="currentColor" d="M12.5 2A1.5 1.5 0 0 1 14 3.5v9a1.5 1.5 0 0 1-1.5 1.5h-9A1.5 1.5 0 0 1 2 12.5v-9A1.5 1.5 0 0 1 3.5 2h9Zm-9 1a.5.5 0 0 0-.5.5v9a.5.5 0 0 0 .5.5h9a.5.5 0 0 0 .5-.5v-9a.5.5 0 0 0-.5-.5h-9Zm6.146 2.646a.5.5 0 1 1 .707.708L8.707 8l1.646 1.646a.5.5 0 1 1-.707.707L8 8.707l-1.646 1.646a.5.5 0 1 1-.708-.707L7.293 8 5.646 6.354a.5.5 0 1 1 .708-.708L8 7.293l1.646-1.647Z"/></symbol>
  <symbol id="icon-large" fill="none" viewBox="0 0 24 24"><path fill="currentColor" d="M19.5 3A1.5 1.5 0 0 1 21 4.5v15a1.5 1.5 0 0 1-1.5 1.5h-15A1.5 1.5 0 0 1 3 19.5v-15A1.5 1.5 0 0 1 4.5 3h15Zm-15 1a.5.5 0 0 0-.5.5v15a.5.5 0 0 0 .5.5h15a.5.5 0 0 0 .5-.5v-15a.5.5 0 0 0-.5-.5h-15Zm10.146 4.646a.5.5 0 1 1 .707.708L12.707 12l2.646 2.646a.5.5 0 1 1-.707.707L12 12.707l-2.646 2.646a.5.5 0 1 1-.708-.707L11.293 12 8.646 9.354a.5.5 0 1 1 .708-.708L12 11.293l2.646-2.647Z"/></symbol>
  <use href="#icon"/>
</svg>
