<svg xmlns="http://www.w3.org/2000/svg">
  <symbol id="icon" fill="none" viewBox="0 0 16 16"><path fill="currentColor" d="M8 1a7.001 7.001 0 1 1 0 14.002A7.001 7.001 0 0 1 8 .999Zm0 1a6.001 6.001 0 1 0 0 12.002A6.001 6.001 0 0 0 8 1.999Zm1.647 3.647a.5.5 0 1 1 .707.707L8.707 8l1.647 1.647a.5.5 0 0 1-.707.707L8 8.707l-1.646 1.647a.5.5 0 0 1-.707-.707L7.293 8 5.647 6.354a.5.5 0 1 1 .707-.707L8 7.293l1.647-1.646Z"/></symbol>
  <symbol id="icon-large" fill="none" viewBox="0 0 24 24"><path fill="currentColor" d="M12 2c5.523 0 10 4.477 10 10s-4.477 10-10 10S2 17.523 2 12 6.477 2 12 2Zm0 1a9 9 0 1 0 0 18 9 9 0 0 0 0-18Zm2.646 5.646a.5.5 0 1 1 .707.708L12.707 12l2.646 2.646a.5.5 0 1 1-.707.707L12 12.707l-2.646 2.646a.5.5 0 1 1-.708-.707L11.293 12 8.646 9.354a.5.5 0 1 1 .708-.708L12 11.293l2.646-2.647Z"/></symbol>
  <use href="#icon"/>
</svg>
