<svg xmlns="http://www.w3.org/2000/svg">
  <symbol id="icon" fill="none" viewBox="0 0 16 16"><path fill="currentColor" fill-rule="evenodd" d="M3.5 2a.5.5 0 0 0-.5.5v11a.5.5 0 0 0 .5.5H9v1H3.5A1.5 1.5 0 0 1 2 13.5v-11A1.5 1.5 0 0 1 3.5 1h5.793a1 1 0 0 1 .707.293L13.707 5a1 1 0 0 1 .293.707V8h-1V6h-2.5A1.5 1.5 0 0 1 9 4.5V2H3.5Zm6.5.707V4.5a.5.5 0 0 0 .5.5h1.793L10 2.707ZM12 11a1 1 0 1 1 2 0h-2Zm-1 0a2 2 0 1 1 4 0 1 1 0 0 1 1 1v3a1 1 0 0 1-1 1h-4a1 1 0 0 1-1-1v-3a1 1 0 0 1 1-1Zm0 4v-3h4v3h-4Z" clip-rule="evenodd"/></symbol>
  <symbol id="icon-large" fill="none" viewBox="0 0 24 24"><path fill="currentColor" fill-rule="evenodd" d="M5.5 3a.5.5 0 0 0-.5.5v17a.5.5 0 0 0 .5.5H13v1H5.5A1.5 1.5 0 0 1 4 20.5v-17A1.5 1.5 0 0 1 5.5 2h7.086a1.5 1.5 0 0 1 1.06.44l5.915 5.914A1.5 1.5 0 0 1 20 9.414V12h-1V9.5h-5A1.5 1.5 0 0 1 12.5 8V3h-7Zm8 .707V8a.5.5 0 0 0 .5.5h4.293L13.5 3.707ZM17 17a2 2 0 1 1 4 0h-4Zm-1 .085V17a3 3 0 1 1 6 0v.085a1.5 1.5 0 0 1 1 1.415v3a1.5 1.5 0 0 1-1.5 1.5h-5a1.5 1.5 0 0 1-1.5-1.5v-3a1.5 1.5 0 0 1 1-1.415Zm0 1.415a.5.5 0 0 1 .5-.5h5a.5.5 0 0 1 .5.5v3a.5.5 0 0 1-.5.5h-5a.5.5 0 0 1-.5-.5v-3Z" clip-rule="evenodd"/></symbol>
  <use href="#icon"/>
</svg>
