<svg xmlns="http://www.w3.org/2000/svg">
  <symbol id="icon" fill="none" viewBox="0 0 16 16"><path fill="currentColor" d="M5.464 13.392a.54.54 0 0 1 .655-.224c.297.108.607.191.926.247a.54.54 0 0 1 .455.52c0 .293-.25.526-.54.48a6.44 6.44 0 0 1-1.269-.338.473.473 0 0 1-.227-.685ZM9.039 1.585a6.499 6.499 0 0 1 0 12.83.473.473 0 0 1-.539-.48c0-.26.2-.475.456-.52a5.5 5.5 0 0 0 0-10.831.539.539 0 0 1-.456-.52c0-.292.25-.525.54-.479ZM3.11 11.4a.54.54 0 0 1 .678.134c.206.245.432.471.677.677a.54.54 0 0 1 .135.679.474.474 0 0 1-.71.145 6.545 6.545 0 0 1-.926-.927.474.474 0 0 1 .145-.708ZM8 4.5a.5.5 0 0 1 .5.5v4.793l1.146-1.147a.5.5 0 0 1 .707.708l-2 2a.5.5 0 0 1-.707 0l-2-2a.5.5 0 1 1 .708-.708L7.5 9.793V5a.5.5 0 0 1 .5-.5Zm-5.937 4c.26 0 .476.2.521.456.056.318.14.626.247.923a.541.541 0 0 1-.224.656.473.473 0 0 1-.685-.228 6.455 6.455 0 0 1-.338-1.268.473.473 0 0 1 .48-.539Zm-.141-2.809a.473.473 0 0 1 .685-.227.54.54 0 0 1 .224.655 5.462 5.462 0 0 0-.247.925.54.54 0 0 1-.52.456.473.473 0 0 1-.48-.54c.07-.439.184-.863.338-1.269ZM3.89 2.964a.474.474 0 0 1 .709.144.54.54 0 0 1-.135.68 5.53 5.53 0 0 0-.676.676.54.54 0 0 1-.68.134.473.473 0 0 1-.144-.708 6.54 6.54 0 0 1 .926-.926Zm3.07-1.38a.473.473 0 0 1 .54.48c0 .26-.2.475-.456.52a5.57 5.57 0 0 0-.925.247.54.54 0 0 1-.655-.224.473.473 0 0 1 .227-.685 6.42 6.42 0 0 1 1.27-.338Z"/></symbol>
  <symbol id="icon-large" fill="none" viewBox="0 0 24 24"><path fill="currentColor" d="M8.843 20.933a.523.523 0 0 1 .632-.293c.501.146 1.02.25 1.553.308a.523.523 0 0 1 .473.513c0 .287-.24.517-.526.488a9.958 9.958 0 0 1-1.834-.365.482.482 0 0 1-.298-.651Zm4.183-18.879c5.041.514 8.975 4.77 8.975 9.947 0 5.176-3.934 9.434-8.975 9.947a.482.482 0 0 1-.525-.487c0-.266.208-.484.472-.512C17.486 20.462 21 16.642 21.001 12c0-4.641-3.515-8.463-8.028-8.948a.523.523 0 0 1-.472-.513c0-.286.24-.515.525-.486Zm-7.361 16.99a.524.524 0 0 1 .698-.03c.41.332.85.627 1.315.883a.524.524 0 0 1 .24.654.48.48 0 0 1-.671.248 10.019 10.019 0 0 1-1.555-1.039.482.482 0 0 1-.027-.717Zm-2.215-2.96a.523.523 0 0 1 .654.24c.256.464.551.905.882 1.315a.523.523 0 0 1-.028.697.482.482 0 0 1-.717-.027 10.015 10.015 0 0 1-1.04-1.553.482.482 0 0 1 .249-.672ZM12 6.5a.5.5 0 0 1 .5.5v8.793l3.146-3.146a.5.5 0 0 1 .707.707l-4 4a.5.5 0 0 1-.707 0l-4-4a.5.5 0 0 1 .707-.707l3.147 3.146V7a.5.5 0 0 1 .5-.5Zm-9.46 6.001c.267 0 .485.21.513.474.058.532.162 1.05.308 1.55a.524.524 0 0 1-.293.634.482.482 0 0 1-.651-.3 9.95 9.95 0 0 1-.364-1.832.482.482 0 0 1 .488-.526Zm-.124-3.36a.482.482 0 0 1 .651-.299.525.525 0 0 1 .294.635c-.146.5-.25 1.018-.308 1.55a.524.524 0 0 1-.513.474.482.482 0 0 1-.488-.525c.065-.63.188-1.244.364-1.834Zm1.825-3.45a.482.482 0 0 1 .716-.026c.188.188.195.49.028.697-.33.41-.626.85-.882 1.316a.523.523 0 0 1-.654.24.482.482 0 0 1-.248-.672 9.956 9.956 0 0 1 1.04-1.554Zm3.005-2.49a.481.481 0 0 1 .67.248.523.523 0 0 1-.239.655 9.02 9.02 0 0 0-1.316.883.523.523 0 0 1-.697-.029.482.482 0 0 1 .027-.716 10.02 10.02 0 0 1 1.555-1.04Zm3.73-1.147c.284-.029.525.2.525.486a.524.524 0 0 1-.473.514 8.959 8.959 0 0 0-1.553.308.524.524 0 0 1-.633-.294.482.482 0 0 1 .3-.652 9.953 9.953 0 0 1 1.833-.362Z"/></symbol>
  <use href="#icon"/>
</svg>
