<svg xmlns="http://www.w3.org/2000/svg">
  <symbol id="icon" fill="none" viewBox="0 0 16 16"><path fill="currentColor" fill-rule="evenodd" d="M12 7a1 1 0 1 0 0-2 1 1 0 0 0 0 2Zm-7 3a1 1 0 1 1-2 0 1 1 0 0 1 2 0Zm3 1a1 1 0 1 0 0-2 1 1 0 0 0 0 2Zm4 0a1 1 0 1 0 0-2 1 1 0 0 0 0 2ZM9 6a1 1 0 1 1-2 0 1 1 0 0 1 2 0ZM4 7a1 1 0 1 0 0-2 1 1 0 0 0 0 2Z" clip-rule="evenodd"/></symbol>
  <symbol id="icon-large" fill="none" viewBox="0 0 24 24"><path fill="currentColor" fill-rule="evenodd" d="M5.5 10.5a1.5 1.5 0 1 0 0-3 1.5 1.5 0 0 0 0 3Zm0 6a1.5 1.5 0 1 0 0-3 1.5 1.5 0 0 0 0 3Zm13 0a1.5 1.5 0 1 0 0-3 1.5 1.5 0 0 0 0 3Zm-5-1.5a1.5 1.5 0 1 1-3 0 1.5 1.5 0 0 1 3 0ZM20 9a1.5 1.5 0 1 1-3 0 1.5 1.5 0 0 1 3 0Zm-8 1.5a1.5 1.5 0 1 0 0-3 1.5 1.5 0 0 0 0 3Z" clip-rule="evenodd"/></symbol>
  <use href="#icon"/>
</svg>
