<svg xmlns="http://www.w3.org/2000/svg">
  <symbol id="icon" fill="none" viewBox="0 0 16 16"><path fill="currentColor" fill-rule="evenodd" d="M11.675 1.618a1.167 1.167 0 0 1 1.65 0l1.057 1.057a1.167 1.167 0 0 1 0 1.65L13.357 5.35l-.003.003-.004.004-3.496 3.497A.5.5 0 0 1 9.5 9h-2a.5.5 0 0 1-.5-.5v-2a.5.5 0 0 1 .146-.354l4.529-4.528ZM13 4.293l.675-.675a.167.167 0 0 0 0-.236l-1.057-1.057a.167.167 0 0 0-.236 0L11.707 3 13 4.293Zm-2-.586L12.293 5l-3 3H8V6.707l3-3ZM1 10a2 2 0 0 1 2-2h3v1H3a1 1 0 0 0 0 2h8a2 2 0 0 1 0 4H7.5a.5.5 0 1 1 0-1H11a1 1 0 1 0 0-2H3a2 2 0 0 1-2-2Z" clip-rule="evenodd"/></symbol>
  <symbol id="icon-large" fill="none" viewBox="0 0 24 24"><path fill="currentColor" fill-rule="evenodd" d="M17.44 2.854a1.5 1.5 0 0 1 2.12 0l1.586 1.585a1.5 1.5 0 0 1 0 2.122l-1.292 1.293-5 5A.5.5 0 0 1 14.5 13h-3a.5.5 0 0 1-.5-.5v-3a.5.5 0 0 1 .146-.354l5-4.999.001-.001 1.292-1.292Zm-.94 2.353-4.5 4.5V12h2.293l4.5-4.5L16.5 5.207Zm3 1.586L17.207 4.5l.94-.94a.5.5 0 0 1 .707 0l1.585 1.586a.5.5 0 0 1 0 .708l-.939.939ZM3 14.5A2.5 2.5 0 0 1 5.5 12H9v1H5.5a1.5 1.5 0 1 0 0 3h11a2.5 2.5 0 0 1 0 5h-5a.5.5 0 0 1 0-1h5a1.5 1.5 0 0 0 0-3h-11A2.5 2.5 0 0 1 3 14.5Z" clip-rule="evenodd"/></symbol>
  <use href="#icon"/>
</svg>
