<svg xmlns="http://www.w3.org/2000/svg">
  <symbol id="icon" fill="none" viewBox="0 0 16 16"><path fill="currentColor" d="M8 3c1.755 0 3.363.533 4.543 1.418C13.723 5.303 14.5 6.565 14.5 8s-.777 2.697-1.957 3.582C11.363 12.467 9.755 13 8 13c-1.755 0-3.363-.533-4.543-1.418C2.277 10.697 1.5 9.435 1.5 8s.777-2.697 1.957-3.582C4.637 3.533 6.245 3 8 3Zm0 1c-1.559 0-2.951.474-3.942 1.218C3.067 5.96 2.5 6.95 2.5 8s.567 2.039 1.558 2.782C5.048 11.525 6.44 12 8 12c1.559 0 2.951-.475 3.942-1.218C12.934 10.04 13.5 9.05 13.5 8s-.566-2.039-1.558-2.782C10.952 4.474 9.56 4 8 4Z"/></symbol>
  <symbol id="icon-large" fill="none" viewBox="0 0 24 24"><path fill="currentColor" d="M21 12c0-3.762-3.913-7-9-7s-9 3.238-9 7 3.913 7 9 7 9-3.238 9-7Zm1 0c0 4.522-4.594 8-10 8S2 16.522 2 12s4.594-8 10-8 10 3.478 10 8Z"/></symbol>
  <use href="#icon"/>
</svg>
