<svg xmlns="http://www.w3.org/2000/svg">
  <symbol id="icon" fill="none" viewBox="0 0 16 16"><path fill="currentColor" d="M8 1.5A6.5 6.5 0 0 1 14.5 8v.473A2.527 2.527 0 0 1 11.973 11c-.865 0-1.61-.431-2.063-1.073-.539.793-1.402 1.323-2.41 1.323-1.7 0-3-1.501-3-3.25s1.3-3.25 3-3.25c.99 0 1.842.511 2.383 1.282l.127-.63a.5.5 0 0 1 .98.196l-.492 2.459c-.003.174-.02.345-.048.513a1.527 1.527 0 0 0 3.05-.097V8a5.5 5.5 0 1 0-2.292 4.468.5.5 0 0 1 .584.812A6.5 6.5 0 1 1 8 1.5Zm-.5 4.25c-1.06 0-2 .961-2 2.25 0 1.289.94 2.25 2 2.25.914 0 1.735-.713 1.946-1.734a2.548 2.548 0 0 1 .05-.538l.002-.017C9.479 6.692 8.55 5.75 7.5 5.75Z"/></symbol>
  <symbol id="icon-large" fill="none" viewBox="0 0 24 24"><path fill="currentColor" fill-rule="evenodd" d="M21 12a9 9 0 1 0-9 9c1.942 0 3.74-.615 5.21-1.66a.5.5 0 0 1 .58.814A9.957 9.957 0 0 1 12 22C6.477 22 2 17.523 2 12S6.477 2 12 2s10 4.477 10 10v.732a3.768 3.768 0 0 1-7.133 1.696c-.701 1.233-1.925 2.072-3.367 2.072-2.27 0-4-2.08-4-4.5s1.73-4.5 4-4.5c1.434 0 2.652.83 3.355 2.05l.149-1.116a.501.501 0 0 1 .992.132l-.507 3.8a2.72 2.72 0 0 0-.017.162 2.768 2.768 0 1 0 5.528.204V12Zm-6.512.313c.008-.103.012-.207.012-.313 0-1.998-1.404-3.5-3-3.5s-3 1.502-3 3.5 1.404 3.5 3 3.5c1.47 0 2.778-1.275 2.975-3.039.003-.05.008-.098.013-.148Z" clip-rule="evenodd"/></symbol>
  <use href="#icon"/>
</svg>
