<svg xmlns="http://www.w3.org/2000/svg">
  <symbol id="icon" fill="none" viewBox="0 0 16 16"><path fill="currentColor" d="M13.5 3a1.5 1.5 0 0 1 .645.147h.002l.002.002c.307.148.554.395.702.702l.002.003h-.001c.093.196.148.414.148.646v7a1.5 1.5 0 0 1-1.5 1.5h-11A1.5 1.5 0 0 1 1 11.5v-7c0-.231.054-.45.147-.646l.002-.003c.148-.307.395-.554.702-.702l.003-.003v.001C2.05 3.054 2.27 3 2.5 3h11ZM9.06 9.646a1.5 1.5 0 0 1-2.12 0L6 8.707 2.707 12h10.586L10 8.707l-.94.94ZM2 11.293 5.293 8 2 4.707v6.586ZM10.707 8 14 11.293V4.707L10.707 8Zm-3.06.94a.5.5 0 0 0 .707 0L13.293 4H2.707l4.94 4.94Z"/></symbol>
  <symbol id="icon-large" fill="none" viewBox="0 0 24 24"><path fill="currentColor" fill-rule="evenodd" d="m14.25 12.957-1.19 1.19a1.5 1.5 0 0 1-2.12 0l-1.19-1.19L3.707 19h16.586l-6.043-6.043Zm.707-.707L21 18.293V6.207l-6.043 6.043ZM3 6.207l6.043 6.043L3 18.293V6.207ZM20.5 5c.085 0 .165.021.235.058l-8.381 8.382a.5.5 0 0 1-.707 0L3.264 5.058A.498.498 0 0 1 3.5 5h17Zm0 15a1.5 1.5 0 0 0 1.5-1.5v-13A1.5 1.5 0 0 0 20.5 4h-17A1.5 1.5 0 0 0 2 5.5v13A1.5 1.5 0 0 0 3.5 20h17Z" clip-rule="evenodd"/></symbol>
  <use href="#icon"/>
</svg>
