<svg xmlns="http://www.w3.org/2000/svg">
  <symbol id="icon" fill="none" viewBox="0 0 16 16"><path fill="currentColor" d="M8.94 1.854a1.5 1.5 0 0 1 2.12 0l3.086 3.086a1.5 1.5 0 0 1 0 2.12L8.207 13H13.5a.5.5 0 0 1 0 1H5a.5.5 0 0 1-.354-.146L1.853 11.06a1.5 1.5 0 0 1 0-2.121L8.94 1.854ZM2.56 9.647a.5.5 0 0 0 0 .707L5.208 13h1.586l1.75-1.75L4.75 7.457l-2.19 2.19Zm7.793-7.086a.5.5 0 0 0-.707 0L5.457 6.75l3.793 3.792 4.19-4.19a.5.5 0 0 0 0-.706L10.353 2.56Z"/></symbol>
  <symbol id="icon-large" fill="none" viewBox="0 0 24 24"><path fill="currentColor" d="M14.44 2.354a1.5 1.5 0 0 1 2.12 0l5.087 5.085a1.5 1.5 0 0 1 0 2.122L11.207 20H20.5a.5.5 0 0 1 0 1H7a.5.5 0 0 1-.353-.146L2.354 16.56a1.5 1.5 0 0 1 0-2.121L14.44 2.354ZM3.06 15.147a.5.5 0 0 0 0 .707L7.208 20h2.586l2.75-2.75-5.793-5.793-3.69 3.69ZM15.855 3.06a.5.5 0 0 0-.707 0l-7.69 7.689 5.793 5.793 7.69-7.69a.5.5 0 0 0 0-.707L15.855 3.06Z"/></symbol>
  <use href="#icon"/>
</svg>
