<svg xmlns="http://www.w3.org/2000/svg">
  <symbol id="icon" fill="none" viewBox="0 0 16 16"><path fill="currentColor" d="M11.327 3.39c.642-.583 1.672-.128 1.673.74v7.74c0 .868-1.03 1.323-1.673.74L8 9.583v2.286c0 .868-1.03 1.323-1.673.74L2.07 8.74a1.001 1.001 0 0 1 0-1.48l4.257-3.87c.642-.583 1.672-.128 1.673.74v2.285l3.327-3.025ZM2.743 8 7 11.87V4.13L2.743 8ZM8 7.765v.468l4 3.637V4.13L8 7.765Z"/></symbol>
  <symbol id="icon-large" fill="none" viewBox="0 0 24 24"><path fill="currentColor" fill-rule="evenodd" d="M10.19 6.17a.5.5 0 0 1 .81.394v10.873a.5.5 0 0 1-.81.392l-6.886-5.436a.5.5 0 0 1 0-.786l6.886-5.436Zm-.62 12.444c.984.777 2.43.076 2.43-1.177v-3.222l5.57 4.4c.984.776 2.43.075 2.43-1.178V6.564c0-1.254-1.446-1.955-2.43-1.178L12 9.785V6.564c0-1.254-1.446-1.955-2.43-1.178l-6.885 5.436a1.5 1.5 0 0 0 0 2.356l6.885 5.436ZM12 11.058v1.884l6.19 4.887a.5.5 0 0 0 .81-.392V6.564a.5.5 0 0 0-.81-.393L12 11.058Z" clip-rule="evenodd"/></symbol>
  <use href="#icon"/>
</svg>
