<svg xmlns="http://www.w3.org/2000/svg">
  <symbol id="icon" fill="none" viewBox="0 0 16 16"><path fill="currentColor" fill-rule="evenodd" d="M2.038 8a5.962 5.962 0 1 1 11.924 0A5.962 5.962 0 0 1 2.038 8ZM8 1.038a6.962 6.962 0 1 0 0 13.924A6.962 6.962 0 0 0 8 1.038ZM5.447 9.276a.5.5 0 1 0-.894.448l.105.21a3.736 3.736 0 0 0 6.684 0l.105-.21a.5.5 0 0 0-.894-.448l-.106.212a2.736 2.736 0 0 1-4.894 0l-.106-.212ZM9.5 5a.5.5 0 0 1 .5.5V7a.5.5 0 1 1-1 0V5.5a.5.5 0 0 1 .5-.5ZM7 5.5a.5.5 0 0 0-1 0V7a.5.5 0 1 0 1 0V5.5Z" clip-rule="evenodd"/></symbol>
  <symbol id="icon-large" fill="none" viewBox="0 0 24 24"><path fill="currentColor" fill-rule="evenodd" d="M10 8.5a5.5 5.5 0 1 1 4.816 5.458 6.482 6.482 0 0 0-1.389-2.697l.157-.236a2.303 2.303 0 0 1 3.832 0l.168.252a.5.5 0 1 0 .832-.554l-.168-.252a3.303 3.303 0 0 0-5.496 0l-.048.072a6.48 6.48 0 0 0-2.662-1.359A5.55 5.55 0 0 1 10 8.5Zm5.5 6.5a6.87 6.87 0 0 1-.52-.02 6.5 6.5 0 1 1-5.96-5.96A6.5 6.5 0 1 1 15.5 15ZM14 6a.5.5 0 0 1 .5.5v1a.5.5 0 0 1-1 0v-1A.5.5 0 0 1 14 6Zm3.5.5a.5.5 0 0 0-1 0v1a.5.5 0 0 0 1 0v-1Zm-9 3.5a5.5 5.5 0 1 0 0 11 5.5 5.5 0 0 0 0-11Zm-2.084 6.723a.5.5 0 0 0-.832.554l.168.252a3.303 3.303 0 0 0 5.496 0l.168-.252a.5.5 0 0 0-.832-.554l-.168.252a2.303 2.303 0 0 1-3.832 0l-.168-.252ZM10 13a.5.5 0 0 1 .5.5v1a.5.5 0 0 1-1 0v-1a.5.5 0 0 1 .5-.5Zm-2.5.5a.5.5 0 0 0-1 0v1a.5.5 0 0 0 1 0v-1Z" clip-rule="evenodd"/></symbol>
  <use href="#icon"/>
</svg>
