<svg xmlns="http://www.w3.org/2000/svg">
  <symbol id="icon" fill="currentColor" viewBox="0 0 16 16"><path fill-rule="evenodd" d="M2.281 3.633A1 1 0 0 1 3.055 2h9.89a1 1 0 0 1 .774 1.633L10 8.178v4.013a1 1 0 0 1-.553.894l-2 1A1 1 0 0 1 6 13.191V8.178L2.281 3.633ZM12.945 3h-9.89l3.719 4.545A1 1 0 0 1 7 8.178v5.013l2-1V8.178a1 1 0 0 1 .226-.633L12.945 3Z" clip-rule="evenodd"/></symbol>
  <symbol id="icon-large" fill="currentColor" viewBox="0 0 24 24"><path fill-rule="evenodd" d="M3 4.5A1.5 1.5 0 0 1 4.5 3h15A1.5 1.5 0 0 1 21 4.5v2.63a1.5 1.5 0 0 1-.361.976l-5.519 6.438a.5.5 0 0 0-.12.326v4.453a1.5 1.5 0 0 1-.943 1.393l-3 1.2A1.5 1.5 0 0 1 9 20.523V14.87a.5.5 0 0 0-.12-.325l-5.52-6.44A1.5 1.5 0 0 1 3 7.13V4.5ZM4.5 4a.5.5 0 0 0-.5.5v2.63a.5.5 0 0 0 .12.325l5.519 6.439a1.5 1.5 0 0 1 .361.976v5.653a.5.5 0 0 0 .686.464l3-1.2a.5.5 0 0 0 .314-.464V14.87a1.5 1.5 0 0 1 .361-.976l5.519-6.439A.5.5 0 0 0 20 7.13V4.5a.5.5 0 0 0-.5-.5h-15Z" clip-rule="evenodd"/></symbol>
  <use href="#icon"/>
</svg>
