<svg xmlns="http://www.w3.org/2000/svg">
  <symbol id="icon" fill="none" viewBox="0 0 16 16"><path fill="currentColor" fill-rule="evenodd" d="M2 2.5a.5.5 0 0 1 .5-.5h4v4.5H2v-4ZM2.5 1A1.5 1.5 0 0 0 1 2.5V7a.5.5 0 0 0 .5.5H7a.5.5 0 0 0 .5-.5V1.5A.5.5 0 0 0 7 1H2.5Zm6 .5A.5.5 0 0 1 9 1h4.5A1.5 1.5 0 0 1 15 2.5V7a.5.5 0 0 1-.5.5H9a.5.5 0 0 1-.5-.5V1.5Zm1 .5v4.5H14v-4a.5.5 0 0 0-.5-.5h-4Zm-8 6.5A.5.5 0 0 0 1 9v4.5A1.5 1.5 0 0 0 2.5 15H7a.5.5 0 0 0 .5-.5V9a.5.5 0 0 0-.5-.5H1.5Zm.5 5v-4h4.5V14h-4a.5.5 0 0 1-.5-.5Zm9.75-4a2.25 2.25 0 1 0 0 4.5 2.25 2.25 0 0 0 0-4.5ZM8.5 11.75a3.25 3.25 0 1 1 5.874 1.917l1.48 1.48a.5.5 0 0 1-.707.707l-1.48-1.48A3.25 3.25 0 0 1 8.5 11.75Z" clip-rule="evenodd"/></symbol>
  <symbol id="icon-large" fill="none" viewBox="0 0 24 24"><path fill="currentColor" fill-rule="evenodd" d="M13 3.5a.5.5 0 0 1 .5-.5h6A1.5 1.5 0 0 1 21 4.5v6a.5.5 0 0 1-.5.5h-7a.5.5 0 0 1-.5-.5v-7Zm1 .5v6h6V4.5a.5.5 0 0 0-.5-.5H14ZM3.5 13a.5.5 0 0 0-.5.5v6A1.5 1.5 0 0 0 4.5 21h6a.5.5 0 0 0 .5-.5v-7a.5.5 0 0 0-.5-.5h-7Zm.5 6.5V14h6v6H4.5a.5.5 0 0 1-.5-.5ZM17 14a3 3 0 1 0 0 6 3 3 0 0 0 0-6Zm-4 3a4 4 0 1 1 7.16 2.453l1.694 1.693a.5.5 0 0 1-.708.708l-1.693-1.694A4 4 0 0 1 13 17ZM4 4.5a.5.5 0 0 1 .5-.5H10v6H4V4.5ZM4.5 3A1.5 1.5 0 0 0 3 4.5v6a.5.5 0 0 0 .5.5h7a.5.5 0 0 0 .5-.5v-7a.5.5 0 0 0-.5-.5h-6Z" clip-rule="evenodd"/></symbol>
  <use href="#icon"/>
</svg>
