<svg xmlns="http://www.w3.org/2000/svg">
  <symbol id="icon" fill="none" viewBox="0 0 16 16"><path fill="currentColor" d="M5.5 2c1.385 0 2.105.43 2.757.821.598.36 1.129.679 2.243.679.65 0 1.325-.22 1.86-.457a7.122 7.122 0 0 0 .809-.425l.043-.027.01-.006v-.001l.06-.034A.501.501 0 0 1 14 3v7a.5.5 0 0 1-.173.378l-.05.038v.001l-.003.001-.004.003-.016.01-.058.037a8.137 8.137 0 0 1-.93.49c-.59.262-1.415.542-2.266.542-1.385 0-2.105-.43-2.757-.821C7.145 10.319 6.614 10 5.5 10c-.65 0-1.325.22-1.86.457a7.143 7.143 0 0 0-.634.321L3 10.781V13.5a.5.5 0 0 1-1 0v-10a.5.5 0 0 1 .223-.417l.003-.001.004-.003.016-.01.058-.037a8.146 8.146 0 0 1 .93-.49C3.824 2.281 4.649 2 5.5 2Zm0 1c-.65 0-1.325.22-1.86.457a7.127 7.127 0 0 0-.634.321L3 3.781v5.873c.074-.036.152-.074.234-.111C3.824 9.281 4.65 9 5.5 9c1.385 0 2.105.43 2.757.821.598.36 1.129.679 2.243.679.65 0 1.325-.22 1.86-.457a7.13 7.13 0 0 0 .634-.321L13 9.718V3.845c-.075.036-.152.075-.234.112-.59.262-1.415.543-2.266.543-1.385 0-2.105-.43-2.757-.821C7.145 3.319 6.614 3 5.5 3Z"/></symbol>
  <symbol id="icon-large" fill="none" viewBox="0 0 24 24"><path fill="currentColor" fill-rule="evenodd" d="M12.207 3.044C11.207 2.544 10.118 2 8.5 2c-.817 0-2.123.266-3.177.514a49.446 49.446 0 0 0-1.782.456l-.021.006a28.78 28.78 0 0 0-.155.043h-.002A.5.5 0 0 0 3 3.5v17a.5.5 0 0 0 1 0v-4.62l.2-.053c.347-.093.827-.217 1.352-.34C6.622 15.233 7.817 15 8.5 15c1.373 0 2.28.45 3.276.947l.017.009c1 .5 2.089 1.044 3.707 1.044.817 0 2.123-.266 3.177-.514a49.125 49.125 0 0 0 1.382-.346c.165-.044.302-.082.4-.11l.021-.006a26.2 26.2 0 0 0 .116-.032l.03-.009.007-.001h.004v-.002l.078-.029A.5.5 0 0 0 21 15.5v-12a.5.5 0 0 0-.523-.499l-.115.019h-.002l-.006.001a.247.247 0 0 0-.01.003l-.019.006-.112.032-.412.11c-.348.094-.828.218-1.353.342-1.07.252-2.265.486-2.948.486-1.373 0-2.28-.45-3.276-.947l-.017-.009ZM4 14.844c.35-.092.815-.21 1.323-.33C6.377 14.266 7.683 14 8.5 14c1.618 0 2.707.545 3.707 1.044l.017.009c.996.498 1.903.947 3.276.947.683 0 1.877-.234 2.948-.486a48.03 48.03 0 0 0 1.475-.375l.077-.02V4.153c-.35.093-.815.213-1.323.332-1.054.248-2.36.514-3.177.514-1.618 0-2.707-.545-3.707-1.044l-.017-.009C10.78 3.45 9.873 3 8.5 3c-.683 0-1.877.234-2.948.486A47.752 47.752 0 0 0 4 3.88v10.965Z" clip-rule="evenodd"/></symbol>
  <use href="#icon"/>
</svg>
