<svg xmlns="http://www.w3.org/2000/svg">
  <symbol id="icon" fill="none" viewBox="0 0 16 16"><path fill="currentColor" d="M11.6 2.01a.5.5 0 0 1 0 .98l-.1.01H9.418L7.6 13h1.9a.5.5 0 0 1 0 1h-5a.5.5 0 0 1 0-1h2.082L8.4 3H6.531a.5.5 0 0 1 0-1H11.5l.1.01Z"/></symbol>
  <symbol id="icon-large" fill="none" viewBox="0 0 24 24"><path fill="currentColor" fill-rule="evenodd" d="M20 3.5a.5.5 0 0 0-.5-.5h-10a.5.5 0 0 0 0 1h4.332L9.126 20H4.5a.5.5 0 0 0 0 1h10a.5.5 0 0 0 0-1h-4.332l4.706-16H19.5a.5.5 0 0 0 .5-.5Z" clip-rule="evenodd"/></symbol>
  <use href="#icon"/>
</svg>
