<svg xmlns="http://www.w3.org/2000/svg">
  <symbol id="icon" fill="none" viewBox="0 0 16 16"><path fill="currentColor" d="M7.5 1.5a6 6 0 0 1 4.58 9.873l2.274 2.274.064.078a.5.5 0 0 1-.693.693l-.079-.064-2.273-2.274A6 6 0 1 1 7.5 1.5ZM2.847 5.67a4.998 4.998 0 0 0 4.57 6.827l-.334-.417a1.502 1.502 0 0 1-.207-1.528l.398-.93-.445.071a.5.5 0 0 1-.553-.336l-.293-.875-1.59-.954v-.002a1.486 1.486 0 0 1-1.134-.887l-.388-.904c-.01-.021-.016-.043-.024-.065Zm5.962 3.68a.5.5 0 0 0-.46.302l-.554 1.294a.501.501 0 0 0 .07.51l.737.92a5.003 5.003 0 0 0 3.078-2.134l-1.448-.827a.503.503 0 0 0-.248-.065H8.81Zm1.786-5.776a1.495 1.495 0 0 1-.526.8l-2.391 1.86a1.5 1.5 0 0 1-.921.316h-.293a.501.501 0 0 0-.354.146l-.412.412-.025.022.984.59.072.053a.501.501 0 0 1 .146.218l.215.648.83-.133a.497.497 0 0 1 .204.01c.208-.106.441-.166.685-.166h1.175c.261 0 .518.068.745.197l1.414.808a4.99 4.99 0 0 0-1.548-5.781ZM7.5 2.5a4.988 4.988 0 0 0-3.75 1.693v.952c0 .067.013.135.04.197l.388.903a.5.5 0 0 0 .813.156l.412-.412c.282-.28.663-.44 1.06-.44h.294a.5.5 0 0 0 .306-.105l2.392-1.86a.5.5 0 0 0 .184-.492l-.026-.124A4.98 4.98 0 0 0 7.5 2.5Z"/></symbol>
  <symbol id="icon-large" fill="none" viewBox="0 0 24 24"><path fill="currentColor" fill-rule="evenodd" d="M19 11a7.994 7.994 0 0 0-3.745-6.776l.114.572a1.5 1.5 0 0 1-.55 1.478l-3.74 2.91a1.501 1.501 0 0 1-.922.316h-.743a.5.5 0 0 0-.353.146l-.942.943 1.638.982.072.052a.501.501 0 0 1 .146.219l.36 1.08 2.067-.412.003.012c.083-.015.168-.022.254-.022h2.075c.261 0 .518.068.745.197l2.81 1.606A7.971 7.971 0 0 0 19 11Zm-13.541-.661a1.502 1.502 0 0 0 1.744.866l1.88 1.128.442 1.325a.5.5 0 0 0 .573.332l1.02-.204-.842 1.966a1.5 1.5 0 0 0 .207 1.528l1.343 1.678A8 8 0 0 1 4.5 6.335v1.46c0 .203.041.404.121.59l.838 1.954Zm12.36 4.848-2.837-1.622a.501.501 0 0 0-.248-.065H12.66a.5.5 0 0 0-.459.303l-1.005 2.343a.5.5 0 0 0 .07.51l1.626 2.032a.515.515 0 0 1 .05.075 8.014 8.014 0 0 0 4.877-3.576Zm-3.43-10.195-.273-1.362A7.975 7.975 0 0 0 11 3c-2.13 0-4.066.833-5.5 2.19v2.605c0 .068.013.135.04.197l.838 1.953a.5.5 0 0 0 .812.157l1.164-1.163a1.5 1.5 0 0 1 1.06-.439h.743a.5.5 0 0 0 .307-.105l3.741-2.91a.5.5 0 0 0 .184-.493ZM11 2a8.97 8.97 0 0 1 3.95.91l.04-.008.006.032A9 9 0 0 1 20 11a8.967 8.967 0 0 1-2.292 6l4.146 4.146a.5.5 0 1 1-.707.707L17 17.709A9 9 0 1 1 11 2Z" clip-rule="evenodd"/></symbol>
  <use href="#icon"/>
</svg>
