<svg xmlns="http://www.w3.org/2000/svg">
  <symbol id="icon" fill="none" viewBox="0 0 16 16"><path fill="currentColor" fill-rule="evenodd" d="M7 2a3 3 0 0 1 3 3 .5.5 0 0 0 1 0 4 4 0 1 0-8 0 .5.5 0 0 0 1 0 3 3 0 0 1 3-3Zm1 8.5V5.002a1 1 0 0 0-2 0v7a.5.5 0 0 1-.916.277L3.86 10.44a.822.822 0 0 0-1.418.823l1.506 3.013a.5.5 0 0 1-.894.447l-1.507-3.012a1.821 1.821 0 0 1 3.146-1.826l.308.463V5.001a2 2 0 1 1 4 0v2.766a2 2 0 0 1 2.986 1.496c.29-.167.626-.262.985-.262 1.077 0 1.997.875 1.957 1.988-.045 1.233-.228 2.612-1.012 3.788a.5.5 0 0 1-.832-.555c.626-.939.8-2.085.844-3.27.018-.51-.41-.951-.957-.951a.97.97 0 0 0-.971.97v.03a.498.498 0 0 1-.5.5.5.5 0 0 1-.5-.5V9.5a1 1 0 0 0-2-.016v1.017a.5.5 0 1 1-1 0Z" clip-rule="evenodd"/></symbol>
  <symbol id="icon-large" fill="none" viewBox="0 0 24 24"><path fill="currentColor" fill-rule="evenodd" d="M10 2.5A3.5 3.5 0 0 1 13.5 6a.5.5 0 0 0 1 0 4.5 4.5 0 1 0-9 0 .5.5 0 0 0 1 0A3.5 3.5 0 0 1 10 2.5Zm1.5 9V6a1.5 1.5 0 1 0-3 0v10.5a.5.5 0 0 1-.929.257l-2.018-3.363a1.319 1.319 0 0 0-2.277 1.333l3.159 5.525a.5.5 0 0 1-.87.496l-3.157-5.525a2.32 2.32 0 0 1 4.002-2.344l1.09 1.816V6a2.5 2.5 0 1 1 5 0v3.5a2.5 2.5 0 0 1 4 2A2.49 2.49 0 0 1 18 11c1.382 0 2.497 1.118 2.542 2.483l.002.058c.079 2.374.143 4.294-1.084 7.156a.501.501 0 0 1-.92-.394c1.14-2.658 1.082-4.393 1.003-6.75l-.001-.036C19.514 12.674 18.827 12 18 12a1.5 1.5 0 0 0-1.5 1.5.5.5 0 1 1-1 0v-2a1.5 1.5 0 1 0-3 0V13a.5.5 0 1 1-1 0v-1.5Z" clip-rule="evenodd"/></symbol>
  <use href="#icon"/>
</svg>
