<svg xmlns="http://www.w3.org/2000/svg">
  <symbol id="icon" fill="none" viewBox="0 0 16 16"><path fill="currentColor" fill-rule="evenodd" d="M2.146 2.146a.5.5 0 0 1 .708 0l2 2a.5.5 0 0 1 0 .708l-2 2a.5.5 0 1 1-.708-.708L3.293 5H1a.5.5 0 0 1 0-1h2.293L2.146 2.854a.5.5 0 0 1 0-.708ZM15.28 5.983a1.991 1.991 0 0 0-3.474-1.945l-5.293 8.956L4.85 9.999a1.942 1.942 0 0 0-3.495 1.68l1.233 3.011a.5.5 0 0 0 .925-.38L2.28 11.3a.943.943 0 0 1 1.697-.815l2.087 3.758.036.056a.5.5 0 0 0 .831-.045l5.736-9.707a.992.992 0 0 1 1.73.969l-3.82 7.217-.01.019a.5.5 0 1 0 .876.482l.006-.01.67-1.172a1.14 1.14 0 0 1 2.01 1.076l-.575 1.149a.5.5 0 1 0 .894.446l.574-1.148a2.141 2.141 0 0 0-2.125-3.087l2.384-4.505ZM10 4a.5.5 0 0 1 0 1H7.707l1.147 1.146a.5.5 0 1 1-.708.708l-2-2a.5.5 0 0 1 0-.708l2-2a.5.5 0 1 1 .708.708L7.707 4H10Z" clip-rule="evenodd"/></symbol>
  <symbol id="icon-large" fill="none" viewBox="0 0 24 24"><path fill="currentColor" fill-rule="evenodd" d="M3.646 2.146a.5.5 0 0 1 .708 0l2 2a.5.5 0 0 1 0 .708l-2 2a.5.5 0 1 1-.708-.708L4.793 5H2.5a.5.5 0 0 1 0-1h2.293L3.646 2.854a.5.5 0 0 1 0-.708Zm13.029 3.729-3.612 6.255a.5.5 0 1 0 .866.5l.498-.863.002-.003.25-.433a1.5 1.5 0 1 1 2.598 1.5l-1 1.732a.5.5 0 1 0 .866.5 1.5 1.5 0 0 1 2.05-.55c.717.415.971 1.34.567 2.07-.758 1.37-1.374 2.437-2.419 3.58a.5.5 0 0 0 .739.674c1.13-1.236 1.793-2.393 2.555-3.769a2.536 2.536 0 0 0-.943-3.42 2.489 2.489 0 0 0-1.548-.318 2.5 2.5 0 0 0-2.464-3.732l1.86-3.224a2.213 2.213 0 0 0-3.805-2.257L8.029 13.49 5.725 9.147a1.854 1.854 0 0 0-3.402 1.437L4.06 15.98l.002.012.002.015.021.2c.017.17.038.405.051.667.028.542.022 1.132-.07 1.505-.09.363-.336.803-.588 1.18a8.416 8.416 0 0 1-.423.577c-.01.01-.017.02-.022.026l-.005.006-.004.005-.002.002-.001.002a.5.5 0 0 0 .764.645l-.382-.323.383.322v-.002l.003-.003.004-.004.003-.003.003-.004.015-.018.017-.022.116-.147a9.08 9.08 0 0 0 .362-.502c.265-.397.593-.957.727-1.496.132-.53.127-1.254.099-1.798a15.19 15.19 0 0 0-.083-.975l-.002-.015-.001-.01v-.006l-.002-.004v-.003l-.02-.088-1.751-5.445a.854.854 0 0 1 1.567-.661l2.716 5.119.035.056a.5.5 0 0 0 .834-.032l6.162-10.12a1.212 1.212 0 0 1 2.086 1.237Zm-8.248 8.884L8 14.5l.428.26ZM11.5 4a.5.5 0 0 1 0 1H9.207l1.146 1.146a.5.5 0 1 1-.707.708l-2-2a.5.5 0 0 1 0-.708l2-2a.5.5 0 1 1 .707.708L9.207 4H11.5Z" clip-rule="evenodd"/></symbol>
  <use href="#icon"/>
</svg>
