<svg xmlns="http://www.w3.org/2000/svg">
  <symbol id="icon" fill="none" viewBox="0 0 16 16"><path fill="currentColor" fill-rule="evenodd" d="M10.99 10v-.292l-.001-.01v-6.71a.99.99 0 0 0-1.979 0V8.56a.503.503 0 0 1-.01.096V9.5a.5.5 0 1 1-1 0l.007-5.51a.989.989 0 1 0-1.976-.002v7.982a.5.5 0 0 1-.93.254L3.616 9.708a.888.888 0 0 0-1.556.853l1.885 3.713a.5.5 0 1 1-.892.452L1.17 11.013A1.887 1.887 0 0 1 4.48 9.2l.552.937V4.999L5 5H2.707l1.147 1.146a.5.5 0 1 1-.708.708l-2-2a.5.5 0 0 1 0-.708l2-2a.5.5 0 1 1 .708.708L2.707 4H5.03v-.012a1.988 1.988 0 0 1 3.091-1.656 1.99 1.99 0 0 1 3.868.657V4h2.304l-1.146-1.146a.5.5 0 1 1 .707-.708l2 2a.5.5 0 0 1 0 .708l-2 2a.5.5 0 1 1-.707-.708L14.293 5H11.99v2.763a1.98 1.98 0 0 1 .988-.263c1.095 0 2 .889 1.985 1.997-.026 1.809-.176 3.132-.998 5.188a.5.5 0 0 1-.93-.37c.767-1.917.903-3.113.928-4.832a.979.979 0 0 0-.985-.983.99.99 0 0 0-.989.956V10a.5.5 0 0 1-1 0Z" clip-rule="evenodd"/></symbol>
  <symbol id="icon-large" fill="none" viewBox="0 0 24 24"><path fill="currentColor" fill-rule="evenodd" d="M15.5 13.5V5a1.5 1.5 0 0 0-3 0v8a.5.5 0 0 1-1 0V6a1.5 1.5 0 0 0-3 0v10.5a.5.5 0 0 1-.929.257l-2.018-3.363a1.319 1.319 0 0 0-2.277 1.333l3.159 5.525a.5.5 0 0 1-.87.496l-3.157-5.525a2.32 2.32 0 0 1 4.002-2.344l1.09 1.816V6a2.5 2.5 0 0 1 4.156-1.872A2.5 2.5 0 0 1 16.5 5v6.5A2.49 2.49 0 0 1 18 11c1.382 0 2.497 1.118 2.542 2.483l.002.058c.079 2.374.143 4.294-1.084 7.156a.501.501 0 0 1-.92-.394c1.14-2.658 1.082-4.393 1.003-6.75l-.001-.036C19.514 12.674 18.827 12 18 12a1.5 1.5 0 0 0-1.5 1.5.5.5 0 0 1-1 0Zm4.646-10.354a.5.5 0 0 1 .707 0l2 2a.5.5 0 0 1 0 .708l-2 2a.5.5 0 1 1-.707-.708L21.293 6H18V5h3.293l-1.146-1.146a.5.5 0 0 1 0-.708ZM2.707 5H6v1H2.707l1.147 1.146a.5.5 0 1 1-.708.708l-2-2a.5.5 0 0 1 0-.708l2-2a.5.5 0 1 1 .708.708L2.707 5Z" clip-rule="evenodd"/></symbol>
  <use href="#icon"/>
</svg>
