<svg xmlns="http://www.w3.org/2000/svg">
  <symbol id="icon" fill="none" viewBox="0 0 16 16"><path fill="currentColor" d="M8 1.5a6.5 6.5 0 1 1 0 13 6.5 6.5 0 0 1 0-13ZM2.928 5.871a5.499 5.499 0 0 0 4.915 7.625v-.355a.503.503 0 0 0-.11-.313l-.774-.968a1.502 1.502 0 0 1-.208-1.528l.348-.814-.456.01a.5.5 0 0 1-.485-.342l-.296-.884L4.7 7.4a1.496 1.496 0 0 1-1.503-.902l-.268-.627ZM8.66 9.185a.5.5 0 0 0-.459.302l-.531 1.239a.501.501 0 0 0 .07.51l.775.968c.212.266.328.596.328.937v.294a5.5 5.5 0 0 0 3.728-2.377l-2.546-1.783a.503.503 0 0 0-.287-.09H8.66Zm1.788-6.11c.022.48-.187.95-.575 1.251l-2.32 1.806a1.501 1.501 0 0 1-.921.315h-.27a.501.501 0 0 0-.353.147l-.313.312.9.7.055.05c.051.052.09.116.114.187l.224.677.744-.015c.26-.203.584-.32.927-.32h1.078a1.5 1.5 0 0 1 .86.271l2.454 1.717a5.5 5.5 0 0 0-2.604-7.099ZM8 2.5a5.486 5.486 0 0 0-4.135 1.874l-.113.683a.502.502 0 0 0 .034.279l.33.768a.5.5 0 0 0 .813.157l.373-.374c.281-.281.663-.44 1.06-.44h.27a.5.5 0 0 0 .306-.105l2.32-1.805a.5.5 0 0 0 .184-.492l-.075-.374A5.51 5.51 0 0 0 8 2.5Z"/></symbol>
  <symbol id="icon-large" fill="none" viewBox="0 0 24 24"><path fill="currentColor" fill-rule="evenodd" d="M15.121 3.556a9.004 9.004 0 0 1 4.967 12.396l-4.543-3.18a1.5 1.5 0 0 0-.86-.272h-2.026c-.086 0-.171.007-.254.022l-.003-.012-2.067.413-.36-1.081a.501.501 0 0 0-.146-.219l-.072-.052-1.638-.982.942-.943a.5.5 0 0 1 .353-.146h.743c.334 0 .658-.112.921-.316l3.741-2.91a1.5 1.5 0 0 0 .55-1.478l-.248-1.24Zm-7.918 7.649a1.502 1.502 0 0 1-1.744-.866l-.803-1.873a1.5 1.5 0 0 1-.101-.837l.15-.901A9 9 0 0 0 12 21v-1.65a.5.5 0 0 0-.11-.312l-1.407-1.758a1.5 1.5 0 0 1-.207-1.528l.843-1.966-1.021.204a.5.5 0 0 1-.573-.332l-.442-1.325-1.88-1.128Zm7.769 2.386 4.625 3.237A9 9 0 0 1 13 20.945v-1.594a1.5 1.5 0 0 0-.33-.937l-1.405-1.759a.5.5 0 0 1-.07-.509l1.005-2.343a.5.5 0 0 1 .46-.303h2.025c.102 0 .203.032.287.09Zm-.935-10.36.352 1.761a.5.5 0 0 1-.184.492l-3.741 2.91a.5.5 0 0 1-.307.106h-.743a1.5 1.5 0 0 0-1.06.44L7.19 10.101a.5.5 0 0 1-.812-.157l-.803-1.873a.5.5 0 0 1-.034-.279l.41-2.457A8.967 8.967 0 0 1 12 3c.7 0 1.382.08 2.037.231ZM12 22c5.523 0 10-4.477 10-10S17.523 2 12 2 2 6.477 2 12s4.477 10 10 10Z" clip-rule="evenodd"/></symbol>
  <use href="#icon"/>
</svg>
