<svg xmlns="http://www.w3.org/2000/svg">
  <symbol id="icon" fill="none" viewBox="0 0 16 16"><path fill="currentColor" d="M12 4v3H7v5H4V4h8Z" opacity=".48"/><path fill="currentColor" d="M12.5 2A1.5 1.5 0 0 1 14 3.5v4A1.5 1.5 0 0 1 12.5 9H9v3.5A1.5 1.5 0 0 1 7.5 14h-4A1.5 1.5 0 0 1 2 12.5v-9A1.5 1.5 0 0 1 3.5 2h9Zm-9 1a.5.5 0 0 0-.5.5v9a.5.5 0 0 0 .5.5h4a.5.5 0 0 0 .5-.5v-4a.5.5 0 0 1 .5-.5h4a.5.5 0 0 0 .5-.5v-4a.5.5 0 0 0-.5-.5h-9Z"/></symbol>
  <symbol id="icon-large" fill="none" viewBox="0 0 24 24"><path fill="currentColor" d="M20.5 12h-1a.5.5 0 0 0 .5-.5v-7a.5.5 0 0 0-.4-.49L19.5 4h-15a.5.5 0 0 0-.49.4L4 4.5v15a.5.5 0 0 0 .5.5h7a.5.5 0 0 0 .5-.5v1H3.5v-17h17V12ZM19 5v6h-7.5a.5.5 0 0 0-.5.5V19H5V5h14Z" opacity=".48"/><path fill="currentColor" d="M19.5 3A1.5 1.5 0 0 1 21 4.5v7a1.5 1.5 0 0 1-1.5 1.5H13v6.5a1.5 1.5 0 0 1-1.5 1.5h-7A1.5 1.5 0 0 1 3 19.5v-15A1.5 1.5 0 0 1 4.5 3h15Zm-15 1a.5.5 0 0 0-.5.5v15a.5.5 0 0 0 .5.5h7a.5.5 0 0 0 .5-.5v-7a.5.5 0 0 1 .5-.5h7a.5.5 0 0 0 .5-.5v-7a.5.5 0 0 0-.5-.5h-15Z"/></symbol>
  <use href="#icon"/>
</svg>
