<svg xmlns="http://www.w3.org/2000/svg">
  <symbol id="icon" fill="none" viewBox="0 0 16 16"><path fill="currentColor" fill-rule="evenodd" d="M7.628 8.505c.13.367.258.653.372.842.114-.19.243-.475.372-.841.268-.76.51-1.786.631-2.814.122-1.039.115-2.026-.079-2.732-.096-.35-.228-.593-.377-.743A.722.722 0 0 0 8 2a.722.722 0 0 0-.547.217c-.149.15-.28.393-.377.743-.194.706-.202 1.693-.08 2.732a13.69 13.69 0 0 0 .632 2.813Zm.23 1.032a.022.022 0 0 1-.003.003l.004-.003Zm.283 0a.025.025 0 0 1 .004.003l-.004-.003ZM8 1a1.72 1.72 0 0 0-1.257.513c-.313.315-.509.736-.631 1.183-.244.888-.236 2.026-.109 3.112.13 1.097.387 2.196.682 3.03.146.415.309.785.48 1.06.085.138.185.272.302.377.11.1.292.225.533.225a.8.8 0 0 0 .533-.225 1.76 1.76 0 0 0 .302-.376c.171-.276.334-.646.48-1.06.295-.835.553-1.934.681-3.03.128-1.087.136-2.225-.108-3.113-.122-.447-.318-.868-.63-1.183A1.72 1.72 0 0 0 8 1Zm-.5 12.5a.5.5 0 1 1 1 0 .5.5 0 0 1-1 0ZM8 12a1.5 1.5 0 1 0 0 3 1.5 1.5 0 0 0 0-3Z" clip-rule="evenodd"/></symbol>
  <symbol id="icon-large" fill="none" viewBox="0 0 24 24"><path fill="currentColor" fill-rule="evenodd" d="M10.49 8.899v.005l.002.006.01.045.038.172a46.105 46.105 0 0 0 .63 2.484c.196.682.413 1.344.626 1.829.074.169.143.304.204.407.061-.103.13-.238.204-.407.213-.485.43-1.147.626-1.829a42.386 42.386 0 0 0 .668-2.656l.01-.045.001-.006.001-.005.007-.042.025-.164c.02-.143.047-.35.07-.598.045-.498.074-1.153.015-1.8-.06-.656-.205-1.25-.47-1.667C12.91 4.242 12.561 4 12 4s-.91.242-1.156.628c-.266.417-.411 1.011-.471 1.667a10.14 10.14 0 0 0 .016 1.8 12.018 12.018 0 0 0 .094.762l.007.042Zm4.002.19L14 9l.489.104v.001l-.001.004-.003.012-.01.047-.04.178a46.46 46.46 0 0 1-.644 2.543c-.2.693-.431 1.406-.671 1.953a3.82 3.82 0 0 1-.394.72 1.33 1.33 0 0 1-.268.277A.766.766 0 0 1 12 15a.767.767 0 0 1-.458-.16 1.33 1.33 0 0 1-.268-.279 3.826 3.826 0 0 1-.394-.72c-.24-.546-.471-1.26-.671-1.952a43.188 43.188 0 0 1-.684-2.72l-.01-.048-.003-.012v-.004H9.51L10 9l-.492.09v-.003l-.001-.004-.002-.014-.009-.05a12.862 12.862 0 0 1-.103-.833 11.223 11.223 0 0 1-.016-1.981c.065-.719.232-1.5.623-2.114C10.41 3.446 11.062 3 12 3s1.59.446 2 1.09c.39.615.558 1.396.623 2.115.066.728.033 1.448-.016 1.98a12.804 12.804 0 0 1-.103.834l-.009.05-.002.014v.004l-.001.002ZM10 9l-.49.104v-.007l-.002-.008L10 9Zm4 0 .492.09-.001.007-.002.007L14 9Zm-3 10a1 1 0 1 1 2 0 1 1 0 0 1-2 0Zm1-2a2 2 0 1 0 0 4 2 2 0 0 0 0-4Z" clip-rule="evenodd"/></symbol>
  <use href="#icon"/>
</svg>
