<svg xmlns="http://www.w3.org/2000/svg">
  <symbol id="icon" fill="none" viewBox="0 0 16 16"><path fill="currentColor" d="M11.633 2a1.5 1.5 0 0 1 1.484 1.288l.868 6.07c.01.071.016.142.016.213v2.93a1.5 1.5 0 0 1-1.5 1.5H3.5A1.5 1.5 0 0 1 2 12.5V9.57c0-.07.005-.142.015-.212l.868-6.071A1.5 1.5 0 0 1 4.367 2h7.266ZM3.005 9.5A.51.51 0 0 0 3 9.572V12.5a.5.5 0 0 0 .5.5h9.001a.5.5 0 0 0 .5-.5V9.57a.501.501 0 0 0-.006-.071l-.071-.5h-1.806a.5.5 0 0 0-.447.277l-.447.894a1.5 1.5 0 0 1-1.342.83H7.118a1.5 1.5 0 0 1-1.342-.83l-.447-.894A.5.5 0 0 0 4.882 9H3.076l-.071.5ZM4.367 3a.5.5 0 0 0-.495.43L3.22 8h1.663a1.5 1.5 0 0 1 1.342.83l.447.894a.5.5 0 0 0 .447.277h1.764a.5.5 0 0 0 .447-.277l.447-.894A1.5 1.5 0 0 1 11.118 8h1.663l-.653-4.57a.5.5 0 0 0-.495-.43H4.367Z"/></symbol>
  <symbol id="icon-large" fill="none" viewBox="0 0 24 24"><path fill="currentColor" fill-rule="evenodd" d="M20 13h-2.78a.5.5 0 0 0-.474.342l-.544 1.633A1.5 1.5 0 0 1 14.78 16H9.221a1.5 1.5 0 0 1-1.423-1.025l-.544-1.633A.5.5 0 0 0 6.779 13H4v6.5a.5.5 0 0 0 .5.5h15a.5.5 0 0 0 .5-.5V13ZM4.059 12h2.72a1.5 1.5 0 0 1 1.423 1.025l.544 1.633a.5.5 0 0 0 .475.342h5.558a.5.5 0 0 0 .475-.342l.544-1.633A1.5 1.5 0 0 1 17.22 12h2.72l-.84-7.556A.5.5 0 0 0 18.606 4H5.395a.5.5 0 0 0-.497.444L4.058 12ZM19.5 21a1.5 1.5 0 0 0 1.5-1.5v-7a.52.52 0 0 0-.003-.056l-.901-8.11A1.5 1.5 0 0 0 18.605 3H5.395a1.5 1.5 0 0 0-1.49 1.334l-.902 8.11A.51.51 0 0 0 3 12.5v7A1.5 1.5 0 0 0 4.5 21h15Z" clip-rule="evenodd"/></symbol>
  <use href="#icon"/>
</svg>
