<svg xmlns="http://www.w3.org/2000/svg">
  <symbol id="icon" fill="none" viewBox="0 0 16 16"><path fill="currentColor" fill-rule="evenodd" d="M2.5 1a.5.5 0 0 0-.5.5v4.969l-.996 7.969A.5.5 0 0 0 1.5 15h13a.5.5 0 0 0 .496-.562L14 6.468V1.5a.5.5 0 0 0-.5-.5h-11ZM4 6H3V2h10v4h-1V3.5a.5.5 0 0 0-.5-.5h-7a.5.5 0 0 0-.5.5V6Zm1 0h6V4H5v2ZM2.941 7H13.06l.875 7H2.066l.875-7Zm2.805 1.562a.5.5 0 0 0-.992-.124l-.5 4a.5.5 0 1 0 .992.124l.5-4Zm5.5-.124a.5.5 0 1 0-.992.124l.5 4a.5.5 0 1 0 .992-.124l-.5-4ZM8.5 8.5a.5.5 0 0 0-1 0v4a.5.5 0 0 0 1 0v-4Z" clip-rule="evenodd"/></symbol>
  <symbol id="icon-large" fill="none" viewBox="0 0 24 24"><path fill="currentColor" fill-rule="evenodd" d="M5.5 2A1.5 1.5 0 0 0 4 3.5v5.98l-.908 10.895A1.5 1.5 0 0 0 4.587 22h14.826a1.5 1.5 0 0 0 1.495-1.625L20 9.48V3.5A1.5 1.5 0 0 0 18.5 2h-13ZM5 3.5a.5.5 0 0 1 .5-.5h13a.5.5 0 0 1 .5.5V9h-1.5V5a.5.5 0 0 0-.5-.5H7a.5.5 0 0 0-.5.5v4H5V3.5ZM7.5 9h9V5.5h-9V9Zm-2.54 1h14.08l.871 10.459a.5.5 0 0 1-.498.541H4.587a.5.5 0 0 1-.498-.541L4.96 10Zm3.538 2.541a.5.5 0 0 0-.996-.082l-.5 6a.5.5 0 0 0 .996.082l.5-6Zm8-.082a.5.5 0 1 0-.996.082l.5 6a.5.5 0 0 0 .996-.082l-.5-6ZM12.5 12.5a.5.5 0 0 0-1 0v6a.5.5 0 1 0 1 0v-6Z" clip-rule="evenodd"/></symbol>
  <use href="#icon"/>
</svg>
