<svg xmlns="http://www.w3.org/2000/svg">
  <symbol id="icon" fill="none" viewBox="0 0 16 16"><path fill="currentColor" fill-rule="evenodd" d="M13.5 4a.5.5 0 0 1 .5.5v7a.5.5 0 0 1-.5.5h-11a.5.5 0 0 1-.5-.5l-.001-7a.5.5 0 0 1 .5-.5h11Zm0 9a1.5 1.5 0 0 0 1.5-1.5v-7A1.5 1.5 0 0 0 13.5 3H2.499a1.5 1.5 0 0 0-1.5 1.5v7A1.5 1.5 0 0 0 2.5 13h11ZM11 10.5a.5.5 0 0 0-.5-.5h-5a.5.5 0 0 0 0 1h5a.5.5 0 0 0 .5-.5ZM5.5 8a.5.5 0 0 0-.5-.5H3.5a.5.5 0 1 0 0 1H5a.5.5 0 0 0 .5-.5Zm3.75 0a.5.5 0 0 0-.5-.5h-1.5a.5.5 0 1 0 0 1h1.5a.5.5 0 0 0 .5-.5ZM13 8a.5.5 0 0 0-.5-.5H11a.5.5 0 0 0 0 1h1.5A.5.5 0 0 0 13 8ZM5.5 5.5A.5.5 0 0 0 5 5H3.5a.5.5 0 1 0 0 1H5a.5.5 0 0 0 .5-.5Zm3.75 0a.5.5 0 0 0-.5-.5h-1.5a.5.5 0 1 0 0 1h1.5a.5.5 0 0 0 .5-.5Zm3.75 0a.5.5 0 0 0-.5-.5H11a.5.5 0 0 0 0 1h1.5a.5.5 0 0 0 .5-.5Z" clip-rule="evenodd"/></symbol>
  <symbol id="icon-large" fill="none" viewBox="0 0 24 24"><path fill="currentColor" fill-rule="evenodd" d="M20.5 6a.5.5 0 0 1 .5.5v11a.5.5 0 0 1-.5.5h-17a.5.5 0 0 1-.5-.5v-11a.5.5 0 0 1 .5-.5h17Zm0 13a1.5 1.5 0 0 0 1.5-1.5v-11A1.5 1.5 0 0 0 20.5 5h-17A1.5 1.5 0 0 0 2 6.5v11A1.5 1.5 0 0 0 3.5 19h17ZM7 15a.5.5 0 0 0-.5-.5h-1a.5.5 0 0 0 0 1h1A.5.5 0 0 0 7 15Zm8.5 0a.5.5 0 0 0-.5-.5H9a.5.5 0 0 0 0 1h6a.5.5 0 0 0 .5-.5Zm3.5 0a.5.5 0 0 0-.5-.5h-1a.5.5 0 0 0 0 1h1a.5.5 0 0 0 .5-.5ZM7 12a.5.5 0 0 0-.5-.5h-1a.5.5 0 0 0 0 1h1A.5.5 0 0 0 7 12Zm3 0a.5.5 0 0 0-.5-.5h-1a.5.5 0 0 0 0 1h1a.5.5 0 0 0 .5-.5Zm3 0a.5.5 0 0 0-.5-.5h-1a.5.5 0 0 0 0 1h1a.5.5 0 0 0 .5-.5Zm3 0a.5.5 0 0 0-.5-.5h-1a.5.5 0 0 0 0 1h1a.5.5 0 0 0 .5-.5Zm3 0a.5.5 0 0 0-.5-.5h-1a.5.5 0 0 0 0 1h1a.5.5 0 0 0 .5-.5ZM7 9a.5.5 0 0 0-.5-.5h-1a.5.5 0 0 0 0 1h1A.5.5 0 0 0 7 9Zm3 0a.5.5 0 0 0-.5-.5h-1a.5.5 0 0 0 0 1h1A.5.5 0 0 0 10 9Zm3 0a.5.5 0 0 0-.5-.5h-1a.5.5 0 0 0 0 1h1A.5.5 0 0 0 13 9Zm3 0a.5.5 0 0 0-.5-.5h-1a.5.5 0 0 0 0 1h1A.5.5 0 0 0 16 9Zm3 0a.5.5 0 0 0-.5-.5h-1a.5.5 0 0 0 0 1h1A.5.5 0 0 0 19 9Z" clip-rule="evenodd"/></symbol>
  <use href="#icon"/>
</svg>
