<svg xmlns="http://www.w3.org/2000/svg">
  <symbol id="icon" fill="none" viewBox="0 0 16 16"><path fill="currentColor" d="M11.5 2A1.5 1.5 0 0 1 13 3.5v1h-1v-1a.5.5 0 0 0-.5-.5h-7a.5.5 0 0 0-.5.5v9a.5.5 0 0 0 .5.5h7a.5.5 0 0 0 .5-.5v-1h1v1a1.5 1.5 0 0 1-1.5 1.5h-7A1.5 1.5 0 0 1 3 12.5v-9A1.5 1.5 0 0 1 4.5 2h7Zm.146 4.146a.5.5 0 0 1 .707 0l1.5 1.5c.035.034.06.073.082.114.025.043.045.09.055.141a.503.503 0 0 1 0 .196.493.493 0 0 1-.047.127.496.496 0 0 1-.09.13l-1.5 1.5a.5.5 0 1 1-.707-.708l.647-.646H8.5a.5.5 0 0 1 0-1h3.793l-.646-.647a.5.5 0 0 1 0-.707Z"/></symbol>
  <symbol id="icon-large" fill="none" viewBox="0 0 24 24"><path fill="currentColor" d="M17.5 3A1.5 1.5 0 0 1 19 4.5V7h-1V4.5a.5.5 0 0 0-.5-.5h-11a.5.5 0 0 0-.5.5v15a.5.5 0 0 0 .5.5h11a.5.5 0 0 0 .5-.5V17h1v2.5a1.5 1.5 0 0 1-1.5 1.5h-11A1.5 1.5 0 0 1 5 19.5v-15A1.5 1.5 0 0 1 6.5 3h11Zm.146 6.146a.5.5 0 0 1 .707 0l2.5 2.5a.5.5 0 0 1 0 .707l-2.5 2.5a.5.5 0 1 1-.707-.707l1.647-1.646H12.5a.5.5 0 0 1 0-1h6.793l-1.646-1.646a.5.5 0 0 1 0-.708Z"/></symbol>
  <use href="#icon"/>
</svg>
