<svg xmlns="http://www.w3.org/2000/svg">
  <symbol id="icon" fill="none" viewBox="0 0 16 16"><path fill="currentColor" fill-rule="evenodd" d="M12 1a1 1 0 0 0-1 1v2a1 1 0 0 0 1 1h2a1 1 0 0 0 1-1V2a1 1 0 0 0-1-1h-2Zm0 1h2v2h-2V2Zm-6.048-.203a1.5 1.5 0 0 1 2.086.034l.577.577a1.5 1.5 0 0 1-.047 2.166L5.423 7.457a2.208 2.208 0 1 0 3.12 3.12l2.883-3.145a1.5 1.5 0 0 1 2.166-.047l.577.577a1.5 1.5 0 0 1 .034 2.086l-2.97 3.167a5.977 5.977 0 1 1-8.448-8.449l3.167-2.969Zm1.38.741a.5.5 0 0 0-.696-.011L4.88 4.173l1.266 1.265 1.746-1.6a.5.5 0 0 0 .016-.723l-.577-.577ZM3.468 5.496l.681-.639 1.258 1.258-.66.605a3.208 3.208 0 1 0 4.532 4.533l.605-.66 1.258 1.257-.639.681A4.977 4.977 0 1 1 3.47 5.496Zm8.358 5.624-1.265-1.265 1.6-1.747a.5.5 0 0 1 .723-.016l.577.577a.5.5 0 0 1 .011.695l-1.646 1.756Z" clip-rule="evenodd"/></symbol>
  <symbol id="icon-large" fill="none" viewBox="0 0 24 24"><path fill="currentColor" fill-rule="evenodd" d="M17 4.5a.5.5 0 0 1 .5-.5h2a.5.5 0 0 1 .5.5v2a.5.5 0 0 1-.5.5h-2a.5.5 0 0 1-.5-.5v-2Zm.5-1.5A1.5 1.5 0 0 0 16 4.5v2A1.5 1.5 0 0 0 17.5 8h2A1.5 1.5 0 0 0 21 6.5v-2A1.5 1.5 0 0 0 19.5 3h-2ZM9.44 4.854a1.5 1.5 0 0 1 2.12 0l1.086 1.085a1.5 1.5 0 0 1 0 2.122l-4.792 4.793a2.328 2.328 0 1 0 3.292 3.292l4.793-4.792a1.5 1.5 0 0 1 2.122 0l1.085 1.085a1.5 1.5 0 0 1 0 2.122l-4.792 4.793a6.864 6.864 0 0 1-9.708-9.708L9.44 4.854Zm1.414.707a.5.5 0 0 0-.707 0L8.207 7.5 10 9.293l1.94-1.94a.5.5 0 0 0 0-.707l-1.086-1.085Zm-5.5 4.793L7.5 8.207 9.293 10l-2.147 2.146a3.329 3.329 0 0 0 4.708 4.708L14 14.707l1.793 1.793-2.146 2.146a5.864 5.864 0 0 1-8.293-8.292ZM16.5 15.793 14.707 14l1.94-1.94a.5.5 0 0 1 .707 0l1.085 1.086a.5.5 0 0 1 0 .708L16.5 15.793Z" clip-rule="evenodd"/></symbol>
  <use href="#icon"/>
</svg>
