<svg xmlns="http://www.w3.org/2000/svg">
  <symbol id="icon" fill="none" viewBox="0 0 16 16"><path fill="currentColor" fill-rule="evenodd" d="M9.146 2.147a3.328 3.328 0 1 1 4.707 4.707l-3 3A.5.5 0 0 1 10.5 10H9v1.5a.5.5 0 0 1-.146.354l-1 1a.5.5 0 0 1-.708 0L5.5 11.207l-4.146 4.147-.708-.707L4.793 10.5 3.146 8.854a.5.5 0 0 1 0-.707l1-1A.5.5 0 0 1 4.5 7H6V5.5a.5.5 0 0 1 .146-.353l3-3Zm4 .707a2.328 2.328 0 0 0-3.293 0L7 5.707V7.5a.5.5 0 0 1-.5.5H4.707l-.5.5L7.5 11.793l.5-.5V9.5a.5.5 0 0 1 .5-.5h1.793l2.853-2.853c.91-.91.91-2.384 0-3.293Zm-1.293 2a.5.5 0 1 0-.707-.708l-2 2a.5.5 0 1 0 .708.707l2-2Z" clip-rule="evenodd"/></symbol>
  <symbol id="icon-large" fill="none" viewBox="0 0 24 24"><path fill="currentColor" fill-rule="evenodd" d="M14.396 3.396a4.39 4.39 0 0 1 6.208 6.207l-4.25 4.25A.5.5 0 0 1 16 14h-2v2a.5.5 0 0 1-.146.354l-1.5 1.5a.5.5 0 0 1-.708 0L9.25 15.457l-6.896 6.896-.708-.707 6.897-6.896-2.397-2.396a.5.5 0 0 1 0-.708l1.5-1.5A.5.5 0 0 1 8 10h2V8a.5.5 0 0 1 .146-.354l4.25-4.25Zm5.5.707a3.389 3.389 0 0 0-4.792 0L11 8.207V10.5a.5.5 0 0 1-.5.5H8.207l-1 1L12 16.793l1-1V13.5a.5.5 0 0 1 .5-.5h2.293l4.104-4.104a3.389 3.389 0 0 0 0-4.793Zm-1.042 1.75a.5.5 0 0 0-.708-.707l-5 5a.5.5 0 0 0 .708.707l5-5Z" clip-rule="evenodd"/></symbol>
  <use href="#icon"/>
</svg>
