<svg xmlns="http://www.w3.org/2000/svg">
  <symbol id="icon" fill="none" viewBox="0 0 16 16"><path fill="currentColor" d="M10 2a1 1 0 0 1 1 1v1h2.501a1.5 1.5 0 0 1 1.5 1.5v7a1.5 1.5 0 0 1-1.5 1.5H2.5A1.5 1.5 0 0 1 1 12.5v-7A1.5 1.5 0 0 1 2.5 4H5V3a1 1 0 0 1 1-1h4Zm1 11h2.501a.5.5 0 0 0 .5-.5v-7a.5.5 0 0 0-.5-.5h-2.5v8Zm-5 0h4V5H6v8ZM2.5 5a.5.5 0 0 0-.5.5v7a.5.5 0 0 0 .5.5H5V5H2.5ZM6 4h4V3H6v1Z"/></symbol>
  <symbol id="icon-large" fill="none" viewBox="0 0 24 24"><path fill="currentColor" fill-rule="evenodd" d="M14.5 4a.5.5 0 0 1 .5.5V6H9V4.5a.5.5 0 0 1 .5-.5h5ZM8 6V4.5A1.5 1.5 0 0 1 9.5 3h5A1.5 1.5 0 0 1 16 4.5V6h4.5A1.5 1.5 0 0 1 22 7.5v11a1.5 1.5 0 0 1-1.5 1.5h-17A1.5 1.5 0 0 1 2 18.5v-11A1.5 1.5 0 0 1 3.5 6H8Zm7 1H9v12h6V7Zm1 12V7h4.5a.5.5 0 0 1 .5.5v11a.5.5 0 0 1-.5.5H16Zm-8 0H3.5a.5.5 0 0 1-.5-.5v-11a.5.5 0 0 1 .5-.5H8v12Z" clip-rule="evenodd"/></symbol>
  <use href="#icon"/>
</svg>
