<svg xmlns="http://www.w3.org/2000/svg">
  <symbol id="icon" fill="none" viewBox="0 0 16 16"><path fill="currentColor" fill-rule="evenodd" d="M15 1.5a.5.5 0 0 0-1 0V3H2V1.5a.5.5 0 0 0-1 0v4a.5.5 0 0 0 1 0V4h12v1.5a.5.5 0 0 0 1 0v-4Zm-14 8A1.5 1.5 0 0 1 2.5 8h11A1.5 1.5 0 0 1 15 9.5v4a1.5 1.5 0 0 1-1.5 1.5h-11A1.5 1.5 0 0 1 1 13.5v-4ZM2.5 9a.5.5 0 0 0-.5.5v4a.5.5 0 0 0 .5.5h11a.5.5 0 0 0 .5-.5v-4a.5.5 0 0 0-.5-.5H12v1.5a.5.5 0 0 1-1 0V9H8.5v2.5a.5.5 0 0 1-1 0V9H5v1.5a.5.5 0 0 1-1 0V9H2.5Z" clip-rule="evenodd"/></symbol>
  <symbol id="icon-large" fill="none" viewBox="0 0 24 24"><path fill="currentColor" fill-rule="evenodd" d="M22 4.5a.5.5 0 0 0-1 0V6H3V4.5a.5.5 0 0 0-1 0v4a.5.5 0 0 0 1 0V7h18v1.5a.5.5 0 0 0 1 0v-4ZM3.5 12a.5.5 0 0 0-.5.5v6a.5.5 0 0 0 .5.5h17a.5.5 0 0 0 .5-.5v-6a.5.5 0 0 0-.5-.5H19v2a.5.5 0 0 1-1 0v-2h-2v3.5a.5.5 0 0 1-1 0V12h-2.5v2a.5.5 0 0 1-1 0v-2H9v3.5a.5.5 0 0 1-1 0V12H6v2a.5.5 0 0 1-1 0v-2H3.5Zm-1.5.5A1.5 1.5 0 0 1 3.5 11h17a1.5 1.5 0 0 1 1.5 1.5v6a1.5 1.5 0 0 1-1.5 1.5h-17A1.5 1.5 0 0 1 2 18.5v-6Z" clip-rule="evenodd"/></symbol>
  <use href="#icon"/>
</svg>
