<svg xmlns="http://www.w3.org/2000/svg">
  <symbol id="icon" fill="none" viewBox="0 0 16 16"><path fill="currentColor" fill-rule="evenodd" d="M9.5 1.997a3.5 3.5 0 0 1 3.5 3.5V7h-3V6a2 2 0 0 0-1.5-1.937V1.997h1Zm-2 0v2.066A2 2 0 0 0 6 6v1H3V5.497a3.5 3.5 0 0 1 3.5-3.5h1ZM10 8.023V8h3v.997a5 5 0 0 1-10 0V8h3v.023a2 2 0 0 0 4 0Zm-2 6.974a6 6 0 0 0 6-6v-3.5a4.5 4.5 0 0 0-4.5-4.5h-3a4.5 4.5 0 0 0-4.5 4.5v3.5a6 6 0 0 0 6 6ZM9 6a1 1 0 0 0-2 0v2.023a1 1 0 0 0 2 0V6Z" clip-rule="evenodd"/></symbol>
  <symbol id="icon-large" fill="none" viewBox="0 0 24 24"><path fill="currentColor" fill-rule="evenodd" d="M13.5 3A5.5 5.5 0 0 1 19 8.5V11h-5V9a2 2 0 0 0-1.5-1.937V3h1Zm-2 0h-1A5.5 5.5 0 0 0 5 8.5V11h5V9a2 2 0 0 1 1.5-1.937V3Zm.5 11a2 2 0 0 0 2-2h5v2a7 7 0 1 1-14 0v-2h5a2 2 0 0 0 2 2Zm0 8a8 8 0 0 0 8-8V8.5A6.5 6.5 0 0 0 13.5 2h-3A6.5 6.5 0 0 0 4 8.5V14a8 8 0 0 0 8 8Zm1-13a1 1 0 1 0-2 0v3a1 1 0 1 0 2 0V9Z" clip-rule="evenodd"/></symbol>
  <use href="#icon"/>
</svg>
