<svg xmlns="http://www.w3.org/2000/svg">
  <symbol id="icon" fill="none" viewBox="0 0 16 16"><path fill="currentColor" fill-rule="evenodd" d="M2.5 3a.5.5 0 0 0-.5.5v9c0 .278.223.5.497.5h9.588a1.497 1.497 0 0 1-.085-.5v-9a.5.5 0 0 0-.5-.5h-9Zm11 11H2.497C1.667 14 1 13.326 1 12.5v-9A1.5 1.5 0 0 1 2.5 2h9A1.5 1.5 0 0 1 13 3.5v9a.5.5 0 0 0 1 0v-8a.5.5 0 0 1 1 0v8a1.5 1.5 0 0 1-1.5 1.5ZM3 10.5a.5.5 0 0 1 .5-.5h7a.5.5 0 1 1 0 1h-7a.5.5 0 0 1-.5-.5ZM3.5 4a.5.5 0 0 0-.5.5v4a.5.5 0 0 0 .5.5h7a.5.5 0 0 0 .5-.5v-4a.5.5 0 0 0-.5-.5h-7ZM4 8V5h6v3H4Z" clip-rule="evenodd"/></symbol>
  <symbol id="icon-large" fill="none" viewBox="0 0 24 24"><path fill="currentColor" fill-rule="evenodd" d="M3.5 5a.5.5 0 0 0-.5.5v13a.5.5 0 0 0 .5.5h15.585a1.497 1.497 0 0 1-.085-.5v-13a.5.5 0 0 0-.5-.5h-15Zm17 15h-17A1.5 1.5 0 0 1 2 18.5v-13A1.5 1.5 0 0 1 3.5 4h15A1.5 1.5 0 0 1 20 5.5v13a.5.5 0 0 0 1 0v-11a.5.5 0 0 1 1 0v11a1.5 1.5 0 0 1-1.5 1.5ZM5 15.5a.5.5 0 0 1 .5-.5h11a.5.5 0 0 1 0 1h-11a.5.5 0 0 1-.5-.5ZM5.5 7a.5.5 0 0 0-.5.5v5a.5.5 0 0 0 .5.5h11a.5.5 0 0 0 .5-.5v-5a.5.5 0 0 0-.5-.5h-11Zm.5 5V8h10v4H6Z" clip-rule="evenodd"/></symbol>
  <use href="#icon"/>
</svg>
