<svg xmlns="http://www.w3.org/2000/svg">
  <symbol id="icon" fill="none" viewBox="0 0 16 16"><path fill="currentColor" d="M12.5 9.5a.5.5 0 0 1 .5.5v.565c.357.092.675.279.926.534l.49-.282a.5.5 0 1 1 .5.866l-.491.282c.047.17.075.35.075.535 0 .185-.028.364-.075.534l.49.283a.5.5 0 0 1-.5.866l-.49-.283c-.25.255-.568.441-.925.534V15a.5.5 0 0 1-1 0v-.566a1.994 1.994 0 0 1-.927-.534l-.488.283a.5.5 0 0 1-.5-.866l.49-.283a2 2 0 0 1-.075-.534c0-.185.027-.365.074-.535l-.489-.282a.5.5 0 1 1 .5-.866l.488.282c.251-.255.57-.442.927-.534V10a.5.5 0 0 1 .5-.5ZM8 1.5a1 1 0 0 1 .99 1.123C10.72 3.063 12 4.633 12 6.5v.692c0 .272.02.541.057.808h-1.009a6.858 6.858 0 0 1-.042-.527L11 7.193V6.5a3 3 0 0 0-6 0v.692l-.006.28a6.923 6.923 0 0 1-1.379 3.874L3.5 11.5h5v1H7a1 1 0 0 0 1.5.864v1.07c-.16.04-.327.066-.5.066a2 2 0 0 1-2-2H3.5a1 1 0 0 1-.8-1.6l.116-.154.14-.194A5.924 5.924 0 0 0 4 7.192V6.5a4.002 4.002 0 0 1 3.008-3.876A1 1 0 0 1 8 1.5Zm4.5 10a1 1 0 1 0 0 2 1 1 0 0 0 0-2Z"/></symbol>
  <symbol id="icon-large" fill="none" viewBox="0 0 24 24"><path fill="currentColor" fill-rule="evenodd" d="M12 3a6.5 6.5 0 0 1 6.5 6.5V13h1V9.5a7.5 7.5 0 0 0-15 0v4.418l-1.035 3.107A1.5 1.5 0 0 0 4.888 19H9a3 3 0 0 0 4.8 2.4l-.6-.8A2 2 0 0 1 10 19h3.5v-1H4.888a.5.5 0 0 1-.475-.658l1.062-3.184A.5.5 0 0 0 5.5 14V9.5A6.5 6.5 0 0 1 12 3Zm6.5 18.959v.541a.5.5 0 0 0 1 0v-.541a2.997 2.997 0 0 0 1.812-1.047l.469.271a.5.5 0 0 0 .5-.866l-.469-.27a2.993 2.993 0 0 0 0-2.093l.469-.271a.5.5 0 1 0-.5-.866l-.47.27a2.997 2.997 0 0 0-1.811-1.046V15.5a.5.5 0 0 0-1 0v.541a2.997 2.997 0 0 0-1.812 1.047l-.47-.271a.5.5 0 1 0-.5.866l.47.27a2.995 2.995 0 0 0 0 2.093l-.47.271a.5.5 0 1 0 .5.866l.47-.27c.45.542 1.087.924 1.812 1.046Zm-1.24-3.945c-.166.29-.26.627-.26.986s.094.695.26.986l.008.014.007.013a2 2 0 0 0 3.449.002l.008-.015A1.99 1.99 0 0 0 21 19a1.99 1.99 0 0 0-.268-1l-.008-.015a1.999 1.999 0 0 0-3.449.002l-.007.013-.008.014Z" clip-rule="evenodd"/></symbol>
  <use href="#icon"/>
</svg>
