<svg xmlns="http://www.w3.org/2000/svg">
  <symbol id="icon" fill="none" viewBox="0 0 16 16"><path fill="currentColor" fill-rule="evenodd" d="M4 6a4 4 0 0 1 8 0v2h1V6A5 5 0 0 0 3 6v3.382l-.724 1.447A1.5 1.5 0 0 0 3.618 13H5.55A2.5 2.5 0 0 0 8 15v-1a1.5 1.5 0 0 1-1.415-1H8v-1H3.618a.5.5 0 0 1-.447-.724l.776-1.552A.5.5 0 0 0 4 9.5V6Zm9 3.5a.5.5 0 0 0-1 0v.55a2.498 2.498 0 0 0-1.371.792l-.477-.275a.5.5 0 0 0-.5.866l.476.275a2.497 2.497 0 0 0 0 1.584l-.476.275a.5.5 0 1 0 .5.866l.477-.275c.352.398.83.682 1.371.792v.55a.5.5 0 0 0 1 0v-.55a2.497 2.497 0 0 0 1.371-.792l.477.275a.5.5 0 1 0 .5-.866l-.476-.275a2.497 2.497 0 0 0 0-1.584l.476-.275a.5.5 0 1 0-.5-.866l-.477.275A2.497 2.497 0 0 0 13 10.05V9.5Zm-2 3a1.5 1.5 0 1 1 3 0 1.5 1.5 0 0 1-3 0Z" clip-rule="evenodd"/></symbol>
  <symbol id="icon-large" fill="none" viewBox="0 0 24 24"><path fill="currentColor" fill-rule="evenodd" d="M5.5 9.5a6.5 6.5 0 0 1 13 0V13h1V9.5a7.5 7.5 0 0 0-15 0v4.419l-1.036 3.107A1.5 1.5 0 0 0 4.887 19H9a3 3 0 0 0 4.8 2.4l-.6-.8A2 2 0 0 1 10 19h3.5v-1H4.887a.5.5 0 0 1-.474-.658l1.061-3.184A.5.5 0 0 0 5.5 14V9.5Zm14 6a.5.5 0 0 0-1 0v.541a2.997 2.997 0 0 0-1.812 1.047l-.47-.271a.5.5 0 1 0-.5.866l.47.27a2.995 2.995 0 0 0 0 2.093l-.47.271a.5.5 0 1 0 .5.866l.47-.27c.45.542 1.087.924 1.812 1.046v.541a.5.5 0 0 0 1 0v-.541a2.997 2.997 0 0 0 1.812-1.047l.469.271a.5.5 0 0 0 .5-.866l-.469-.27a2.993 2.993 0 0 0 0-2.093l.469-.271a.5.5 0 1 0-.5-.866l-.47.27a2.997 2.997 0 0 0-1.811-1.046V15.5Zm1.241 4.485A1.99 1.99 0 0 0 21 19a1.99 1.99 0 0 0-.268-1l-.008-.015a1.999 1.999 0 0 0-3.449.002l-.007.013-.008.014c-.166.29-.26.627-.26.986s.094.695.26.986l.008.014.007.013a2 2 0 0 0 3.449.002l.008-.015a.782.782 0 0 1 .01-.015Z" clip-rule="evenodd"/></symbol>
  <use href="#icon"/>
</svg>
