<svg xmlns="http://www.w3.org/2000/svg">
  <symbol id="icon" fill="none" viewBox="0 0 16 16"><path fill="currentColor" d="M2.5 7.5a6 6 0 0 1 6 6 .5.5 0 1 1-1 0 5 5 0 0 0-5-5 .5.5 0 0 1 0-1Zm8.16 3.544a.48.48 0 0 1 .683.332A8.43 8.43 0 0 1 11.499 13v.5a.5.5 0 1 1-1 0V13c0-.47-.043-.93-.126-1.376a.53.53 0 0 1 .288-.58ZM8.976 7.73a.479.479 0 0 1 .717.032A8.5 8.5 0 0 1 10.7 9.4c.112.24 0 .52-.24.633a.527.527 0 0 1-.692-.263 7.495 7.495 0 0 0-.826-1.345.529.529 0 0 1 .033-.695Zm-3.01-2.19a.478.478 0 0 1 .633-.24 8.499 8.499 0 0 1 1.638 1.007.48.48 0 0 1 .032.718.529.529 0 0 1-.695.034 7.501 7.501 0 0 0-1.346-.827.527.527 0 0 1-.262-.692ZM13.6 2.01a.5.5 0 0 1 .4.49v2a.5.5 0 1 1-1 0v-.792l-2.147 2.146a.5.5 0 1 1-.707-.707L12.292 3H11.5a.5.5 0 0 1 0-1h2l.101.01ZM3 4.5a8.51 8.51 0 0 1 1.624.157.48.48 0 0 1 .332.683.53.53 0 0 1-.581.288A7.514 7.514 0 0 0 3 5.5h-.5a.5.5 0 0 1 0-1H3Z"/></symbol>
  <symbol id="icon-large" fill="none" viewBox="0 0 24 24"><path fill="currentColor" d="M4 11.5a8.5 8.5 0 0 1 8.5 8.5v.5a.5.5 0 1 1-1 0V20A7.5 7.5 0 0 0 4 12.5h-.5a.5.5 0 0 1 0-1H4Zm11.553 5.415c.276-.1.58.057.645.344.197.882.302 1.8.302 2.74v.5a.5.5 0 0 1-1 0V20c0-.852-.094-1.683-.27-2.483a.518.518 0 0 1 .323-.601Zm-2.578-4.83a.486.486 0 0 1 .722.029 12.504 12.504 0 0 1 1.683 2.717.484.484 0 0 1-.283.653.517.517 0 0 1-.643-.276c-.402-.875-.91-1.69-1.508-2.43a.519.519 0 0 1 .03-.693Zm-4.46-3.183a.485.485 0 0 1 .654-.283c.98.445 1.892 1.013 2.716 1.684a.486.486 0 0 1 .03.721.519.519 0 0 1-.693.03 11.502 11.502 0 0 0-2.43-1.508.518.518 0 0 1-.277-.644ZM20.6 3.01a.5.5 0 0 1 .4.49V7a.5.5 0 1 1-1 0V4.707l-4.147 4.146a.5.5 0 0 1-.707-.707L19.292 4H17a.5.5 0 0 1 0-1h3.5l.101.01ZM4 7.5c.941 0 1.86.105 2.742.302a.485.485 0 0 1 .343.644.52.52 0 0 1-.601.323C5.684 8.593 4.852 8.5 4 8.5h-.5a.5.5 0 0 1 0-1H4Z"/></symbol>
  <use href="#icon"/>
</svg>
