<svg xmlns="http://www.w3.org/2000/svg">
  <symbol id="icon" fill="none" viewBox="0 0 16 16"><path fill="currentColor" d="M7.534 8.846c-.356-.83.482-1.668 1.312-1.313l5.032 2.156c.696.3.56 1.324-.189 1.432l-2.246.321-.321 2.246c-.108.75-1.133.886-1.432.19L7.534 8.846ZM4.6 11.01a.5.5 0 0 1 .4.49v2l-.01.098A.5.5 0 0 1 4.5 14h-2a.5.5 0 0 1-.5-.5v-2a.5.5 0 0 1 .5-.5h2l.101.01ZM3 13h1v-1H3v1Zm4-1a.5.5 0 0 1 0 1H6a.5.5 0 0 1 0-1h1Zm3.257.663.196-1.362a1 1 0 0 1 .848-.849l1.363-.195-4.211-1.805 1.804 4.211ZM3.5 8.5A.5.5 0 0 1 4 9v1l-.01.1a.5.5 0 0 1-.98 0L3 10V9a.5.5 0 0 1 .5-.5Zm0-3A.5.5 0 0 1 4 6v1a.5.5 0 0 1-1 0V6a.5.5 0 0 1 .5-.5Zm9 0a.5.5 0 0 1 .5.5v1l-.01.1a.5.5 0 0 1-.98 0L12 7V6a.5.5 0 0 1 .5-.5ZM4.6 2.01a.5.5 0 0 1 .4.49v2l-.01.098A.5.5 0 0 1 4.5 5h-2a.5.5 0 0 1-.5-.5v-2a.5.5 0 0 1 .5-.5h2l.101.01Zm9 0a.5.5 0 0 1 .4.49l-.002 2-.01.098A.5.5 0 0 1 13.5 5h-2a.5.5 0 0 1-.5-.5l.002-2a.5.5 0 0 1 .5-.5h2l.1.01ZM3 4h1V3H3v1Zm4-1a.5.5 0 0 1 0 1H6a.5.5 0 0 1 0-1h1Zm3 0a.5.5 0 0 1 0 1H9a.5.5 0 0 1 0-1h1Zm2 1h1V3h-1v1Z"/></symbol>
  <symbol id="icon-large" fill="none" viewBox="0 0 24 24"><path fill="currentColor" d="M10.951 12.246c-.317-.812.483-1.612 1.295-1.295l9.03 3.532c.896.351.827 1.643-.102 1.897l-3.767 1.027-1.027 3.767c-.253.929-1.545.998-1.896.101l-3.533-9.029ZM5.001 15.5a.5.5 0 0 1 .5.5v1h1l.097.01A.5.5 0 0 1 7 17.5v1h1a.5.5 0 0 1 0 1H7v1a.5.5 0 0 1-.5.5h-3a.5.5 0 0 1-.5-.5v-3l.01-.1a.5.5 0 0 1 .49-.4h1v-1a.5.5 0 0 1 .5-.5Zm10.414 5.411 1.028-3.767.043-.124a1 1 0 0 1 .659-.578l3.766-1.027-9.029-3.533 3.533 9.03ZM4 20h2v-2H4v2Zm7-1.5a.5.5 0 0 1 0 1h-1a.5.5 0 0 1 0-1h1Zm-6-6a.5.5 0 0 1 .5.5v1a.5.5 0 0 1-1 0v-1a.5.5 0 0 1 .5-.5Zm0-3a.5.5 0 0 1 .5.5v1a.5.5 0 0 1-1 0v-1a.5.5 0 0 1 .5-.5Zm14 0a.5.5 0 0 1 .5.5v1a.5.5 0 0 1-1 0v-1a.5.5 0 0 1 .5-.5ZM6.598 3.01A.5.5 0 0 1 7 3.5v1h1a.5.5 0 0 1 0 1H7v1a.5.5 0 0 1-.5.5h-1v1a.5.5 0 0 1-1 0V7h-1a.5.5 0 0 1-.5-.5v-3l.01-.1A.5.5 0 0 1 3.5 3h3l.098.01Zm14 0A.5.5 0 0 1 21 3.5v3a.5.5 0 0 1-.5.5h-1v1a.5.5 0 0 1-1 0V7h-1a.5.5 0 0 1-.5-.5v-1h-1a.5.5 0 0 1 0-1h1v-1l.01-.1a.5.5 0 0 1 .49-.4h3l.098.01ZM4 6h2V4H4v2Zm14 0h2V4h-2v2Zm-7-1.5a.5.5 0 0 1 0 1h-1a.5.5 0 0 1 0-1h1Zm3.1.01a.5.5 0 0 1 0 .98l-.1.01h-1a.5.5 0 0 1 0-1h1l.1.01Z"/></symbol>
  <use href="#icon"/>
</svg>
