<svg xmlns="http://www.w3.org/2000/svg">
  <symbol id="icon" fill="none" viewBox="0 0 16 16"><path fill="currentColor" d="M8.336 1.509A6.5 6.5 0 0 1 14.5 8c0 .973-.48 1.75-1.142 2.257-.645.494-1.47.743-2.282.743H9.729a.729.729 0 0 0-.728.729v1.488c0 .717-.591 1.293-1.308 1.276l.025-1a.277.277 0 0 0 .277-.22L8 13.217v-1.489c0-.894.68-1.63 1.551-1.72L9.73 10h1.348l.23-.009c1.148-.089 2.194-.834 2.194-1.991a5.5 5.5 0 1 0-5.783 5.493l-.051 1A6.5 6.5 0 0 1 8 1.5l.335.009ZM5 8.75a1 1 0 1 1 0 2 1 1 0 0 1 0-2Zm.25-3.25a1 1 0 1 1 0 2 1 1 0 0 1 0-2ZM11 5a1 1 0 1 1 0 2 1 1 0 0 1 0-2ZM8 3.5a1 1 0 1 1 0 2 1 1 0 0 1 0-2Z"/></symbol>
  <symbol id="icon-large" fill="none" viewBox="0 0 24 24"><path fill="currentColor" fill-rule="evenodd" d="M21 12a9 9 0 1 0-18 0 9.004 9.004 0 0 0 6.43 8.628c.543.161 1.042.01 1.422-.337.389-.355.648-.916.648-1.541a3.25 3.25 0 0 1 3.25-3.25h2.75A3.5 3.5 0 0 0 21 12Zm1 0a4.5 4.5 0 0 1-4.5 4.5h-2.75a2.25 2.25 0 0 0-2.25 2.25c0 .894-.369 1.727-.973 2.28-.612.559-1.47.827-2.382.556C5.013 20.357 2 16.53 2 12 2 6.477 6.477 2 12 2s10 4.477 10 10ZM8 14a.5.5 0 1 0-1 0 .5.5 0 0 0 1 0Zm1 0a1.5 1.5 0 1 1-3 0 1.5 1.5 0 0 1 3 0ZM8 9a.5.5 0 1 1 0 1 .5.5 0 0 1 0-1Zm0 2a1.5 1.5 0 1 0 0-3 1.5 1.5 0 0 0 0 3Zm4.5-4a.5.5 0 1 0-1 0 .5.5 0 0 0 1 0Zm1 0a1.5 1.5 0 1 1-3 0 1.5 1.5 0 0 1 3 0ZM16 8.5a.5.5 0 1 1 0 1 .5.5 0 0 1 0-1Zm0 2a1.5 1.5 0 1 0 0-3 1.5 1.5 0 0 0 0 3Z" clip-rule="evenodd"/></symbol>
  <use href="#icon"/>
</svg>
