<svg xmlns="http://www.w3.org/2000/svg">
  <symbol id="icon" fill="none" viewBox="0 0 16 16"><path fill="currentColor" d="M12.31 8.884a.5.5 0 0 1 .44.03l2 1.153a.5.5 0 0 1 .25.433v2.346a.5.5 0 0 1-.25.432l-2 1.155a.5.5 0 0 1-.5 0l-2-1.155a.5.5 0 0 1-.25-.432V10.5a.5.5 0 0 1 .25-.433l2-1.154.06-.03ZM8 2c1.83 0 3.507.231 4.743.613.615.19 1.148.426 1.54.71.378.274.717.666.717 1.177V8h-1V5.828c-.527.296-1.244.536-2.057.718a.55.55 0 0 0-.443.522V8h-1v-.932c0-.742.537-1.344 1.226-1.498.771-.173 1.384-.388 1.792-.618.444-.251.482-.423.482-.452 0-.035-.025-.166-.305-.368-.267-.194-.685-.39-1.247-.564C11.331 3.223 9.758 3 8 3c-1.76 0-3.333.218-4.45.558-.562.17-.98.364-1.247.555-.279.2-.303.33-.303.365 0 .032.044.208.486.462.407.235 1.02.454 1.79.63.687.155 1.224.756 1.224 1.498v3.08a20.555 20.555 0 0 1 3.5-.124v1.002a19.444 19.444 0 0 0-3.5.13v1.376c0 .853-.73 1.57-1.6 1.46l-.175-.033c-.73-.183-1.37-.416-1.841-.702C1.44 12.987 1 12.577 1 12V4.5h.001L1 4.478c0-.513.34-.903.719-1.176.391-.282.925-.514 1.54-.701C4.494 2.225 6.17 2 8 2Zm3 10.556 1 .578v-1.19l-1-.578v1.19Zm2-.613v1.19l1-.577v-1.19l-1 .577ZM2 12c0 .024.027.174.403.402.35.212.881.415 1.565.586l.095.013a.45.45 0 0 0 .437-.469V7.068a.552.552 0 0 0-.444-.523C3.243 6.36 2.527 6.115 2 5.813V12Zm9.5-1.5 1 .577.999-.577-.999-.578-1 .578Z"/></symbol>
  <symbol id="icon-large" fill="none" viewBox="0 0 24 24"><path fill="currentColor" fill-rule="evenodd" d="M16 9.07c0-.751.552-1.369 1.269-1.498 1.228-.221 2.214-.512 2.879-.837.333-.162.56-.32.698-.463.135-.14.154-.229.154-.272 0-.072-.064-.27-.51-.549-.421-.261-1.063-.515-1.9-.735C16.923 4.277 14.593 4 12 4s-4.923.277-6.59.716c-.837.22-1.479.474-1.9.735C3.065 5.73 3 5.928 3 6c0 .043.019.133.154.272.138.142.365.3.699.463.664.325 1.65.616 2.878.837C7.448 7.702 8 8.32 8 9.07v6.158A33.858 33.858 0 0 1 12 15c.517 0 1.025.01 1.52.031l.5.022-.041.999-.5-.022A35.53 35.53 0 0 0 12 16c-1.434 0-2.79.085-4 .236v2.815c0 .903-.808 1.632-1.731 1.453-1.194-.232-2.211-.54-2.943-.913-.365-.186-.685-.402-.918-.652C2.173 18.688 2 18.371 2 18V6c0-.619.468-1.077.982-1.397.541-.337 1.291-.622 2.173-.854C6.927 3.283 9.347 3 12 3c2.653 0 5.073.283 6.845.749.882.232 1.632.517 2.173.854.514.32.982.778.982 1.397v8h-1V7.409c-.13.08-.268.155-.414.226-.781.38-1.867.693-3.14.922A.532.532 0 0 0 17 9.07V14h-1V9.07ZM3.414 7.635A4.863 4.863 0 0 1 3 7.409V18c0 .042.017.127.14.258.125.134.333.285.64.441.614.313 1.529.6 2.679.822.27.053.54-.158.541-.47V9.07a.532.532 0 0 0-.446-.514c-1.273-.23-2.359-.541-3.14-.922Zm15.834 6.93a.5.5 0 0 0-.437-.028l-.059.028-3.5 2A.5.5 0 0 0 15 17v4a.5.5 0 0 0 .252.435l3.5 2a.5.5 0 0 0 .496 0l3.5-2A.5.5 0 0 0 23 21v-4a.5.5 0 0 0-.252-.435l-3.5-2ZM22 17.862l-2.5 1.429v2.846L22 20.71v-2.847Zm-3.5 1.429L16 17.862v2.847l2.5 1.428v-2.846Zm.5-.868L16.508 17 19 15.576 21.491 17 19 18.423Z" clip-rule="evenodd"/></symbol>
  <use href="#icon"/>
</svg>
