<svg xmlns="http://www.w3.org/2000/svg">
  <symbol id="icon" fill="none" viewBox="0 0 16 16"><path fill="currentColor" d="M13.5 9.5a.5.5 0 0 1 .5.5v2.5a1.5 1.5 0 0 1-1.5 1.5h-9A1.5 1.5 0 0 1 2 12.5V10a.5.5 0 0 1 1 0v2.5a.5.5 0 0 0 .5.5h2v-3a.5.5 0 0 1 1 0v3h3v-3a.5.5 0 0 1 1 0v3h2a.5.5 0 0 0 .5-.5V10a.5.5 0 0 1 .5-.5Zm-1-7.5A1.5 1.5 0 0 1 14 3.5V6a.5.5 0 0 1-1 0V3.5a.5.5 0 0 0-.5-.5h-2v3a.5.5 0 0 1-1 0V3h-3v3a.5.5 0 0 1-1 0V3h-2a.5.5 0 0 0-.5.5V6a.5.5 0 0 1-1 0V3.5A1.5 1.5 0 0 1 3.5 2h9Z"/></symbol>
  <symbol id="icon-large" fill="none" viewBox="0 0 24 24"><path fill="currentColor" d="M20.5 14a.5.5 0 0 1 .5.5v5a1.5 1.5 0 0 1-1.5 1.5h-15A1.5 1.5 0 0 1 3 19.5v-5a.5.5 0 0 1 1 0v5a.5.5 0 0 0 .5.5h4v-5.5a.5.5 0 0 1 1 0V20h5v-5.5a.5.5 0 0 1 1 0V20h4a.5.5 0 0 0 .5-.5v-5a.5.5 0 0 1 .5-.5Zm-1-11A1.5 1.5 0 0 1 21 4.5v5a.5.5 0 0 1-1 0v-5a.5.5 0 0 0-.5-.5h-4v5.5a.5.5 0 0 1-1 0V4h-5v5.5a.5.5 0 0 1-1 0V4h-4a.5.5 0 0 0-.5.5v5a.5.5 0 0 1-1 0v-5A1.5 1.5 0 0 1 4.5 3h15Z"/></symbol>
  <use href="#icon"/>
</svg>
