<svg xmlns="http://www.w3.org/2000/svg">
  <symbol id="icon" fill="none" viewBox="0 0 16 16"><path fill="currentColor" d="M7.5 2a.5.5 0 0 1 0 1H6v10h1.5a.5.5 0 0 1 0 1h-4a.5.5 0 0 1 0-1H5V3H3.5a.5.5 0 0 1 0-1h4ZM4 6h-.5a.5.5 0 0 0-.5.5v3a.5.5 0 0 0 .5.5H4v1h-.5A1.5 1.5 0 0 1 2 9.5v-3A1.5 1.5 0 0 1 3.5 5H4v1Zm8.5-1A1.5 1.5 0 0 1 14 6.5v3a1.5 1.5 0 0 1-1.5 1.5H7v-1h5.5a.5.5 0 0 0 .5-.5v-3a.5.5 0 0 0-.5-.5H7V5h5.5Zm-4 2.25a.75.75 0 1 1 0 1.501.75.75 0 0 1 0-1.5Zm2.5 0a.75.75 0 1 1 0 1.501.75.75 0 0 1 0-1.5Z"/></symbol>
  <symbol id="icon-large" fill="none" viewBox="0 0 24 24"><path fill="currentColor" d="M10.5 3a.5.5 0 0 1 0 1H8v16h2.5a.5.5 0 0 1 0 1h-6a.5.5 0 0 1 0-1H7V4H4.5a.5.5 0 0 1 0-1h6ZM6 9H5a1 1 0 0 0-1 1v4a1 1 0 0 0 1 1h1v1H5a2 2 0 0 1-2-2v-4a2 2 0 0 1 2-2h1v1Zm13-1a2 2 0 0 1 2 2v4a2 2 0 0 1-2 2H9v-1h10a1 1 0 0 0 1-1v-4a1 1 0 0 0-1-1H9V8h10Zm-6.853 2.647a.5.5 0 1 1 .707.707l-.647.647.647.646a.5.5 0 0 1-.707.707l-.647-.646-.646.646a.5.5 0 0 1-.707-.707l.646-.646-.646-.647a.5.5 0 1 1 .707-.707l.646.646.647-.646Zm5 0a.5.5 0 1 1 .707.707l-.647.647.647.646a.5.5 0 0 1-.707.707l-.647-.646-.646.646a.5.5 0 0 1-.707-.707l.646-.646-.646-.647a.5.5 0 0 1 .707-.707l.646.646.647-.646Z"/></symbol>
  <use href="#icon"/>
</svg>
