<svg xmlns="http://www.w3.org/2000/svg">
  <symbol id="icon" fill="none" viewBox="0 0 16 16"><path fill="currentColor" fill-rule="evenodd" d="M12.854 2.146a.5.5 0 0 0-.708.708L13.293 4H10a.5.5 0 0 0 0 1h3.293l-1.147 1.146a.5.5 0 0 0 .708.708l2-2a.5.5 0 0 0 0-.708l-2-2Zm-9 7a.5.5 0 0 1 0 .708L2.707 11H6a.5.5 0 0 1 0 1H2.707l1.147 1.146a.5.5 0 0 1-.708.708l-2-2a.5.5 0 0 1 0-.708l2-2a.5.5 0 0 1 .708 0Zm11 3.708A.5.5 0 0 0 15 12.5v-2a.5.5 0 0 0-.5-.5h-2a.5.5 0 0 0-.5.5v.5H8v1h4v.5a.5.5 0 0 0 .5.5h2a.5.5 0 0 0 .354-.146ZM13 11h1v1h-1v-1ZM4 4v-.5a.5.5 0 0 0-.5-.5h-2a.5.5 0 0 0-.5.5v2a.5.5 0 0 0 .5.5h2a.5.5 0 0 0 .5-.5V5h4V4H4ZM2 4h1v1H2V4Z" clip-rule="evenodd"/></symbol>
  <symbol id="icon-large" fill="none" viewBox="0 0 24 24"><path fill="currentColor" fill-rule="evenodd" d="M18.354 3.146a.5.5 0 0 0-.708.708L19.293 5.5H14a.5.5 0 0 0 0 1h5.293l-1.647 1.646a.5.5 0 0 0 .708.708l2.5-2.5a.5.5 0 0 0 0-.708l-2.5-2.5Zm-12 12a.5.5 0 0 1 0 .708L4.707 17.5H10a.5.5 0 0 1 0 1H4.707l1.647 1.646a.5.5 0 0 1-.708.708l-2.5-2.5a.5.5 0 0 1 0-.708l2.5-2.5a.5.5 0 0 1 .708 0ZM18 18a1 1 0 1 1 2 0 1 1 0 0 1-2 0Zm-.937.5H12v-1h5.063a2 2 0 1 1 0 1ZM6.937 5.5a2 2 0 1 0 0 1H12v-1H6.937ZM4 6a1 1 0 1 1 2 0 1 1 0 0 1-2 0Z" clip-rule="evenodd"/></symbol>
  <use href="#icon"/>
</svg>
