<svg xmlns="http://www.w3.org/2000/svg">
  <symbol id="icon" fill="none" viewBox="0 0 16 16"><path fill="currentColor" fill-rule="evenodd" d="M14.854 3.854A.5.5 0 0 0 15 3.5v-2a.5.5 0 0 0-.5-.5h-2a.5.5 0 0 0-.5.5v2a.5.5 0 0 0 .5.5h2a.5.5 0 0 0 .354-.146ZM13 2h1v1h-1V2ZM3 6.5A3.5 3.5 0 0 1 6.5 3H7a.5.5 0 0 0 0-1h-.5A4.5 4.5 0 0 0 2 6.5V7a.5.5 0 0 0 1 0v-.5Zm-.5 2A.5.5 0 0 1 3 9v2H2V9a.5.5 0 0 1 .5-.5Zm1.5 4v2a.5.5 0 0 1-.5.5h-2a.5.5 0 0 1-.5-.5v-2a.5.5 0 0 1 .5-.5h2a.5.5 0 0 1 .5.5ZM3 13H2v1h1v-1ZM8.5 2.5A.5.5 0 0 1 9 2h2v1H9a.5.5 0 0 1-.5-.5Z" clip-rule="evenodd"/></symbol>
  <symbol id="icon-large" fill="none" viewBox="0 0 24 24"><path fill="currentColor" fill-rule="evenodd" d="M18 5a1 1 0 1 1 2 0 1 1 0 0 1-2 0Zm1-2a2 2 0 1 0 0 4 2 2 0 0 0 0-4ZM5.5 11A5.5 5.5 0 0 1 11 5.5a.5.5 0 0 0 0-1A6.5 6.5 0 0 0 4.5 11a.5.5 0 0 0 1 0ZM5 12.5a.5.5 0 0 1 .5.5v3h-1v-3a.5.5 0 0 1 .5-.5ZM5 18a1 1 0 1 0 0 2 1 1 0 0 0 0-2Zm-2 1a2 2 0 1 1 4 0 2 2 0 0 1-4 0Zm9.5-14a.5.5 0 0 1 .5-.5h3v1h-3a.5.5 0 0 1-.5-.5Z" clip-rule="evenodd"/></symbol>
  <use href="#icon"/>
</svg>
