<svg xmlns="http://www.w3.org/2000/svg">
  <symbol id="icon" fill="none" viewBox="0 0 16 16"><path fill="currentColor" d="m8.144 2.022 5 1.5a.5.5 0 0 1 .35.554l-1 6.5a.502.502 0 0 1-.194.325l-4 3a.5.5 0 0 1-.6 0l-4-3a.501.501 0 0 1-.194-.325l-1-6.5a.5.5 0 0 1 .35-.554l5-1.5.072-.017a.502.502 0 0 1 .216.017Zm-3.68 8.2L7.5 12.499V5.871L3.614 4.705l.85 5.517ZM8.5 5.872v6.626l3.037-2.276.848-5.516L8.5 5.871ZM4.737 3.998 8 4.98 11.262 4 8 3.022l-3.263.977Z"/></symbol>
  <symbol id="icon-large" fill="none" viewBox="0 0 24 24"><path fill="currentColor" fill-rule="evenodd" d="m12.114 2.014 8.5 2a.5.5 0 0 1 .374.592l-2.5 11.5a.5.5 0 0 1-.15.262l-6 5.5a.5.5 0 0 1-.676 0l-6-5.5a.5.5 0 0 1-.15-.262l-2.5-11.5a.5.5 0 0 1 .374-.592l8.5-2L12 2a.5.5 0 0 1 .114.014ZM4.178 5.27l2.276 10.468 5.046 4.625V7.853L4.178 5.27Zm1.094-.675L12 6.97l6.727-2.375L12 3.013 5.272 4.595Zm14.549.675L12.5 7.854v12.509l5.045-4.625L19.82 5.27Z" clip-rule="evenodd"/></symbol>
  <use href="#icon"/>
</svg>
