<svg xmlns="http://www.w3.org/2000/svg">
  <symbol id="icon" fill="none" viewBox="0 0 16 16"><path fill="currentColor" d="M4.75 8.5a2.75 2.75 0 1 1 0 5.5 2.75 2.75 0 0 1 0-5.5Zm6.75.5a.5.5 0 0 1 .5.5V11h1.5a.5.5 0 0 1 0 1H12v1.5a.5.5 0 0 1-1 0V12H9.5a.5.5 0 0 1 0-1H11V9.5a.5.5 0 0 1 .5-.5Zm-6.75.5a1.75 1.75 0 1 0 0 3.5 1.75 1.75 0 0 0 0-3.5Zm6.475-7.668a.501.501 0 0 1 .629.064l2.5 2.5a.5.5 0 0 1 0 .707l-2.5 2.5a.5.5 0 0 1-.707 0l-2.5-2.5a.5.5 0 0 1 0-.707l2.5-2.5.078-.064ZM6 2a1.5 1.5 0 0 1 1.5 1.5V6A1.5 1.5 0 0 1 6 7.5H3.5A1.5 1.5 0 0 1 2 6V3.5A1.5 1.5 0 0 1 3.5 2H6Zm3.707 2.75L11.5 6.543l1.793-1.793L11.5 2.957 9.707 4.75ZM3.5 3a.5.5 0 0 0-.5.5V6a.5.5 0 0 0 .5.5H6a.5.5 0 0 0 .5-.5V3.5A.5.5 0 0 0 6 3H3.5Z"/></symbol>
  <symbol id="icon-large" fill="none" viewBox="0 0 24 24"><path fill="currentColor" fill-rule="evenodd" d="M17.225 2.582a.5.5 0 0 1 .628.064l4 4a.5.5 0 0 1 0 .708l-4 4a.5.5 0 0 1-.707 0l-4-4a.5.5 0 0 1 0-.708l4-4 .079-.064ZM14.207 7l3.293 3.293L20.793 7 17.5 3.707 14.207 7ZM7 14a3 3 0 1 1 0 6 3 3 0 0 1 0-6Zm0 7a4 4 0 1 0 0-8 4 4 0 0 0 0 8Zm10-3.5v3a.5.5 0 0 0 1 0v-3h3a.5.5 0 0 0 0-1h-3v-3a.5.5 0 0 0-1 0v3h-3a.5.5 0 0 0 0 1h3ZM9.5 4a.5.5 0 0 1 .5.5v5a.5.5 0 0 1-.5.5h-5a.5.5 0 0 1-.5-.5v-5a.5.5 0 0 1 .5-.5h5Zm0 7A1.5 1.5 0 0 0 11 9.5v-5A1.5 1.5 0 0 0 9.5 3h-5A1.5 1.5 0 0 0 3 4.5v5A1.5 1.5 0 0 0 4.5 11h5Z" clip-rule="evenodd"/></symbol>
  <use href="#icon"/>
</svg>
