<svg xmlns="http://www.w3.org/2000/svg">
  <symbol id="icon" fill="none" viewBox="0 0 16 16"><path fill="currentColor" d="M6 8.5A1.5 1.5 0 0 1 7.5 10v2.5A1.5 1.5 0 0 1 6 14H3.5A1.5 1.5 0 0 1 2 12.5V10a1.5 1.5 0 0 1 1.5-1.5H6Zm-2.5 1a.5.5 0 0 0-.5.5v2.5a.5.5 0 0 0 .5.5H6a.5.5 0 0 0 .5-.5V10a.5.5 0 0 0-.5-.5H3.5Zm9.5 1a2.5 2.5 0 0 1-2.5 2.5h-2v-1h2a1.5 1.5 0 0 0 1.5-1.5v-2h1v2ZM7.5 4h-2A1.5 1.5 0 0 0 4 5.5v2H3v-2A2.5 2.5 0 0 1 5.5 3h2v1Zm5-2A1.5 1.5 0 0 1 14 3.5V6a1.5 1.5 0 0 1-1.5 1.5H10A1.5 1.5 0 0 1 8.5 6V3.5A1.5 1.5 0 0 1 10 2h2.5ZM10 3a.5.5 0 0 0-.5.5V6a.5.5 0 0 0 .5.5h2.5A.5.5 0 0 0 13 6V3.5a.5.5 0 0 0-.5-.5H10Z"/></symbol>
  <symbol id="icon-large" fill="none" viewBox="0 0 24 24"><path fill="currentColor" d="M9.5 13a1.5 1.5 0 0 1 1.5 1.5v5A1.5 1.5 0 0 1 9.5 21h-5A1.5 1.5 0 0 1 3 19.5v-5A1.5 1.5 0 0 1 4.5 13h5Zm-5 1a.5.5 0 0 0-.5.5v5a.5.5 0 0 0 .5.5h5a.5.5 0 0 0 .5-.5v-5a.5.5 0 0 0-.5-.5h-5ZM20 17.5a2.5 2.5 0 0 1-2.5 2.5H13v-1h4.5a1.5 1.5 0 0 0 1.5-1.5V13h1v4.5ZM11 5H6.5A1.5 1.5 0 0 0 5 6.5V11H4V6.5A2.5 2.5 0 0 1 6.5 4H11v1Zm8.5-2A1.5 1.5 0 0 1 21 4.5v5a1.5 1.5 0 0 1-1.5 1.5h-5A1.5 1.5 0 0 1 13 9.5v-5A1.5 1.5 0 0 1 14.5 3h5Zm-5 1a.5.5 0 0 0-.5.5v5a.5.5 0 0 0 .5.5h5a.5.5 0 0 0 .5-.5v-5a.5.5 0 0 0-.5-.5h-5Z"/></symbol>
  <use href="#icon"/>
</svg>
