<svg xmlns="http://www.w3.org/2000/svg">
  <symbol id="icon" fill="none" viewBox="0 0 16 16"><path fill="currentColor" d="M12.5 9.5a.5.5 0 0 1 .5.5v.565c.357.092.675.279.926.534l.489-.282a.5.5 0 1 1 .5.866l-.49.282c.047.17.075.35.075.535 0 .185-.028.364-.075.534l.49.283a.5.5 0 1 1-.5.866l-.49-.283c-.25.255-.568.441-.925.534V15a.5.5 0 0 1-1 0v-.566a1.994 1.994 0 0 1-.927-.534l-.488.283a.5.5 0 1 1-.5-.866l.49-.283a2 2 0 0 1-.075-.534c0-.185.027-.365.074-.535l-.489-.282a.5.5 0 1 1 .5-.866l.488.282c.25-.255.57-.441.927-.534V10a.5.5 0 0 1 .5-.5Zm-2-7.5A1.5 1.5 0 0 1 12 3.5V4h.5A1.5 1.5 0 0 1 14 5.5V9h-1V5.5a.5.5 0 0 0-.5-.5h-9a.5.5 0 0 0-.5.5v5a.5.5 0 0 0 .5.5H4V7.5l.01-.1A.5.5 0 0 1 4.5 7h7l.1.01a.5.5 0 0 1 .4.49V9h-1V8H5v4.5a.5.5 0 0 0 .5.5H9v1H5.5A1.5 1.5 0 0 1 4 12.5V12h-.5A1.5 1.5 0 0 1 2 10.5v-5A1.5 1.5 0 0 1 3.5 4H4v-.5A1.5 1.5 0 0 1 5.5 2h5Zm2 9.5a1 1 0 1 0 0 2 1 1 0 0 0 0-2ZM9 12H6.5a.5.5 0 0 1 0-1H9v1Zm0-2H6.5a.5.5 0 0 1 0-1H9v1ZM5.5 3a.5.5 0 0 0-.5.5V4h6v-.5a.5.5 0 0 0-.5-.5h-5Z"/></symbol>
  <symbol id="icon-large" fill="none" viewBox="0 0 24 24"><path fill="currentColor" fill-rule="evenodd" d="M16.5 3a.5.5 0 0 1 .5.5V6H7V3.5a.5.5 0 0 1 .5-.5h9ZM6 6V3.5A1.5 1.5 0 0 1 7.5 2h9A1.5 1.5 0 0 1 18 3.5V6h2.5A1.5 1.5 0 0 1 22 7.5v6a.5.5 0 0 1-1 0v-6a.5.5 0 0 0-.5-.5h-17a.5.5 0 0 0-.5.5v9a.5.5 0 0 0 .5.5H6v-3.5l.01-.1a.5.5 0 0 1 .49-.4h11a.5.5 0 0 1 0 1H7v6.5a.5.5 0 0 0 .5.5h6a.5.5 0 0 1 0 1h-6A1.5 1.5 0 0 1 6 20.5V18H3.5A1.5 1.5 0 0 1 2 16.5v-9A1.5 1.5 0 0 1 3.5 6H6Zm4 4.5a.5.5 0 0 0-.5-.5h-3a.5.5 0 0 0 0 1h3a.5.5 0 0 0 .5-.5Zm3.5 5.5a.5.5 0 0 1 0 1h-4a.5.5 0 0 1 0-1h4Zm.5 2.5a.5.5 0 0 0-.5-.5h-4a.5.5 0 0 0 0 1h4a.5.5 0 0 0 .5-.5Zm7 .5c0-.358-.094-.695-.26-.986L20.733 18l-.008-.014a2 2 0 0 0-3.465 2l.009.014.008.014A1.999 1.999 0 0 0 21 19Zm.312 1.912.47.271a.5.5 0 1 0 .5-.866l-.47-.27a2.995 2.995 0 0 0 0-2.093l.47-.271a.5.5 0 1 0-.5-.866l-.47.27a2.997 2.997 0 0 0-1.812-1.046V15.5a.5.5 0 0 0-1 0v.541a2.997 2.997 0 0 0-1.812 1.047l-.47-.271a.5.5 0 0 0-.5.866l.47.27a2.993 2.993 0 0 0 0 2.093l-.47.271a.5.5 0 0 0 .5.866l.47-.27c.45.542 1.087.924 1.812 1.046v.541a.5.5 0 0 0 1 0v-.541a2.997 2.997 0 0 0 1.812-1.047Z" clip-rule="evenodd"/></symbol>
  <use href="#icon"/>
</svg>
