<svg xmlns="http://www.w3.org/2000/svg">
  <symbol id="icon" fill="none" viewBox="0 0 16 16"><path fill="currentColor" d="M12.5 2A1.5 1.5 0 0 1 14 3.5v9a1.5 1.5 0 0 1-1.5 1.5h-9A1.5 1.5 0 0 1 2 12.5v-9A1.5 1.5 0 0 1 3.5 2h9ZM3.137 12.843c.09.096.22.157.363.157h2.082l.364-2H4.06l-.922 1.843ZM6.6 13h2.8l-.363-2H6.963L6.6 13Zm3.818 0H12.5c.143 0 .271-.06.362-.157L11.942 11h-1.888l.364 2ZM3 8.5V10h.441l.75-1.5H3Zm2.309 0-.75 1.5h1.569L6.4 8.5H5.31Zm2.109 0L7.145 10h1.71l-.273-1.5H7.418Zm2.182 0 .272 1.5h1.57l-.75-1.5H9.6Zm2.209 0 .75 1.5H13V8.5h-1.191ZM3.5 3a.5.5 0 0 0-.5.5v4h10v-4a.5.5 0 0 0-.5-.5h-9Z"/></symbol>
  <symbol id="icon-large" fill="none" viewBox="0 0 24 24"><path fill="currentColor" fill-rule="evenodd" d="M20 4.5a.5.5 0 0 0-.5-.5h-15a.5.5 0 0 0-.5.5v7h16v-7Zm0 8h-2.163l1.616 3H20v-3Zm-3.299 0h-2.57l.706 3h3.48l-1.616-3Zm-3.597 0h-2.208l-.706 3h3.62l-.706-3Zm-3.235 0H7.3l-1.615 3h3.48l.705-3Zm-3.706 0H4v3h.547l1.616-3ZM4 16.5h.009L4 16.516V16.5Zm0 3v-.873L5.145 16.5h3.783L8.104 20H4.5a.5.5 0 0 1-.5-.5Zm10.046-3H9.954L9.131 20h5.738l-.823-3.5Zm1.85 3.5-.824-3.5h3.783L20 18.627v.873a.5.5 0 0 1-.5.5h-3.604ZM20 16.516l-.009-.016H20v.016Zm1 2.984a1.5 1.5 0 0 1-1.5 1.5h-15A1.5 1.5 0 0 1 3 19.5v-15A1.5 1.5 0 0 1 4.5 3h15A1.5 1.5 0 0 1 21 4.5v15Z" clip-rule="evenodd"/></symbol>
  <use href="#icon"/>
</svg>
