<svg xmlns="http://www.w3.org/2000/svg">
  <symbol id="icon" fill="none" viewBox="0 0 16 16"><path fill="currentColor" fill-rule="evenodd" d="M2 8a6 6 0 1 1 12.002 0A6 6 0 0 1 2 8Zm6-7a7 7 0 1 0 0 14.001A7 7 0 0 0 8 1ZM4.5 8a3.5 3.5 0 1 1 7 0 3.5 3.5 0 0 1-7 0ZM8 3.5a4.5 4.5 0 1 0 0 9 4.5 4.5 0 0 0 0-9Z" clip-rule="evenodd"/></symbol>
  <symbol id="icon-large" fill="none" viewBox="0 0 24 24"><mask id="a" fill="#fff"><path fill-rule="evenodd" d="M3 12a9 9 0 1 1 18 0 9 9 0 0 1-18 0Zm9-10C6.477 2 2 6.477 2 12s4.477 10 10 10 10-4.477 10-10S17.523 2 12 2ZM6 12a6 6 0 1 1 12 0 6 6 0 0 1-12 0Zm6-7a7 7 0 1 0 0 14 7 7 0 0 0 0-14Z" clip-rule="evenodd"/></mask><path fill="currentColor" fill-rule="evenodd" d="M3 12a9 9 0 1 1 18 0 9 9 0 0 1-18 0Zm9-10C6.477 2 2 6.477 2 12s4.477 10 10 10 10-4.477 10-10S17.523 2 12 2ZM6 12a6 6 0 1 1 12 0 6 6 0 0 1-12 0Zm6-7a7 7 0 1 0 0 14 7 7 0 0 0 0-14Z" clip-rule="evenodd"/><path fill="currentColor" d="M12 2C6.477 2 2 6.477 2 12h2a8 8 0 0 1 8-8V2Zm10 10c0-5.523-4.477-10-10-10v2a8 8 0 0 1 8 8h2ZM12 22c5.523 0 10-4.477 10-10h-2a8 8 0 0 1-8 8v2ZM2 12c0 5.523 4.477 10 10 10v-2a8 8 0 0 1-8-8H2Zm1 0a9 9 0 0 1 9-9V1C5.925 1 1 5.925 1 12h2Zm9 9a9 9 0 0 1-9-9H1c0 6.075 4.925 11 11 11v-2Zm9-9a9 9 0 0 1-9 9v2c6.075 0 11-4.925 11-11h-2Zm-9-9a9 9 0 0 1 9 9h2c0-6.075-4.925-11-11-11v2Zm0 2a7 7 0 0 0-7 7h2a5 5 0 0 1 5-5V5Zm7 7a7 7 0 0 0-7-7v2a5 5 0 0 1 5 5h2Zm-7 7a7 7 0 0 0 7-7h-2a5 5 0 0 1-5 5v2Zm-7-7a7 7 0 0 0 7 7v-2a5 5 0 0 1-5-5H5Zm1 0a6 6 0 0 1 6-6V4a8 8 0 0 0-8 8h2Zm6 6a6 6 0 0 1-6-6H4a8 8 0 0 0 8 8v-2Zm6-6a6 6 0 0 1-6 6v2a8 8 0 0 0 8-8h-2Zm-6-6a6 6 0 0 1 6 6h2a8 8 0 0 0-8-8v2Z" mask="url(#a)"/></symbol>
  <use href="#icon"/>
</svg>
