<svg xmlns="http://www.w3.org/2000/svg">
  <symbol id="icon" fill="none" viewBox="0 0 16 16"><path fill="currentColor" d="M4.5 9a2.5 2.5 0 1 1-.001 5 2.5 2.5 0 0 1 0-5Zm0 1a1.5 1.5 0 1 0 0 3 1.5 1.5 0 0 0 0-3Zm5.147-7.354a.5.5 0 0 1 .707.707L9.706 4H11.5A2.5 2.5 0 0 1 14 6.5v3a2.5 2.5 0 0 1-2.5 2.5H9a.5.5 0 0 1 0-1h2.5A1.5 1.5 0 0 0 13 9.5v-3A1.5 1.5 0 0 0 11.5 5H9.708l.646.646.064.08a.5.5 0 0 1-.693.691l-.078-.064-1.5-1.5a.5.5 0 0 1 0-.707l1.5-1.5ZM4.499 2a2.5 2.5 0 1 1 0 5 2.5 2.5 0 0 1 0-5Zm0 1a1.5 1.5 0 1 0 0 3 1.5 1.5 0 0 0 0-3Z"/></symbol>
  <symbol id="icon-large" fill="none" viewBox="0 0 24 24"><path fill="currentColor" fill-rule="evenodd" d="M6.5 4a2.5 2.5 0 1 1 0 5 2.5 2.5 0 0 1 0-5Zm0 6a3.5 3.5 0 1 0 0-7 3.5 3.5 0 0 0 0 7Zm7.646-5.854a.5.5 0 1 1 .707.708L13.707 6H19.5A1.5 1.5 0 0 1 21 7.5v9a1.5 1.5 0 0 1-1.5 1.5h-6a.5.5 0 0 1 0-1h6a.5.5 0 0 0 .5-.5v-9a.5.5 0 0 0-.5-.5h-5.793l1.146 1.146a.5.5 0 1 1-.707.708l-2-2a.5.5 0 0 1 0-.708l2-2ZM6.5 15a2.5 2.5 0 1 1 0 5 2.5 2.5 0 0 1 0-5Zm0 6a3.5 3.5 0 1 0 0-7 3.5 3.5 0 0 0 0 7Z" clip-rule="evenodd"/></symbol>
  <use href="#icon"/>
</svg>
