<svg xmlns="http://www.w3.org/2000/svg">
  <symbol id="icon" fill="none" viewBox="0 0 16 16"><path fill="currentColor" d="M13.5 9a.5.5 0 0 1 .5.5v1a2.5 2.5 0 0 1-2.5 2.5h-.793l.646.646.065.078a.5.5 0 0 1-.693.694l-.079-.065-1.5-1.5a.5.5 0 0 1 0-.707l1.5-1.5a.5.5 0 0 1 .707.707l-.646.647h.793a1.5 1.5 0 0 0 1.5-1.5v-1a.5.5 0 0 1 .5-.5Zm-11 3a.5.5 0 0 1 .5.5v.5h.5a.5.5 0 0 1 0 1H3a1 1 0 0 1-1-1v-.5a.5.5 0 0 1 .5-.5Zm4 0a.5.5 0 0 1 .5.5v.5a1 1 0 0 1-1 1h-.5a.5.5 0 0 1 0-1H6v-.5a.5.5 0 0 1 .5-.5Zm-3-3a.5.5 0 0 1 0 1H3v.5a.5.5 0 0 1-1 0V10a1 1 0 0 1 1-1h.5ZM6 9a1 1 0 0 1 1 1v.5a.5.5 0 0 1-1 0V10h-.5a.5.5 0 0 1 0-1H6ZM4.646 1.646a.501.501 0 0 1 .63-.064l.077.064 1.5 1.5a.5.5 0 0 1 0 .707l-1.5 1.5a.5.5 0 1 1-.707-.707L5.293 4H4.5A1.5 1.5 0 0 0 3 5.5v1a.5.5 0 0 1-1 0v-1A2.5 2.5 0 0 1 4.5 3h.793l-.647-.647-.064-.078a.5.5 0 0 1 .064-.629ZM12.5 2A1.5 1.5 0 0 1 14 3.5v2A1.5 1.5 0 0 1 12.5 7h-2A1.5 1.5 0 0 1 9 5.5v-2A1.5 1.5 0 0 1 10.5 2h2Zm-2 1a.5.5 0 0 0-.5.5v2a.5.5 0 0 0 .5.5h2a.5.5 0 0 0 .5-.5v-2a.5.5 0 0 0-.5-.5h-2Z"/></symbol>
  <symbol id="icon-large" fill="none" viewBox="0 0 24 24"><path fill="currentColor" fill-rule="evenodd" d="M8.854 1.146a.5.5 0 1 0-.708.708L9.293 3H7.5A4.5 4.5 0 0 0 3 7.5v2a.5.5 0 0 0 1 0v-2A3.5 3.5 0 0 1 7.5 4h1.793L8.146 5.146a.5.5 0 1 0 .708.708l2-2a.5.5 0 0 0 0-.708l-2-2ZM19.5 4a.5.5 0 0 1 .5.5v5a.5.5 0 0 1-.5.5h-5a.5.5 0 0 1-.5-.5v-5a.5.5 0 0 1 .5-.5h5Zm0 7A1.5 1.5 0 0 0 21 9.5v-5A1.5 1.5 0 0 0 19.5 3h-5A1.5 1.5 0 0 0 13 4.5v5a1.5 1.5 0 0 0 1.5 1.5h5Zm-16 8a.5.5 0 0 0-.5.5A1.5 1.5 0 0 0 4.5 21a.5.5 0 0 0 .1-.99l-.2-.02a.501.501 0 0 1-.39-.39l-.02-.2a.5.5 0 0 0-.49-.4ZM8 20.5a.5.5 0 0 0-.5-.5h-1a.5.5 0 0 0 0 1h1a.5.5 0 0 0 .5-.5Zm2.5-1.5a.5.5 0 0 0-.49.4l-.02.2a.501.501 0 0 1-.39.39l-.2.02a.5.5 0 0 0 .1.99 1.5 1.5 0 0 0 1.5-1.5.5.5 0 0 0-.5-.5ZM3 16.5v1a.5.5 0 0 0 1 0v-1a.5.5 0 0 0-1 0Zm7 0v1a.5.5 0 0 0 1 0v-1a.5.5 0 0 0-1 0ZM4.5 13A1.5 1.5 0 0 0 3 14.5a.5.5 0 0 0 .99.1l.02-.2a.501.501 0 0 1 .39-.39l.2-.02a.5.5 0 0 0-.1-.99Zm5.1 1.01c.196.04.35.194.39.39l.02.2a.5.5 0 0 0 .99-.1A1.5 1.5 0 0 0 9.5 13a.5.5 0 0 0-.1.99l.2.02ZM8 13.5a.5.5 0 0 0-.5-.5h-1a.5.5 0 0 0 0 1h1a.5.5 0 0 0 .5-.5Zm12 1v2a3.5 3.5 0 0 1-3.5 3.5h-1.793l1.146-1.146a.5.5 0 1 0-.707-.707l-2 2a.5.5 0 0 0 0 .707l2 2a.5.5 0 1 0 .707-.707L14.707 21H16.5a4.5 4.5 0 0 0 4.5-4.5v-2a.5.5 0 0 0-1 0Z" clip-rule="evenodd"/></symbol>
  <use href="#icon"/>
</svg>
