<svg xmlns="http://www.w3.org/2000/svg">
  <symbol id="icon" fill="none" viewBox="0 0 16 16"><path fill="currentColor" fill-rule="evenodd" d="M8 2c-1.767 0-3.255.764-4.35 2H5a.5.5 0 0 1 0 1H2.5a.5.5 0 0 1-.5-.5V2a.5.5 0 0 1 1 0v1.23C4.255 1.865 5.968.999 8 .999A7 7 0 1 1 1 8a.5.5 0 0 1 1 0 6 6 0 1 0 6-6ZM6.5 5.5a1 1 0 0 0-1 1v3a1 1 0 0 0 1 1h3a1 1 0 0 0 1-1v-3a1 1 0 0 0-1-1h-3Zm0 1h3v3h-3v-3Z" clip-rule="evenodd"/></symbol>
  <symbol id="icon-large" fill="none" viewBox="0 0 24 24"><path fill="currentColor" fill-rule="evenodd" d="M12 4C9.467 4 7.104 5.176 5.63 7H7.5a.5.5 0 0 1 0 1h-3a.5.5 0 0 1-.5-.5v-3a.5.5 0 0 1 1 0v1.694C6.671 4.236 9.249 3 12 3a9 9 0 1 1-9 9 .5.5 0 0 1 1 0 8 8 0 1 0 8-8ZM9 9.5a.5.5 0 0 1 .5-.5h5a.5.5 0 0 1 .5.5v5a.5.5 0 0 1-.5.5h-5a.5.5 0 0 1-.5-.5v-5ZM9.5 8A1.5 1.5 0 0 0 8 9.5v5A1.5 1.5 0 0 0 9.5 16h5a1.5 1.5 0 0 0 1.5-1.5v-5A1.5 1.5 0 0 0 14.5 8h-5Z" clip-rule="evenodd"/></symbol>
  <use href="#icon"/>
</svg>
