<svg xmlns="http://www.w3.org/2000/svg">
  <symbol id="icon" fill="none" viewBox="0 0 16 16"><path fill="currentColor" fill-rule="evenodd" d="M8 2a6 6 0 1 0 6 6 .5.5 0 1 1 1 0 7 7 0 1 1-7-7c2.032 0 3.745.865 5 2.229V2a.5.5 0 0 1 1 0v2.5a.5.5 0 0 1-.5.5H11a.5.5 0 0 1 0-1h1.35C11.254 2.764 9.766 2 8 2ZM6.5 5.5a1 1 0 0 0-1 1v3a1 1 0 0 0 1 1h3a1 1 0 0 0 1-1v-3a1 1 0 0 0-1-1h-3Zm0 1h3v3h-3v-3Z" clip-rule="evenodd"/></symbol>
  <symbol id="icon-large" fill="none" viewBox="0 0 24 24"><path fill="currentColor" fill-rule="evenodd" d="M12 4a8 8 0 1 0 8 8 .5.5 0 0 1 1 0 9 9 0 1 1-9-9c2.751 0 5.329 1.236 7 3.194V4.5a.5.5 0 0 1 1 0v3a.5.5 0 0 1-.5.5h-3a.5.5 0 0 1 0-1h1.87C16.896 5.176 14.533 4 12 4ZM9 9.5a.5.5 0 0 1 .5-.5h5a.5.5 0 0 1 .5.5v5a.5.5 0 0 1-.5.5h-5a.5.5 0 0 1-.5-.5v-5ZM9.5 8A1.5 1.5 0 0 0 8 9.5v5A1.5 1.5 0 0 0 9.5 16h5a1.5 1.5 0 0 0 1.5-1.5v-5A1.5 1.5 0 0 0 14.5 8h-5Z" clip-rule="evenodd"/></symbol>
  <use href="#icon"/>
</svg>
