<svg xmlns="http://www.w3.org/2000/svg">
  <symbol id="icon" fill="none" viewBox="0 0 16 16"><path fill="currentColor" d="M5.146 10.147a.5.5 0 1 1 .708.707l-1.001 1a1.5 1.5 0 1 1-.707-.707l1-1ZM12.5 8a.5.5 0 0 1 .354.147l1 1a.5.5 0 0 1-.707.707L13 9.708v2.585l.146-.146a.5.5 0 1 1 .707.707l-1 1a.5.5 0 0 1-.707 0l-1-1a.5.5 0 0 1 .707-.707l.147.146V9.709l-.146.146a.5.5 0 0 1-.707-.707l1-1 .076-.063A.5.5 0 0 1 12.5 8Zm-9 4a.5.5 0 1 0 0 1 .5.5 0 0 0 0-1Zm5.146-5.353a.5.5 0 1 1 .708.707l-2 2a.5.5 0 0 1-.708-.707l2-2ZM12.5 2a1.5 1.5 0 1 1-.646 2.852l-1 1.002a.5.5 0 0 1-.707-.707l1-1.002A1.5 1.5 0 0 1 12.5 2Zm0 1a.5.5 0 1 0 0 1 .5.5 0 0 0 0-1Z"/></symbol>
  <symbol id="icon-large" fill="none" viewBox="0 0 24 24"><path fill="currentColor" d="M7.647 15.646a.5.5 0 0 1 .707.707L6.72 17.986c.176.298.28.644.28 1.015a2 2 0 1 1-.987-1.722l1.633-1.631Zm11.078-3.564a.5.5 0 0 1 .629.064l2 2a.5.5 0 0 1-.707.707L19.5 13.707v5.586l1.147-1.146a.5.5 0 0 1 .707.707l-2 2a.5.5 0 0 1-.707 0l-2-2a.5.5 0 0 1 .707-.707l1.146 1.146v-5.586l-1.146 1.146a.5.5 0 0 1-.707-.707l2-2 .078-.064ZM5 18a1 1 0 1 0 0 2 1 1 0 0 0 0-2Zm9.147-8.854a.5.5 0 0 1 .707.708l-5 5a.5.5 0 0 1-.707-.707l5-5ZM19 3a2 2 0 0 1 0 4c-.37 0-.717-.103-1.014-.28l-1.632 1.634a.5.5 0 0 1-.707-.708l1.632-1.632A2 2 0 0 1 19 3Zm0 1a1 1 0 1 0 0 2 1 1 0 0 0 0-2Z"/></symbol>
  <use href="#icon"/>
</svg>
