<svg xmlns="http://www.w3.org/2000/svg">
  <symbol id="icon" fill="none" viewBox="0 0 16 16"><path fill="currentColor" d="M13.5 13.5h-5l5-3v3Z" opacity=".48"/><path fill="currentColor" d="M5.146 10.147a.5.5 0 1 1 .708.707l-1.001 1a1.5 1.5 0 1 1-.707-.707l1-1Zm8.097-.075A.5.5 0 0 1 14 10.5v3a.5.5 0 0 1-.5.5h-5a.5.5 0 0 1-.257-.93l5-3ZM3.5 12a.5.5 0 1 0 0 1 .5.5 0 0 0 0-1Zm6.805 1H13v-1.618L10.305 13ZM8.646 6.647a.5.5 0 1 1 .708.707l-2 2a.5.5 0 0 1-.708-.707l2-2ZM12.5 2a1.5 1.5 0 1 1-.646 2.852l-1 1.002a.5.5 0 0 1-.707-.707l1-1.002A1.5 1.5 0 0 1 12.5 2Zm0 1a.5.5 0 1 0 0 1 .5.5 0 0 0 0-1Z"/></symbol>
  <symbol id="icon-large" fill="none" viewBox="0 0 24 24"><path fill="currentColor" d="M20.5 20.5h-8l8-4v4Z" opacity=".48"/><path fill="currentColor" d="M7.647 15.646a.5.5 0 0 1 .707.707L6.72 17.986c.176.298.28.644.28 1.015a2 2 0 1 1-.987-1.722l1.633-1.631Zm12.63.407A.5.5 0 0 1 21 16.5v4a.5.5 0 0 1-.5.5h-8a.5.5 0 0 1-.223-.947l8-4ZM5 18a1 1 0 1 0 0 2 1 1 0 0 0 0-2Zm9.618 2H20v-2.691L14.618 20Zm-.471-10.854a.5.5 0 0 1 .707.708l-5 5a.5.5 0 0 1-.707-.707l5-5ZM19 3a2 2 0 0 1 0 4c-.37 0-.717-.103-1.014-.28l-1.632 1.634a.5.5 0 0 1-.707-.708l1.632-1.632A2 2 0 0 1 19 3Zm0 1a1 1 0 1 0 0 2 1 1 0 0 0 0-2Z"/></symbol>
  <use href="#icon"/>
</svg>
