<svg xmlns="http://www.w3.org/2000/svg">
  <symbol id="icon" fill="currentColor" viewBox="0 0 16 16"><path fill-rule="evenodd" d="M11.582 10.874a6 6 0 1 0-.707.707l3.271 3.273a.5.5 0 0 0 .708-.708l-3.272-3.272ZM12 7A5 5 0 1 1 2 7a5 5 0 0 1 10 0Z" clip-rule="evenodd"/></symbol>
  <symbol id="icon-large" fill="currentColor" viewBox="0 0 24 24"><path fill-rule="evenodd" d="M16.292 17a8 8 0 1 1 .707-.707l3.855 3.853a.5.5 0 0 1-.708.708l-3.854-3.855ZM18 11a7 7 0 1 1-14 0 7 7 0 0 1 14 0Z" clip-rule="evenodd"/></symbol>
  <use href="#icon"/>
</svg>
