<svg xmlns="http://www.w3.org/2000/svg">
  <symbol id="icon" fill="none" viewBox="0 0 16 16"><path fill="currentColor" d="M2.213 4.238c-.59-1.278.745-2.591 2.012-1.98l9.12 4.39c1.133.546 1.133 2.159 0 2.704l-9.12 4.391c-1.267.61-2.601-.703-2.012-1.98l1.64-3.553a.503.503 0 0 0 0-.42l-1.64-3.552Zm1.579-1.08a.5.5 0 0 0-.671.66l1.64 3.553a1.5 1.5 0 0 1 .051.13H8l.1.009a.5.5 0 0 1 0 .98L8 8.5H4.81a1.504 1.504 0 0 1-.05.13l-1.64 3.552a.5.5 0 0 0 .67.66l9.12-4.392a.5.5 0 0 0 0-.9L3.79 3.158Z"/></symbol>
  <symbol id="icon-large" fill="none" viewBox="0 0 24 24"><path fill="currentColor" fill-rule="evenodd" d="M4.982 3.182c-1.215-.608-2.548.585-2.079 1.86l2.5 6.785a.5.5 0 0 1 0 .346l-2.5 6.785c-.47 1.275.864 2.468 2.08 1.86l14.952-7.476c1.105-.553 1.105-2.131 0-2.684L4.982 3.182Zm-1.14 1.514a.5.5 0 0 1 .693-.62l14.952 7.477a.5.5 0 0 1 0 .894L4.535 19.924a.5.5 0 0 1-.693-.62l2.5-6.786.006-.018H12a.5.5 0 0 0 0-1H6.348a1.539 1.539 0 0 0-.006-.019l-2.5-6.785Z" clip-rule="evenodd"/></symbol>
  <use href="#icon"/>
</svg>
