<svg xmlns="http://www.w3.org/2000/svg">
  <symbol id="icon" fill="none" viewBox="0 0 16 16"><path fill="currentColor" d="M8 1.5a6.5 6.5 0 1 1 0 13 6.5 6.5 0 0 1 0-13Zm0 1a5.5 5.5 0 1 0 0 11 5.5 5.5 0 0 0 0-11ZM6.27 8.932a.5.5 0 0 1 .619.13l.055.084.083.148a2.499 2.499 0 0 0 4.362-.148.5.5 0 0 1 .888.46 3.5 3.5 0 0 1-6.105.207l-.116-.208-.037-.093a.5.5 0 0 1 .252-.58ZM7.5 4.5A.5.5 0 0 1 8 5v2a.5.5 0 0 1-1 0V5a.5.5 0 0 1 .5-.5Zm3.5 0a.5.5 0 0 1 .5.5v2a.5.5 0 0 1-1 0V5a.5.5 0 0 1 .5-.5Z"/></symbol>
  <symbol id="icon-large" fill="none" viewBox="0 0 24 24"><path fill="currentColor" fill-rule="evenodd" d="M21 12a9 9 0 1 0-18 0 9 9 0 0 0 18 0Zm1 0c0 5.523-4.477 10-10 10S2 17.523 2 12 6.477 2 12 2s10 4.477 10 10Zm-4.444 1.834a.5.5 0 0 1 .888.46 5 5 0 0 1-8.888 0 .5.5 0 0 1 .888-.46 4 4 0 0 0 7.112 0ZM11 8v3a.5.5 0 0 0 1 0V8a.5.5 0 0 0-1 0Zm5 0v3a.5.5 0 0 0 1 0V8a.5.5 0 0 0-1 0Z" clip-rule="evenodd"/></symbol>
  <use href="#icon"/>
</svg>
