<svg xmlns="http://www.w3.org/2000/svg">
  <symbol id="icon" fill="none" viewBox="0 0 16 16"><path fill="currentColor" d="M13.225 2.082a.5.5 0 0 1 .693.694l-.064.078L9.72 6.986c.176.297.28.643.28 1.014l-.012.204c-.03.294-.125.568-.268.81l4.133 4.133.064.078a.5.5 0 0 1-.693.693l-.078-.064L9.014 9.72a1.986 1.986 0 0 1-2.028 0l-4.132 4.133a.5.5 0 1 1-.707-.707l4.132-4.133a1.988 1.988 0 0 1 0-2.028L2.147 2.854l-.065-.078a.5.5 0 0 1 .694-.694l.078.065 4.132 4.132a1.988 1.988 0 0 1 2.028 0l4.133-4.132.078-.065ZM8 7a1 1 0 1 0 1 1l-.005-.102A1 1 0 0 0 8 7Z"/></symbol>
  <symbol id="icon-large" fill="none" viewBox="0 0 24 24"><path fill="currentColor" d="M20.147 3.147a.5.5 0 1 1 .707.707l-7.133 7.132a1.987 1.987 0 0 1 0 2.028l7.133 7.133.064.078a.5.5 0 0 1-.693.693l-.078-.064-7.133-7.133a1.987 1.987 0 0 1-2.028 0l-7.132 7.133a.5.5 0 1 1-.707-.707l7.131-7.133a1.988 1.988 0 0 1 0-2.028L3.147 3.854l-.065-.078a.5.5 0 0 1 .694-.694l.078.065 7.132 7.132a1.987 1.987 0 0 1 2.028 0l7.133-7.132ZM12 11a1 1 0 1 0 0 2 1 1 0 0 0 0-2Z"/></symbol>
  <use href="#icon"/>
</svg>
