<svg xmlns="http://www.w3.org/2000/svg">
  <symbol id="icon" fill="none" viewBox="0 0 16 16"><path fill="currentColor" d="M13.5 8.508a.5.5 0 0 1 .4.582A6.003 6.003 0 0 1 8 14a5.991 5.991 0 0 1-5-2.688V12a.5.5 0 0 1-1 0v-2a.5.5 0 0 1 .5-.5h2a.5.5 0 0 1 0 1h-.829A4.996 4.996 0 0 0 8 13c2.45 0 4.49-1.763 4.918-4.09a.5.5 0 0 1 .582-.402ZM8 4.5a.5.5 0 0 1 .5.5v.5h.75a.5.5 0 0 1 0 1H7.5a.5.5 0 0 0 0 1h1a1.5 1.5 0 0 1 .154 2.992L8.5 10.5v.5a.5.5 0 0 1-1 0v-.5h-.75a.5.5 0 0 1 0-1H8.5a.5.5 0 0 0 0-1h-1a1.5 1.5 0 0 1-.153-2.992L7.5 5.5V5a.5.5 0 0 1 .5-.5ZM8 2a5.992 5.992 0 0 1 5 2.688V4a.5.5 0 1 1 1 0v2a.5.5 0 0 1-.5.5h-2a.5.5 0 1 1 0-1h.829A4.997 4.997 0 0 0 7.999 3a5.002 5.002 0 0 0-4.916 4.09.501.501 0 0 1-.985-.18A6.003 6.003 0 0 1 8 2Z"/></symbol>
  <symbol id="icon-large" fill="none" viewBox="0 0 24 24"><path fill="currentColor" d="M20.28 10.008a.5.5 0 0 1 .58.405A9 9 0 0 1 12 21c-2.752 0-5.329-1.239-7-3.197V20a.5.5 0 0 1-1 0v-3.5a.5.5 0 0 1 .5-.5H8a.5.5 0 0 1 0 1H5.632c1.474 1.823 3.836 3 6.368 3a8 8 0 0 0 7.876-9.413.5.5 0 0 1 .404-.58ZM12 7.5a.5.5 0 0 1 .5.5v1h2a.5.5 0 0 1 0 1h-2v1.5h.75a1.75 1.75 0 0 1 0 3.5h-.75v1a.5.5 0 0 1-1 0v-1h-2a.5.5 0 0 1 0-1h2v-1.5h-.75a1.75 1.75 0 0 1 0-3.5h.75V8a.5.5 0 0 1 .5-.5ZM12 3c2.752 0 5.33 1.238 7 3.196V4a.5.5 0 0 1 1 0v3.5a.5.5 0 0 1-.5.5H16a.5.5 0 0 1 0-1h2.367C16.894 5.177 14.533 4 12 4a8 8 0 0 0-7.876 9.413.5.5 0 0 1-.984.175A9 9 0 0 1 12 3Zm.5 11h.75a.75.75 0 0 0 0-1.5h-.75V14Zm-1.75-4a.75.75 0 0 0 0 1.5h.75V10h-.75Z"/></symbol>
  <use href="#icon"/>
</svg>
