<svg xmlns="http://www.w3.org/2000/svg">
  <symbol id="icon" fill="none" viewBox="0 0 16 16"><path fill="currentColor" d="M8 11a.5.5 0 0 1 .5.5v1h1a.5.5 0 0 1 0 1h-1v1a.5.5 0 0 1-1 0v-1h-1a.5.5 0 0 1 0-1h1v-1A.5.5 0 0 1 8 11Zm5-4.5a1 1 0 0 1 1 1V9a1 1 0 0 1-1 1H3a1 1 0 0 1-1-1V7.5a1 1 0 0 1 1-1h10ZM3 9h10V7.5H3V9Zm10.103-6.995c.504.051.897.477.898.995v1.5a1 1 0 0 1-1 1H3a1 1 0 0 1-1-1V3a1 1 0 0 1 1-1h10l.102.005ZM3 4.5h10V3H3v1.5Z"/></symbol>
  <symbol id="icon-large" fill="none" viewBox="0 0 24 24"><path fill="currentColor" d="M12 16a.5.5 0 0 1 .5.5V18H14a.5.5 0 0 1 0 1h-1.5v1.5a.5.5 0 0 1-1 0V19H10a.5.5 0 0 1 0-1h1.5v-1.5a.5.5 0 0 1 .5-.5Zm7.5-6.5A1.5 1.5 0 0 1 21 11v2a1.5 1.5 0 0 1-1.5 1.5h-15A1.5 1.5 0 0 1 3 13v-2a1.5 1.5 0 0 1 1.5-1.5h15Zm-15 1a.5.5 0 0 0-.5.5v2a.5.5 0 0 0 .5.5h15a.5.5 0 0 0 .5-.5v-2a.5.5 0 0 0-.5-.5h-15Zm15-7.5A1.5 1.5 0 0 1 21 4.5v2A1.5 1.5 0 0 1 19.5 8h-15A1.5 1.5 0 0 1 3 6.5v-2A1.5 1.5 0 0 1 4.5 3h15Zm-15 1a.5.5 0 0 0-.5.5v2a.5.5 0 0 0 .5.5h15a.5.5 0 0 0 .5-.5v-2a.5.5 0 0 0-.5-.5h-15Z"/></symbol>
  <use href="#icon"/>
</svg>
