<svg xmlns="http://www.w3.org/2000/svg">
  <symbol id="icon" fill="none" viewBox="0 0 16 16"><path fill="currentColor" d="M12.5 2A1.5 1.5 0 0 1 14 3.5v9a1.5 1.5 0 0 1-1.5 1.5h-9A1.5 1.5 0 0 1 2 12.5v-9A1.5 1.5 0 0 1 3.5 2h9ZM3 12.5a.5.5 0 0 0 .5.5h9a.5.5 0 0 0 .5-.5v-1.25H3v1.25Zm0-2.25h10V8.5H3v1.75Zm0-4.5V7.5h10V5.75H3ZM3.5 3a.5.5 0 0 0-.5.5v1.25h10V3.5a.5.5 0 0 0-.5-.5h-9Z"/></symbol>
  <symbol id="icon-large" fill="none" viewBox="0 0 24 24"><path fill="currentColor" d="M18.75 3.25a2 2 0 0 1 2 2v13.5a2 2 0 0 1-2 2H5.25a2 2 0 0 1-2-2V5.25a2 2 0 0 1 2-2h13.5Zm-14.5 15.5a1 1 0 0 0 1 1h13.5a1 1 0 0 0 1-1v-2.125H4.25v2.125Zm0-3.125h15.5V12.5H4.25v3.125Zm0-7.25V11.5h15.5V8.375H4.25Zm1-4.125a1 1 0 0 0-1 1v2.125h15.5V5.25a1 1 0 0 0-1-1H5.25Z"/></symbol>
  <use href="#icon"/>
</svg>
