<svg xmlns="http://www.w3.org/2000/svg">
  <symbol id="icon" fill="none" viewBox="0 0 16 16"><path fill="currentColor" d="M6.94 2.354a1.5 1.5 0 0 1 2.12 0l4.587 4.586a1.5 1.5 0 0 1 0 2.121L9.06 13.647a1.5 1.5 0 0 1-2.121 0L2.354 9.061a1.5 1.5 0 0 1 0-2.12L6.94 2.353Zm1.414.707a.5.5 0 0 0-.707 0L3.06 7.647a.5.5 0 0 0 0 .707l4.586 4.586a.5.5 0 0 0 .707 0l4.586-4.586a.5.5 0 0 0 0-.707L8.354 3.061ZM8 6a2 2 0 1 1 0 4 2 2 0 0 1 0-4Zm0 1a1 1 0 1 0 0 2 1 1 0 0 0 0-2Z"/></symbol>
  <symbol id="icon-large" fill="none" viewBox="0 0 24 24"><path fill="currentColor" fill-rule="evenodd" d="M13.06 1.853a1.5 1.5 0 0 0-2.12 0L1.852 10.94a1.5 1.5 0 0 0 0 2.121l9.086 9.086a1.5 1.5 0 0 0 2.121 0l9.086-9.086a1.5 1.5 0 0 0 0-2.12L13.06 1.852Zm-1.414.707a.5.5 0 0 1 .707 0l9.086 9.086a.5.5 0 0 1 0 .707l-9.085 9.086a.5.5 0 0 1-.707 0L2.56 12.353a.5.5 0 0 1 0-.707l9.085-9.086ZM12 9a3 3 0 1 1 0 6 3 3 0 0 1 0-6Zm0 7a4 4 0 1 0 0-8 4 4 0 0 0 0 8Z" clip-rule="evenodd"/></symbol>
  <use href="#icon"/>
</svg>
