<svg xmlns="http://www.w3.org/2000/svg">
  <symbol id="icon" fill="none" viewBox="0 0 16 16"><path fill="currentColor" fill-rule="evenodd" d="M8 1a.5.5 0 0 1 .5.5v13a.5.5 0 0 1-1 0v-13A.5.5 0 0 1 8 1ZM5.5 9.5a.5.5 0 0 0-.5.5v2.5a.5.5 0 0 0 .5.5h1v1h-1A1.5 1.5 0 0 1 4 12.5V10a1.5 1.5 0 0 1 1.5-1.5h1v1h-1Zm4-1h4A1.5 1.5 0 0 1 15 10v2.5a1.5 1.5 0 0 1-1.5 1.5h-4v-1h4a.5.5 0 0 0 .5-.5V10a.5.5 0 0 0-.5-.5h-4v-1ZM2 3.5a.5.5 0 0 1 .5-.5h4V2h-4A1.5 1.5 0 0 0 1 3.5V6a1.5 1.5 0 0 0 1.5 1.5h4v-1h-4A.5.5 0 0 1 2 6V3.5ZM10.5 2h-1v1h1a.5.5 0 0 1 .5.5V6a.5.5 0 0 1-.5.5h-1v1h1A1.5 1.5 0 0 0 12 6V3.5A1.5 1.5 0 0 0 10.5 2Z" clip-rule="evenodd"/></symbol>
  <symbol id="icon-large" fill="none" viewBox="0 0 24 24"><path fill="currentColor" fill-rule="evenodd" d="M12 2a.5.5 0 0 1 .5.5v19a.5.5 0 0 1-1 0v-19A.5.5 0 0 1 12 2ZM8.5 14a.5.5 0 0 0-.5.5v4a.5.5 0 0 0 .5.5h2v1h-2A1.5 1.5 0 0 1 7 18.5v-4A1.5 1.5 0 0 1 8.5 13h2v1h-2Zm5 0v-1h7a1.5 1.5 0 0 1 1.5 1.5v4a1.5 1.5 0 0 1-1.5 1.5h-7v-1h7a.5.5 0 0 0 .5-.5v-4a.5.5 0 0 0-.5-.5h-7ZM3 5.5a.5.5 0 0 1 .5-.5h7V4h-7A1.5 1.5 0 0 0 2 5.5v4A1.5 1.5 0 0 0 3.5 11h7v-1h-7a.5.5 0 0 1-.5-.5v-4ZM15.5 4h-2v1h2a.5.5 0 0 1 .5.5v4a.5.5 0 0 1-.5.5h-2v1h2A1.5 1.5 0 0 0 17 9.5v-4A1.5 1.5 0 0 0 15.5 4Z" clip-rule="evenodd"/></symbol>
  <use href="#icon"/>
</svg>
