<svg xmlns="http://www.w3.org/2000/svg">
  <symbol id="icon" fill="none" viewBox="0 0 16 16"><path fill="currentColor" d="M8 2a3 3 0 0 1 3 3v2.087A1.5 1.5 0 0 1 12 8.5v3a1.5 1.5 0 0 1-1.5 1.5h-5A1.5 1.5 0 0 1 4 11.5v-3A1.5 1.5 0 0 1 5.5 7H10V5a2 2 0 1 0-4 0 .5.5 0 0 1-1 0 3 3 0 0 1 3-3ZM5.5 8a.5.5 0 0 0-.5.5v3a.5.5 0 0 0 .5.5h5a.5.5 0 0 0 .5-.5v-3a.5.5 0 0 0-.5-.5h-5Z"/></symbol>
  <symbol id="icon-large" fill="none" viewBox="0 0 24 24"><path fill="currentColor" d="M12 6a3 3 0 0 1 3 3v2.087a1.5 1.5 0 0 1 1 1.413v3a1.5 1.5 0 0 1-1.5 1.5h-5A1.5 1.5 0 0 1 8 15.5v-3A1.5 1.5 0 0 1 9.5 11H14V9a2 2 0 1 0-4 0 .5.5 0 0 1-1 0 3 3 0 0 1 3-3Zm-2.5 6a.5.5 0 0 0-.5.5v3a.5.5 0 0 0 .5.5h5a.5.5 0 0 0 .5-.5v-3a.5.5 0 0 0-.5-.5h-5Z"/></symbol>
  <use href="#icon"/>
</svg>
