<svg xmlns="http://www.w3.org/2000/svg">
  <symbol id="icon" fill="none" viewBox="0 0 16 16"><path fill="currentColor" d="M7.804 1.54a.5.5 0 0 1 .453.031l2.5 1.5.053.038A.5.5 0 0 1 11 3.5v2h2.5a.5.5 0 0 1 0 1h-5V8h4A1.5 1.5 0 0 1 14 9.5v3a1.5 1.5 0 0 1-1.5 1.5h-9A1.5 1.5 0 0 1 2 12.5v-3A1.5 1.5 0 0 1 3.5 8h4V6.5h-5a.5.5 0 0 1 0-1H5v-2a.5.5 0 0 1 .243-.429l2.5-1.5.06-.03Zm.075 9.946a10.024 10.024 0 0 0-3.366-.256l-.483.056-1.03.148V12.5a.5.5 0 0 0 .5.5h9a.5.5 0 0 0 .5-.5v-.924l-.889.127a11.023 11.023 0 0 1-4.232-.217ZM3.5 9a.5.5 0 0 0-.5.5v.923l.889-.126.53-.063a11.024 11.024 0 0 1 3.702.28l.474.107c1.11.221 2.252.253 3.375.093l1.03-.148V9.5a.5.5 0 0 0-.5-.5h-9ZM6 3.782V5.5h4V3.782l-2-1.2-2 1.2Z"/></symbol>
  <symbol id="icon-large" fill="none" viewBox="0 0 24 24"><path fill="currentColor" d="M11.812 3.037a.5.5 0 0 1 .436.028l3.5 2A.5.5 0 0 1 16 5.5V8h4.5a.5.5 0 0 1 0 1h-8v3h7a1.5 1.5 0 0 1 1.5 1.5v6a1.5 1.5 0 0 1-1.5 1.5h-15A1.5 1.5 0 0 1 3 19.5v-6A1.5 1.5 0 0 1 4.5 12h7V9h-8a.5.5 0 0 1 0-1H8V5.5l.005-.066a.5.5 0 0 1 .247-.369l3.5-2 .06-.028ZM9.344 16.172a11.53 11.53 0 0 0-2.697-.019L4 16.447V19.5a.5.5 0 0 0 .5.5h15a.5.5 0 0 0 .5-.5v-2.941l-2.537.282c-.974.108-1.958.1-2.93-.02l-5.19-.65ZM4.5 13a.5.5 0 0 0-.5.5v1.94l2.537-.28a12.502 12.502 0 0 1 2.93.02l5.19.648.335.037a11.49 11.49 0 0 0 2.36-.018L20 15.552V13.5a.5.5 0 0 0-.5-.5h-15ZM9 5.79V8h6V5.79l-3-1.714L9 5.79Z"/></symbol>
  <use href="#icon"/>
</svg>
