<svg xmlns="http://www.w3.org/2000/svg">
  <symbol id="icon" fill="none" viewBox="0 0 16 16"><path fill="currentColor" fill-rule="evenodd" d="M8.354 1.146a.5.5 0 0 0-.708 0l-3 3a.5.5 0 1 0 .708.708L7.5 2.707V10.5a.5.5 0 0 0 1 0V2.707l2.146 2.147a.5.5 0 0 0 .708-.708l-3-3ZM1.5 10a.5.5 0 0 1 .5.5v3a.5.5 0 0 0 .5.5h11a.5.5 0 0 0 .5-.5v-3a.5.5 0 0 1 1 0v3a1.5 1.5 0 0 1-1.5 1.5h-11A1.5 1.5 0 0 1 1 13.5v-3a.5.5 0 0 1 .5-.5Z" clip-rule="evenodd"/></symbol>
  <symbol id="icon-large" fill="none" viewBox="0 0 24 24"><path fill="currentColor" fill-rule="evenodd" d="M12.354 3.146a.5.5 0 0 0-.708 0l-4 4a.5.5 0 1 0 .708.708L11.5 4.707V15.5a.5.5 0 0 0 1 0V4.707l3.146 3.147a.5.5 0 0 0 .708-.708l-4-4ZM3.5 14a.5.5 0 0 1 .5.5v5a.5.5 0 0 0 .5.5h15a.5.5 0 0 0 .5-.5v-5a.5.5 0 0 1 1 0v5a1.5 1.5 0 0 1-1.5 1.5h-15A1.5 1.5 0 0 1 3 19.5v-5a.5.5 0 0 1 .5-.5Z" clip-rule="evenodd"/></symbol>
  <use href="#icon"/>
</svg>
