<svg xmlns="http://www.w3.org/2000/svg">
  <symbol id="icon" fill="none" viewBox="0 0 16 16"><path fill="currentColor" fill-rule="evenodd" d="M5.5 4.5a2.5 2.5 0 1 1 5 0 2.5 2.5 0 0 1-5 0ZM8 1a3.5 3.5 0 1 0 0 7 3.5 3.5 0 0 0 0-7Zm0 8.5c-2.357 0-4.425 1.717-5.235 4.024a.312.312 0 0 0 .054.311.46.46 0 0 0 .361.165H8v1H3.18c-.894 0-1.699-.838-1.358-1.808C2.744 10.566 5.139 8.5 8 8.5c.372 0 .737.035 1.093.102l-.186.983A4.881 4.881 0 0 0 8 9.5Zm2 3a2.5 2.5 0 1 1 5 0 2.5 2.5 0 0 1-5 0ZM12.5 9a3.5 3.5 0 1 0 0 7 3.5 3.5 0 0 0 0-7Zm.5 2.5a.5.5 0 0 0-1 0v1a.5.5 0 0 0 .146.354l.75.75a.5.5 0 0 0 .708-.708L13 12.293V11.5Z" clip-rule="evenodd"/></symbol>
  <symbol id="icon-large" fill="none" viewBox="0 0 24 24"><path fill="currentColor" fill-rule="evenodd" d="M15 7a3 3 0 1 1-6 0 3 3 0 0 1 6 0Zm1 0a4 4 0 1 1-8 0 4 4 0 0 1 8 0Zm-4 6c-3.952 0-6.51 2.713-7.283 6.497-.05.242.142.503.455.503H13v1H5.172c-.88 0-1.623-.778-1.435-1.703C4.58 15.168 7.46 12 12 12c1.627 0 3.057.41 4.26 1.142l-.52.854C14.702 13.364 13.454 13 12 13Zm10 6a3 3 0 1 1-6 0 3 3 0 0 1 6 0Zm1 0a4 4 0 1 1-8 0 4 4 0 0 1 8 0Zm-3.5-1.5a.5.5 0 1 0-1 0V19a.5.5 0 0 0 .146.354l1 1a.5.5 0 0 0 .707-.708l-.853-.853V17.5Z" clip-rule="evenodd"/></symbol>
  <use href="#icon"/>
</svg>
