<svg xmlns="http://www.w3.org/2000/svg">
  <symbol id="icon" fill="none" viewBox="0 0 16 16"><path fill="currentColor" fill-rule="evenodd" d="M5.5 4.5a2.5 2.5 0 1 1 5 0 2.5 2.5 0 0 1-5 0ZM8 1a3.5 3.5 0 1 0 0 7 3.5 3.5 0 0 0 0-7Zm0 8.5c-2.357 0-4.425 1.717-5.235 4.024a.312.312 0 0 0 .054.311.46.46 0 0 0 .361.165H8v1H3.18c-.894 0-1.699-.838-1.358-1.808C2.744 10.566 5.139 8.5 8 8.5c.974 0 1.898.241 2.727.663l-.454.891A4.994 4.994 0 0 0 8 9.5Zm4.5.5a.5.5 0 0 1 .5.5v2h2a.5.5 0 0 1 0 1h-2v2a.5.5 0 0 1-1 0v-2h-2a.5.5 0 0 1 0-1h2v-2a.5.5 0 0 1 .5-.5Z" clip-rule="evenodd"/></symbol>
  <symbol id="icon-large" fill="none" viewBox="0 0 24 24"><path fill="currentColor" fill-rule="evenodd" d="M15 7a3 3 0 1 1-6 0 3 3 0 0 1 6 0Zm1 0a4 4 0 1 1-8 0 4 4 0 0 1 8 0Zm-4 6c-3.952 0-6.51 2.713-7.283 6.497-.049.242.142.503.455.503H13.5v1H5.172c-.88 0-1.623-.778-1.434-1.703C4.58 15.168 7.46 12 12 12c1.945 0 3.607.586 4.933 1.603l-.609.794C15.18 13.519 13.734 13 12 13Zm7 2.5a.5.5 0 0 1 .5.5v2.5H22a.5.5 0 1 1 0 1h-2.5V22a.5.5 0 1 1-1 0v-2.5H16a.5.5 0 0 1 0-1h2.5V16a.5.5 0 0 1 .5-.5Z" clip-rule="evenodd"/></symbol>
  <use href="#icon"/>
</svg>
