<svg xmlns="http://www.w3.org/2000/svg">
  <symbol id="icon" fill="none" viewBox="0 0 16 16"><path fill="currentColor" d="M13.5 13.5h-5l5-3v3Z" opacity=".48"/><path fill="currentColor" d="M13.146 2.147a.5.5 0 0 1 .707.707l-3.41 3.41c.35.49.557 1.089.557 1.736a3 3 0 0 1-3 3 2.984 2.984 0 0 1-1.736-.556l-3.41 3.41a.5.5 0 0 1-.708-.707l3.41-3.411A2.983 2.983 0 0 1 5 8a3 3 0 0 1 4.736-2.444l3.41-3.41Zm.097 7.925A.5.5 0 0 1 14 10.5v3a.5.5 0 0 1-.5.5h-5a.5.5 0 0 1-.257-.93l5-3ZM10.305 13H13v-1.618L10.305 13ZM8 6a2 2 0 1 0 0 4 2 2 0 0 0 0-4Zm0 1.25a.75.75 0 1 1 0 1.5.75.75 0 0 1 0-1.5Z"/></symbol>
  <symbol id="icon-large" fill="none" viewBox="0 0 24 24"><path fill="currentColor" d="M20.5 20.5h-8l8-4v4Z" opacity=".48"/><path fill="currentColor" d="M20.147 3.146a.5.5 0 0 1 .707.707l-5.696 5.695a4 4 0 0 1-5.611 5.611l-5.693 5.694a.5.5 0 0 1-.707-.707l5.693-5.694a4 4 0 0 1 5.611-5.611l5.696-5.695Zm.13 12.907A.5.5 0 0 1 21 16.5v4a.5.5 0 0 1-.5.5h-8a.5.5 0 0 1-.223-.947l8-4ZM14.618 20H20v-2.692L14.618 20ZM12 9a3 3 0 1 0 0 6 3 3 0 0 0 0-6Zm0 1a2 2 0 1 1 0 4 2 2 0 0 1 0-4Zm0 1a1 1 0 1 0 0 2 1 1 0 0 0 0-2Z"/></symbol>
  <use href="#icon"/>
</svg>
