<svg xmlns="http://www.w3.org/2000/svg">
  <symbol id="icon" fill="none" viewBox="0 0 16 16"><path fill="currentColor" fill-rule="evenodd" d="M3.56 7.919c.252-.627 1.08-2.232 3.066-2.751L6.373 4.2c-2.444.64-3.445 2.61-3.741 3.346a1.212 1.212 0 0 0 0 .908c.296.736 1.297 2.706 3.741 3.345l.253-.967c-1.986-.52-2.814-2.124-3.066-2.75a.212.212 0 0 1 0-.163Zm5.813-2.751c1.987.52 2.815 2.124 3.067 2.75a.212.212 0 0 1 0 .163c-.252.627-1.08 2.232-3.067 2.751l.253.967c2.445-.639 3.446-2.609 3.742-3.345a1.212 1.212 0 0 0 0-.908C13.072 6.81 12.07 4.84 9.626 4.2l-.253.968ZM8.5 3.5a.5.5 0 0 0-1 0v9a.5.5 0 0 0 1 0v-9Z" clip-rule="evenodd"/></symbol>
  <symbol id="icon-large" fill="none" viewBox="0 0 24 24"><path fill="currentColor" fill-rule="evenodd" d="m10.584 5.077-.49.093c-4.915.932-7.069 5.463-7.57 6.708a.317.317 0 0 0 0 .244c.501 1.245 2.655 5.776 7.57 6.708l.49.094-.186.982-.491-.093c-5.462-1.036-7.793-6.033-8.31-7.317a1.31 1.31 0 0 1 0-.992c.517-1.284 2.848-6.28 8.31-7.317l.491-.093.186.983Zm3.025-.965.49.099c5.377 1.085 7.677 6.018 8.192 7.293a1.32 1.32 0 0 1 0 .992c-.515 1.275-2.815 6.208-8.192 7.293l-.49.1-.198-.98.49-.1c4.838-.977 6.964-5.452 7.462-6.687a.316.316 0 0 0 0-.244c-.498-1.235-2.624-5.71-7.462-6.687l-.49-.1.198-.98Zm-2.915 5.114-.416.278A2.997 2.997 0 0 0 8.943 12a3 3 0 0 0 1.335 2.496l.415.278-.555.83-.416-.277A3.997 3.997 0 0 1 7.943 12c0-1.388.708-2.61 1.779-3.327l.416-.278.556.831Zm3.196-.757.404.294A3.995 3.995 0 0 1 15.944 12c0 1.331-.651 2.51-1.65 3.237l-.404.294-.588-.809.404-.294A2.995 2.995 0 0 0 14.943 12c0-.998-.486-1.882-1.237-2.428l-.404-.294.588-.809ZM12.5 2.5a.5.5 0 1 0-1 0v19a.5.5 0 0 0 1 0v-19Z" clip-rule="evenodd"/></symbol>
  <use href="#icon"/>
</svg>
