<svg xmlns="http://www.w3.org/2000/svg">
  <symbol id="icon" fill="currentColor" viewBox="0 0 16 16"><path fill-rule="evenodd" d="M2.14 7.849C2.736 6.774 4.616 4 8 4c3.383 0 5.263 2.774 5.86 3.849a.304.304 0 0 1 0 .302C13.264 9.226 11.384 12 8 12c-3.383 0-5.263-2.774-5.86-3.849a.304.304 0 0 1 0-.302ZM8 3C4.023 3 1.887 6.244 1.265 7.363a1.304 1.304 0 0 0 0 1.274C1.887 9.756 4.023 13 8 13c3.977 0 6.113-3.244 6.735-4.363a1.304 1.304 0 0 0 0-1.274C14.113 6.244 11.977 3 8 3ZM7 8a1 1 0 1 1 2 0 1 1 0 0 1-2 0Zm1-2a2 2 0 1 0 0 4 2 2 0 0 0 0-4Z" clip-rule="evenodd"/></symbol>
  <symbol id="icon-large" fill="currentColor" viewBox="0 0 24 24"><path fill-rule="evenodd" d="M12 8a4 4 0 1 0 0 8 4 4 0 0 0 0-8Zm-3 4a3 3 0 1 1 6 0 3 3 0 0 1-6 0Z" clip-rule="evenodd"/><path fill-rule="evenodd" d="M12 4c-6.923 0-9.77 6.073-10.346 7.502-.13.321-.13.675 0 .995C2.23 13.928 5.077 20 12 20s9.77-6.073 10.346-7.502c.13-.321.13-.675 0-.995C21.77 10.072 18.923 4 12 4Zm-9.419 7.876C3.146 10.475 5.762 5 12 5s8.854 5.475 9.419 6.876a.325.325 0 0 1 0 .248C20.854 13.525 18.238 19 12 19s-8.854-5.475-9.419-6.876a.325.325 0 0 1 0-.248Z" clip-rule="evenodd"/></symbol>
  <use href="#icon"/>
</svg>
