<svg xmlns="http://www.w3.org/2000/svg">
  <symbol id="icon" fill="none" viewBox="0 0 16 16"><path fill="currentColor" d="M4.893 6.974c.89-.267 2.07-.536 3.106-.474h.013l.021.002c1.123.075 1.81.69 2.395 1.154.55.437 1.061.797 1.9.84l.172.005.1.01a.5.5 0 0 1 0 .98l-.1.01-.236-.007c-1.151-.063-1.863-.583-2.457-1.055-.535-.423-.934-.762-1.498-.89L7.6 9.202l2.085.834.06.029c.134.075.227.21.25.365l.5 3.5.003.1a.5.5 0 0 1-.97.139l-.024-.099-.46-3.215-1.839-.735-1.746 4.077a.501.501 0 0 1-.92-.394L7.236 7.51c-.684.057-1.419.23-2.056.422a15.925 15.925 0 0 0-1.455.516l-.02.009c-.003 0-.004.002-.005.002l-.097.031a.501.501 0 0 1-.302-.948v-.001h.003l.007-.003.024-.01.09-.039a16.907 16.907 0 0 1 1.467-.516ZM8.75 1.5a2.25 2.25 0 1 1 0 4.5 2.25 2.25 0 0 1 0-4.5Zm0 1a1.25 1.25 0 1 0 0 2.5 1.25 1.25 0 0 0 0-2.5Z"/></symbol>
  <symbol id="icon-large" fill="none" viewBox="0 0 24 24"><path fill="currentColor" fill-rule="evenodd" d="M14 3a2 2 0 1 1 0 4 2 2 0 0 1 0-4Zm0 5a3 3 0 1 0 0-6 3 3 0 0 0 0 6Zm-2.97.5c.436.027.874.2 1.282.422.412.224.831.52 1.236.834.394.306.788.639 1.158.952l.032.027c.384.324.74.623 1.062.865a7.213 7.213 0 0 0 2.571 1.228 6.211 6.211 0 0 0 1.065.17l.053.002h.011l.1.01a.5.5 0 0 1 0 .98l-.1.01h-.035a5.156 5.156 0 0 1-.362-.026 7.207 7.207 0 0 1-.974-.177A8.22 8.22 0 0 1 15.2 12.4c-.35-.263-.728-.581-1.107-.901l-.046-.039a35.03 35.03 0 0 0-1.112-.914 10.563 10.563 0 0 0-.65-.47l-1.588 3.465c.023.01.046.021.068.035l4 2.5A.5.5 0 0 1 15 16.5v5a.5.5 0 0 1-1 0v-4.724l-3.72-2.324-3.326 7.256a.5.5 0 1 1-.908-.416l5.359-11.691a1.537 1.537 0 0 0-.435-.102c-1.414-.086-2.928.595-4.135 1.353a14.739 14.739 0 0 0-1.958 1.48l-.018.017-.007.007-.004.004-.002.001-.001.001-.69-.725h.001l.001-.001.002-.002.003-.003.006-.005.008-.008.023-.022a7.46 7.46 0 0 1 .09-.08l.03-.026a15.75 15.75 0 0 1 1.984-1.484c1.255-.79 2.992-1.61 4.727-1.505Zm-6.185 3.862a.5.5 0 0 1-.69-.724l.69.724Z" clip-rule="evenodd"/></symbol>
  <use href="#icon"/>
</svg>
