<svg xmlns="http://www.w3.org/2000/svg">
  <symbol id="icon" fill="none" viewBox="0 0 16 16"><path fill="currentColor" fill-rule="evenodd" d="M13.5 3a.5.5 0 0 1 .5.5V6H2V3.5a.5.5 0 0 1 .5-.5h11Zm-5 4H14v5.5a.5.5 0 0 1-.5.5h-5v-.5a.5.5 0 0 0-1 0v.5h-5a.5.5 0 0 1-.5-.5V7h5.5v.5a.5.5 0 0 0 1 0V7Zm5 7a1.5 1.5 0 0 0 1.5-1.5v-9A1.5 1.5 0 0 0 13.5 2h-11A1.5 1.5 0 0 0 1 3.5v9A1.5 1.5 0 0 0 2.5 14h11Zm-6-4.5v1a.5.5 0 0 0 1 0v-1a.5.5 0 0 0-1 0Zm5.5-5a.5.5 0 0 0-.5-.5h-2a.5.5 0 0 0 0 1h2a.5.5 0 0 0 .5-.5Z" clip-rule="evenodd"/></symbol>
  <symbol id="icon-large" fill="none" viewBox="0 0 24 24"><path fill="currentColor" fill-rule="evenodd" d="M20.5 5a.5.5 0 0 1 .5.5V8H3V5.5a.5.5 0 0 1 .5-.5h17Zm-8 4H21v9.5a.5.5 0 0 1-.5.5h-8v-1a.5.5 0 0 0-1 0v1h-8a.5.5 0 0 1-.5-.5V9h8.5v1a.5.5 0 0 0 1 0V9Zm8 11a1.5 1.5 0 0 0 1.5-1.5v-13A1.5 1.5 0 0 0 20.5 4h-17A1.5 1.5 0 0 0 2 5.5v13A1.5 1.5 0 0 0 3.5 20h17Zm-9-7v2a.5.5 0 0 0 1 0v-2a.5.5 0 0 0-1 0ZM20 6.5a.5.5 0 0 0-.5-.5h-2a.5.5 0 0 0 0 1h2a.5.5 0 0 0 .5-.5Z" clip-rule="evenodd"/></symbol>
  <use href="#icon"/>
</svg>
