<svg xmlns="http://www.w3.org/2000/svg">
  <symbol id="icon" fill="none" viewBox="0 0 16 16"><path fill="currentColor" fill-rule="evenodd" d="M2 7.5a5.5 5.5 0 1 1 9.727 3.52l2.127 2.126a.5.5 0 0 1-.708.708l-2.127-2.127A5.5 5.5 0 0 1 2 7.5ZM7.5 3a4.5 4.5 0 1 0 0 9 4.5 4.5 0 0 0 0-9Zm-2 4a.5.5 0 0 0 0 1h4a.5.5 0 0 0 0-1h-4Z" clip-rule="evenodd"/></symbol>
  <symbol id="icon-large" fill="none" viewBox="0 0 24 24"><path fill="currentColor" fill-rule="evenodd" d="M11 4a7 7 0 1 0 0 14 7 7 0 0 0 0-14Zm-8 7a8 8 0 1 1 14 5.292l3.854 3.854a.5.5 0 0 1-.708.708l-3.854-3.855A8 8 0 0 1 3 11Zm4.5-.5a.5.5 0 0 0 0 1h7a.5.5 0 0 0 0-1h-7Z" clip-rule="evenodd"/></symbol>
  <use href="#icon"/>
</svg>
