<svg xmlns="http://www.w3.org/2000/svg">
  <symbol id="icon" fill="none" viewBox="0 0 16 16"><path fill="currentColor" d="M12.834 2C13.477 2 14 2.523 14 3.167v5.666c0 .644-.523 1.166-1.167 1.167H10.71c-.06.115-.13.227-.21.332L7.9 13.8a.502.502 0 0 1-.4.2 1.886 1.886 0 0 1-1.765-2.547L6.28 10H4a2 2 0 0 1-2-2V6.797c0-.913.148-1.82.437-2.687l.133-.402A2.501 2.501 0 0 1 4.942 2h7.892ZM4.942 3a1.5 1.5 0 0 0-1.423 1.025l-.134.401A7.503 7.503 0 0 0 3 6.797V8a1 1 0 0 0 1 1h3a.501.501 0 0 1 .468.675l-.797 2.127a.886.886 0 0 0 .601 1.167l2.429-3.236c.194-.26.3-.576.3-.9V4.5c0-.777-.591-1.416-1.347-1.493L8.5 3H4.942Zm5.557 0c.314.417.501.937.502 1.5v4.333c0 .055-.004.111-.007.167h1.84A.168.168 0 0 0 13 8.833V3.166A.168.168 0 0 0 12.834 3h-2.335Z"/></symbol>
  <symbol id="icon-large" fill="none" viewBox="0 0 24 24"><path fill="currentColor" d="m19.5 3 .153.008A1.5 1.5 0 0 1 21 4.5v8a1.5 1.5 0 0 1-1.5 1.5h-2.724a2.936 2.936 0 0 1-.105.21l-3.593 6.286a1 1 0 0 1-.868.504h-.177c-1.794 0-3.004-1.835-2.298-3.484L11.242 14H5.25A2.25 2.25 0 0 1 3 11.75v-.25c0-.598.263-1.134.68-1.5A1.993 1.993 0 0 1 3 8.5v-.25c0-.794.412-1.492 1.034-1.892A2 2 0 0 1 5.5 3h14Zm-14 1a1 1 0 0 0 0 2 .5.5 0 0 1 0 1h-.25C4.56 7 4 7.56 4 8.25v.25a1 1 0 0 0 .898.994L5 9.5l.1.01a.5.5 0 0 1-.1.99 1 1 0 0 0-1 1v.25c0 .69.56 1.25 1.25 1.25h5.992a1 1 0 0 1 .919 1.394l-1.507 3.515A1.5 1.5 0 0 0 12.033 20h.177l3.592-6.287c.13-.226.198-.483.198-.744V5.5a1.5 1.5 0 0 0-1.347-1.492L14.5 4h-9Zm10.997 0c.314.418.503.937.503 1.5v7.469l-.001.031h2.5a.5.5 0 0 0 .5-.5v-8a.5.5 0 0 0-.399-.49L19.5 4h-3.003Z"/></symbol>
  <use href="#icon"/>
</svg>
