<svg xmlns="http://www.w3.org/2000/svg">
  <symbol id="icon" fill="none" viewBox="0 0 16 16"><path fill="currentColor" fill-rule="evenodd" d="M11 3.5a.5.5 0 0 1 1 0v7.793l1.146-1.146a.5.5 0 1 1 .707.707l-2 2a.5.5 0 0 1-.707 0l-2-2a.5.5 0 1 1 .708-.707L11 11.293V3.5Zm-6 8a.5.5 0 0 0-.5-.5h-2a.5.5 0 0 0 0 1h2a.5.5 0 0 0 .5-.5ZM7 8a.5.5 0 0 0-.5-.5h-4a.5.5 0 0 0 0 1h4A.5.5 0 0 0 7 8Zm2-3.5a.5.5 0 0 0-.5-.5h-6a.5.5 0 0 0 0 1h6a.5.5 0 0 0 .5-.5Z" clip-rule="evenodd"/></symbol>
  <symbol id="icon-large" fill="none" viewBox="0 0 24 24"><path fill="currentColor" fill-rule="evenodd" d="M20.5 3a.5.5 0 0 1 .38.825L15.587 10H20.5a.5.5 0 0 1 0 1h-6a.5.5 0 0 1-.38-.825L19.413 4H14.5a.5.5 0 0 1 0-1h6Zm-.55 14.283-.006-.013-1.997-3.994a.5.5 0 0 0-.858-.06l-.036.06-1.997 3.994-.007.013-1.496 2.993a.5.5 0 0 0 .894.448L15.81 18h3.382l1.362 2.724a.5.5 0 0 0 .894-.448l-1.496-2.993ZM16.31 17l1.19-2.382L18.69 17h-2.38Zm-7.164-.854a.5.5 0 1 1 .708.707l-2.995 2.995a.499.499 0 0 1-.718 0l-2.995-2.994a.5.5 0 1 1 .708-.707L6 18.293V4.5a.5.5 0 0 1 1 0v13.793l2.146-2.146Z" clip-rule="evenodd"/></symbol>
  <use href="#icon"/>
</svg>
