<svg xmlns="http://www.w3.org/2000/svg">
  <symbol id="icon" fill="none" viewBox="0 0 16 16"><path fill="currentColor" fill-rule="evenodd" d="M11.5 3a.5.5 0 0 1 .5.5v7.793l1.146-1.147a.5.5 0 0 1 .708.708l-2 2a.5.5 0 0 1-.708 0l-2-2a.5.5 0 0 1 .708-.708L11 11.293V3.5a.5.5 0 0 1 .5-.5Zm-9 1a.5.5 0 0 0 0 1h6a.5.5 0 0 0 0-1h-6Zm0 3.5a.5.5 0 0 0 0 1h4a.5.5 0 0 0 0-1h-4Zm0 3.5a.5.5 0 0 0 0 1h2a.5.5 0 0 0 0-1h-2Z" clip-rule="evenodd"/></symbol>
  <symbol id="icon-large" fill="none" viewBox="0 0 24 24"><path fill="currentColor" fill-rule="evenodd" d="M14 3.5a.5.5 0 0 1 .5-.5h6a.5.5 0 0 1 .38.825L15.587 10H20.5a.5.5 0 0 1 0 1h-6a.5.5 0 0 1-.38-.825L19.413 4H14.5a.5.5 0 0 1-.5-.5Zm1.048 13.786-1.495 2.99a.5.5 0 1 0 .894.448L15.81 18h3.382l1.362 2.724a.5.5 0 1 0 .894-.448l-1.495-2.99a.361.361 0 0 0-.01-.019l-1.995-3.99a.5.5 0 0 0-.894 0l-1.996 3.99a.467.467 0 0 0-.01.02ZM18.69 17l-1.19-2.382L16.309 17h2.382Zm-15.545-.854a.5.5 0 0 1 .708 0L6 18.293V4.5a.5.5 0 0 1 1 0v13.793l2.146-2.147a.5.5 0 0 1 .708.708l-3 3a.5.5 0 0 1-.705.002m-.003-.003-3-3a.5.5 0 0 1 0-.707" clip-rule="evenodd"/></symbol>
  <use href="#icon"/>
</svg>
