<svg xmlns="http://www.w3.org/2000/svg">
  <symbol id="icon" fill="none" viewBox="0 0 16 16"><path fill="currentColor" fill-rule="evenodd" d="M8 3a2 2 0 0 1 2 2v2H6V5a2 2 0 0 1 2-2ZM5 7V5a3 3 0 0 1 6 0v2h.5A1.5 1.5 0 0 1 13 8.5v4a1.5 1.5 0 0 1-1.5 1.5h-7A1.5 1.5 0 0 1 3 12.5v-4A1.5 1.5 0 0 1 4.5 7H5Zm6.5 1a.5.5 0 0 1 .5.5v4a.5.5 0 0 1-.5.5h-7a.5.5 0 0 1-.5-.5v-4a.5.5 0 0 1 .5-.5h7Z" clip-rule="evenodd"/></symbol>
  <symbol id="icon-large" fill="none" viewBox="0 0 24 24"><path fill="currentColor" fill-rule="evenodd" d="M12 3a3 3 0 0 1 3 3v2H9V6a3 3 0 0 1 3-3ZM8 8V6a4 4 0 1 1 8 0v2h2.5A1.5 1.5 0 0 1 20 9.5v10a1.5 1.5 0 0 1-1.5 1.5h-13A1.5 1.5 0 0 1 4 19.5v-10A1.5 1.5 0 0 1 5.5 8H8Zm10.5 1a.5.5 0 0 1 .5.5v10a.5.5 0 0 1-.5.5h-13a.5.5 0 0 1-.5-.5v-10a.5.5 0 0 1 .5-.5h13ZM11 13a1 1 0 1 1 1.5.866V16.5a.5.5 0 0 1-1 0v-2.634A1 1 0 0 1 11 13Z" clip-rule="evenodd"/></symbol>
  <use href="#icon"/>
</svg>
