<svg xmlns="http://www.w3.org/2000/svg">
  <symbol id="icon" fill="none" viewBox="0 0 16 16"><path fill="currentColor" d="M6.293 1.5a1 1 0 0 1 1.414 0L9 2.793a1 1 0 0 1 0 1.414l-.043.043 2.792 2.792.043-.042a1 1 0 0 1 1.414 0L14.5 8.293a1 1 0 0 1 0 1.414L11.207 13a1 1 0 0 1-1.414 0L8.5 11.706a1 1 0 0 1 0-1.414l.042-.043-.292-.292-3.646 3.647a1.56 1.56 0 0 1-2.208-2.207L6.043 7.75l-.293-.293-.043.043a1 1 0 0 1-1.414 0L3 6.207a1 1 0 0 1 0-1.414L6.293 1.5Zm-3.19 10.604a.561.561 0 0 0 .793.793L7.543 9.25l-.793-.793-3.646 3.647Zm6.104-1.105 1.293 1.293L13.792 9l-1.293-1.293L9.207 11ZM6.457 6.75l2.792 2.792 1.793-1.793L8.25 4.957 6.457 6.75ZM3.707 5.5 5 6.793 8.293 3.5 7 2.207 3.707 5.5Z"/></symbol>
  <symbol id="icon-large" fill="none" viewBox="0 0 24 24"><path fill="currentColor" fill-rule="evenodd" d="M12.56 2.353a1.5 1.5 0 0 0-2.12 0L5.354 7.44a1.5 1.5 0 0 0 0 2.121l1.085 1.086a1.5 1.5 0 0 0 2.06.06l1.044 1.044-6.897 6.896a1.914 1.914 0 0 0 2.708 2.707l6.896-6.896 1.045 1.045a1.5 1.5 0 0 0 .059 2.058l1.086 1.086a1.5 1.5 0 0 0 2.12 0l5.087-5.086a1.5 1.5 0 0 0 0-2.12l-1.086-1.087a1.5 1.5 0 0 0-2.06-.059l-4.796-4.796a1.5 1.5 0 0 0-.059-2.059L12.56 2.353Zm.086 2.794.001-.001.293-.293a.5.5 0 0 0 0-.707L11.854 3.06a.5.5 0 0 0-.707 0L6.06 8.146a.5.5 0 0 0 0 .707L7.146 9.94a.5.5 0 0 0 .708 0l4.792-4.792ZM13 6.207 17.793 11 14 14.793 9.207 10 13 6.207ZM3.354 19.353l6.896-6.896 1.293 1.293-6.897 6.896a.914.914 0 1 1-1.292-1.293Zm15.793-8.293a.5.5 0 0 1 .707 0l1.085 1.086a.5.5 0 0 1 0 .707l-5.085 5.086a.5.5 0 0 1-.707 0l-1.087-1.086a.5.5 0 0 1 0-.707l5.086-5.086Z" clip-rule="evenodd"/></symbol>
  <use href="#icon"/>
</svg>
