<svg xmlns="http://www.w3.org/2000/svg">
  <symbol id="icon" fill="none" viewBox="0 0 16 16"><path fill="currentColor" fill-rule="evenodd" d="M2 2.5a.5.5 0 0 1 .5-.5h11a.5.5 0 0 1 .5.5v.793L3.293 14H2.5a.5.5 0 0 1-.5-.5v-11ZM9.707 9 14 4.707v8.586L9.707 9Zm-5 5L9 9.707 13.293 14H4.707ZM2.5 1A1.5 1.5 0 0 0 1 2.5v11A1.5 1.5 0 0 0 2.5 15h11a1.5 1.5 0 0 0 1.5-1.5v-11A1.5 1.5 0 0 0 13.5 1h-11ZM4 5.5a1.5 1.5 0 0 1 2.492-1.125l.662-.75A2.5 2.5 0 1 0 8 5.5V5H5.5v1h1.415A1.5 1.5 0 0 1 4 5.5Z" clip-rule="evenodd"/></symbol>
  <symbol id="icon-large" fill="none" viewBox="0 0 24 24"><path fill="currentColor" fill-rule="evenodd" d="M14 5.5c0-1.62.573-2.727 1.39-3.435C16.218 1.347 17.344 1 18.5 1s2.282.347 3.11 1.065C22.427 2.773 23 3.88 23 5.5c0 .76-.274 1.583-.721 2.41-.445.825-1.046 1.622-1.656 2.324a21.597 21.597 0 0 1-2.123 2.113 21.597 21.597 0 0 1-2.123-2.112c-.61-.703-1.21-1.5-1.656-2.324C14.274 7.083 14 6.26 14 5.5Zm4.187 7.89L18.5 13l-.312.39a.5.5 0 0 0 .624 0L18.5 13l.313.39.004-.004.012-.01.045-.036c.039-.031.094-.078.165-.138a21.017 21.017 0 0 0 .961-.87v6.96L12.707 12l2.108-2.108c.263.351.536.686.808.999a22.597 22.597 0 0 0 2.503 2.45l.045.036.012.01.003.002.001.001Zm-3.95-4.333L4 19.293V4.5a.5.5 0 0 1 .5-.5h8.66c-.104.46-.16.96-.16 1.5 0 .99.351 1.98.841 2.886.123.227.256.451.395.67ZM21 11.312V19.5a1.5 1.5 0 0 1-1.5 1.5h-15A1.5 1.5 0 0 1 3 19.5v-15A1.5 1.5 0 0 1 4.5 3h8.99a4.78 4.78 0 0 1 1.245-1.69C15.781.403 17.156 0 18.5 0c1.344 0 2.718.403 3.765 1.31C23.323 2.227 24 3.62 24 5.5c0 .99-.351 1.98-.841 2.886-.492.91-1.142 1.77-1.782 2.505a20.14 20.14 0 0 1-.377.421Zm-9 1.395L19.293 20H4.707L12 12.707ZM6 7.5a1.5 1.5 0 0 1 2.492-1.125l.662-.75A2.5 2.5 0 1 0 10 7.5V7H7.5v1h1.415A1.5 1.5 0 0 1 6 7.5ZM18.5 4a1.5 1.5 0 1 0 0 3 1.5 1.5 0 0 0 0-3ZM16 5.5a2.5 2.5 0 1 1 5 0 2.5 2.5 0 0 1-5 0Z" clip-rule="evenodd"/></symbol>
  <use href="#icon"/>
</svg>
