<svg xmlns="http://www.w3.org/2000/svg">
  <symbol id="icon" fill="none" viewBox="0 0 16 16"><path fill="currentColor" d="M11.284 1.824A1.501 1.501 0 0 1 13 3.309V13h.5a.5.5 0 0 1 0 1h-11a.5.5 0 0 1 0-1H3V7.5A1.5 1.5 0 0 1 4.5 6H8a1.5 1.5 0 0 1 1.5 1.5V13H12V3.31a.5.5 0 0 0-.632-.482l-3.5.954a.5.5 0 0 0-.368.482V5h-1v-.737a1.5 1.5 0 0 1 1.105-1.447l3.5-.954.18-.038ZM4.5 7a.5.5 0 0 0-.5.5V13h4.5V7.5A.5.5 0 0 0 8 7H4.5ZM7 10.5a.5.5 0 0 1 0 1H5.5a.5.5 0 0 1 0-1H7Zm0-2a.5.5 0 0 1 0 1H5.5a.5.5 0 0 1 0-1H7Z"/></symbol>
  <symbol id="icon-large" fill="none" viewBox="0 0 24 24"><path fill="currentColor" d="M18.278 2.832A1.5 1.5 0 0 1 20 4.316V20h.5a.5.5 0 0 1 0 1h-17a.5.5 0 0 1 0-1H4v-9.5A1.5 1.5 0 0 1 5.5 9h7a1.5 1.5 0 0 1 1.5 1.5V20h5V4.316a.5.5 0 0 0-.515-.5l-.12.018-7 1.945A.5.5 0 0 0 11 6.26V8h-1V6.26a1.5 1.5 0 0 1 1.098-1.445l7-1.944.179-.039ZM5.5 10a.5.5 0 0 0-.5.5V20h8v-9.5a.5.5 0 0 0-.5-.5h-7ZM8 17a.5.5 0 0 1 0 1H7a.5.5 0 0 1 0-1h1Zm3 0a.5.5 0 0 1 0 1h-1a.5.5 0 0 1 0-1h1Zm-3-2.5a.5.5 0 0 1 0 1H7a.5.5 0 0 1 0-1h1Zm3 0a.5.5 0 0 1 0 1h-1a.5.5 0 0 1 0-1h1ZM8 12a.5.5 0 0 1 0 1H7a.5.5 0 0 1 0-1h1Zm3 0a.5.5 0 0 1 0 1h-1a.5.5 0 0 1 0-1h1Z"/></symbol>
  <use href="#icon"/>
</svg>
