<svg xmlns="http://www.w3.org/2000/svg">
  <symbol id="icon" fill="none" viewBox="0 0 16 16"><path fill="currentColor" fill-rule="evenodd" d="M7 3c0-.013.005-.085.146-.21.14-.124.372-.26.701-.382C8.502 2.162 9.44 2 10.5 2s1.998.162 2.653.408c.329.123.56.258.701.382.14.125.146.197.146.21 0 .013-.005.085-.146.21-.14.124-.372.26-.701.382C12.498 3.838 11.56 4 10.5 4s-1.998-.162-2.653-.408c-.329-.123-.56-.258-.701-.382C7.006 3.085 7 3.013 7 3ZM6 3c0-.401.219-.724.483-.958.264-.234.618-.423 1.013-.57C8.289 1.173 9.351 1 10.5 1s2.21.174 3.004.471c.395.148.749.337 1.013.571.264.234.483.557.483.958v6c0 .401-.219.724-.483.958-.264.235-.618.423-1.013.57-.793.298-1.855.472-3.004.472-.169 0-.336-.004-.5-.011V13a.5.5 0 0 1-.324.468l-4 1.5a.5.5 0 0 1-.352 0l-4-1.5A.5.5 0 0 1 1 13V8a.5.5 0 0 1 .324-.468l4-1.5a.5.5 0 0 1 .352 0L6 6.154V3Zm1 3.528 2.676 1.004A.5.5 0 0 1 10 8v1.988c.163.008.33.012.5.012 1.06 0 1.998-.162 2.653-.408.329-.123.56-.258.701-.382.14-.125.146-.197.146-.21V4.308a4.265 4.265 0 0 1-.496.22C12.711 4.827 11.649 5 10.5 5s-2.21-.174-3.004-.471A4.26 4.26 0 0 1 7 4.309v2.22Zm2 2.193L6 9.847v3.931l3-1.125V8.721ZM5 9.847 2 8.72v3.932l3 1.125V9.848Zm.5-.881L2.924 8 5.5 7.034 8.076 8 5.5 8.966Z" clip-rule="evenodd"/></symbol>
  <symbol id="icon-large" fill="none" viewBox="0 0 24 24"><path fill="currentColor" fill-rule="evenodd" d="M11 6c0-.399.336-.895 1.188-1.32C13.01 4.268 14.18 4 15.5 4c1.32 0 2.49.269 3.312.68C19.664 5.104 20 5.6 20 6s-.336.895-1.188 1.32C17.99 7.732 16.82 8 15.5 8c-1.32 0-2.49-.269-3.312-.68C11.336 6.896 11 6.4 11 6Zm-1 0c0-.982.783-1.736 1.741-2.215.988-.494 2.318-.785 3.76-.785 1.44 0 2.77.291 3.758.785C20.217 4.264 21 5.018 21 6v8c0 .982-.783 1.736-1.74 2.215-.989.494-2.318.785-3.76.785-.168 0-.335-.004-.5-.012v1a.502.502 0 0 1-.303.472l-5.49 2.495a.5.5 0 0 1-.414 0l-5.49-2.495A.5.5 0 0 1 3 17.989V12a.498.498 0 0 1 .304-.46l5.49-2.495a.5.5 0 0 1 .413 0l.793.36V6Zm-6 6.777v4.901l4.5 2.046v-4.902L4 12.777Zm5.5 2.045v4.902l4.5-2.046v-4.901l-4.5 2.045Zm5.31-3.214a.5.5 0 0 0-.113-.068L11 9.86V7.756c.225.173.476.327.741.459.988.494 2.318.785 3.76.785 1.44 0 2.77-.291 3.758-.785A4.56 4.56 0 0 0 20 7.756V14c0 .399-.336.895-1.188 1.32-.822.411-1.992.68-3.312.68-.169 0-.336-.004-.5-.013V12a.5.5 0 0 0-.19-.393ZM9 13.95 4.708 12 9 10.05 13.292 12 9 13.95Z" clip-rule="evenodd"/></symbol>
  <use href="#icon"/>
</svg>