<svg xmlns="http://www.w3.org/2000/svg">
  <symbol id="icon" fill="none" viewBox="0 0 16 16"><path fill="currentColor" fill-rule="evenodd" d="M2.992 4.5 7.5 1.87v2.593L5.214 5.796 2.992 4.5Zm-.492.87v5.196l2-1.334V6.537l-2-1.166Zm3 1.75v2.093l2 1.167V8.287l-2-1.166Zm3 1.167v2.092l2-1.166V7.12l-2 1.166Zm3-1.75v2.695l2 1.334V5.37l-2 1.166ZM13.008 4.5l-2.222 1.296L8.5 4.463V1.87l4.508 2.63ZM9.793 6.375 8 7.421 6.207 6.375 8 5.329l1.793 1.046Zm-4.775 3.714-2.074 1.383L7.5 14.13v-2.593L5.018 10.09Zm8.038 1.383L8.5 14.13v-2.593l2.482-1.448 2.074 1.383ZM7.244.862a1.5 1.5 0 0 1 1.512 0l5 2.917a1.5 1.5 0 0 1 .744 1.295v5.852a1.5 1.5 0 0 1-.744 1.295l-5 2.917a1.5 1.5 0 0 1-1.512 0l-5-2.917a1.5 1.5 0 0 1-.744-1.295V5.074a1.5 1.5 0 0 1 .744-1.295l5-2.917Z" clip-rule="evenodd"/></symbol>
  <symbol id="icon-large" fill="none" viewBox="0 0 24 24"><path fill="currentColor" fill-rule="evenodd" d="M12.5 2.392v3.825l4.452 2.67L20.042 7 12.5 2.392Zm-1 3.825V2.392L3.959 7l3.09 1.888L11.5 6.217Zm9 1.675-3 1.833v4.498l3 1.875V7.892Zm-.451 9.103-3.054-1.909-4.495 2.697v3.825l7.549-4.613ZM16.5 14.217l-4 2.4V12.78l4-2.444v3.88Zm-5 2.4V12.78l-4-2.444v3.88l4 2.4Zm0 4.991v-3.825l-4.495-2.697-3.054 1.91 7.549 4.613Zm-8-5.51V7.892l3 1.833v4.498l-3 1.875Zm12.489-6.622L12 7.083 8.011 9.476 12 11.914l3.989-2.438Zm-4.771-8.084a1.5 1.5 0 0 1 1.564 0l8 4.889a1.5 1.5 0 0 1 .718 1.28v8.878a1.5 1.5 0 0 1-.718 1.28l-8 4.889a1.5 1.5 0 0 1-1.564 0l-8-4.889a1.5 1.5 0 0 1-.718-1.28V7.561a1.5 1.5 0 0 1 .718-1.28l8-4.889Z" clip-rule="evenodd"/></symbol>
  <use href="#icon"/>
</svg>