<svg xmlns="http://www.w3.org/2000/svg">
  <symbol id="icon" fill="none" viewBox="0 0 16 16"><path fill="currentColor" fill-rule="evenodd" d="M2 2.5a.5.5 0 0 1 .5-.5h11a.5.5 0 0 1 .5.5v5h-2a.5.5 0 0 0-.407.209L9.61 10.486 6.96 4.303a.5.5 0 0 0-.867-.094L3.743 7.5H2v-5Zm0 6v5a.5.5 0 0 0 .5.5h11a.5.5 0 0 0 .5-.5v-5h-1.743l-2.35 3.29a.5.5 0 0 1-.867-.093L6.39 5.514 4.407 8.29A.5.5 0 0 1 4 8.5H2ZM2.5 1A1.5 1.5 0 0 0 1 2.5v11A1.5 1.5 0 0 0 2.5 15h11a1.5 1.5 0 0 0 1.5-1.5v-11A1.5 1.5 0 0 0 13.5 1h-11Z" clip-rule="evenodd"/></symbol>
  <symbol id="icon-large" fill="none" viewBox="0 0 24 24"><path fill="currentColor" fill-rule="evenodd" d="M4 4.5a.5.5 0 0 1 .5-.5h15a.5.5 0 0 1 .5.5v7h-2a.5.5 0 0 0-.439.26L15 16.457 9.439 6.26a.5.5 0 0 0-.878 0L5.703 11.5H4v-7Zm0 8v7a.5.5 0 0 0 .5.5h15a.5.5 0 0 0 .5-.5v-7h-1.703l-2.858 5.24a.5.5 0 0 1-.878 0L9 7.543 6.439 12.24A.5.5 0 0 1 6 12.5H4ZM4.5 3A1.5 1.5 0 0 0 3 4.5v15A1.5 1.5 0 0 0 4.5 21h15a1.5 1.5 0 0 0 1.5-1.5v-15A1.5 1.5 0 0 0 19.5 3h-15Z" clip-rule="evenodd"/></symbol>
  <use href="#icon"/>
</svg>