<svg xmlns="http://www.w3.org/2000/svg">
  <symbol id="icon" fill="none" viewBox="0 0 16 16"><path fill="currentColor" fill-rule="evenodd" d="M13.956.986a1 1 0 0 1 1.086 1.087l-.062.685a4.5 4.5 0 0 1-1.3 2.775l-1.482 1.483 1.936 5.81a1.5 1.5 0 0 1-.362 1.535l-.215.215a1.5 1.5 0 0 1-2.281-.189l-2.688-3.762-.892.892.212 1.487a.5.5 0 0 1-.141.425l-.894.894a1.5 1.5 0 0 1-2.46-.523l-.608-1.577-1.577-.607a1.5 1.5 0 0 1-.522-2.46l.894-.894a.5.5 0 0 1 .424-.142l1.487.213.893-.893L1.64 4.753a1.5 1.5 0 0 1-.188-2.282l.214-.214a1.5 1.5 0 0 1 1.535-.363l5.81 1.937 1.484-1.483a4.5 4.5 0 0 1 2.774-1.3l.686-.062Zm.09.996-.685.062a3.5 3.5 0 0 0-2.158 1.011L9.5 4.757a.5.5 0 0 1-.511.12L2.886 2.843a.5.5 0 0 0-.511.12l-.215.216a.5.5 0 0 0 .063.76l4.242 3.03a.5.5 0 0 1 .063.76L5.041 9.217a.5.5 0 0 1-.424.142L3.13 9.145l-.717.718a.5.5 0 0 0 .174.82l1.785.687a.5.5 0 0 1 .287.287l.687 1.784a.5.5 0 0 0 .82.175l.717-.718-.212-1.487a.5.5 0 0 1 .141-.424L8.3 9.5a.5.5 0 0 1 .76.063l3.03 4.243a.5.5 0 0 0 .761.063l.215-.215a.5.5 0 0 0 .12-.512L11.152 7.04a.5.5 0 0 1 .12-.512l1.702-1.701a3.5 3.5 0 0 0 1.011-2.158l.063-.686Z" clip-rule="evenodd"/></symbol>
  <symbol id="icon-large" fill="none" viewBox="0 0 24 24"><path fill="currentColor" fill-rule="evenodd" d="M20.989 1.928a1 1 0 0 1 1.086 1.087l-.168 1.849a4.5 4.5 0 0 1-1.3 2.774l-2.646 2.647 2.889 8.666a1.5 1.5 0 0 1-.362 1.535l-.85.85a1.5 1.5 0 0 1-2.281-.189l-4.274-5.984-1.527 1.528.318 2.227a.5.5 0 0 1-.142.424l-1.74 1.74a1.5 1.5 0 0 1-2.46-.522l-1.136-2.952-2.953-1.136a1.5 1.5 0 0 1-.522-2.46l1.74-1.74a.5.5 0 0 1 .424-.142l2.228.318 1.527-1.527-5.984-4.274a1.5 1.5 0 0 1-.189-2.282l.85-.85a1.5 1.5 0 0 1 1.535-.362l8.667 2.89 2.646-2.647a4.5 4.5 0 0 1 2.775-1.3l1.849-.168Zm-.078 2.845.168-1.849-1.849.168a3.5 3.5 0 0 0-2.158 1.01l-2.865 2.866a.5.5 0 0 1-.512.12l-8.96-2.986a.5.5 0 0 0-.51.12l-.85.85a.5.5 0 0 0 .062.761l6.465 4.617a.5.5 0 0 1 .062.76l-2.12 2.122a.5.5 0 0 1-.425.141l-2.228-.318-1.563 1.564a.5.5 0 0 0 .174.82l3.16 1.215a.5.5 0 0 1 .287.287l1.216 3.16a.5.5 0 0 0 .82.174l1.563-1.563-.318-2.227a.5.5 0 0 1 .142-.425l2.12-2.121a.5.5 0 0 1 .761.063l4.617 6.464a.5.5 0 0 0 .76.063l.85-.85a.5.5 0 0 0 .121-.511l-2.986-8.96a.5.5 0 0 1 .12-.512l2.866-2.865a3.5 3.5 0 0 0 1.01-2.158Z" clip-rule="evenodd"/></symbol>
  <use href="#icon"/>
</svg>