<svg xmlns="http://www.w3.org/2000/svg">
  <symbol id="icon" fill="none" viewBox="0 0 16 16"><path fill="currentColor" fill-rule="evenodd" d="M8 1a.5.5 0 0 1 .5.5V3H14a1 1 0 0 1 1 1v2a1 1 0 0 1-1 1H8.5v1.974l3.507.023a1 1 0 0 1 .993 1V12a1 1 0 0 1-1 1H8.5v1.5a.5.5 0 0 1-1 0V13H4a1 1 0 0 1-1-1V9.944a1 1 0 0 1 1.007-1l3.493.023V7H2a1 1 0 0 1-1-1V4a1 1 0 0 1 1-1h5.5V1.5A.5.5 0 0 1 8 1Zm6 3H2v2h12V4ZM4 12V9.944l8 .053V12H4Z" clip-rule="evenodd"/></symbol>
  <symbol id="icon-large" fill="none" viewBox="0 0 24 24"><path fill="currentColor" fill-rule="evenodd" d="M12 3a.5.5 0 0 1 .5.5V6h6A1.5 1.5 0 0 1 20 7.5v2a1.5 1.5 0 0 1-1.5 1.5h-6v2h4a1.5 1.5 0 0 1 1.5 1.5v2a1.5 1.5 0 0 1-1.5 1.5h-4v2.5a.5.5 0 0 1-1 0V18h-4A1.5 1.5 0 0 1 6 16.5v-2A1.5 1.5 0 0 1 7.5 13h4v-2h-6A1.5 1.5 0 0 1 4 9.5v-2A1.5 1.5 0 0 1 5.5 6h6V3.5A.5.5 0 0 1 12 3ZM5.5 7a.5.5 0 0 0-.5.5v2a.5.5 0 0 0 .5.5h13a.5.5 0 0 0 .5-.5v-2a.5.5 0 0 0-.5-.5h-13ZM7 14.5a.5.5 0 0 1 .5-.5h9a.5.5 0 0 1 .5.5v2a.5.5 0 0 1-.5.5h-9a.5.5 0 0 1-.5-.5v-2Z" clip-rule="evenodd"/></symbol>
  <use href="#icon"/>
</svg>