<svg xmlns="http://www.w3.org/2000/svg">
  <symbol id="icon" fill="none" viewBox="0 0 16 16"><path fill="currentColor" fill-rule="evenodd" d="M1 1.5a.5.5 0 0 1 .5-.5h13a.5.5 0 0 1 0 1h-13a.5.5 0 0 1-.5-.5ZM3 4a1 1 0 0 1 1-1h2a1 1 0 0 1 1 1v10a1 1 0 0 1-1 1H4a1 1 0 0 1-1-1V4Zm3 0H4v10h2V4Zm4-1a1 1 0 0 0-1 1v7a1 1 0 0 0 1 1h2a1 1 0 0 0 1-1V4a1 1 0 0 0-1-1h-2Zm0 1h2v7h-2V4Z" clip-rule="evenodd"/></symbol>
  <symbol id="icon-large" fill="none" viewBox="0 0 24 24"><path fill="currentColor" fill-rule="evenodd" d="M3 3.5a.5.5 0 0 1 .5-.5h17a.5.5 0 0 1 0 1h-17a.5.5 0 0 1-.5-.5ZM7.5 7a.5.5 0 0 0-.5.5v12a.5.5 0 0 0 .5.5h2a.5.5 0 0 0 .5-.5v-12a.5.5 0 0 0-.5-.5h-2ZM6 7.5A1.5 1.5 0 0 1 7.5 6h2A1.5 1.5 0 0 1 11 7.5v12A1.5 1.5 0 0 1 9.5 21h-2A1.5 1.5 0 0 1 6 19.5v-12Zm8 0a.5.5 0 0 1 .5-.5h2a.5.5 0 0 1 .5.5v8a.5.5 0 0 1-.5.5h-2a.5.5 0 0 1-.5-.5v-8Zm.5-1.5A1.5 1.5 0 0 0 13 7.5v8a1.5 1.5 0 0 0 1.5 1.5h2a1.5 1.5 0 0 0 1.5-1.5v-8A1.5 1.5 0 0 0 16.5 6h-2Z" clip-rule="evenodd"/></symbol>
  <use href="#icon"/>
</svg>