<svg xmlns="http://www.w3.org/2000/svg">
  <symbol id="icon" fill="none" viewBox="0 0 16 16"><path fill="currentColor" fill-rule="evenodd" d="M3 2a1 1 0 0 1 1-1h2a1 1 0 0 1 1 1v10a1 1 0 0 1-1 1H4a1 1 0 0 1-1-1V2Zm3 0H4v10h2V2ZM1 14.5a.5.5 0 0 1 .5-.5h13a.5.5 0 1 1 0 1h-13a.5.5 0 0 1-.5-.5ZM10 4a1 1 0 0 0-1 1v7a1 1 0 0 0 1 1h2a1 1 0 0 0 1-1V5a1 1 0 0 0-1-1h-2Zm0 1h2v7h-2V5Z" clip-rule="evenodd"/></symbol>
  <symbol id="icon-large" fill="none" viewBox="0 0 24 24"><path fill="currentColor" fill-rule="evenodd" d="M7.5 4a.5.5 0 0 0-.5.5v12a.5.5 0 0 0 .5.5h2a.5.5 0 0 0 .5-.5v-12a.5.5 0 0 0-.5-.5h-2ZM6 4.5A1.5 1.5 0 0 1 7.5 3h2A1.5 1.5 0 0 1 11 4.5v12A1.5 1.5 0 0 1 9.5 18h-2A1.5 1.5 0 0 1 6 16.5v-12Zm-3 16a.5.5 0 0 1 .5-.5h17a.5.5 0 0 1 0 1h-17a.5.5 0 0 1-.5-.5Zm11-12a.5.5 0 0 1 .5-.5h2a.5.5 0 0 1 .5.5v8a.5.5 0 0 1-.5.5h-2a.5.5 0 0 1-.5-.5v-8Zm.5-1.5A1.5 1.5 0 0 0 13 8.5v8a1.5 1.5 0 0 0 1.5 1.5h2a1.5 1.5 0 0 0 1.5-1.5v-8A1.5 1.5 0 0 0 16.5 7h-2Z" clip-rule="evenodd"/></symbol>
  <use href="#icon"/>
</svg>