<svg xmlns="http://www.w3.org/2000/svg">
  <symbol id="icon" fill="none" viewBox="0 0 16 16"><path fill="currentColor" fill-rule="evenodd" d="M2.146 1.146a.5.5 0 0 1 .708 0L4.59 2.883A6.964 6.964 0 0 1 7.996 2c1.239 0 2.402.322 3.41.886l1.74-1.74a.5.5 0 0 1 .708.708l-1.595 1.594a6.985 6.985 0 0 1 2.733 5.548V10.5a.5.5 0 0 1-.5.5H1.5a.5.5 0 0 1-.5-.5V8.996a6.985 6.985 0 0 1 2.738-5.551L2.146 1.854a.5.5 0 0 1 0-.708ZM2 8.996a5.996 5.996 0 1 1 11.992 0V10H2V8.996ZM2 14.5V13h12v1.5a.5.5 0 0 0 1 0v-2a.5.5 0 0 0-.5-.5h-13a.5.5 0 0 0-.5.5v2a.5.5 0 0 0 1 0ZM5.75 8a.75.75 0 1 1-1.5 0 .75.75 0 0 1 1.5 0Zm5.25.75a.75.75 0 1 0 0-1.5.75.75 0 0 0 0 1.5Z" clip-rule="evenodd"/></symbol>
  <symbol id="icon-large" fill="none" viewBox="0 0 24 24"><path fill="currentColor" fill-rule="evenodd" d="M3.146 3.146a.5.5 0 0 1 .708 0l2.559 2.56A9.954 9.954 0 0 1 12 4c2.07 0 3.992.629 5.587 1.705l2.56-2.559a.5.5 0 0 1 .707.708l-2.459 2.458A9.98 9.98 0 0 1 22 14v1.5a.5.5 0 0 1-.5.5h-19a.5.5 0 0 1-.5-.5V14a9.98 9.98 0 0 1 3.605-7.688L3.146 3.854a.5.5 0 0 1 0-.708ZM3 14a9 9 0 0 1 18 0v1H3v-1Zm-.5 3a.5.5 0 0 0-.5.5v3a.5.5 0 0 0 1 0V18h18v2.5a.5.5 0 0 0 1 0v-3a.5.5 0 0 0-.5-.5h-19ZM9 12a1 1 0 1 1-2 0 1 1 0 0 1 2 0Zm7 1a1 1 0 1 0 0-2 1 1 0 0 0 0 2Z" clip-rule="evenodd"/></symbol>
  <use href="#icon"/>
</svg>