<svg xmlns="http://www.w3.org/2000/svg">
  <symbol id="icon" fill="none" viewBox="0 0 16 16"><path fill="currentColor" fill-rule="evenodd" d="M1 2.5A1.5 1.5 0 0 1 2.5 1h11.002a1.5 1.5 0 0 1 1.5 1.5v9a1.5 1.5 0 0 1-1.5 1.5h-3.088a.5.5 0 0 0-.353.146l-1.707 1.708a.5.5 0 0 1-.708 0L5.94 13.146A.5.5 0 0 0 5.586 13H2.5A1.5 1.5 0 0 1 1 11.5v-9ZM2.5 2a.5.5 0 0 0-.5.5v9a.5.5 0 0 0 .5.5h3.086a1.5 1.5 0 0 1 1.06.44L8 13.792l1.354-1.354a1.5 1.5 0 0 1 1.06-.439h3.088a.5.5 0 0 0 .5-.5v-9a.5.5 0 0 0-.5-.5H2.5ZM4 5.5a.5.5 0 0 1 .5-.5h7a.5.5 0 0 1 0 1h-7a.5.5 0 0 1-.5-.5ZM4.5 8a.5.5 0 0 0 0 1h5a.5.5 0 0 0 0-1h-5Z" clip-rule="evenodd"/></symbol>
  <symbol id="icon-large" fill="none" viewBox="0 0 24 24"><path fill="currentColor" fill-rule="evenodd" d="M3.5 3A1.5 1.5 0 0 0 2 4.5v13A1.5 1.5 0 0 0 3.5 19h5.532a.5.5 0 0 1 .384.18l1.432 1.718a1.5 1.5 0 0 0 2.304 0l1.432-1.718a.5.5 0 0 1 .384-.18H20.5a1.5 1.5 0 0 0 1.5-1.5v-13A1.5 1.5 0 0 0 20.5 3h-17ZM3 4.5a.5.5 0 0 1 .5-.5h17a.5.5 0 0 1 .5.5v13a.5.5 0 0 1-.5.5h-5.532a1.5 1.5 0 0 0-1.152.54l-1.432 1.718a.5.5 0 0 1-.768 0l-1.432-1.718A1.5 1.5 0 0 0 9.032 18H3.5a.5.5 0 0 1-.5-.5v-13ZM6.5 7a.5.5 0 0 0 0 1h11a.5.5 0 0 0 0-1h-11ZM6 11a.5.5 0 0 1 .5-.5h11a.5.5 0 0 1 0 1h-11A.5.5 0 0 1 6 11Zm.5 3a.5.5 0 0 0 0 1H12a.5.5 0 0 0 0-1H6.5Z" clip-rule="evenodd"/></symbol>
  <use href="#icon"/>
</svg>