<svg xmlns="http://www.w3.org/2000/svg">
  <symbol id="icon" fill="none" viewBox="0 0 16 16"><path fill="currentColor" fill-rule="evenodd" d="M8.865 2.588c.11-.133.307-.263.53-.378-.072.24-.163.458-.274.59-.11.134-.307.264-.53.379.072-.24.164-.458.274-.591Zm1.612-.604a.78.78 0 0 0-1.06-.88c-.366.146-.971.423-1.322.846-.35.422-.511 1.068-.586 1.455a.78.78 0 0 0 1.06.88c.366-.146.971-.423 1.322-.846.35-.422.511-1.068.586-1.455ZM8 6.167c.588 0 1.125-.222 1.55-.397l.147-.06c.487-.197.837-.301 1.195-.222.266.06.614.258.93.482.038.026.074.052.108.078-.673.786-1.002 1.672-.937 2.57.07.959.58 1.845 1.436 2.567l-.061.194a9.08 9.08 0 0 1-.444 1.12c-.198.408-.432.793-.695 1.073-.265.282-.517.416-.757.429-.306.017-.64-.076-1.073-.211l-.07-.022c-.385-.12-.855-.268-1.329-.268-.485 0-.964.143-1.362.262l-.03.009C6.171 13.9 5.824 14 5.5 14c-.076 0-.23-.045-.459-.244-.22-.191-.458-.484-.695-.864-.471-.758-.888-1.795-1.106-2.867-.22-1.077-.227-2.133.06-2.954.276-.789.825-1.372 1.805-1.582.36-.077.713.028 1.2.224l.143.058c.427.175.964.396 1.552.396Zm5.002-.538L12.667 6l.335-.371H13v-.002l-.004-.002-.01-.009-.034-.03a7.571 7.571 0 0 0-.553-.432c-.332-.235-.817-.537-1.292-.642-.69-.153-1.303.075-1.786.27l-.14.058c-.455.184-.804.327-1.182.327-.38 0-.73-.142-1.186-.327l-.137-.055c-.482-.194-1.093-.422-1.782-.274-1.353.29-2.159 1.144-2.539 2.23-.369 1.055-.335 2.311-.096 3.484.24 1.178.698 2.329 1.237 3.195.27.433.57.812.887 1.09.31.27.692.49 1.116.49.485 0 .964-.143 1.362-.262l.03-.009c.436-.13.783-.229 1.108-.229.318 0 .655.105 1.093.242l.009.002c.405.127.91.284 1.425.255.593-.033 1.07-.359 1.43-.742.361-.385.648-.87.867-1.324a10.073 10.073 0 0 0 .65-1.768l.008-.033.003-.009v-.003L13 11l.486.12a.5.5 0 0 0-.188-.521c-.85-.632-1.257-1.358-1.307-2.053-.05-.691.246-1.455 1.018-2.182a.5.5 0 0 0-.007-.735Z" clip-rule="evenodd"/></symbol>
  <symbol id="icon-large" fill="none" viewBox="0 0 24 24"><path fill="currentColor" fill-rule="evenodd" d="M13.5 5.034c.28-.338.473-.945.588-1.492-.516.215-1.077.515-1.357.853-.28.338-.472.944-.587 1.491.516-.214 1.076-.515 1.357-.852ZM15.098 3.6a.92.92 0 0 0-1.253-1.039c-.55.217-1.401.614-1.883 1.195-.481.58-.714 1.49-.826 2.071a.92.92 0 0 0 1.252 1.039c.55-.218 1.402-.615 1.883-1.195.482-.58.714-1.491.827-2.071ZM12 9c.858 0 1.53-.333 2.074-.603l.16-.079c.587-.286 1.05-.465 1.658-.33.452.1 1.008.424 1.486.763.14.1.27.197.38.284-1.08 1.152-1.618 2.38-1.518 3.628.103 1.293.882 2.479 2.172 3.514a13.612 13.612 0 0 1-.912 2.027c-.332.595-.726 1.17-1.169 1.597-.444.43-.899.674-1.359.7-.451.025-.776-.148-1.219-.407l-.05-.03c-.422-.247-.961-.564-1.703-.564-.75 0-1.29.306-1.722.551l-.024.014c-.447.253-.783.435-1.254.435-.213 0-.51-.11-.877-.408-.36-.29-.743-.724-1.116-1.272-.745-1.095-1.409-2.585-1.77-4.122-.364-1.544-.41-3.079.016-4.29.413-1.177 1.278-2.082 2.852-2.42.611-.13 1.076.05 1.663.335l.157.077c.545.27 1.215.6 2.075.6Zm6.835-.371L18.5 9l.335-.371-.002-.002-.004-.003-.014-.013a5.714 5.714 0 0 0-.232-.197 11.071 11.071 0 0 0-.627-.48c-.494-.35-1.188-.776-1.848-.922-.963-.214-1.696.107-2.313.408l-.147.072C13.083 7.77 12.614 8 12 8c-.616 0-1.086-.23-1.652-.507a49.163 49.163 0 0 0-.143-.07c-.616-.298-1.347-.618-2.31-.412-1.926.413-3.061 1.57-3.586 3.066-.512 1.46-.432 3.207-.046 4.85.389 1.65 1.1 3.254 1.917 4.456.409.6.855 1.116 1.315 1.488.452.365.967.629 1.505.629.75 0 1.29-.306 1.722-.551l.024-.014c.447-.253.783-.435 1.254-.435.463 0 .794.191 1.248.457l.002.001c.44.258.998.584 1.778.541.788-.043 1.458-.458 1.998-.979.54-.522.99-1.19 1.347-1.828a14.617 14.617 0 0 0 1.085-2.482l.014-.045.004-.012.001-.004v-.001L19 16l.478.148a.5.5 0 0 0-.18-.55c-1.34-.995-1.982-2.026-2.062-3.014-.078-.983.389-2.073 1.607-3.22a.5.5 0 0 0-.008-.735Z" clip-rule="evenodd"/></symbol>
  <use href="#icon"/>
</svg>