<svg xmlns="http://www.w3.org/2000/svg">
  <symbol id="icon" fill="none" viewBox="0 0 16 16"><path fill="currentColor" fill-rule="evenodd" d="M9.854 3.646a.5.5 0 1 0-.708.708L12.293 7.5H2.5a.5.5 0 0 0 0 1h9.793l-3.147 3.146a.5.5 0 0 0 .708.708l4-4a.5.5 0 0 0 0-.708l-4-4Z" clip-rule="evenodd"/></symbol>
  <symbol id="icon-large" fill="none" viewBox="0 0 24 24"><path fill="currentColor" fill-rule="evenodd" d="M14.354 5.146a.5.5 0 0 0-.708.708l5.647 5.646H3.5a.5.5 0 0 0 0 1h15.793l-5.647 5.646a.5.5 0 0 0 .708.708l6.5-6.5a.5.5 0 0 0 0-.708l-6.5-6.5Z" clip-rule="evenodd"/></symbol>
  <use href="#icon"/>
</svg>