<svg xmlns="http://www.w3.org/2000/svg">
  <symbol id="icon" fill="none" viewBox="0 0 16 16"><path fill="currentColor" fill-rule="evenodd" d="M8.5 2.5a.5.5 0 0 0-1 0v9.793L4.354 9.146a.5.5 0 1 0-.708.708l4 4a.5.5 0 0 0 .708 0l4-4a.5.5 0 0 0-.708-.708L8.5 12.293V2.5Z" clip-rule="evenodd"/></symbol>
  <symbol id="icon-large" fill="none" viewBox="0 0 24 24"><path fill="currentColor" fill-rule="evenodd" d="M12.5 3.5a.5.5 0 0 0-1 0v15.793l-6.146-6.147a.5.5 0 0 0-.708.708l7 7a.5.5 0 0 0 .708 0l7-7a.5.5 0 0 0-.708-.708L12.5 19.293V3.5Z" clip-rule="evenodd"/></symbol>
  <use href="#icon"/>
</svg>