<svg xmlns="http://www.w3.org/2000/svg">
  <symbol id="icon" fill="none" viewBox="0 0 16 16"><path fill="currentColor" fill-rule="evenodd" d="M8 1a.5.5 0 0 1 .5.5V2H9a.5.5 0 0 1 0 1h-.5v.5a.5.5 0 0 1-1 0V3H7a.5.5 0 0 1 0-1h.5v-.5A.5.5 0 0 1 8 1ZM3 4.5a.5.5 0 0 0-1 0V5h-.5a.5.5 0 0 0 0 1H2v.5a.5.5 0 0 0 1 0V6h.5a.5.5 0 0 0 0-1H3v-.5Zm3.527 1.9C6.11 6.657 6 6.9 6 7c0 .1.11.344.527.6a2.913 2.913 0 0 0 2.946 0C9.89 7.343 10 7.1 10 7c0-.1-.11-.344-.527-.6a2.913 2.913 0 0 0-2.946 0ZM5 7v7.5a.5.5 0 0 0 1 0v-2.05l.006.003a3.911 3.911 0 0 0 3.988 0l.006-.004V14.5a.5.5 0 1 0 1 0V7c0-.636-.496-1.142-1.006-1.453a3.912 3.912 0 0 0-3.988 0C5.496 5.858 5 6.364 5 7Zm5 4V8.45l-.006.004a3.912 3.912 0 0 1-3.988 0L6 8.449V11c0 .1.11.344.527.6a2.914 2.914 0 0 0 2.946 0c.418-.256.527-.5.527-.6Zm4-6.5a.5.5 0 0 0-1 0V5h-.5a.5.5 0 0 0 0 1h.5v.5a.5.5 0 0 0 1 0V6h.5a.5.5 0 0 0 0-1H14v-.5Z" clip-rule="evenodd"/></symbol>
  <symbol id="icon-large" fill="none" viewBox="0 0 24 24"><path fill="currentColor" fill-rule="evenodd" d="M12 1.625c.161 0 .305.103.356.256l.44 1.323 1.323.44a.375.375 0 0 1 0 .712l-1.322.44-.441 1.323a.375.375 0 0 1-.712 0l-.44-1.323-1.323-.44a.375.375 0 0 1 0-.712l1.322-.44.441-1.323A.375.375 0 0 1 12 1.625Zm0 1.56-.144.434a.375.375 0 0 1-.237.237L11.186 4l.433.144c.112.038.2.125.237.237l.144.433.144-.433a.375.375 0 0 1 .237-.237L12.814 4l-.433-.144a.375.375 0 0 1-.237-.237L12 3.186Zm7.856 2.696a.375.375 0 0 0-.712 0l-.44 1.323-1.323.44a.375.375 0 0 0 0 .712l1.322.44.441 1.323a.375.375 0 0 0 .712 0l.44-1.323 1.323-.44a.375.375 0 0 0 0-.712l-1.322-.44-.441-1.323Zm-.5 1.738.144-.433.144.433c.038.112.125.2.237.237l.433.144-.433.144a.375.375 0 0 0-.237.237l-.144.433-.144-.433a.375.375 0 0 0-.237-.237L18.686 8l.433-.144a.375.375 0 0 0 .237-.237Zm-9.583 1.9c-.559.32-.773.686-.773.981 0 .295.214.66.773.98.545.311 1.331.52 2.227.52.896 0 1.682-.209 2.227-.52.559-.32.773-.685.773-.98 0-.295-.214-.66-.773-.98C13.682 9.209 12.896 9 12 9c-.896 0-1.682.209-2.227.52Zm-.496-.867C8.57 9.056 8 9.69 8 10.5v11a.5.5 0 0 0 1 0v-2.234c.098.06.199.117.302.169.716.358 1.67.565 2.698.565 1.027 0 1.982-.207 2.698-.565.103-.052.204-.108.302-.17V21.5a.5.5 0 0 0 1 0v-11c0-.81-.57-1.444-1.277-1.848C14 8.239 13.037 8 12 8s-2.001.24-2.723.652ZM15 17.75v-5.577a3.54 3.54 0 0 1-.277.175C14 12.761 13.037 13 12 13s-2.001-.24-2.723-.652A3.527 3.527 0 0 1 9 12.173v5.577c0 .192.169.5.749.79.55.275 1.345.46 2.251.46.906 0 1.701-.185 2.251-.46.58-.29.749-.598.749-.79ZM4.856 5.881a.375.375 0 0 0-.712 0l-.44 1.323-1.323.44a.375.375 0 0 0 0 .712l1.323.44.44 1.323a.375.375 0 0 0 .712 0l.44-1.323 1.323-.44a.375.375 0 0 0 0-.712l-1.323-.44-.44-1.323Zm-.5 1.738.144-.433.144.433c.038.112.125.2.237.237L5.314 8l-.433.144a.375.375 0 0 0-.237.237l-.144.433-.144-.433a.375.375 0 0 0-.237-.237L3.686 8l.433-.144a.375.375 0 0 0 .237-.237Z" clip-rule="evenodd"/></symbol>
  <use href="#icon"/>
</svg>