<svg xmlns="http://www.w3.org/2000/svg">
  <symbol id="icon" fill="none" viewBox="0 0 16 16"><path fill="currentColor" fill-rule="evenodd" d="M5.158 1.026a.5.5 0 0 1 .316.632L4.694 4h6.612l-.78-2.342a.5.5 0 1 1 .948-.316L12.36 4h1.035a1.5 1.5 0 0 1 1.493 1.65l-.8 8A1.5 1.5 0 0 1 12.595 15h-9.19a1.5 1.5 0 0 1-1.493-1.35l-.8-8A1.5 1.5 0 0 1 2.605 4H3.64l.886-2.658a.5.5 0 0 1 .632-.316ZM2.108 5.55A.5.5 0 0 1 2.604 5h10.79a.5.5 0 0 1 .498.55l-.8 8a.5.5 0 0 1-.498.45h-9.19a.5.5 0 0 1-.498-.45l-.8-8ZM4.5 7a.5.5 0 1 0 0 1h7a.5.5 0 0 0 0-1h-7Z" clip-rule="evenodd"/></symbol>
  <symbol id="icon-large" fill="none" viewBox="0 0 24 24"><path fill="currentColor" fill-rule="evenodd" d="M8.464 3.686a.5.5 0 1 0-.928-.372L5.662 8H3.68A1.5 1.5 0 0 0 2.2 9.747l1.668 10A1.5 1.5 0 0 0 5.348 21h13.305a1.5 1.5 0 0 0 1.48-1.253l1.666-10A1.5 1.5 0 0 0 20.32 8h-1.98l-1.875-4.686a.5.5 0 0 0-.928.372L17.262 8H6.739l1.725-4.314ZM18.012 9a.49.49 0 0 1-.023 0H3.68a.5.5 0 0 0-.493.582l1.667 10a.5.5 0 0 0 .493.418h13.306a.5.5 0 0 0 .493-.418l1.667-10A.5.5 0 0 0 20.32 9h-2.308ZM6.5 11a.5.5 0 0 0 0 1h11a.5.5 0 1 0 0-1h-11Z" clip-rule="evenodd"/></symbol>
  <use href="#icon"/>
</svg>