<svg xmlns="http://www.w3.org/2000/svg">
  <symbol id="icon" fill="none" viewBox="0 0 16 16"><path fill="currentColor" fill-rule="evenodd" d="M9.721 1.052a.5.5 0 0 1 .27.546L9.11 6h4.39a.5.5 0 0 1 .376.83l-7 8a.5.5 0 0 1-.866-.428L6.89 10H2.5a.5.5 0 0 1-.376-.83l7-8a.5.5 0 0 1 .597-.118ZM3.601 9H7.5a.5.5 0 0 1 .49.598l-.632 3.162L12.398 7H8.5a.5.5 0 0 1-.49-.598l.632-3.162L3.602 9Z" clip-rule="evenodd"/></symbol>
  <symbol id="icon-large" fill="none" viewBox="0 0 24 24"><path fill="currentColor" fill-rule="evenodd" d="M15.23 1.056a.5.5 0 0 1 .26.542l-1.42 7.098 5.622 2.343a.5.5 0 0 1 .17.806l-10.5 11a.5.5 0 0 1-.852-.443l1.42-7.098-5.622-2.342a.5.5 0 0 1-.17-.807l10.5-11a.5.5 0 0 1 .593-.099ZM5.365 12.318l5.328 2.22a.5.5 0 0 1 .298.56l-1.162 5.81 8.808-9.227-5.328-2.22a.5.5 0 0 1-.298-.559l1.162-5.81-8.808 9.226Z" clip-rule="evenodd"/></symbol>
  <use href="#icon"/>
</svg>