<svg xmlns="http://www.w3.org/2000/svg">
  <symbol id="icon" fill="none" viewBox="0 0 16 16"><path fill="currentColor" fill-rule="evenodd" d="M1.698 2H1.5a.5.5 0 1 1 0-1h.198a1.5 1.5 0 0 1 1.464 1.175L3.345 3H14.49a.504.504 0 0 1 .496.383.501.501 0 0 1 .007.198l-.876 6.131A1.5 1.5 0 0 1 12.633 11h-7.33a1.5 1.5 0 0 1-1.465-1.175L2.186 2.391A.5.5 0 0 0 1.698 2Zm12.225 2H3.568l1.246 5.608a.5.5 0 0 0 .488.392h7.33a.5.5 0 0 0 .496-.43L13.923 4ZM5 13.5a.5.5 0 1 1 1 0 .5.5 0 0 1-1 0Zm.5-1.5a1.5 1.5 0 1 0 0 3 1.5 1.5 0 0 0 0-3Zm6.5 1.5a.5.5 0 1 1 1 0 .5.5 0 0 1-1 0Zm.5-1.5a1.5 1.5 0 1 0 0 3 1.5 1.5 0 0 0 0-3Z" clip-rule="evenodd"/></symbol>
  <symbol id="icon-large" fill="none" viewBox="0 0 24 24"><path fill="currentColor" fill-rule="evenodd" d="M1.5 2a.5.5 0 0 0 0 1h1.204a.5.5 0 0 1 .488.388l.513 2.224 2.129 9.225A1.5 1.5 0 0 0 7.296 16H18.68a1.5 1.5 0 0 0 1.471-1.206l1.6-8A1.5 1.5 0 0 0 20.281 5H4.59l-.425-1.837A1.5 1.5 0 0 0 2.704 2H1.5Zm5.308 12.612L4.821 6h15.46a.5.5 0 0 1 .49.598l-1.6 8a.5.5 0 0 1-.49.402H7.295a.5.5 0 0 1-.488-.388ZM9 18a1 1 0 1 0 0 2 1 1 0 0 0 0-2Zm-2 1a2 2 0 1 1 4 0 2 2 0 0 1-4 0Zm10-1a1 1 0 1 0 0 2 1 1 0 0 0 0-2Zm-2 1a2 2 0 1 1 4 0 2 2 0 0 1-4 0Z" clip-rule="evenodd"/></symbol>
  <use href="#icon"/>
</svg>