<svg xmlns="http://www.w3.org/2000/svg">
  <symbol id="icon" fill="none" viewBox="0 0 16 16"><path fill="currentColor" fill-rule="evenodd" d="M2 1.5a.5.5 0 0 0-1 0v12A1.5 1.5 0 0 0 2.5 15h12a.5.5 0 1 0 0-1h-12a.5.5 0 0 1-.5-.5v-12ZM4.051 5a1 1 0 0 0-1 1v6a1 1 0 0 0 1 1h1.053a1 1 0 0 0 1-1V6a1 1 0 0 0-1-1H4.052Zm0 1h1.053v6H4.052V6ZM7 3a1 1 0 0 1 1-1h1.053a1 1 0 0 1 1 1v9a1 1 0 0 1-1 1H8a1 1 0 0 1-1-1V3Zm2.053 0H8v9h1.053V3ZM12 7.5a1 1 0 0 0-1 1V12a1 1 0 0 0 1 1h1a1 1 0 0 0 1-1V8.5a1 1 0 0 0-1-1h-1Zm0 1h1V12h-1V8.5Z" clip-rule="evenodd"/></symbol>
  <symbol id="icon-large" fill="none" viewBox="0 0 24 24"><path fill="currentColor" fill-rule="evenodd" d="M3 3.5a.5.5 0 0 0-1 0v16A1.5 1.5 0 0 0 3.5 21h18a.5.5 0 0 0 0-1h-18a.5.5 0 0 1-.5-.5v-16Zm3 6a.5.5 0 0 1 .5-.5h1a.5.5 0 0 1 .5.5v7a.5.5 0 0 1-.5.5h-1a.5.5 0 0 1-.5-.5v-7ZM6.5 8A1.5 1.5 0 0 0 5 9.5v7A1.5 1.5 0 0 0 6.5 18h1A1.5 1.5 0 0 0 9 16.5v-7A1.5 1.5 0 0 0 7.5 8h-1Zm6-2a.5.5 0 0 0-.5.5v10a.5.5 0 0 0 .5.5h1a.5.5 0 0 0 .5-.5v-10a.5.5 0 0 0-.5-.5h-1Zm-1.5.5A1.5 1.5 0 0 1 12.5 5h1A1.5 1.5 0 0 1 15 6.5v10a1.5 1.5 0 0 1-1.5 1.5h-1a1.5 1.5 0 0 1-1.5-1.5v-10Zm7 6a.5.5 0 0 1 .5-.5h1a.5.5 0 0 1 .5.5v4a.5.5 0 0 1-.5.5h-1a.5.5 0 0 1-.5-.5v-4Zm.5-1.5a1.5 1.5 0 0 0-1.5 1.5v4a1.5 1.5 0 0 0 1.5 1.5h1a1.5 1.5 0 0 0 1.5-1.5v-4a1.5 1.5 0 0 0-1.5-1.5h-1Z" clip-rule="evenodd"/></symbol>
  <use href="#icon"/>
</svg>