<svg xmlns="http://www.w3.org/2000/svg">
  <symbol id="icon" fill="none" viewBox="0 0 16 16"><path fill="currentColor" fill-rule="evenodd" d="M1 8a.5.5 0 0 1 .276-.447L3.81 6.286 1.563 2.243a.5.5 0 0 1 .68-.68l4.043 2.246 1.267-2.533a.5.5 0 0 1 .894 0L9.75 3.881l2.68-.949a.5.5 0 0 1 .634.649l-1.013 2.67 2.668 1.3a.5.5 0 0 1 0 .898l-2.598 1.266 2.313 4.036a.5.5 0 0 1-.677.686l-4.043-2.246-1.267 2.533a.5.5 0 0 1-.894 0L6.25 12.119l-2.68.949a.5.5 0 0 1-.638-.638l.95-2.68-2.606-1.303A.5.5 0 0 1 1 8Zm1.618 0 1.71.855a1 1 0 0 1 .496 1.228l-.6 1.692 1.693-.599a1 1 0 0 1 1.228.496L8 13.382l.82-1.639a1 1 0 0 1 1.38-.427l2.474 1.375-1.42-2.479a1 1 0 0 1 .43-1.396L13.358 8l-1.746-.85a1 1 0 0 1-.497-1.254l.63-1.661-1.663.589a1 1 0 0 1-1.228-.496L8 2.618l-.82 1.639a1 1 0 0 1-1.38.426L3.288 3.287l1.396 2.514a1 1 0 0 1-.426 1.38L2.618 8Z" clip-rule="evenodd"/></symbol>
  <symbol id="icon-large" fill="none" viewBox="0 0 24 24"><path fill="currentColor" fill-rule="evenodd" d="M2.297 11.543a.5.5 0 0 0 0 .914l3.647 1.62a.5.5 0 0 1 .267.629l-1.398 3.84a.5.5 0 0 0 .64.641l3.841-1.398a.5.5 0 0 1 .628.267l1.621 3.647a.5.5 0 0 0 .914 0l1.562-3.514a.5.5 0 0 1 .694-.237l5.55 2.988a.5.5 0 0 0 .677-.677l-2.988-5.55a.5.5 0 0 1 .237-.694l3.514-1.562a.5.5 0 0 0 0-.914l-3.647-1.62a.5.5 0 0 1-.267-.629l1.398-3.84a.5.5 0 0 0-.64-.641L14.706 6.21a.5.5 0 0 1-.628-.267l-1.621-3.647a.5.5 0 0 0-.914 0L9.981 5.81a.5.5 0 0 1-.694.237L3.737 3.06a.5.5 0 0 0-.677.677l2.988 5.55a.5.5 0 0 1-.237.694l-3.514 1.562Zm4.053 1.621L3.731 12l2.486-1.105a1.5 1.5 0 0 0 .712-2.082L4.73 4.73l4.083 2.2a1.5 1.5 0 0 0 2.082-.712L12 3.731l1.164 2.62a1.5 1.5 0 0 0 1.884.8l2.833-1.032-1.032 2.833a1.5 1.5 0 0 0 .8 1.884L20.27 12l-2.486 1.105a1.5 1.5 0 0 0-.712 2.082l2.199 4.083-4.083-2.199a1.5 1.5 0 0 0-2.082.712L12 20.269l-1.164-2.62a1.5 1.5 0 0 0-1.884-.8l-2.833 1.032 1.032-2.833a1.5 1.5 0 0 0-.8-1.884Zm4.605-1.528-.85-1.531 1.53.85a.75.75 0 0 0 .73 0l1.53-.85-.85 1.53a.75.75 0 0 0 0 .73l.85 1.53-1.53-.85a.75.75 0 0 0-.73 0l-1.53.85.85-1.53a.75.75 0 0 0 0-.73Zm-1.13-2.83c-.659-.366-1.385.36-1.02 1.02L10.015 12l-1.208 2.174c-.366.66.36 1.386 1.02 1.02L12 13.986l2.174 1.208c.66.366 1.386-.36 1.02-1.02L13.986 12l1.208-2.174c.366-.66-.36-1.386-1.02-1.02L12 10.014 9.826 8.806Z" clip-rule="evenodd"/></symbol>
  <use href="#icon"/>
</svg>