<svg xmlns="http://www.w3.org/2000/svg">
  <symbol id="icon" fill="none" viewBox="0 0 16 16"><path fill="currentColor" fill-rule="evenodd" d="m10 3.5-4-.002a2 2 0 0 1 4 .002ZM5.042 3A3.02 3.02 0 0 0 5 3.5v.322c0 .373.303.676.676.676l4.647.002A.676.676 0 0 0 11 3.824V3.5c0-.17-.014-.338-.042-.501H12.5a.5.5 0 0 1 .5.5v10a.5.5 0 0 1-.5.5h-9a.5.5 0 0 1-.5-.5v-10a.5.5 0 0 1 .5-.5h1.542Zm.36-1H3.5A1.5 1.5 0 0 0 2 3.5v10A1.5 1.5 0 0 0 3.5 15h9a1.5 1.5 0 0 0 1.5-1.5v-10A1.5 1.5 0 0 0 12.5 2h-1.902a2.999 2.999 0 0 0-5.196 0ZM5 10.5a.5.5 0 0 1 .5-.5h2a.5.5 0 0 1 0 1h-2a.5.5 0 0 1-.5-.5ZM5.5 7a.5.5 0 0 0 0 1h5.133a.5.5 0 0 0 0-1H5.5Z" clip-rule="evenodd"/></symbol>
  <symbol id="icon-large" fill="none" viewBox="0 0 24 24"><path fill="currentColor" fill-rule="evenodd" d="M9 6a3 3 0 1 1 6 0H9Zm-.874-1C8.044 5.32 8 5.655 8 6v.056c0 .521.423.944.944.944h6.112A.944.944 0 0 0 16 6.056V6c0-.345-.044-.68-.126-1H18.5a.5.5 0 0 1 .5.5v15a.5.5 0 0 1-.5.5h-13a.5.5 0 0 1-.5-.5v-15a.5.5 0 0 1 .5-.5h2.626Zm.374-.938V4h-3A1.5 1.5 0 0 0 4 5.5v15A1.5 1.5 0 0 0 5.5 22h13a1.5 1.5 0 0 0 1.5-1.5v-15A1.5 1.5 0 0 0 18.5 4h-3v.062a3.999 3.999 0 0 0-7 0ZM8 15.5a.5.5 0 0 1 .5-.5h3a.5.5 0 0 1 0 1h-3a.5.5 0 0 1-.5-.5Zm.5-4.5a.5.5 0 0 0 0 1h7a.5.5 0 0 0 0-1h-7Z" clip-rule="evenodd"/></symbol>
  <use href="#icon"/>
</svg>