<svg xmlns="http://www.w3.org/2000/svg">
  <symbol id="icon" fill="none" viewBox="0 0 16 16"><path fill="currentColor" fill-rule="evenodd" d="M4.61 6.644A3.487 3.487 0 0 1 8 4a3.5 3.5 0 0 1 3.5 3.5.5.5 0 0 0 .5.5 2 2 0 1 1 0 4H4.5a2.5 2.5 0 0 1-.313-4.98.5.5 0 0 0 .423-.376ZM8 3a4.487 4.487 0 0 0-4.269 3.085A3.501 3.501 0 0 0 4.5 13H12a3 3 0 0 0 .476-5.962A4.5 4.5 0 0 0 8 3ZM6.854 6.646a.5.5 0 1 0-.708.708L7.293 8.5 6.146 9.646a.5.5 0 0 0 .708.708L8 9.207l1.146 1.147a.5.5 0 0 0 .708-.708L8.707 8.5l1.147-1.146a.5.5 0 0 0-.708-.708L8 7.793 6.854 6.646Z" clip-rule="evenodd"/></symbol>
  <symbol id="icon-large" fill="none" viewBox="0 0 24 24"><path fill="currentColor" fill-rule="evenodd" d="M6.425 8.783a6 6 0 0 1 11.56 1.784.5.5 0 0 0 .443.46 4 4 0 0 1-.445 7.976L7 19a5 5 0 0 1-.946-9.91.5.5 0 0 0 .371-.307ZM12 4a6.994 6.994 0 0 0-6.4 4.164A6 6 0 0 0 7 20l10.983.003a5 5 0 0 0 .959-9.908A7.001 7.001 0 0 0 12 4Zm-2.146 6.146a.5.5 0 0 0-.708.708L11.293 13l-2.147 2.146a.5.5 0 0 0 .708.708L12 13.707l2.146 2.147a.5.5 0 0 0 .708-.708L12.707 13l2.147-2.146a.5.5 0 0 0-.708-.708L12 12.293l-2.146-2.147Z" clip-rule="evenodd"/></symbol>
  <use href="#icon"/>
</svg>