<svg xmlns="http://www.w3.org/2000/svg">
  <symbol id="icon" fill="none" viewBox="0 0 16 16"><path fill="currentColor" fill-rule="evenodd" d="M1.854 1.146a.5.5 0 1 0-.708.708L4.273 4.98a4.48 4.48 0 0 0-.542 1.105A3.501 3.501 0 0 0 4.5 13H12c.094 0 .188-.004.28-.013l1.866 1.867a.5.5 0 0 0 .708-.708l-13-13ZM11.293 12 4.997 5.704a3.477 3.477 0 0 0-.387.94.5.5 0 0 1-.423.375A2.5 2.5 0 0 0 4.5 12h6.793ZM7.124 4.11A3.5 3.5 0 0 1 11.5 7.5a.5.5 0 0 0 .5.5 2 2 0 0 1 1.46 3.367l.73.683A3.007 3.007 0 0 0 15 10a3 3 0 0 0-2.524-2.962 4.5 4.5 0 0 0-6.659-3.475l.486.874c.255-.142.53-.253.821-.327Z" clip-rule="evenodd"/></symbol>
  <symbol id="icon-large" fill="none" viewBox="0 0 24 24"><path fill="currentColor" fill-rule="evenodd" d="M2.854 2.146a.5.5 0 1 0-.708.708l4.125 4.124c-.26.37-.485.768-.67 1.186A6 6 0 0 0 7 20h-.001l10.983.003a5.05 5.05 0 0 0 1.174-.138l1.99 1.989a.5.5 0 0 0 .707-.708l-19-19Zm15.431 16.846L6.991 7.698a5.945 5.945 0 0 0-.566 1.085.5.5 0 0 1-.37.306A5.002 5.002 0 0 0 7 19l10.983.003c.102 0 .203-.003.302-.01ZM8.77 5.942a6 6 0 0 1 9.215 4.624.5.5 0 0 0 .443.462 4 4 0 0 1 2.54 6.639l.745.666a5.001 5.001 0 0 0-2.771-8.238A7.001 7.001 0 0 0 8.23 5.1l.54.842Z" clip-rule="evenodd"/></symbol>
  <use href="#icon"/>
</svg>