<svg xmlns="http://www.w3.org/2000/svg">
  <symbol id="icon" fill="none" viewBox="0 0 16 16"><path fill="currentColor" fill-rule="evenodd" d="M4.61 6.644A3.487 3.487 0 0 1 8 4a3.5 3.5 0 0 1 3.5 3.5.5.5 0 0 0 .5.5 2 2 0 0 1 1.2 3.6l.6.8a3 3 0 0 0-1.324-5.362A4.5 4.5 0 0 0 8 3a4.487 4.487 0 0 0-4.269 3.085 3.501 3.501 0 0 0-1.167 6.331l.554-.832A2.5 2.5 0 0 1 4.187 7.02a.5.5 0 0 0 .423-.376Zm3.036.002a.5.5 0 0 1 .708 0l1.5 1.5a.5.5 0 0 1 0 .708l-1.5 1.5a.5.5 0 0 1-.708-.708l.632-.63a2.5 2.5 0 1 0 2.188 2.068.5.5 0 0 1 .986-.167 3.5 3.5 0 1 1-3.145-2.904l-.66-.66a.5.5 0 0 1 0-.707Z" clip-rule="evenodd"/></symbol>
  <symbol id="icon-large" fill="none" viewBox="0 0 24 24"><path fill="currentColor" fill-rule="evenodd" d="M12 5a5.995 5.995 0 0 0-5.575 3.783.5.5 0 0 1-.37.306 5.002 5.002 0 0 0 .469 9.889l11.46.025a4 4 0 0 0 .444-7.975.5.5 0 0 1-.443-.462A6 6 0 0 0 12 5ZM5.6 8.164a7.001 7.001 0 0 1 13.342 1.93 5.001 5.001 0 0 1-.959 9.91l-11.484-.026-.044-.002A6 6 0 0 1 5.6 8.164ZM12 11a2.5 2.5 0 1 0 2.465 2.083.5.5 0 0 1 .987-.166 3.5 3.5 0 1 1-3.145-2.904l-.66-.66a.5.5 0 0 1 .707-.707l1.5 1.5a.5.5 0 0 1 0 .708l-1.5 1.5a.5.5 0 0 1-.708-.708l.632-.63A2.544 2.544 0 0 0 12 11Z" clip-rule="evenodd"/></symbol>
  <use href="#icon"/>
</svg>