<svg xmlns="http://www.w3.org/2000/svg">
  <symbol id="icon" fill="none" viewBox="0 0 16 16"><path fill="currentColor" fill-rule="evenodd" d="M5.854 2.146a.5.5 0 1 0-.708.708l2.5 2.5a.5.5 0 0 0 .708 0l2.5-2.5a.5.5 0 0 0-.708-.708L8 4.293 5.854 2.146ZM2 8a.5.5 0 0 1 .5-.5h11a.5.5 0 0 1 0 1h-11A.5.5 0 0 1 2 8Zm3.146 5.146 2.5-2.5a.5.5 0 0 1 .708 0l2.5 2.5a.5.5 0 0 1-.708.708L8 11.707l-2.146 2.147a.5.5 0 0 1-.708-.708Z" clip-rule="evenodd"/></symbol>
  <symbol id="icon-large" fill="none" viewBox="0 0 24 24"><path fill="currentColor" fill-rule="evenodd" d="M8.354 3.646a.5.5 0 1 0-.708.708l4 4a.5.5 0 0 0 .708 0l4-4a.5.5 0 0 0-.708-.708L12 7.293 8.354 3.646ZM3 12a.5.5 0 0 1 .5-.5h17a.5.5 0 0 1 0 1h-17A.5.5 0 0 1 3 12Zm4.646 7.646 4-4a.5.5 0 0 1 .708 0l4 4a.5.5 0 0 1-.708.708L12 16.707l-3.646 3.647a.5.5 0 0 1-.708-.708Z" clip-rule="evenodd"/></symbol>
  <use href="#icon"/>
</svg>