<svg xmlns="http://www.w3.org/2000/svg">
  <symbol id="icon" fill="none" viewBox="0 0 16 16"><path fill="currentColor" fill-rule="evenodd" d="M2 3.5a.5.5 0 0 1 .5-.5h2.75v10H2.5a.5.5 0 0 1-.5-.5v-9ZM9.75 3h-3.5v10H8v1H2.5A1.5 1.5 0 0 1 1 12.5v-9A1.5 1.5 0 0 1 2.5 2h11A1.5 1.5 0 0 1 15 3.5V8h-1V3.5a.5.5 0 0 0-.5-.5h-2.75v5h-1V3Zm2.75 6a.5.5 0 0 1 .5.5v.55c.541.11 1.019.394 1.371.792l.477-.275a.5.5 0 1 1 .5.866l-.476.275a2.497 2.497 0 0 1 0 1.584l.476.275a.5.5 0 1 1-.5.866l-.477-.275c-.352.398-.83.682-1.371.792v.55a.5.5 0 0 1-1 0v-.55a2.498 2.498 0 0 1-1.371-.792l-.477.275a.5.5 0 0 1-.5-.866l.476-.275a2.497 2.497 0 0 1 0-1.584l-.476-.275a.5.5 0 1 1 .5-.866l.477.275c.352-.398.83-.682 1.371-.792V9.5a.5.5 0 0 1 .5-.5Zm0 2a1.5 1.5 0 1 0 0 3 1.5 1.5 0 0 0 0-3Z" clip-rule="evenodd"/></symbol>
  <symbol id="icon-large" fill="none" viewBox="0 0 24 24"><path fill="currentColor" fill-rule="evenodd" d="M3 5.5a.5.5 0 0 1 .5-.5H8v14H3.5a.5.5 0 0 1-.5-.5v-13ZM15 5H9v14h4v1H3.5A1.5 1.5 0 0 1 2 18.5v-13A1.5 1.5 0 0 1 3.5 4h17A1.5 1.5 0 0 1 22 5.5V14h-1V5.5a.5.5 0 0 0-.5-.5H16v9h-1V5Zm4 10a.5.5 0 0 1 .5.5v.541a2.997 2.997 0 0 1 1.812 1.047l.47-.271a.5.5 0 0 1 .5.866l-.47.27a2.995 2.995 0 0 1 0 2.093l.47.271a.5.5 0 0 1-.5.866l-.47-.27a2.997 2.997 0 0 1-1.812 1.046v.541a.5.5 0 0 1-1 0v-.541a2.997 2.997 0 0 1-1.812-1.047l-.47.271a.5.5 0 0 1-.5-.866l.47-.27a2.995 2.995 0 0 1 0-2.093l-.47-.271a.5.5 0 0 1 .5-.866l.47.27a2.997 2.997 0 0 1 1.812-1.046V15.5a.5.5 0 0 1 .5-.5Zm2 4c0 .358-.094.695-.26.985l-.008.015-.008.014a1.999 1.999 0 0 1-3.448 0L17.268 20l-.009-.014A1.99 1.99 0 0 1 17 19c0-.358.094-.695.26-.986l.008-.014.008-.014a2 2 0 0 1 3.448 0l.008.014.009.015c.165.29.259.627.259.985Z" clip-rule="evenodd"/></symbol>
  <use href="#icon"/>
</svg>