<svg xmlns="http://www.w3.org/2000/svg">
  <symbol id="icon" fill="none" viewBox="0 0 16 16"><path fill="currentColor" fill-rule="evenodd" d="M8 1a.5.5 0 0 1 .5.5v13a.5.5 0 0 1-1 0v-13A.5.5 0 0 1 8 1ZM2.5 3a.5.5 0 0 0-.5.5v9a.5.5 0 0 0 .5.5H6v1H2.5A1.5 1.5 0 0 1 1 12.5v-9A1.5 1.5 0 0 1 2.5 2H6v1H2.5ZM10 3h3.5a.5.5 0 0 1 .5.5v1a.5.5 0 1 0 1 0v-1A1.5 1.5 0 0 0 13.5 2H10v1Zm4.5 3.5a.5.5 0 0 1 .5.5v2a.5.5 0 1 1-1 0V7a.5.5 0 0 1 .5-.5Zm.5 5a.5.5 0 0 0-1 0v1a.5.5 0 0 1-.5.5H10v1h3.5a1.5 1.5 0 0 0 1.5-1.5v-1Z" clip-rule="evenodd"/></symbol>
  <symbol id="icon-large" fill="none" viewBox="0 0 24 24"><path fill="currentColor" fill-rule="evenodd" d="M12.5 2.5a.5.5 0 0 0-1 0v19a.5.5 0 0 0 1 0v-19ZM3 5.5a.5.5 0 0 1 .5-.5h6V4h-6A1.5 1.5 0 0 0 2 5.5v13A1.5 1.5 0 0 0 3.5 20h6v-1h-6a.5.5 0 0 1-.5-.5v-13ZM17 5h-2.5V4H17a.5.5 0 0 1 0 1Zm3-1a.5.5 0 0 0 0 1h.5a.5.5 0 0 1 .5.5V6a.5.5 0 0 0 1 0v-.5A1.5 1.5 0 0 0 20.5 4H20Zm1.5 4.5a.5.5 0 0 1 .5.5v1.5a.5.5 0 0 1-1 0V9a.5.5 0 0 1 .5-.5Zm.5 5a.5.5 0 0 0-1 0V15a.5.5 0 0 0 1 0v-1.5Zm-.5 4a.5.5 0 0 1 .5.5v.5a1.5 1.5 0 0 1-1.5 1.5H20a.5.5 0 0 1 0-1h.5a.5.5 0 0 0 .5-.5V18a.5.5 0 0 1 .5-.5Zm-7 2.5H17a.5.5 0 0 0 0-1h-2.5v1Z" clip-rule="evenodd"/></symbol>
  <use href="#icon"/>
</svg>