<svg xmlns="http://www.w3.org/2000/svg">
  <symbol id="icon" fill="none" viewBox="0 0 16 16"><path fill="currentColor" fill-rule="evenodd" d="M9.962 1.429a.899.899 0 0 1 .988.032c1.549 1.07 2.55 3.107 2.55 5.039 0 2.128-1.206 3.887-2.953 4.793l.448 3.136a.5.5 0 1 1-.99.142l-.5-3.5a.5.5 0 0 1 .295-.53c1.6-.698 2.7-2.206 2.7-4.041 0-1.58-.808-3.24-2-4.13v2.716a1.5 1.5 0 0 1-.44 1.06l-1 1a1.5 1.5 0 0 1-2.12 0l-1-1a1.5 1.5 0 0 1-.44-1.06V2.369c-1.192.891-2 2.552-2 4.131 0 1.835 1.1 3.343 2.7 4.042a.5.5 0 0 1 .295.529l-.5 3.5a.5.5 0 1 1-.99-.142l.448-3.136C3.706 10.387 2.5 8.628 2.5 6.5c0-1.932 1.001-3.97 2.55-5.039a.9.9 0 0 1 .988-.032c.278.169.462.48.462.835v2.822a.5.5 0 0 0 .146.353l1 1a.5.5 0 0 0 .708 0l1-1a.5.5 0 0 0 .146-.353V2.264c0-.355.184-.666.462-.835Z" clip-rule="evenodd"/></symbol>
  <symbol id="icon-large" fill="none" viewBox="0 0 24 24"><path fill="currentColor" fill-rule="evenodd" d="M5.093 6.748a.5.5 0 0 1 .062-.631l.962-.962a.5.5 0 0 1 .631-.062l.995.663a1.5 1.5 0 0 0 1.406.138l.55-.228a1.5 1.5 0 0 0 .896-1.091l.235-1.173A.5.5 0 0 1 11.32 3h1.36a.5.5 0 0 1 .49.402l.235 1.173c.098.49.435.9.897 1.091l.549.228a1.5 1.5 0 0 0 1.406-.138l.995-.663a.5.5 0 0 1 .631.062l.962.962a.5.5 0 0 1 .062.63l-.663.996a1.5 1.5 0 0 0-.138 1.406l.228.55a1.5 1.5 0 0 0 1.091.896l1.173.234a.5.5 0 0 1 .402.49v1.361a.5.5 0 0 1-.402.49l-1.173.235a1.5 1.5 0 0 0-1.091.897l-.228.549a1.5 1.5 0 0 0 .138 1.406l.663.995a.5.5 0 0 1-.062.63l-.962.963a.5.5 0 0 1-.63.062l-.996-.663a1.5 1.5 0 0 0-1.406-.138l-.55.228a1.5 1.5 0 0 0-.896 1.091l-.234 1.173a.5.5 0 0 1-.49.402H11.32a.5.5 0 0 1-.49-.402l-.34-1.696-.98.196.339 1.696A1.5 1.5 0 0 0 11.319 22h1.361a1.5 1.5 0 0 0 1.471-1.206l.235-1.172a.5.5 0 0 1 .299-.364l.549-.228a.5.5 0 0 1 .469.046l.995.663a1.5 1.5 0 0 0 1.892-.187l.962-.962a1.5 1.5 0 0 0 .188-1.893l-.664-.995a.5.5 0 0 1-.046-.468l.228-.55a.5.5 0 0 1 .364-.298l1.172-.235A1.5 1.5 0 0 0 22 12.681V11.32a1.5 1.5 0 0 0-1.206-1.471l-1.172-.235a.5.5 0 0 1-.364-.299l-.228-.549a.5.5 0 0 1 .046-.468l.663-.995a1.5 1.5 0 0 0-.187-1.893l-.962-.962a1.5 1.5 0 0 0-1.893-.187l-.995.663a.5.5 0 0 1-.468.046l-.55-.228a.5.5 0 0 1-.298-.364l-.235-1.172A1.5 1.5 0 0 0 12.681 2H11.32a1.5 1.5 0 0 0-1.471 1.206l-.235 1.172a.5.5 0 0 1-.298.364l-.55.228a.5.5 0 0 1-.468-.046l-.995-.664a1.5 1.5 0 0 0-1.893.188l-.962.962a1.5 1.5 0 0 0-.187 1.893l.663.995a.5.5 0 0 1 .046.468l-.228.55a.5.5 0 0 1-.364.298l-1.172.235A1.5 1.5 0 0 0 2 11.319v1.361a1.5 1.5 0 0 0 1.206 1.471l1.696.34.196-.981-1.696-.34A.5.5 0 0 1 3 12.68v-1.36a.5.5 0 0 1 .402-.49l1.173-.235a1.5 1.5 0 0 0 1.091-.897l.228-.549a1.5 1.5 0 0 0-.138-1.406l-.663-.995ZM12 7.5A4.5 4.5 0 0 0 7.5 12v1.268L3.066 17.02a2.777 2.777 0 1 0 3.914 3.914l3.752-4.434H12a4.5 4.5 0 0 0 4.5-4.5v-.793c0-.89-1.077-1.337-1.707-.707l-1.5 1.5H12v-1.293l1.5-1.5c.63-.63.184-1.707-.707-1.707H12ZM8.5 12A3.5 3.5 0 0 1 12 8.5h.793l-1.647 1.646A.5.5 0 0 0 11 10.5v2a.5.5 0 0 0 .5.5h2a.5.5 0 0 0 .354-.146l1.646-1.647V12a3.5 3.5 0 0 1-3.5 3.5h-1.5a.5.5 0 0 0-.382.177l-3.901 4.61a1.777 1.777 0 1 1-2.505-2.504l4.611-3.901A.5.5 0 0 0 8.5 13.5V12Z" clip-rule="evenodd"/></symbol>
  <use href="#icon"/>
</svg>