<svg xmlns="http://www.w3.org/2000/svg">
  <symbol id="icon" fill="none" viewBox="0 0 16 16"><path fill="currentColor" fill-rule="evenodd" d="M8.437 1.757a.5.5 0 0 0-.874 0L5.295 5.84 1.724 4.053a.5.5 0 0 0-.713.552l1.33 6.21A1.5 1.5 0 0 0 3.809 12h8.384a1.5 1.5 0 0 0 1.466-1.186l1.33-6.21a.5.5 0 0 0-.712-.551l-3.571 1.786-2.268-4.082Zm-2.5 4.986L8 3.03l2.063 3.713a.5.5 0 0 0 .66.204l3.07-1.535-1.112 5.193a.5.5 0 0 1-.49.395H3.809a.5.5 0 0 1-.488-.395L2.207 5.412l3.07 1.535a.5.5 0 0 0 .66-.204ZM3 13a.5.5 0 0 0 0 1h10a.5.5 0 0 0 0-1H3Z" clip-rule="evenodd"/></symbol>
  <symbol id="icon-large" fill="none" viewBox="0 0 24 24"><path fill="currentColor" fill-rule="evenodd" d="M12.434 3.252a.5.5 0 0 0-.868 0L7.822 9.803l-6.06-3.729a.5.5 0 0 0-.753.52l2.344 12.19A1.5 1.5 0 0 0 4.826 20h14.348a1.5 1.5 0 0 0 1.473-1.217l2.344-12.189a.5.5 0 0 0-.753-.52l-6.06 3.73-3.744-6.552Zm-4 7.496L12 4.508l3.566 6.24a.5.5 0 0 0 .696.178l5.532-3.405L20.165 16H3.836l-1.63-8.479 5.532 3.405a.5.5 0 0 0 .696-.178ZM4.028 17l.307 1.594a.5.5 0 0 0 .491.406h14.348a.5.5 0 0 0 .491-.406L19.972 17H4.028Z" clip-rule="evenodd"/></symbol>
  <use href="#icon"/>
</svg>