<svg xmlns="http://www.w3.org/2000/svg">
  <symbol id="icon" fill="none" viewBox="0 0 16 16"><path fill="currentColor" fill-rule="evenodd" d="M12 3a1 1 0 1 1 2 0 1 1 0 0 1-2 0Zm1-2a2 2 0 1 0 0 4 2 2 0 0 0 0-4ZM2 5.5a3 3 0 0 1 3-3h5v1H5a2 2 0 1 0 0 4h6a3 3 0 1 1 0 6H6v-1h5a2 2 0 1 0 0-4H5a3 3 0 0 1-3-3ZM3 12a1 1 0 1 0 0 2 1 1 0 0 0 0-2Zm-2 1a2 2 0 1 1 4 0 2 2 0 0 1-4 0Z" clip-rule="evenodd"/></symbol>
  <symbol id="icon-large" fill="none" viewBox="0 0 24 24"><path fill="currentColor" fill-rule="evenodd" d="M19 4a1 1 0 1 0 0 2 1 1 0 0 0 0-2Zm-2 1a2 2 0 1 1 4 0 2 2 0 0 1-4 0ZM4 8.5a4 4 0 0 1 4-4h8v1H8a3 3 0 0 0 0 6h8a4 4 0 0 1 0 8H8v-1h8a3 3 0 1 0 0-6H8a4 4 0 0 1-4-4ZM4 19a1 1 0 1 1 2 0 1 1 0 0 1-2 0Zm1-2a2 2 0 1 0 0 4 2 2 0 0 0 0-4Z" clip-rule="evenodd"/></symbol>
  <use href="#icon"/>
</svg>