<svg xmlns="http://www.w3.org/2000/svg">
  <symbol id="icon" fill="none" viewBox="0 0 16 16"><path fill="currentColor" fill-rule="evenodd" d="M2 3.5c0-.04.027-.172.305-.374.267-.194.684-.39 1.246-.562C4.668 2.22 6.24 2 8 2c1.76 0 3.332.22 4.45.564.56.172.979.368 1.245.562.278.202.305.334.305.374 0 .04-.027.172-.305.374-.267.194-.684.39-1.246.562C11.332 4.78 9.76 5 8 5c-1.76 0-3.332-.22-4.45-.564-.56-.172-.978-.368-1.245-.562C2.027 3.672 2 3.54 2 3.5Zm-1 0c0-.513.336-.906.717-1.183.39-.284.925-.52 1.54-.71C4.493 1.228 6.169 1 8 1c1.83 0 3.507.228 4.743.608.615.19 1.15.425 1.54.71.38.276.717.67.717 1.182v9c0 .513-.336.906-.717 1.183-.39.284-.925.52-1.54.71C11.507 14.772 9.831 15 8 15c-1.83 0-3.507-.228-4.743-.608-.615-.19-1.15-.425-1.54-.71-.38-.276-.717-.67-.717-1.182v-9Zm13 1.367V8c0 .04-.027.172-.305.374-.267.194-.684.39-1.246.562C11.332 9.28 9.76 9.5 8 9.5c-1.76 0-3.332-.22-4.45-.564-.56-.172-.978-.368-1.245-.562C2.027 8.172 2 8.04 2 8V4.867c.35.203.78.378 1.257.525C4.493 5.772 6.169 6 8 6c1.83 0 3.507-.228 4.743-.608A6.099 6.099 0 0 0 14 4.866ZM2 12.5V9.367c.35.203.78.378 1.257.525 1.236.38 2.912.608 4.743.608 1.83 0 3.507-.228 4.743-.608A6.099 6.099 0 0 0 14 9.367V12.5c0 .04-.027.172-.305.374-.267.194-.684.39-1.246.562C11.332 13.78 9.76 14 8 14c-1.76 0-3.332-.22-4.45-.564-.56-.172-.978-.368-1.245-.562C2.027 12.672 2 12.54 2 12.5Zm1.02-.948a.5.5 0 0 1 .622-.338c.42.124.904.231 1.437.317a.5.5 0 1 1-.158.987 12.622 12.622 0 0 1-1.563-.345.5.5 0 0 1-.338-.621Zm.622-4.838a.5.5 0 1 0-.284.959c.468.138.994.254 1.563.345a.5.5 0 1 0 .158-.987 11.62 11.62 0 0 1-1.437-.317Z" clip-rule="evenodd"/></symbol>
  <symbol id="icon-large" fill="none" viewBox="0 0 24 24"><path fill="currentColor" fill-rule="evenodd" d="M4 6c0-.098.07-.296.453-.563.369-.256.934-.506 1.678-.725C7.61 4.276 9.687 4 12 4c2.313 0 4.389.276 5.87.712.743.219 1.308.47 1.677.725.383.267.453.465.453.563 0 .098-.07.296-.453.563-.369.256-.934.506-1.678.725C16.39 7.724 14.313 8 12 8c-2.313 0-4.389-.276-5.87-.712-.743-.219-1.308-.47-1.677-.725C4.071 6.296 4 6.098 4 6ZM3 6c0-.592.405-1.052.883-1.384.492-.342 1.171-.63 1.966-.863C7.444 3.283 9.619 3 12 3s4.556.283 6.151.753c.795.233 1.474.521 1.966.863.478.332.883.792.883 1.384v12c0 .592-.405 1.052-.883 1.384-.492.342-1.171.63-1.966.863-1.595.47-3.77.753-6.151.753s-4.556-.283-6.151-.753c-.795-.233-1.474-.521-1.966-.863C3.405 19.052 3 18.592 3 18V6Zm17 1.462V12c0 .098-.07.296-.453.563-.369.256-.934.506-1.678.725-1.48.436-3.556.712-5.869.712-2.313 0-4.389-.276-5.87-.712-.743-.219-1.308-.47-1.677-.725C4.071 12.296 4 12.098 4 12V7.462c.48.308 1.115.57 1.849.785C7.444 8.717 9.619 9 12 9s4.556-.283 6.151-.753c.734-.215 1.369-.477 1.849-.785ZM20 18v-4.538c-.48.308-1.115.57-1.849.785-1.595.47-3.77.753-6.151.753s-4.556-.283-6.151-.753c-.734-.215-1.369-.477-1.849-.785V18c0 .098.07.296.453.563.369.256.934.506 1.678.725C7.61 19.724 9.687 20 12 20c2.313 0 4.389-.276 5.87-.712.743-.219 1.308-.47 1.677-.725.383-.267.453-.465.453-.563ZM6.14 16.291a.5.5 0 1 0-.28.96c.612.18 1.307.33 2.062.45a.5.5 0 0 0 .156-.989 15.51 15.51 0 0 1-1.937-.421Zm0-6a.5.5 0 1 0-.28.96c.612.18 1.307.33 2.062.45a.5.5 0 0 0 .156-.989 15.51 15.51 0 0 1-1.937-.421Z" clip-rule="evenodd"/></symbol>
  <use href="#icon"/>
</svg>