<svg xmlns="http://www.w3.org/2000/svg">
  <symbol id="icon" fill="none" viewBox="0 0 16 16"><path fill="currentColor" fill-rule="evenodd" d="M2 2.5a.5.5 0 0 1 .5-.5h11a.5.5 0 0 1 .5.5v11a.5.5 0 0 1-.5.5h-11a.5.5 0 0 1-.5-.5v-11ZM2.5 1A1.5 1.5 0 0 0 1 2.5v11A1.5 1.5 0 0 0 2.5 15h11a1.5 1.5 0 0 0 1.5-1.5v-11A1.5 1.5 0 0 0 13.5 1h-11Zm2 10a.5.5 0 0 0 0 1h1a.5.5 0 0 0 0-1h-1ZM8 11a.5.5 0 0 0 0 1h3.5a.5.5 0 0 0 0-1H8ZM4 8a.5.5 0 0 1 .5-.5h1a.5.5 0 0 1 0 1h-1A.5.5 0 0 1 4 8Zm3.5 0a.5.5 0 0 1 .5-.5h3.5a.5.5 0 0 1 0 1H8a.5.5 0 0 1-.5-.5Zm-3-4a.5.5 0 0 0 0 1h1a.5.5 0 0 0 0-1h-1ZM8 4a.5.5 0 0 0 0 1h3.5a.5.5 0 0 0 0-1H8Z" clip-rule="evenodd"/></symbol>
  <symbol id="icon-large" fill="none" viewBox="0 0 24 24"><path fill="currentColor" fill-rule="evenodd" d="M4.5 4a.5.5 0 0 0-.5.5v15a.5.5 0 0 0 .5.5h15a.5.5 0 0 0 .5-.5v-15a.5.5 0 0 0-.5-.5h-15ZM3 4.5A1.5 1.5 0 0 1 4.5 3h15A1.5 1.5 0 0 1 21 4.5v15a1.5 1.5 0 0 1-1.5 1.5h-15A1.5 1.5 0 0 1 3 19.5v-15ZM11 16a.5.5 0 0 1 .5-.5h5a.5.5 0 0 1 0 1h-5a.5.5 0 0 1-.5-.5Zm-3.5-.5a.5.5 0 0 0 0 1h1a.5.5 0 0 0 0-1h-1ZM11 12a.5.5 0 0 1 .5-.5h5a.5.5 0 0 1 0 1h-5a.5.5 0 0 1-.5-.5Zm-3.5-.5a.5.5 0 0 0 0 1h1a.5.5 0 0 0 0-1h-1ZM11 8a.5.5 0 0 1 .5-.5h5a.5.5 0 0 1 0 1h-5A.5.5 0 0 1 11 8Zm-3.5-.5a.5.5 0 0 0 0 1h1a.5.5 0 0 0 0-1h-1Z" clip-rule="evenodd"/></symbol>
  <use href="#icon"/>
</svg>