<svg xmlns="http://www.w3.org/2000/svg">
  <symbol id="icon" fill="none" viewBox="0 0 16 16"><path fill="currentColor" fill-rule="evenodd" d="M14.854 1.854a.5.5 0 0 0-.708-.708L12.474 2.82a3.33 3.33 0 0 0-4.328.327l-1 1a.5.5 0 0 0 0 .708l4 4a.5.5 0 0 0 .708 0l1-1a3.33 3.33 0 0 0 .327-4.328l1.673-1.672Zm-6 2a2.328 2.328 0 1 1 3.292 3.292l-.646.647L8.207 4.5l.647-.646Zm-1.5 2.792a.5.5 0 0 1 0 .708L6.207 8.5 7.5 9.793l1.146-1.147a.5.5 0 1 1 .708.708L8.207 10.5l.647.646a.5.5 0 0 1 0 .708l-1 1a3.33 3.33 0 0 1-4.328.327l-1.672 1.673a.5.5 0 0 1-.708-.708l1.673-1.672a3.33 3.33 0 0 1 .327-4.328l1-1a.5.5 0 0 1 .708 0l.646.647 1.146-1.147a.5.5 0 0 1 .708 0ZM5.146 8.854l2 2 .647.646-.647.646a2.328 2.328 0 0 1-3.292-3.292l.646-.647.646.647Z" clip-rule="evenodd"/></symbol>
  <symbol id="icon-large" fill="none" viewBox="0 0 24 24"><path fill="currentColor" fill-rule="evenodd" d="M21.854 2.854a.5.5 0 0 0-.708-.708l-2.664 2.665a4.743 4.743 0 0 0-6.336.335l-1 1a.5.5 0 0 0 0 .708l6 6a.5.5 0 0 0 .708 0l1-1a4.743 4.743 0 0 0 .335-6.336l2.665-2.664Zm-3.708 3a3.743 3.743 0 0 0-5.292 0l-.647.646 5.293 5.293.646-.647a3.743 3.743 0 0 0 0-5.292Zm-7.292 4.292a.5.5 0 0 1 0 .708L8.707 13 11 15.293l2.146-2.147a.5.5 0 0 1 .708.708L11.707 16l1.146 1.146a.5.5 0 0 1 0 .708l-1 1a4.743 4.743 0 0 1-6.335.335l-2.664 2.665a.5.5 0 0 1-.708-.708l2.665-2.664a4.743 4.743 0 0 1 .335-6.336l1-1a.5.5 0 0 1 .708 0L8 12.293l2.146-2.147a.5.5 0 0 1 .708 0Zm-5 8a3.743 3.743 0 0 0 5.292 0l.647-.646-1.147-1.146-3-3L6.5 12.207l-.646.647a3.743 3.743 0 0 0 0 5.292Z" clip-rule="evenodd"/></symbol>
  <use href="#icon"/>
</svg>