<svg xmlns="http://www.w3.org/2000/svg">
  <symbol id="icon" fill="none" viewBox="0 0 16 16"><path fill="currentColor" fill-rule="evenodd" d="M2 1.5a.5.5 0 0 0-1 0v13a.5.5 0 0 0 1 0v-13ZM14.5 1a.5.5 0 0 1 .5.5v13a.5.5 0 1 1-1 0v-13a.5.5 0 0 1 .5-.5ZM4 5.5A1.5 1.5 0 0 1 5.5 4h5A1.5 1.5 0 0 1 12 5.5v5a1.5 1.5 0 0 1-1.5 1.5h-5A1.5 1.5 0 0 1 4 10.5v-5ZM5.5 5a.5.5 0 0 0-.5.5v5a.5.5 0 0 0 .5.5h5a.5.5 0 0 0 .5-.5v-5a.5.5 0 0 0-.5-.5h-5Z" clip-rule="evenodd"/></symbol>
  <symbol id="icon-large" fill="none" viewBox="0 0 24 24"><path fill="currentColor" fill-rule="evenodd" d="M4 3.5a.5.5 0 0 0-1 0v17a.5.5 0 0 0 1 0v-17ZM20.5 3a.5.5 0 0 1 .5.5v17a.5.5 0 0 1-1 0v-17a.5.5 0 0 1 .5-.5ZM8 7.5A1.5 1.5 0 0 1 9.5 6h5A1.5 1.5 0 0 1 16 7.5v9a1.5 1.5 0 0 1-1.5 1.5h-5A1.5 1.5 0 0 1 8 16.5v-9ZM9.5 7a.5.5 0 0 0-.5.5v9a.5.5 0 0 0 .5.5h5a.5.5 0 0 0 .5-.5v-9a.5.5 0 0 0-.5-.5h-5Z" clip-rule="evenodd"/></symbol>
  <use href="#icon"/>
</svg>