<svg xmlns="http://www.w3.org/2000/svg">
  <symbol id="icon" fill="none" viewBox="0 0 16 16"><path fill="currentColor" fill-rule="evenodd" d="M2.5 2A1.5 1.5 0 0 0 1 3.5v9A1.5 1.5 0 0 0 2.5 14h11a1.5 1.5 0 0 0 1.5-1.5v-9A1.5 1.5 0 0 0 13.5 2h-11ZM2 3.5a.5.5 0 0 1 .5-.5h11a.5.5 0 0 1 .5.5v9a.5.5 0 0 1-.5.5h-11a.5.5 0 0 1-.5-.5v-9Zm8.5.5a.5.5 0 0 0-.5.5v7a.5.5 0 0 0 .5.5h2a.5.5 0 0 0 .5-.5v-7a.5.5 0 0 0-.5-.5h-2Zm.5 7V5h1v6h-1Z" clip-rule="evenodd"/></symbol>
  <symbol id="icon-large" fill="none" viewBox="0 0 24 24"><path fill="currentColor" fill-rule="evenodd" d="M3 5.5a.5.5 0 0 1 .5-.5h17a.5.5 0 0 1 .5.5v13a.5.5 0 0 1-.5.5h-17a.5.5 0 0 1-.5-.5v-13ZM3.5 4A1.5 1.5 0 0 0 2 5.5v13A1.5 1.5 0 0 0 3.5 20h17a1.5 1.5 0 0 0 1.5-1.5v-13A1.5 1.5 0 0 0 20.5 4h-17ZM16 8.5a.5.5 0 0 1 .5-.5h1a.5.5 0 0 1 .5.5v7a.5.5 0 0 1-.5.5h-1a.5.5 0 0 1-.5-.5v-7Zm.5-1.5A1.5 1.5 0 0 0 15 8.5v7a1.5 1.5 0 0 0 1.5 1.5h1a1.5 1.5 0 0 0 1.5-1.5v-7A1.5 1.5 0 0 0 17.5 7h-1Z" clip-rule="evenodd"/></symbol>
  <use href="#icon"/>
</svg>