<svg xmlns="http://www.w3.org/2000/svg">
  <symbol id="icon" fill="none" viewBox="0 0 16 16"><path fill="currentColor" fill-rule="evenodd" d="M3 2.5a.5.5 0 0 1 .5-.5H9v2.5A1.5 1.5 0 0 0 10.5 6H13v7.5a.5.5 0 0 1-.5.5h-9a.5.5 0 0 1-.5-.5v-11ZM12.293 5 10 2.707V4.5a.5.5 0 0 0 .5.5h1.793ZM3.5 1A1.5 1.5 0 0 0 2 2.5v11A1.5 1.5 0 0 0 3.5 15h9a1.5 1.5 0 0 0 1.5-1.5V5.707A1 1 0 0 0 13.707 5L10 1.293A1 1 0 0 0 9.293 1H3.5Z" clip-rule="evenodd"/></symbol>
  <symbol id="icon-large" fill="none" viewBox="0 0 24 24"><path fill="currentColor" fill-rule="evenodd" d="M5 3.5a.5.5 0 0 1 .5-.5h7v5A1.5 1.5 0 0 0 14 9.5h5v11a.5.5 0 0 1-.5.5h-13a.5.5 0 0 1-.5-.5v-17Zm13.293 5L13.5 3.707V8a.5.5 0 0 0 .5.5h4.293ZM5.5 2A1.5 1.5 0 0 0 4 3.5v17A1.5 1.5 0 0 0 5.5 22h13a1.5 1.5 0 0 0 1.5-1.5V9.414a1.5 1.5 0 0 0-.44-1.06l-5.914-5.915A1.5 1.5 0 0 0 12.586 2H5.5Z" clip-rule="evenodd"/></symbol>
  <use href="#icon"/>
</svg>