<svg xmlns="http://www.w3.org/2000/svg">
  <symbol id="icon" fill="none" viewBox="0 0 16 16"><path fill="currentColor" fill-rule="evenodd" d="M3 3a1 1 0 0 1 1-1h8.5a.5.5 0 0 1 .5.5v8a.5.5 0 0 1-.5.5H12v.5-.5H4a1.99 1.99 0 0 0-1 .268V3Zm1 9h8v2H4a1 1 0 0 1-1-1v-.008A1 1 0 0 1 4 12Zm-2 1V3a2 2 0 0 1 2-2h8.5A1.5 1.5 0 0 1 14 2.5v8a1.5 1.5 0 0 1-1 1.415V14h.5a.5.5 0 1 1 0 1H4a2 2 0 0 1-2-2Zm3.5-8.5a.5.5 0 1 0 0 1h5a.5.5 0 1 0 0-1h-5Zm0 2.5a.5.5 0 1 0 0 1h3a.5.5 0 0 0 0-1h-3Z" clip-rule="evenodd"/></symbol>
  <symbol id="icon-large" fill="none" viewBox="0 0 24 24"><path fill="currentColor" fill-rule="evenodd" d="M6.5 3A1.5 1.5 0 0 0 5 4.5v13a2.49 2.49 0 0 1 1.5-.5h12a.5.5 0 0 0 .5-.5v-13a.5.5 0 0 0-.5-.5h-12ZM4 4.5v15A2.5 2.5 0 0 0 6.5 22h13a.5.5 0 0 0 0-1H19v-3.085a1.5 1.5 0 0 0 1-1.415v-13A1.5 1.5 0 0 0 18.5 2h-12A2.5 2.5 0 0 0 4 4.5ZM6.5 21H18v-3H6.5a1.5 1.5 0 0 0 0 3Zm2-14a.5.5 0 0 0 0 1h7a.5.5 0 0 0 0-1h-7Zm0 4a.5.5 0 0 0 0 1h4a.5.5 0 0 0 0-1h-4Z" clip-rule="evenodd"/></symbol>
  <use href="#icon"/>
</svg>