<svg xmlns="http://www.w3.org/2000/svg">
  <symbol id="icon" fill="none" viewBox="0 0 16 16"><path fill="currentColor" fill-rule="evenodd" d="M8 1a.5.5 0 0 1 .5.5v7.793l2.146-2.147a.5.5 0 0 1 .708.708l-3 3a.5.5 0 0 1-.708 0l-3-3a.5.5 0 1 1 .708-.708L7.5 9.293V1.5A.5.5 0 0 1 8 1Zm-6 9.5a.5.5 0 0 0-1 0v3A1.5 1.5 0 0 0 2.5 15h11a1.5 1.5 0 0 0 1.5-1.5v-3a.5.5 0 0 0-1 0v3a.5.5 0 0 1-.5.5h-11a.5.5 0 0 1-.5-.5v-3Z" clip-rule="evenodd"/></symbol>
  <symbol id="icon-large" fill="none" viewBox="0 0 24 24"><path fill="currentColor" fill-rule="evenodd" d="M12.5 3.5a.5.5 0 0 0-1 0v10.793l-3.146-3.147a.5.5 0 0 0-.708.708l4 4a.5.5 0 0 0 .708 0l4-4a.5.5 0 0 0-.708-.708L12.5 14.293V3.5ZM3.5 14a.5.5 0 0 1 .5.5v5a.5.5 0 0 0 .5.5h15a.5.5 0 0 0 .5-.5v-5a.5.5 0 0 1 1 0v5a1.5 1.5 0 0 1-1.5 1.5h-15A1.5 1.5 0 0 1 3 19.5v-5a.5.5 0 0 1 .5-.5Z" clip-rule="evenodd"/></symbol>
  <use href="#icon"/>
</svg>