<svg xmlns="http://www.w3.org/2000/svg">
  <symbol id="icon" fill="none" viewBox="0 0 16 16"><path fill="currentColor" fill-rule="evenodd" d="M13 1a.5.5 0 0 0 0 1h.5a.5.5 0 0 1 .5.5V3a.5.5 0 0 0 1 0v-.5A1.5 1.5 0 0 0 13.5 1H13Zm1.5 3.5a.5.5 0 0 1 .5.5v2a.5.5 0 0 1-1 0V5a.5.5 0 0 1 .5-.5ZM2.5 6a.5.5 0 0 0-.5.5v7a.5.5 0 0 0 .5.5h7a.5.5 0 0 0 .5-.5v-7a.5.5 0 0 0-.5-.5h-7ZM1 6.5A1.5 1.5 0 0 1 2.5 5h7A1.5 1.5 0 0 1 11 6.5v7A1.5 1.5 0 0 1 9.5 15h-7A1.5 1.5 0 0 1 1 13.5v-7Zm5 1a.5.5 0 0 1 .5.5v1.5H8a.5.5 0 0 1 0 1H6.5V12a.5.5 0 0 1-1 0v-1.5H4a.5.5 0 0 1 0-1h1.5V8a.5.5 0 0 1 .5-.5ZM15 9a.5.5 0 0 0-1 0v.5a.5.5 0 0 1-.5.5H12v1h1.5A1.5 1.5 0 0 0 15 9.5V9ZM8.5 1.5A.5.5 0 0 1 9 1h2a.5.5 0 0 1 0 1H9a.5.5 0 0 1-.5-.5ZM6 2.5a.5.5 0 0 1 .5-.5H7a.5.5 0 0 0 0-1h-.5A1.5 1.5 0 0 0 5 2.5V4h1V2.5Z" clip-rule="evenodd"/></symbol>
  <symbol id="icon-large" fill="none" viewBox="0 0 24 24"><path fill="currentColor" fill-rule="evenodd" d="M19 2a.5.5 0 0 0 0 1h1.5a.5.5 0 0 1 .5.5V5a.5.5 0 0 0 1 0V3.5A1.5 1.5 0 0 0 20.5 2H19Zm2.5 5.5a.5.5 0 0 1 .5.5v2a.5.5 0 0 1-1 0V8a.5.5 0 0 1 .5-.5ZM3.5 9a.5.5 0 0 0-.5.5v11a.5.5 0 0 0 .5.5h11a.5.5 0 0 0 .5-.5v-11a.5.5 0 0 0-.5-.5h-11ZM2 9.5A1.5 1.5 0 0 1 3.5 8h11A1.5 1.5 0 0 1 16 9.5v11a1.5 1.5 0 0 1-1.5 1.5h-11A1.5 1.5 0 0 1 2 20.5v-11Zm7 2a.5.5 0 0 1 .5.5v2.5H12a.5.5 0 0 1 0 1H9.5V18a.5.5 0 0 1-1 0v-2.5H6a.5.5 0 0 1 0-1h2.5V12a.5.5 0 0 1 .5-.5ZM22 13a.5.5 0 0 0-1 0v1.5a.5.5 0 0 1-.5.5H18v1h2.5a1.5 1.5 0 0 0 1.5-1.5V13ZM13.5 2.5A.5.5 0 0 1 14 2h2a.5.5 0 0 1 0 1h-2a.5.5 0 0 1-.5-.5ZM9 3.5a.5.5 0 0 1 .5-.5H11a.5.5 0 0 0 0-1H9.5A1.5 1.5 0 0 0 8 3.5V6h1V3.5Z" clip-rule="evenodd"/></symbol>
  <use href="#icon"/>
</svg>