<svg xmlns="http://www.w3.org/2000/svg">
  <symbol id="icon" fill="none" viewBox="0 0 16 16"><path fill="currentColor" fill-rule="evenodd" d="M1.5 1a.5.5 0 0 0 0 1h6a.5.5 0 0 0 0-1h-6Zm10.882 1.325a.167.167 0 0 1 .236 0l2.057 2.057a.167.167 0 0 1 0 .236L13.5 5.793 11.207 3.5l1.175-1.175ZM10.5 4.207l-7.451 7.451a.166.166 0 0 0-.049.118V14h2.224a.167.167 0 0 0 .118-.049l7.45-7.451L10.5 4.207Zm2.825-2.59a1.167 1.167 0 0 0-1.65 0l-9.333 9.334a1.167 1.167 0 0 0-.342.825V14.5a.5.5 0 0 0 .5.5h2.724c.31 0 .606-.123.825-.342l9.333-9.333a1.167 1.167 0 0 0 0-1.65l-2.057-2.057ZM1 4.5a.5.5 0 0 1 .5-.5h3a.5.5 0 0 1 0 1h-3a.5.5 0 0 1-.5-.5Z" clip-rule="evenodd"/></symbol>
  <symbol id="icon-large" fill="none" viewBox="0 0 24 24"><path fill="currentColor" fill-rule="evenodd" d="M18.146 5.56a.5.5 0 0 1 .708 0l2.585 2.586a.5.5 0 0 1 0 .708L20 10.293 16.707 7l1.44-1.44ZM16 7.708l-7.854 7.854a.5.5 0 0 0-.146.353V19h3.086a.5.5 0 0 0 .353-.146L19.293 11 16 7.707Zm3.56-2.853a1.5 1.5 0 0 0-2.12 0l-10 10a1.5 1.5 0 0 0-.44 1.06V19.5a.5.5 0 0 0 .5.5h3.586a1.5 1.5 0 0 0 1.06-.44l10-10a1.5 1.5 0 0 0 0-2.12l-2.585-2.586ZM2 9.5a.5.5 0 0 1 .5-.5h4a.5.5 0 0 1 0 1h-4a.5.5 0 0 1-.5-.5ZM2.5 5a.5.5 0 0 0 0 1h7a.5.5 0 0 0 0-1h-7Z" clip-rule="evenodd"/></symbol>
  <use href="#icon"/>
</svg>