<svg xmlns="http://www.w3.org/2000/svg">
  <symbol id="icon" fill="none" viewBox="0 0 16 16"><path fill="currentColor" fill-rule="evenodd" d="M11.146 2.56a.5.5 0 0 1 .707 0l1.586 1.586a.5.5 0 0 1 0 .708l-.94.939L10.208 3.5l.94-.94ZM9.5 4.208l-7.354 7.354a.5.5 0 0 0-.146.353v2.087h2.086a.5.5 0 0 0 .353-.147L11.793 6.5 9.5 4.207Zm3.06-2.353a1.5 1.5 0 0 0-2.12 0l-9 9a1.5 1.5 0 0 0-.44 1.06v2.587a.5.5 0 0 0 .5.5h2.586a1.5 1.5 0 0 0 1.06-.44l9-9a1.5 1.5 0 0 0 0-2.122l-1.585-1.585Z" clip-rule="evenodd"/></symbol>
  <symbol id="icon-large" fill="none" viewBox="0 0 24 24"><path fill="currentColor" fill-rule="evenodd" d="M17.146 3.06a.5.5 0 0 1 .708 0l3.085 3.086a.5.5 0 0 1 0 .708L19 8.793 15.207 5l1.94-1.94ZM14.5 5.708 3.146 17.061a.5.5 0 0 0-.146.353V21h3.586a.5.5 0 0 0 .353-.146L18.293 9.5 14.5 5.707Zm4.06-3.353a1.5 1.5 0 0 0-2.12 0l-14 14a1.5 1.5 0 0 0-.44 1.06V21.5a.5.5 0 0 0 .5.5h4.086a1.5 1.5 0 0 0 1.06-.44l14-14a1.5 1.5 0 0 0 0-2.12l-3.085-3.086Z" clip-rule="evenodd"/></symbol>
  <use href="#icon"/>
</svg>