<svg xmlns="http://www.w3.org/2000/svg">
  <symbol id="icon" fill="none" viewBox="0 0 16 16"><path fill="currentColor" fill-rule="evenodd" d="M3.709 4.86C2.628 5.693 2 6.808 2 8s.628 2.308 1.709 3.14C4.79 11.97 6.306 12.5 8 12.5c1.694 0 3.21-.529 4.291-1.36C13.372 10.307 14 9.192 14 8s-.628-2.308-1.709-3.14C11.21 4.03 9.694 3.5 8 3.5c-1.694 0-3.21.529-4.291 1.36Zm-.61-.792C4.369 3.091 6.104 2.5 8 2.5s3.63.59 4.901 1.568C14.172 5.046 15 6.432 15 8s-.828 2.954-2.099 3.932C11.631 12.909 9.896 13.5 8 13.5s-3.63-.59-4.901-1.568C1.827 10.954 1 9.568 1 8s.827-2.954 2.099-3.932Z" clip-rule="evenodd"/></symbol>
  <symbol id="icon-large" fill="none" viewBox="0 0 24 24"><path fill="currentColor" fill-rule="evenodd" d="M12 5c-5.087 0-9 3.238-9 7s3.913 7 9 7 9-3.238 9-7-3.913-7-9-7ZM2 12c0-4.522 4.594-8 10-8s10 3.478 10 8-4.594 8-10 8-10-3.478-10-8Z" clip-rule="evenodd"/></symbol>
  <use href="#icon"/>
</svg>