<svg xmlns="http://www.w3.org/2000/svg">
  <symbol id="icon" fill="none" viewBox="0 0 16 16"><path fill="currentColor" fill-rule="evenodd" d="M8 2a6 6 0 1 0 3.23 11.057.5.5 0 1 1 .54.842A7 7 0 1 1 15 8v.249a2.752 2.752 0 0 1-5.013 1.57c-.532.855-1.432 1.432-2.487 1.432-1.7 0-3-1.501-3-3.25s1.3-3.25 3-3.25c.99 0 1.844.508 2.384 1.278l.126-.626a.5.5 0 0 1 .98.196l-.46 2.306a1.752 1.752 0 1 0 3.47.344V8a6 6 0 0 0-6-6ZM5.5 8c0-1.289.94-2.25 2-2.25s2 .961 2 2.25c0 1.289-.94 2.25-2 2.25s-2-.961-2-2.25Z" clip-rule="evenodd"/></symbol>
  <symbol id="icon-large" fill="none" viewBox="0 0 24 24"><path fill="currentColor" fill-rule="evenodd" d="M12 3a9 9 0 0 0 0 18c1.943 0 3.74-.615 5.21-1.66a.5.5 0 0 1 .58.814A9.956 9.956 0 0 1 12 22C6.477 22 2 17.523 2 12S6.477 2 12 2s10 4.477 10 10v.732a3.768 3.768 0 0 1-7.133 1.696c-.701 1.233-1.925 2.072-3.367 2.072-2.27 0-4-2.08-4-4.5s1.73-4.5 4-4.5c1.434 0 2.652.83 3.355 2.051l.15-1.117a.5.5 0 0 1 .99.132l-.506 3.8a3.706 3.706 0 0 0-.018.172 2.768 2.768 0 1 0 5.529.194V12a9 9 0 0 0-9-9Zm2.49 9.303c.006-.1.01-.2.01-.303 0-1.998-1.404-3.5-3-3.5s-3 1.502-3 3.5 1.404 3.5 3 3.5c1.468 0 2.774-1.27 2.973-3.03a3.82 3.82 0 0 1 .016-.167Z" clip-rule="evenodd"/></symbol>
  <use href="#icon"/>
</svg>