<svg xmlns="http://www.w3.org/2000/svg">
  <symbol id="icon" fill="none" viewBox="0 0 16 16"><path fill="currentColor" fill-rule="evenodd" d="M11 1.5a.5.5 0 0 0-1 0v1.035a3.481 3.481 0 0 0-1.596.662l-.732-.733a.5.5 0 0 0-.708.708l.733.732A3.49 3.49 0 0 0 7.145 5a3.833 3.833 0 0 0-3.387 2.08A3.501 3.501 0 0 0 4.5 14h5.667a2.833 2.833 0 0 0 1.944-4.892c.17-.089.333-.19.485-.305l.732.733a.5.5 0 0 0 .708-.708l-.733-.732a3.482 3.482 0 0 0 .662-1.596H15a.5.5 0 0 0 0-1h-1.035a3.482 3.482 0 0 0-.662-1.596l.733-.732a.5.5 0 0 0-.708-.708l-.732.733A3.482 3.482 0 0 0 11 2.535V1.5Zm-.5 2c-1.074 0-1.99.678-2.344 1.629a3.836 3.836 0 0 1 2.825 3.325A2.501 2.501 0 0 0 10.5 3.5ZM7.167 6c-1.17 0-2.175.709-2.608 1.723a.5.5 0 0 1-.394.3A2.5 2.5 0 0 0 4.5 13h5.667a1.833 1.833 0 0 0 .262-3.646.5.5 0 0 1-.43-.498L10 8.833A2.833 2.833 0 0 0 7.167 6Z" clip-rule="evenodd"/></symbol>
  <symbol id="icon-large" fill="none" viewBox="0 0 24 24"><path fill="currentColor" fill-rule="evenodd" d="M16.5 3a.5.5 0 0 1 .5.5v1.527a4.478 4.478 0 0 1 2.309.957l1.08-1.08a.5.5 0 1 1 .707.707l-1.08 1.08A4.49 4.49 0 0 1 20.973 9H22.5a.5.5 0 0 1 0 1h-1.527a4.478 4.478 0 0 1-.957 2.309l1.08 1.08a.5.5 0 1 1-.707.707l-1.08-1.08c-.432.345-.93.613-1.47.781A4 4 0 0 1 14.5 20H6a5 5 0 0 1-.945-9.91 5.5 5.5 0 0 1 7.38-2.523c.15-.314.334-.607.55-.876l-1.081-1.08a.5.5 0 1 1 .707-.707l1.08 1.08A4.478 4.478 0 0 1 16 5.027V3.5a.5.5 0 0 1 .5-.5Zm-3.207 5.095a3.501 3.501 0 1 1 3.793 4.856c-.456-.386-1-.673-1.598-.824a5.492 5.492 0 0 0-2.195-4.032ZM5.86 10.736A4.501 4.501 0 0 1 14.5 12.5v.035a.5.5 0 0 0 .43.499A2.997 2.997 0 0 1 14.5 19H6a4 4 0 0 1-.535-7.965.5.5 0 0 0 .394-.299Z" clip-rule="evenodd"/></symbol>
  <use href="#icon"/>
</svg>