<svg xmlns="http://www.w3.org/2000/svg">
  <symbol id="icon" fill="none" viewBox="0 0 16 16"><path fill="currentColor" fill-rule="evenodd" d="M13.354 1.646a1.914 1.914 0 0 0-2.708 0l-.656.657a1.632 1.632 0 0 0-2.144.143l-.7.7a.5.5 0 0 0 0 .708l.647.646-3.647 3.65A.5.5 0 0 0 4 8.505V10.5a.5.5 0 0 0 .5.5h2a.5.5 0 0 0 .354-.146L10.5 7.207l.646.647a.5.5 0 0 0 .707 0l.7-.7a1.632 1.632 0 0 0 .144-2.144l.657-.656a1.914 1.914 0 0 0 0-2.708ZM9.793 6.5 8.5 5.207 5 8.711v1.29h1.293l3.5-3.501Zm1.56-4.146a.914.914 0 0 1 1.293 1.292l-.8.8a.783.783 0 0 0 0 1.108.631.631 0 0 1 0 .892l-.346.347L8.207 3.5l.347-.346a.631.631 0 0 1 .892 0 .783.783 0 0 0 1.107 0l.8-.8ZM4 11.5a.5.5 0 0 1 .416.223l.896 1.344a1.577 1.577 0 1 1-2.624 0l.896-1.344A.5.5 0 0 1 4 11.5Zm0 1.401-.48.72a.577.577 0 1 0 .96 0l-.48-.72Z" clip-rule="evenodd"/></symbol>
  <symbol id="icon-large" fill="none" viewBox="0 0 24 24"><path fill="currentColor" fill-rule="evenodd" d="M20.354 1.768a2.621 2.621 0 0 0-3.708 0l-1.67 1.67a1.758 1.758 0 0 0-2.218.219l-.89.889a.814.814 0 0 0 0 1.151l.422.421-5.976 5.872a1.782 1.782 0 0 0-.389 1.971l-.449.673a1.363 1.363 0 0 0 1.89 1.89l.673-.449c.669.288 1.45.146 1.974-.37l5.984-5.88.427.428a.814.814 0 0 0 1.152 0l.889-.89a1.758 1.758 0 0 0 .218-2.218l1.67-1.67a2.621 2.621 0 0 0 0-3.707Zm-5.064 7.35-2.293-2.293-5.982 5.878a.781.781 0 0 0-.15.907.82.82 0 0 1-.052.822l-.505.757a.362.362 0 0 0 .503.503l.755-.503a.825.825 0 0 1 .826-.052.801.801 0 0 0 .92-.145l5.978-5.874Zm2.064-6.643a1.621 1.621 0 1 1 2.292 2.293l-1.888 1.889a.657.657 0 0 0 0 .929.757.757 0 0 1 0 1.07L17 9.415l-4.293-4.293.758-.757a.757.757 0 0 1 1.07 0 .657.657 0 0 0 .93 0l1.889-1.89ZM6 18a.5.5 0 0 1 .416.223l1.345 2.017a2.116 2.116 0 1 1-3.522 0l1.345-2.017A.5.5 0 0 1 6 18Zm0 1.401-.929 1.393a1.116 1.116 0 1 0 1.858 0L6 19.401Z" clip-rule="evenodd"/></symbol>
  <use href="#icon"/>
</svg>