<svg xmlns="http://www.w3.org/2000/svg">
  <symbol id="icon" fill="none" viewBox="0 0 16 16"><path fill="currentColor" fill-rule="evenodd" d="M15 3.087a1 1 0 0 0-1.65-.76L8.5 6.485V3.087a1 1 0 0 0-1.65-.76L1.117 7.242a1 1 0 0 0 0 1.518l5.731 4.913a1 1 0 0 0 1.651-.76V9.517l4.85 4.156a1 1 0 0 0 1.65-.76V3.088ZM8.5 8.2l5.5 4.714V3.087L8.5 7.801V8.2ZM1.768 8 7.5 3.088v9.826L1.768 8Z" clip-rule="evenodd"/></symbol>
  <symbol id="icon-large" fill="none" viewBox="0 0 24 24"><path fill="currentColor" fill-rule="evenodd" d="M10.19 6.171a.5.5 0 0 1 .81.393v10.872a.5.5 0 0 1-.81.393l-6.886-5.437a.5.5 0 0 1 0-.784L10.19 6.17Zm1.81.393c0-1.254-1.446-1.954-2.43-1.178l-6.886 5.437a1.5 1.5 0 0 0 0 2.354l6.887 5.437c.983.776 2.429.076 2.429-1.178v-3.22l5.57 4.398c.984.776 2.43.076 2.43-1.178V6.564c0-1.254-1.446-1.954-2.43-1.178L12 9.784v-3.22Zm0 4.494v1.884l6.19 4.887a.5.5 0 0 0 .81-.393V6.564a.5.5 0 0 0-.81-.393L12 11.058Z" clip-rule="evenodd"/></symbol>
  <use href="#icon"/>
</svg>