<svg xmlns="http://www.w3.org/2000/svg">
  <symbol id="icon" fill="none" viewBox="0 0 16 16"><path fill="currentColor" fill-rule="evenodd" d="M2.65 2.328a1 1 0 0 0-1.65.76v9.825a1 1 0 0 0 1.65.76L7.5 9.515v3.397a1 1 0 0 0 1.65.76l5.732-4.914a1 1 0 0 0 0-1.518l-5.73-4.912a1 1 0 0 0-1.651.76v3.396L2.65 2.328ZM7.5 7.8 2 3.087v9.826l5.5-4.714V7.8Zm6.732.2L8.5 12.913V3.087L14.232 8Z" clip-rule="evenodd"/></symbol>
  <symbol id="icon-large" fill="none" viewBox="0 0 24 24"><path fill="currentColor" fill-rule="evenodd" d="M13 6.564a.5.5 0 0 1 .81-.393l6.886 5.437a.5.5 0 0 1 0 .784L13.81 17.83a.5.5 0 0 1-.81-.393V6.564Zm1.43-1.178C13.446 4.61 12 5.31 12 6.564v3.22L6.43 5.386C5.445 4.61 4 5.31 4 6.564v10.872c0 1.254 1.446 1.954 2.43 1.178L12 14.216v3.22c0 1.254 1.446 1.954 2.43 1.178l6.886-5.437a1.5 1.5 0 0 0 0-2.354L14.43 5.386ZM12 12.942v-1.884L5.81 6.171a.5.5 0 0 0-.81.393v10.872a.5.5 0 0 0 .81.393L12 12.942Z" clip-rule="evenodd"/></symbol>
  <use href="#icon"/>
</svg>