<svg xmlns="http://www.w3.org/2000/svg">
  <symbol id="icon" fill="none" viewBox="0 0 16 16"><path fill="currentColor" fill-rule="evenodd" d="M7.008 5.032c.265-.247.464-.597.616-.93a9.46 9.46 0 0 0 .39-1.055l.132-.43v-.001c.033-.11.063-.21.092-.301.142.09.315.214.512.372.474.38 1.056.931 1.619 1.595C11.51 5.628 12.5 7.346 12.5 9c0 1.724-.546 2.964-1.354 3.771a3.983 3.983 0 0 1-.507.43A4.05 4.05 0 0 0 11 11.5c0-1.08-.643-2.072-1.252-2.753a6.603 6.603 0 0 0-.916-.85 3.375 3.375 0 0 0-.387-.258 1.459 1.459 0 0 0-.184-.087A.74.74 0 0 0 8 7.5a.74.74 0 0 0-.262.052 1.458 1.458 0 0 0-.184.087c-.118.065-.25.154-.387.257-.276.209-.602.5-.916.85C5.642 9.429 5 10.42 5 11.5c0 .626.13 1.203.361 1.7a3.986 3.986 0 0 1-.507-.429C4.046 11.964 3.5 10.724 3.5 9c0-1.562.883-3.183 1.945-4.493.041.037.091.084.152.144l.036.035c.116.114.276.27.432.373a.92.92 0 0 0 .392.154.679.679 0 0 0 .55-.18Zm1.349-3.044-.001.002a.03.03 0 0 1 .001-.002ZM5.305 4.4l.003.001-.003-.001ZM8 1.167a.56.56 0 0 0-.416.19.84.84 0 0 0-.12.182c-.051.099-.096.22-.135.336-.043.13-.095.3-.148.478l-.12.393a8.496 8.496 0 0 1-.347.941 2.895 2.895 0 0 1-.233.426 7.027 7.027 0 0 1-.176-.169l-.01-.01-.005-.005c-.123-.12-.308-.3-.503-.405a.833.833 0 0 0-.45-.108.716.716 0 0 0-.505.262C3.654 5.078 2.5 7.007 2.5 9c0 1.943.621 3.453 1.646 4.479C5.17 14.5 6.552 15 8 15s2.831-.499 3.854-1.521C12.879 12.453 13.5 10.943 13.5 9c0-2.013-1.177-3.961-2.369-5.365a13.274 13.274 0 0 0-1.756-1.728A6.302 6.302 0 0 0 8.66 1.4a2.377 2.377 0 0 0-.306-.156A.958.958 0 0 0 8 1.167ZM6.633 4.235l-.002-.002.002.002ZM6 11.5c0-.707.44-1.464.998-2.086.27-.302.548-.55.772-.72.092-.068.17-.12.23-.157.06.036.139.089.23.158.224.169.502.417.772.719.557.622.998 1.38.998 2.086 0 1.578-1.006 2.5-2 2.5s-2-.922-2-2.5Zm2.095-3.013a.042.042 0 0 1-.002 0h.002Zm-.188 0a.045.045 0 0 1-.002 0h.002Z" clip-rule="evenodd"/></symbol>
  <symbol id="icon-large" fill="none" viewBox="0 0 24 24"><path fill="currentColor" fill-rule="evenodd" d="M10.34 7.366c.363-.338.644-.826.868-1.318.228-.5.416-1.052.574-1.553.073-.23.137-.443.196-.637a22.983 22.983 0 0 1 .24-.758c.041.022.087.048.137.078.247.145.563.366.926.657a18.661 18.661 0 0 1 2.463 2.426C17.469 8.294 19 10.93 19 13.5c0 2.64-.837 4.5-2.095 5.7a6.09 6.09 0 0 1-1.56 1.078c.427-.7.655-1.598.655-2.675 0-1.517-.84-2.906-1.684-3.883a8.686 8.686 0 0 0-1.254-1.197 4.338 4.338 0 0 0-.527-.352 1.822 1.822 0 0 0-.239-.112A.859.859 0 0 0 12 12a.859.859 0 0 0-.296.06c-.08.029-.16.068-.239.111a4.338 4.338 0 0 0-.527.352c-.379.29-.826.7-1.254 1.197C8.84 14.697 8 16.087 8 17.603c0 1.077.228 1.974.656 2.675a6.106 6.106 0 0 1-1.56-1.077C5.835 17.999 5 16.139 5 13.5c0-2.507 1.456-5.075 3.13-7.088.11.07.25.2.44.385l.054.053c.178.174.398.39.612.53.12.08.285.168.479.19a.769.769 0 0 0 .626-.204ZM12 22c2.102 0 4.11-.658 5.595-2.076C19.087 18.501 20 16.361 20 13.5c0-2.93-1.719-5.794-3.494-7.886a19.662 19.662 0 0 0-2.6-2.559 9.21 9.21 0 0 0-1.043-.739 3.317 3.317 0 0 0-.426-.216A1.18 1.18 0 0 0 12 2a.591.591 0 0 0-.438.204 1.011 1.011 0 0 0-.145.218c-.066.13-.128.299-.186.47-.065.195-.14.44-.219.703-.059.195-.12.4-.183.6-.155.489-.329.995-.531 1.44-.174.381-.354.686-.537.893a4.377 4.377 0 0 1-.459-.414l-.034-.033c-.19-.186-.446-.434-.707-.575a1 1 0 0 0-.539-.133.824.824 0 0 0-.582.305C5.685 7.763 4 10.6 4 13.5c0 2.86.914 5 2.405 6.424C7.89 21.342 9.898 22 12 22Zm0-1c.899 0 1.633-.272 2.142-.793.51-.522.858-1.357.858-2.604 0-1.164-.66-2.325-1.44-3.23a7.684 7.684 0 0 0-1.106-1.055A3.374 3.374 0 0 0 12 13.02a3.374 3.374 0 0 0-.454.298c-.324.247-.72.61-1.105 1.055C9.66 15.278 9 16.44 9 17.603c0 1.247.348 2.082.858 2.604.51.521 1.243.793 2.142.793Zm.064-8.007h-.004a.018.018 0 0 1 .004 0Zm-.124 0h-.004.004Z" clip-rule="evenodd"/></symbol>
  <use href="#icon"/>
</svg>