<svg xmlns="http://www.w3.org/2000/svg">
  <symbol id="icon" fill="none" viewBox="0 0 16 16"><path fill="currentColor" fill-rule="evenodd" d="M4 6a5 5 0 0 1 5-5h4a.5.5 0 1 1 0 1h-1l.9 1.2a.5.5 0 0 1-.8.6L10.75 2H10v2.05a2.5 2.5 0 0 1 2 2.45v7.333c0 .645-.522 1.167-1.167 1.167H8.167A1.167 1.167 0 0 1 7 13.833V6.5a2.5 2.5 0 0 1 2-2.45V2a4 4 0 0 0-4 4v3.085A1.5 1.5 0 0 1 6 10.5v4a.5.5 0 0 1-.5.5h-2a.5.5 0 0 1-.5-.5v-4a1.5 1.5 0 0 1 1-1.415V6Zm4 .5a1.5 1.5 0 1 1 3 0V9H8V6.5Zm0 7.333V10h3v3.833a.167.167 0 0 1-.167.167H8.167A.167.167 0 0 1 8 13.833ZM4 10.5a.5.5 0 0 1 1 0V14H4v-3.5Z" clip-rule="evenodd"/></symbol>
  <symbol id="icon-large" fill="none" viewBox="0 0 24 24"><path fill="currentColor" fill-rule="evenodd" d="M5 9a7 7 0 0 1 7-7h5.5a.5.5 0 0 1 0 1H15v.5a.5.5 0 0 0 .5.5h2a.5.5 0 0 1 0 1h-2A1.5 1.5 0 0 1 14 3.5V3h-1.5v2.031A4 4 0 0 1 16 9v11.5a1.5 1.5 0 0 1-1.5 1.5h-5A1.5 1.5 0 0 1 8 20.5V9a4 4 0 0 1 3.5-3.969v-2.01A6 6 0 0 0 6 9v7.085A1.5 1.5 0 0 1 7 17.5v4a.5.5 0 0 1-.5.5h-2a.5.5 0 0 1-.5-.5v-4a1.5 1.5 0 0 1 1-1.415V9Zm7-3a3 3 0 0 0-3 3v2h6V9a3 3 0 0 0-3-3ZM9 16v-4h6v4H9Zm0 1v3.5a.5.5 0 0 0 .5.5h5a.5.5 0 0 0 .5-.5V17H9Zm-4 .5a.5.5 0 0 1 1 0V21H5v-3.5Z" clip-rule="evenodd"/></symbol>
  <use href="#icon"/>
</svg>