<svg xmlns="http://www.w3.org/2000/svg">
  <symbol id="icon" fill="none" viewBox="0 0 16 16"><path fill="currentColor" fill-rule="evenodd" d="M1 2.5a.5.5 0 0 1 .5-.5h2.764a.5.5 0 0 1 .224.053l1.577.789A1.5 1.5 0 0 0 6.736 3H12.5a.5.5 0 0 1 .5.5V5H3.302a1.5 1.5 0 0 0-1.464 1.175L1 9.945V2.5ZM1.747 14h10.951a.5.5 0 0 0 .488-.392l1.556-7a.5.5 0 0 0-.49-.608H3.303a.5.5 0 0 0-.489.392l-1.555 7a.5.5 0 0 0 .488.608Zm0 1H1.5A1.5 1.5 0 0 1 0 13.5v-11A1.5 1.5 0 0 1 1.5 1h2.764a1.5 1.5 0 0 1 .67.158l1.578.79A.5.5 0 0 0 6.736 2H12.5A1.5 1.5 0 0 1 14 3.5V5h.253a1.5 1.5 0 0 1 1.465 1.825l-1.556 7A1.5 1.5 0 0 1 12.698 15H1.747Z" clip-rule="evenodd"/></symbol>
  <symbol id="icon-large" fill="none" viewBox="0 0 24 24"><path fill="currentColor" fill-rule="evenodd" d="M3 4.5a.5.5 0 0 1 .5-.5h5.086a.5.5 0 0 1 .353.146l1.415 1.415a1.5 1.5 0 0 0 1.06.439H19.5a.5.5 0 0 1 .5.5V8H5.333a1.5 1.5 0 0 0-1.475 1.23L3 13.91V4.5Zm0 15v-.011c0-.026.003-.053.008-.08l1.834-10A.5.5 0 0 1 5.333 9H22.3a.5.5 0 0 1 .492.59l-1.834 10a.5.5 0 0 1-.491.41H3.5a.5.5 0 0 1-.5-.5Zm-1-.033V4.5A1.5 1.5 0 0 1 3.5 3h5.086a1.5 1.5 0 0 1 1.06.44l1.415 1.414a.5.5 0 0 0 .353.146H19.5A1.5 1.5 0 0 1 21 6.5V8h1.3a1.5 1.5 0 0 1 1.475 1.77l-1.833 10A1.5 1.5 0 0 1 20.467 21H3.5A1.5 1.5 0 0 1 2 19.467Z" clip-rule="evenodd"/></symbol>
  <use href="#icon"/>
</svg>