<svg xmlns="http://www.w3.org/2000/svg">
  <symbol id="icon" fill="none" viewBox="0 0 16 16"><path fill="currentColor" fill-rule="evenodd" d="M8 .996c-1.6 0-2.758.508-3.518 1.255-.751.74-1.08 1.682-1.08 2.496 0 .574.127 1.07.368 1.498l.871-.49c-.148-.264-.24-.589-.24-1.008 0-.557.23-1.24.782-1.783.545-.536 1.437-.968 2.817-.968 1.429 0 2.26.466 2.758.977.511.524.717 1.146.796 1.518a.5.5 0 0 0 .978-.21 4.145 4.145 0 0 0-1.057-2.006C10.77 1.553 9.672.996 8 .996Zm3.546 9.249c.148.262.24.586.24 1.004C11.785 12.305 10.745 14 8 14c-1.43 0-2.331-.466-2.907-.995a3.708 3.708 0 0 1-.993-1.551.5.5 0 1 0-.95.313c.156.472.51 1.28 1.266 1.974C5.182 14.445 6.328 15 8 15c3.216 0 4.785-2.063 4.785-3.75 0-.572-.127-1.068-.366-1.495l-.873.49ZM2 7.5a.5.5 0 0 0 0 1h12.002a.5.5 0 0 0 0-1H2Z" clip-rule="evenodd"/></symbol>
  <symbol id="icon-large" fill="none" viewBox="0 0 24 24"><path fill="currentColor" fill-rule="evenodd" d="M12 2c-2.225 0-3.811.727-4.842 1.772-1.02 1.036-1.463 2.352-1.463 3.478 0 1.038.291 1.876.806 2.553l.796-.606c-.372-.489-.602-1.11-.602-1.947 0-.879.35-1.938 1.176-2.776C8.688 3.645 10.005 3 12 3c2.07 0 3.302.697 4.05 1.49.764.809 1.069 1.765 1.187 2.334a.5.5 0 0 0 .98-.204c-.14-.668-.502-1.823-1.44-2.816C15.826 2.795 14.324 2 12.001 2Zm4.968 12.803c.373.489.602 1.11.602 1.947 0 1.703-1.597 4.25-5.57 4.25-2.07 0-3.396-.698-4.253-1.51-.868-.823-1.283-1.793-1.466-2.364a.5.5 0 0 0-.953.304c.213.665.699 1.807 1.732 2.786C8.104 21.206 9.678 22 12 22c4.473 0 6.57-2.944 6.57-5.25 0-1.038-.29-1.876-.806-2.553l-.796.606ZM3.5 11.5a.5.5 0 0 0 0 1h17a.5.5 0 0 0 0-1h-17Z" clip-rule="evenodd"/></symbol>
  <use href="#icon"/>
</svg>