<svg xmlns="http://www.w3.org/2000/svg">
  <symbol id="icon" fill="none" viewBox="0 0 16 16"><path fill="currentColor" fill-rule="evenodd" d="M12.853 1.146a.5.5 0 0 0-.707 0l-1.5 1.5a.5.5 0 0 0 .707.708l.646-.647v3.587l-.647-.648a.5.5 0 1 0-.707.708l1.5 1.5a.5.5 0 0 0 .708 0l1.5-1.5a.5.5 0 1 0-.706-.708l-.648.648V2.707l.647.647a.5.5 0 1 0 .707-.707l-1.5-1.5ZM3.382 11l-1.415 3.68a.5.5 0 0 1-.934-.36l5-13a.5.5 0 0 1 .934 0l5 13a.5.5 0 0 1-.934.36L9.618 11H3.382Zm5.852-1H3.766L6.5 2.893 9.234 10Z" clip-rule="evenodd"/></symbol>
  <symbol id="icon-large" fill="none" viewBox="0 0 24 24"><path fill="currentColor" fill-rule="evenodd" d="M19.854 3.146a.5.5 0 0 0-.708 0l-2 2a.5.5 0 0 0 .707.708L19 4.707v5.586l-1.146-1.147a.5.5 0 1 0-.708.708l2 2a.5.5 0 0 0 .707 0l2-2a.5.5 0 1 0-.707-.708L20 10.293V4.707l1.146 1.147a.5.5 0 1 0 .707-.708l-2-2ZM5.473 15l-2.516 5.702a.5.5 0 1 1-.914-.404l7.5-17a.5.5 0 0 1 .914 0l7.5 17a.5.5 0 1 1-.915.404L14.5 14.939V15H5.473Zm8.613-1H5.914L10 4.739 14.086 14Z" clip-rule="evenodd"/></symbol>
  <use href="#icon"/>
</svg>