<svg xmlns="http://www.w3.org/2000/svg">
  <symbol id="icon" fill="none" viewBox="0 0 16 16"><path fill="currentColor" fill-rule="evenodd" d="M2.75 4.69a5.45 5.45 0 0 0 4.984 8.203l-.65-.813a1.5 1.5 0 0 1-.208-1.528l.399-.93-.446.072a.5.5 0 0 1-.553-.336l-.292-.874-1.591-.955a1.49 1.49 0 0 1-1.134-.89l-.388-.903a1.5 1.5 0 0 1-.121-.591v-.456Zm2.925 2.442.982.59a.5.5 0 0 1 .217.27l.216.647.831-.133a.498.498 0 0 1 .203.01c.208-.107.442-.166.685-.166h1.175a1.5 1.5 0 0 1 .745.198l1.752 1.001A5.43 5.43 0 0 0 12.9 7.45c0-1.819-.891-3.43-2.26-4.42a1.5 1.5 0 0 1-.57 1.344l-2.392 1.86a1.5 1.5 0 0 1-.921.316h-.293a.5.5 0 0 0-.353.146l-.413.413a1.541 1.541 0 0 1-.023.023Zm6.337 3.3a5.46 5.46 0 0 1-3.141 2.281l-1.006-1.257a.5.5 0 0 1-.07-.51l.555-1.293a.5.5 0 0 1 .46-.303h1.174a.5.5 0 0 1 .248.066l1.78 1.017ZM3.75 3.449v1.697a.5.5 0 0 0 .04.197l.388.903a.5.5 0 0 0 .813.157l.413-.413a1.5 1.5 0 0 1 1.06-.439h.293a.5.5 0 0 0 .307-.105l2.391-1.86a.5.5 0 0 0 .184-.493l-.14-.693A5.435 5.435 0 0 0 7.45 2a5.43 5.43 0 0 0-3.7 1.448ZM1 7.45a6.45 6.45 0 1 1 11.315 4.235l.039-.039 2.5 2.5a.5.5 0 0 1-.708.708l-2.5-2.5.039-.039A6.45 6.45 0 0 1 1 7.45Z" clip-rule="evenodd"/></symbol>
  <symbol id="icon-large" fill="none" viewBox="0 0 24 24"><path fill="currentColor" fill-rule="evenodd" d="M11 3c-2.13 0-4.066.833-5.5 2.19v2.605a.5.5 0 0 0 .04.197l.838 1.953a.5.5 0 0 0 .813.157l1.163-1.163a1.5 1.5 0 0 1 1.06-.439h.743a.5.5 0 0 0 .307-.105l3.741-2.91a.5.5 0 0 0 .184-.493l-.273-1.362A7.974 7.974 0 0 0 11 3Zm-8 8c0-1.74.556-3.352 1.5-4.665v1.46c0 .203.041.404.121.59l.838 1.954a1.5 1.5 0 0 0 1.744.866l1.881 1.129.442 1.324a.5.5 0 0 0 .572.332l1.021-.204-.842 1.966a1.5 1.5 0 0 0 .207 1.528l1.342 1.678A8 8 0 0 1 3 11Zm6.757.571-1.638-.983.942-.942a.5.5 0 0 1 .353-.146h.743a1.5 1.5 0 0 0 .92-.316l3.742-2.91a1.5 1.5 0 0 0 .55-1.478l-.114-.572A7.994 7.994 0 0 1 19 11a7.97 7.97 0 0 1-.712 3.303l-2.81-1.605a1.5 1.5 0 0 0-.744-.198H12.66c-.086 0-.171.007-.255.022l-.002-.012-2.067.413-.36-1.081a.5.5 0 0 0-.218-.27Zm3.183 7.192a8.014 8.014 0 0 0 4.879-3.577l-2.836-1.62a.5.5 0 0 0-.249-.066H12.66a.5.5 0 0 0-.46.303l-1.003 2.343a.5.5 0 0 0 .069.51l1.625 2.032a.5.5 0 0 1 .05.075ZM20 11a9 9 0 0 0-5.003-8.066l-.007-.032-.041.008A9 9 0 1 0 17 17.707l4.145 4.147a.5.5 0 0 0 .708-.708l-4.146-4.145A8.966 8.966 0 0 0 20 11Z" clip-rule="evenodd"/></symbol>
  <use href="#icon"/>
</svg>