<svg xmlns="http://www.w3.org/2000/svg">
  <symbol id="icon" fill="none" viewBox="0 0 16 16"><path fill="currentColor" fill-rule="evenodd" d="M4 5a3 3 0 0 1 6 0 .5.5 0 0 0 1 0 4 4 0 1 0-8 0 .5.5 0 0 0 1 0Zm3-1a1 1 0 0 0-1 1v7a.5.5 0 0 1-.916.278L3.86 10.44a.822.822 0 0 0-1.418.823l1.506 3.013a.5.5 0 1 1-.894.448L1.546 11.71a1.822 1.822 0 0 1 3.145-1.825l.31.463V5.001a2 2 0 1 1 4 0v2.766a2 2 0 0 1 2.986 1.496 1.96 1.96 0 0 1 .984-.262c1.077 0 1.997.875 1.957 1.988-.046 1.234-.228 2.612-1.012 3.788a.5.5 0 1 1-.832-.554c.626-.94.801-2.086.844-3.27.019-.51-.41-.952-.957-.952a.97.97 0 0 0-.971.97v.03a.5.5 0 1 1-1 0V9.5a1 1 0 0 0-2-.016v1.017a.5.5 0 1 1-1 0V5a1 1 0 0 0-1-1Z" clip-rule="evenodd"/></symbol>
  <symbol id="icon-large" fill="none" viewBox="0 0 24 24"><path fill="currentColor" fill-rule="evenodd" d="M6.5 6a3.5 3.5 0 1 1 7 0 .5.5 0 0 0 1 0 4.5 4.5 0 1 0-9 0 .5.5 0 0 0 1 0ZM10 4.5A1.5 1.5 0 0 0 8.5 6v10.5a.5.5 0 0 1-.929.257l-2.018-3.364a1.319 1.319 0 0 0-2.276 1.333l3.157 5.526a.5.5 0 0 1-.868.496l-3.158-5.526A2.319 2.319 0 0 1 6.41 12.88l1.09 1.816V6a2.5 2.5 0 1 1 5 0v3.5a2.5 2.5 0 0 1 4 2A2.49 2.49 0 0 1 18 11c1.382 0 2.496 1.118 2.542 2.483l.002.058c.078 2.374.142 4.294-1.084 7.156a.5.5 0 0 1-.92-.394c1.14-2.657 1.082-4.392 1.003-6.75v-.036C19.513 12.674 18.826 12 18 12a1.5 1.5 0 0 0-1.5 1.5.5.5 0 0 1-1 0v-2a1.5 1.5 0 0 0-3 0V13a.5.5 0 0 1-1 0V6A1.5 1.5 0 0 0 10 4.5Z" clip-rule="evenodd"/></symbol>
  <use href="#icon"/>
</svg>