<svg xmlns="http://www.w3.org/2000/svg">
  <symbol id="icon" fill="none" viewBox="0 0 16 16"><path fill="currentColor" fill-rule="evenodd" d="M10 2a1 1 0 0 0-1 1v.826c.005.06.008.12.008.18L9 9.501a.5.5 0 1 1-1-.002l.001-.902A.509.509 0 0 1 8 8.561V3.878a1.004 1.004 0 0 0-2 .126v7.967a.5.5 0 0 1-.932.251L3.609 9.714a.882.882 0 0 0-1.55.843l1.887 3.717a.5.5 0 1 1-.892.452L1.168 11.01a1.882 1.882 0 0 1 3.305-1.8l.527.906V4.004a2.004 2.004 0 0 1 3.113-1.67A2 2 0 0 1 12 3v4.768a1.99 1.99 0 0 1 1-.268c1.1 0 2.013.894 1.991 2.01-.035 1.807-.207 3.127-1.027 5.176a.5.5 0 1 1-.928-.372c.766-1.916.922-3.113.955-4.823A.983.983 0 0 0 13 8.5a1 1 0 0 0-1 1v.5a.5.5 0 1 1-1 0V3a1 1 0 0 0-1-1Z" clip-rule="evenodd"/></symbol>
  <symbol id="icon-large" fill="none" viewBox="0 0 24 24"><path fill="currentColor" fill-rule="evenodd" d="M14 3.5A1.5 1.5 0 0 0 12.5 5v8a.5.5 0 1 1-1 0V6a1.5 1.5 0 1 0-3 0v10.5a.5.5 0 0 1-.929.257l-2.018-3.364a1.319 1.319 0 0 0-2.276 1.333l3.157 5.526a.5.5 0 0 1-.868.496l-3.158-5.526A2.319 2.319 0 0 1 6.41 12.88l1.09 1.816V6a2.5 2.5 0 0 1 4.156-1.872A2.5 2.5 0 0 1 16.5 5v6.5A2.49 2.49 0 0 1 18 11c1.382 0 2.496 1.118 2.542 2.483l.002.058c.078 2.374.142 4.294-1.084 7.156a.5.5 0 1 1-.92-.394c1.14-2.657 1.082-4.392 1.003-6.75v-.036C19.513 12.674 18.826 12 18 12a1.5 1.5 0 0 0-1.5 1.5.5.5 0 1 1-1 0V5A1.5 1.5 0 0 0 14 3.5Z" clip-rule="evenodd"/></symbol>
  <use href="#icon"/>
</svg>