<svg xmlns="http://www.w3.org/2000/svg">
  <symbol id="icon" fill="none" viewBox="0 0 16 16"><path fill="currentColor" fill-rule="evenodd" d="M2 7a5 5 0 0 1 10 0 .5.5 0 0 0 1 0A6 6 0 0 0 1 7a.5.5 0 0 0 1 0Zm5-3a3 3 0 0 0-3 3 .5.5 0 0 1-1 0 4 4 0 1 1 8 0 .5.5 0 0 1-1 0 3 3 0 0 0-3-3ZM6 7a1 1 0 1 1 2 0v4.502a.5.5 0 1 0 1 0V10.49a1 1 0 0 1 2 .01v1.502a.5.5 0 0 0 .5.5h.01A.5.5 0 0 0 12 12v-.03a.97.97 0 0 1 .97-.97c.539 0 .995.44 1.016.989.033.856.027 1.542-.244 2.352a.5.5 0 0 0 .949.317c.33-.989.328-1.826.294-2.708A2.03 2.03 0 0 0 12.971 10c-.359 0-.695.095-.985.263A2 2 0 0 0 9 8.767V7.001a2 2 0 1 0-4 0v4.348l-.309-.463a1.822 1.822 0 0 0-3.145 1.825l1.007 2.013a.5.5 0 0 0 .894-.447L2.44 12.263a.822.822 0 0 1 1.419-.823l1.225 1.838A.5.5 0 0 0 6 13V7Z" clip-rule="evenodd"/></symbol>
  <symbol id="icon-large" fill="none" viewBox="0 0 24 24"><path fill="currentColor" fill-rule="evenodd" d="M4.5 8a5.5 5.5 0 1 1 11 0 .5.5 0 0 0 1 0 6.5 6.5 0 1 0-13 0 .5.5 0 0 0 1 0ZM10 4.5A3.5 3.5 0 0 0 6.5 8a.5.5 0 0 1-1 0 4.5 4.5 0 0 1 9 0 .5.5 0 0 1-1 0A3.5 3.5 0 0 0 10 4.5ZM8.5 8a1.5 1.5 0 1 1 3 0v7a.5.5 0 0 0 1 0v-1.5a1.5 1.5 0 0 1 3 0v2a.5.5 0 0 0 1 0A1.5 1.5 0 0 1 18 14c.827 0 1.514.674 1.542 1.516v.022c.06 1.764.106 3.154-.331 4.836a.5.5 0 0 0 .968.252c.473-1.823.423-3.339.365-5.072l-.002-.07C20.496 14.117 19.382 13 18 13a2.49 2.49 0 0 0-1.5.5 2.5 2.5 0 0 0-4-2V8a2.5 2.5 0 0 0-5 0v8.695l-1.09-1.816a2.319 2.319 0 0 0-4.002 2.343l2.015 3.526a.5.5 0 0 0 .868-.496l-2.015-3.526a1.319 1.319 0 0 1 2.277-1.333l2.018 3.364A.5.5 0 0 0 8.5 18.5V8Z" clip-rule="evenodd"/></symbol>
  <use href="#icon"/>
</svg>