<svg xmlns="http://www.w3.org/2000/svg">
  <symbol id="icon" fill="none" viewBox="0 0 16 16"><path fill="currentColor" fill-rule="evenodd" d="M2.146 2.146a.5.5 0 0 1 .708 0l2 2a.5.5 0 0 1 0 .708l-2 2a.5.5 0 1 1-.708-.708L3.293 5H1a.5.5 0 0 1 0-1h2.293L2.146 2.854a.5.5 0 0 1 0-.708Zm10.52 2.401a.992.992 0 0 1 1.73.969l-3.832 7.24a.5.5 0 1 0 .876.482l.678-1.186a1.14 1.14 0 0 1 2.01 1.076l-.575 1.148a.5.5 0 1 0 .894.448l.575-1.15a2.14 2.14 0 0 0-2.126-3.086l2.384-4.505a1.992 1.992 0 0 0-3.474-1.944l-5.293 8.956L4.85 9.999a1.943 1.943 0 0 0-3.496 1.681l1.235 3.01a.5.5 0 1 0 .925-.38L2.279 11.3a.943.943 0 0 1 1.696-.815l2.088 3.758a.5.5 0 0 0 .867.011l5.737-9.707ZM7.708 4l1.147-1.146a.5.5 0 1 0-.708-.708l-2 2a.5.5 0 0 0 0 .708l2 2a.5.5 0 1 0 .708-.708L7.707 5H10a.5.5 0 0 0 0-1H7.707Z" clip-rule="evenodd"/></symbol>
  <symbol id="icon-large" fill="none" viewBox="0 0 24 24"><path fill="currentColor" fill-rule="evenodd" d="M3.646 2.146a.5.5 0 0 1 .708 0l2 2a.5.5 0 0 1 0 .708l-2 2a.5.5 0 1 1-.708-.708L4.793 5H2.5a.5.5 0 0 1 0-1h2.293L3.646 2.854a.5.5 0 0 1 0-.708Zm12.546 2.05c.607.322.826 1.083.483 1.678l-2.86 4.952-.002.005-.25.433v.001l-.5.864a.5.5 0 1 0 .866.5l.5-.865.25-.433.002-.003a1.5 1.5 0 0 1 2.597 1.503l-1 1.732a.5.5 0 1 0 .866.5 1.5 1.5 0 0 1 2.049-.55c.717.415.971 1.34.567 2.07-.758 1.37-1.374 2.437-2.419 3.58a.5.5 0 0 0 .739.674c1.13-1.236 1.793-2.393 2.555-3.77a2.536 2.536 0 0 0-.943-3.42 2.489 2.489 0 0 0-1.548-.317 2.5 2.5 0 0 0-2.464-3.732l1.86-3.224a2.213 2.213 0 0 0-3.806-2.256L8.03 13.489 5.725 9.148a1.854 1.854 0 0 0-3.402 1.436l1.737 5.4.003.025a12.417 12.417 0 0 1 .072.866c.028.543.022 1.133-.07 1.506-.09.363-.336.803-.589 1.18a8.415 8.415 0 0 1-.423.577l-.026.032-.006.007-.001.002a.5.5 0 0 0 .764.644l-.382-.322.382.322.002-.002.002-.003.01-.011a4.409 4.409 0 0 0 .148-.186c.095-.124.224-.298.362-.503.265-.397.594-.957.728-1.497.131-.53.126-1.253.098-1.797a15.179 15.179 0 0 0-.078-.93l-.007-.06-.002-.016v-.006l-.497.064.496-.065a.5.5 0 0 0-.02-.088l-1.75-5.445a.854.854 0 0 1 1.566-.662l2.716 5.12a.5.5 0 0 0 .87.025l6.16-10.122a1.213 1.213 0 0 1 1.604-.442ZM9.207 4H11.5a.5.5 0 0 1 0 1H9.207l1.147 1.146a.5.5 0 0 1-.708.708l-2-2a.5.5 0 0 1 0-.708l2-2a.5.5 0 0 1 .708.708L9.207 4Z" clip-rule="evenodd"/></symbol>
  <use href="#icon"/>
</svg>