<svg xmlns="http://www.w3.org/2000/svg">
  <symbol id="icon" fill="none" viewBox="0 0 16 16"><path fill="currentColor" fill-rule="evenodd" d="M10 2a.99.99 0 0 0-.99.99v5.57a.503.503 0 0 1-.009.095L9 9.5a.5.5 0 1 1-1-.002l.008-5.51a.989.989 0 1 0-1.977-.001v7.982a.5.5 0 0 1-.93.254L3.615 9.71a.887.887 0 0 0-1.555.852l1.885 3.713a.5.5 0 1 1-.892.452L1.17 11.013a1.887 1.887 0 0 1 3.309-1.812l.553.937V5H2.707l1.147 1.146a.5.5 0 1 1-.708.708l-2-2a.5.5 0 0 1 0-.708l2-2a.5.5 0 1 1 .708.708L2.707 4H5.03v-.012a1.989 1.989 0 0 1 3.091-1.656 1.99 1.99 0 0 1 3.868.658V4h2.304l-1.147-1.146a.5.5 0 0 1 .708-.708l2 2a.5.5 0 0 1 0 .708l-2 2a.5.5 0 0 1-.708-.708L14.293 5H11.99v2.763a1.98 1.98 0 0 1 .989-.263c1.094 0 2 .889 1.984 1.997-.026 1.81-.176 3.132-.999 5.189a.5.5 0 1 1-.928-.372c.766-1.916.902-3.112.927-4.831a.978.978 0 0 0-.984-.983.99.99 0 0 0-.99.97V10a.5.5 0 0 1-1 0V2.99A.99.99 0 0 0 10 2Z" clip-rule="evenodd"/></symbol>
  <symbol id="icon-large" fill="none" viewBox="0 0 24 24"><path fill="currentColor" fill-rule="evenodd" d="M14 3.5A1.5 1.5 0 0 0 12.5 5v8a.5.5 0 0 1-1 0V6a1.5 1.5 0 0 0-3 0v10.5a.5.5 0 0 1-.929.257l-2.018-3.364a1.319 1.319 0 0 0-2.276 1.333l3.157 5.526a.5.5 0 0 1-.868.496l-3.158-5.526A2.319 2.319 0 0 1 6.41 12.88l1.09 1.816V6a2.5 2.5 0 0 1 4.156-1.872A2.5 2.5 0 0 1 16.5 5v6.5A2.49 2.49 0 0 1 18 11c1.382 0 2.496 1.118 2.542 2.483l.002.058c.078 2.374.142 4.294-1.084 7.156a.5.5 0 0 1-.92-.394c1.14-2.657 1.082-4.392 1.003-6.75v-.036C19.513 12.674 18.826 12 18 12a1.5 1.5 0 0 0-1.5 1.5.5.5 0 0 1-1 0V5A1.5 1.5 0 0 0 14 3.5Zm6.146-.354a.5.5 0 0 1 .708 0l2 2a.5.5 0 0 1 0 .708l-2 2a.5.5 0 0 1-.708-.708L21.293 6H18V5h3.293l-1.147-1.146a.5.5 0 0 1 0-.708ZM2.707 6l1.147 1.146a.5.5 0 1 1-.708.708l-2-2a.5.5 0 0 1 0-.708l2-2a.5.5 0 1 1 .708.708L2.707 5H6v1H2.707Z" clip-rule="evenodd"/></symbol>
  <use href="#icon"/>
</svg>