<svg xmlns="http://www.w3.org/2000/svg">
  <symbol id="icon" fill="none" viewBox="0 0 16 16"><path fill="currentColor" fill-rule="evenodd" d="M4.008 3.521A5.978 5.978 0 0 1 8.001 2c.432 0 .853.046 1.259.132l.182.913a.5.5 0 0 1-.183.493l-2.32 1.805a.5.5 0 0 1-.308.105h-.269a1.5 1.5 0 0 0-1.06.44l-.374.373a.5.5 0 0 1-.813-.157l-.33-.768a.5.5 0 0 1-.033-.28l.256-1.535Zm-1.262 1.58A6 6 0 0 0 7.843 14v-.857a.5.5 0 0 0-.11-.313l-.775-.969a1.5 1.5 0 0 1-.207-1.528l.349-.814-.458.01a.5.5 0 0 1-.484-.343l-.294-.882-1.161-.9a1.498 1.498 0 0 1-1.507-.905l-.33-.768a1.5 1.5 0 0 1-.12-.629Zm2.95 1.806.9.699a.5.5 0 0 1 .168.237l.226.677.744-.015a1.5 1.5 0 0 1 .926-.32h1.078a1.5 1.5 0 0 1 .86.271l2.874 2.012a6.002 6.002 0 0 0-3.124-7.991l.075.372a1.5 1.5 0 0 1-.55 1.478l-2.32 1.805a1.5 1.5 0 0 1-.922.316h-.269a.5.5 0 0 0-.353.146l-.313.313Zm7.287 4.44a6 6 0 0 1-4.14 2.596v-.801a1.5 1.5 0 0 0-.329-.938l-.775-.968a.5.5 0 0 1-.069-.51l.53-1.238a.5.5 0 0 1 .46-.303h1.078a.5.5 0 0 1 .287.09l2.958 2.071ZM8.001 1a7 7 0 1 0 0 14.001A7 7 0 0 0 8 1Z" clip-rule="evenodd"/></symbol>
  <symbol id="icon-large" fill="none" viewBox="0 0 24 24"><path fill="currentColor" fill-rule="evenodd" d="M5.95 5.336A8.967 8.967 0 0 1 12 3c.7 0 1.382.08 2.036.231l.353 1.761a.5.5 0 0 1-.184.493l-3.741 2.91a.5.5 0 0 1-.307.105h-.743a1.5 1.5 0 0 0-1.06.44L7.19 10.101a.5.5 0 0 1-.813-.157l-.803-1.873a.5.5 0 0 1-.034-.279l.41-2.457ZM4.706 6.728A9 9 0 0 0 12 21v-1.65a.5.5 0 0 0-.11-.312l-1.406-1.758a1.5 1.5 0 0 1-.207-1.528l.842-1.966-1.02.204a.5.5 0 0 1-.573-.332l-.442-1.324-1.881-1.13a1.5 1.5 0 0 1-1.744-.865l-.803-1.873a1.5 1.5 0 0 1-.101-.837l.15-.901Zm3.414 3.86 1.638.983a.5.5 0 0 1 .217.27l.36 1.082 2.068-.413.002.012c.084-.015.169-.022.255-.022h2.026a1.5 1.5 0 0 1 .86.271l4.543 3.18a9.004 9.004 0 0 0-4.967-12.396l.248 1.24a1.5 1.5 0 0 1-.55 1.48l-3.741 2.909a1.5 1.5 0 0 1-.921.316h-.743a.5.5 0 0 0-.353.146l-.942.942Zm11.478 6.24A8.999 8.999 0 0 1 13 20.945v-1.594a1.5 1.5 0 0 0-.329-.937l-1.406-1.759a.5.5 0 0 1-.07-.509l1.005-2.343a.5.5 0 0 1 .46-.303h2.025a.5.5 0 0 1 .287.09l4.625 3.238ZM12 2C6.477 2 2 6.477 2 12s4.477 10 10 10 10-4.477 10-10S17.523 2 12 2Z" clip-rule="evenodd"/></symbol>
  <use href="#icon"/>
</svg>