<svg xmlns="http://www.w3.org/2000/svg">
  <symbol id="icon" fill="none" viewBox="0 0 16 16"><path fill="currentColor" fill-rule="evenodd" d="M2 2.5a.5.5 0 0 1 .5-.5h.496a.5.5 0 0 1 .5.5v11a.5.5 0 0 1-.5.5H2.5a.5.5 0 0 1-.5-.5v-11ZM2.5 1A1.5 1.5 0 0 0 1 2.5v11A1.5 1.5 0 0 0 2.5 15h.496a1.5 1.5 0 0 0 1.5-1.5V9.224l.061.04 8.137 5.18a1.5 1.5 0 0 0 2.305-1.267l-.003-10.356a1.5 1.5 0 0 0-2.306-1.265L4.557 6.734l-.061.04V2.5a1.5 1.5 0 0 0-1.5-1.5H2.5Zm10.727 1.4a.5.5 0 0 1 .769.421l.003 10.357a.5.5 0 0 1-.768.422L5.094 8.42a.5.5 0 0 1 0-.844L13.227 2.4Z" clip-rule="evenodd"/></symbol>
  <symbol id="icon-large" fill="none" viewBox="0 0 24 24"><path fill="currentColor" fill-rule="evenodd" d="M5 5.5a.5.5 0 0 1 .5-.5h1a.5.5 0 0 1 .5.5v13a.5.5 0 0 1-.5.5h-1a.5.5 0 0 1-.5-.5v-13ZM5.5 4A1.5 1.5 0 0 0 4 5.5v13A1.5 1.5 0 0 0 5.5 20h1A1.5 1.5 0 0 0 8 18.5v-5.125l9.703 6.088A1.5 1.5 0 0 0 20 18.192V5.808a1.5 1.5 0 0 0-2.297-1.27L8 10.624V5.5A1.5 1.5 0 0 0 6.5 4h-1Zm12.734 1.384a.5.5 0 0 1 .766.424v12.384a.5.5 0 0 1-.766.424l-9.868-6.192a.5.5 0 0 1 0-.848l9.868-6.192Z" clip-rule="evenodd"/></symbol>
  <use href="#icon"/>
</svg>