<svg xmlns="http://www.w3.org/2000/svg">
  <symbol id="icon" fill="none" viewBox="0 0 16 16"><path fill="currentColor" fill-rule="evenodd" d="M12.5 2.5A.5.5 0 0 1 13 2h.496a.5.5 0 0 1 .5.5v11a.5.5 0 0 1-.5.5H13a.5.5 0 0 1-.5-.5v-11ZM13 1a1.5 1.5 0 0 0-1.5 1.5v4.273a1.524 1.524 0 0 0-.058-.039L3.301 1.556A1.5 1.5 0 0 0 .996 2.822L.999 13.18a1.5 1.5 0 0 0 2.306 1.265l8.137-5.178.058-.039V13.5A1.5 1.5 0 0 0 13 15h.496a1.5 1.5 0 0 0 1.5-1.5v-11a1.5 1.5 0 0 0-1.5-1.5H13ZM1.996 2.822a.5.5 0 0 1 .768-.422l8.141 5.178a.5.5 0 0 1 0 .844L2.768 13.6a.5.5 0 0 1-.769-.421L1.996 2.822Z" clip-rule="evenodd"/></symbol>
  <symbol id="icon-large" fill="none" viewBox="0 0 24 24"><path fill="currentColor" fill-rule="evenodd" d="M17 5.5a.5.5 0 0 1 .5-.5h1a.5.5 0 0 1 .5.5v13a.5.5 0 0 1-.5.5h-1a.5.5 0 0 1-.5-.5v-13Zm.5-1.5A1.5 1.5 0 0 0 16 5.5v5.125L6.297 4.537A1.5 1.5 0 0 0 4 5.808v12.384a1.5 1.5 0 0 0 2.297 1.27L16 13.376V18.5a1.5 1.5 0 0 0 1.5 1.5h1a1.5 1.5 0 0 0 1.5-1.5v-13A1.5 1.5 0 0 0 18.5 4h-1ZM5 5.808a.5.5 0 0 1 .766-.424l9.868 6.192a.5.5 0 0 1 0 .848l-9.868 6.192A.5.5 0 0 1 5 18.192V5.808Z" clip-rule="evenodd"/></symbol>
  <use href="#icon"/>
</svg>