<svg xmlns="http://www.w3.org/2000/svg">
  <symbol id="icon" fill="none" viewBox="0 0 16 16"><path fill="currentColor" fill-rule="evenodd" d="M10 2a.5.5 0 0 0-.5.5V6a.5.5 0 0 0 .5.5h3.5A.5.5 0 0 0 14 6V2.5a.5.5 0 0 0-.5-.5H10Zm-1.5.5A1.5 1.5 0 0 1 10 1h3.5A1.5 1.5 0 0 1 15 2.5V6a1.5 1.5 0 0 1-1.5 1.5H10A1.5 1.5 0 0 1 8.5 6V2.5Zm-6 6A1.5 1.5 0 0 0 1 10v3.5A1.5 1.5 0 0 0 2.5 15H6a1.5 1.5 0 0 0 1.5-1.5V10A1.5 1.5 0 0 0 6 8.5H2.5ZM2 10a.5.5 0 0 1 .5-.5H6a.5.5 0 0 1 .5.5v3.5a.5.5 0 0 1-.5.5H2.5a.5.5 0 0 1-.5-.5V10Zm8-1.5A1.5 1.5 0 0 0 8.5 10v3.5A1.5 1.5 0 0 0 10 15h3.5a1.5 1.5 0 0 0 1.5-1.5V10a1.5 1.5 0 0 0-1.5-1.5H10ZM9.5 10a.5.5 0 0 1 .5-.5h3.5a.5.5 0 0 1 .5.5v3.5a.5.5 0 0 1-.5.5H10a.5.5 0 0 1-.5-.5V10ZM2 2.5a.5.5 0 0 1 .5-.5H6a.5.5 0 0 1 .5.5V6a.5.5 0 0 1-.5.5H2.5A.5.5 0 0 1 2 6V2.5ZM2.5 1A1.5 1.5 0 0 0 1 2.5V6a1.5 1.5 0 0 0 1.5 1.5H6A1.5 1.5 0 0 0 7.5 6V2.5A1.5 1.5 0 0 0 6 1H2.5Z" clip-rule="evenodd"/></symbol>
  <symbol id="icon-large" fill="none" viewBox="0 0 24 24"><path fill="currentColor" fill-rule="evenodd" d="M14.5 4a.5.5 0 0 0-.5.5v5a.5.5 0 0 0 .5.5h5a.5.5 0 0 0 .5-.5v-5a.5.5 0 0 0-.5-.5h-5Zm-1.5.5A1.5 1.5 0 0 1 14.5 3h5A1.5 1.5 0 0 1 21 4.5v5a1.5 1.5 0 0 1-1.5 1.5h-5A1.5 1.5 0 0 1 13 9.5v-5ZM4.5 13A1.5 1.5 0 0 0 3 14.5v5A1.5 1.5 0 0 0 4.5 21h5a1.5 1.5 0 0 0 1.5-1.5v-5A1.5 1.5 0 0 0 9.5 13h-5ZM4 14.5a.5.5 0 0 1 .5-.5h5a.5.5 0 0 1 .5.5v5a.5.5 0 0 1-.5.5h-5a.5.5 0 0 1-.5-.5v-5Zm10 0a.5.5 0 0 1 .5-.5h5a.5.5 0 0 1 .5.5v5a.5.5 0 0 1-.5.5h-5a.5.5 0 0 1-.5-.5v-5Zm.5-1.5a1.5 1.5 0 0 0-1.5 1.5v5a1.5 1.5 0 0 0 1.5 1.5h5a1.5 1.5 0 0 0 1.5-1.5v-5a1.5 1.5 0 0 0-1.5-1.5h-5ZM4 4.5a.5.5 0 0 1 .5-.5h5a.5.5 0 0 1 .5.5v5a.5.5 0 0 1-.5.5h-5a.5.5 0 0 1-.5-.5v-5ZM4.5 3A1.5 1.5 0 0 0 3 4.5v5A1.5 1.5 0 0 0 4.5 11h5A1.5 1.5 0 0 0 11 9.5v-5A1.5 1.5 0 0 0 9.5 3h-5Z" clip-rule="evenodd"/></symbol>
  <use href="#icon"/>
</svg>