<svg xmlns="http://www.w3.org/2000/svg">
  <symbol id="icon" fill="none" viewBox="0 0 16 16"><path fill="currentColor" fill-rule="evenodd" d="M11.543 2.501c-.903.032-2.062.681-3.11 2.49a.5.5 0 0 1-.866 0C6.52 3.183 5.36 2.534 4.457 2.502c-.89-.031-1.715.531-2.15 1.562-.862 2.037-.118 5.976 5.45 9.37a.484.484 0 0 0 .486 0c5.568-3.394 6.312-7.333 5.45-9.37-.435-1.03-1.26-1.593-2.15-1.562Zm3.072 1.172c1.133 2.683-.063 7.085-5.851 10.613a1.483 1.483 0 0 1-1.528 0C1.448 10.758.252 6.356 1.386 3.673c.561-1.329 1.718-2.22 3.107-2.171 1.209.043 2.45.793 3.507 2.308 1.058-1.515 2.299-2.265 3.507-2.308 1.39-.05 2.546.842 3.107 2.171Z" clip-rule="evenodd"/></symbol>
  <symbol id="icon-large" fill="none" viewBox="0 0 24 24"><path fill="currentColor" fill-rule="evenodd" d="M17.19 4.071c-1.437.042-3.2 1.043-4.76 3.683a.5.5 0 0 1-.86 0c-1.56-2.64-3.323-3.641-4.76-3.683-1.428-.04-2.711.86-3.366 2.419-1.299 3.092-.055 8.888 8.309 13.791a.51.51 0 0 0 .495 0c8.363-4.903 9.607-10.7 8.308-13.791-.655-1.559-1.938-2.46-3.365-2.419Zm4.288 2.032c1.577 3.755-.148 10.012-8.725 15.04a1.51 1.51 0 0 1-1.506 0C2.67 16.116.945 9.859 2.522 6.104c.783-1.865 2.4-3.086 4.316-3.031 1.745.05 3.59 1.153 5.162 3.49 1.572-2.337 3.417-3.44 5.162-3.49 1.917-.055 3.533 1.166 4.316 3.03Z" clip-rule="evenodd"/></symbol>
  <use href="#icon"/>
</svg>