<svg xmlns="http://www.w3.org/2000/svg">
  <symbol id="icon" fill="none" viewBox="0 0 16 16"><path fill="currentColor" fill-rule="evenodd" d="M8 2a6 6 0 1 0 0 12A6 6 0 0 0 8 2ZM1 8a7 7 0 1 1 14 0A7 7 0 0 1 1 8Zm7.75 3.5a.75.75 0 1 1-1.5 0 .75.75 0 0 1 1.5 0ZM6.5 6.25C6.5 5.56 7.135 5 8 5s1.5.559 1.5 1.25c0 .343-.172.63-.414.869a2.517 2.517 0 0 1-.61.434C8.092 7.745 7.5 8.29 7.5 9.4v.1a.5.5 0 0 0 1 0v-.1c0-.69.341-.912.424-.953.137-.069.515-.271.865-.616s.711-.874.711-1.581C10.5 4.841 9.235 4 8 4s-2.5.84-2.5 2.25a.5.5 0 0 0 1 0Z" clip-rule="evenodd"/></symbol>
  <symbol id="icon-large" fill="none" viewBox="0 0 24 24"><path fill="currentColor" fill-rule="evenodd" d="M12 3a9 9 0 1 0 0 18 9 9 0 0 0 0-18ZM2 12C2 6.477 6.477 2 12 2s10 4.477 10 10-4.477 10-10 10S2 17.523 2 12Zm10.75 4.75a.75.75 0 1 1-1.5 0 .75.75 0 0 1 1.5 0ZM9.5 9.5c0-.568.28-1.057.745-1.418A2.91 2.91 0 0 1 12 7.5a2.91 2.91 0 0 1 1.755.582c.465.361.745.85.745 1.418 0 .55-.304 1.01-.711 1.38a4.505 4.505 0 0 1-1.013.673C12.281 11.8 11.5 12.603 11.5 14v.5a.5.5 0 0 0 1 0V14c0-1.002.552-1.467.724-1.553l.002-.001a5.469 5.469 0 0 0 1.235-.826c.51-.463 1.039-1.17 1.039-2.12 0-.932-.47-1.693-1.13-2.207A3.91 3.91 0 0 0 12 6.5a3.91 3.91 0 0 0-2.37.793C8.97 7.807 8.5 8.568 8.5 9.5a.5.5 0 0 0 1 0Z" clip-rule="evenodd"/></symbol>
  <use href="#icon"/>
</svg>