<svg xmlns="http://www.w3.org/2000/svg">
  <symbol id="icon" fill="none" viewBox="0 0 16 16"><path fill="currentColor" fill-rule="evenodd" d="M3 2.205V2h-.5a.5.5 0 0 1 0-1h11a.5.5 0 0 1 0 1H13v.205c0 1.893-.582 3.914-2.2 5.136A7.52 7.52 0 0 1 9.778 8c.366.193.711.424 1.022.659 1.618 1.222 2.2 3.243 2.2 5.136V14h.5a.5.5 0 1 1 0 1H9.734L2.5 14.997a.5.5 0 1 1 0-1H3v-.203c0-1.893.582-3.914 2.2-5.136a7.52 7.52 0 0 1 1.022-.659A7.555 7.555 0 0 1 5.2 7.341C3.582 6.12 3 4.098 3 2.205ZM12 2H4v.205c0 .617.068 1.225.214 1.795h7.572c.146-.57.214-1.178.214-1.795V2ZM8 8.5h-.008c-.674.003-1.45.398-2.189.956-.816.617-1.328 1.52-1.59 2.544h7.573c-.261-1.024-.773-1.927-1.589-2.544-.74-.558-1.515-.953-2.189-.956H8Zm2.197-1.956c-.74.558-1.515.953-2.189.956h-.016c-.674-.003-1.45-.398-2.189-.956A4.126 4.126 0 0 1 4.571 5h6.858a4.127 4.127 0 0 1-1.232 1.544ZM12 14v-.205a7.93 7.93 0 0 0-.04-.795H4.04a7.94 7.94 0 0 0-.04.795v.203L9.736 14H12Z" clip-rule="evenodd"/></symbol>
  <symbol id="icon-large" fill="none" viewBox="0 0 24 24"><path fill="currentColor" fill-rule="evenodd" d="M5 3H3.5a.5.5 0 0 1 0-1h17a.5.5 0 0 1 0 1H19v3.976a1.5 1.5 0 0 1-.646 1.233L12.878 12l5.476 3.79A1.5 1.5 0 0 1 19 17.025V21h1.5a.5.5 0 0 1 0 1h-17a.5.5 0 0 1 0-1H5v-3.976a1.5 1.5 0 0 1 .646-1.233L11.122 12 5.646 8.21A1.5 1.5 0 0 1 5 6.975V3Zm1 0v4h12V3H6Zm1.1 5h9.8l-4.615 3.195a.5.5 0 0 1-.57 0L7.101 8Zm5.185 4.805a.5.5 0 0 0-.57 0l-5.5 3.808a.5.5 0 0 0-.215.411V18h12v-.976a.5.5 0 0 0-.215-.411l-5.5-3.808ZM6 21v-2h12v2H6Z" clip-rule="evenodd"/></symbol>
  <use href="#icon"/>
</svg>