<svg xmlns="http://www.w3.org/2000/svg">
  <symbol id="icon" fill="none" viewBox="0 0 16 16"><path fill="currentColor" fill-rule="evenodd" d="M2 3.5a.5.5 0 0 1 .5-.5h11a.5.5 0 0 1 .5.5v8.615L11.895 9.58a1.5 1.5 0 0 0-2.28-.034l-.64.726-2.2-2.658a1.5 1.5 0 0 0-2.313.003L2 10.607V3.5Zm13 9c0 .23-.052.45-.145.645l.03.036-.087.072A1.5 1.5 0 0 1 13.5 14h-11A1.5 1.5 0 0 1 1 12.5v-9A1.5 1.5 0 0 1 2.5 2h11A1.5 1.5 0 0 1 15 3.5v9Zm-3.875-2.281L13.435 13h-2.2l-1.614-1.949.745-.844a.5.5 0 0 1 .76.011ZM2 12.178v.321a.5.5 0 0 0 .5.5h7.437L6.005 8.252a.5.5 0 0 0-.771 0L2 12.18ZM10 6a1 1 0 1 1 2 0 1 1 0 0 1-2 0Zm1-2a2 2 0 1 0 0 4 2 2 0 0 0 0-4Z" clip-rule="evenodd"/></symbol>
  <symbol id="icon-large" fill="none" viewBox="0 0 24 24"><path fill="currentColor" fill-rule="evenodd" d="M3 5.5a.5.5 0 0 1 .5-.5h17a.5.5 0 0 1 .5.5v9.293l-2.44-2.44a1.5 1.5 0 0 0-2.12 0l-1.69 1.69-4.19-4.19a1.5 1.5 0 0 0-2.12 0L3 15.294V5.5Zm14.854 7.56L21 16.208V18.5a.5.5 0 0 1-.5.5h-.793l-4.25-4.25 1.69-1.69a.5.5 0 0 1 .707 0ZM3 16.708V18.5a.5.5 0 0 0 .5.5h14.793l-8.44-8.44a.5.5 0 0 0-.707 0L3 16.708ZM3.5 4A1.5 1.5 0 0 0 2 5.5v13A1.5 1.5 0 0 0 3.5 20h17a1.5 1.5 0 0 0 1.5-1.5v-13A1.5 1.5 0 0 0 20.5 4h-17ZM17 9a1 1 0 1 1-2 0 1 1 0 0 1 2 0Zm1 0a2 2 0 1 1-4 0 2 2 0 0 1 4 0Z" clip-rule="evenodd"/></symbol>
  <use href="#icon"/>
</svg>