<svg xmlns="http://www.w3.org/2000/svg">
  <symbol id="icon" fill="none" viewBox="0 0 16 16"><path fill="currentColor" fill-rule="evenodd" d="M8 2a6 6 0 1 0 0 12A6 6 0 0 0 8 2ZM1 8a7 7 0 1 1 14 0A7 7 0 0 1 1 8Zm5.5-1.5a.5.5 0 0 0 0 1h1v3h-1a.5.5 0 1 0 0 1h3a.5.5 0 0 0 0-1h-1V7a.5.5 0 0 0-.5-.5H6.5Zm1.375-1a.625.625 0 1 0 0-1.25.625.625 0 0 0 0 1.25Z" clip-rule="evenodd"/></symbol>
  <symbol id="icon-large" fill="none" viewBox="0 0 24 24"><path fill="currentColor" fill-rule="evenodd" d="M12 3a9 9 0 1 0 0 18 9 9 0 0 0 0-18ZM2 12C2 6.477 6.477 2 12 2s10 4.477 10 10-4.477 10-10 10S2 17.523 2 12Zm8.5-2a.5.5 0 0 0 0 1h1v5h-1a.5.5 0 0 0 0 1h3a.5.5 0 0 0 0-1h-1v-5.5a.5.5 0 0 0-.5-.5h-1.5ZM12 8a.75.75 0 1 0 0-1.5.75.75 0 0 0 0 1.5Z" clip-rule="evenodd"/></symbol>
  <use href="#icon"/>
</svg>