<svg xmlns="http://www.w3.org/2000/svg">
  <symbol id="icon" fill="none" viewBox="0 0 16 16"><path fill="currentColor" fill-rule="evenodd" d="M8.24 1.06a.5.5 0 0 0-.474 0l-6.503 3.5a.5.5 0 0 0 0 .88l6.503 3.5a.5.5 0 0 0 .474 0l6.497-3.5a.5.5 0 0 0 0-.88L8.24 1.06Zm-.238 6.872L2.555 5l5.447-2.932L13.446 5 8.002 7.932ZM1.06 7.763a.5.5 0 0 1 .677-.203l1.126.606a.5.5 0 1 1-.474.88L1.263 8.44a.5.5 0 0 1-.203-.677Zm13.88 0a.5.5 0 0 1-.203.677l-1.125.606a.5.5 0 1 1-.474-.88l1.125-.606a.5.5 0 0 1 .677.203ZM4.06 9.378a.5.5 0 0 1 .678-.203l1 .538a.5.5 0 0 1-.474.88l-1-.538a.5.5 0 0 1-.203-.677Zm7.882 0a.5.5 0 0 1-.203.677l-1 .539a.5.5 0 0 1-.474-.88l1-.539a.5.5 0 0 1 .677.203ZM7.06 10.993a.5.5 0 0 1 .677-.203l.264.142.264-.142a.5.5 0 0 1 .474.88l-.5.27a.5.5 0 0 1-.474 0l-.502-.27a.5.5 0 0 1-.203-.677Zm-6.001-.23a.5.5 0 0 1 .677-.203l1.126.606a.5.5 0 0 1-.474.88l-1.126-.606a.5.5 0 0 1-.203-.677Zm13.88 0a.5.5 0 0 1-.203.677l-1.125.606a.5.5 0 0 1-.474-.88l1.125-.606a.5.5 0 0 1 .677.203ZM4.06 12.378a.5.5 0 0 1 .678-.203l1 .538a.5.5 0 0 1-.474.88l-1-.538a.5.5 0 0 1-.203-.677Zm7.882 0a.5.5 0 0 1-.203.677l-1 .539a.5.5 0 0 1-.474-.88l1-.539a.5.5 0 0 1 .677.203ZM7.06 13.993a.5.5 0 0 1 .677-.203l.264.142.264-.142a.5.5 0 0 1 .474.88l-.5.27a.5.5 0 0 1-.474 0l-.502-.27a.5.5 0 0 1-.203-.677Z" clip-rule="evenodd"/></symbol>
  <symbol id="icon-large" fill="none" viewBox="0 0 24 24"><path fill="currentColor" fill-rule="evenodd" d="M12.253 2.569a.5.5 0 0 0-.507 0l-8.5 5a.5.5 0 0 0 0 .862l8.5 5a.5.5 0 0 0 .507 0l8.5-5a.5.5 0 0 0 0-.862l-8.5-5ZM12 12.419 4.486 8 12 3.58 19.514 8 12 12.42Zm-8.931-.673a.5.5 0 0 1 .684-.177l.532.313.531.312.531.313a.5.5 0 0 1-.507.861l-.531-.312-.531-.313-.532-.312a.5.5 0 0 1-.177-.684Zm17.862 0a.5.5 0 0 1-.178.685l-.53.313-.532.312-.531.313a.5.5 0 0 1-.507-.862l.53-.313.532-.313.531-.312a.5.5 0 0 1 .685.177ZM6.788 13.934a.5.5 0 0 1 .684-.177l.531.312.532.313.531.312a.5.5 0 0 1-.507.862l-.531-.313-.532-.312-.53-.313a.5.5 0 0 1-.178-.684Zm10.424 0a.5.5 0 0 1-.177.684l-.532.313-.53.313-.532.312a.5.5 0 0 1-.507-.862l.531-.313.531-.312.532-.313a.5.5 0 0 1 .684.178Zm-6.705 2.188a.5.5 0 0 1 .684-.178l.531.312.278.164.278-.164.53-.312a.5.5 0 0 1 .508.862l-.531.313-.531.312a.5.5 0 0 1-.508 0l-.53-.313-.532-.312a.5.5 0 0 1-.177-.684Zm-7.438-.376a.5.5 0 0 1 .684-.177l.532.313.531.312.531.313a.5.5 0 0 1-.507.861l-.531-.312-.531-.313-.532-.312a.5.5 0 0 1-.177-.685Zm17.862 0a.5.5 0 0 1-.178.685l-.53.313-.532.312-.531.313a.5.5 0 0 1-.507-.863l.53-.312.532-.312.531-.313a.5.5 0 0 1 .685.177ZM6.788 17.934a.5.5 0 0 1 .684-.178l.531.313.532.313.531.312a.5.5 0 0 1-.507.862l-.531-.313-.532-.312-.53-.313a.5.5 0 0 1-.178-.684Zm10.424 0a.5.5 0 0 1-.177.684l-.532.313-.53.313-.532.312a.5.5 0 0 1-.507-.862l.531-.313.531-.312.532-.313a.5.5 0 0 1 .684.178Zm-6.705 2.188a.5.5 0 0 1 .684-.178l.531.313.278.163.278-.164.53-.312a.5.5 0 0 1 .508.862l-.531.313-.531.312a.5.5 0 0 1-.508 0l-.53-.313-.532-.312a.5.5 0 0 1-.177-.684Z" clip-rule="evenodd"/></symbol>
  <use href="#icon"/>
</svg>