<svg xmlns="http://www.w3.org/2000/svg">
  <symbol id="icon" fill="none" viewBox="0 0 16 16"><path fill="currentColor" fill-rule="evenodd" d="M11.5 4h-.035a3.501 3.501 0 0 0-6.93 0 1.5 1.5 0 0 0-1.437 1.13l-.82-.546a.5.5 0 0 0-.555.832l1.33.886V8.5H1.5a.5.5 0 0 0 0 1h1.552v.527c0 .656.127 1.282.358 1.856l-1.264 1.263a.5.5 0 0 0 .708.707L3.9 12.806a4.969 4.969 0 0 0 4.125 2.195 4.968 4.968 0 0 0 4.104-2.164l1.016 1.017a.5.5 0 0 0 .708-.708l-1.227-1.226c.24-.584.373-1.223.373-1.893V9.52l1.507-.02a.5.5 0 0 0-.014-1L13 8.52V6.267l1.277-.851a.5.5 0 0 0-.554-.832l-.777.517A1.5 1.5 0 0 0 11.5 4ZM8 2a2.5 2.5 0 0 1 2.45 2h-4.9A2.5 2.5 0 0 1 8 2ZM4.552 5a.5.5 0 0 0-.5.5v4.527a3.975 3.975 0 0 0 3.448 3.94V8.5a.5.5 0 1 1 1 0v5.473a3.975 3.975 0 0 0 3.5-3.946V5.5a.5.5 0 0 0-.5-.5H4.552Z" clip-rule="evenodd"/></symbol>
  <symbol id="icon-large" fill="none" viewBox="0 0 24 24"><path fill="currentColor" fill-rule="evenodd" d="M12 3a4 4 0 0 0-4 4h8a4 4 0 0 0-4-4Zm0-1a5 5 0 0 0-5 5h-.5a1.5 1.5 0 0 0-1.482 1.269l-1.832-.733a.5.5 0 0 0-.372.928L5 9.34V13H2.5a.5.5 0 0 0 0 1H5v1c0 .971.198 1.897.555 2.737l-1.909 1.91a.5.5 0 0 0 .708.707l1.684-1.685A6.996 6.996 0 0 0 12 22c2.52 0 4.73-1.332 5.962-3.33l1.684 1.684a.5.5 0 0 0 .708-.708l-1.91-1.909c.358-.84.556-1.766.556-2.737v-1h2.5a.5.5 0 0 0 0-1H19V9.339l2.186-.875a.5.5 0 1 0-.372-.928l-1.832.733A1.5 1.5 0 0 0 17.5 7H17a5 5 0 0 0-5-5ZM6 8.5a.5.5 0 0 1 .5-.5h11a.5.5 0 0 1 .5.5V15a6 6 0 0 1-5.5 5.98V12.5a.5.5 0 0 0-1 0v8.48A6 6 0 0 1 6 15V8.5Z" clip-rule="evenodd"/></symbol>
  <use href="#icon"/>
</svg>