<svg xmlns="http://www.w3.org/2000/svg">
  <symbol id="icon" fill="none" viewBox="0 0 16 16"><path fill="currentColor" fill-rule="evenodd" d="M8 1c-.372 0-.738.03-1.095.085a.5.5 0 0 0 .155.988 6 6 0 1 1 0 11.854.5.5 0 0 0-.155.988A7 7 0 1 0 8 1ZM4.473 3.145a.5.5 0 0 0-.588-.808 7.037 7.037 0 0 0-1.548 1.548.5.5 0 0 0 .808.588c.37-.509.82-.957 1.328-1.328Zm-2.4 3.915a.5.5 0 0 0-.988-.155 7.05 7.05 0 0 0 0 2.19.5.5 0 0 0 .988-.155 6.049 6.049 0 0 1 0-1.88Zm1.072 4.467a.5.5 0 0 0-.808.588 7.036 7.036 0 0 0 1.548 1.548.5.5 0 1 0 .588-.808 6.035 6.035 0 0 1-1.328-1.328ZM8.75 11a.75.75 0 1 1-1.5 0 .75.75 0 0 1 1.5 0ZM8.5 4.5a.5.5 0 0 0-1 0v4a.5.5 0 0 0 1 0v-4Z" clip-rule="evenodd"/></symbol>
  <symbol id="icon-large" fill="none" viewBox="0 0 24 24"><path fill="currentColor" fill-rule="evenodd" d="M12 2c-.353 0-.701.018-1.045.054a.5.5 0 1 0 .103.995 9 9 0 1 1 0 17.903.5.5 0 1 0-.103.994c.344.036.692.054 1.045.054 5.523 0 10-4.477 10-10S17.523 2 12 2ZM8.339 3.776a.5.5 0 1 0-.408-.913 9.99 9.99 0 0 0-1.81 1.046.5.5 0 0 0 .589.809 8.99 8.99 0 0 1 1.629-.942ZM4.718 6.71a.5.5 0 0 0-.809-.588 9.99 9.99 0 0 0-1.046 1.81.5.5 0 0 0 .913.407 8.99 8.99 0 0 1 .942-1.63Zm-1.67 4.348a.5.5 0 1 0-.994-.103 10.11 10.11 0 0 0 0 2.09.5.5 0 1 0 .995-.103 9.108 9.108 0 0 1 0-1.884Zm.728 4.603a.5.5 0 1 0-.913.408 9.994 9.994 0 0 0 1.046 1.81.5.5 0 0 0 .809-.589 8.992 8.992 0 0 1-.942-1.629Zm2.934 3.621a.5.5 0 0 0-.588.808 9.99 9.99 0 0 0 1.81 1.047.5.5 0 0 0 .407-.913 8.984 8.984 0 0 1-1.63-.942Zm6.04-2.532a.75.75 0 1 1-1.5 0 .75.75 0 0 1 1.5 0ZM12.5 7a.5.5 0 0 0-1 0v6.5a.5.5 0 0 0 1 0V7Z" clip-rule="evenodd"/></symbol>
  <use href="#icon"/>
</svg>