<svg xmlns="http://www.w3.org/2000/svg">
  <symbol id="icon" fill="none" viewBox="0 0 16 16"><path fill="currentColor" fill-rule="evenodd" d="M6.5 5.75a3.75 3.75 0 1 1 2.137 3.386.5.5 0 0 0-.569.097L6.294 11H5a.5.5 0 0 0-.5.5v1.293L3.293 14H2v-1.293L6.77 7.94a.5.5 0 0 0 .097-.57A3.717 3.717 0 0 1 6.5 5.75ZM10.25 1a4.75 4.75 0 0 0-4.428 6.473l-4.675 4.673A.5.5 0 0 0 1 12.5v2a.5.5 0 0 0 .5.5h2a.5.5 0 0 0 .354-.146l1.5-1.5A.5.5 0 0 0 5.5 13v-1h1a.5.5 0 0 0 .353-.146l1.681-1.673A4.75 4.75 0 1 0 10.25 1ZM9.5 5.75a.75.75 0 1 1 1.5 0 .75.75 0 0 1-1.5 0ZM10.25 4a1.75 1.75 0 1 0 0 3.5 1.75 1.75 0 0 0 0-3.5Z" clip-rule="evenodd"/></symbol>
  <symbol id="icon-large" fill="none" viewBox="0 0 24 24"><path fill="currentColor" fill-rule="evenodd" d="M10 9a5 5 0 1 1 3.1 4.627.5.5 0 0 0-.543.109L10.293 16H8.5a.5.5 0 0 0-.5.5v1.793L6.293 20H4v-2.293l6.264-6.264a.5.5 0 0 0 .11-.543A4.983 4.983 0 0 1 10 9Zm5-6a6 6 0 0 0-5.671 7.964l-6.183 6.182A.5.5 0 0 0 3 17.5v3a.5.5 0 0 0 .5.5h3a.5.5 0 0 0 .354-.146l2-2A.5.5 0 0 0 9 18.5V17h1.5a.5.5 0 0 0 .354-.146l2.182-2.183A6 6 0 1 0 15 3Zm-1 6a1 1 0 1 1 2 0 1 1 0 0 1-2 0Zm1-2a2 2 0 1 0 0 4 2 2 0 0 0 0-4Z" clip-rule="evenodd"/></symbol>
  <use href="#icon"/>
</svg>