<svg xmlns="http://www.w3.org/2000/svg">
  <symbol id="icon" fill="none" viewBox="0 0 16 16"><path fill="currentColor" fill-rule="evenodd" d="M1.999 4.5a.5.5 0 0 1 .5-.5H13.5a.5.5 0 0 1 .5.5v7a.5.5 0 0 1-.5.5h-11a.5.5 0 0 1-.5-.5l-.001-7Zm.5-1.5a1.5 1.5 0 0 0-1.5 1.5v7A1.5 1.5 0 0 0 2.5 13h11a1.5 1.5 0 0 0 1.5-1.5v-7A1.5 1.5 0 0 0 13.5 3h-11ZM3.5 5a.5.5 0 0 0 0 1H5a.5.5 0 0 0 0-1H3.5Zm3.75 0a.5.5 0 0 0 0 1h1.5a.5.5 0 0 0 0-1h-1.5ZM11 5a.5.5 0 0 0 0 1h1.5a.5.5 0 1 0 0-1H11ZM3.5 7.5a.5.5 0 0 0 0 1H5a.5.5 0 0 0 0-1H3.5Zm3.75 0a.5.5 0 0 0 0 1h1.5a.5.5 0 0 0 0-1h-1.5Zm3.75 0a.5.5 0 0 0 0 1h1.5a.5.5 0 1 0 0-1H11ZM5.5 10a.5.5 0 0 0 0 1h5a.5.5 0 1 0 0-1h-5Z" clip-rule="evenodd"/></symbol>
  <symbol id="icon-large" fill="none" viewBox="0 0 24 24"><path fill="currentColor" fill-rule="evenodd" d="M3 6.5a.5.5 0 0 1 .5-.5h17a.5.5 0 0 1 .5.5v11a.5.5 0 0 1-.5.5h-17a.5.5 0 0 1-.5-.5v-11ZM3.5 5A1.5 1.5 0 0 0 2 6.5v11A1.5 1.5 0 0 0 3.5 19h17a1.5 1.5 0 0 0 1.5-1.5v-11A1.5 1.5 0 0 0 20.5 5h-17Zm2 3.5a.5.5 0 0 0 0 1h1a.5.5 0 0 0 0-1h-1Zm3 0a.5.5 0 0 0 0 1h1a.5.5 0 0 0 0-1h-1Zm3 0a.5.5 0 0 0 0 1h1a.5.5 0 0 0 0-1h-1Zm3 0a.5.5 0 0 0 0 1h1a.5.5 0 0 0 0-1h-1Zm3 0a.5.5 0 0 0 0 1h1a.5.5 0 0 0 0-1h-1Zm-12 3a.5.5 0 0 0 0 1h1a.5.5 0 0 0 0-1h-1Zm3 0a.5.5 0 0 0 0 1h1a.5.5 0 0 0 0-1h-1Zm3 0a.5.5 0 0 0 0 1h1a.5.5 0 0 0 0-1h-1Zm3 0a.5.5 0 0 0 0 1h1a.5.5 0 0 0 0-1h-1Zm3 0a.5.5 0 0 0 0 1h1a.5.5 0 0 0 0-1h-1Zm-12 3a.5.5 0 0 0 0 1h1a.5.5 0 0 0 0-1h-1Zm3.5 0a.5.5 0 0 0 0 1h6a.5.5 0 0 0 0-1H9Zm8.5 0a.5.5 0 0 0 0 1h1a.5.5 0 0 0 0-1h-1Z" clip-rule="evenodd"/></symbol>
  <use href="#icon"/>
</svg>