<svg xmlns="http://www.w3.org/2000/svg">
  <symbol id="icon" fill="none" viewBox="0 0 16 16"><path fill="currentColor" fill-rule="evenodd" d="M2.5 3a.5.5 0 0 0-.5.5v9a.5.5 0 0 0 .5.5h8v-2A1.5 1.5 0 0 1 12 9.5h2.004v-6a.5.5 0 0 0-.5-.5H2.5Zm10.796 7.5L11.5 12.294V11a.5.5 0 0 1 .5-.5h1.296ZM1 3.5A1.5 1.5 0 0 1 2.5 2h11.004a1.5 1.5 0 0 1 1.5 1.5v6.085a1.5 1.5 0 0 1-.44 1.062l-2.918 2.914a1.5 1.5 0 0 1-1.06.439H2.5A1.5 1.5 0 0 1 1 12.5v-9ZM4.5 5a.5.5 0 1 0 0 1h7a.5.5 0 0 0 0-1h-7ZM4 8a.5.5 0 0 1 .5-.5h7a.5.5 0 0 1 0 1h-7A.5.5 0 0 1 4 8Zm.5 2a.5.5 0 0 0 0 1h3a.5.5 0 1 0 0-1h-3Z" clip-rule="evenodd"/></symbol>
  <symbol id="icon-large" fill="none" viewBox="0 0 24 24"><path fill="currentColor" fill-rule="evenodd" d="M3.5 5a.5.5 0 0 0-.5.5v13a.5.5 0 0 0 .5.5H16v-3.5a1.5 1.5 0 0 1 1.5-1.5H21V5.5a.5.5 0 0 0-.5-.5h-17Zm16.793 10L17 18.293V15.5a.5.5 0 0 1 .5-.5h2.793ZM2 5.5A1.5 1.5 0 0 1 3.5 4h17A1.5 1.5 0 0 1 22 5.5v8.586a1.5 1.5 0 0 1-.44 1.06l-4.414 4.415a1.5 1.5 0 0 1-1.06.439H3.5A1.5 1.5 0 0 1 2 18.5v-13ZM6.5 8a.5.5 0 0 0 0 1h11a.5.5 0 0 0 0-1h-11ZM6 12a.5.5 0 0 1 .5-.5h11a.5.5 0 0 1 0 1h-11A.5.5 0 0 1 6 12Zm.5 3a.5.5 0 0 0 0 1h5a.5.5 0 0 0 0-1h-5Z" clip-rule="evenodd"/></symbol>
  <use href="#icon"/>
</svg>