<svg xmlns="http://www.w3.org/2000/svg">
  <symbol id="icon" fill="none" viewBox="0 0 16 16"><path fill="currentColor" fill-rule="evenodd" d="M7.766 1.06a.5.5 0 0 1 .474 0l6.497 3.5a.5.5 0 0 1 0 .88L8.24 8.94a.5.5 0 0 1-.474 0l-6.503-3.5a.5.5 0 0 1 0-.88l6.503-3.5ZM2.556 5l5.446 2.932L13.446 5 8.002 2.068 2.555 5ZM1.06 7.763a.5.5 0 0 1 .677-.203l6.265 3.372 6.261-3.372a.5.5 0 0 1 .474.88l-6.497 3.5a.5.5 0 0 1-.474 0l-6.503-3.5a.5.5 0 0 1-.203-.677Zm.677 2.797a.5.5 0 0 0-.474.88l6.503 3.5a.5.5 0 0 0 .474 0l6.497-3.5a.5.5 0 0 0-.474-.88l-6.26 3.372-6.266-3.372Z" clip-rule="evenodd"/></symbol>
  <symbol id="icon-large" fill="none" viewBox="0 0 24 24"><path fill="currentColor" fill-rule="evenodd" d="M12.254 2.569a.5.5 0 0 0-.507 0l-8.5 5a.5.5 0 0 0 0 .862l8.5 5a.5.5 0 0 0 .507 0l8.5-5a.5.5 0 0 0 0-.862l-8.5-5ZM12 12.419 4.486 8 12 3.58 19.514 8 12 12.42Zm-8.93-.672a.5.5 0 0 1 .684-.178L12 16.42l8.247-4.85a.5.5 0 1 1 .507.861l-8.5 5a.5.5 0 0 1-.507 0l-8.5-5a.5.5 0 0 1-.178-.684Zm0 4a.5.5 0 0 1 .684-.178L12 20.419l8.247-4.85a.5.5 0 0 1 .507.862l-8.5 5a.5.5 0 0 1-.507 0l-8.5-5a.5.5 0 0 1-.178-.685Z" clip-rule="evenodd"/></symbol>
  <use href="#icon"/>
</svg>