<svg xmlns="http://www.w3.org/2000/svg">
  <symbol id="icon" fill="none" viewBox="0 0 16 16"><path fill="currentColor" fill-rule="evenodd" d="M4 6a4 4 0 1 1 6.343 3.242H5.657A3.994 3.994 0 0 1 4 6Zm4-5a5 5 0 0 0-3 9v1.5A1.5 1.5 0 0 0 6.5 13h3a1.5 1.5 0 0 0 1.5-1.5V10a5 5 0 0 0-3-9Zm2 9.242H6V11.5a.5.5 0 0 0 .5.5h3a.5.5 0 0 0 .5-.5v-1.258ZM6 14.5a.5.5 0 0 1 .5-.5h3a.5.5 0 0 1 0 1h-3a.5.5 0 0 1-.5-.5Z" clip-rule="evenodd"/></symbol>
  <symbol id="icon-large" fill="none" viewBox="0 0 24 24"><path fill="currentColor" fill-rule="evenodd" d="M5 9.5C5 5.678 8.087 3 12 3c3.912 0 7 2.678 7 6.5 0 2.647-1.474 4.498-3.734 5.693a.5.5 0 0 0-.266.442v.865a.5.5 0 0 1-.5.5h-2v-5.016a10.31 10.31 0 0 0 1.085-.13.5.5 0 0 0-.17-.986A8.5 8.5 0 0 1 12 11a8.5 8.5 0 0 1-1.415-.132.5.5 0 1 0-.17.986c.334.057.703.106 1.085.13V17h-2a.5.5 0 0 1-.5-.5v-.865a.5.5 0 0 0-.266-.442C6.474 13.998 5 12.147 5 9.5Zm7 8.5H9.5A1.5 1.5 0 0 1 8 16.5v-.569c-2.356-1.33-4-3.433-4-6.431C4 5.037 7.628 2 12 2s8 3.037 8 7.5c0 2.998-1.644 5.101-4 6.431v.569a1.5 1.5 0 0 1-1.5 1.5H12Zm-2.918.757h.003l.012.002.047.008.185.027c.16.023.388.053.664.084.552.061 1.282.122 2.007.122.725 0 1.455-.06 2.007-.122a21.754 21.754 0 0 0 .849-.111l.047-.008.012-.002h.002a.5.5 0 1 1 .165.986L15 19.25l.082.493h-.002l-.003.001-.015.002-.053.009-.196.029a22.48 22.48 0 0 1-.695.088c-.573.064-1.343.128-2.118.128-.775 0-1.545-.064-2.118-.128a22.46 22.46 0 0 1-.891-.117l-.053-.009-.015-.002h-.005L9 19.25l-.082.493a.5.5 0 0 1 .164-.986Zm.43 2.4a.5.5 0 0 1 .594-.382c.536.116 1.22.225 1.894.225.674 0 1.358-.109 1.894-.225a.5.5 0 1 1 .212.977C13.532 21.877 12.77 22 12 22a10.17 10.17 0 0 1-2.106-.248.5.5 0 0 1-.383-.594Z" clip-rule="evenodd"/></symbol>
  <use href="#icon"/>
</svg>