<svg xmlns="http://www.w3.org/2000/svg">
  <symbol id="icon" fill="none" viewBox="0 0 16 16"><path fill="currentColor" fill-rule="evenodd" d="M8.104 3.103a3.39 3.39 0 0 1 4.793 4.793l-.75.75a.5.5 0 1 0 .707.707l.75-.75a4.39 4.39 0 0 0-6.207-6.207l-.75.75a.5.5 0 1 0 .707.707l.75-.75Zm2.75 2.043a.5.5 0 0 1 0 .707l-5 5a.5.5 0 1 1-.708-.707l5-5a.5.5 0 0 1 .708 0Zm-7 1.5a.5.5 0 0 1 0 .707l-.75.75a3.39 3.39 0 1 0 4.792 4.793l.75-.75a.5.5 0 0 1 .708.707l-.75.75a4.389 4.389 0 1 1-6.208-6.207l.75-.75a.5.5 0 0 1 .708 0Z" clip-rule="evenodd"/></symbol>
  <symbol id="icon-large" fill="none" viewBox="0 0 24 24"><path fill="currentColor" fill-rule="evenodd" d="M12.354 5.354a4.45 4.45 0 1 1 6.292 6.292l-1.5 1.5a.5.5 0 0 0 .707.708l1.5-1.5a5.45 5.45 0 1 0-7.707-7.708l-1.5 1.5a.5.5 0 0 0 .707.708l1.5-1.5Zm2.5 3.792a.5.5 0 0 1 0 .708l-5 5a.5.5 0 1 1-.708-.707l5-5a.5.5 0 0 1 .707 0Zm-8 1a.5.5 0 0 1 0 .708l-1.5 1.5a4.45 4.45 0 0 0 6.292 6.293l1.5-1.5a.5.5 0 1 1 .707.707l-1.5 1.5a5.45 5.45 0 1 1-7.707-7.707l1.5-1.5a.5.5 0 0 1 .708 0Z" clip-rule="evenodd"/></symbol>
  <use href="#icon"/>
</svg>