<svg xmlns="http://www.w3.org/2000/svg">
  <symbol id="icon" fill="none" viewBox="0 0 16 16"><path fill="currentColor" fill-rule="evenodd" d="M9.354.146a.5.5 0 1 0-.708.708L9.793 2H2.5A1.5 1.5 0 0 0 1 3.5v9A1.5 1.5 0 0 0 2.5 14h1v-1h-1a.5.5 0 0 1-.5-.5v-9a.5.5 0 0 1 .5-.5h7.293L8.646 4.146a.5.5 0 1 0 .708.708l2-2a.5.5 0 0 0 0-.708l-2-2ZM13.5 3h-1V2h1A1.5 1.5 0 0 1 15 3.5v9a1.5 1.5 0 0 1-1.5 1.5H6.207l1.147 1.146a.5.5 0 0 1-.708.708l-2-2a.5.5 0 0 1 0-.708l2-2a.5.5 0 0 1 .708.708L6.207 13H13.5a.5.5 0 0 0 .5-.5v-9a.5.5 0 0 0-.5-.5Z" clip-rule="evenodd"/></symbol>
  <symbol id="icon-large" fill="none" viewBox="0 0 24 24"><path fill="currentColor" fill-rule="evenodd" d="M12.854 1.146a.5.5 0 0 0-.708.708L14.293 4H3.5A1.5 1.5 0 0 0 2 5.5v13A1.5 1.5 0 0 0 3.5 20H6v-1H3.5a.5.5 0 0 1-.5-.5v-13a.5.5 0 0 1 .5-.5h10.793l-2.147 2.146a.5.5 0 0 0 .708.708l3-3a.5.5 0 0 0 0-.708l-3-3ZM20.5 5H18V4h2.5A1.5 1.5 0 0 1 22 5.5v13a1.5 1.5 0 0 1-1.5 1.5H9.707l2.147 2.146a.5.5 0 0 1-.708.708l-3-3a.5.5 0 0 1 0-.708l3-3a.5.5 0 0 1 .708.708L9.707 19H20.5a.5.5 0 0 0 .5-.5v-13a.5.5 0 0 0-.5-.5Z" clip-rule="evenodd"/></symbol>
  <use href="#icon"/>
</svg>