<svg xmlns="http://www.w3.org/2000/svg">
  <symbol id="icon" fill="none" viewBox="0 0 16 16"><path fill="currentColor" fill-rule="evenodd" d="M6 1a1 1 0 0 0-1 1v1H2.5A1.5 1.5 0 0 0 1 4.5v8A1.5 1.5 0 0 0 2.5 14h11a1.5 1.5 0 0 0 1.5-1.5v-8A1.5 1.5 0 0 0 13.5 3H11V2a1 1 0 0 0-1-1H6Zm4 2V2H6v1h4ZM6 4h4v9H6V4ZM5 4H2.5a.5.5 0 0 0-.5.5v8a.5.5 0 0 0 .5.5H5V4Zm6 9V4h2.5a.5.5 0 0 1 .5.5v8a.5.5 0 0 1-.5.5H11Z" clip-rule="evenodd"/></symbol>
  <symbol id="icon-large" fill="none" viewBox="0 0 24 24"><path fill="currentColor" fill-rule="evenodd" d="M9 4.5a.5.5 0 0 1 .5-.5h5a.5.5 0 0 1 .5.5V6H9V4.5ZM8 6V4.5A1.5 1.5 0 0 1 9.5 3h5A1.5 1.5 0 0 1 16 4.5V6h4.5A1.5 1.5 0 0 1 22 7.5v11a1.5 1.5 0 0 1-1.5 1.5h-17A1.5 1.5 0 0 1 2 18.5v-11A1.5 1.5 0 0 1 3.5 6H8Zm7 1H9v12h6V7Zm1 12V7h4.5a.5.5 0 0 1 .5.5v11a.5.5 0 0 1-.5.5H16Zm-8 0H3.5a.5.5 0 0 1-.5-.5v-11a.5.5 0 0 1 .5-.5H8v12Z" clip-rule="evenodd"/></symbol>
  <use href="#icon"/>
</svg>