<svg xmlns="http://www.w3.org/2000/svg">
  <symbol id="icon" fill="none" viewBox="0 0 16 16"><path fill="currentColor" fill-rule="evenodd" d="M5.967 1.618a1.5 1.5 0 0 0-.958.032L1.973 2.79A1.5 1.5 0 0 0 1 4.193v8.364a1.5 1.5 0 0 0 2.027 1.405l2.334-.875a.5.5 0 0 1 .319-.011l4.354 1.306a1.5 1.5 0 0 0 .958-.032l3.036-1.138a1.5 1.5 0 0 0 .973-1.405V3.393a1.5 1.5 0 0 0-2.05-1.395l-2.311.91a.5.5 0 0 1-.327.014L5.967 1.618ZM5 2.722 2.324 3.725A.5.5 0 0 0 2 4.193v8.364a.5.5 0 0 0 .676.468L5 12.154V2.722Zm1 9.406 4 1.2V3.872l-4-1.2v9.456Zm5-8.287v9.438l2.677-1.004a.5.5 0 0 0 .324-.468V3.393a.5.5 0 0 0-.683-.465l-2.312.91-.006.003Z" clip-rule="evenodd"/></symbol>
  <symbol id="icon-large" fill="none" viewBox="0 0 24 24"><path fill="currentColor" fill-rule="evenodd" d="M8.935 3.604a1.5 1.5 0 0 0-.887.02L3.026 5.297A1.5 1.5 0 0 0 2 6.72v11.891a1.5 1.5 0 0 0 1.974 1.424l4.39-1.464a.5.5 0 0 1 .296-.006l6.405 1.83c.29.083.6.076.887-.02l5.022-1.674A1.5 1.5 0 0 0 22 17.28V5.387a1.5 1.5 0 0 0-1.974-1.423l-4.39 1.464a.5.5 0 0 1-.296.006l-6.405-1.83ZM8 4.694 3.342 6.246A.5.5 0 0 0 3 6.721v11.891a.5.5 0 0 0 .658.475L8 17.64V4.694Zm1 12.929 6 1.714V6.377L9 4.663v12.96ZM16 6.36v12.946l4.658-1.553A.5.5 0 0 0 21 17.28V5.387a.5.5 0 0 0-.658-.474L16 6.36Z" clip-rule="evenodd"/></symbol>
  <use href="#icon"/>
</svg>