<svg xmlns="http://www.w3.org/2000/svg">
  <symbol id="icon" fill="none" viewBox="0 0 16 16"><path fill="currentColor" fill-rule="evenodd" d="M5.009 1.65a1.5 1.5 0 0 1 .958-.032l4.346 1.304a.5.5 0 0 0 .327-.014l2.311-.91a1.5 1.5 0 0 1 2.05 1.396V8h-1V3.394a.5.5 0 0 0-.683-.466l-2.312.91-.006.003V8h-1V3.872l-4-1.2v9.456l1.644.493-.288.958-1.676-.503a.5.5 0 0 0-.32.01l-2.333.876A1.5 1.5 0 0 1 1 12.557V4.193a1.5 1.5 0 0 1 .973-1.404L5.01 1.65ZM5 12.154V2.722L2.324 3.725A.5.5 0 0 0 2 4.193v8.364a.5.5 0 0 0 .676.468L5 12.154ZM12.5 10a2.5 2.5 0 1 0 0 5 2.5 2.5 0 0 0 0-5ZM9 12.5a3.5 3.5 0 1 1 7 0 3.5 3.5 0 0 1-7 0Zm3.5-.25a.5.5 0 0 1 .5.5v1a.5.5 0 0 1-1 0v-1a.5.5 0 0 1 .5-.5Zm0-.5a.5.5 0 1 0 0-1 .5.5 0 0 0 0 1Z" clip-rule="evenodd"/></symbol>
  <symbol id="icon-large" fill="none" viewBox="0 0 24 24"><path fill="currentColor" fill-rule="evenodd" d="M8.935 3.604a1.5 1.5 0 0 0-.887.02L3.026 5.297A1.5 1.5 0 0 0 2 6.72v11.891a1.5 1.5 0 0 0 1.974 1.424l4.39-1.464a.5.5 0 0 1 .296-.006l3.203.915.274-.962L9 17.623V4.663l6 1.714V13h1V6.36l4.342-1.447a.5.5 0 0 1 .658.474V13h1V5.387a1.5 1.5 0 0 0-1.974-1.423l-4.39 1.464a.5.5 0 0 1-.296.006l-6.405-1.83ZM8 4.694 3.342 6.246A.5.5 0 0 0 3 6.721v11.891a.5.5 0 0 0 .658.475L8 17.64V4.694ZM15 18.5a3.5 3.5 0 1 1 7 0 3.5 3.5 0 0 1-7 0Zm3.5-4.5a4.5 4.5 0 1 0 0 9 4.5 4.5 0 0 0 0-9Zm0 4a.5.5 0 0 1 .5.5v2a.5.5 0 0 1-1 0v-2a.5.5 0 0 1 .5-.5Zm.005-.6a.625.625 0 1 0 0-1.25.625.625 0 0 0 0 1.25Z" clip-rule="evenodd"/></symbol>
  <use href="#icon"/>
</svg>