<svg xmlns="http://www.w3.org/2000/svg">
  <symbol id="icon" fill="none" viewBox="0 0 16 16"><path fill="currentColor" fill-rule="evenodd" d="M2 3.5a.5.5 0 0 1 .5-.5h11a.5.5 0 0 1 .5.5v7a.5.5 0 0 1-.5.5H9v1h4.5a1.5 1.5 0 0 0 1.5-1.5v-7A1.5 1.5 0 0 0 13.5 2h-11A1.5 1.5 0 0 0 1 3.5V8h1V3.5ZM2 9a1 1 0 0 0-1 1v3a1 1 0 0 0 1 1h5a1 1 0 0 0 1-1v-3a1 1 0 0 0-1-1H2Zm0 1h5v3H2v-3Zm7.5-5.5a.5.5 0 0 1 .5.5v1.293l2.146-2.147a.5.5 0 0 1 .708.708L10.707 7H12a.5.5 0 0 1 0 1H9.5a.5.5 0 0 1-.5-.5V5a.5.5 0 0 1 .5-.5Z" clip-rule="evenodd"/></symbol>
  <symbol id="icon-large" fill="none" viewBox="0 0 24 24"><path fill="currentColor" fill-rule="evenodd" d="M4 4.5a.5.5 0 0 1 .5-.5h16a.5.5 0 0 1 .5.5v11a.5.5 0 0 1-.5.5H15v1h5.5a1.5 1.5 0 0 0 1.5-1.5v-11A1.5 1.5 0 0 0 20.5 3h-16A1.5 1.5 0 0 0 3 4.5V10h1V4.5Zm-1 9a.5.5 0 0 1 .5-.5h8a.5.5 0 0 1 .5.5v6a.5.5 0 0 1-.5.5h-8a.5.5 0 0 1-.5-.5v-6Zm.5-1.5A1.5 1.5 0 0 0 2 13.5v6A1.5 1.5 0 0 0 3.5 21h8a1.5 1.5 0 0 0 1.5-1.5v-6a1.5 1.5 0 0 0-1.5-1.5h-8Zm11-5a.5.5 0 0 1 .5.5v1.793l3.146-3.147a.5.5 0 0 1 .708.708L15.707 10H17.5a.5.5 0 0 1 0 1h-3a.5.5 0 0 1-.5-.5v-3a.5.5 0 0 1 .5-.5Z" clip-rule="evenodd"/></symbol>
  <use href="#icon"/>
</svg>