<svg xmlns="http://www.w3.org/2000/svg">
  <symbol id="icon" fill="none" viewBox="0 0 16 16"><path fill="currentColor" fill-rule="evenodd" d="M8.252 1.726a.5.5 0 0 0-.504 0L2.992 4.5 8 7.421 13.008 4.5 8.252 1.726ZM13.5 5.37l-5 2.916v5.842l4.752-2.771a.5.5 0 0 0 .248-.432V5.37Zm-6 2.916-5-2.916v5.555a.5.5 0 0 0 .248.431L7.5 14.13V8.287ZM7.244.862a1.5 1.5 0 0 1 1.512 0l5 2.917a1.5 1.5 0 0 1 .744 1.295v5.852a1.5 1.5 0 0 1-.744 1.295l-5 2.917a1.5 1.5 0 0 1-1.512 0l-5-2.917a1.5 1.5 0 0 1-.744-1.295V5.074a1.5 1.5 0 0 1 .744-1.295l5-2.917Z" clip-rule="evenodd"/></symbol>
  <symbol id="icon-large" fill="none" viewBox="0 0 24 24"><path fill="currentColor" fill-rule="evenodd" d="M12.26 2.245a.5.5 0 0 0-.52 0L3.958 7 12 11.914 20.041 7l-7.78-4.755Zm8.24 5.646-8 4.89v8.827l7.76-4.742a.5.5 0 0 0 .24-.427V7.891Zm-9 4.89-8-4.89v8.548a.5.5 0 0 0 .24.427l7.76 4.742V12.78Zm-.282-11.39a1.5 1.5 0 0 1 1.564.001l8 4.889a1.5 1.5 0 0 1 .718 1.28v8.878a1.5 1.5 0 0 1-.718 1.28l-8 4.889a1.5 1.5 0 0 1-1.564 0l-8-4.889a1.5 1.5 0 0 1-.718-1.28V7.561a1.5 1.5 0 0 1 .718-1.28l8-4.889Z" clip-rule="evenodd"/></symbol>
  <use href="#icon"/>
</svg>