<svg xmlns="http://www.w3.org/2000/svg">
  <symbol id="icon" fill="none" viewBox="0 0 16 16"><path fill="currentColor" fill-rule="evenodd" d="M6.05 2.164a6.097 6.097 0 0 0 2.042 11.838 6.095 6.095 0 0 0 5.74-4.05A7 7 0 0 1 6.05 2.164Zm8.945 7.23a.498.498 0 0 1-.01.184A7.093 7.093 0 0 1 1 7.908 7.096 7.096 0 0 1 6.424 1.01a.498.498 0 0 1 .195-.008.5.5 0 0 1 .543.612 6 6 0 0 0 7.225 7.225.5.5 0 0 1 .61.555Z" clip-rule="evenodd"/></symbol>
  <symbol id="icon-large" fill="none" viewBox="0 0 24 24"><path fill="currentColor" fill-rule="evenodd" d="M10.25 2.886a.5.5 0 0 0-.603-.603v-.004C5.258 3.337 2 7.287 2 11.999c0 5.524 4.477 10 10 10 4.698 0 8.638-3.238 9.711-7.604a.5.5 0 0 0-.591-.646c-.68.164-1.39.25-2.12.25a9 9 0 0 1-8.75-11.113Zm10.278 11.998A10.07 10.07 0 0 1 19 15C13.477 15 9 10.523 9 5c0-.52.04-1.03.116-1.528A9.004 9.004 0 0 0 3 12a9 9 0 0 0 9 9 9.004 9.004 0 0 0 8.528-6.116Z" clip-rule="evenodd"/></symbol>
  <use href="#icon"/>
</svg>