<svg xmlns="http://www.w3.org/2000/svg">
  <symbol id="icon" fill="none" viewBox="0 0 16 16"><path fill="currentColor" fill-rule="evenodd" d="M8.354 1.146a.5.5 0 0 0-.708 0l-2 2a.5.5 0 1 0 .708.708L7.5 2.706V7.5H2.706l1.147-1.146a.5.5 0 1 0-.708-.708l-2 2a.5.5 0 0 0 0 .708l2 2a.5.5 0 0 0 .708-.708L2.707 8.5H7.5v4.793l-1.146-1.147a.5.5 0 0 0-.708.708l2 2a.5.5 0 0 0 .708 0l2-2a.5.5 0 0 0-.708-.708L8.5 13.293V8.5h4.793l-1.147 1.146a.5.5 0 0 0 .708.708l2-2a.5.5 0 0 0 0-.708l-2-2a.5.5 0 0 0-.708.708L13.293 7.5H8.5V2.708l1.146 1.146a.5.5 0 0 0 .708-.708l-2-2Z" clip-rule="evenodd"/></symbol>
  <symbol id="icon-large" fill="none" viewBox="0 0 24 24"><path fill="currentColor" fill-rule="evenodd" d="M12.354 2.146a.5.5 0 0 0-.708 0l-3 3a.5.5 0 1 0 .708.708L11.5 3.707V11.5H3.707l2.147-2.146a.5.5 0 1 0-.708-.708l-3 3a.5.5 0 0 0 0 .708l3 3a.5.5 0 0 0 .708-.708L3.707 12.5H11.5v7.793l-2.146-2.147a.5.5 0 0 0-.708.708l3 3a.5.5 0 0 0 .708 0l3-3a.5.5 0 0 0-.708-.708L12.5 20.293V12.5h7.793l-2.147 2.146a.5.5 0 0 0 .708.708l3-3a.5.5 0 0 0 0-.708l-3-3a.5.5 0 0 0-.708.708l2.147 2.146H12.5V3.707l2.146 2.147a.5.5 0 0 0 .708-.708l-3-3Z" clip-rule="evenodd"/></symbol>
  <use href="#icon"/>
</svg>