<svg xmlns="http://www.w3.org/2000/svg">
  <symbol id="icon" fill="none" viewBox="0 0 16 16"><path fill="currentColor" fill-rule="evenodd" d="M8.354 1.146a.5.5 0 0 0-.708 0l-2 2a.5.5 0 1 0 .708.708L7.5 2.708V5.5H7A1.5 1.5 0 0 0 5.5 7v.5H2.708l1.146-1.146a.5.5 0 1 0-.708-.708l-2 2a.5.5 0 0 0 0 .708l2 2a.5.5 0 0 0 .708-.708L2.707 8.5H5.5V9A1.5 1.5 0 0 0 7 10.5h.5v2.792l-1.146-1.146a.5.5 0 1 0-.708.707l2 2a.5.5 0 0 0 .708 0l2-2a.5.5 0 0 0-.708-.707L8.5 13.293V10.5H9A1.5 1.5 0 0 0 10.5 9v-.5h2.793l-1.147 1.146a.5.5 0 0 0 .708.708l2-2a.5.5 0 0 0 0-.708l-2-2a.5.5 0 0 0-.708.708L13.292 7.5H10.5V7A1.5 1.5 0 0 0 9 5.5h-.5V2.707l1.146 1.147a.5.5 0 0 0 .708-.708l-2-2ZM7 6.5a.5.5 0 0 0-.5.5v2a.5.5 0 0 0 .5.5h2a.5.5 0 0 0 .5-.5V7a.5.5 0 0 0-.5-.5H7Z" clip-rule="evenodd"/></symbol>
  <symbol id="icon-large" fill="none" viewBox="0 0 24 24"><path fill="currentColor" fill-rule="evenodd" d="M12.354 2.146a.5.5 0 0 0-.708 0l-3 3a.5.5 0 1 0 .708.708L11.5 3.707V8h-2A1.5 1.5 0 0 0 8 9.5v2H3.707l2.147-2.146a.5.5 0 1 0-.708-.708l-3 3a.5.5 0 0 0 0 .708l3 3a.5.5 0 0 0 .708-.708L3.707 12.5H8v2A1.5 1.5 0 0 0 9.5 16h2v4.293l-2.146-2.147a.5.5 0 0 0-.708.708l3 3a.5.5 0 0 0 .708 0l3-3a.5.5 0 0 0-.708-.708L12.5 20.293V16h2a1.5 1.5 0 0 0 1.5-1.5v-2h4.293l-2.147 2.146a.5.5 0 0 0 .708.708l3-3a.5.5 0 0 0 0-.708l-3-3a.5.5 0 0 0-.708.708l2.147 2.146H16v-2A1.5 1.5 0 0 0 14.5 8h-2V3.707l2.146 2.147a.5.5 0 0 0 .708-.708l-3-3ZM9.5 9a.5.5 0 0 0-.5.5v5a.5.5 0 0 0 .5.5h5a.5.5 0 0 0 .5-.5v-5a.5.5 0 0 0-.5-.5h-5Z" clip-rule="evenodd"/></symbol>
  <use href="#icon"/>
</svg>