<svg xmlns="http://www.w3.org/2000/svg">
  <symbol id="icon" fill="none" viewBox="0 0 16 16"><path fill="currentColor" fill-rule="evenodd" d="M14.354 1.646a2.16 2.16 0 0 0-2.802-.234c-1.108.806-2.798 2.096-3.91 3.24a15.453 15.453 0 0 0-1.896 2.427 16.6 16.6 0 0 0-.581.984A3.5 3.5 0 0 0 1 11.5v3a.5.5 0 0 0 .5.5h3a3.5 3.5 0 0 0 3.437-4.165l.128-.07c.211-.118.508-.29.856-.511a15.45 15.45 0 0 0 2.428-1.896c1.143-1.112 2.433-2.802 3.24-3.91a2.16 2.16 0 0 0-.236-2.802ZM7.602 9.878A15.668 15.668 0 0 0 9 8.997 2 2 0 0 0 7.003 7a16.448 16.448 0 0 0-.881 1.398c.631.33 1.15.848 1.48 1.48Zm.1-3.796a3.005 3.005 0 0 1 2.216 2.216c.247-.204.494-.423.733-.656 1.076-1.048 2.324-2.676 3.129-3.782a1.16 1.16 0 0 0-.134-1.507 1.16 1.16 0 0 0-1.506-.133c-1.106.805-2.735 2.052-3.782 3.129-.233.24-.452.486-.656.733ZM4.5 9A2.5 2.5 0 0 0 2 11.5V14h2.5a2.5 2.5 0 0 0 0-5Z" clip-rule="evenodd"/></symbol>
  <symbol id="icon-large" fill="none" viewBox="0 0 24 24"><path fill="currentColor" fill-rule="evenodd" d="M21.12 2.515 21 3l.485-.12.001.003.001.004.003.012a1.145 1.145 0 0 1 .022.13c.01.083.02.196.02.338 0 .286-.038.689-.174 1.2-.273 1.022-.939 2.462-2.478 4.258-1.522 1.776-2.92 3.046-3.94 3.876-.51.414-.926.719-1.217.92l-.042.03A5.5 5.5 0 0 1 8.5 21h-7a.5.5 0 0 1 0-1.001c.11 0 .26-.054.446-.262.187-.21.373-.539.536-.975.324-.87.518-2.058.518-3.263a5.5 5.5 0 0 1 7.35-5.181l.028-.042c.202-.29.507-.707.921-1.217.83-1.02 2.1-2.418 3.876-3.94 1.796-1.54 3.236-2.206 4.259-2.478a4.68 4.68 0 0 1 1.199-.173 2.691 2.691 0 0 1 .437.035l.031.006.012.003.004.001h.003ZM21 3l.485-.121a.5.5 0 0 0-.364-.364L21 3Zm-6.69 8.924c-.433.352-.792.619-1.057.806a5.529 5.529 0 0 0-1.983-1.983 23.474 23.474 0 0 1 1.389-1.748c.063.005.155.02.272.055.274.083.704.288 1.215.8.512.511.717.94.8 1.215.035.117.05.21.055.272-.246.216-.478.41-.691.583Zm.544-2.778c-.532-.53-1.027-.824-1.436-.981a32.001 32.001 0 0 1 2.407-2.285c1.704-1.46 3.014-2.044 3.866-2.272.36-.096.64-.129.838-.137a3.896 3.896 0 0 1-.137.838c-.227.852-.811 2.162-2.272 3.866a31.864 31.864 0 0 1-2.285 2.407c-.157-.41-.45-.904-.981-1.436ZM4 15.5A4.5 4.5 0 1 1 8.5 20H2.991a4.92 4.92 0 0 0 .427-.888C3.794 18.107 4 16.795 4 15.5Zm8 0a.5.5 0 0 0-1-.003v.004c0 .005 0 .016-.002.031a2.607 2.607 0 0 1-.154.667c-.157.42-.474.953-1.121 1.385-.37.247-.893.376-1.491.427-.59.05-1.197.02-1.702-.01a.5.5 0 0 0-.06.998c.505.03 1.176.066 1.847.009.662-.057 1.384-.208 1.96-.592a3.855 3.855 0 0 0 1.504-1.865 3.609 3.609 0 0 0 .215-.95l.003-.068v-.02l.001-.008v-.004l-.5-.001h.5Z" clip-rule="evenodd"/></symbol>
  <use href="#icon"/>
</svg>