<svg xmlns="http://www.w3.org/2000/svg">
  <symbol id="icon" fill="none" viewBox="0 0 16 16"><path fill="currentColor" fill-rule="evenodd" d="M2 4.477c0-.034.024-.163.303-.363.267-.192.685-.386 1.247-.557C4.667 3.217 6.24 3 8 3c1.758 0 3.331.223 4.448.568.562.174.98.37 1.247.564.28.202.305.333.305.368 0 .029-.038.201-.483.452-.407.23-1.02.445-1.792.618-.688.154-1.225.756-1.225 1.498V8.5h1V7.068a.55.55 0 0 1 .444-.522c.813-.182 1.529-.422 2.056-.718V8.5h1v-4c0-.511-.339-.903-.717-1.178-.391-.283-.925-.52-1.54-.71C11.508 2.232 9.831 2 8 2c-1.83 0-3.506.225-4.741.6-.615.188-1.149.42-1.54.702-.38.272-.719.663-.719 1.175V12c0 .578.44.988.884 1.257.47.286 1.112.519 1.84.702.945.237 1.776-.517 1.776-1.427v-1.376C6.264 11.056 7.11 11 8 11c.332 0 .658.008.977.023l.046-1A21.806 21.806 0 0 0 8 10c-.881 0-1.725.052-2.5.148v-3.08c0-.742-.537-1.343-1.223-1.499-.771-.174-1.384-.394-1.791-.628C2.042 4.685 2 4.509 2 4.477ZM2 12c0 .024.026.174.403.402.349.212.881.415 1.565.587.252.063.532-.133.532-.457V7.068a.552.552 0 0 0-.445-.523c-.813-.185-1.528-.43-2.055-.73V12Zm11.257-2.929a.5.5 0 0 0-.514 0l-2.5 1.5A.5.5 0 0 0 10 11v3a.5.5 0 0 0 .243.429l2.5 1.5a.5.5 0 0 0 .514 0l2.5-1.5A.5.5 0 0 0 16 14v-3a.5.5 0 0 0-.243-.429l-2.5-1.5ZM15 11.883l-1.5.9v1.834l1.5-.9v-1.834Zm-2.5.9-1.5-.9v1.834l1.5.9v-1.834Zm.5-.866L11.472 11 13 10.083l1.528.917-1.528.917Z" clip-rule="evenodd"/></symbol>
  <symbol id="icon-large" fill="none" viewBox="0 0 24 24"><path fill="currentColor" fill-rule="evenodd" d="M3.51 5.451C3.065 5.73 3 5.928 3 6c0 .043.018.133.154.273.138.141.365.3.699.463.664.324 1.65.615 2.878.837A1.531 1.531 0 0 1 8 9.07v6.158A33.836 33.836 0 0 1 12 15c.517 0 1.025.01 1.52.031l.5.021-.041 1-.5-.021A33.964 33.964 0 0 0 12 16c-1.434 0-2.79.085-4 .235v2.816c0 .903-.808 1.632-1.732 1.452-1.193-.231-2.21-.54-2.942-.913-.365-.186-.684-.4-.917-.65C2.173 18.688 2 18.37 2 18V6c0-.619.468-1.078.982-1.398.541-.336 1.291-.621 2.173-.853C6.927 3.283 9.347 3 12 3c2.653 0 5.073.283 6.845.749.882.232 1.632.517 2.173.853.514.32.982.78.982 1.398v8h-1V7.409a5.05 5.05 0 0 1-.414.226c-.781.38-1.867.693-3.14.922A.531.531 0 0 0 17 9.07V14h-1V9.07c0-.751.553-1.368 1.269-1.497 1.229-.222 2.214-.513 2.879-.837.333-.163.56-.322.698-.463.136-.14.154-.23.154-.273 0-.072-.064-.27-.51-.549-.421-.261-1.063-.515-1.9-.735C16.923 4.277 14.593 4 12 4s-4.923.277-6.59.716c-.837.22-1.479.474-1.9.735ZM3 18V7.409c.13.08.268.154.414.226.781.38 1.867.693 3.14.922.264.047.446.27.446.513v9.98c0 .313-.27.524-.541.472-1.15-.224-2.065-.51-2.679-.822-.308-.157-.515-.309-.64-.443-.123-.13-.14-.215-.14-.257Zm16.248-3.434a.5.5 0 0 0-.496 0l-3.5 2A.5.5 0 0 0 15 17v4a.5.5 0 0 0 .252.434l3.5 2a.5.5 0 0 0 .496 0l3.5-2A.5.5 0 0 0 23 21v-4a.5.5 0 0 0-.252-.434l-3.5-2ZM22 17.862l-2.5 1.428v2.848L22 20.71v-2.848Zm-3.5 1.428L16 17.862v2.848l2.5 1.428V19.29Zm.5-.866L16.508 17 19 15.576 21.492 17 19 18.424Z" clip-rule="evenodd"/></symbol>
  <use href="#icon"/>
</svg>