<svg xmlns="http://www.w3.org/2000/svg">
  <symbol id="icon" fill="none" viewBox="0 0 16 16"><path fill="currentColor" fill-rule="evenodd" d="M2 4.477c0-.034.024-.163.303-.363.267-.192.685-.386 1.247-.557C4.667 3.217 6.24 3 8 3c1.758 0 3.331.223 4.448.568.562.174.98.37 1.247.564.28.202.305.333.305.368 0 .029-.038.201-.483.452-.407.23-1.02.445-1.792.618-.688.154-1.225.756-1.225 1.498v3.08A20.594 20.594 0 0 0 8 10c-.881 0-1.725.052-2.5.148v-3.08c0-.742-.537-1.343-1.223-1.499-.771-.174-1.384-.394-1.791-.628C2.042 4.685 2 4.509 2 4.477Zm9.944 2.07c.813-.183 1.529-.423 2.056-.719V12c0 .024-.026.174-.403.402-.349.212-.881.415-1.565.587-.252.063-.532-.133-.532-.457V7.068a.55.55 0 0 1 .444-.522Zm2.172 6.71c.444-.27.884-.68.884-1.257V4.5c0-.511-.339-.903-.717-1.178-.391-.283-.925-.52-1.54-.71C11.508 2.232 9.831 2 8 2c-1.83 0-3.506.225-4.741.6-.615.188-1.149.42-1.54.702-.38.272-.719.663-.719 1.175V12c0 .578.44.988.884 1.257.47.286 1.112.519 1.84.702.945.237 1.776-.517 1.776-1.427v-1.376C6.264 11.056 7.11 11 8 11c.89 0 1.736.056 2.5.156v1.376c0 .91.83 1.664 1.775 1.427.73-.183 1.37-.416 1.841-.702ZM2 12c0 .024.026.174.403.402.349.212.881.415 1.565.587.252.063.532-.133.532-.457V7.068a.552.552 0 0 0-.445-.523c-.813-.185-1.528-.43-2.055-.73V12Z" clip-rule="evenodd"/></symbol>
  <symbol id="icon-large" fill="none" viewBox="0 0 24 24"><path fill="currentColor" fill-rule="evenodd" d="M3 6c0-.072.064-.27.51-.549.421-.261 1.063-.515 1.9-.735C7.077 4.277 9.407 4 12 4s4.923.277 6.59.716c.837.22 1.479.474 1.9.735.446.279.51.477.51.549 0 .043-.018.133-.154.273-.138.141-.365.3-.698.463-.665.324-1.65.615-2.879.837A1.531 1.531 0 0 0 16 9.07v6.158A33.836 33.836 0 0 0 12 15c-1.424 0-2.778.081-4 .228V9.07c0-.751-.553-1.368-1.269-1.497-1.229-.222-2.214-.513-2.878-.837-.334-.163-.561-.322-.699-.463C3.018 6.133 3 6.043 3 6Zm18 1.409a5.05 5.05 0 0 1-.414.226c-.781.38-1.867.693-3.14.922A.531.531 0 0 0 17 9.07v9.98c0 .313.27.524.541.472 1.15-.224 2.065-.51 2.679-.822.308-.157.515-.309.64-.443.123-.13.14-.215.14-.257V7.409ZM22 18c0 .371-.173.688-.409.94-.233.25-.552.464-.917.65-.732.374-1.749.682-2.942.913-.924.18-1.732-.549-1.732-1.453v-2.815A32.676 32.676 0 0 0 12 16c-1.434 0-2.79.085-4 .235v2.816c0 .903-.808 1.632-1.732 1.452-1.193-.231-2.21-.54-2.942-.913-.365-.186-.684-.4-.917-.65C2.173 18.688 2 18.37 2 18V6c0-.619.468-1.078.982-1.398.541-.336 1.291-.621 2.173-.853C6.927 3.283 9.347 3 12 3c2.653 0 5.073.283 6.845.749.882.232 1.632.517 2.173.853.514.32.982.78.982 1.398v12Zm-18.86.257C3.017 18.127 3 18.042 3 18V7.409c.13.08.268.154.414.226.781.38 1.867.693 3.14.922.264.047.446.27.446.513v9.98c0 .313-.27.524-.541.472-1.15-.224-2.065-.51-2.679-.822-.308-.157-.515-.309-.64-.443Z" clip-rule="evenodd"/></symbol>
  <use href="#icon"/>
</svg>