<svg xmlns="http://www.w3.org/2000/svg">
  <symbol id="icon" fill="none" viewBox="0 0 16 16"><path fill="currentColor" fill-rule="evenodd" d="M3 2.5a.5.5 0 0 1 .5-.5h2a.5.5 0 0 1 .5.5v11a.5.5 0 0 1-.5.5h-2a.5.5 0 0 1-.5-.5v-11ZM3.5 1A1.5 1.5 0 0 0 2 2.5v11A1.5 1.5 0 0 0 3.5 15h2A1.5 1.5 0 0 0 7 13.5v-11A1.5 1.5 0 0 0 5.5 1h-2ZM10 2.5a.5.5 0 0 1 .5-.5h2a.5.5 0 0 1 .5.5v11a.5.5 0 0 1-.5.5h-2a.5.5 0 0 1-.5-.5v-11Zm.5-1.5A1.5 1.5 0 0 0 9 2.5v11a1.5 1.5 0 0 0 1.5 1.5h2a1.5 1.5 0 0 0 1.5-1.5v-11A1.5 1.5 0 0 0 12.5 1h-2Z" clip-rule="evenodd"/></symbol>
  <symbol id="icon-large" fill="none" viewBox="0 0 24 24"><path fill="currentColor" fill-rule="evenodd" d="M5 4.5a.5.5 0 0 1 .5-.5h3a.5.5 0 0 1 .5.5v15a.5.5 0 0 1-.5.5h-3a.5.5 0 0 1-.5-.5v-15ZM5.5 3A1.5 1.5 0 0 0 4 4.5v15A1.5 1.5 0 0 0 5.5 21h3a1.5 1.5 0 0 0 1.5-1.5v-15A1.5 1.5 0 0 0 8.5 3h-3ZM15 4.5a.5.5 0 0 1 .5-.5h3a.5.5 0 0 1 .5.5v15a.5.5 0 0 1-.5.5h-3a.5.5 0 0 1-.5-.5v-15Zm.5-1.5A1.5 1.5 0 0 0 14 4.5v15a1.5 1.5 0 0 0 1.5 1.5h3a1.5 1.5 0 0 0 1.5-1.5v-15A1.5 1.5 0 0 0 18.5 3h-3Z" clip-rule="evenodd"/></symbol>
  <use href="#icon"/>
</svg>