<svg xmlns="http://www.w3.org/2000/svg">
  <symbol id="icon" fill="none" viewBox="0 0 16 16"><path fill="currentColor" fill-rule="evenodd" d="M4.125 3.418A5.977 5.977 0 0 1 8 2c1.477 0 2.83.533 3.874 1.418L8 7.293 4.125 3.418Zm-.707.707A5.976 5.976 0 0 0 2 8c0 1.477.534 2.83 1.419 3.875L7.293 8 3.418 4.125Zm.707 8.457A5.977 5.977 0 0 0 8 14.001c1.477 0 2.83-.534 3.875-1.42L8 8.708l-3.875 3.875Zm8.457-.707A5.977 5.977 0 0 0 14 8c0-1.477-.533-2.83-1.418-3.875L8.707 8l3.875 3.875ZM8 1a7 7 0 1 0 0 14A7 7 0 0 0 8 1Z" clip-rule="evenodd"/></symbol>
  <symbol id="icon-large" fill="none" viewBox="0 0 24 24"><path fill="currentColor" fill-rule="evenodd" d="M6.708 6A7.97 7.97 0 0 1 12 4a7.97 7.97 0 0 1 5.292 2L12 11.294 6.708 6ZM6 6.709A7.97 7.97 0 0 0 4 12a7.97 7.97 0 0 0 2 5.292L11.294 12 6 6.708ZM6.707 18A7.97 7.97 0 0 0 12 20a7.97 7.97 0 0 0 5.292-2L12 12.706 6.708 18Zm11.291-.707A7.97 7.97 0 0 0 20 12a7.97 7.97 0 0 0-2-5.292L12.706 12 18 17.292ZM12 3a9 9 0 1 0 0 18 9 9 0 0 0 0-18Z" clip-rule="evenodd"/></symbol>
  <use href="#icon"/>
</svg>