<svg xmlns="http://www.w3.org/2000/svg">
  <symbol id="icon" fill="none" viewBox="0 0 16 16"><path fill="currentColor" fill-rule="evenodd" d="M2.5 1A1.5 1.5 0 0 0 1 2.5V6a1.5 1.5 0 0 0 1.5 1.5H6A1.5 1.5 0 0 0 7.5 6V2.5A1.5 1.5 0 0 0 6 1H2.5ZM2 2.5a.5.5 0 0 1 .5-.5H6a.5.5 0 0 1 .5.5V6a.5.5 0 0 1-.5.5H2.5A.5.5 0 0 1 2 6V2.5Zm9.148-1.355a.5.5 0 0 1 .706.001l3 3a.5.5 0 0 1 0 .708l-3 3a.5.5 0 0 1-.71-.002l-3-3.029a.5.5 0 0 1 .004-.707l3-2.971Zm-1.94 3.33 2.294 2.316 2.29-2.291-2.294-2.295-2.29 2.27ZM2 11.75a2.25 2.25 0 1 1 4.5 0 2.25 2.25 0 0 1-4.5 0ZM4.25 8.5a3.25 3.25 0 1 0 0 6.5 3.25 3.25 0 0 0 0-6.5Zm7.25.5a.5.5 0 0 0-.5.5v2H9a.5.5 0 1 0 0 1h2v2a.5.5 0 0 0 1 0v-2h2a.5.5 0 0 0 0-1h-2v-2a.5.5 0 0 0-.5-.5Z" clip-rule="evenodd"/></symbol>
  <symbol id="icon-large" fill="none" viewBox="0 0 24 24"><path fill="currentColor" fill-rule="evenodd" d="M17.146 2.646a.5.5 0 0 1 .708 0l4 4a.5.5 0 0 1 0 .708l-4 4a.5.5 0 0 1-.708 0l-4-4a.5.5 0 0 1 0-.708l4-4ZM14.207 7l3.293 3.293L20.793 7 17.5 3.707 14.207 7ZM4 17a3 3 0 1 1 6 0 3 3 0 0 1-6 0Zm3-4a4 4 0 1 0 0 8 4 4 0 0 0 0-8Zm10 .5v3h-3a.5.5 0 0 0 0 1h3v3a.5.5 0 0 0 1 0v-3h3a.5.5 0 0 0 0-1h-3v-3a.5.5 0 0 0-1 0ZM4.5 3A1.5 1.5 0 0 0 3 4.5v5A1.5 1.5 0 0 0 4.5 11h5A1.5 1.5 0 0 0 11 9.5v-5A1.5 1.5 0 0 0 9.5 3h-5ZM4 4.5a.5.5 0 0 1 .5-.5h5a.5.5 0 0 1 .5.5v5a.5.5 0 0 1-.5.5h-5a.5.5 0 0 1-.5-.5v-5Z" clip-rule="evenodd"/></symbol>
  <use href="#icon"/>
</svg>