<svg xmlns="http://www.w3.org/2000/svg">
  <symbol id="icon" fill="none" viewBox="0 0 16 16"><path fill="currentColor" fill-rule="evenodd" d="M8.75 2.5a.75.75 0 1 1 1.5 0 .75.75 0 0 1-1.5 0ZM9.5.75a1.75 1.75 0 0 0-1.739 1.951L3.845 4.38A1.75 1.75 0 1 0 2 7.178v4.644A1.75 1.75 0 1 0 4.178 14h4.644a1.75 1.75 0 1 0 2.798-1.845L13.3 8.24a1.75 1.75 0 1 0-.631-3.278l-1.629-1.63A1.75 1.75 0 0 0 9.5.75Zm.833 3.29a1.746 1.746 0 0 1-2.177-.42L4.238 5.3A1.75 1.75 0 0 1 3 7.178v4.644c.564.169 1.01.614 1.178 1.178h4.644a1.75 1.75 0 0 1 1.88-1.239l1.678-3.916a1.746 1.746 0 0 1-.42-2.178L10.333 4.04ZM1.75 13.5a.75.75 0 1 1 1.5 0 .75.75 0 0 1-1.5 0Zm8.75-.75a.75.75 0 1 0 0 1.5.75.75 0 0 0 0-1.5Zm2.25-6.25a.75.75 0 1 1 1.5 0 .75.75 0 0 1-1.5 0ZM2.5 4.75a.75.75 0 1 0 0 1.5.75.75 0 0 0 0-1.5Z" clip-rule="evenodd"/></symbol>
  <symbol id="icon-large" fill="none" viewBox="0 0 24 24"><path fill="currentColor" fill-rule="evenodd" d="M14 3a1 1 0 1 0 0 2 1 1 0 0 0 0-2Zm-2 1a2 2 0 1 1 3.723 1.016l3.261 3.26a2 2 0 1 1 .761 3.707l-2.562 6.405a2 2 0 1 1-3.12 2.112H5.937A2 2 0 1 1 3.5 18.063V9.937a2 2 0 1 1 2.112-3.12l6.404-2.562A2.025 2.025 0 0 1 12 4Zm.388 1.183L5.984 7.745A2 2 0 0 1 4.5 9.937v8.126c.703.18 1.256.734 1.437 1.437h8.126a2 2 0 0 1 2.192-1.484l2.562-6.404a1.997 1.997 0 0 1-.54-2.628l-3.261-3.26a1.997 1.997 0 0 1-2.628-.54ZM3 8a1 1 0 1 1 2 0 1 1 0 0 1-2 0Zm0 12a1 1 0 1 1 2 0 1 1 0 0 1-2 0Zm13-1a1 1 0 1 0 0 2 1 1 0 0 0 0-2Zm3-9a1 1 0 1 1 2 0 1 1 0 0 1-2 0Z" clip-rule="evenodd"/></symbol>
  <use href="#icon"/>
</svg>