<svg xmlns="http://www.w3.org/2000/svg">
  <symbol id="icon" fill="none" viewBox="0 0 16 16"><path fill="currentColor" fill-rule="evenodd" d="M4 2.5a.5.5 0 0 1 .5-.5h7a.5.5 0 0 1 .5.5V4H4V2.5Zm9 0V4h.5A1.5 1.5 0 0 1 15 5.5V9h-1V5.5a.5.5 0 0 0-.5-.5h-11a.5.5 0 0 0-.5.5v5a.5.5 0 0 0 .5.5H3V8.5a.5.5 0 0 1 .5-.5H12v1H4v4.5a.5.5 0 0 0 .5.5H7v1H4.5A1.5 1.5 0 0 1 3 13.5V12h-.5A1.5 1.5 0 0 1 1 10.5v-5A1.5 1.5 0 0 1 2.5 4H3V2.5A1.5 1.5 0 0 1 4.5 1h7A1.5 1.5 0 0 1 13 2.5ZM9.052 13l.078-.144a4.43 4.43 0 0 1 .554-.771C10.186 11.527 10.936 11 12 11c1.064 0 1.814.527 2.316 1.085a4.434 4.434 0 0 1 .632.915l-.078.144c-.12.211-.303.492-.554.771C13.814 14.473 13.064 15 12 15c-1.064 0-1.814-.527-2.316-1.085A4.43 4.43 0 0 1 9.052 13Zm6.448 0 .464.186v.002l-.002.003-.003.008-.012.028-.043.094a5.436 5.436 0 0 1-.845 1.264C14.436 15.277 13.436 16 12 16c-1.436 0-2.436-.723-3.06-1.415a5.435 5.435 0 0 1-.887-1.358l-.012-.028-.003-.008-.001-.003v-.001h-.001L8.5 13a55.77 55.77 0 0 1-.464-.186v-.002l.002-.003.003-.008.012-.028.043-.094a5.435 5.435 0 0 1 .845-1.264C9.564 10.723 10.564 10 12 10c1.436 0 2.436.723 3.06 1.415a5.436 5.436 0 0 1 .887 1.358l.012.028.003.008.001.003v.001h.001L15.5 13Zm.464.186L15.5 13l.464-.186a.5.5 0 0 1 0 .372Zm-7.928-.372L8.5 13l-.464.186a.5.5 0 0 1 0-.372ZM13 13a1 1 0 1 1-2 0 1 1 0 0 1 2 0Zm-7.5-2.5A.5.5 0 0 1 6 10h2v1H6a.5.5 0 0 1-.5-.5ZM6 12a.5.5 0 1 0 0 1h1v-1H6Z" clip-rule="evenodd"/></symbol>
  <symbol id="icon-large" fill="none" viewBox="0 0 24 24"><path fill="currentColor" fill-rule="evenodd" d="M7.5 3a.5.5 0 0 0-.5.5V6h10V3.5a.5.5 0 0 0-.5-.5h-9ZM18 6V3.5A1.5 1.5 0 0 0 16.5 2h-9A1.5 1.5 0 0 0 6 3.5V6H3.5A1.5 1.5 0 0 0 2 7.5v9A1.5 1.5 0 0 0 3.5 18H6v2.5A1.5 1.5 0 0 0 7.5 22h6a.5.5 0 0 0 0-1h-6a.5.5 0 0 1-.5-.5V14h10v.5a.5.5 0 0 0 1 0v-1a.5.5 0 0 0-.5-.5h-11a.5.5 0 0 0-.5.5V17H3.5a.5.5 0 0 1-.5-.5v-9a.5.5 0 0 1 .5-.5h17a.5.5 0 0 1 .5.5v7a.5.5 0 0 0 1 0v-7A1.5 1.5 0 0 0 20.5 6H18Zm-1.87 12.856c-.03.053-.056.102-.078.144l.078.144c.12.211.303.492.554.772C17.186 20.473 17.936 21 19 21c1.064 0 1.814-.527 2.316-1.084a4.434 4.434 0 0 0 .632-.916 4.434 4.434 0 0 0-.632-.916C20.814 17.527 20.064 17 19 17c-1.064 0-1.814.527-2.316 1.084a4.47 4.47 0 0 0-.554.772Zm6.834.33L22.5 19l.464.186a.5.5 0 0 0 0-.372L22.5 19l.464-.186v-.002l-.002-.003-.003-.008-.012-.028a4.745 4.745 0 0 0-.207-.41 5.436 5.436 0 0 0-.68-.947C21.435 16.723 20.435 16 19 16s-2.436.723-3.06 1.416a5.436 5.436 0 0 0-.887 1.357l-.012.028-.003.008-.001.003v.001h-.001L15.5 19l-.464-.186a.5.5 0 0 0 0 .372L15.5 19l-.464.186v.002l.002.003.003.008.012.028.043.094a5.436 5.436 0 0 0 .845 1.264C16.564 21.276 17.564 22 19 22c1.436 0 2.436-.723 3.06-1.416a5.436 5.436 0 0 0 .887-1.357l.012-.028.003-.008.001-.003v-.001h.001ZM19 20a1 1 0 1 0 0-2 1 1 0 0 0 0 2ZM6.5 10a.5.5 0 0 0 0 1h3a.5.5 0 0 0 0-1h-3ZM9 16.5a.5.5 0 0 1 .5-.5h4a.5.5 0 0 1 0 1h-4a.5.5 0 0 1-.5-.5Zm.5 1.5a.5.5 0 0 0 0 1h4a.5.5 0 0 0 0-1h-4Z" clip-rule="evenodd"/></symbol>
  <use href="#icon"/>
</svg>