<svg xmlns="http://www.w3.org/2000/svg">
  <symbol id="icon" fill="none" viewBox="0 0 16 16"><path fill="currentColor" fill-rule="evenodd" d="M4 2.5a.5.5 0 0 1 .5-.5h7a.5.5 0 0 1 .5.5V4H4V2.5Zm9 0V4h.5A1.5 1.5 0 0 1 15 5.5V9h-1V5.5a.5.5 0 0 0-.5-.5h-11a.5.5 0 0 0-.5.5v5a.5.5 0 0 0 .5.5H3V8.5a.5.5 0 0 1 .5-.5h7v1H4v4.5a.5.5 0 0 0 .5.5H8v1H4.5A1.5 1.5 0 0 1 3 13.5V12h-.5A1.5 1.5 0 0 1 1 10.5v-5A1.5 1.5 0 0 1 2.5 4H3V2.5A1.5 1.5 0 0 1 4.5 1h7A1.5 1.5 0 0 1 13 2.5ZM12.5 9a.5.5 0 0 1 .5.5v.55c.541.11 1.019.394 1.371.792l.477-.275a.5.5 0 1 1 .5.866l-.476.275a2.497 2.497 0 0 1 0 1.584l.476.275a.5.5 0 1 1-.5.866l-.477-.275c-.352.398-.83.682-1.371.792v.55a.5.5 0 0 1-1 0v-.55a2.498 2.498 0 0 1-1.371-.792l-.477.275a.5.5 0 0 1-.5-.866l.476-.275a2.497 2.497 0 0 1 0-1.584l-.476-.275a.5.5 0 1 1 .5-.866l.477.275c.352-.398.83-.682 1.371-.792V9.5a.5.5 0 0 1 .5-.5Zm0 2a1.5 1.5 0 1 0 0 3 1.5 1.5 0 0 0 0-3Zm-7-.5A.5.5 0 0 1 6 10h2v1H6a.5.5 0 0 1-.5-.5ZM6 12a.5.5 0 1 0 0 1h2v-1H6Z" clip-rule="evenodd"/></symbol>
  <symbol id="icon-large" fill="none" viewBox="0 0 24 24"><path fill="currentColor" fill-rule="evenodd" d="M7 3.5a.5.5 0 0 1 .5-.5h9a.5.5 0 0 1 .5.5V6H7V3.5ZM6 6V3.5A1.5 1.5 0 0 1 7.5 2h9A1.5 1.5 0 0 1 18 3.5V6h2.5A1.5 1.5 0 0 1 22 7.5v6a.5.5 0 0 1-1 0v-6a.5.5 0 0 0-.5-.5h-17a.5.5 0 0 0-.5.5v9a.5.5 0 0 0 .5.5H6v-3.5a.5.5 0 0 1 .5-.5h11a.5.5 0 0 1 0 1H7v6.5a.5.5 0 0 0 .5.5h6a.5.5 0 0 1 0 1h-6A1.5 1.5 0 0 1 6 20.5V18H3.5A1.5 1.5 0 0 1 2 16.5v-9A1.5 1.5 0 0 1 3.5 6H6Zm.5 4a.5.5 0 0 0 0 1h3a.5.5 0 0 0 0-1h-3ZM9 16.5a.5.5 0 0 1 .5-.5h4a.5.5 0 0 1 0 1h-4a.5.5 0 0 1-.5-.5Zm.5 1.5a.5.5 0 0 0 0 1h4a.5.5 0 0 0 0-1h-4Zm7.76.015a1.991 1.991 0 0 0 0 1.97l.008.015.008.014A1.999 1.999 0 0 0 21 19c0-.358-.094-.695-.26-.986L20.733 18l-.008-.014a2 2 0 0 0-3.465.029Zm-1.072-.061a2.993 2.993 0 0 0 0 2.092l-.47.271a.5.5 0 0 0 .5.866l.47-.27c.45.542 1.087.924 1.812 1.046v.541a.5.5 0 0 0 1 0v-.541a2.997 2.997 0 0 0 1.812-1.047l.47.271a.5.5 0 1 0 .5-.866l-.47-.27a2.995 2.995 0 0 0 0-2.093l.47-.271a.5.5 0 1 0-.5-.866l-.47.27a2.997 2.997 0 0 0-1.812-1.046V15.5a.5.5 0 0 0-1 0v.541a2.997 2.997 0 0 0-1.812 1.047l-.47-.271a.5.5 0 0 0-.5.866l.47.27Z" clip-rule="evenodd"/></symbol>
  <use href="#icon"/>
</svg>