<svg xmlns="http://www.w3.org/2000/svg">
  <symbol id="icon" fill="none" viewBox="0 0 16 16"><path fill="currentColor" fill-rule="evenodd" d="M9.5 1a.5.5 0 0 1 .5.5V2h2.5A1.5 1.5 0 0 1 14 3.5V6h.5a.5.5 0 1 1 0 1H14v2h.5a.5.5 0 1 1 0 1H14v2.5a1.5 1.5 0 0 1-1.5 1.5H10v.5a.5.5 0 0 1-1 0V14H7v.5a.5.5 0 0 1-1 0V14H3.5A1.5 1.5 0 0 1 2 12.5V10h-.5a.5.5 0 1 1 0-1H2V7h-.5a.5.5 0 1 1 0-1H2V3.5A1.5 1.5 0 0 1 3.5 2H6v-.5a.5.5 0 0 1 1 0V2h2v-.5a.5.5 0 0 1 .5-.5ZM3 3.5a.5.5 0 0 1 .5-.5h9a.5.5 0 0 1 .5.5v9a.5.5 0 0 1-.5.5h-9a.5.5 0 0 1-.5-.5v-9Zm3 3a.5.5 0 0 1 .5-.5h3a.5.5 0 0 1 .5.5v3a.5.5 0 0 1-.5.5h-3a.5.5 0 0 1-.5-.5v-3ZM6.5 5A1.5 1.5 0 0 0 5 6.5v3A1.5 1.5 0 0 0 6.5 11h3A1.5 1.5 0 0 0 11 9.5v-3A1.5 1.5 0 0 0 9.5 5h-3Z" clip-rule="evenodd"/></symbol>
  <symbol id="icon-large" fill="none" viewBox="0 0 24 24"><path fill="currentColor" fill-rule="evenodd" d="M14.5 2a.5.5 0 0 1 .5.5V4h3.5A1.5 1.5 0 0 1 20 5.5V9h1.5a.5.5 0 0 1 0 1H20v4h1.5a.5.5 0 0 1 0 1H20v3.5a1.5 1.5 0 0 1-1.5 1.5H15v1.5a.5.5 0 0 1-1 0V20h-4v1.5a.5.5 0 0 1-1 0V20H5.5A1.5 1.5 0 0 1 4 18.5V15H2.5a.5.5 0 0 1 0-1H4v-4H2.5a.5.5 0 0 1 0-1H4V5.5A1.5 1.5 0 0 1 5.5 4H9V2.5a.5.5 0 0 1 1 0V4h4V2.5a.5.5 0 0 1 .5-.5Zm-5 3h-4a.5.5 0 0 0-.5.5v13a.5.5 0 0 0 .5.5h13a.5.5 0 0 0 .5-.5v-13a.5.5 0 0 0-.5-.5h-9ZM9 9.5a.5.5 0 0 1 .5-.5h5a.5.5 0 0 1 .5.5v5a.5.5 0 0 1-.5.5h-5a.5.5 0 0 1-.5-.5v-5ZM9.5 8A1.5 1.5 0 0 0 8 9.5v5A1.5 1.5 0 0 0 9.5 16h5a1.5 1.5 0 0 0 1.5-1.5v-5A1.5 1.5 0 0 0 14.5 8h-5Z" clip-rule="evenodd"/></symbol>
  <use href="#icon"/>
</svg>