<svg xmlns="http://www.w3.org/2000/svg">
  <symbol id="icon" fill="none" viewBox="0 0 16 16"><path fill="currentColor" fill-rule="evenodd" d="M5.5 1.5a.5.5 0 0 0-1 0v3a.5.5 0 0 0 1 0v-1h9a.5.5 0 0 0 0-1h-9v-1ZM1 3a.5.5 0 0 1 .5-.5h2v1h-2A.5.5 0 0 1 1 3Zm11 3.5a.5.5 0 0 0-1 0v3a.5.5 0 0 0 1 0v-1h2.5a.5.5 0 0 0 0-1H12v-1ZM1 8a.5.5 0 0 1 .5-.5H10v1H1.5A.5.5 0 0 1 1 8Zm7 3.5a.5.5 0 0 0-1 0v3a.5.5 0 0 0 1 0v-1h6.5a.5.5 0 0 0 0-1H8v-1Zm-6.5 1a.5.5 0 0 0 0 1H6v-1H1.5Z" clip-rule="evenodd"/></symbol>
  <symbol id="icon-large" fill="none" viewBox="0 0 24 24"><path fill="currentColor" fill-rule="evenodd" d="M6.5 5.5a1.5 1.5 0 1 1 3 0 1.5 1.5 0 0 1-3 0Zm-.95.5H3.5a.5.5 0 0 1 0-1h2.05a2.5 2.5 0 0 1 4.9 0H20.5a.5.5 0 0 1 0 1H10.45a2.5 2.5 0 0 1-4.9 0Zm8.95 6a1.5 1.5 0 1 1 3 0 1.5 1.5 0 0 1-3 0Zm-.95.5H3.5a.5.5 0 0 1 0-1h10.05a2.5 2.5 0 0 1 4.9 0h2.05a.5.5 0 0 1 0 1h-2.05a2.5 2.5 0 0 1-4.9 0Zm-7.05 6a1.5 1.5 0 1 1 3 0 1.5 1.5 0 0 1-3 0Zm-.95.5H3.5a.5.5 0 0 1 0-1h2.05a2.5 2.5 0 0 1 4.9 0H20.5a.5.5 0 0 1 0 1H10.45a2.5 2.5 0 0 1-4.9 0Z" clip-rule="evenodd"/></symbol>
  <use href="#icon"/>
</svg>