<svg xmlns="http://www.w3.org/2000/svg">
  <symbol id="icon" fill="none" viewBox="0 0 16 16"><path fill="currentColor" fill-rule="evenodd" d="M1.854 1.146a.5.5 0 1 0-.708.708L5.793 6.5l-4.354 4.354a1.5 1.5 0 0 0-.44 1.06v2.587a.5.5 0 0 0 .501.5h2.586a1.5 1.5 0 0 0 1.06-.44L9.5 10.207l4.646 4.647a.5.5 0 0 0 .708-.708l-13-13ZM8.793 9.5 6.5 7.207l-4.354 4.354a.5.5 0 0 0-.146.353v2.087h2.086a.5.5 0 0 0 .353-.147L8.793 9.5Zm1.646-7.646a1.5 1.5 0 0 1 2.122 0l1.585 1.585a1.5 1.5 0 0 1 0 2.122l-3.292 3.293-.708-.708L11.793 6.5 9.5 4.207 7.854 5.854l-.708-.708 3.293-3.292Zm3 3-.939.939L10.207 3.5l.94-.94a.5.5 0 0 1 .707 0l1.585 1.586a.5.5 0 0 1 0 .708Z" clip-rule="evenodd"/></symbol>
  <symbol id="icon-large" fill="none" viewBox="0 0 24 24"><path fill="currentColor" fill-rule="evenodd" d="M16.44 2.354a1.5 1.5 0 0 1 2.12 0l3.086 3.085a1.5 1.5 0 0 1 0 2.122l-5.292 5.293-.708-.707L18.293 9.5 14.5 5.707l-2.646 2.647-.708-.707 5.293-5.293Zm4.5 4.5L19 8.793 15.207 5l1.94-1.94a.5.5 0 0 1 .707 0l3.085 3.087a.5.5 0 0 1 0 .707ZM9.75 10.457l-6.604 6.604a.5.5 0 0 0-.146.353V21h3.586a.5.5 0 0 0 .353-.146l6.604-6.604-3.793-3.793Zm-.707-.707-6.604 6.604A1.5 1.5 0 0 0 2 17.414V21.5a.5.5 0 0 0 .5.5h4.086a1.5 1.5 0 0 0 1.06-.44l6.604-6.603 6.896 6.897a.5.5 0 0 0 .708-.707l-19-19a.5.5 0 1 0-.708.707L9.043 9.75Z" clip-rule="evenodd"/></symbol>
  <use href="#icon"/>
</svg>