<svg xmlns="http://www.w3.org/2000/svg">
  <symbol id="icon" fill="none" viewBox="0 0 16 16"><path fill="currentColor" fill-rule="evenodd" d="M8.5 2a.5.5 0 0 0 0 1 2 2 0 0 1 2 1.995v2.506h-1a.5.5 0 0 0 0 1h1v2.501A2 2 0 0 1 8.5 13a.5.5 0 0 0 0 1 2.997 2.997 0 0 0 2.5-1.34A2.998 2.998 0 0 0 13.5 14a.5.5 0 1 0 0-1 2 2 0 0 1-2-1.997V8.5h1a.5.5 0 0 0 0-1h-1V4.995A2.001 2.001 0 0 1 13.5 3a.5.5 0 0 0 0-1A2.998 2.998 0 0 0 11 3.342 2.998 2.998 0 0 0 8.5 2ZM5.44 5v6.5a.5.5 0 1 1-1 0V5H2.5a.5.5 0 1 1 0-1h5a.5.5 0 0 1 0 1H5.44Z" clip-rule="evenodd"/></symbol>
  <symbol id="icon-large" fill="none" viewBox="0 0 24 24"><path fill="currentColor" fill-rule="evenodd" d="M13 3.5a.5.5 0 0 1 .5-.5c1.506 0 2.818.832 3.5 2.062A3.999 3.999 0 0 1 20.5 3a.5.5 0 0 1 0 1 3 3 0 0 0-3 3v4.5h1a.5.5 0 0 1 0 1h-1V17a3 3 0 0 0 3 3 .5.5 0 0 1 0 1 3.999 3.999 0 0 1-3.5-2.062A3.999 3.999 0 0 1 13.5 21a.5.5 0 0 1 0-1 3 3 0 0 0 3-3v-4.5h-1a.5.5 0 0 1 0-1h1V7a3 3 0 0 0-3-3 .5.5 0 0 1-.5-.5ZM7.5 7v10.5a.5.5 0 0 0 1 0V7h4a.5.5 0 0 0 0-1h-9a.5.5 0 0 0 0 1h4Z" clip-rule="evenodd"/></symbol>
  <use href="#icon"/>
</svg>