<svg xmlns="http://www.w3.org/2000/svg">
  <symbol id="icon" fill="none" viewBox="0 0 16 16"><path fill="currentColor" fill-rule="evenodd" d="M2 2.5a.5.5 0 0 1 .5-.5H4v3.5a.5.5 0 0 0 .5.5h7a.5.5 0 0 0 .5-.5V2h.086a.5.5 0 0 1 .353.146l1.415 1.415a.5.5 0 0 1 .146.353V8h1V3.914a1.5 1.5 0 0 0-.44-1.06l-1.414-1.415A1.5 1.5 0 0 0 12.086 1H2.5A1.5 1.5 0 0 0 1 2.5v11A1.5 1.5 0 0 0 2.5 15H8v-1H5V9.5a.5.5 0 0 1 .5-.5H12V8H5.5A1.5 1.5 0 0 0 4 9.5V14H2.5a.5.5 0 0 1-.5-.5v-11ZM5 2v3h6V2H5Zm9.646 8.854a.914.914 0 0 0-1.18-.096l1.276 1.277a.914.914 0 0 0-.096-1.181ZM10.5 13.707l2.25-2.25 1.293 1.293-2.25 2.25H10.5v-1.293Zm2.146-3.56a1.914 1.914 0 0 1 2.708 2.707l-3 3A.5.5 0 0 1 12 16h-2a.5.5 0 0 1-.5-.5v-2a.5.5 0 0 1 .146-.354l3-3Z" clip-rule="evenodd"/></symbol>
  <symbol id="icon-large" fill="none" viewBox="0 0 24 24"><path fill="currentColor" fill-rule="evenodd" d="M4 4.5a.5.5 0 0 1 .5-.5H7v4.5a.5.5 0 0 0 .5.5h9a.5.5 0 0 0 .5-.5V4h.086a.5.5 0 0 1 .353.146l2.415 2.415a.5.5 0 0 1 .146.353V13h1V6.914a1.5 1.5 0 0 0-.44-1.06l-2.414-2.415A1.5 1.5 0 0 0 17.086 3H4.5A1.5 1.5 0 0 0 3 4.5v15A1.5 1.5 0 0 0 4.5 21H13v-1H8v-6.5a.5.5 0 0 1 .5-.5h7a.5.5 0 0 1 .5.5V16h1v-2.5a1.5 1.5 0 0 0-1.5-1.5h-7A1.5 1.5 0 0 0 7 13.5V20H4.5a.5.5 0 0 1-.5-.5v-15ZM8 4v4h8V4H8Zm12.854 12.56a.5.5 0 0 0-.708 0l-.439.44L21 18.293l.44-.44a.5.5 0 0 0 0-.707l-.586-.585Zm-2.208.086v.001l-3.5 3.5A.5.5 0 0 0 15 20.5v2a.5.5 0 0 0 .5.5h2a.5.5 0 0 0 .354-.146l3.5-3.5.792-.793a1.5 1.5 0 0 0 0-2.122l-.585-.585a1.5 1.5 0 0 0-2.122 0l-.792.792ZM16 22h1.293l3-3L19 17.707l-3 3V22Z" clip-rule="evenodd"/></symbol>
  <use href="#icon"/>
</svg>