<svg xmlns="http://www.w3.org/2000/svg">
  <symbol id="icon" fill="none" viewBox="0 0 16 16"><path fill="currentColor" fill-rule="evenodd" d="M2 2.5a.5.5 0 0 1 .5-.5H4v3.5a.5.5 0 0 0 .5.5h7a.5.5 0 0 0 .5-.5V2h.086a.5.5 0 0 1 .353.146l1.415 1.415a.5.5 0 0 1 .146.353V8h1V3.914a1.5 1.5 0 0 0-.44-1.06l-1.414-1.415A1.5 1.5 0 0 0 12.086 1H2.5A1.5 1.5 0 0 0 1 2.5v11A1.5 1.5 0 0 0 2.5 15H8v-1H5V9.5a.5.5 0 0 1 .5-.5H11V8H5.5A1.5 1.5 0 0 0 4 9.5V14H2.5a.5.5 0 0 1-.5-.5v-11ZM5 2v3h6V2H5Zm7.5 7a.5.5 0 0 1 .5.5v.55c.541.11 1.019.394 1.371.792l.477-.275a.5.5 0 1 1 .5.866l-.476.275a2.497 2.497 0 0 1 0 1.584l.476.275a.5.5 0 1 1-.5.866l-.477-.275c-.352.398-.83.682-1.371.792v.55a.5.5 0 0 1-1 0v-.55a2.498 2.498 0 0 1-1.371-.792l-.477.275a.5.5 0 0 1-.5-.866l.476-.275a2.497 2.497 0 0 1 0-1.584l-.476-.275a.5.5 0 1 1 .5-.866l.477.275c.352-.398.83-.682 1.371-.792V9.5a.5.5 0 0 1 .5-.5Zm0 2a1.5 1.5 0 1 0 0 3 1.5 1.5 0 0 0 0-3Z" clip-rule="evenodd"/></symbol>
  <symbol id="icon-large" fill="none" viewBox="0 0 24 24"><path fill="currentColor" fill-rule="evenodd" d="M4 4.5a.5.5 0 0 1 .5-.5H7v4.5a.5.5 0 0 0 .5.5h9a.5.5 0 0 0 .5-.5V4h.086a.5.5 0 0 1 .353.146l2.415 2.415a.5.5 0 0 1 .146.353V13h1V6.914a1.5 1.5 0 0 0-.44-1.06l-2.414-2.415A1.5 1.5 0 0 0 17.086 3H4.5A1.5 1.5 0 0 0 3 4.5v15A1.5 1.5 0 0 0 4.5 21H14v-1H8v-6.5a.5.5 0 0 1 .5-.5h7a.5.5 0 0 1 .5.5v.5h1v-.5a1.5 1.5 0 0 0-1.5-1.5h-7A1.5 1.5 0 0 0 7 13.5V20H4.5a.5.5 0 0 1-.5-.5v-15ZM8 4v4h8V4H8Zm11 11a.5.5 0 0 1 .5.5v.541a2.997 2.997 0 0 1 1.812 1.047l.47-.271a.5.5 0 1 1 .5.866l-.47.27a2.995 2.995 0 0 1 0 2.093l.47.271a.5.5 0 1 1-.5.866l-.47-.27a2.997 2.997 0 0 1-1.812 1.046v.541a.5.5 0 0 1-1 0v-.541a2.997 2.997 0 0 1-1.812-1.047l-.47.271a.5.5 0 0 1-.5-.866l.47-.27a2.993 2.993 0 0 1 0-2.093l-.47-.271a.5.5 0 0 1 .5-.866l.47.27a2.997 2.997 0 0 1 1.812-1.046V15.5a.5.5 0 0 1 .5-.5Zm2 4c0 .358-.094.695-.26.986l-.008.014-.008.014a2 2 0 0 1-3.448 0L17.268 20l-.009-.015A1.991 1.991 0 0 1 17 19c0-.358.094-.694.26-.985l.008-.015.008-.014a1.999 1.999 0 0 1 3.448 0l.008.014.009.014c.165.291.259.628.259.986Z" clip-rule="evenodd"/></symbol>
  <use href="#icon"/>
</svg>