<svg xmlns="http://www.w3.org/2000/svg">
  <symbol id="icon" fill="none" viewBox="0 0 16 16"><path fill="currentColor" fill-rule="evenodd" d="M2 2.5a.5.5 0 0 1 .5-.5h2a.5.5 0 0 0 0-1h-2A1.5 1.5 0 0 0 1 2.5v2a.5.5 0 0 0 1 0v-2ZM11.5 1a.5.5 0 0 0 0 1h2a.5.5 0 0 1 .5.5v2a.5.5 0 0 0 1 0v-2A1.5 1.5 0 0 0 13.5 1h-2ZM2 11.5a.5.5 0 0 0-1 0v2A1.5 1.5 0 0 0 2.5 15h2a.5.5 0 0 0 0-1h-2a.5.5 0 0 1-.5-.5v-2Zm13 0a.5.5 0 0 0-1 0v2a.5.5 0 0 1-.5.5h-2a.5.5 0 0 0 0 1h2a1.5 1.5 0 0 0 1.5-1.5v-2ZM7.752 4.718a.5.5 0 0 1 .496 0L10.492 6 8 7.424 5.508 6l2.244-1.282ZM8.5 8.29 11 6.862V9.42a.5.5 0 0 1-.252.434L8.5 11.138V8.29Zm-1 0L5 6.862V9.42a.5.5 0 0 0 .252.434L7.5 11.138V8.29Zm1.244-4.44a1.5 1.5 0 0 0-1.488 0l-2.5 1.428A1.5 1.5 0 0 0 4 6.58v2.84a1.5 1.5 0 0 0 .756 1.302l2.5 1.429a1.5 1.5 0 0 0 1.488 0l2.5-1.429A1.5 1.5 0 0 0 12 9.42V6.58a1.5 1.5 0 0 0-.756-1.302l-2.5-1.429Z" clip-rule="evenodd"/></symbol>
  <symbol id="icon-large" fill="none" viewBox="0 0 24 24"><path fill="currentColor" fill-rule="evenodd" d="M3 4.5A1.5 1.5 0 0 1 4.5 3h3a.5.5 0 0 1 0 1h-3a.5.5 0 0 0-.5.5v3a.5.5 0 0 1-1 0v-3Zm9.257 2.737a.5.5 0 0 0-.514 0L8.01 9.477 12 11.913l3.989-2.438-3.732-2.239ZM7.5 13.934v-3.598l4 2.444v3.837l-3.757-2.254a.5.5 0 0 1-.243-.43Zm5 2.683 3.757-2.254a.5.5 0 0 0 .243-.43v-3.597l-4 2.444v3.837ZM11.228 6.38a1.5 1.5 0 0 1 1.544 0l4 2.4a1.5 1.5 0 0 1 .728 1.286v3.868a1.5 1.5 0 0 1-.728 1.286l-4 2.4a1.5 1.5 0 0 1-1.544 0l-4-2.4a1.5 1.5 0 0 1-.728-1.286v-3.868a1.5 1.5 0 0 1 .728-1.286l4-2.4ZM16.5 3a.5.5 0 0 0 0 1h3a.5.5 0 0 1 .5.5v3a.5.5 0 0 0 1 0v-3A1.5 1.5 0 0 0 19.5 3h-3Zm-13 13a.5.5 0 0 1 .5.5v3a.5.5 0 0 0 .5.5h3a.5.5 0 0 1 0 1h-3A1.5 1.5 0 0 1 3 19.5v-3a.5.5 0 0 1 .5-.5Zm17.5.5a.5.5 0 0 0-1 0v3a.5.5 0 0 1-.5.5h-3a.5.5 0 0 0 0 1h3a1.5 1.5 0 0 0 1.5-1.5v-3Z" clip-rule="evenodd"/></symbol>
  <use href="#icon"/>
</svg>