<svg xmlns="http://www.w3.org/2000/svg">
  <symbol id="icon" fill="none" viewBox="0 0 16 16"><path fill="currentColor" fill-rule="evenodd" d="M2.5 2a.5.5 0 0 0-.5.5v11a.5.5 0 0 0 .5.5H4V9.5A1.5 1.5 0 0 1 5.5 8h5A1.5 1.5 0 0 1 12 9.5V14h1.5a.5.5 0 0 0 .5-.5V3.914a.5.5 0 0 0-.146-.353l-1.415-1.415A.5.5 0 0 0 12.086 2H12v3.5a.5.5 0 0 1-.5.5h-7a.5.5 0 0 1-.5-.5V2H2.5Zm2-1h-2A1.5 1.5 0 0 0 1 2.5v11A1.5 1.5 0 0 0 2.5 15h11a1.5 1.5 0 0 0 1.5-1.5V3.914a1.5 1.5 0 0 0-.44-1.06l-1.414-1.415A1.5 1.5 0 0 0 12.086 1H4.5ZM5 2v3h6V2H5Zm6 12H5V9.5a.5.5 0 0 1 .5-.5h5a.5.5 0 0 1 .5.5V14Z" clip-rule="evenodd"/></symbol>
  <symbol id="icon-large" fill="none" viewBox="0 0 24 24"><path fill="currentColor" fill-rule="evenodd" d="M4.5 4a.5.5 0 0 0-.5.5v15a.5.5 0 0 0 .5.5H7v-6.5A1.5 1.5 0 0 1 8.5 12h7a1.5 1.5 0 0 1 1.5 1.5V20h2.5a.5.5 0 0 0 .5-.5V6.914a.5.5 0 0 0-.146-.353l-2.415-2.415A.5.5 0 0 0 17.086 4H17v4.5a.5.5 0 0 1-.5.5h-9a.5.5 0 0 1-.5-.5V4H4.5Zm3-1h-3A1.5 1.5 0 0 0 3 4.5v15A1.5 1.5 0 0 0 4.5 21h15a1.5 1.5 0 0 0 1.5-1.5V6.914a1.5 1.5 0 0 0-.44-1.06l-2.414-2.415A1.5 1.5 0 0 0 17.086 3H7.5ZM8 4v4h8V4H8Zm8 16H8v-6.5a.5.5 0 0 1 .5-.5h7a.5.5 0 0 1 .5.5V20Z" clip-rule="evenodd"/></symbol>
  <use href="#icon"/>
</svg>