<svg xmlns="http://www.w3.org/2000/svg">
  <symbol id="icon" fill="none" viewBox="0 0 16 16"><path fill="currentColor" fill-rule="evenodd" d="M2.5 2A1.5 1.5 0 0 0 1 3.5V6h1V3.5a.5.5 0 0 1 .5-.5h11a.5.5 0 0 1 .5.5v9a.5.5 0 0 1-.5.5H9v1h4.5a1.5 1.5 0 0 0 1.5-1.5v-9A1.5 1.5 0 0 0 13.5 2h-11Zm-1 5a.5.5 0 0 0 0 1A5.5 5.5 0 0 1 7 13.5a.5.5 0 0 0 1 0A6.5 6.5 0 0 0 1.5 7ZM1 9.5a.5.5 0 0 1 .5-.5A4.5 4.5 0 0 1 6 13.5a.5.5 0 0 1-1 0A3.5 3.5 0 0 0 1.5 10a.5.5 0 0 1-.5-.5Zm.5 1.5a.5.5 0 0 0 0 1A1.5 1.5 0 0 1 3 13.5a.5.5 0 0 0 1 0A2.5 2.5 0 0 0 1.5 11Z" clip-rule="evenodd"/></symbol>
  <symbol id="icon-large" fill="none" viewBox="0 0 24 24"><path fill="currentColor" fill-rule="evenodd" d="M3.5 4A1.5 1.5 0 0 0 2 5.5V9h1V5.5a.5.5 0 0 1 .5-.5h17a.5.5 0 0 1 .5.5v13a.5.5 0 0 1-.5.5H13v1h7.5a1.5 1.5 0 0 0 1.5-1.5v-13A1.5 1.5 0 0 0 20.5 4h-17Zm-1 7a.5.5 0 0 0 0 1 7.5 7.5 0 0 1 7.5 7.5.5.5 0 0 0 1 0A8.5 8.5 0 0 0 2.5 11ZM2 14.5a.5.5 0 0 1 .5-.5A5.5 5.5 0 0 1 8 19.5a.5.5 0 0 1-1 0A4.5 4.5 0 0 0 2.5 15a.5.5 0 0 1-.5-.5Zm.5 2.5a.5.5 0 0 0 0 1A1.5 1.5 0 0 1 4 19.5a.5.5 0 0 0 1 0A2.5 2.5 0 0 0 2.5 17Z" clip-rule="evenodd"/></symbol>
  <use href="#icon"/>
</svg>
