<svg xmlns="http://www.w3.org/2000/svg">
  <symbol id="icon" fill="none" viewBox="0 0 16 16"><path fill="currentColor" fill-rule="evenodd" d="M2 2.5a.5.5 0 0 1 .5-.5h11a.5.5 0 0 1 .5.5v11a.5.5 0 0 1-.5.5h-11a.5.5 0 0 1-.5-.5v-11ZM2.5 1A1.5 1.5 0 0 0 1 2.5v11A1.5 1.5 0 0 0 2.5 15h11a1.5 1.5 0 0 0 1.5-1.5v-11A1.5 1.5 0 0 0 13.5 1h-11Zm8.354 4.646a.5.5 0 0 0-.708.708L11.793 8l-1.647 1.646a.5.5 0 0 0 .708.708l2-2a.5.5 0 0 0 0-.708l-2-2ZM8.62 5.515a.5.5 0 0 1 .364.606l-1 4a.5.5 0 0 1-.97-.242l1-4a.5.5 0 0 1 .606-.364Zm-2.767.839a.5.5 0 1 0-.708-.708l-2 2a.5.5 0 0 0 0 .708l2 2a.5.5 0 0 0 .708-.708L4.207 8l1.647-1.646Z" clip-rule="evenodd"/></symbol>
  <symbol id="icon-large" fill="none" viewBox="0 0 24 24"><path fill="currentColor" fill-rule="evenodd" d="M4 4.5a.5.5 0 0 1 .5-.5h15a.5.5 0 0 1 .5.5v15a.5.5 0 0 1-.5.5h-15a.5.5 0 0 1-.5-.5v-15ZM4.5 3A1.5 1.5 0 0 0 3 4.5v15A1.5 1.5 0 0 0 4.5 21h15a1.5 1.5 0 0 0 1.5-1.5v-15A1.5 1.5 0 0 0 19.5 3h-15Zm10.854 5.646a.5.5 0 0 0-.708.708L17.293 12l-2.647 2.646a.5.5 0 0 0 .708.708l3-3a.5.5 0 0 0 0-.708l-3-3Zm-2.196-.12a.5.5 0 0 1 .316.632l-2 6a.5.5 0 1 1-.948-.316l2-6a.5.5 0 0 1 .632-.316Zm-3.804.828a.5.5 0 1 0-.708-.708l-3 3a.5.5 0 0 0 0 .708l3 3a.5.5 0 0 0 .708-.708L6.707 12l2.647-2.646Z" clip-rule="evenodd"/></symbol>
  <use href="#icon"/>
</svg>