<svg xmlns="http://www.w3.org/2000/svg">
  <symbol id="icon" fill="none" viewBox="0 0 16 16"><path fill="currentColor" fill-rule="evenodd" d="M2.5 2a.5.5 0 0 0-.5.5v11a.5.5 0 0 0 .5.5H8v1H2.5A1.5 1.5 0 0 1 1 13.5v-11A1.5 1.5 0 0 1 2.5 1h11A1.5 1.5 0 0 1 15 2.5V8h-1V2.5a.5.5 0 0 0-.5-.5h-11ZM10 12.5a2.5 2.5 0 1 1 5 0 2.5 2.5 0 0 1-5 0ZM12.5 9a3.5 3.5 0 1 0 0 7 3.5 3.5 0 0 0 0-7Zm1.416 3.277a.5.5 0 0 0-.832-.554l-.755 1.132-.605-.302a.5.5 0 1 0-.448.894l1 .5a.5.5 0 0 0 .64-.17l1-1.5Zm-3.062-6.63a.5.5 0 0 0-.708.707l2 2 .708-.708-2-2ZM8.62 5.514a.5.5 0 0 1 .364.606l-1 4a.5.5 0 0 1-.97-.242l1-4a.5.5 0 0 1 .606-.364Zm-2.767.839a.5.5 0 1 0-.708-.708l-2 2a.5.5 0 0 0 0 .708l2 2a.5.5 0 0 0 .708-.708L4.207 8l1.647-1.646Z" clip-rule="evenodd"/></symbol>
  <symbol id="icon-large" fill="none" viewBox="0 0 24 24"><path fill="currentColor" fill-rule="evenodd" d="M4.5 4a.5.5 0 0 0-.5.5v15a.5.5 0 0 0 .5.5H13v1H4.5A1.5 1.5 0 0 1 3 19.5v-15A1.5 1.5 0 0 1 4.5 3h15A1.5 1.5 0 0 1 21 4.5V13h-1V4.5a.5.5 0 0 0-.5-.5h-15ZM16 19a3 3 0 1 1 6 0 3 3 0 0 1-6 0Zm3-4a4 4 0 1 0 0 8 4 4 0 0 0 0-8Zm1.854 3.604a.5.5 0 0 0-.708-.708L18.5 19.543l-.646-.647a.5.5 0 0 0-.708.708l1 1a.5.5 0 0 0 .708 0l2-2Zm-11.5-9.25a.5.5 0 1 0-.708-.708l-3 3a.5.5 0 0 0 0 .708l3 3a.5.5 0 0 0 .708-.708L6.707 12l2.647-2.646Zm3.804-.828a.5.5 0 0 1 .316.632l-2 6a.5.5 0 1 1-.948-.316l2-6a.5.5 0 0 1 .632-.316Zm2.196.12a.5.5 0 0 0-.708.708L17.293 12l-2.647 2.646a.5.5 0 0 0 .708.708l3-3a.5.5 0 0 0 0-.708l-3-3Z" clip-rule="evenodd"/></symbol>
  <use href="#icon"/>
</svg>