<svg xmlns="http://www.w3.org/2000/svg">
  <symbol id="icon" fill="none" viewBox="0 0 16 16"><path fill="currentColor" fill-rule="evenodd" d="M2.5 2a.5.5 0 0 0-.5.5v1a.5.5 0 0 1-1 0v-1A1.5 1.5 0 0 1 2.5 1h1a.5.5 0 0 1 0 1h-1ZM5 1.5a.5.5 0 0 1 .5-.5H7a.5.5 0 0 1 0 1H5.5a.5.5 0 0 1-.5-.5Zm7 0a.5.5 0 0 1 .5-.5h1A1.5 1.5 0 0 1 15 2.5v1a.5.5 0 0 1-1 0v-1a.5.5 0 0 0-.5-.5h-1a.5.5 0 0 1-.5-.5Zm-3.5 0A.5.5 0 0 1 9 1h1.5a.5.5 0 0 1 0 1H9a.5.5 0 0 1-.5-.5ZM1.5 5a.5.5 0 0 1 .5.5V7a.5.5 0 0 1-1 0V5.5a.5.5 0 0 1 .5-.5Zm13 0a.5.5 0 0 1 .5.5V7a.5.5 0 0 1-1 0V5.5a.5.5 0 0 1 .5-.5Zm-13 3.5A.5.5 0 0 1 2 9v1.5a.5.5 0 0 1-1 0V9a.5.5 0 0 1 .5-.5Zm13 0a.5.5 0 0 1 .5.5v1.5a.5.5 0 0 1-1 0V9a.5.5 0 0 1 .5-.5ZM1.5 12a.5.5 0 0 1 .5.5v1a.5.5 0 0 0 .5.5h1a.5.5 0 1 1 0 1h-1A1.5 1.5 0 0 1 1 13.5v-1a.5.5 0 0 1 .5-.5Zm13 0a.5.5 0 0 1 .5.5v1a1.5 1.5 0 0 1-1.5 1.5h-1a.5.5 0 0 1 0-1h1a.5.5 0 0 0 .5-.5v-1a.5.5 0 0 1 .5-.5ZM5 14.5a.5.5 0 0 1 .5-.5H7a.5.5 0 1 1 0 1H5.5a.5.5 0 0 1-.5-.5Zm3.5 0A.5.5 0 0 1 9 14h1.5a.5.5 0 1 1 0 1H9a.5.5 0 0 1-.5-.5ZM4 6a1 1 0 0 1 1-1h3a1 1 0 0 1 1 1v4a1 1 0 0 1-1 1H5a1 1 0 0 1-1-1V6Zm4 0H5v4h3V6Zm3-1h-1v1h1v4h-1v1h1a1 1 0 0 0 1-1V6a1 1 0 0 0-1-1Z" clip-rule="evenodd"/></symbol>
  <symbol id="icon-large" fill="none" viewBox="0 0 24 24"><path fill="currentColor" fill-rule="evenodd" d="M4.5 4a.5.5 0 0 0-.5.5v1a.5.5 0 0 1-1 0v-1A1.5 1.5 0 0 1 4.5 3h1a.5.5 0 0 1 0 1h-1ZM8 3.5a.5.5 0 0 1 .5-.5h2a.5.5 0 0 1 0 1h-2a.5.5 0 0 1-.5-.5Zm5 0a.5.5 0 0 1 .5-.5h2a.5.5 0 0 1 0 1h-2a.5.5 0 0 1-.5-.5Zm5 0a.5.5 0 0 1 .5-.5h1A1.5 1.5 0 0 1 21 4.5v1a.5.5 0 0 1-1 0v-1a.5.5 0 0 0-.5-.5h-1a.5.5 0 0 1-.5-.5ZM3.5 8a.5.5 0 0 1 .5.5v2a.5.5 0 0 1-1 0v-2a.5.5 0 0 1 .5-.5Zm17 0a.5.5 0 0 1 .5.5v2a.5.5 0 0 1-1 0v-2a.5.5 0 0 1 .5-.5Zm-17 5a.5.5 0 0 1 .5.5v2a.5.5 0 0 1-1 0v-2a.5.5 0 0 1 .5-.5Zm17 0a.5.5 0 0 1 .5.5v2a.5.5 0 0 1-1 0v-2a.5.5 0 0 1 .5-.5Zm-17 5a.5.5 0 0 1 .5.5v1a.5.5 0 0 0 .5.5h1a.5.5 0 0 1 0 1h-1A1.5 1.5 0 0 1 3 19.5v-1a.5.5 0 0 1 .5-.5Zm17 0a.5.5 0 0 1 .5.5v1a1.5 1.5 0 0 1-1.5 1.5h-1a.5.5 0 0 1 0-1h1a.5.5 0 0 0 .5-.5v-1a.5.5 0 0 1 .5-.5ZM8 20.5a.5.5 0 0 1 .5-.5h2a.5.5 0 0 1 0 1h-2a.5.5 0 0 1-.5-.5Zm5 0a.5.5 0 0 1 .5-.5h2a.5.5 0 0 1 0 1h-2a.5.5 0 0 1-.5-.5ZM8.5 9a.5.5 0 0 0-.5.5v5a.5.5 0 0 0 .5.5h4a.5.5 0 0 0 .5-.5v-5a.5.5 0 0 0-.5-.5h-4ZM7 9.5A1.5 1.5 0 0 1 8.5 8h4A1.5 1.5 0 0 1 14 9.5v5a1.5 1.5 0 0 1-1.5 1.5h-4A1.5 1.5 0 0 1 7 14.5v-5ZM15.5 8H15v1h.5a.5.5 0 0 1 .5.5v5a.5.5 0 0 1-.5.5H15v1h.5a1.5 1.5 0 0 0 1.5-1.5v-5A1.5 1.5 0 0 0 15.5 8Z" clip-rule="evenodd"/></symbol>
  <use href="#icon"/>
</svg>