<svg xmlns="http://www.w3.org/2000/svg">
  <symbol id="icon" fill="none" viewBox="0 0 16 16"><path fill="currentColor" fill-rule="evenodd" d="M7.39 1.5a1 1 0 0 0-.97.757l-.354 1.416-.846.489-1.403-.401a1 1 0 0 0-1.141.461l-.61 1.056a1 1 0 0 0 .17 1.219l1.05 1.014v.978l-1.05 1.014a1 1 0 0 0-.17 1.22l.61 1.055a1 1 0 0 0 1.14.461l1.404-.4.846.488.354 1.415a1 1 0 0 0 .97.758h1.22a1 1 0 0 0 .97-.758l.354-1.415.847-.489 1.402.401a1 1 0 0 0 1.141-.461l.61-1.056a1 1 0 0 0-.17-1.219l-1.05-1.014v-.978l1.05-1.014a1 1 0 0 0 .17-1.219l-.61-1.056a1 1 0 0 0-1.14-.461l-1.403.401-.847-.489-.354-1.416a1 1 0 0 0-.97-.757H7.39Zm0 1h1.22l.354 1.416a1 1 0 0 0 .47.623l.846.489a1 1 0 0 0 .776.095l1.402-.4.61 1.055-1.049 1.014a1 1 0 0 0-.305.72v.977a1 1 0 0 0 .305.719l1.049 1.014-.61 1.056-1.402-.401a1 1 0 0 0-.775.095l-.847.489a1 1 0 0 0-.47.623L8.61 13.5H7.39l-.353-1.415a1 1 0 0 0-.47-.624l-.847-.489a1 1 0 0 0-.775-.095l-1.403.401-.61-1.056 1.049-1.014a1 1 0 0 0 .305-.719v-.978a1 1 0 0 0-.305-.719L2.932 5.778l.61-1.056 1.403.401a1 1 0 0 0 .775-.095l.846-.489a1 1 0 0 0 .47-.623L7.39 2.5ZM6.5 8a1.5 1.5 0 1 1 3 0 1.5 1.5 0 0 1-3 0ZM8 5.5a2.5 2.5 0 1 0 0 5 2.5 2.5 0 0 0 0-5Z" clip-rule="evenodd"/></symbol>
  <symbol id="icon-large" fill="none" viewBox="0 0 24 24"><path fill="currentColor" fill-rule="evenodd" d="M11 2a1 1 0 0 0-.894.553l-.834 1.666-.845.35-1.768-.589a1 1 0 0 0-1.023.242L4.222 5.636a1 1 0 0 0-.242 1.023l.59 1.768-.351.845-1.666.834A1 1 0 0 0 2 11v2a1 1 0 0 0 .553.894l1.666.833.35.846-.589 1.768a1 1 0 0 0 .242 1.023l1.414 1.414a1 1 0 0 0 1.023.242l1.768-.59.845.351.834 1.666A1 1 0 0 0 11 22h2a1 1 0 0 0 .894-.553l.833-1.666.846-.35 1.768.589a1 1 0 0 0 1.023-.242l1.414-1.414a1 1 0 0 0 .242-1.023l-.59-1.768.351-.846 1.666-.833A1 1 0 0 0 22 13v-2a1 1 0 0 0-.553-.894l-1.666-.834-.35-.845.589-1.768a1 1 0 0 0-.242-1.023l-1.414-1.414a1 1 0 0 0-1.023-.242l-1.768.59-.846-.351-.833-1.666A1 1 0 0 0 13 2h-2ZM8.464 5.636 10 5l1-2h2l1 2 1.536.636 2.12-.707 1.415 1.414-.707 2.121L19 10l2 1v2l-2 1-.636 1.536.707 2.12-1.414 1.415-2.121-.707L14 19l-1 2h-2l-1-2-1.536-.636-2.12.707-1.415-1.414.707-2.121L5 14l-2-1v-2l2-1 .636-1.536-.707-2.12 1.414-1.415 2.121.707ZM9 12a3 3 0 1 1 6 0 3 3 0 0 1-6 0Zm3-4a4 4 0 1 0 0 8 4 4 0 0 0 0-8Z" clip-rule="evenodd"/></symbol>
  <use href="#icon"/>
</svg>