<svg xmlns="http://www.w3.org/2000/svg">
  <symbol id="icon" fill="none" viewBox="0 0 16 16"><path fill="currentColor" fill-rule="evenodd" d="M2 3.5a.5.5 0 0 1 .5-.5H4v10H2.5a.5.5 0 0 1-.5-.5v-9ZM5 13h3v1H2.5A1.5 1.5 0 0 1 1 12.5v-9A1.5 1.5 0 0 1 2.5 2h11A1.5 1.5 0 0 1 15 3.5V8h-1V3.5a.5.5 0 0 0-.5-.5H5v10Zm2-7.5a.5.5 0 0 1 .5-.5h4a.5.5 0 0 1 0 1h-4a.5.5 0 0 1-.5-.5Zm6 4a.5.5 0 0 0-1 0v.55a2.498 2.498 0 0 0-1.371.792l-.477-.275a.5.5 0 0 0-.5.866l.476.275a2.497 2.497 0 0 0 0 1.584l-.476.275a.5.5 0 1 0 .5.866l.477-.275c.352.398.83.682 1.371.792v.55a.5.5 0 0 0 1 0v-.55a2.497 2.497 0 0 0 1.371-.792l.477.275a.5.5 0 1 0 .5-.866l-.476-.275a2.497 2.497 0 0 0 0-1.584l.476-.275a.5.5 0 1 0-.5-.866l-.477.275A2.497 2.497 0 0 0 13 10.05V9.5Zm-2 3a1.5 1.5 0 1 1 3 0 1.5 1.5 0 0 1-3 0ZM7.5 7a.5.5 0 0 0 0 1h4a.5.5 0 0 0 0-1h-4Z" clip-rule="evenodd"/></symbol>
  <symbol id="icon-large" fill="none" viewBox="0 0 24 24"><path fill="currentColor" fill-rule="evenodd" d="M3 5.5a.5.5 0 0 1 .5-.5H7v14H3.5a.5.5 0 0 1-.5-.5v-13ZM8 19h5v1H3.5A1.5 1.5 0 0 1 2 18.5v-13A1.5 1.5 0 0 1 3.5 4h17A1.5 1.5 0 0 1 22 5.5V14h-1V5.5a.5.5 0 0 0-.5-.5H8v14Zm11-4a.5.5 0 0 1 .5.5v.541a2.997 2.997 0 0 1 1.812 1.047l.47-.271a.5.5 0 0 1 .5.866l-.47.27a2.995 2.995 0 0 1 0 2.093l.47.271a.5.5 0 0 1-.5.866l-.47-.27a2.997 2.997 0 0 1-1.812 1.046v.541a.5.5 0 0 1-1 0v-.541a2.997 2.997 0 0 1-1.812-1.047l-.47.271a.5.5 0 0 1-.5-.866l.47-.27a2.995 2.995 0 0 1 0-2.093l-.47-.271a.5.5 0 0 1 .5-.866l.47.27a2.997 2.997 0 0 1 1.812-1.046V15.5a.5.5 0 0 1 .5-.5Zm2 4c0 .358-.094.695-.26.985l-.008.015-.008.014a1.999 1.999 0 0 1-3.448 0L17.268 20l-.009-.014A1.99 1.99 0 0 1 17 19c0-.358.094-.695.26-.986l.008-.014.008-.014a2 2 0 0 1 3.448 0l.008.014.009.015c.165.29.259.627.259.985ZM10 7.5a.5.5 0 0 1 .5-.5h8a.5.5 0 0 1 0 1h-8a.5.5 0 0 1-.5-.5Zm.5 2.5a.5.5 0 0 0 0 1h8a.5.5 0 0 0 0-1h-8Zm-.5 3.5a.5.5 0 0 1 .5-.5h5a.5.5 0 0 1 0 1h-5a.5.5 0 0 1-.5-.5Z" clip-rule="evenodd"/></symbol>
  <use href="#icon"/>
</svg>