<svg xmlns="http://www.w3.org/2000/svg">
  <symbol id="icon" fill="none" viewBox="0 0 16 16"><path fill="currentColor" fill-rule="evenodd" d="M8.053 2.045a.167.167 0 0 0-.106 0L3 3.694c0 .419-.007.837-.015 1.254-.018 1.051-.037 2.093.062 3.104.137 1.398.493 2.642 1.333 3.623.426.498 1.127.986 1.844 1.4.706.406 1.385.715 1.73.864.03.013.062.013.092 0 .345-.15 1.024-.458 1.73-.865.718-.413 1.418-.901 1.844-1.399.84-.982 1.196-2.225 1.333-3.623.099-1.011.08-2.052.062-3.104A71.617 71.617 0 0 1 13 3.694l-4.947-1.65Zm-.422-.949c.24-.08.499-.08.738 0l5.285 1.761a.506.506 0 0 1 .346.48v.347c0 .383.007.781.014 1.188.02 1.073.04 2.205-.066 3.277-.146 1.496-.54 2.974-1.568 4.176-.54.632-1.362 1.189-2.104 1.616-.753.433-1.469.758-1.834.916a1.11 1.11 0 0 1-.884 0 18.538 18.538 0 0 1-1.833-.916c-.742-.427-1.565-.985-2.105-1.616-1.028-1.202-1.422-2.68-1.568-4.176-.105-1.072-.085-2.204-.066-3.277.007-.407.014-.805.014-1.188v-.346c0-.218.14-.412.346-.48l5.285-1.762Z" clip-rule="evenodd"/></symbol>
  <symbol id="icon-large" fill="none" viewBox="0 0 24 24"><path fill="currentColor" fill-rule="evenodd" d="M12.141 3.063a.5.5 0 0 0-.282 0L4 5.374v.073c0 .42-.003.84-.006 1.263-.013 1.798-.025 3.611.19 5.344.265 2.129.868 4.069 2.196 5.62.672.787 1.77 1.503 2.865 2.08a23.27 23.27 0 0 0 2.612 1.163.404.404 0 0 0 .286 0 23.312 23.312 0 0 0 2.612-1.164c1.095-.576 2.193-1.292 2.865-2.078 1.328-1.552 1.931-3.492 2.196-5.621.215-1.733.203-3.546.19-5.344-.003-.423-.006-.844-.006-1.263v-.073l-7.859-2.311Zm-.564-.96a1.5 1.5 0 0 1 .846 0l8.213 2.416a.507.507 0 0 1 .364.486v.442c0 .403.003.813.006 1.228.013 1.802.027 3.698-.198 5.502-.277 2.23-.923 4.389-2.428 6.148-.8.934-2.035 1.722-3.159 2.313a24.296 24.296 0 0 1-2.729 1.216 1.403 1.403 0 0 1-.984 0 24.289 24.289 0 0 1-2.73-1.216c-1.123-.591-2.359-1.379-3.158-2.313-1.505-1.76-2.151-3.917-2.428-6.148-.225-1.804-.21-3.7-.198-5.502C2.997 6.26 3 5.85 3 5.447v-.442c0-.225.148-.423.364-.486l8.213-2.416Z" clip-rule="evenodd"/></symbol>
  <use href="#icon"/>
</svg>