<svg xmlns="http://www.w3.org/2000/svg">
  <symbol id="icon" fill="none" viewBox="0 0 16 16"><path fill="currentColor" fill-rule="evenodd" d="M8 2a6 6 0 1 0 0 12A6 6 0 0 0 8 2ZM1 8a7 7 0 1 1 14 0A7 7 0 0 1 1 8Zm3.27 3.444a.5.5 0 0 0 .674-.214c.418-.808 1.282-1.318 2.306-1.318s1.888.51 2.306 1.318a.5.5 0 1 0 .888-.46C9.838 9.597 8.61 8.912 7.25 8.912c-1.36 0-2.588.685-3.194 1.858a.5.5 0 0 0 .214.674ZM6 5.5V5H5v2.5a.5.5 0 0 0 1 0v-2Zm3.5 0V5h-1v2.5a.5.5 0 0 0 1 0v-2Z" clip-rule="evenodd"/></symbol>
  <symbol id="icon-large" fill="none" viewBox="0 0 24 24"><path fill="currentColor" fill-rule="evenodd" d="M12 3a9 9 0 1 0 0 18 9 9 0 0 0 0-18ZM2 12C2 6.477 6.477 2 12 2s10 4.477 10 10-4.477 10-10 10S2 17.523 2 12Zm3.77 4.944a.5.5 0 0 0 .674-.214 4 4 0 0 1 7.112 0 .5.5 0 0 0 .888-.46 5 5 0 0 0-8.888 0 .5.5 0 0 0 .214.674ZM8 8.5V8H7v3.5a.5.5 0 0 0 1 0v-3Zm5 0V8h-1v3.5a.5.5 0 0 0 1 0v-3Z" clip-rule="evenodd"/></symbol>
  <use href="#icon"/>
</svg>