<svg xmlns="http://www.w3.org/2000/svg">
  <symbol id="icon" fill="none" viewBox="0 0 16 16"><path fill="currentColor" fill-rule="evenodd" d="M8 2a6 6 0 1 0 0 12A6 6 0 0 0 8 2ZM1 8a7 7 0 1 1 14 0A7 7 0 0 1 1 8Zm4.363 3.344a.5.5 0 0 1-.736-.677L5 11a30.62 30.62 0 0 1-.373-.333l.002-.002.002-.003.006-.006.013-.014.039-.037c.031-.028.073-.063.126-.103.107-.078.26-.173.47-.263.418-.182 1.05-.344 1.965-.344s1.547.162 1.966.344c.208.09.362.185.469.263a1.527 1.527 0 0 1 .165.14l.013.014.006.006.002.003.001.001c.001.001.001.001-.372.334l.373-.333a.5.5 0 0 1-.736.677l-.001-.001a1.427 1.427 0 0 0-.318-.187c-.279-.12-.773-.261-1.568-.261s-1.289.14-1.567.261a1.427 1.427 0 0 0-.319.187ZM6 5.5a.5.5 0 1 0-1 0v2a.5.5 0 0 0 1 0v-2Zm3.5 0a.5.5 0 1 0-1 0v2a.5.5 0 0 0 1 0v-2Z" clip-rule="evenodd"/></symbol>
  <symbol id="icon-large" fill="none" viewBox="0 0 24 24"><path fill="currentColor" fill-rule="evenodd" d="M12 3a9 9 0 1 0 0 18 9 9 0 0 0 0-18ZM2 12C2 6.477 6.477 2 12 2s10 4.477 10 10-4.477 10-10 10S2 17.523 2 12Zm5.146 4.854a.5.5 0 0 1 0-.708l.354.354-.353-.354.001-.002.003-.002.005-.005.017-.016.051-.045c.043-.037.104-.085.183-.14.158-.112.39-.254.702-.393C8.737 15.264 9.681 15 11 15s2.263.264 2.89.543c.313.14.545.28.703.392a2.553 2.553 0 0 1 .234.186l.017.016.005.005.003.003.001.001-.353.354.354-.354a.5.5 0 0 1-.704.711h-.001l-.001-.002.001.001-.007-.006-.013-.012a1.618 1.618 0 0 0-.113-.086 3.128 3.128 0 0 0-.532-.295C12.987 16.236 12.181 16 11 16s-1.987.236-2.484.457c-.25.11-.425.22-.532.295a1.623 1.623 0 0 0-.133.104l-.001.001a.5.5 0 0 1-.704-.003ZM9 8.5a.5.5 0 0 0-1 0v3a.5.5 0 0 0 1 0v-3Zm5 0a.5.5 0 0 0-1 0v3a.5.5 0 0 0 1 0v-3Z" clip-rule="evenodd"/></symbol>
  <use href="#icon"/>
</svg>