<svg xmlns="http://www.w3.org/2000/svg">
  <symbol id="icon" fill="none" viewBox="0 0 16 16"><path fill="currentColor" fill-rule="evenodd" d="M11.146 3.146a.5.5 0 0 1 .708 0l2 2a.5.5 0 0 1-.708.708L12 4.707V12.5a.5.5 0 1 1-1 0V4.707L9.854 5.854a.5.5 0 1 1-.708-.708l2-2ZM2.5 4a.5.5 0 0 0 0 1h2a.5.5 0 0 0 0-1h-2Zm0 3.5a.5.5 0 0 0 0 1h4a.5.5 0 0 0 0-1h-4Zm0 3.5a.5.5 0 0 0 0 1h6a.5.5 0 0 0 0-1h-6Z" clip-rule="evenodd"/></symbol>
  <symbol id="icon-large" fill="none" viewBox="0 0 24 24"><path fill="currentColor" fill-rule="evenodd" d="M17.947 3.276a.5.5 0 0 0-.894 0l-1.996 3.991a.44.44 0 0 0-.01.02l-1.494 2.99a.5.5 0 1 0 .894.447L15.81 8h3.382l1.362 2.724a.5.5 0 1 0 .894-.448l-1.495-2.99a.344.344 0 0 0-.01-.019l-1.995-3.99ZM18.691 7 17.5 4.618 16.309 7h2.382ZM14 13.5a.5.5 0 0 1 .5-.5h6a.5.5 0 0 1 .38.825L15.587 20H20.5a.5.5 0 0 1 0 1h-6a.5.5 0 0 1-.38-.825L19.413 14H14.5a.5.5 0 0 1-.5-.5ZM3.146 16.146a.5.5 0 0 1 .708 0L6 18.293V4.5a.5.5 0 0 1 1 0v13.793l2.146-2.147a.5.5 0 0 1 .708.708l-3 3a.5.5 0 0 1-.705.002m-.003-.003-3-3a.5.5 0 0 1 0-.707" clip-rule="evenodd"/></symbol>
  <use href="#icon"/>
</svg>