<svg xmlns="http://www.w3.org/2000/svg">
  <symbol id="icon" fill="none" viewBox="0 0 16 16"><path fill="currentColor" fill-rule="evenodd" d="M9 2a.5.5 0 0 0-.79-.407L4.97 3.907A.5.5 0 0 1 4.68 4H2.5A1.5 1.5 0 0 0 1 5.5v5A1.5 1.5 0 0 0 2.5 12h2.18a.5.5 0 0 1 .29.093l3.24 2.314A.5.5 0 0 0 9 14V2ZM5.551 4.72 8 2.973v10.056L5.551 11.28A1.5 1.5 0 0 0 4.68 11H2.5a.5.5 0 0 1-.5-.5v-5a.5.5 0 0 1 .5-.5h2.18a1.5 1.5 0 0 0 .871-.28Zm5.803.926a.5.5 0 0 0-.708.708L12.293 8l-1.647 1.646a.5.5 0 0 0 .708.708L13 8.707l1.646 1.647a.5.5 0 0 0 .708-.708L13.707 8l1.647-1.646a.5.5 0 0 0-.708-.708L13 7.293l-1.646-1.647Z" clip-rule="evenodd"/></symbol>
  <symbol id="icon-large" fill="none" viewBox="0 0 24 24"><path fill="currentColor" fill-rule="evenodd" d="M13 3.5a.5.5 0 0 0-.762-.426L5.979 6.926A.5.5 0 0 1 5.717 7H2.5A1.5 1.5 0 0 0 1 8.5v7A1.5 1.5 0 0 0 2.5 17h3.217a.5.5 0 0 1 .262.074l6.259 3.852A.5.5 0 0 0 13 20.5v-17ZM6.503 7.777 12 4.395v15.21l-5.497-3.383A1.5 1.5 0 0 0 5.717 16H2.5a.5.5 0 0 1-.5-.5v-7a.5.5 0 0 1 .5-.5h3.217a1.5 1.5 0 0 0 .786-.223Zm10.35 1.37a.5.5 0 0 0-.707.707L18.293 12l-2.147 2.146a.5.5 0 0 0 .708.708L19 12.707l2.146 2.147a.5.5 0 0 0 .708-.708L19.707 12l2.147-2.146a.5.5 0 0 0-.708-.708L19 11.293l-2.146-2.147Z" clip-rule="evenodd"/></symbol>
  <use href="#icon"/>
</svg>