<svg xmlns="http://www.w3.org/2000/svg">
  <symbol id="icon" fill="none" viewBox="0 0 16 16"><path fill="currentColor" fill-rule="evenodd" d="M9 2a.5.5 0 0 0-.79-.407L4.97 3.907A.5.5 0 0 1 4.68 4H2.5A1.5 1.5 0 0 0 1 5.5v5A1.5 1.5 0 0 0 2.5 12h2.18a.5.5 0 0 1 .29.093l3.24 2.314A.5.5 0 0 0 9 14V2ZM5.551 4.72 8 2.973v10.056L5.551 11.28A1.5 1.5 0 0 0 4.68 11H2.5a.5.5 0 0 1-.5-.5v-5a.5.5 0 0 1 .5-.5h2.18a1.5 1.5 0 0 0 .871-.28Zm5.426-.095a.5.5 0 1 0-.662.75A3.49 3.49 0 0 1 11.5 8a3.49 3.49 0 0 1-1.185 2.625.5.5 0 0 0 .662.75A4.49 4.49 0 0 0 12.5 8a4.49 4.49 0 0 0-1.523-3.375Z" clip-rule="evenodd"/></symbol>
  <symbol id="icon-large" fill="none" viewBox="0 0 24 24"><path fill="currentColor" fill-rule="evenodd" d="M13 3.5a.5.5 0 0 0-.762-.426L5.979 6.926A.5.5 0 0 1 5.717 7H2.5A1.5 1.5 0 0 0 1 8.5v7A1.5 1.5 0 0 0 2.5 17h3.217a.5.5 0 0 1 .262.074l6.259 3.852A.5.5 0 0 0 13 20.5v-17ZM6.503 7.777 12 4.395v15.21l-5.497-3.383A1.5 1.5 0 0 0 5.717 16H2.5a.5.5 0 0 1-.5-.5v-7a.5.5 0 0 1 .5-.5h3.217a1.5 1.5 0 0 0 .786-.223Zm9.872-.077a.5.5 0 0 0-.75.662A5.477 5.477 0 0 1 17 12a5.478 5.478 0 0 1-1.375 3.638.5.5 0 0 0 .75.662A6.478 6.478 0 0 0 18 12a6.478 6.478 0 0 0-1.625-4.3Z" clip-rule="evenodd"/></symbol>
  <use href="#icon"/>
</svg>