<svg xmlns="http://www.w3.org/2000/svg">
  <symbol id="icon" fill="none" viewBox="0 0 16 16"><path fill="currentColor" fill-rule="evenodd" d="M8.5 2a.5.5 0 0 0-1 0v7h1V2Zm-1 10v2a.5.5 0 1 0 1 0v-2h-1ZM4.396 4.096a.5.5 0 0 1 .708 0l1.5 1.5a.5.5 0 0 1 0 .708l-1.5 1.5a.5.5 0 1 1-.708-.708l.855-.854c-.991.186-1.81.465-2.385.79C2.199 7.41 2 7.763 2 8c0 .156.08.36.347.603.267.243.682.485 1.236.698C4.69 9.726 6.25 10 8 10s3.311-.274 4.417-.699c.554-.213.969-.455 1.236-.698C13.92 8.36 14 8.156 14 8c0-.237-.199-.59-.866-.968-.637-.36-1.574-.664-2.713-.847a.5.5 0 1 1 .158-.987c1.21.194 2.273.525 3.048.964C14.373 6.585 15 7.197 15 8c0 .535-.284.988-.674 1.343-.391.355-.928.652-1.55.891C11.529 10.714 9.84 11 8 11c-1.84 0-3.529-.286-4.776-.766-.621-.239-1.159-.536-1.55-.891C1.284 8.988 1 8.535 1 8c0-.803.627-1.415 1.373-1.838.659-.373 1.526-.668 2.514-.868l-.49-.49a.5.5 0 0 1 0-.708Z" clip-rule="evenodd"/></symbol>
  <symbol id="icon-large" fill="none" viewBox="0 0 24 24"><path fill="currentColor" fill-rule="evenodd" d="M12.5 3.5a.5.5 0 0 0-1 0V14h1V3.5Zm-1 13.5v3.5a.5.5 0 0 0 1 0V17h-1ZM7.646 6.546a.5.5 0 0 1 .708 0l2 2a.5.5 0 0 1 0 .708l-2 2a.5.5 0 0 1-.708-.708L9.013 9.18c-1.833.229-3.38.659-4.455 1.2C3.428 10.946 3 11.536 3 12c0 .285.155.62.575.985.418.365 1.053.716 1.88 1.02C7.106 14.615 9.42 15 12 15s4.894-.386 6.545-.994c.827-.305 1.461-.656 1.88-1.02.42-.366.575-.7.575-.986 0-.463-.428-1.053-1.558-1.62-1.085-.546-2.65-.979-4.503-1.206a.5.5 0 1 1 .122-.992c1.923.235 3.609.69 4.83 1.304C21.067 10.076 22 10.916 22 12c0 .681-.376 1.268-.918 1.74-.543.472-1.3.876-2.192 1.204C17.103 15.603 14.667 16 12 16s-5.103-.397-6.89-1.056c-.892-.329-1.649-.732-2.192-1.205C2.376 13.267 2 12.681 2 12c0-1.083.933-1.923 2.11-2.514 1.151-.58 2.718-1.017 4.507-1.262l-.97-.97a.5.5 0 0 1 0-.708Z" clip-rule="evenodd"/></symbol>
  <use href="#icon"/>
</svg>