<svg xmlns="http://www.w3.org/2000/svg">
  <symbol id="icon" fill="none" viewBox="0 0 16 16"><path fill="currentColor" fill-rule="evenodd" d="M7.246 1.641a.836.836 0 0 1 1.508 0l1.722 3.594 3.963.52c.696.092.979.95.466 1.435l-2.898 2.74.728 3.915a.836.836 0 0 1-1.22.887L8 12.832l-3.515 1.9a.836.836 0 0 1-1.22-.887l.728-3.914-2.898-2.74a.835.835 0 0 1 .466-1.435l3.963-.52L7.246 1.64Zm.754.74L6.388 5.749a.836.836 0 0 1-.645.467l-3.709.487 2.711 2.564c.206.195.3.48.248.759l-.681 3.664 3.29-1.78a.837.837 0 0 1 .796 0l3.29 1.78-.68-3.664a.835.835 0 0 1 .247-.759l2.71-2.564-3.707-.487a.836.836 0 0 1-.646-.467L8 2.382Z" clip-rule="evenodd"/></symbol>
  <symbol id="icon-large" fill="none" viewBox="0 0 24 24"><path fill="currentColor" fill-rule="evenodd" d="M11.094 2.57a1.005 1.005 0 0 1 1.812 0l2.64 5.512s.001.002.003.002l6.077.798c.836.11 1.175 1.14.56 1.722l-4.445 4.204-.001.001 1.116 6.004c.155.832-.726 1.465-1.465 1.065l-5.389-2.914h-.004l-5.389 2.914c-.74.4-1.62-.233-1.465-1.065L6.26 14.81v-.002l-4.446-4.203c-.615-.582-.276-1.612.56-1.722l6.077-.798.003-.001 2.64-5.513Zm.903.43v.002L9.355 8.514a1.004 1.004 0 0 1-.775.561l-6.077.799H2.5a.016.016 0 0 0 0 .003l4.445 4.204c.247.234.36.576.297.91l-1.116 6.005.001.002.003.002.002-.002 5.389-2.913c.298-.162.658-.162.956 0l5.389 2.913a.02.02 0 0 0 .002.002l.003-.002.001-.001v-.001l-1.116-6.004c-.062-.335.05-.678.297-.911l4.445-4.204v-.003h-.003l-6.077-.799a1.004 1.004 0 0 1-.775-.56l-2.64-5.513V3a.018.018 0 0 0-.006 0Z" clip-rule="evenodd"/></symbol>
  <use href="#icon"/>
</svg>