<svg xmlns="http://www.w3.org/2000/svg">
  <symbol id="icon" fill="none" viewBox="0 0 16 16"><path fill="currentColor" fill-rule="evenodd" d="M7.748 1.726a.5.5 0 0 1 .504 0l5 2.916a.5.5 0 0 1 .248.432v5.852a.5.5 0 0 1-.248.431l-5 2.917a.5.5 0 0 1-.504 0l-5-2.916a.5.5 0 0 1-.248-.432V5.074a.5.5 0 0 1 .248-.432l5-2.916ZM8.756.862a1.5 1.5 0 0 0-1.512 0l-5 2.917A1.5 1.5 0 0 0 1.5 5.074v5.852a1.5 1.5 0 0 0 .744 1.295l5 2.917a1.5 1.5 0 0 0 1.512 0l5-2.917a1.5 1.5 0 0 0 .744-1.295V5.074a1.5 1.5 0 0 0-.744-1.295l-5-2.917Zm2.139 5.445a.5.5 0 0 0-.79-.614L6.953 9.746l-1.1-1.1a.5.5 0 0 0-.707.708l1.5 1.5a.5.5 0 0 0 .749-.047l3.5-4.5Z" clip-rule="evenodd"/></symbol>
  <symbol id="icon-large" fill="none" viewBox="0 0 24 24"><path fill="currentColor" fill-rule="evenodd" d="M11.74 2.245a.5.5 0 0 1 .52 0l8 4.89a.5.5 0 0 1 .24.426v8.878a.5.5 0 0 1-.24.427l-8 4.889a.5.5 0 0 1-.52 0l-8-4.89a.5.5 0 0 1-.24-.426V7.561a.5.5 0 0 1 .24-.427l8-4.889Zm1.042-.853a1.5 1.5 0 0 0-1.564 0l-8 4.889A1.5 1.5 0 0 0 2.5 7.56v8.878a1.5 1.5 0 0 0 .718 1.28l8 4.889a1.5 1.5 0 0 0 1.564 0l8-4.889a1.5 1.5 0 0 0 .718-1.28V7.561a1.5 1.5 0 0 0-.718-1.28l-8-4.889Zm3.102 8.428a.5.5 0 0 0-.768-.64l-4.65 5.58-1.612-1.614a.5.5 0 1 0-.708.707l2 2a.5.5 0 0 0 .738-.033l5-6Z" clip-rule="evenodd"/></symbol>
  <use href="#icon"/>
</svg>