<svg xmlns="http://www.w3.org/2000/svg">
  <symbol id="icon" fill="none" viewBox="0 0 16 16"><path fill="currentColor" fill-rule="evenodd" d="M8.252 1.726a.5.5 0 0 0-.504 0l-5 2.916a.5.5 0 0 0-.248.432v5.852a.5.5 0 0 0 .248.431l5 2.917a.5.5 0 0 0 .504 0l5-2.916a.5.5 0 0 0 .248-.432V5.074a.5.5 0 0 0-.248-.432l-5-2.916ZM7.244.862a1.5 1.5 0 0 1 1.512 0l5 2.917a1.5 1.5 0 0 1 .744 1.295v5.852a1.5 1.5 0 0 1-.744 1.295l-5 2.917a1.5 1.5 0 0 1-1.512 0l-5-2.917a1.5 1.5 0 0 1-.744-1.295V5.074a1.5 1.5 0 0 1 .744-1.295l5-2.917ZM8.75 10.75a.75.75 0 1 1-1.5 0 .75.75 0 0 1 1.5 0ZM8.5 5.5a.5.5 0 0 0-1 0v3a.5.5 0 0 0 1 0v-3Z" clip-rule="evenodd"/></symbol>
  <symbol id="icon-large" fill="none" viewBox="0 0 24 24"><path fill="currentColor" fill-rule="evenodd" d="M12.26 2.245a.5.5 0 0 0-.52 0l-8 4.89a.5.5 0 0 0-.24.426v8.878a.5.5 0 0 0 .24.427l8 4.889a.5.5 0 0 0 .52 0l8-4.89a.5.5 0 0 0 .24-.426V7.561a.5.5 0 0 0-.24-.427l-8-4.889Zm-1.042-.853a1.5 1.5 0 0 1 1.564 0l8 4.889a1.5 1.5 0 0 1 .718 1.28v8.878a1.5 1.5 0 0 1-.718 1.28l-8 4.889a1.5 1.5 0 0 1-1.564 0l-8-4.889a1.5 1.5 0 0 1-.718-1.28V7.561a1.5 1.5 0 0 1 .718-1.28l8-4.889ZM12.75 15.75a.75.75 0 1 1-1.5 0 .75.75 0 0 1 1.5 0ZM12.5 8a.5.5 0 0 0-1 0v5a.5.5 0 1 0 1 0V8Z" clip-rule="evenodd"/></symbol>
  <use href="#icon"/>
</svg>