<svg xmlns="http://www.w3.org/2000/svg">
  <symbol id="icon" fill="none" viewBox="0 0 16 16"><path fill="currentColor" fill-rule="evenodd" d="M8.354 2.06a.5.5 0 0 0-.708 0L2.061 7.647a.5.5 0 0 0 0 .707l5.585 5.586a.5.5 0 0 0 .708 0l5.585-5.586a.5.5 0 0 0 0-.707L8.354 2.061Zm-1.415-.707a1.5 1.5 0 0 1 2.122 0l5.585 5.586a1.5 1.5 0 0 1 0 2.122l-5.585 5.585a1.5 1.5 0 0 1-2.122 0L1.354 9.061a1.5 1.5 0 0 1 0-2.122l5.585-5.586ZM8.75 10.75a.75.75 0 1 1-1.5 0 .75.75 0 0 1 1.5 0ZM8.5 8.5v-3a.5.5 0 0 0-1 0v3a.5.5 0 0 0 1 0Z" clip-rule="evenodd"/></symbol>
  <symbol id="icon-large" fill="none" viewBox="0 0 24 24"><path fill="currentColor" fill-rule="evenodd" d="M12.354 2.56a.5.5 0 0 0-.708 0l-9.085 9.086a.5.5 0 0 0 0 .707l9.085 9.086a.5.5 0 0 0 .707 0l9.086-9.086a.5.5 0 0 0 0-.707l-9.085-9.085Zm-1.415-.707a1.5 1.5 0 0 1 2.122 0l9.085 9.086a1.5 1.5 0 0 1 0 2.121l-9.085 9.086a1.5 1.5 0 0 1-2.122 0L1.854 13.06a1.5 1.5 0 0 1 0-2.12l9.085-9.087ZM12.75 15.75a.75.75 0 1 1-1.5 0 .75.75 0 0 1 1.5 0ZM12.5 13V8a.5.5 0 0 0-1 0v5a.5.5 0 1 0 1 0Z" clip-rule="evenodd"/></symbol>
  <use href="#icon"/>
</svg>