<svg xmlns="http://www.w3.org/2000/svg">
  <symbol id="icon" fill="none" viewBox="0 0 16 16"><path fill="currentColor" fill-rule="evenodd" d="M6.5 1a.5.5 0 0 0 0 1h1v1.02a6 6 0 1 0 1 0V2h1a.5.5 0 0 0 0-1h-3ZM3 9a5 5 0 1 1 10 0A5 5 0 0 1 3 9Zm7.854-2.146a.5.5 0 0 0-.708-.708l-2.5 2.5a.5.5 0 1 0 .708.708l2.5-2.5Z" clip-rule="evenodd"/></symbol>
  <symbol id="icon-large" fill="none" viewBox="0 0 24 24"><path fill="currentColor" fill-rule="evenodd" d="M9.5 1a.5.5 0 0 0 0 1h2v1.013a9.5 9.5 0 1 0 10 9.487c0-5.079-3.986-9.227-9-9.487V2h2a.5.5 0 0 0 0-1h-5Zm-6 11.5a8.5 8.5 0 1 1 17 0 8.5 8.5 0 0 1-17 0Zm13.354-4.146a.5.5 0 0 0-.708-.708l-4.5 4.5a.5.5 0 0 0 .708.708l4.5-4.5Z" clip-rule="evenodd"/></symbol>
  <use href="#icon"/>
</svg>