<svg xmlns="http://www.w3.org/2000/svg">
  <symbol id="icon" fill="none" viewBox="0 0 16 16"><path fill="currentColor" fill-rule="evenodd" d="M8.5 1a.5.5 0 0 0-1 0v1.5a.5.5 0 0 0 1 0V1ZM3.354 2.646a.5.5 0 1 0-.708.708l1 1a.5.5 0 1 0 .708-.708l-1-1Zm10 0a.5.5 0 0 0-.708 0l-1 1a.5.5 0 0 0 .708.708l1-1a.5.5 0 0 0 0-.708ZM1 7.5a.5.5 0 0 0 0 1h1.5a.5.5 0 0 0 0-1H1Zm12.5 0a.5.5 0 0 0 0 1H15a.5.5 0 0 0 0-1h-1.5ZM3.354 13.354l1-1a.5.5 0 0 0-.708-.708l-1 1a.5.5 0 0 0 .708.708Zm10-.708-1-1a.5.5 0 0 0-.708.708l1 1a.5.5 0 0 0 .708-.708ZM8.5 13.5a.5.5 0 0 0-1 0V15a.5.5 0 0 0 1 0v-1.5ZM5 8a3 3 0 1 1 6 0 3 3 0 0 1-6 0Zm3-4a4 4 0 1 0 0 8 4 4 0 0 0 0-8Z" clip-rule="evenodd"/></symbol>
  <symbol id="icon-large" fill="none" viewBox="0 0 24 24"><path fill="currentColor" fill-rule="evenodd" d="M12.5 1.5a.5.5 0 0 0-1 0v2a.5.5 0 0 0 1 0v-2ZM4.854 4.146a.5.5 0 1 0-.708.708l1.5 1.5a.5.5 0 1 0 .708-.708l-1.5-1.5Zm15 .708a.5.5 0 0 0-.708-.708l-1.5 1.5a.5.5 0 0 0 .708.708l1.5-1.5ZM1.5 11.5a.5.5 0 0 0 0 1h2a.5.5 0 0 0 0-1h-2Zm19 0a.5.5 0 0 0 0 1h2a.5.5 0 0 0 0-1h-2ZM4.854 19.854l1.5-1.5a.5.5 0 0 0-.708-.708l-1.5 1.5a.5.5 0 0 0 .708.708Zm15-.708-1.5-1.5a.5.5 0 0 0-.708.708l1.5 1.5a.5.5 0 0 0 .708-.708ZM12.5 20.5a.5.5 0 0 0-1 0v2a.5.5 0 0 0 1 0v-2ZM7 12a5 5 0 1 1 10 0 5 5 0 0 1-10 0Zm5-6a6 6 0 1 0 0 12 6 6 0 0 0 0-12Z" clip-rule="evenodd"/></symbol>
  <use href="#icon"/>
</svg>