<svg xmlns="http://www.w3.org/2000/svg">
  <symbol id="icon" fill="none" viewBox="0 0 16 16"><path fill="currentColor" fill-rule="evenodd" d="M8.207 1a1 1 0 0 0-1.414 0L3 4.793a1 1 0 0 0 0 1.414L4.293 7.5a1 1 0 0 0 1.414 0l.043-.043.293.293-4.647 4.646a1.56 1.56 0 1 0 2.208 2.207L8.25 9.957l.293.293-.043.043a1 1 0 0 0 0 1.414L9.793 13a1 1 0 0 0 1.414 0L15 9.207a1 1 0 0 0 0-1.414L13.707 6.5a1 1 0 0 0-1.414 0l-.043.043L9.457 3.75l.043-.043a1 1 0 0 0 0-1.414L8.207 1Zm.543 3.457L6.457 6.75 9.25 9.543l2.293-2.293L8.75 4.457ZM3.707 5.5 7.5 1.707 8.793 3 5 6.793 3.707 5.5Zm-1.603 7.604L6.75 8.457l.793.793-4.647 4.646a.56.56 0 1 1-.792-.793ZM9.207 11 13 7.207 14.293 8.5 10.5 12.293 9.207 11Z" clip-rule="evenodd"/></symbol>
  <symbol id="icon-large" fill="none" viewBox="0 0 24 24"><path fill="currentColor" fill-rule="evenodd" d="M11.146 3.06a.5.5 0 0 1 .708 0l1.085 1.086a.5.5 0 0 1 0 .707l-.293.293L7.854 9.94a.5.5 0 0 1-.708 0L6.061 8.853a.5.5 0 0 1 0-.707l5.085-5.085Zm2.56 2.438a1.5 1.5 0 0 0-.06-2.059l-1.085-1.086a1.5 1.5 0 0 0-2.122 0L5.354 7.44a1.5 1.5 0 0 0 0 2.122l1.085 1.085a1.5 1.5 0 0 0 2.06.06l1.044 1.044-6.897 6.896a1.914 1.914 0 0 0 2.708 2.707l6.896-6.896 1.045 1.045a1.5 1.5 0 0 0 .059 2.059l1.085 1.085a1.5 1.5 0 0 0 2.122 0l5.085-5.086a1.5 1.5 0 0 0 0-2.12l-1.085-1.087a1.5 1.5 0 0 0-2.06-.059l-4.796-4.796ZM13 6.207 9.207 10 14 14.793 17.793 11 13 6.207Zm-2.75 6.25 1.293 1.293-6.897 6.896a.914.914 0 0 1-1.292-1.293l6.896-6.896Zm8.896-1.397a.5.5 0 0 1 .708 0l1.085 1.086a.5.5 0 0 1 0 .707l-5.085 5.086a.5.5 0 0 1-.708 0l-1.085-1.086a.5.5 0 0 1 0-.707l5.085-5.086Z" clip-rule="evenodd"/></symbol>
  <use href="#icon"/>
</svg>