<svg xmlns="http://www.w3.org/2000/svg">
  <symbol id="icon" fill="none" viewBox="0 0 16 16"><path fill="currentColor" fill-rule="evenodd" d="M10.854 1.146a.5.5 0 0 0-.708.708L12.293 4H4.5a.5.5 0 0 0 0 1h7.793l-2.147 2.146a.5.5 0 0 0 .708.708l3-3a.5.5 0 0 0 0-.708l-3-3Zm-5 7.708a.5.5 0 1 0-.708-.708l-3 3a.5.5 0 0 0 0 .708l3 3a.5.5 0 0 0 .708-.707L3.707 12H11.5a.5.5 0 1 0 0-1H3.707l2.147-2.146Z" clip-rule="evenodd"/></symbol>
  <symbol id="icon-large" fill="none" viewBox="0 0 24 24"><path fill="currentColor" fill-rule="evenodd" d="M16.854 3.146a.5.5 0 0 0-.708.708L19.293 7H6.5a.5.5 0 0 0 0 1h12.793l-3.147 3.146a.5.5 0 0 0 .708.708l4-4a.5.5 0 0 0 0-.708l-4-4Zm-9 9.708a.5.5 0 0 0-.708-.708l-4 4a.5.5 0 0 0 0 .708l4 4a.5.5 0 0 0 .708-.708L4.707 17H17.5a.5.5 0 0 0 0-1H4.707l3.147-3.146Z" clip-rule="evenodd"/></symbol>
  <use href="#icon"/>
</svg>