<svg xmlns="http://www.w3.org/2000/svg">
  <symbol id="icon" fill="none" viewBox="0 0 16 16"><path fill="currentColor" fill-rule="evenodd" d="M2 2.5a.5.5 0 0 1 .5-.5h5a.5.5 0 0 1 .5.5V11a3 3 0 1 1-6 0V2.5ZM2.5 1A1.5 1.5 0 0 0 1 2.5V11a4 4 0 0 0 4 4h8.5a1.5 1.5 0 0 0 1.5-1.5v-5c0-.504-.249-.95-.63-1.223a1.5 1.5 0 0 0-.223-1.838L10.56 1.854a1.5 1.5 0 0 0-1.838-.223A1.498 1.498 0 0 0 7.5 1h-5Zm11 13H7.706l5.97-5.968A.5.5 0 0 1 14 8.5v5a.5.5 0 0 1-.5.5ZM9 2.708V11c0 .102-.004.204-.011.304l4.45-4.45a.5.5 0 0 0 0-.708L9.854 2.561a.5.5 0 0 0-.708 0L9 2.707ZM4.5 11a.5.5 0 1 1 1 0 .5.5 0 0 1-1 0ZM5 9.5a1.5 1.5 0 1 0 0 3 1.5 1.5 0 0 0 0-3Z" clip-rule="evenodd"/></symbol>
  <symbol id="icon-large" fill="none" viewBox="0 0 24 24"><path fill="currentColor" fill-rule="evenodd" d="M3 3.5a.5.5 0 0 1 .5-.5h8a.5.5 0 0 1 .5.5v13a4.48 4.48 0 0 1-.91 2.714A4.5 4.5 0 0 1 3 16.5v-13Zm-1 13A5.5 5.5 0 0 0 7.5 22h13a1.5 1.5 0 0 0 1.5-1.5v-8a1.5 1.5 0 0 0-1.307-1.488 1.5 1.5 0 0 0-.047-2.073l-5.585-5.585a1.5 1.5 0 0 0-2.073-.047A1.5 1.5 0 0 0 11.5 2h-8A1.5 1.5 0 0 0 2 3.5v13ZM20.5 12h-.793l-7.827 7.828c-.343.45-.754.846-1.217 1.172H20.5a.5.5 0 0 0 .5-.5v-8a.5.5 0 0 0-.5-.5Zm-7.567 5.36 7.006-7.006a.5.5 0 0 0 0-.708l-5.585-5.585a.5.5 0 0 0-.708 0L13 4.707V16.5c0 .293-.023.58-.067.86ZM6 16.5a1.5 1.5 0 1 1 3 0 1.5 1.5 0 0 1-3 0ZM7.5 14a2.5 2.5 0 1 0 0 5 2.5 2.5 0 0 0 0-5Z" clip-rule="evenodd"/></symbol>
  <use href="#icon"/>
</svg>