<svg xmlns="http://www.w3.org/2000/svg">
  <symbol id="icon" fill="none" viewBox="0 0 16 16"><path fill="currentColor" fill-rule="evenodd" d="M2.5 1a.5.5 0 0 0-.5.5V3a.5.5 0 0 0 1 0V2h4.5v12h-2a.5.5 0 0 0 0 1h5a.5.5 0 0 0 0-1h-2V2H13v1a.5.5 0 0 0 1 0V1.5a.5.5 0 0 0-.5-.5h-11Z" clip-rule="evenodd"/></symbol>
  <symbol id="icon-large" fill="none" viewBox="0 0 24 24"><path fill="currentColor" fill-rule="evenodd" d="M4.5 3a.5.5 0 0 0-.5.5v2a.5.5 0 0 0 1 0V4h6.5v16h-3a.5.5 0 0 0 0 1h7a.5.5 0 0 0 0-1h-3V4H19v1.5a.5.5 0 0 0 1 0v-2a.5.5 0 0 0-.5-.5h-15Z" clip-rule="evenodd"/></symbol>
  <use href="#icon"/>
</svg>