<svg xmlns="http://www.w3.org/2000/svg">
  <symbol id="icon" fill="none" viewBox="0 0 16 16"><path fill="currentColor" fill-rule="evenodd" d="M1.5 3a.5.5 0 0 0 0 1h13a.5.5 0 0 0 0-1h-13ZM4 8a.5.5 0 0 1 .5-.5h7a.5.5 0 0 1 0 1h-7A.5.5 0 0 1 4 8Zm-1.5 4.5A.5.5 0 0 1 3 12h10a.5.5 0 0 1 0 1H3a.5.5 0 0 1-.5-.5Z" clip-rule="evenodd"/></symbol>
  <symbol id="icon-large" fill="none" viewBox="0 0 24 24"><path fill="currentColor" fill-rule="evenodd" d="M3.5 4a.5.5 0 0 0 0 1h17a.5.5 0 0 0 0-1h-17ZM6 9.5a.5.5 0 0 1 .5-.5h11a.5.5 0 0 1 0 1h-11a.5.5 0 0 1-.5-.5ZM3.5 14a.5.5 0 0 0 0 1h17a.5.5 0 0 0 0-1h-17Zm3 5a.5.5 0 0 0 0 1h11a.5.5 0 0 0 0-1h-11Z" clip-rule="evenodd"/></symbol>
  <use href="#icon"/>
</svg>