<svg xmlns="http://www.w3.org/2000/svg">
  <symbol id="icon" fill="none" viewBox="0 0 16 16"><path fill="currentColor" fill-rule="evenodd" d="M5.722 4.055a4.5 4.5 0 1 1 6.224 6.224 5.5 5.5 0 0 0-6.224-6.224ZM4.41 4.41a5.501 5.501 0 1 1 7.178 7.178A5.502 5.502 0 0 1 1 9.5a5.502 5.502 0 0 1 3.41-5.09ZM6.5 5a4.5 4.5 0 1 0 0 9 4.5 4.5 0 0 0 0-9Zm-2 1a.5.5 0 0 1 .5.5c0 .24.019.475.055.705a.5.5 0 0 1-.988.155A5.537 5.537 0 0 1 4 6.5a.5.5 0 0 1 .5-.5Zm.66 3.035a.5.5 0 0 1 .699.11c.278.382.614.718.996.996a.5.5 0 0 1-.588.809A5.53 5.53 0 0 1 5.05 9.733a.5.5 0 0 1 .11-.698Zm3.064 2.326a.5.5 0 0 1 .571-.416c.23.036.465.055.705.055a.5.5 0 0 1 0 1c-.292 0-.58-.023-.86-.067a.5.5 0 0 1-.416-.572Z" clip-rule="evenodd"/></symbol>
  <symbol id="icon-large" fill="none" viewBox="0 0 24 24"><path fill="currentColor" fill-rule="evenodd" d="M7.321 7.321a7.5 7.5 0 1 0 9.357 9.357 7.5 7.5 0 1 0-9.357-9.357Zm1.148-.25a7.5 7.5 0 0 1 8.46 8.46A6.503 6.503 0 0 0 14.5 3a6.503 6.503 0 0 0-6.03 4.07ZM7.5 9a.5.5 0 0 1 .5.5c0 .347.027.687.08 1.018a.5.5 0 1 1-.989.155A7.552 7.552 0 0 1 7 9.5a.5.5 0 0 1 .5-.5Zm1.042 4.21a.5.5 0 0 1 .699.11 6.538 6.538 0 0 0 1.439 1.44.5.5 0 0 1-.589.808 7.537 7.537 0 0 1-1.659-1.66.5.5 0 0 1 .11-.697Zm4.369 3.127a.5.5 0 0 1 .571-.416c.332.052.671.079 1.018.079a.5.5 0 0 1 0 1c-.399 0-.79-.031-1.173-.091a.5.5 0 0 1-.416-.572ZM3 14.5a6.5 6.5 0 1 1 13 0 6.5 6.5 0 0 1-13 0Z" clip-rule="evenodd"/></symbol>
  <use href="#icon"/>
</svg>