<svg xmlns="http://www.w3.org/2000/svg">
  <symbol id="icon" fill="none" viewBox="0 0 16 16"><path fill="currentColor" fill-rule="evenodd" d="M7.748 1.726a.5.5 0 0 1 .504 0L13.008 4.5 8 7.421 2.992 4.5l4.756-2.774ZM2.5 5.37v2.342l5 2.916V8.287l-5-2.916Zm6 2.916v5.844l4.752-2.771a.5.5 0 0 0 .248-.432V5.37l-5 2.916Zm-6 .583 5 2.917v2.342l-4.752-2.771a.5.5 0 0 1-.248-.432V8.87Zm-1 2.056V5.074a1.5 1.5 0 0 1 .744-1.295l5-2.917a1.5 1.5 0 0 1 1.512 0l5 2.917a1.5 1.5 0 0 1 .744 1.295v5.852a1.5 1.5 0 0 1-.744 1.295l-5 2.917a1.5 1.5 0 0 1-1.512 0l-5-2.917a1.5 1.5 0 0 1-.744-1.295Z" clip-rule="evenodd"/></symbol>
  <symbol id="icon-large" fill="none" viewBox="0 0 24 24"><path fill="currentColor" fill-rule="evenodd" d="M11.74 2.245a.5.5 0 0 1 .52 0L20.042 7 12 11.914 3.959 7l7.78-4.755Zm.76 10.535 8-4.889v8.548a.5.5 0 0 1-.24.427l-7.76 4.742V12.78Zm-9-4.889 8 4.89v3.827l-8-4.889V7.892Zm0 5v3.548a.5.5 0 0 0 .24.427l7.76 4.742V17.78l-8-4.889Zm9.282-11.5a1.5 1.5 0 0 0-1.564.001l-8 4.889A1.5 1.5 0 0 0 2.5 7.56v8.878a1.5 1.5 0 0 0 .718 1.28l8 4.889a1.5 1.5 0 0 0 1.564 0l8-4.889a1.5 1.5 0 0 0 .718-1.28V7.561a1.5 1.5 0 0 0-.718-1.28l-8-4.889Z" clip-rule="evenodd"/></symbol>
  <use href="#icon"/>
</svg>