<svg xmlns="http://www.w3.org/2000/svg">
  <symbol id="icon" fill="none" viewBox="0 0 16 16"><path fill="currentColor" fill-rule="evenodd" d="M4.354 2.354a.5.5 0 1 0-.708-.708l-2.5 2.5a.5.5 0 0 0 0 .708l2.5 2.5a.5.5 0 1 0 .708-.708L2.707 5H10a4 4 0 1 1 0 8H4.5a.5.5 0 0 0 0 1H10a5 5 0 0 0 0-10H2.707l1.647-1.646Z" clip-rule="evenodd"/></symbol>
  <symbol id="icon-large" fill="none" viewBox="0 0 24 24"><path fill="currentColor" fill-rule="evenodd" d="M6.854 2.854a.5.5 0 1 0-.708-.708l-3 3a.5.5 0 0 0 0 .708l3 3a.5.5 0 1 0 .708-.708L4.707 6H14a6 6 0 0 1 0 12H8.5a.5.5 0 0 0 0 1H14a7 7 0 1 0 0-14H4.707l2.147-2.146Z" clip-rule="evenodd"/></symbol>
  <use href="#icon"/>
</svg>