<svg xmlns="http://www.w3.org/2000/svg">
  <symbol id="icon" fill="none" viewBox="0 0 16 16"><path fill="currentColor" fill-rule="evenodd" d="M3.879.515a.5.5 0 0 1 .606.364l.5 2a.5.5 0 0 1-.97.242l-.5-2a.5.5 0 0 1 .364-.606ZM.515 3.879a.5.5 0 0 1 .606-.364l2 .5a.5.5 0 1 1-.242.97l-2-.5a.5.5 0 0 1-.364-.606Zm12 7.5a.5.5 0 0 1 .606-.364l2 .5a.5.5 0 0 1-.242.97l-2-.5a.5.5 0 0 1-.364-.606Zm-1.136 1.136a.5.5 0 0 1 .606.364l.5 2a.5.5 0 0 1-.97.242l-.5-2a.5.5 0 0 1 .364-.606ZM3.854 6.647a.5.5 0 0 1 0 .707l-.75.75a3.39 3.39 0 0 0 4.792 4.793l.75-.75a.5.5 0 1 1 .708.707l-.75.75a4.39 4.39 0 0 1-6.208-6.207l.75-.75a.5.5 0 0 1 .708 0Zm4.25-3.543a3.39 3.39 0 0 1 4.793 4.793l-.75.75a.5.5 0 1 0 .707.707l.75-.75a4.39 4.39 0 0 0-6.208-6.207l-.75.75a.5.5 0 0 0 .708.707l.75-.75Z" clip-rule="evenodd"/></symbol>
  <symbol id="icon-large" fill="none" viewBox="0 0 24 24"><path fill="currentColor" fill-rule="evenodd" d="M6.276 3.053a.5.5 0 0 1 .671.224l1 2a.5.5 0 1 1-.894.447l-1-2a.5.5 0 0 1 .223-.671ZM3.053 6.277a.5.5 0 0 1 .67-.224l2 1a.5.5 0 1 1-.447.894l-2-1a.5.5 0 0 1-.223-.67Zm15 10a.5.5 0 0 1 .67-.224l2 1a.5.5 0 1 1-.447.894l-2-1a.5.5 0 0 1-.223-.67Zm-1.777 1.776a.5.5 0 0 1 .671.223l1 2a.5.5 0 1 1-.894.448l-1-2a.5.5 0 0 1 .223-.671Zm-9.422-7.907a.5.5 0 0 1 0 .708l-1.5 1.5a4.45 4.45 0 0 0 6.292 6.293l1.5-1.5a.5.5 0 0 1 .707.707l-1.5 1.5a5.45 5.45 0 1 1-7.707-7.707l1.5-1.5a.5.5 0 0 1 .708 0Zm5.5-4.792a4.45 4.45 0 0 1 6.292 6.292l-1.5 1.5a.5.5 0 0 0 .707.708l1.5-1.5a5.45 5.45 0 1 0-7.707-7.707l-1.5 1.5a.5.5 0 0 0 .707.707l1.5-1.5Z" clip-rule="evenodd"/></symbol>
  <use href="#icon"/>
</svg>