<svg xmlns="http://www.w3.org/2000/svg">
  <symbol id="icon" fill="none" viewBox="0 0 16 16"><path fill="currentColor" fill-rule="evenodd" d="M3.46 7.803a.5.5 0 0 0-.92.394L3 8l-.46.198.001.001.002.004.005.01a2.936 2.936 0 0 0 .076.161 7.725 7.725 0 0 0 1.1 1.609l-.981.588a.5.5 0 0 0 .514.858l1.211-.727a5.76 5.76 0 0 0 1.543.923l-.475 1.19a.5.5 0 0 0 .928.37l.5-1.25a.53.53 0 0 0 .011-.03A5.49 5.49 0 0 0 8 12c.36 0 .702-.034 1.025-.095a.51.51 0 0 0 .01.03l.5 1.25a.5.5 0 0 0 .93-.37l-.476-1.19a5.762 5.762 0 0 0 1.543-.923l1.21.727a.5.5 0 1 0 .515-.858l-.98-.588a7.725 7.725 0 0 0 1.099-1.609 4.436 4.436 0 0 0 .077-.16l.004-.011.002-.004v-.001L13 8l.46.197a.5.5 0 0 0-.92-.394l-.001.004-.01.023a5.72 5.72 0 0 1-.247.461 6.693 6.693 0 0 1-.836 1.119C10.693 10.222 9.566 11 8 11c-1.566 0-2.692-.778-3.446-1.59a6.693 6.693 0 0 1-1.035-1.483 3.522 3.522 0 0 1-.047-.097l-.01-.023-.002-.004Zm0 0L3 8l.46-.197Zm0 0Z" clip-rule="evenodd"/></symbol>
  <symbol id="icon-large" fill="none" viewBox="0 0 24 24"><path fill="currentColor" fill-rule="evenodd" d="M3.318 14.593a.5.5 0 0 1 .697.116C5.455 16.722 7.966 19 12 19c4.034 0 6.546-2.277 7.985-4.29a.5.5 0 1 1 .813.582 12.457 12.457 0 0 1-2.052 2.248l1.108 1.107a.5.5 0 1 1-.708.707l-1.197-1.197a10.01 10.01 0 0 1-3.301 1.522l.8 1.598a.5.5 0 1 1-.895.448l-.921-1.843A11.06 11.06 0 0 1 12 20c-.571 0-1.115-.042-1.632-.119l-.92 1.843a.5.5 0 1 1-.895-.448l.8-1.598a10.009 10.009 0 0 1-3.302-1.522l-1.197 1.197a.5.5 0 1 1-.708-.707l1.108-1.107a12.451 12.451 0 0 1-2.052-2.248.5.5 0 0 1 .116-.698Zm1.074-5.802C5.877 6.92 8.296 5 12 5c3.704 0 6.123 1.92 7.608 3.791a.5.5 0 1 0 .784-.622C18.782 6.144 16.102 4 12 4S5.217 6.145 3.608 8.17a.5.5 0 0 0 .784.622Z" clip-rule="evenodd"/></symbol>
  <use href="#icon"/>
</svg>