<svg xmlns="http://www.w3.org/2000/svg">
  <symbol id="icon" fill="none" viewBox="0 0 16 16"><path fill="currentColor" fill-rule="evenodd" d="M2 10.5a.5.5 0 0 1 .5-.5h3a.5.5 0 0 1 .5.5v3a.5.5 0 0 1-.5.5h-3a.5.5 0 0 1-.5-.5v-3ZM2.5 9A1.5 1.5 0 0 0 1 10.5v3A1.5 1.5 0 0 0 2.5 15h3A1.5 1.5 0 0 0 7 13.5v-3A1.5 1.5 0 0 0 5.5 9h-3ZM10 9a1 1 0 0 0-1 1v1a.5.5 0 1 0 1 0v-1h1a.5.5 0 0 0 0-1h-1Zm3 0a.5.5 0 0 0 0 1h1v1a.5.5 0 1 0 1 0v-1a1 1 0 0 0-1-1h-1Zm-3 4a.5.5 0 0 0-1 0v1a1 1 0 0 0 1 1h1a.5.5 0 1 0 0-1h-1v-1Zm5 0a.5.5 0 0 0-1 0v1h-1a.5.5 0 0 0 0 1h1a1 1 0 0 0 1-1v-1ZM10.5 2a.5.5 0 0 0-.5.5v3a.5.5 0 0 0 .5.5h3a.5.5 0 0 0 .5-.5v-3a.5.5 0 0 0-.5-.5h-3ZM9 2.5A1.5 1.5 0 0 1 10.5 1h3A1.5 1.5 0 0 1 15 2.5v3A1.5 1.5 0 0 1 13.5 7h-3A1.5 1.5 0 0 1 9 5.5v-3ZM2 1a1 1 0 0 0-1 1v1a.5.5 0 1 0 1 0V2h1a.5.5 0 1 0 0-1H2Zm3 0a.5.5 0 0 0 0 1h1v1a.5.5 0 0 0 1 0V2a1 1 0 0 0-1-1H5ZM2 5a.5.5 0 0 0-1 0v1a1 1 0 0 0 1 1h1a.5.5 0 1 0 0-1H2V5Zm5 0a.5.5 0 0 0-1 0v1H5a.5.5 0 0 0 0 1h1a1 1 0 0 0 1-1V5Z" clip-rule="evenodd"/></symbol>
  <symbol id="icon-large" fill="none" viewBox="0 0 24 24"><path fill="currentColor" fill-rule="evenodd" d="M4 14.5a.5.5 0 0 1 .5-.5h5a.5.5 0 0 1 .5.5v5a.5.5 0 0 1-.5.5h-5a.5.5 0 0 1-.5-.5v-5Zm.5-1.5A1.5 1.5 0 0 0 3 14.5v5A1.5 1.5 0 0 0 4.5 21h5a1.5 1.5 0 0 0 1.5-1.5v-5A1.5 1.5 0 0 0 9.5 13h-5Zm9.5 1.5a.5.5 0 0 1 .5-.5.5.5 0 0 0 0-1 1.5 1.5 0 0 0-1.5 1.5.5.5 0 0 0 1 0Zm2.5-1.5a.5.5 0 0 0 0 1h1a.5.5 0 0 0 0-1h-1Zm3 0a.5.5 0 0 0 0 1 .5.5 0 0 1 .5.5.5.5 0 0 0 1 0 1.5 1.5 0 0 0-1.5-1.5ZM14 16.5a.5.5 0 0 0-1 0v1a.5.5 0 0 0 1 0v-1Zm7 0a.5.5 0 0 0-1 0v1a.5.5 0 0 0 1 0v-1Zm-7 3a.5.5 0 0 0-1 0 1.5 1.5 0 0 0 1.5 1.5.5.5 0 0 0 0-1 .5.5 0 0 1-.5-.5Zm7 0a.5.5 0 0 0-1 0 .5.5 0 0 1-.5.5.5.5 0 0 0 0 1 1.5 1.5 0 0 0 1.5-1.5Zm-4.5.5a.5.5 0 0 0 0 1h1a.5.5 0 0 0 0-1h-1Zm-2-16a.5.5 0 0 0-.5.5v5a.5.5 0 0 0 .5.5h5a.5.5 0 0 0 .5-.5v-5a.5.5 0 0 0-.5-.5h-5Zm-1.5.5A1.5 1.5 0 0 1 14.5 3h5A1.5 1.5 0 0 1 21 4.5v5a1.5 1.5 0 0 1-1.5 1.5h-5A1.5 1.5 0 0 1 13 9.5v-5Zm-9 0a.5.5 0 0 1 .5-.5.5.5 0 0 0 0-1A1.5 1.5 0 0 0 3 4.5a.5.5 0 0 0 1 0ZM6.5 3a.5.5 0 0 0 0 1h1a.5.5 0 0 0 0-1h-1Zm3 0a.5.5 0 0 0 0 1 .5.5 0 0 1 .5.5.5.5 0 0 0 1 0A1.5 1.5 0 0 0 9.5 3ZM4 6.5a.5.5 0 0 0-1 0v1a.5.5 0 0 0 1 0v-1Zm7 0a.5.5 0 0 0-1 0v1a.5.5 0 0 0 1 0v-1Zm-7 3a.5.5 0 0 0-1 0A1.5 1.5 0 0 0 4.5 11a.5.5 0 0 0 0-1 .5.5 0 0 1-.5-.5Zm7 0a.5.5 0 0 0-1 0 .5.5 0 0 1-.5.5.5.5 0 0 0 0 1A1.5 1.5 0 0 0 11 9.5Zm-4.5.5a.5.5 0 0 0 0 1h1a.5.5 0 0 0 0-1h-1Z" clip-rule="evenodd"/></symbol>
  <use href="#icon"/>
</svg>