<svg xmlns="http://www.w3.org/2000/svg">
  <symbol id="icon" fill="none" viewBox="0 0 16 16"><path fill="currentColor" fill-rule="evenodd" d="M3.56 7.92C3.862 7.168 4.987 5 8 5c3.013 0 4.138 2.169 4.44 2.92a.21.21 0 0 1 0 .16C12.138 8.832 11.013 11 8 11c-3.013 0-4.138-2.169-4.44-2.92a.209.209 0 0 1 0-.16ZM8 4C4.368 4 2.988 6.661 2.632 7.546a1.209 1.209 0 0 0 0 .908C2.988 9.339 4.368 12 8 12c3.632 0 5.012-2.661 5.368-3.546a1.208 1.208 0 0 0 0-.908C13.012 6.661 11.632 4 8 4Zm0 3a1 1 0 1 0 0 2 1 1 0 0 0 0-2Z" clip-rule="evenodd"/></symbol>
  <symbol id="icon-large" fill="none" viewBox="0 0 24 24"><path fill="currentColor" fill-rule="evenodd" d="M2.581 11.876C3.146 10.475 5.762 5 12 5s8.854 5.475 9.419 6.876a.325.325 0 0 1 0 .248C20.854 13.525 18.238 19 12 19s-8.854-5.475-9.419-6.876a.325.325 0 0 1 0-.248ZM12 4c-6.923 0-9.77 6.073-10.346 7.502-.13.321-.13.675 0 .995C2.23 13.928 5.077 20 12 20s9.77-6.073 10.346-7.502c.13-.321.13-.675 0-.995C21.77 10.072 18.923 4 12 4Zm-3 8a3 3 0 1 1 6 0 3 3 0 0 1-6 0Zm3-4a4 4 0 1 0 0 8 4 4 0 0 0 0-8Z" clip-rule="evenodd"/></symbol>
  <use href="#icon"/>
</svg>