<svg xmlns="http://www.w3.org/2000/svg">
  <symbol id="icon" fill="none" viewBox="0 0 16 16"><path fill="currentColor" fill-rule="evenodd" d="M1.28 5.056A11.942 11.942 0 0 1 8 3c2.49 0 4.803.758 6.72 2.056a.5.5 0 0 0 .56-.828A12.942 12.942 0 0 0 8 2C5.303 2 2.797 2.822.72 4.228a.5.5 0 0 0 .56.828ZM8 6.5a7.96 7.96 0 0 0-4.54 1.411.5.5 0 1 1-.567-.822A8.96 8.96 0 0 1 8 5.5a8.96 8.96 0 0 1 5.107 1.589.5.5 0 1 1-.568.822A7.96 7.96 0 0 0 7.999 6.5Zm-2.222 4.173A3.979 3.979 0 0 1 8 10c.823 0 1.586.248 2.222.673a.5.5 0 1 0 .556-.83A4.979 4.979 0 0 0 8 9a4.98 4.98 0 0 0-2.778.842.5.5 0 1 0 .556.831ZM8 14a1 1 0 1 0 0-2 1 1 0 0 0 0 2Z" clip-rule="evenodd"/></symbol>
  <symbol id="icon-large" fill="none" viewBox="0 0 24 24"><path fill="currentColor" fill-rule="evenodd" d="M2.582 8.641A13.947 13.947 0 0 1 12 5a13.95 13.95 0 0 1 9.418 3.641.5.5 0 1 0 .673-.74A14.947 14.947 0 0 0 12 4 14.947 14.947 0 0 0 1.909 7.902a.5.5 0 1 0 .673.74ZM12 9.5a9.464 9.464 0 0 0-6.39 2.47.5.5 0 1 1-.673-.74A10.464 10.464 0 0 1 12 8.5c2.72 0 5.198 1.035 7.063 2.73a.5.5 0 1 1-.673.74A9.464 9.464 0 0 0 12 9.5Zm-3.363 5.8A4.98 4.98 0 0 1 12 14a4.98 4.98 0 0 1 3.363 1.3.5.5 0 1 0 .673-.74A5.98 5.98 0 0 0 12 13a5.98 5.98 0 0 0-4.036 1.56.5.5 0 0 0 .673.74ZM12 20a1 1 0 1 0 0-2 1 1 0 0 0 0 2Z" clip-rule="evenodd"/></symbol>
  <use href="#icon"/>
</svg>