<svg xmlns="http://www.w3.org/2000/svg">
  <symbol id="icon" fill="none" viewBox="0 0 16 16"><path fill="currentColor" fill-rule="evenodd" d="M14.833 1.127a.5.5 0 0 1 .168.373V7a.5.5 0 0 1-.5.5H7.5a.5.5 0 0 1-.5-.497l-.024-4.688a.5.5 0 0 1 .443-.5l7.024-.812a.5.5 0 0 1 .39.124Zm-6.855 1.63.02 3.743H14V2.061l-6.023.697ZM7.5 8.5A.5.5 0 0 0 7 9v4.69a.5.5 0 0 0 .443.497l7 .81a.5.5 0 0 0 .558-.496V9a.5.5 0 0 0-.5-.5H7.5Zm.5 4.745V9.5h6v4.44l-6-.695ZM1.5 8.5A.5.5 0 0 0 1 9v3.971a.5.5 0 0 0 .433.495l4 .54A.5.5 0 0 0 6 13.511V9a.5.5 0 0 0-.5-.5h-4Zm.5 4.034V9.5h3v3.439l-3-.405ZM6 2.49a.5.5 0 0 0-.567-.496l-4 .54A.5.5 0 0 0 1 3.03V7a.5.5 0 0 0 .5.5h4A.5.5 0 0 0 6 7V2.49ZM2 6.5V3.467l3-.405V6.5H2Z" clip-rule="evenodd"/></symbol>
  <symbol id="icon-large" fill="none" viewBox="0 0 24 24"><path fill="currentColor" fill-rule="evenodd" d="M20.832 3.126A.5.5 0 0 1 21 3.5V11a.5.5 0 0 1-.5.5h-9a.5.5 0 0 1-.5-.498l-.031-6.437a.5.5 0 0 1 .441-.5l9.032-1.062a.5.5 0 0 1 .39.123Zm-8.861 1.88.027 5.494H20V4.062l-8.03.945ZM3.5 12.5a.5.5 0 0 0-.5.5v5.5a.5.5 0 0 0 .442.497l6 .706a.5.5 0 0 0 .558-.497V13a.5.5 0 0 0-.5-.5h-6Zm.5 5.555V13.5h5v5.144l-5-.589Zm7.5-5.555a.5.5 0 0 0-.5.5v6.441a.5.5 0 0 0 .442.497l9 1.059A.5.5 0 0 0 21 20.5V13a.5.5 0 0 0-.5-.5h-9Zm.5 6.497V13.5h8v6.438l-8-.941ZM10 4.794a.5.5 0 0 0-.558-.496l-6 .705A.5.5 0 0 0 3 5.5V11a.5.5 0 0 0 .5.5h6a.5.5 0 0 0 .5-.5V4.794ZM4 10.5V5.945l5-.589V10.5H4Z" clip-rule="evenodd"/></symbol>
  <use href="#icon"/>
</svg>