<svg xmlns="http://www.w3.org/2000/svg">
  <symbol id="icon" fill="none" viewBox="0 0 16 16"><path fill="currentColor" fill-rule="evenodd" d="M2 3.5a.5.5 0 0 1 .5-.5h11a.5.5 0 0 1 .5.5V6H2V3.5ZM2 7h12v5.5a.5.5 0 0 1-.5.5h-11a.5.5 0 0 1-.5-.5v-2h1.5a.5.5 0 0 0 0-1H2V7Zm.5-5A1.5 1.5 0 0 0 1 3.5v9A1.5 1.5 0 0 0 2.5 14h11a1.5 1.5 0 0 0 1.5-1.5v-9A1.5 1.5 0 0 0 13.5 2h-11Zm3 7.5a.5.5 0 0 0 0 1H7a.5.5 0 0 0 0-1H5.5Zm3.5 0a.5.5 0 0 0 0 1h1.5a.5.5 0 0 0 0-1H9Zm3.5 0a.5.5 0 0 0 0 1H14v-1h-1.5Zm-2-5.5a.5.5 0 0 0 0 1h2a.5.5 0 0 0 0-1h-2Z" clip-rule="evenodd"/></symbol>
  <symbol id="icon-large" fill="none" viewBox="0 0 24 24"><path fill="currentColor" fill-rule="evenodd" d="M3 5.5a.5.5 0 0 1 .5-.5h17a.5.5 0 0 1 .5.5V8H3V5.5ZM3 9h18v5a.5.5 0 0 0-.5-.5h-2a.5.5 0 0 0 0 1h2a.5.5 0 0 0 .5-.5v4.5a.5.5 0 0 1-.5.5h-17a.5.5 0 0 1-.5-.5V14a.5.5 0 0 0 .5.5h2a.5.5 0 0 0 0-1h-2a.5.5 0 0 0-.5.5V9Zm.5-5A1.5 1.5 0 0 0 2 5.5v13A1.5 1.5 0 0 0 3.5 20h17a1.5 1.5 0 0 0 1.5-1.5v-13A1.5 1.5 0 0 0 20.5 4h-17Zm5 9.5a.5.5 0 0 0 0 1h2a.5.5 0 0 0 0-1h-2Zm5 0a.5.5 0 0 0 0 1h2a.5.5 0 0 0 0-1h-2Zm4-7.5a.5.5 0 0 0 0 1h2a.5.5 0 0 0 0-1h-2Z" clip-rule="evenodd"/></symbol>
  <use href="#icon"/>
</svg>