<svg xmlns="http://www.w3.org/2000/svg">
  <symbol id="icon" fill="none" viewBox="0 0 16 16"><path fill="currentColor" fill-rule="evenodd" d="M2 3.5a.5.5 0 0 1 .5-.5h11a.5.5 0 0 1 .5.5V6H2V3.5ZM8.5 7H14v5.5a.5.5 0 0 1-.5.5h-5v-.5a.5.5 0 0 0-1 0v.5h-5a.5.5 0 0 1-.5-.5V7h5.5v.5a.5.5 0 0 0 1 0V7Zm-6-5A1.5 1.5 0 0 0 1 3.5v9A1.5 1.5 0 0 0 2.5 14h11a1.5 1.5 0 0 0 1.5-1.5v-9A1.5 1.5 0 0 0 13.5 2h-11Zm6 7.5a.5.5 0 0 0-1 0v1a.5.5 0 0 0 1 0v-1Zm2-5.5a.5.5 0 0 0 0 1h2a.5.5 0 0 0 0-1h-2Z" clip-rule="evenodd"/></symbol>
  <symbol id="icon-large" fill="none" viewBox="0 0 24 24"><path fill="currentColor" fill-rule="evenodd" d="M3 5.5a.5.5 0 0 1 .5-.5h17a.5.5 0 0 1 .5.5V8H3V5.5ZM12.5 9H21v9.5a.5.5 0 0 1-.5.5h-8v-1a.5.5 0 0 0-1 0v1h-8a.5.5 0 0 1-.5-.5V9h8.5v1a.5.5 0 0 0 1 0V9Zm-9-5A1.5 1.5 0 0 0 2 5.5v13A1.5 1.5 0 0 0 3.5 20h17a1.5 1.5 0 0 0 1.5-1.5v-13A1.5 1.5 0 0 0 20.5 4h-17Zm9 9a.5.5 0 0 0-1 0v2a.5.5 0 0 0 1 0v-2Zm5-7a.5.5 0 0 0 0 1h2a.5.5 0 0 0 0-1h-2Z" clip-rule="evenodd"/></symbol>
  <use href="#icon"/>
</svg>