<svg xmlns="http://www.w3.org/2000/svg">
  <symbol id="icon" fill="none" viewBox="0 0 16 16"><path fill="currentColor" fill-rule="evenodd" d="M14.854 1.854a.5.5 0 0 0-.708-.708L10 5.293V2.5a.5.5 0 0 0-1 0v4a.5.5 0 0 0 .5.5h4a.5.5 0 0 0 0-1h-2.793l4.147-4.146ZM2.5 9a.5.5 0 0 0 0 1h2.793l-4.147 4.146a.5.5 0 0 0 .708.708L6 10.707V13.5a.5.5 0 0 0 1 0v-4a.5.5 0 0 0-.5-.5h-4Z" clip-rule="evenodd"/></symbol>
  <symbol id="icon-large" fill="none" viewBox="0 0 24 24"><path fill="currentColor" fill-rule="evenodd" d="M20.854 3.854a.5.5 0 0 0-.708-.708L14 9.293V5.5a.5.5 0 0 0-1 0v5a.5.5 0 0 0 .5.5h5a.5.5 0 0 0 0-1h-3.793l6.147-6.146ZM5.5 13a.5.5 0 0 0 0 1h3.793l-6.147 6.146a.5.5 0 0 0 .708.708L10 14.707V18.5a.5.5 0 0 0 1 0v-5a.5.5 0 0 0-.5-.5h-5Z" clip-rule="evenodd"/></symbol>
  <use href="#icon"/>
</svg>