<svg xmlns="http://www.w3.org/2000/svg">
  <symbol id="icon" fill="none" viewBox="0 0 16 16"><path fill="currentColor" fill-rule="evenodd" d="M14.854 1.854a.5.5 0 0 0-.708-.708L10.5 4.793V2.5a.5.5 0 0 0-1 0V6a.5.5 0 0 0 .5.5h3.5a.5.5 0 0 0 0-1h-2.293l3.647-3.646ZM2.5 9.5a.5.5 0 0 0 0 1h2.293l-3.647 3.646a.5.5 0 0 0 .708.708L5.5 11.207V13.5a.5.5 0 0 0 1 0V10a.5.5 0 0 0-.5-.5H2.5Zm7 .5a.5.5 0 0 1 .5-.5h3.5a.5.5 0 0 1 0 1h-2.293l3.647 3.646a.5.5 0 0 1-.708.708L10.5 11.207V13.5a.5.5 0 0 1-1 0V10ZM6 2a.5.5 0 0 1 .5.5V6a.5.5 0 0 1-.5.5H2.5a.5.5 0 0 1 0-1h2.293L1.146 1.854a.5.5 0 1 1 .708-.708L5.5 4.793V2.5A.5.5 0 0 1 6 2Z" clip-rule="evenodd"/></symbol>
  <symbol id="icon-large" fill="none" viewBox="0 0 24 24"><path fill="currentColor" fill-rule="evenodd" d="M20.854 3.854a.5.5 0 0 0-.708-.708L15 8.293V5.5a.5.5 0 0 0-1 0v4a.5.5 0 0 0 .5.5h4a.5.5 0 0 0 0-1h-2.793l5.147-5.146ZM5.5 14a.5.5 0 0 0 0 1h2.793l-5.147 5.146a.5.5 0 0 0 .708.708L9 15.707V18.5a.5.5 0 0 0 1 0v-4a.5.5 0 0 0-.5-.5h-4Zm4-9a.5.5 0 0 1 .5.5v4a.5.5 0 0 1-.5.5h-4a.5.5 0 0 1 0-1h2.793L3.146 3.854a.5.5 0 1 1 .708-.708L9 8.293V5.5a.5.5 0 0 1 .5-.5Zm4.5 9.5a.5.5 0 0 1 .5-.5h4a.5.5 0 0 1 0 1h-2.793l5.147 5.146a.5.5 0 0 1-.708.708L15 15.707V18.5a.5.5 0 0 1-1 0v-4Z" clip-rule="evenodd"/></symbol>
  <use href="#icon"/>
</svg>