<svg xmlns="http://www.w3.org/2000/svg">
  <symbol id="icon" fill="none" viewBox="0 0 16 16"><path fill="currentColor" d="M8 2c1.86 0 3.426.845 4.5 2.155V3a.5.5 0 0 1 1 0v2.5a.5.5 0 0 1-.5.5h-2.5a.5.5 0 1 1 0-1h1.391c-.905-1.223-2.265-2-3.89-2a5 5 0 1 0 5 5 .5.5 0 0 1 1 0 6 6 0 1 1-6-6ZM6.94 5.603a1.5 1.5 0 0 1 2.121 0l1.336 1.336a1.5 1.5 0 0 1 0 2.121l-1.336 1.336a1.5 1.5 0 0 1-2.121 0L5.604 9.06a1.5 1.5 0 0 1 0-2.12L6.94 5.602Zm1.414.707a.5.5 0 0 0-.707 0L6.311 7.646a.5.5 0 0 0 0 .707L7.647 9.69a.5.5 0 0 0 .707 0L9.69 8.353a.5.5 0 0 0 0-.707L8.354 6.31Z"/></symbol>
  <symbol id="icon-large" fill="none" viewBox="0 0 24 24"><path fill="currentColor" fill-rule="evenodd" d="M3 12a9 9 0 0 1 9-9c2.751 0 5.329 1.236 7 3.194V4.5a.5.5 0 0 1 1 0v3a.5.5 0 0 1-.5.5h-3a.5.5 0 0 1 0-1h1.87C16.896 5.176 14.533 4 12 4a8 8 0 1 0 8 8 .5.5 0 0 1 1 0 9 9 0 1 1-18 0Zm11.5-3a.5.5 0 0 1 .5.5v5a.5.5 0 0 1-.5.5h-5a.5.5 0 0 1-.5-.5v-5a.5.5 0 0 1 .5-.5h5Zm0 7a1.5 1.5 0 0 0 1.5-1.5v-5A1.5 1.5 0 0 0 14.5 8h-5A1.5 1.5 0 0 0 8 9.5v5A1.5 1.5 0 0 0 9.5 16h5Z" clip-rule="evenodd"/></symbol>
  <use href="#icon"/>
</svg>
