<svg xmlns="http://www.w3.org/2000/svg">
  <symbol id="icon" fill="none" viewBox="0 0 16 16"><path fill="currentColor" fill-rule="evenodd" d="M5.5 4.5a2.5 2.5 0 1 1 5 0 2.5 2.5 0 0 1-5 0ZM8 1a3.5 3.5 0 1 0 0 7 3.5 3.5 0 0 0 0-7Zm0 8.5c-2.357 0-4.425 1.717-5.235 4.024a.312.312 0 0 0 .054.311.46.46 0 0 0 .361.165H8.5v1H3.18c-.894 0-1.699-.838-1.358-1.808C2.744 10.566 5.139 8.5 8 8.5c.766 0 1.5.15 2.183.418l-.366.93A4.938 4.938 0 0 0 8 9.5Zm4 1.5a1 1 0 1 1 2 0h-2Zm-1 0a2 2 0 1 1 4 0 1 1 0 0 1 1 1v3a1 1 0 0 1-1 1h-4a1 1 0 0 1-1-1v-3a1 1 0 0 1 1-1Zm0 4v-3h4v3h-4Z" clip-rule="evenodd"/></symbol>
  <symbol id="icon-large" fill="none" viewBox="0 0 24 24"><path fill="currentColor" fill-rule="evenodd" d="M15 7a3 3 0 1 1-6 0 3 3 0 0 1 6 0Zm1 0a4 4 0 1 1-8 0 4 4 0 0 1 8 0Zm-4 6c-3.952 0-6.51 2.713-7.283 6.497-.05.242.142.503.455.503H13v1H5.172c-.88 0-1.623-.778-1.435-1.703C4.58 15.168 7.46 12 12 12c1.39 0 2.639.3 3.725.845l-.45.893C14.337 13.268 13.245 13 12 13Zm5 4a2 2 0 1 1 4 0h-4Zm-1 .085V17a3 3 0 1 1 6 0v.085a1.5 1.5 0 0 1 1 1.415v3a1.5 1.5 0 0 1-1.5 1.5h-5a1.5 1.5 0 0 1-1.5-1.5v-3a1.5 1.5 0 0 1 1-1.415Zm0 1.415a.5.5 0 0 1 .5-.5h5a.5.5 0 0 1 .5.5v3a.5.5 0 0 1-.5.5h-5a.5.5 0 0 1-.5-.5v-3Z" clip-rule="evenodd"/></symbol>
  <use href="#icon"/>
</svg>
