<svg xmlns="http://www.w3.org/2000/svg">
  <symbol id="icon" fill="none" viewBox="0 0 16 16"><path fill="currentColor" d="M13.5 9a.5.5 0 0 1 .5.5v1a2.5 2.5 0 0 1-2.5 2.5h-.793l.646.646.065.078a.501.501 0 0 1-.693.694l-.079-.065-1.5-1.5a.5.5 0 0 1 0-.707l1.5-1.5a.5.5 0 0 1 .707.707l-.646.647h.793a1.5 1.5 0 0 0 1.5-1.5v-1a.5.5 0 0 1 .5-.5ZM4.793 8a1 1 0 0 1 .707.293L7.207 10l.066.073a1 1 0 0 1 .227.634V12.5A1.5 1.5 0 0 1 6 14H3.5A1.5 1.5 0 0 1 2 12.5v-3A1.5 1.5 0 0 1 3.5 8h1.293ZM3.5 9a.5.5 0 0 0-.5.5v3a.5.5 0 0 0 .5.5H6a.5.5 0 0 0 .5-.5V11H6a1.5 1.5 0 0 1-1.5-1.5V9h-1Zm7.793-7a1 1 0 0 1 .707.293L13.707 4l.066.073a1 1 0 0 1 .227.634V6.5A1.5 1.5 0 0 1 12.5 8H10a1.5 1.5 0 0 1-1.5-1.5v-3A1.5 1.5 0 0 1 10 2h1.293Zm-6.647-.354a.501.501 0 0 1 .63-.064l.078.064 1.5 1.5.062.076a.501.501 0 0 1 0 .555l-.062.076-1.5 1.5a.5.5 0 1 1-.708-.707L5.293 4H4.5A1.5 1.5 0 0 0 3 5.5v1l-.01.1a.5.5 0 0 1-.98 0L2 6.5v-1A2.5 2.5 0 0 1 4.5 3h.793l-.647-.647-.064-.078a.5.5 0 0 1 .064-.629ZM10 3a.5.5 0 0 0-.5.5v3a.5.5 0 0 0 .5.5h2.5a.5.5 0 0 0 .5-.5V5h-.5A1.5 1.5 0 0 1 11 3.5V3h-1Z"/></symbol>
  <symbol id="icon-large" fill="none" viewBox="0 0 24 24"><path fill="currentColor" d="M19.5 14a.5.5 0 0 1 .5.5v1a4.5 4.5 0 0 1-4.5 4.5h-.793l.646.646.065.078a.5.5 0 0 1-.693.694l-.079-.065-1.5-1.5a.5.5 0 0 1 0-.707l1.5-1.5.079-.064a.501.501 0 0 1 .693.693l-.064.078-.647.646h.793a3.5 3.5 0 0 0 3.5-3.5v-1a.5.5 0 0 1 .5-.5ZM6.793 12c.265 0 .52.105.707.293l3.207 3.207.066.073a1 1 0 0 1 .227.634V19.5A1.5 1.5 0 0 1 9.5 21h-5A1.5 1.5 0 0 1 3 19.5v-6A1.5 1.5 0 0 1 4.5 12h2.293ZM4.5 13a.5.5 0 0 0-.5.5v6a.5.5 0 0 0 .5.5h5a.5.5 0 0 0 .5-.5v-3H8A1.5 1.5 0 0 1 6.5 15v-2h-2Zm3 2a.5.5 0 0 0 .5.5h1.293L7.5 13.707v1.292Zm9.293-12a1 1 0 0 1 .707.293L20.707 6.5l.066.073a1 1 0 0 1 .227.634v3.292a1.5 1.5 0 0 1-1.5 1.5h-5a1.5 1.5 0 0 1-1.5-1.5v-6A1.5 1.5 0 0 1 14.5 3h2.293ZM14.5 4a.5.5 0 0 0-.5.5v6a.5.5 0 0 0 .5.5h5a.5.5 0 0 0 .5-.5v-3h-2A1.5 1.5 0 0 1 16.5 6V4h-2ZM8.646 2.646a.501.501 0 0 1 .63-.064l.078.064 1.5 1.5.062.076a.501.501 0 0 1-.063.631l-1.5 1.5a.5.5 0 1 1-.707-.707L9.293 5H8.5A3.5 3.5 0 0 0 5 8.5v1a.5.5 0 0 1-1 0v-1A4.5 4.5 0 0 1 8.5 4h.793l-.647-.647-.064-.078a.501.501 0 0 1 .064-.629ZM17.5 6a.5.5 0 0 0 .5.5h1.293L17.5 4.707V6Z"/></symbol>
  <use href="#icon"/>
</svg>
