<svg xmlns="http://www.w3.org/2000/svg">
  <symbol id="icon" fill="none" viewBox="0 0 16 16"><path fill="currentColor" d="M4.5 13.5h-2v-2L4 10h4l-3.5 3.5Z" opacity=".48"/><path fill="currentColor" d="M10.646 2.646a1.914 1.914 0 0 1 2.707 0l.132.146c.613.752.57 1.86-.131 2.561l-1.171 1.17a1.757 1.757 0 0 1-.218 2.219l-.889.889a.815.815 0 0 1-1.152 0l-.425-.425-4.645 4.643a.5.5 0 0 1-.354.147h-2a.5.5 0 0 1-.5-.5V11.5l.01-.098a.501.501 0 0 1 .136-.256L6.793 6.5l-.424-.424a.815.815 0 0 1 0-1.152l.889-.89.133-.12a1.76 1.76 0 0 1 2.085-.098l1.17-1.17ZM3 11.706v1.29h1.293L6.791 10.5H4.207L3 11.707ZM5.207 9.5h2.585l1-1.001L7.5 7.207 5.207 9.5Zm7.44-6.147a.915.915 0 0 0-1.293 0l-1.39 1.389a.658.658 0 0 1-.929 0 .757.757 0 0 0-1.013-.052l-.057.052-.758.758L10.5 8.793l.758-.758a.757.757 0 0 0 0-1.07.658.658 0 0 1 0-.93l1.389-1.389a.914.914 0 0 0 0-1.293Z"/></symbol>
  <symbol id="icon-large" fill="none" viewBox="0 0 24 24"><path fill="currentColor" d="M7 20H5.5l-2 .5.5-2V17l3-3h6l-6 6Z" opacity=".48"/><path fill="currentColor" fill-rule="evenodd" d="M19.854 4.146a2.621 2.621 0 0 0-3.508-.18l-.2.18-1.67 1.67a1.758 1.758 0 0 0-2.085.099l-.133.12-.889.889a.815.815 0 0 0 0 1.152l.424.424-8.083 8.083a1.606 1.606 0 0 0-.3 1.854l.005.027-.009.025-.43.646c-.36.54-.289 1.26.17 1.718l.09.082a1.362 1.362 0 0 0 1.63.088l.645-.43.025-.008a.06.06 0 0 1 .027.006l.118.052c.593.24 1.278.105 1.736-.353l8.083-8.083.424.424a.815.815 0 0 0 1.152 0l.889-.889.12-.133a1.76 1.76 0 0 0 .098-2.086l1.67-1.67a2.621 2.621 0 0 0 0-3.707ZM14.793 11.5 12.5 9.207 8.207 13.5h4.586l2-2Zm2.184-6.758a1.622 1.622 0 0 1 2.17 2.404l-1.89 1.89a.658.658 0 0 0 0 .929.757.757 0 0 1 .052 1.012l-.051.058-.758.758L12.207 7.5l.758-.758.057-.052a.757.757 0 0 1 1.013.052.658.658 0 0 0 .93 0l1.889-1.889.123-.11ZM4.417 17.29l2.79-2.79h4.586L6.71 19.583a.606.606 0 0 1-.61.15l-.09-.037a1.053 1.053 0 0 0-.933-.004l-.121.07-.645.43a.362.362 0 0 1-.409-.005l-.049-.04a.362.362 0 0 1-.044-.458l.43-.645.069-.121c.122-.25.14-.54.05-.804l-.054-.13a.606.606 0 0 1 .113-.699Z" clip-rule="evenodd"/></symbol>
  <use href="#icon"/>
</svg>
