<svg xmlns="http://www.w3.org/2000/svg">
  <symbol id="icon" fill="none" viewBox="0 0 16 16"><path fill="currentColor" d="M6 8.5A1.5 1.5 0 0 1 7.5 10v2.5A1.5 1.5 0 0 1 6 14H3.5A1.5 1.5 0 0 1 2 12.5V10a1.5 1.5 0 0 1 1.5-1.5H6Zm3 3a.5.5 0 0 1 .5.5v1h1a.5.5 0 0 1 0 1h-1a1 1 0 0 1-1-1v-1a.5.5 0 0 1 .5-.5Zm4.5 0a.5.5 0 0 1 .5.5v1a1 1 0 0 1-1 1h-1a.5.5 0 0 1 0-1h1v-1a.5.5 0 0 1 .5-.5Zm-10-2a.5.5 0 0 0-.5.5v2.5a.5.5 0 0 0 .5.5H6a.5.5 0 0 0 .5-.5V10a.5.5 0 0 0-.5-.5H3.5Zm7-1a.5.5 0 0 1 0 1h-1v1a.5.5 0 0 1-1 0v-1a1 1 0 0 1 1-1h1Zm2.5 0a1 1 0 0 1 1 1v1a.5.5 0 0 1-1 0v-1h-1a.5.5 0 0 1 0-1h1ZM2.5 5a.5.5 0 0 1 .5.5v1h1a.5.5 0 0 1 0 1H3a1 1 0 0 1-1-1v-1a.5.5 0 0 1 .5-.5ZM7 5a.5.5 0 0 1 .5.5v1a1 1 0 0 1-1 1h-1a.5.5 0 0 1 0-1h1v-1A.5.5 0 0 1 7 5Zm5.5-3A1.5 1.5 0 0 1 14 3.5V6a1.5 1.5 0 0 1-1.5 1.5H10A1.5 1.5 0 0 1 8.5 6V3.5A1.5 1.5 0 0 1 10 2h2.5ZM10 3a.5.5 0 0 0-.5.5V6a.5.5 0 0 0 .5.5h2.5A.5.5 0 0 0 13 6V3.5a.5.5 0 0 0-.5-.5H10ZM4 2a.5.5 0 0 1 0 1H3v1a.5.5 0 0 1-1 0V3a1 1 0 0 1 1-1h1Zm2.5 0a1 1 0 0 1 1 1v1a.5.5 0 0 1-1 0V3h-1a.5.5 0 0 1 0-1h1Z"/></symbol>
  <symbol id="icon-large" fill="none" viewBox="0 0 24 24"><path fill="currentColor" d="M9.5 13a1.5 1.5 0 0 1 1.5 1.5v5A1.5 1.5 0 0 1 9.5 21h-5A1.5 1.5 0 0 1 3 19.5v-5A1.5 1.5 0 0 1 4.5 13h5Zm4 6a.5.5 0 0 1 .49.4l.02.2c.04.196.194.35.39.39l.2.02a.5.5 0 0 1-.1.99 1.5 1.5 0 0 1-1.5-1.5.5.5 0 0 1 .5-.5Zm4 1a.5.5 0 0 1 0 1h-1a.5.5 0 0 1 0-1h1Zm3-1a.5.5 0 0 1 .5.5 1.5 1.5 0 0 1-1.5 1.5.5.5 0 0 1-.1-.99l.2-.02a.501.501 0 0 0 .39-.39l.02-.2a.5.5 0 0 1 .49-.4Zm-16-5a.5.5 0 0 0-.5.5v5a.5.5 0 0 0 .5.5h5a.5.5 0 0 0 .5-.5v-5a.5.5 0 0 0-.5-.5h-5Zm9 2a.5.5 0 0 1 .5.5v1a.5.5 0 0 1-1 0v-1a.5.5 0 0 1 .5-.5Zm7 0a.5.5 0 0 1 .5.5v1a.5.5 0 0 1-1 0v-1a.5.5 0 0 1 .5-.5Zm-6-3a.5.5 0 0 1 .1.99l-.2.02a.501.501 0 0 0-.39.39l-.02.2a.5.5 0 0 1-.99-.1 1.5 1.5 0 0 1 1.5-1.5Zm5 0a1.5 1.5 0 0 1 1.5 1.5.5.5 0 0 1-.99.1l-.02-.2a.501.501 0 0 0-.39-.39l-.2-.02a.5.5 0 0 1 .1-.99Zm-2 0a.5.5 0 0 1 0 1h-1a.5.5 0 0 1 0-1h1Zm-14-4a.5.5 0 0 1 .49.4l.02.2c.04.196.194.35.39.39l.2.02a.5.5 0 0 1-.1.99A1.5 1.5 0 0 1 3 9.5a.5.5 0 0 1 .5-.5Zm4 1a.5.5 0 0 1 0 1h-1a.5.5 0 0 1 0-1h1Zm3-1a.5.5 0 0 1 .5.5A1.5 1.5 0 0 1 9.5 11a.5.5 0 0 1-.1-.99l.2-.02a.501.501 0 0 0 .39-.39l.02-.2a.5.5 0 0 1 .49-.4Zm9-6A1.5 1.5 0 0 1 21 4.5v5a1.5 1.5 0 0 1-1.5 1.5h-5A1.5 1.5 0 0 1 13 9.5v-5A1.5 1.5 0 0 1 14.5 3h5Zm-5 1a.5.5 0 0 0-.5.5v5a.5.5 0 0 0 .5.5h5a.5.5 0 0 0 .5-.5v-5a.5.5 0 0 0-.5-.5h-5Zm-11 2a.5.5 0 0 1 .5.5v1a.5.5 0 0 1-1 0v-1a.5.5 0 0 1 .5-.5Zm7 0a.5.5 0 0 1 .5.5v1a.5.5 0 0 1-1 0v-1a.5.5 0 0 1 .5-.5Zm-6-3a.5.5 0 0 1 .1.99l-.2.02a.501.501 0 0 0-.39.39l-.02.2A.5.5 0 0 1 3 4.5 1.5 1.5 0 0 1 4.5 3Zm5 0A1.5 1.5 0 0 1 11 4.5a.5.5 0 0 1-.99.1l-.02-.2a.501.501 0 0 0-.39-.39l-.2-.02A.5.5 0 0 1 9.5 3Zm-2 0a.5.5 0 0 1 0 1h-1a.5.5 0 0 1 0-1h1Z"/></symbol>
  <use href="#icon"/>
</svg>
