<svg xmlns="http://www.w3.org/2000/svg">
  <symbol id="icon" fill="none" viewBox="0 0 16 16"><path fill="currentColor" fill-rule="evenodd" d="M12.495 1a.5.5 0 0 1 .407.209l1.613 2.254a2.48 2.48 0 1 1-4.036.004l1.61-2.257a.5.5 0 0 1 .406-.21Zm.001 1.36-1.203 1.688a1.48 1.48 0 1 0 2.409-.003L12.496 2.36ZM3.766 10 6.5 2.893 9.234 10H3.766Zm-.384 1-1.415 3.68a.5.5 0 0 1-.934-.36l5-13a.5.5 0 0 1 .934 0l5 13a.5.5 0 0 1-.934.36L9.618 11H3.382Z" clip-rule="evenodd"/></symbol>
  <symbol id="icon-large" fill="none" viewBox="0 0 24 24"><path fill="currentColor" fill-rule="evenodd" d="M10.457 3.298a.5.5 0 0 0-.914 0l-7.5 17a.5.5 0 0 0 .914.404L5.473 15H14.5v-.061l2.543 5.763a.5.5 0 0 0 .914-.404l-7.5-17ZM14.086 14 10 4.739 5.914 14h8.172ZM18.5 3a.5.5 0 0 1 .39.188l2.389 2.985a3.559 3.559 0 1 1-5.558 0l2.389-2.985A.5.5 0 0 1 18.5 3Zm0 1.3-1.998 2.498a2.559 2.559 0 1 0 3.996 0L18.5 4.3Z" clip-rule="evenodd"/></symbol>
  <use href="#icon"/>
</svg>
