<svg xmlns="http://www.w3.org/2000/svg">
  <symbol id="icon" fill="none" viewBox="0 0 16 16"><path fill="currentColor" d="M12.5 2A1.5 1.5 0 0 1 14 3.5l-.008.153a1.5 1.5 0 0 1-1.28 1.33L11.869 9.2A1.998 1.998 0 0 1 13 11l-.01.204a2 2 0 0 1-3.79.665l-4.217.843A1.499 1.499 0 0 1 2 12.5a1.5 1.5 0 0 1 2.787-.768l4.218-.843a1.997 1.997 0 0 1 1.884-1.884l.843-4.218A1.498 1.498 0 0 1 12.5 2Zm-9 10a.5.5 0 1 0 .5.5l-.01-.1a.5.5 0 0 0-.49-.4Zm7.5-2a1 1 0 1 0 1 1l-.005-.102A1 1 0 0 0 11 10Zm1.5-7a.5.5 0 1 0 .5.5l-.01-.1a.5.5 0 0 0-.49-.4Z"/></symbol>
  <symbol id="icon-large" fill="none" viewBox="0 0 24 24"><path fill="currentColor" d="M19.5 3a1.5 1.5 0 0 1 .066 2.996l-2.525 8.298A1.997 1.997 0 0 1 16 18a1.996 1.996 0 0 1-1.705-.959l-8.299 2.525A1.498 1.498 0 0 1 3 19.5a1.5 1.5 0 0 1 2.706-.89l8.298-2.525C14.003 16.057 14 16.029 14 16a2 2 0 0 1 2-2c.029 0 .057.003.085.004l2.525-8.298A1.5 1.5 0 0 1 19.5 3Zm-15 16a.5.5 0 1 0 0 1 .5.5 0 0 0 0-1ZM16 15a1 1 0 1 0 0 2 1 1 0 0 0 0-2Zm3.5-11a.5.5 0 1 0 0 1 .5.5 0 0 0 0-1Z"/></symbol>
  <use href="#icon"/>
</svg>
