<svg xmlns="http://www.w3.org/2000/svg">
  <symbol id="icon" fill="none" viewBox="0 0 16 16"><path fill="currentColor" d="M7 2v1H3.5a.5.5 0 0 0-.5.5v9a.5.5 0 0 0 .5.5h9a.5.5 0 0 0 .5-.5V6h1v6.5a1.5 1.5 0 0 1-1.5 1.5h-9A1.5 1.5 0 0 1 2 12.5v-9A1.5 1.5 0 0 1 3.5 2H7Zm6.5 0a.5.5 0 0 1 0 1H13a4.5 4.5 0 0 0-4.5 4.5v1.793l1.647-1.646a.5.5 0 1 1 .707.707l-2.5 2.5a.5.5 0 0 1-.707 0l-2.5-2.5-.065-.078a.5.5 0 0 1 .694-.693l.078.064L7.5 9.293V7.5A5.5 5.5 0 0 1 13 2h.5Z"/></symbol>
  <symbol id="icon-large" fill="none" viewBox="0 0 24 24"><path fill="currentColor" fill-rule="evenodd" d="M3 19.5v-15A1.5 1.5 0 0 1 4.5 3H12v1H4.5a.5.5 0 0 0-.5.5v15a.5.5 0 0 0 .5.5h15a.5.5 0 0 0 .5-.5V8h1v11.5a1.5 1.5 0 0 1-1.5 1.5h-15A1.5 1.5 0 0 1 3 19.5Zm12.646-7.854a.5.5 0 1 1 .707.707l-4 4a.5.5 0 0 1-.707 0l-4-4a.5.5 0 1 1 .708-.707l3.146 3.147V11.5A8.5 8.5 0 0 1 20 3h.5a.5.5 0 0 1 0 1H20a7.5 7.5 0 0 0-7.5 7.5v3.293l3.146-3.146Z" clip-rule="evenodd"/></symbol>
  <use href="#icon"/>
</svg>
