<svg xmlns="http://www.w3.org/2000/svg">
  <symbol id="icon" fill="none" viewBox="0 0 16 16"><path fill="currentColor" d="M12.5 9.5a.5.5 0 0 1 .5.5v.565c.357.092.675.279.926.534l.489-.282a.5.5 0 1 1 .5.866l-.49.282c.047.17.075.35.075.535 0 .185-.028.364-.075.534l.49.283a.5.5 0 1 1-.5.866l-.49-.283c-.25.255-.568.441-.925.534V15a.5.5 0 0 1-1 0v-.566a1.994 1.994 0 0 1-.927-.534l-.488.283a.5.5 0 1 1-.5-.866l.49-.283a2 2 0 0 1-.075-.534c0-.185.027-.365.074-.535l-.489-.282a.5.5 0 1 1 .5-.866l.488.282c.25-.255.57-.441.927-.534V10a.5.5 0 0 1 .5-.5ZM11.086 2a1.5 1.5 0 0 1 1.06.44l1.414 1.414.1.11a1.5 1.5 0 0 1 .34.95V8h-1V4.914a.5.5 0 0 0-.084-.277l-.063-.076L11.5 3.207V5.5a.5.5 0 0 1-.5.5H5a.5.5 0 0 1-.5-.5V3h-1a.5.5 0 0 0-.5.5v9a.5.5 0 0 0 .5.5h1V9.499a1.5 1.5 0 0 1 1.5-1.5L10 8v1l-4-.001a.5.5 0 0 0-.5.5V13h3v1h-5A1.5 1.5 0 0 1 2 12.5v-9A1.5 1.5 0 0 1 3.5 2h7.586Zm1.414 9.5a1 1 0 1 0 0 2 1 1 0 0 0 0-2ZM5.5 5h5V3h-5v2Z"/></symbol>
  <symbol id="icon-large" fill="none" viewBox="0 0 24 24"><path fill="currentColor" fill-rule="evenodd" d="M3 4.5v15A1.5 1.5 0 0 0 4.5 21H14v-1H8v-6.5a.5.5 0 0 1 .5-.5h7a.5.5 0 0 1 .5.5v.5h1v-.5a1.5 1.5 0 0 0-1.5-1.5h-7A1.5 1.5 0 0 0 7 13.5V20H4.5a.5.5 0 0 1-.5-.5v-15a.5.5 0 0 1 .5-.5H7v4.5a.5.5 0 0 0 .5.5h9a.5.5 0 0 0 .5-.5V4h.086a.5.5 0 0 1 .354.146l2.413 2.415a.5.5 0 0 1 .147.353V13h1V6.914a1.5 1.5 0 0 0-.44-1.06l-2.413-2.415A1.5 1.5 0 0 0 17.085 3H4.5A1.5 1.5 0 0 0 3 4.5ZM8 4v4h8V4H8Zm10.5 18.5v-.541a2.997 2.997 0 0 1-1.812-1.047l-.47.271a.5.5 0 0 1-.5-.866l.47-.27a2.993 2.993 0 0 1 0-2.093l-.47-.271a.5.5 0 0 1 .5-.866l.47.27a2.997 2.997 0 0 1 1.812-1.046V15.5a.5.5 0 0 1 1 0v.541a2.997 2.997 0 0 1 1.812 1.047l.47-.271a.5.5 0 1 1 .5.866l-.47.27a2.995 2.995 0 0 1 0 2.093l.47.271a.5.5 0 1 1-.5.866l-.47-.27a2.997 2.997 0 0 1-1.812 1.046v.541a.5.5 0 0 1-1 0ZM17 19c0-.358.094-.694.26-.985l.008-.015.008-.014a1.999 1.999 0 0 1 3.448 0l.008.014.009.014a1.994 1.994 0 0 1-.001 1.972l-.008.014-.008.014a2 2 0 0 1-3.448 0L17.268 20l-.009-.015A1.991 1.991 0 0 1 17 19Z" clip-rule="evenodd"/></symbol>
  <use href="#icon"/>
</svg>
