<svg xmlns="http://www.w3.org/2000/svg">
  <symbol id="icon" fill="none" viewBox="0 0 16 16"><path fill="currentColor" d="M9.006 1.85a1.5 1.5 0 0 1 1.488 0l2.5 1.428a1.5 1.5 0 0 1 .756 1.302v2.84a1.5 1.5 0 0 1-.756 1.301L10.25 10.29v1.13a1.5 1.5 0 0 1-.756 1.301l-2.5 1.429a1.5 1.5 0 0 1-1.488 0l-2.5-1.429a1.5 1.5 0 0 1-.756-1.302V8.58a1.5 1.5 0 0 1 .756-1.301l2.5-1.429c.078-.045.16-.079.244-.108V4.58a1.5 1.5 0 0 1 .756-1.302l2.5-1.429ZM6.498 6.716a.5.5 0 0 0-.496 0l-2.5 1.429a.5.5 0 0 0-.252.434v2.84a.5.5 0 0 0 .252.433l2.5 1.429a.5.5 0 0 0 .496 0l2.5-1.429a.5.5 0 0 0 .252-.434V8.58a.5.5 0 0 0-.252-.433l-2.5-1.429ZM5.335 9.471a.5.5 0 0 1 .59-.224l.093.042.482.278a.5.5 0 0 1 .25.433v1.116l.242-.145.092-.043a.5.5 0 0 1 .423.9l-1 .6a.499.499 0 0 1-.514 0l-1-.6-.082-.06a.5.5 0 0 1 .505-.84l.09.043.244.146v-.83l-.232-.133-.082-.059a.5.5 0 0 1-.101-.624Zm4.663-6.754a.5.5 0 0 0-.496 0l-2.5 1.429a.5.5 0 0 0-.252.434v1.16c.083.03.166.064.244.11l2.5 1.428a1.5 1.5 0 0 1 .756 1.302v.557l2.248-1.284a.5.5 0 0 0 .252-.434V4.58a.5.5 0 0 0-.252-.433l-2.5-1.429ZM6.25 7.75a.5.5 0 1 1 0 1 .5.5 0 0 1 0-1Zm3.31-4.212a.501.501 0 0 1 .44.029l.866.5.082.058a.5.5 0 0 1-.49.85l-.092-.043-.116-.067v.845l.25.145.082.06a.5.5 0 0 1-.49.848L10 6.721l-.5-.289A.5.5 0 0 1 9.25 6V4.865l-.116.067a.5.5 0 1 1-.5-.865l.866-.5.06-.03Z"/></symbol>
  <symbol id="icon-large" fill="none" viewBox="0 0 24 24"><path fill="currentColor" fill-rule="evenodd" d="M20.252 5.143a.5.5 0 0 1 .248.431v5.852a.5.5 0 0 1-.248.431L15.5 14.63v-2.056a1.5 1.5 0 0 0-.744-1.296l-5-2.916a1.5 1.5 0 0 0-.256-.118v-2.67a.5.5 0 0 1 .248-.431l5-2.917a.5.5 0 0 1 .504 0l5 2.917ZM8.5 8.243a1.5 1.5 0 0 0-.256.12l-5 2.915a1.5 1.5 0 0 0-.744 1.296v5.852a1.5 1.5 0 0 0 .744 1.296l5 2.916a1.5 1.5 0 0 0 1.512 0l5-2.916a1.5 1.5 0 0 0 .744-1.296v-2.639l5.256-3.065a1.5 1.5 0 0 0 .744-1.296V5.574a1.5 1.5 0 0 0-.744-1.296l-5-2.916a1.5 1.5 0 0 0-1.512 0l-5 2.916A1.5 1.5 0 0 0 8.5 5.574v2.67Zm6 4.331a.5.5 0 0 0-.248-.431l-5-2.917a.5.5 0 0 0-.504 0l-5 2.917a.5.5 0 0 0-.248.431v5.852a.5.5 0 0 0 .248.431l5 2.917a.5.5 0 0 0 .504 0l5-2.917a.5.5 0 0 0 .248-.431v-5.852Zm-6 6.043V15.31l-1.224-.612a.5.5 0 0 1 .448-.894l1.5.75A.5.5 0 0 1 9.5 15v3.617l1.243-.746a.5.5 0 0 1 .514.858l-2 1.2a.5.5 0 0 1-.514 0l-2-1.2a.5.5 0 0 1 .514-.858l1.243.746Zm1.25-6.367a.75.75 0 1 1-1.5 0 .75.75 0 0 1 1.5 0Zm5.75-6.868V9.19l1.224.613a.5.5 0 0 1-.448.894l-1.5-.75A.5.5 0 0 1 14.5 9.5V5.382l-1.243.747a.5.5 0 0 1-.514-.857l2-1.2.06-.032a.5.5 0 0 1 .454.031l2 1.2a.5.5 0 1 1-.514.858L15.5 5.382Z" clip-rule="evenodd"/></symbol>
  <use href="#icon"/>
</svg>
