<svg xmlns="http://www.w3.org/2000/svg">
  <symbol id="icon" fill="none" viewBox="0 0 16 16"><path fill="currentColor" d="M8 13a.5.5 0 0 1 .5.5v.5a.5.5 0 0 1-1 0v-.5A.5.5 0 0 1 8 13ZM2.249 3.067a.5.5 0 0 1 .499-.002l3.5 2A.5.5 0 0 1 6.5 5.5v5a.5.5 0 0 1-.252.435l-3.5 2A.5.5 0 0 1 2 12.5v-9l.004-.066a.5.5 0 0 1 .245-.367Zm11.003-.002A.5.5 0 0 1 14 3.5v9a.5.5 0 0 1-.748.435l-3.5-2A.5.5 0 0 1 9.5 10.5v-5l.005-.066a.5.5 0 0 1 .247-.369l3.5-2ZM8 10a.5.5 0 0 1 .5.5v1a.5.5 0 0 1-1 0v-1A.5.5 0 0 1 8 10Zm-5 1.638 2.5-1.429V5.79L3 4.361v7.277Zm7.5-5.848v4.419l2.5 1.429V4.36l-2.5 1.43ZM8 7a.5.5 0 0 1 .5.5v1a.5.5 0 0 1-1 0v-1A.5.5 0 0 1 8 7Zm0-3a.5.5 0 0 1 .5.5v1a.5.5 0 0 1-1 0v-1A.5.5 0 0 1 8 4Zm0-2.5a.5.5 0 0 1 .5.5v.5a.5.5 0 0 1-1 0V2a.5.5 0 0 1 .5-.5Z"/></symbol>
  <symbol id="icon-large" fill="none" viewBox="0 0 24 24"><path fill="currentColor" d="M12 18.5a.5.5 0 0 1 .5.5v1.5a.5.5 0 0 1-1 0V19a.5.5 0 0 1 .5-.5ZM3.23 5.08a.5.5 0 0 1 .477-.035l5.5 2.5.064.035A.5.5 0 0 1 9.5 8v8a.5.5 0 0 1-.293.455l-5.5 2.5A.5.5 0 0 1 3 18.5v-13l.004-.063a.5.5 0 0 1 .225-.357Zm17.123-.058A.5.5 0 0 1 21 5.5v13a.5.5 0 0 1-.707.455l-5.5-2.5A.5.5 0 0 1 14.5 16V8l.005-.072a.5.5 0 0 1 .288-.383l5.5-2.5.06-.023ZM4 17.722l4.5-2.044V8.32L4 6.276v11.447Zm11.5-9.4v7.356l4.5 2.045V6.276l-4.5 2.045ZM12 14.5a.5.5 0 0 1 .5.5v2a.5.5 0 0 1-1 0v-2a.5.5 0 0 1 .5-.5Zm0-4a.5.5 0 0 1 .5.5v2a.5.5 0 0 1-1 0v-2a.5.5 0 0 1 .5-.5Zm0-4a.5.5 0 0 1 .5.5v2a.5.5 0 0 1-1 0V7a.5.5 0 0 1 .5-.5ZM12 3a.5.5 0 0 1 .5.5V5a.5.5 0 0 1-1 0V3.5A.5.5 0 0 1 12 3Z"/></symbol>
  <use href="#icon"/>
</svg>
