<svg xmlns="http://www.w3.org/2000/svg">
  <symbol id="icon" fill="none" viewBox="0 0 16 16"><path fill="currentColor" d="M12.5 2A1.5 1.5 0 0 1 14 3.5v9a1.5 1.5 0 0 1-1.5 1.5h-9A1.5 1.5 0 0 1 2 12.5v-9A1.5 1.5 0 0 1 3.5 2h9ZM3 6v6.5a.5.5 0 0 0 .5.5H5V6H3Zm3 0v7h6.5a.5.5 0 0 0 .5-.5V6H6ZM3.5 3a.5.5 0 0 0-.5.5V5h2V3H3.5ZM6 5h7V3.5a.5.5 0 0 0-.5-.5H6v2Z"/></symbol>
  <symbol id="icon-large" fill="none" viewBox="0 0 24 24"><path fill="currentColor" d="M20.5 4A1.5 1.5 0 0 1 22 5.5v13a1.5 1.5 0 0 1-1.5 1.5h-17A1.5 1.5 0 0 1 2 18.5v-13A1.5 1.5 0 0 1 3.5 4h17ZM3 18.5a.5.5 0 0 0 .5.5h4v-4.5H3v4Zm5.5.5h12a.5.5 0 0 0 .5-.5v-4H8.5V19ZM3 9v4.5h4.5V9H3Zm5.5 0v4.5H21V9H8.5Zm-5-4a.5.5 0 0 0-.5.5V8h4.5V5h-4Zm5 3H21V5.5a.5.5 0 0 0-.5-.5h-12v3Z"/></symbol>
  <use href="#icon"/>
</svg>
