<svg xmlns="http://www.w3.org/2000/svg">
  <symbol id="icon" fill="none" viewBox="0 0 16 16"><path fill="currentColor" d="M5.44 2.354a1.5 1.5 0 0 1 2.12 0l.793.792a1.207 1.207 0 0 1 0 1.708l-2.25 2.25a1.975 1.975 0 0 0 2.793 2.792l2.25-2.25a1.207 1.207 0 0 1 1.707 0l.793.793a1.5 1.5 0 0 1 0 2.121l-2.043 2.043a5.803 5.803 0 0 1-8.207-8.207L5.44 2.354Zm-1.337 2.75a4.804 4.804 0 0 0 6.793 6.792l.647-.646-1.293-1.293-.647.646a2.975 2.975 0 0 1-4.207-4.207l.647-.646L4.75 4.457l-.647.647Zm8.043 3.25a.207.207 0 0 0-.293 0l-.896.896 1.293 1.293.69-.69a.5.5 0 0 0 0-.707l-.794-.792ZM12.25 2a1.75 1.75 0 1 1 0 3.5 1.75 1.75 0 0 1 0-3.5ZM6.853 3.06a.5.5 0 0 0-.707 0l-.69.69L6.75 5.043l.896-.897a.207.207 0 0 0 0-.292l-.793-.793ZM12.25 3a.75.75 0 1 0 0 1.5.75.75 0 0 0 0-1.5Z"/></symbol>
  <symbol id="icon-large" fill="none" viewBox="0 0 24 24"><path fill="currentColor" fill-rule="evenodd" d="M19.5 4a.5.5 0 0 1 .5.5v2a.5.5 0 0 1-.5.5h-2a.5.5 0 0 1-.5-.5v-2a.5.5 0 0 1 .5-.5h2Zm0 4A1.5 1.5 0 0 0 21 6.5v-2A1.5 1.5 0 0 0 19.5 3h-2A1.5 1.5 0 0 0 16 4.5v2A1.5 1.5 0 0 0 17.5 8h2ZM9.44 4.854a1.5 1.5 0 0 1 2.12 0l1.086 1.085a1.5 1.5 0 0 1 0 2.122l-4.792 4.793a2.329 2.329 0 0 0 3.292 3.293l4.793-4.793a1.5 1.5 0 0 1 2.122 0l1.085 1.086a1.5 1.5 0 0 1 0 2.12l-4.793 4.793a6.864 6.864 0 1 1-9.707-9.707L9.44 4.854Zm1.414.707a.5.5 0 0 0-.707 0L8.207 7.5 10 9.293l1.94-1.94a.5.5 0 0 0 0-.707l-1.086-1.085Zm-5.5 4.793L7.5 8.207 9.293 10l-2.147 2.146a3.328 3.328 0 1 0 4.708 4.707L14 14.707l1.793 1.793-2.146 2.146a5.864 5.864 0 0 1-8.293-8.293ZM16.5 15.793 14.707 14l1.94-1.94a.5.5 0 0 1 .707 0l1.085 1.086a.5.5 0 0 1 0 .707l-1.939 1.94Z" clip-rule="evenodd"/></symbol>
  <use href="#icon"/>
</svg>
