<svg xmlns="http://www.w3.org/2000/svg">
  <symbol id="icon" fill="none" viewBox="0 0 16 16"><path fill="currentColor" d="M7.25 1.855a1.5 1.5 0 0 1 1.5 0l4.196 2.423a1.5 1.5 0 0 1 .75 1.299v4.846a1.5 1.5 0 0 1-.75 1.298L8.75 14.144a1.5 1.5 0 0 1-1.5 0l-4.196-2.423a1.5 1.5 0 0 1-.75-1.298V5.577a1.5 1.5 0 0 1 .75-1.299L7.25 1.855Zm1 .866a.5.5 0 0 0-.5 0L3.554 5.144a.5.5 0 0 0-.25.433v4.846a.5.5 0 0 0 .25.432l4.196 2.423a.5.5 0 0 0 .5 0l4.196-2.423a.5.5 0 0 0 .25-.432V5.577a.5.5 0 0 0-.25-.433L8.25 2.721ZM7 8.5a.5.5 0 0 1 0 1h-.321a2 2 0 0 0 3.155-.7.5.5 0 0 1 .916.4A3 3 0 0 1 6 10.234v.266a.5.5 0 0 1-1 0V9l.01-.1a.5.5 0 0 1 .49-.4H7ZM10.5 5a.5.5 0 0 1 .5.5V7a.5.5 0 0 1-.5.5H9a.5.5 0 0 1 0-1h.32a2.001 2.001 0 0 0-3.154.7.5.5 0 1 1-.916-.4A3 3 0 0 1 10 5.764V5.5a.5.5 0 0 1 .5-.5Z"/></symbol>
  <symbol id="icon-large" fill="none" viewBox="0 0 24 24"><path fill="currentColor" fill-rule="evenodd" d="M20.26 7.134a.5.5 0 0 1 .24.426v8.88a.5.5 0 0 1-.24.426l-8 4.889a.5.5 0 0 1-.52 0l-8-4.889a.5.5 0 0 1-.24-.427V7.56a.5.5 0 0 1 .24-.426l8-4.889a.5.5 0 0 1 .52 0l8 4.889Zm.522 10.585a1.5 1.5 0 0 0 .718-1.28V7.56a1.5 1.5 0 0 0-.718-1.279l-8-4.89a1.5 1.5 0 0 0-1.564 0l-8 4.89a1.5 1.5 0 0 0-.718 1.28v8.878a1.5 1.5 0 0 0 .718 1.28l8 4.89a1.5 1.5 0 0 0 1.564 0l8-4.89ZM16 7.999a.5.5 0 0 0-.5.5v.633A4.571 4.571 0 0 0 12 7.5a4.502 4.502 0 0 0-4.358 3.375.5.5 0 0 0 .968.25A3.502 3.502 0 0 1 12 8.5c1.193 0 2.272.596 2.908 1.5H14a.5.5 0 0 0 0 1h2a.5.5 0 0 0 .5-.5v-2A.5.5 0 0 0 16 8Zm-.001 4.517a.5.5 0 0 1 .36.609A4.502 4.502 0 0 1 12 16.5a4.571 4.571 0 0 1-3.5-1.632v.632a.5.5 0 1 1-1 0v-2l.01-.1A.5.5 0 0 1 8 13h2a.5.5 0 0 1 0 1h-.908A3.566 3.566 0 0 0 12 15.5a3.502 3.502 0 0 0 3.39-2.625.5.5 0 0 1 .609-.36Z" clip-rule="evenodd"/></symbol>
  <use href="#icon"/>
</svg>
