<svg xmlns="http://www.w3.org/2000/svg">
  <symbol id="icon" fill="none" viewBox="0 0 16 16"><path fill="currentColor" d="M12.5 10a.5.5 0 0 1 .5.5V12h1.5a.5.5 0 0 1 0 1H13v1.5a.5.5 0 0 1-1 0V13h-1.5a.5.5 0 0 1 0-1H12v-1.5a.5.5 0 0 1 .5-.5Zm1-8A1.5 1.5 0 0 1 15 3.5V9h-1V7H2v5.5a.5.5 0 0 0 .5.5H9v1H2.5A1.5 1.5 0 0 1 1 12.5v-9A1.5 1.5 0 0 1 2.5 2h11Zm-11 1a.5.5 0 0 0-.5.5V6h12V3.5l-.01-.1a.5.5 0 0 0-.49-.4h-11Zm10 1a.5.5 0 0 1 0 1h-2a.5.5 0 0 1 0-1h2Z"/></symbol>
  <symbol id="icon-large" fill="none" viewBox="0 0 24 24"><path fill="currentColor" fill-rule="evenodd" d="M20.5 5a.5.5 0 0 1 .5.5V8H3V5.5a.5.5 0 0 1 .5-.5h17Zm.5 9V9H3v9.5a.5.5 0 0 0 .5.5h10v1h-10A1.5 1.5 0 0 1 2 18.5v-13A1.5 1.5 0 0 1 3.5 4h17A1.5 1.5 0 0 1 22 5.5V14h-1Zm-2.5 8v-2.5H16a.5.5 0 0 1 0-1h2.5V16a.5.5 0 0 1 1 0v2.5H22a.5.5 0 0 1 0 1h-2.5V22a.5.5 0 0 1-1 0ZM20 6.5a.5.5 0 0 0-.5-.5h-2a.5.5 0 0 0 0 1h2a.5.5 0 0 0 .5-.5Z" clip-rule="evenodd"/></symbol>
  <use href="#icon"/>
</svg>
