<svg xmlns="http://www.w3.org/2000/svg">
  <symbol id="icon" fill="none" viewBox="0 0 16 16"><path fill="currentColor" fill-rule="evenodd" d="M2 14.5C2 7.596 7.596 2 14.5 2a.5.5 0 0 0 0-1C7.044 1 1 7.044 1 14.5a.5.5 0 0 0 1 0Zm12.25-9.985a.482.482 0 0 0-.512-.488c-.602.043-1.19.137-1.76.278a.483.483 0 0 0-.323.66c.098.236.359.36.608.3a9.483 9.483 0 0 1 1.5-.237.521.521 0 0 0 .487-.513ZM10 6.131a.522.522 0 0 0 .243-.655.482.482 0 0 0-.67-.25c-.54.287-1.053.621-1.532.995a.483.483 0 0 0-.035.724c.185.185.48.196.688.035.41-.317.847-.601 1.306-.849ZM6.946 8.006c.185.185.196.48.035.688-.317.41-.601.847-.849 1.306a.522.522 0 0 1-.655.243.482.482 0 0 1-.25-.67c.287-.54.621-1.053.995-1.532a.483.483 0 0 1 .724-.035Zm-1.68 4.257a.523.523 0 0 0-.3-.608.483.483 0 0 0-.66.322c-.14.57-.235 1.159-.278 1.761-.02.28.207.512.488.512a.521.521 0 0 0 .513-.487c.04-.512.12-1.013.237-1.5ZM14.5 8A6.5 6.5 0 0 0 8 14.5a.5.5 0 0 1-1 0A7.5 7.5 0 0 1 14.5 7a.5.5 0 0 1 0 1Z" clip-rule="evenodd"/></symbol>
  <symbol id="icon-large" fill="none" viewBox="0 0 24 24"><path fill="currentColor" fill-rule="evenodd" d="M4 20.5C4 11.387 11.387 4 20.5 4a.5.5 0 0 0 0-1C10.835 3 3 10.835 3 20.5a.5.5 0 0 0 1 0Zm16.5-13a.516.516 0 0 1-.5.51c-.821.032-1.622.144-2.395.327a.517.517 0 0 1-.6-.3.487.487 0 0 1 .33-.664c.86-.206 1.75-.33 2.665-.364.276-.01.5.215.5.491ZM7.01 20c-.011.276.214.5.49.5a.516.516 0 0 0 .51-.5c.032-.821.144-1.622.327-2.395a.517.517 0 0 0-.3-.6.487.487 0 0 0-.664.33c-.206.86-.33 1.75-.364 2.665Zm1.421-5.556a.486.486 0 0 0 .255.666.516.516 0 0 0 .656-.25 12.53 12.53 0 0 1 1.346-2.106.517.517 0 0 0-.033-.685.487.487 0 0 0-.726.034 13.512 13.512 0 0 0-1.498 2.341Zm3.638-3.79c.185.186.48.197.685.034a12.515 12.515 0 0 1 2.106-1.346.516.516 0 0 0 .25-.656.486.486 0 0 0-.666-.255c-.833.42-1.617.922-2.341 1.498a.487.487 0 0 0-.034.726ZM20.5 12a8.5 8.5 0 0 0-8.5 8.5.5.5 0 0 1-1 0 9.5 9.5 0 0 1 9.5-9.5.5.5 0 0 1 0 1Z" clip-rule="evenodd"/></symbol>
  <use href="#icon"/>
</svg>
