<svg xmlns="http://www.w3.org/2000/svg">
  <symbol id="icon" fill="none" viewBox="0 0 16 16"><path fill="currentColor" d="M8 1.5a6.5 6.5 0 1 1-.953 12.929c-.308-.046-.474-.373-.355-.66a.541.541 0 0 1 .577-.318 5.5 5.5 0 1 0 0-10.903.541.541 0 0 1-.577-.318c-.119-.287.047-.614.355-.66.31-.046.63-.07.953-.07Zm-5.003 9.654a.542.542 0 0 1 .633.184c.297.388.644.735 1.032 1.031a.542.542 0 0 1 .183.633c-.12.288-.469.403-.719.217a6.537 6.537 0 0 1-1.346-1.346c-.186-.25-.071-.6.217-.719ZM8 10.25a.75.75 0 1 1 0 1.5.75.75 0 0 1 0-1.5ZM1.57 7.047c.046-.308.373-.474.66-.355.226.094.35.335.318.577a5.579 5.579 0 0 0 0 1.461.541.541 0 0 1-.318.577c-.287.119-.614-.047-.66-.355a6.483 6.483 0 0 1 0-1.905ZM8 4a.5.5 0 0 1 .5.5v4a.5.5 0 0 1-1 0v-4A.5.5 0 0 1 8 4ZM4.126 2.78c.25-.186.6-.071.719.217a.542.542 0 0 1-.183.633A5.535 5.535 0 0 0 3.63 4.662a.542.542 0 0 1-.633.183c-.288-.12-.403-.469-.217-.719A6.53 6.53 0 0 1 4.126 2.78Z"/></symbol>
  <symbol id="icon-large" fill="none" viewBox="0 0 24 24"><path fill="currentColor" fill-rule="evenodd" d="M12 21c-.318 0-.632-.017-.941-.049a.5.5 0 0 0-.104.995c.344.036.692.054 1.045.054 5.523 0 10-4.477 10-10S17.523 2 12 2c-.353 0-.701.018-1.045.054a.5.5 0 0 0 .104.995A9 9 0 1 1 12 21Zm-5.29-1.718a.5.5 0 0 0-.589.809c.562.409 1.169.76 1.81 1.047a.5.5 0 0 0 .408-.913 8.988 8.988 0 0 1-1.629-.943Zm-2.935-3.62a.5.5 0 0 0-.913.406 9.996 9.996 0 0 0 1.047 1.81.5.5 0 0 0 .809-.588 8.993 8.993 0 0 1-.943-1.629Zm-1.721-4.707a10.112 10.112 0 0 0 0 2.09.5.5 0 0 0 .995-.104 9.108 9.108 0 0 1 0-1.882.5.5 0 0 0-.995-.104Zm2.554-4.943a.5.5 0 0 0-.699.11 9.996 9.996 0 0 0-1.047 1.81.5.5 0 0 0 .913.407 8.995 8.995 0 0 1 .943-1.629.5.5 0 0 0-.11-.698Zm3.984-2.897a.5.5 0 0 0-.66-.253 9.996 9.996 0 0 0-1.81 1.047.5.5 0 0 0 .588.809 8.995 8.995 0 0 1 1.629-.943.5.5 0 0 0 .253-.66ZM12.75 16.75a.75.75 0 1 1-1.5 0 .75.75 0 0 1 1.5 0ZM11.5 7v6.5a.5.5 0 0 0 1 0V7a.5.5 0 0 0-1 0Z" clip-rule="evenodd"/></symbol>
  <use href="#icon"/>
</svg>
