<svg xmlns="http://www.w3.org/2000/svg">
  <symbol id="icon" fill="none" viewBox="0 0 16 16"><path fill="currentColor" fill-rule="evenodd" d="M14 3.5v9a.5.5 0 0 1-.5.5H6v1h7.5a1.5 1.5 0 0 0 1.5-1.5v-9A1.5 1.5 0 0 0 13.5 2h-11A1.5 1.5 0 0 0 1 3.5V9h1V3.5a.5.5 0 0 1 .5-.5h11a.5.5 0 0 1 .5.5Zm-9.146 6.646a.5.5 0 0 0-.708 0L3 11.293l-1.146-1.146a.5.5 0 1 0-.708.707L2.293 12l-1.147 1.146a.5.5 0 1 0 .708.707L3 12.707l1.146 1.146a.5.5 0 1 0 .708-.707L3.707 12l1.147-1.146a.5.5 0 0 0 0-.707Z" clip-rule="evenodd"/></symbol>
  <symbol id="icon-large" fill="none" viewBox="0 0 24 24"><path fill="currentColor" fill-rule="evenodd" d="M21 5.5v13a.5.5 0 0 1-.5.5H9v1h11.5a1.5 1.5 0 0 0 1.5-1.5v-13A1.5 1.5 0 0 0 20.5 4h-17A1.5 1.5 0 0 0 2 5.5V13h1V5.5a.5.5 0 0 1 .5-.5h17a.5.5 0 0 1 .5.5ZM6.854 15.146a.5.5 0 0 0-.708 0L4.5 16.793l-1.646-1.646a.5.5 0 1 0-.708.707L3.793 17.5l-1.647 1.646a.5.5 0 1 0 .708.707L4.5 18.207l1.646 1.646a.5.5 0 1 0 .708-.707L5.207 17.5l1.647-1.646a.5.5 0 0 0 0-.707Z" clip-rule="evenodd"/></symbol>
  <use href="#icon"/>
</svg>
