<svg xmlns="http://www.w3.org/2000/svg">
  <symbol id="icon" fill="none" viewBox="0 0 16 16"><path fill="currentColor" fill-rule="evenodd" d="M11 10V3a1 1 0 0 0-2 0v.83c.005.058.007.117.007.176L9 9.5a.5.5 0 1 1-1 0V3.88a1.004 1.004 0 0 0-2 .122v7.968a.5.5 0 0 1-.884.32l-.048-.069-1.459-2.508a.882.882 0 0 0-1.55.843l1.887 3.717a.5.5 0 1 1-.892.452L1.168 11.01a1.883 1.883 0 0 1 3.305-1.799l.527.905V4.003a2.005 2.005 0 0 1 3.113-1.669A2 2 0 0 1 12 3v4.768a1.99 1.99 0 0 1 1-.268c1.1 0 2.012.893 1.991 2.01-.035 1.806-.207 3.126-1.027 5.175a.5.5 0 1 1-.928-.37c.767-1.917.922-3.114.955-4.824A.983.983 0 0 0 13 8.5a1 1 0 0 0-1 1v.5a.5.5 0 0 1-1 0Z" clip-rule="evenodd"/></symbol>
  <symbol id="icon-large" fill="none" viewBox="0 0 24 24"><path fill="currentColor" fill-rule="evenodd" d="M15.5 13.5V5a1.5 1.5 0 0 0-3 0v8a.5.5 0 0 1-1 0V6a1.5 1.5 0 0 0-3 0v10.5a.5.5 0 0 1-.929.257l-2.018-3.363a1.319 1.319 0 0 0-2.277 1.333l3.159 5.525a.5.5 0 0 1-.87.496l-3.157-5.525a2.32 2.32 0 0 1 4.002-2.344l1.09 1.816V6a2.5 2.5 0 0 1 4.156-1.872A2.5 2.5 0 0 1 16.5 5v6.5A2.49 2.49 0 0 1 18 11c1.382 0 2.497 1.118 2.542 2.483l.002.058c.079 2.374.143 4.294-1.084 7.156a.501.501 0 0 1-.92-.394c1.14-2.658 1.082-4.393 1.003-6.75l-.001-.036C19.514 12.674 18.827 12 18 12a1.5 1.5 0 0 0-1.5 1.5.5.5 0 0 1-1 0Z" clip-rule="evenodd"/></symbol>
  <use href="#icon"/>
</svg>
