<svg xmlns="http://www.w3.org/2000/svg">
  <symbol id="icon" fill="none" viewBox="0 0 16 16"><path fill="currentColor" fill-rule="evenodd" d="M4.61 6.644A3.487 3.487 0 0 1 8 4a3.5 3.5 0 0 1 3.5 3.5.5.5 0 0 0 .5.5 2 2 0 1 1 0 4h-.5v1h.5a3 3 0 0 0 .476-5.962A4.5 4.5 0 0 0 8 3a4.487 4.487 0 0 0-4.269 3.085A3.501 3.501 0 0 0 4.5 13v-1a2.5 2.5 0 0 1-.313-4.98.5.5 0 0 0 .423-.376ZM8 7.5a.5.5 0 0 1 .5.5v4.293l1.146-1.147a.5.5 0 0 1 .708.708l-2 2a.5.5 0 0 1-.708 0l-2-2a.5.5 0 0 1 .708-.708L7.5 12.293V8a.5.5 0 0 1 .5-.5Z" clip-rule="evenodd"/></symbol>
  <symbol id="icon-large" fill="none" viewBox="0 0 24 24"><path fill="currentColor" fill-rule="evenodd" d="M6.425 8.783a6 6 0 0 1 11.56 1.784.5.5 0 0 0 .443.46 4 4 0 0 1-.444 7.976L17.001 19l-.004 1 .984.003h.001a5 5 0 0 0 .959-9.908A7.001 7.001 0 0 0 5.6 8.165a6.002 6.002 0 0 0 .874 11.812l.5.026.052-.999-.49-.025a5 5 0 0 1-.482-9.89.5.5 0 0 0 .371-.306ZM12 12a.5.5 0 0 1 .5.5v6.793l2.146-2.147a.5.5 0 0 1 .708.708l-3 3a.5.5 0 0 1-.708 0l-3-3a.5.5 0 0 1 .708-.708l2.146 2.147V12.5a.5.5 0 0 1 .5-.5Z" clip-rule="evenodd"/></symbol>
  <use href="#icon"/>
</svg>
