<svg xmlns="http://www.w3.org/2000/svg">
  <symbol id="icon" fill="none" viewBox="0 0 16 16"><path fill="currentColor" fill-rule="evenodd" d="M7.776 2.17a.5.5 0 0 1 .448 0l2.658 1.33L8 4.941 5.118 3.5l2.658-1.33ZM4.5 4.31v3.573a.5.5 0 0 0 .276.447L7.5 9.691V5.809l-3-1.5Zm4 5.382 2.724-1.362a.5.5 0 0 0 .276-.447V4.309l-3 1.5v3.882Zm.17-8.415a1.5 1.5 0 0 0-1.34 0l-3 1.5a1.5 1.5 0 0 0-.83 1.342v3.764a1.5 1.5 0 0 0 .83 1.342l3 1.5a1.5 1.5 0 0 0 1.34 0l3-1.5a1.5 1.5 0 0 0 .83-1.342V4.118a1.5 1.5 0 0 0-.83-1.342l-3-1.5ZM2.5 9.831c-.34.385-.5.78-.5 1.169 0 .694.53 1.437 1.64 2.035C4.732 13.622 6.272 14 8 14c1.729 0 3.269-.378 4.36-.965C13.47 12.437 14 11.695 14 11c0-.389-.16-.784-.5-1.17l.75-.66c.462.523.75 1.145.75 1.83 0 1.239-.925 2.246-2.167 2.915C11.571 14.595 9.861 15 8 15c-1.861 0-3.57-.405-4.833-1.085C1.925 13.246 1 12.24 1 11c0-.685.288-1.307.75-1.83l.75.66Z" clip-rule="evenodd"/></symbol>
  <symbol id="icon-large" fill="none" viewBox="0 0 24 24"><path fill="currentColor" fill-rule="evenodd" d="M11.776 3.67a.5.5 0 0 1 .448 0L16.882 6 12 8.441 7.118 6l4.658-2.33ZM6.5 6.81v5.573a.5.5 0 0 0 .276.447l4.724 2.362V9.309l-5-2.5Zm6 8.382 4.724-2.362a.5.5 0 0 0 .276-.447V6.809l-5 2.5v5.882Zm.17-12.415a1.5 1.5 0 0 0-1.34 0l-5 2.5a1.5 1.5 0 0 0-.83 1.342v5.764a1.5 1.5 0 0 0 .83 1.342l5 2.5a1.5 1.5 0 0 0 1.34 0l5-2.5a1.5 1.5 0 0 0 .83-1.342V6.618a1.5 1.5 0 0 0-.83-1.342l-5-2.5ZM4.108 13.37C3.368 14.042 3 14.77 3 15.5c0 1.103.858 2.221 2.515 3.093C7.15 19.453 9.441 20 12 20s4.85-.547 6.485-1.407C20.142 17.721 21 16.603 21 15.5c0-.729-.368-1.458-1.107-2.13l.673-.74c.877.8 1.434 1.777 1.434 2.87 0 1.659-1.268 3.04-3.05 3.978C17.146 20.428 14.688 21 12 21c-2.688 0-5.146-.572-6.95-1.522C3.268 18.54 2 17.158 2 15.5c0-1.093.557-2.071 1.434-2.87l.673.74Z" clip-rule="evenodd"/></symbol>
  <use href="#icon"/>
</svg>
