<svg xmlns="http://www.w3.org/2000/svg">
  <symbol id="icon" fill="none" viewBox="0 0 16 16"><path fill="currentColor" d="M13.5 2a.5.5 0 0 1 .5.5v11a.5.5 0 0 1-1 0V5H7.5V2.5a.5.5 0 0 1 1 0V4H13V2.5a.5.5 0 0 1 .5-.5Zm-11 0a.5.5 0 0 1 .5.5v2H2v-2a.5.5 0 0 1 .5-.5Z" opacity=".4"/><path fill="currentColor" d="M8.1 4.01a.5.5 0 0 1 .4.49v9a.5.5 0 0 1-1 0V5H3v8.5a.5.5 0 0 1-1 0v-9l.01-.1A.5.5 0 0 1 2.5 4H8l.1.01Z"/></symbol>
  <symbol id="icon-large" fill="none" viewBox="0 0 24 24"><path fill="currentColor" d="M12 3a.5.5 0 0 1 .5.5V7H20V3.5h1v17h-1V8h-8.5V3.5A.5.5 0 0 1 12 3ZM3.5 3a.5.5 0 0 1 .5.5v4H3v-4a.5.5 0 0 1 .5-.5Z" opacity=".48"/><path fill="currentColor" d="M12.1 7.01a.5.5 0 0 1 .4.49v13a.5.5 0 0 1-1 0V8H4v12.5a.5.5 0 0 1-1 0v-13l.01-.1A.5.5 0 0 1 3.5 7H12l.1.01Z"/></symbol>
  <use href="#icon"/>
</svg>
