<svg xmlns="http://www.w3.org/2000/svg">
  <symbol id="icon" fill="none" viewBox="0 0 16 16"><path fill="currentColor" d="M8 1.5a6.5 6.5 0 1 1 0 13 6.5 6.5 0 0 1 0-13Zm0 1a5.5 5.5 0 1 0 0 11 5.5 5.5 0 0 0 0-11ZM8 4a.5.5 0 0 1 .5.5v3.293l1.854 1.853.064.079a.5.5 0 0 1-.693.693l-.079-.064-2-2A.5.5 0 0 1 7.5 8V4.5A.5.5 0 0 1 8 4Z"/></symbol>
  <symbol id="icon-large" fill="none" viewBox="0 0 24 24"><path fill="currentColor" fill-rule="evenodd" d="M12 3a9 9 0 1 1 0 18 9 9 0 0 1 0-18Zm0 19c5.523 0 10-4.477 10-10S17.523 2 12 2 2 6.477 2 12s4.477 10 10 10Zm0-16.5a.5.5 0 0 0-.5.5v6a.5.5 0 0 0 .146.354l3.5 3.5a.5.5 0 1 0 .707-.707L12.5 11.793V6a.5.5 0 0 0-.5-.5Z" clip-rule="evenodd"/></symbol>
  <use href="#icon"/>
</svg>
