<svg xmlns="http://www.w3.org/2000/svg">
  <symbol id="icon" fill="none" viewBox="0 0 16 16"><path fill="currentColor" d="M6.5 11a1.5 1.5 0 1 1 0 3 1.5 1.5 0 0 1 0-3Zm5 0a1.5 1.5 0 1 1 0 3 1.5 1.5 0 0 1 0-3Zm-5 1a.5.5 0 1 0 0 1 .5.5 0 0 0 0-1Zm5 0a.5.5 0 1 0 0 1 .5.5 0 0 0 0-1ZM2.731 2a1.5 1.5 0 0 1 1.45 1.113L4.417 4h9.598c.016.001.031.004.047.006a.327.327 0 0 1 .07.012c.01.002.019.007.028.01.016.006.033.01.048.018.02.009.038.02.056.031l.022.014a.488.488 0 0 1 .11.105.514.514 0 0 1 .05.083c.008.015.015.03.02.045.006.014.01.029.014.043l.011.048a.513.513 0 0 1 .006.056c0 .01.003.02.003.029l-.002.015c0 .016-.003.031-.005.047a.327.327 0 0 1-.009.056c0 .005 0 .01-.002.014l-1.298 4.762a1.5 1.5 0 0 1-1.448 1.106H6.27a1.5 1.5 0 0 1-1.45-1.113L3.214 3.37A.5.5 0 0 0 2.73 3H2.5a.5.5 0 0 1 0-1h.231Zm1.953 3 1.101 4.129a.5.5 0 0 0 .484.37h5.467a.5.5 0 0 0 .483-.367L13.346 5H4.684Z"/></symbol>
  <symbol id="icon-large" fill="none" viewBox="0 0 24 24"><path fill="currentColor" fill-rule="evenodd" d="M4.166 3.163A1.5 1.5 0 0 0 2.704 2H1.5a.5.5 0 0 0 0 1h1.204a.5.5 0 0 1 .487.388l.514 2.224 2.129 9.225A1.5 1.5 0 0 0 7.296 16H18.68a1.5 1.5 0 0 0 1.47-1.206l1.6-8A1.5 1.5 0 0 0 20.281 5H4.59l-.424-1.837ZM7.296 15a.5.5 0 0 1-.487-.388L4.82 6h15.46a.5.5 0 0 1 .49.598l-1.6 8a.5.5 0 0 1-.49.402H7.296ZM10 19a1 1 0 1 0-2 0 1 1 0 0 0 2 0Zm1 0a2 2 0 1 1-4 0 2 2 0 0 1 4 0Zm7 0a1 1 0 1 0-2 0 1 1 0 0 0 2 0Zm1 0a2 2 0 1 1-4 0 2 2 0 0 1 4 0Z" clip-rule="evenodd"/></symbol>
  <use href="#icon"/>
</svg>
