<svg xmlns="http://www.w3.org/2000/svg">
  <symbol id="icon" fill="none" viewBox="0 0 16 16"><path fill="currentColor" d="M14.5 13a.5.5 0 0 1 0 1h-13a.5.5 0 0 1 0-1h13ZM6 2a1 1 0 0 1 1 1v8a1 1 0 0 1-1 1H4a1 1 0 0 1-1-1V3a1 1 0 0 1 1-1h2Zm6 3a1 1 0 0 1 1 1v5a1 1 0 0 1-1 1h-2a1 1 0 0 1-1-1V6a1 1 0 0 1 1-1h2Zm-8 6h2V3H4v8Zm6 0h2V6h-2v5Z"/></symbol>
  <symbol id="icon-large" fill="none" viewBox="0 0 24 24"><path fill="currentColor" fill-rule="evenodd" d="M10 4.5a.5.5 0 0 0-.5-.5h-2a.5.5 0 0 0-.5.5v12a.5.5 0 0 0 .5.5h2a.5.5 0 0 0 .5-.5v-12Zm1 12A1.5 1.5 0 0 1 9.5 18h-2A1.5 1.5 0 0 1 6 16.5v-12A1.5 1.5 0 0 1 7.5 3h2A1.5 1.5 0 0 1 11 4.5v12Zm9.5 3.5a.5.5 0 0 1 0 1h-17a.5.5 0 0 1 0-1h17Zm-4-12a.5.5 0 0 1 .5.5v8a.5.5 0 0 1-.5.5h-2a.5.5 0 0 1-.5-.5v-8a.5.5 0 0 1 .5-.5h2Zm0 10a1.5 1.5 0 0 0 1.5-1.5v-8A1.5 1.5 0 0 0 16.5 7h-2A1.5 1.5 0 0 0 13 8.5v8a1.5 1.5 0 0 0 1.5 1.5h2Z" clip-rule="evenodd"/></symbol>
  <use href="#icon"/>
</svg>
