<svg xmlns="http://www.w3.org/2000/svg">
  <symbol id="icon" fill="none" viewBox="0 0 16 16"><path fill="currentColor" fill-rule="evenodd" d="M2 2.5a.5.5 0 0 1 .5-.5h3.264a.5.5 0 0 1 .224.053l1.577.789A1.5 1.5 0 0 0 8.236 3H13.5a.5.5 0 0 1 .5.5v1.585A1.498 1.498 0 0 0 13.5 5h-11c-.175 0-.344.03-.5.085V2.5ZM1 7V2.5A1.5 1.5 0 0 1 2.5 1h3.264a1.5 1.5 0 0 1 .67.158l1.578.79A.5.5 0 0 0 8.236 2H13.5A1.5 1.5 0 0 1 15 3.5V8h-1V6.498A.5.5 0 0 0 13.5 6h-11a.5.5 0 0 0-.5.5v7a.5.5 0 0 0 .5.5H8v1H2.5A1.5 1.5 0 0 1 1 13.5V7Zm9 5a2 2 0 1 1 4 0 2 2 0 0 1-4 0Zm2-3a3 3 0 1 0 1.738 5.445l1.408 1.409a.5.5 0 0 0 .708-.708l-1.409-1.408A3 3 0 0 0 12 9Z" clip-rule="evenodd"/></symbol>
  <symbol id="icon-large" fill="none" viewBox="0 0 24 24"><path fill="currentColor" fill-rule="evenodd" d="M3 4.5a.5.5 0 0 1 .5-.5h6.086a.5.5 0 0 1 .353.146l1.415 1.415a1.5 1.5 0 0 0 1.06.439H20.5a.5.5 0 0 1 .5.5v1.585A1.498 1.498 0 0 0 20.5 8h-17c-.175 0-.344.03-.5.085V4.5Zm-1 5v-5A1.5 1.5 0 0 1 3.5 3h6.086a1.5 1.5 0 0 1 1.06.44l1.415 1.414a.5.5 0 0 0 .353.146H20.5A1.5 1.5 0 0 1 22 6.5V13h-1V9.5a.5.5 0 0 0-.5-.5h-17a.5.5 0 0 0-.5.5v10a.5.5 0 0 0 .5.5H13v1H3.5A1.5 1.5 0 0 1 2 19.5v-10Zm20.16 11.953a4 4 0 1 0-.707.707l1.693 1.694a.5.5 0 0 0 .708-.708l-1.694-1.693ZM16 19a3 3 0 1 1 6 0 3 3 0 0 1-6 0Z" clip-rule="evenodd"/></symbol>
  <use href="#icon"/>
</svg>
