<svg xmlns="http://www.w3.org/2000/svg">
  <symbol id="icon" fill="none" viewBox="0 0 16 16"><path fill="currentColor" d="M12.5 9.5a.5.5 0 0 1 .5.5v.565c.357.092.675.279.926.534l.489-.282a.5.5 0 1 1 .5.866l-.49.282c.047.17.075.35.075.535 0 .185-.028.364-.075.534l.49.283a.5.5 0 1 1-.5.866l-.49-.283c-.25.255-.568.441-.925.534V15a.5.5 0 0 1-1 0v-.566a1.994 1.994 0 0 1-.927-.534l-.488.283a.5.5 0 1 1-.5-.866l.49-.283a2 2 0 0 1-.075-.534c0-.185.027-.365.074-.535l-.489-.282a.5.5 0 1 1 .5-.866l.488.282c.25-.255.57-.441.927-.534V10a.5.5 0 0 1 .5-.5Zm1-7.5A1.5 1.5 0 0 1 15 3.5V9h-1V3.5a.5.5 0 0 0-.5-.5h-2.75v6h-1V3h-3.5v10H8.5v1h-6A1.5 1.5 0 0 1 1 12.5v-9A1.5 1.5 0 0 1 2.5 2h11Zm-1 9.5a1 1 0 1 0 0 2 1 1 0 0 0 0-2ZM2.5 3a.5.5 0 0 0-.5.5v9a.5.5 0 0 0 .5.5h2.75V3H2.5Z"/></symbol>
  <symbol id="icon-large" fill="none" viewBox="0 0 24 24"><path fill="currentColor" fill-rule="evenodd" d="M20.5 5a.5.5 0 0 1 .5.5V14h1V5.5A1.5 1.5 0 0 0 20.5 4h-17A1.5 1.5 0 0 0 2 5.5v13A1.5 1.5 0 0 0 3.5 20H13v-1H9V5h6v9h1V5h4.5ZM8 5v14H3.5a.5.5 0 0 1-.5-.5v-13a.5.5 0 0 1 .5-.5H8Zm10.5 17.5v-.541a2.997 2.997 0 0 1-1.812-1.047l-.47.271a.5.5 0 0 1-.5-.866l.47-.27a2.995 2.995 0 0 1 0-2.093l-.47-.271a.5.5 0 0 1 .5-.866l.47.27a2.997 2.997 0 0 1 1.812-1.046V15.5a.5.5 0 0 1 1 0v.541a2.997 2.997 0 0 1 1.812 1.047l.47-.271a.5.5 0 0 1 .5.866l-.47.27a2.995 2.995 0 0 1 0 2.093l.47.271a.5.5 0 0 1-.5.866l-.47-.27a2.997 2.997 0 0 1-1.812 1.046v.541a.5.5 0 0 1-1 0ZM17 19c0-.358.094-.695.26-.986l.008-.014.008-.014a2 2 0 0 1 3.448 0l.008.014.009.015c.165.29.259.627.259.985s-.094.695-.26.985l-.008.015-.008.014a1.999 1.999 0 0 1-3.448 0L17.268 20l-.009-.014A1.99 1.99 0 0 1 17 19Z" clip-rule="evenodd"/></symbol>
  <use href="#icon"/>
</svg>
