<svg xmlns="http://www.w3.org/2000/svg">
  <symbol id="icon" fill="none" viewBox="0 0 16 16"><path fill="currentColor" d="M8 1.5a.5.5 0 0 1 .5.5v1.528A4.5 4.5 0 0 1 12.472 7.5H14a.5.5 0 0 1 0 1h-1.528A4.5 4.5 0 0 1 8.5 12.472V14a.5.5 0 0 1-1 0v-1.53A4.5 4.5 0 0 1 3.528 8.5H2a.5.5 0 0 1 0-1h1.528A4.5 4.5 0 0 1 7.5 3.528V2a.5.5 0 0 1 .5-.5ZM3.646 11.646a.5.5 0 1 1 .708.707l-1 1a.5.5 0 1 1-.708-.707l1-1Zm8 0a.5.5 0 0 1 .63-.064l.078.064 1 1 .064.079a.5.5 0 0 1-.693.693l-.079-.064-1-1-.064-.079a.5.5 0 0 1 .064-.629ZM8 4.5A3.5 3.5 0 1 0 11.5 8l-.005-.18A3.5 3.5 0 0 0 8 4.5ZM8 6a2 2 0 0 1 2 2l-.01.204A2 2 0 1 1 8 6Zm0 1a1 1 0 1 0 1 1l-.005-.103A1 1 0 0 0 8 7Zm4.646-4.354a.5.5 0 1 1 .707.708l-1 1a.5.5 0 1 1-.707-.708l1-1Zm-10 0a.5.5 0 0 1 .63-.064l.078.064 1 1 .064.079a.5.5 0 0 1-.693.693l-.079-.064-1-1-.064-.079a.5.5 0 0 1 .064-.629Z"/></symbol>
  <symbol id="icon-large" fill="none" viewBox="0 0 24 24"><path fill="currentColor" d="M12 3a.5.5 0 0 1 .5.5v2.522a5.998 5.998 0 0 1 5.477 5.478H20.5a.5.5 0 0 1 0 1h-2.523a5.997 5.997 0 0 1-5.477 5.477V20.5a.5.5 0 0 1-1 0v-2.523A5.997 5.997 0 0 1 6.022 12.5H3.5a.5.5 0 0 1 0-1h2.522A5.998 5.998 0 0 1 11.5 6.022V3.5A.5.5 0 0 1 12 3ZM6.146 17.146a.5.5 0 1 1 .708.707l-1.5 1.5a.5.5 0 1 1-.708-.707l1.5-1.5Zm11 0a.5.5 0 0 1 .63-.064l.078.064 1.5 1.5.064.079a.5.5 0 0 1-.693.693l-.079-.064-1.5-1.5-.064-.079a.5.5 0 0 1 .064-.628ZM12 7a5 5 0 1 0 0 10 5 5 0 0 0 0-10Zm0 3a2 2 0 0 1 2 2l-.01.204A2 2 0 1 1 12 10Zm0 1a1 1 0 1 0 1 1l-.005-.102A1 1 0 0 0 12 11Zm6.646-6.354a.5.5 0 1 1 .707.708l-1.5 1.5a.5.5 0 1 1-.707-.708l1.5-1.5Zm-14 0a.5.5 0 0 1 .63-.064l.078.064 1.5 1.5.064.079a.5.5 0 0 1-.693.693l-.079-.064-1.5-1.5-.064-.079a.5.5 0 0 1 .064-.629Z"/></symbol>
  <use href="#icon"/>
</svg>
