<svg xmlns="http://www.w3.org/2000/svg">
  <symbol id="icon" fill="none" viewBox="0 0 16 16"><path fill="currentColor" d="M8 4.5A1.5 1.5 0 0 0 6.5 6v1.5h-4v-2a4 4 0 0 1 4-4H8v3Z" opacity=".48"/><path fill="currentColor" fill-rule="evenodd" d="M13 5.497a3.5 3.5 0 0 0-3.5-3.5h-1v2.066A2 2 0 0 1 10 6v1h3V5.497ZM7.5 4.063A2 2 0 0 0 6 6v1H3V5.497a3.5 3.5 0 0 1 3.5-3.5h1v2.066ZM3 8h3v.023a2 2 0 0 0 4 0V8h3v.997a5 5 0 0 1-10 0V8Zm11 .997a6 6 0 1 1-12 0v-3.5a4.5 4.5 0 0 1 4.5-4.5h3a4.5 4.5 0 0 1 4.5 4.5v3.5ZM5.25 9a.5.5 0 0 1 0 1h-1a.5.5 0 0 1 0-1h1ZM9 6a1 1 0 0 0-2 0v2.023a1 1 0 0 0 2 0V6Z" clip-rule="evenodd"/></symbol>
  <symbol id="icon-large" fill="none" viewBox="0 0 24 24"><path fill="currentColor" d="M12 7.5A1.5 1.5 0 0 0 10.5 9v2.5h-6v-3a6 6 0 0 1 6-6H12v5Z" opacity=".48"/><path fill="currentColor" fill-rule="evenodd" d="M19 8.5A5.5 5.5 0 0 0 13.5 3h-1v4.063A2 2 0 0 1 14 9v2h5V8.5Zm-7.5-1.437A2 2 0 0 0 10 9v2H5V8.5A5.5 5.5 0 0 1 10.5 3h1v4.063ZM5 12h5a2 2 0 1 0 4 0h5v2a7 7 0 0 1-13.991.36L5 14v-2Zm15 2a8 8 0 0 1-15.99.412L4 14V8.5A6.5 6.5 0 0 1 10.5 2h3A6.5 6.5 0 0 1 20 8.5V14Zm-11-.5a.5.5 0 0 1 0 1H6.5a.5.5 0 0 1 0-1H9ZM13 9a1 1 0 1 0-2 0v3a1 1 0 1 0 2 0V9Z" clip-rule="evenodd"/></symbol>
  <use href="#icon"/>
</svg>
