<svg xmlns="http://www.w3.org/2000/svg">
  <symbol id="icon" fill="none" viewBox="0 0 16 16"><path fill="currentColor" d="M6 3H2.5a.5.5 0 0 0-.5.5V9h12V3.5a.5.5 0 0 0-.5-.5H10V2h3.5A1.5 1.5 0 0 1 15 3.5v7a1.5 1.5 0 0 1-1.5 1.5h-5v1h2a.5.5 0 0 1 0 1h-5a.5.5 0 0 1 0-1h2v-1h-5A1.5 1.5 0 0 1 1 10.5v-7A1.5 1.5 0 0 1 2.5 2H6v1Zm-4 7.5a.5.5 0 0 0 .5.5h11a.5.5 0 0 0 .5-.5V10H2v.5Zm6-9a.5.5 0 0 1 .5.5v4.293l1.146-1.147a.5.5 0 1 1 .707.708l-2 2a.5.5 0 0 1-.707 0l-2-2-.064-.079a.5.5 0 0 1 .693-.693l.079.064L7.5 6.293V2a.5.5 0 0 1 .5-.5Z"/></symbol>
  <symbol id="icon-large" fill="none" viewBox="0 0 24 24"><path fill="currentColor" fill-rule="evenodd" d="M11.641 11.848 8.646 8.854a.5.5 0 1 1 .708-.708l2.146 2.147V3.5a.5.5 0 0 1 1 0v6.793l2.146-2.147a.5.5 0 1 1 .707.708l-2.994 2.994a.498.498 0 0 1-.718 0ZM2 14.5v2A1.5 1.5 0 0 0 3.5 18H9v2h-.5a.5.5 0 0 0 0 1h7a.5.5 0 0 0 0-1H15v-2h5.5a1.5 1.5 0 0 0 1.5-1.5v-11A1.5 1.5 0 0 0 20.5 4H16v1h4.5a.5.5 0 0 1 .5.5V14H3V5.5a.5.5 0 0 1 .5-.5H8V4H3.5A1.5 1.5 0 0 0 2 5.5v9Zm1 .5v1.5a.5.5 0 0 0 .5.5h17a.5.5 0 0 0 .5-.5V15H3Zm7 3v2h4v-2h-4Z" clip-rule="evenodd"/></symbol>
  <use href="#icon"/>
</svg>
