<svg xmlns="http://www.w3.org/2000/svg">
  <symbol id="icon" fill="none" viewBox="0 0 16 16"><path fill="currentColor" d="M8 4a2 2 0 0 1 1.935 1.5H13.5a.5.5 0 0 1 0 1h-2.185a5.993 5.993 0 0 1 2.685 5 .5.5 0 0 1-1 0 5.001 5.001 0 0 0-3.188-4.66 1.997 1.997 0 0 1-3.625 0A5.001 5.001 0 0 0 3 11.5a.5.5 0 0 1-1 0 5.993 5.993 0 0 1 2.685-5H2.5a.5.5 0 0 1 0-1h3.565A1.999 1.999 0 0 1 8 4Zm0 1a1 1 0 1 0 1 1l-.005-.103A1 1 0 0 0 8 5Z"/></symbol>
  <symbol id="icon-large" fill="none" viewBox="0 0 24 24"><path fill="currentColor" d="M12 6.5A2 2 0 0 1 13.935 8H20.5l.1.01a.5.5 0 0 1 0 .98l-.1.01h-6.565a1.999 1.999 0 0 1-3.87 0H3.5a.5.5 0 0 1 0-1h6.566A1.999 1.999 0 0 1 12 6.5Zm0 1a1 1 0 1 0 0 2 1 1 0 0 0 0-2Z"/><path fill="currentColor" d="M20 17a.5.5 0 1 0 1 0h-1ZM3 17a.5.5 0 1 0 1 0H3Zm.5 0H4a8.003 8.003 0 0 1 6.588-7.876l-.088-.492-.088-.492C6.2 8.89 3 12.57 3 17h.5Zm10-8.368-.088.492A8.002 8.002 0 0 1 20 17h1c0-4.43-3.199-8.11-7.412-8.86l-.088.492Z"/></symbol>
  <use href="#icon"/>
</svg>
