<svg xmlns="http://www.w3.org/2000/svg">
  <symbol id="icon" fill="none" viewBox="0 0 16 16"><path fill="currentColor" fill-rule="evenodd" d="M6.982 2.046a11.032 11.032 0 0 1 2.036 0 .5.5 0 1 1-.092.995C8.634 3.014 8.326 3 8 3c-.325 0-.634.014-.926.041a.5.5 0 0 1-.092-.995Zm4.336 1.044a.5.5 0 0 1 .674-.214A6.398 6.398 0 0 1 13.67 4.13a.5.5 0 1 1-.722.692 5.399 5.399 0 0 0-1.418-1.057.5.5 0 0 1-.213-.674Zm-6.635 0a.5.5 0 0 1-.214.674c-.578.3-1.043.667-1.418 1.057a.5.5 0 1 1-.722-.692 6.395 6.395 0 0 1 1.68-1.253.5.5 0 0 1 .673.214Zm-3.3 3.402a.5.5 0 0 1 .325.628c-.13.413-.184.73-.202.862l-.001.009L1.504 8v.01l.002.008c.018.132.071.449.202.862a.5.5 0 1 1-.953.303A6.376 6.376 0 0 1 .51 8.096.503.503 0 0 1 .51 8a.503.503 0 0 1 .006-.156c.025-.175.089-.549.24-1.027a.5.5 0 0 1 .628-.325Zm13.234 0a.5.5 0 0 1 .628.325 6.38 6.38 0 0 1 .247 1.087.507.507 0 0 1-.001.096.507.507 0 0 1-.006.156 6.38 6.38 0 0 1-.24 1.027.5.5 0 0 1-.953-.303c.13-.413.184-.73.202-.862l.001-.009.001-.009v-.01l-.002-.008a5.385 5.385 0 0 0-.202-.862.5.5 0 0 1 .325-.628ZM2.344 11.164a.5.5 0 0 1 .707.015 5.4 5.4 0 0 0 1.418 1.057.5.5 0 1 1-.46.888 6.4 6.4 0 0 1-1.68-1.253.5.5 0 0 1 .015-.707Zm11.312 0a.5.5 0 0 1 .015.707 6.4 6.4 0 0 1-1.68 1.253.5.5 0 0 1-.46-.888 5.4 5.4 0 0 0 1.418-1.057.5.5 0 0 1 .707-.015ZM6.53 13.41a.5.5 0 0 1 .544-.451c.292.027.6.041.926.041.325 0 .634-.014.926-.041a.5.5 0 0 1 .092.995 11.043 11.043 0 0 1-2.036 0 .5.5 0 0 1-.452-.544ZM8 5C4.987 5 3.862 7.169 3.56 7.92a.209.209 0 0 0 0 .16C3.862 8.832 4.987 11 8 11c3.013 0 4.138-2.169 4.44-2.92a.21.21 0 0 0 0-.16C12.138 7.168 11.013 5 8 5ZM2.632 7.546C2.988 6.661 4.368 4 8 4c3.632 0 5.012 2.661 5.368 3.546.118.293.118.615 0 .908C13.012 9.339 11.632 12 8 12c-3.632 0-5.012-2.661-5.368-3.546a1.209 1.209 0 0 1 0-.908ZM8 7a1 1 0 1 0 0 2 1 1 0 0 0 0-2Z" clip-rule="evenodd"/></symbol>
  <symbol id="icon-large" fill="none" viewBox="0 0 24 24"><path fill="currentColor" fill-rule="evenodd" d="M12 3c-.29 0-.572.01-.848.027a.5.5 0 0 1-.064-.998 14.24 14.24 0 0 1 1.824 0 .5.5 0 0 1-.064.998A13.241 13.241 0 0 0 12 3Zm-2.993-.167a.5.5 0 0 1-.342.62c-.558.16-1.081.36-1.57.589a.5.5 0 0 1-.425-.906 11.646 11.646 0 0 1 1.719-.645.5.5 0 0 1 .618.342Zm5.986 0a.5.5 0 0 1 .618-.342c.61.176 1.183.394 1.719.645a.5.5 0 1 1-.425.906 10.565 10.565 0 0 0-1.57-.59.5.5 0 0 1-.342-.619ZM5.04 4.666a.5.5 0 0 1-.08.703c-.454.36-.866.745-1.24 1.142a.5.5 0 1 1-.728-.687c.405-.428.852-.846 1.345-1.238a.5.5 0 0 1 .703.08Zm13.92 0a.5.5 0 0 1 .703-.08c.493.392.94.81 1.345 1.238a.5.5 0 1 1-.727.687 11.831 11.831 0 0 0-1.24-1.142.5.5 0 0 1-.08-.703ZM2.01 7.826a.5.5 0 0 1 .152.69c-.159.248-.304.492-.438.73a.5.5 0 1 1-.871-.491c.142-.253.297-.513.467-.777a.5.5 0 0 1 .69-.152Zm19.98 0a.5.5 0 0 1 .69.152c.17.264.325.524.467.777a.5.5 0 1 1-.871.49 14.984 14.984 0 0 0-.438-.729.5.5 0 0 1 .152-.69ZM1.044 14.564a.5.5 0 0 1 .68.19c.134.238.28.482.438.73a.5.5 0 1 1-.842.538 14.94 14.94 0 0 1-.467-.777.5.5 0 0 1 .19-.68Zm21.912 0a.5.5 0 0 1 .191.681c-.142.253-.297.513-.466.777a.5.5 0 1 1-.843-.538c.159-.248.304-.492.438-.73a.5.5 0 0 1 .68-.19Zm-1.968 2.905a.5.5 0 0 1 .02.707 12.82 12.82 0 0 1-1.345 1.238.5.5 0 1 1-.622-.783c.453-.36.865-.745 1.24-1.142a.5.5 0 0 1 .707-.02Zm-17.975 0a.5.5 0 0 1 .706.02c.375.397.787.782 1.24 1.142a.5.5 0 1 1-.622.783c-.493-.392-.94-.81-1.345-1.238a.5.5 0 0 1 .02-.707Zm14.557 2.73a.5.5 0 0 1-.24.665 11.65 11.65 0 0 1-1.718.645.5.5 0 1 1-.277-.961c.558-.161 1.081-.36 1.57-.59a.5.5 0 0 1 .665.241Zm-11.14 0a.5.5 0 0 1 .665-.24c.489.229 1.012.428 1.57.589a.5.5 0 0 1-.276.96 11.648 11.648 0 0 1-1.719-.644.5.5 0 0 1-.24-.665Zm4.19 1.241a.5.5 0 0 1 .532-.467 13.233 13.233 0 0 0 1.696 0 .5.5 0 0 1 .064.998 14.225 14.225 0 0 1-1.824 0 .5.5 0 0 1-.467-.53ZM12 5c-6.238 0-8.854 5.475-9.419 6.876a.325.325 0 0 0 0 .248C3.146 13.525 5.762 19 12 19s8.854-5.475 9.419-6.876a.326.326 0 0 0 0-.248C20.854 10.475 18.238 5 12 5ZM1.654 11.502C2.23 10.072 5.077 4 12 4s9.77 6.073 10.346 7.502c.13.321.13.675 0 .995C21.77 13.928 18.923 20 12 20s-9.77-6.073-10.346-7.502a1.318 1.318 0 0 1 0-.995ZM9 12a3 3 0 1 1 6 0 3 3 0 0 1-6 0Zm3-4a4 4 0 1 0 0 8 4 4 0 0 0 0-8Z" clip-rule="evenodd"/></symbol>
  <use href="#icon"/>
</svg>
