<svg xmlns="http://www.w3.org/2000/svg">
  <symbol id="icon" fill="none" viewBox="0 0 16 16"><path fill="currentColor" fill-rule="evenodd" d="M2 2.5a.5.5 0 0 1 .5-.5h11a.5.5 0 0 1 .5.5v11a.5.5 0 0 1-.5.5h-11a.5.5 0 0 1-.5-.5v-11ZM2.5 1A1.5 1.5 0 0 0 1 2.5v11A1.5 1.5 0 0 0 2.5 15h11a1.5 1.5 0 0 0 1.5-1.5v-11A1.5 1.5 0 0 0 13.5 1h-11Zm3 6.5a.5.5 0 0 0 0 1h5a.5.5 0 0 0 0-1h-5Z" clip-rule="evenodd"/></symbol>
  <symbol id="icon-large" fill="none" viewBox="0 0 24 24"><path fill="currentColor" fill-rule="evenodd" d="M4 4.5a.5.5 0 0 1 .5-.5h15a.5.5 0 0 1 .5.5v15a.5.5 0 0 1-.5.5h-15a.5.5 0 0 1-.5-.5v-15ZM4.5 3A1.5 1.5 0 0 0 3 4.5v15A1.5 1.5 0 0 0 4.5 21h15a1.5 1.5 0 0 0 1.5-1.5v-15A1.5 1.5 0 0 0 19.5 3h-15Zm4 8.5a.5.5 0 0 0 0 1h7a.5.5 0 0 0 0-1h-7Z" clip-rule="evenodd"/></symbol>
  <use href="#icon"/>
</svg>
