<svg xmlns="http://www.w3.org/2000/svg">
  <symbol id="icon" fill="none" viewBox="0 0 16 16"><path fill="currentColor" fill-rule="evenodd" d="M7.748 1.726a.5.5 0 0 1 .504 0l5 2.916a.5.5 0 0 1 .248.432v5.852a.5.5 0 0 1-.248.431l-5 2.917a.5.5 0 0 1-.504 0l-5-2.916a.5.5 0 0 1-.248-.432V5.074a.5.5 0 0 1 .248-.432l5-2.916ZM8.756.862a1.5 1.5 0 0 0-1.512 0l-5 2.917A1.5 1.5 0 0 0 1.5 5.074v5.852a1.5 1.5 0 0 0 .744 1.295l5 2.917a1.5 1.5 0 0 0 1.512 0l5-2.917a1.5 1.5 0 0 0 .744-1.295V5.074a1.5 1.5 0 0 0-.744-1.295l-5-2.917ZM11.5 5a.5.5 0 0 0-1 0v.643A3.26 3.26 0 0 0 8 4.5a3.499 3.499 0 0 0-3.031 1.75.5.5 0 1 0 .865.5A2.499 2.499 0 0 1 8 5.5c.803 0 1.458.38 1.905 1H9a.5.5 0 0 0 0 1h2a.5.5 0 0 0 .5-.5V5Zm-.651 4.067a.5.5 0 0 1 .182.683A3.499 3.499 0 0 1 8 11.5a3.26 3.26 0 0 1-2.5-1.143V11a.5.5 0 1 1-1 0V9a.5.5 0 0 1 .5-.5h2a.5.5 0 0 1 0 1h-.905c.447.62 1.102 1 1.905 1a2.5 2.5 0 0 0 2.166-1.25.5.5 0 0 1 .683-.183Z" clip-rule="evenodd"/></symbol>
  <symbol id="icon-large" fill="none" viewBox="0 0 24 24"><path fill="currentColor" fill-rule="evenodd" d="M11.74 2.245a.5.5 0 0 1 .52 0l8 4.89a.5.5 0 0 1 .24.426v8.878a.5.5 0 0 1-.24.427l-8 4.889a.5.5 0 0 1-.52 0l-8-4.89a.5.5 0 0 1-.24-.426V7.561a.5.5 0 0 1 .24-.427l8-4.889Zm1.042-.853a1.5 1.5 0 0 0-1.564 0l-8 4.889A1.5 1.5 0 0 0 2.5 7.56v8.878a1.5 1.5 0 0 0 .718 1.28l8 4.889a1.5 1.5 0 0 0 1.564 0l8-4.889a1.5 1.5 0 0 0 .718-1.28V7.561a1.5 1.5 0 0 0-.718-1.28l-8-4.889ZM16.5 8.5a.5.5 0 0 0-1 0v.631A4.571 4.571 0 0 0 12 7.5a4.502 4.502 0 0 0-4.358 3.375.5.5 0 0 0 .968.25A3.502 3.502 0 0 1 12 8.5c1.193 0 2.271.596 2.907 1.5H14a.5.5 0 0 0 0 1h2a.5.5 0 0 0 .5-.5v-2Zm-.501 4.016a.5.5 0 0 1 .36.609A4.502 4.502 0 0 1 12 16.5a4.571 4.571 0 0 1-3.5-1.632v.632a.5.5 0 1 1-1 0v-2A.5.5 0 0 1 8 13h2a.5.5 0 0 1 0 1h-.907A3.566 3.566 0 0 0 12 15.5a3.502 3.502 0 0 0 3.39-2.625.5.5 0 0 1 .609-.36Z" clip-rule="evenodd"/></symbol>
  <use href="#icon"/>
</svg>
