<svg xmlns="http://www.w3.org/2000/svg">
  <symbol id="icon" fill="none" viewBox="0 0 16 16"><path fill="currentColor" fill-rule="evenodd" d="M7 5.5a3.5 3.5 0 1 1 7 0 3.5 3.5 0 0 1-7 0ZM10.5 1a4.5 4.5 0 1 0 0 9 4.5 4.5 0 0 0 0-9Zm-9 6a.5.5 0 0 0-.5.5v7a.5.5 0 0 0 .5.5h7a.5.5 0 0 0 .5-.5V11H8v3H2V8h3V7H1.5Z" clip-rule="evenodd"/></symbol>
  <symbol id="icon-large" fill="none" viewBox="0 0 24 24"><path fill="currentColor" fill-rule="evenodd" d="M10 9a5 5 0 1 1 10 0 5 5 0 0 1-10 0Zm5-6a6 6 0 1 0 0 12 6 6 0 0 0 0-12ZM3.5 10a.5.5 0 0 0-.5.5v10a.5.5 0 0 0 .5.5h10a.5.5 0 0 0 .5-.5V16h-1v4H4v-9h4v-1H3.5Z" clip-rule="evenodd"/></symbol>
  <use href="#icon"/>
</svg>
