<svg xmlns="http://www.w3.org/2000/svg">
  <symbol id="icon" fill="none" viewBox="0 0 16 16"><path fill="currentColor" fill-rule="evenodd" d="M8.354 1.146a.5.5 0 0 0-.708 0l-2.5 2.5a.5.5 0 1 0 .708.708L7.5 2.707V8.5a.5.5 0 0 0 1 0V2.707l1.646 1.647a.5.5 0 0 0 .708-.708l-2.5-2.5ZM3.5 7a.5.5 0 0 0-.5.5v6a.5.5 0 0 0 .5.5h9a.5.5 0 0 0 .5-.5v-6a.5.5 0 0 0-.5-.5H11V6h1.5A1.5 1.5 0 0 1 14 7.5v6a1.5 1.5 0 0 1-1.5 1.5h-9A1.5 1.5 0 0 1 2 13.5v-6A1.5 1.5 0 0 1 3.5 6H5v1H3.5Z" clip-rule="evenodd"/></symbol>
  <symbol id="icon-large" fill="none" viewBox="0 0 24 24"><path fill="currentColor" fill-rule="evenodd" d="M12.354 2.146a.5.5 0 0 0-.708 0l-3.5 3.5a.5.5 0 1 0 .708.708L11.5 3.707V12.5a.5.5 0 0 0 1 0V3.707l2.646 2.647a.5.5 0 0 0 .708-.708l-3.5-3.5ZM5.5 9a.5.5 0 0 0-.5.5v11a.5.5 0 0 0 .5.5h13a.5.5 0 0 0 .5-.5v-11a.5.5 0 0 0-.5-.5H15V8h3.5A1.5 1.5 0 0 1 20 9.5v11a1.5 1.5 0 0 1-1.5 1.5h-13A1.5 1.5 0 0 1 4 20.5v-11A1.5 1.5 0 0 1 5.5 8H9v1H5.5Z" clip-rule="evenodd"/></symbol>
  <use href="#icon"/>
</svg>
