<svg xmlns="http://www.w3.org/2000/svg">
  <symbol id="icon" fill="none" viewBox="0 0 16 16"><path fill="currentColor" d="M13.5 7a.5.5 0 0 1 .5.5v5a1.5 1.5 0 0 1-1.5 1.5h-9A1.5 1.5 0 0 1 2 12.5v-5a.5.5 0 0 1 1 0v5a.5.5 0 0 0 .5.5h4V7.5a.5.5 0 0 1 1 0V13h4a.5.5 0 0 0 .5-.5v-5a.5.5 0 0 1 .5-.5Z" opacity=".48"/><path fill="currentColor" d="M9.646 2.146a.501.501 0 0 1 .63-.064l.077.064 1.5 1.5a.502.502 0 0 1 0 .707l-1.5 1.5a.5.5 0 0 1-.707-.707l.647-.646H4.5a.5.5 0 0 1 0-1h5.793l-.647-.647-.064-.078a.501.501 0 0 1 .064-.629Z"/></symbol>
  <symbol id="icon-large" fill="none" viewBox="0 0 24 24"><path fill="currentColor" d="M20.5 10a.5.5 0 0 1 .5.5v9a1.5 1.5 0 0 1-1.5 1.5h-15A1.5 1.5 0 0 1 3 19.5v-9a.5.5 0 0 1 1 0v9a.5.5 0 0 0 .5.5h7v-9.5a.5.5 0 0 1 1 0V20h7a.5.5 0 0 0 .5-.5v-9a.5.5 0 0 1 .5-.5Z" opacity=".48"/><path fill="currentColor" d="M15.146 3.147a.5.5 0 0 1 .63-.065l.078.065 2.5 2.5a.5.5 0 0 1 0 .707l-2.5 2.5a.5.5 0 1 1-.707-.707L16.793 6.5H5.5a.5.5 0 0 1 0-1h11.293l-1.646-1.646-.065-.078a.5.5 0 0 1 .064-.63Z"/></symbol>
  <use href="#icon"/>
</svg>
