<svg xmlns="http://www.w3.org/2000/svg">
  <symbol id="icon" fill="none" viewBox="0 0 16 16"><path fill="currentColor" d="M11.25 8.5a2.75 2.75 0 0 1 0 5.5h-6.5a2.75 2.75 0 0 1 0-5.5h6.5Zm-6.5 1a1.75 1.75 0 0 0-.18 3.491l.18.009a1.75 1.75 0 0 0 .18-3.491l-.18-.01Zm2.12 0c.393.475.63 1.085.63 1.75s-.237 1.274-.63 1.75h4.38a1.75 1.75 0 1 0 0-3.5H6.87ZM11.25 2l.28.015a2.75 2.75 0 0 1 0 5.471l-.28.014h-6.5a2.75 2.75 0 0 1 0-5.5h6.5Zm0 1a1.75 1.75 0 0 0-.18 3.491l.18.009a1.75 1.75 0 1 0 0-3.5Zm-6.5 0a1.75 1.75 0 0 0 0 3.5h4.378A2.74 2.74 0 0 1 8.5 4.75c0-.665.236-1.275.628-1.75H4.75Z"/></symbol>
  <symbol id="icon-large" fill="none" viewBox="0 0 24 24"><path fill="currentColor" d="M17 13a4 4 0 0 1 0 8H7a4 4 0 0 1 0-8h10ZM7 14a3 3 0 0 0-.155 5.996L7 20a3 3 0 0 0 .154-5.996L7 14Zm2.644 0A3.99 3.99 0 0 1 11 17a3.99 3.99 0 0 1-1.356 3H17a3 3 0 0 0 0-6H9.644ZM17 3l.206.005a4 4 0 0 1 0 7.99L17 11H7a4 4 0 0 1 0-8h10Zm0 1a3 3 0 0 0-.154 5.996L17 10a3 3 0 0 0 0-6ZM7 4a3 3 0 0 0 0 6h7.355A3.99 3.99 0 0 1 13 7a3.99 3.99 0 0 1 1.355-3H7Z"/></symbol>
  <use href="#icon"/>
</svg>
