<svg xmlns="http://www.w3.org/2000/svg">
  <symbol id="icon" fill="none" viewBox="0 0 16 16"><path fill="currentColor" d="M8.293 2A1 1 0 0 1 9 2.293L12.707 6l.066.073a1 1 0 0 1 .227.634V12.5a1.5 1.5 0 0 1-1.5 1.5h-7A1.5 1.5 0 0 1 3 12.5v-9A1.5 1.5 0 0 1 4.5 2h3.793ZM4.5 3a.5.5 0 0 0-.5.5v9a.5.5 0 0 0 .5.5h7a.5.5 0 0 0 .5-.5V7H9.5A1.5 1.5 0 0 1 8 5.5V3H4.5Zm3.349 4.197a.72.72 0 0 1 .632.29.895.895 0 0 1 .163.409c.04.272-.006.62-.131 1.061-.019.064-.042.13-.065.201.112.188.236.354.362.495.246-.029.532-.046.784-.021.171.017.412.06.605.199a.715.715 0 0 1 .268.362c.04.125.04.248.02.358l-.028.105a.83.83 0 0 1-.3.42.86.86 0 0 1-.462.156c-.287.016-.577-.093-.822-.233a2.895 2.895 0 0 1-.408-.288c-.08.02-.184.048-.307.088a8.605 8.605 0 0 0-.451.16c-.138.255-.34.573-.577.815-.14.143-.33.302-.563.377a.837.837 0 0 1-.73-.091l-.097-.075a.693.693 0 0 1-.219-.337.672.672 0 0 1 .016-.403c.071-.203.224-.352.338-.447.244-.204.602-.395.942-.55a9.03 9.03 0 0 1 .154-.068c.163-.365.291-.675.39-.939-.267-.562-.356-.998-.292-1.343.082-.436.398-.66.671-.69l.107-.01ZM9 5.5a.5.5 0 0 0 .5.5h1.793L9 3.707V5.5Z"/></symbol>
  <symbol id="icon-large" fill="none" viewBox="0 0 24 24"><path fill="currentColor" d="M13.086 2a1.5 1.5 0 0 1 1.06.44l5.415 5.414.1.11a1.5 1.5 0 0 1 .339.95V20.5a1.5 1.5 0 0 1-1.5 1.5h-13A1.5 1.5 0 0 1 4 20.5v-17A1.5 1.5 0 0 1 5.5 2h7.586ZM5.5 3a.5.5 0 0 0-.5.5v17a.5.5 0 0 0 .5.5h13a.5.5 0 0 0 .5-.5V9h-4.5A1.5 1.5 0 0 1 13 7.5V3H5.5Zm6.218 7.179c.109-.004.255.005.397.054.16.056.32.158.447.327.123.163.196.365.23.591.066.44-.003 1.051-.248 1.91-.053.187-.117.387-.19.603a6.983 6.983 0 0 0 1.074 1.457c.518-.074 1.165-.128 1.71-.074.322.031.692.107.967.305a.931.931 0 0 1 .353.472c.05.158.053.317.023.469l-.039.15a1.156 1.156 0 0 1-.419.586 1.22 1.22 0 0 1-.656.221c-.438.023-.918-.143-1.368-.4a5.515 5.515 0 0 1-.929-.682 2.347 2.347 0 0 0-.194.037 8.982 8.982 0 0 0-.709.202 17.79 17.79 0 0 0-1.104.4c-.26.508-.677 1.187-1.157 1.678-.255.262-.567.513-.92.627-.341.11-.708.088-1.037-.129l-.137-.104a.885.885 0 0 1-.283-.432.844.844 0 0 1 .022-.507c.096-.275.315-.5.523-.675.434-.363 1.1-.721 1.772-1.028.158-.072.32-.143.481-.21.41-.909.718-1.662.943-2.286-.588-1.185-.743-1.997-.636-2.568.122-.655.578-.939.907-.976l.177-.018Zm-2.362 7.423c-.26.149-.479.294-.64.43a1.448 1.448 0 0 0-.15.144c.031.005.066 0 .11-.015.128-.041.305-.159.515-.374.056-.057.11-.12.165-.184Zm5.228-1.577c.327.174.577.234.73.226a.238.238 0 0 0 .124-.032c.01-.007.027-.026.046-.075a1.372 1.372 0 0 0-.444-.101 4.205 4.205 0 0 0-.456-.018Zm-2.946-.495c.076-.025.15-.052.222-.075.146-.047.285-.089.414-.126a8.007 8.007 0 0 1-.357-.477c-.086.215-.179.441-.28.678Zm.052-4.343c-.017.014-.052.059-.073.17-.029.153-.023.424.107.86.097-.464.105-.75.08-.916a.442.442 0 0 0-.034-.123h-.008c-.036.001-.033.003-.072.008ZM14 7.5a.5.5 0 0 0 .5.5h3.793L14 3.707V7.5Z"/></symbol>
  <use href="#icon"/>
</svg>
