<svg xmlns="http://www.w3.org/2000/svg">
  <symbol id="icon" fill="none" viewBox="0 0 16 16"><path fill="currentColor" d="M12 13.5a.5.5 0 0 1-1 0v-6h1v6ZM11.5 2a.5.5 0 0 1 .5.5v2h-1v-2a.5.5 0 0 1 .5-.5Z" opacity=".4"/><path fill="currentColor" d="M5.6 2.01a.5.5 0 0 1 .4.49V4h7.5a.5.5 0 0 1 0 1h-8a.5.5 0 0 1-.5-.5V3h-.5A1.5 1.5 0 0 0 3 4.5v7A1.5 1.5 0 0 0 4.5 13H5V7.5a.5.5 0 0 1 .5-.5h8a.5.5 0 0 1 0 1H6v5.5a.5.5 0 0 1-.5.5h-1A2.5 2.5 0 0 1 2 11.5v-7A2.5 2.5 0 0 1 4.5 2h1l.1.01Z"/></symbol>
  <symbol id="icon-large" fill="none" viewBox="0 0 24 24"><path fill="currentColor" d="M15 20.5a.5.5 0 0 1-1 0v-11h1v11ZM14.5 3a.5.5 0 0 1 .5.5v2h-1v-2a.5.5 0 0 1 .5-.5Z" opacity=".48"/><path fill="currentColor" d="M7.6 3.01a.5.5 0 0 1 .4.49V5h12.5a.5.5 0 0 1 0 1h-13a.5.5 0 0 1-.5-.5V4H5.5A1.5 1.5 0 0 0 4 5.5v13A1.5 1.5 0 0 0 5.5 20H7V9.5a.5.5 0 0 1 .5-.5h13a.5.5 0 0 1 0 1H8v10.5a.5.5 0 0 1-.5.5h-2A2.5 2.5 0 0 1 3 18.5v-13A2.5 2.5 0 0 1 5.5 3h2l.1.01Z"/></symbol>
  <use href="#icon"/>
</svg>
