<svg xmlns="http://www.w3.org/2000/svg">
  <symbol id="icon" fill="none" viewBox="0 0 16 16"><path fill="currentColor" fill-rule="evenodd" d="M4 1.5a.5.5 0 0 0-1 0V3H1.5a.5.5 0 0 0 0 1H3v7.5A1.5 1.5 0 0 0 4.5 13H12v1.5a.5.5 0 1 0 1 0V13h1.5a.5.5 0 0 0 0-1h-10a.5.5 0 0 1-.5-.5v-10ZM11.5 3H5v1h6.5a.5.5 0 0 1 .5.5V11h1V4.5A1.5 1.5 0 0 0 11.5 3Z" clip-rule="evenodd"/></symbol>
  <symbol id="icon-large" fill="none" viewBox="0 0 24 24"><path fill="currentColor" fill-rule="evenodd" d="M6 2.5a.5.5 0 0 0-1 0V5H2.5a.5.5 0 0 0 0 1H5v11.5A1.5 1.5 0 0 0 6.5 19H18v2.5a.5.5 0 0 0 1 0V19h2.5a.5.5 0 0 0 0-1h-15a.5.5 0 0 1-.5-.5v-15ZM17.5 5H8v1h9.5a.5.5 0 0 1 .5.5V16h1V6.5A1.5 1.5 0 0 0 17.5 5Z" clip-rule="evenodd"/></symbol>
  <use href="#icon"/>
</svg>
