<svg xmlns="http://www.w3.org/2000/svg">
  <symbol id="icon" fill="none" viewBox="0 0 16 16"><path fill="currentColor" d="M12 1.75a.5.5 0 0 1 .416.222l1.5 2.25A.5.5 0 0 1 14 4.5v7.75a2 2 0 0 1-3.99.204L10 12.25V4.5a.5.5 0 0 1 .084-.278l1.5-2.25.038-.05A.5.5 0 0 1 12 1.75ZM6.5 2A1.5 1.5 0 0 1 8 3.5v9A1.5 1.5 0 0 1 6.5 14h-3A1.5 1.5 0 0 1 2 12.5v-9A1.5 1.5 0 0 1 3.5 2h3ZM11 12.25l.005.102A1 1 0 0 0 13 12.25v-.75h-2v.75ZM3.5 3a.5.5 0 0 0-.5.5v1h2v1H3v1h1.5v1H3v1h2v1H3v1h1.5v1H3v1a.5.5 0 0 0 .5.5h3a.5.5 0 0 0 .5-.5v-9a.5.5 0 0 0-.5-.5h-3ZM11 4.65v5.85h2V4.65l-1-1.5-1 1.5Z"/></symbol>
  <symbol id="icon-large" fill="none" viewBox="0 0 24 24"><path fill="currentColor" d="M9 3a1.5 1.5 0 0 1 1.5 1.5v15A1.5 1.5 0 0 1 9 21H5a1.5 1.5 0 0 1-1.5-1.5v-15A1.5 1.5 0 0 1 5 3h4Zm8 0a.5.5 0 0 1 .428.243l3 5a.496.496 0 0 1 .072.257v10A2.5 2.5 0 0 1 18 21h-2a2.5 2.5 0 0 1-2.5-2.5v-10c0-.094.027-.181.072-.257h-.001l3-5 .037-.053A.5.5 0 0 1 17 3ZM5 4a.5.5 0 0 0-.5.5v1H7a.5.5 0 0 1 0 1H4.5v2H6a.5.5 0 0 1 0 1H4.5v2H7a.5.5 0 0 1 0 1H4.5v2H6a.5.5 0 0 1 0 1H4.5v2H7a.5.5 0 0 1 0 1H4.5v1a.5.5 0 0 0 .5.5h4a.5.5 0 0 0 .5-.5v-15A.5.5 0 0 0 9 4H5Zm9.5 14.5A1.5 1.5 0 0 0 16 20h2a1.5 1.5 0 0 0 1.5-1.5V18h-5v.5Zm0-1.5h2V9h-2v8Zm3 0h2V9h-2v8Zm-2.618-9h4.235l-1.67-2.782A.498.498 0 0 1 17 5.5a.499.499 0 0 1-.449-.283L14.882 8Z"/></symbol>
  <use href="#icon"/>
</svg>
