<svg xmlns="http://www.w3.org/2000/svg">
  <symbol id="icon" fill="currentColor" viewBox="0 0 16 16"><path d="M3.5 4a.5.5 0 0 0 0 1h1a.5.5 0 0 0 0-1h-1ZM3 6.5a.5.5 0 0 1 .5-.5h1a.5.5 0 0 1 0 1h-1a.5.5 0 0 1-.5-.5ZM3.5 8a.5.5 0 0 0 0 1h1a.5.5 0 0 0 0-1h-1Z"/><path fill-rule="evenodd" d="M1 3.5A1.5 1.5 0 0 1 2.5 2h11A1.5 1.5 0 0 1 15 3.5v9a1.5 1.5 0 0 1-1.5 1.5h-11A1.5 1.5 0 0 1 1 12.5v-9ZM2.5 3a.5.5 0 0 0-.5.5v9a.5.5 0 0 0 .5.5H6V3H2.5Zm11 10H7V3h6.5a.5.5 0 0 1 .5.5v9a.5.5 0 0 1-.5.5Z" clip-rule="evenodd"/></symbol>
  <symbol id="icon-large" fill="currentColor" viewBox="0 0 24 24"><path d="M5.5 7a.5.5 0 0 0 0 1h2a.5.5 0 0 0 0-1h-2ZM5 10.5a.5.5 0 0 1 .5-.5h2a.5.5 0 0 1 0 1h-2a.5.5 0 0 1-.5-.5Zm.5 2.5a.5.5 0 0 0 0 1h2a.5.5 0 0 0 0-1h-2Z"/><path fill-rule="evenodd" d="M3.5 4h17A1.5 1.5 0 0 1 22 5.5v13a1.5 1.5 0 0 1-1.5 1.5h-17A1.5 1.5 0 0 1 2 18.5v-13A1.5 1.5 0 0 1 3.5 4Zm17 1H11v14h9.5a.5.5 0 0 0 .5-.5v-13a.5.5 0 0 0-.5-.5Zm-17 0H10v14H3.5a.5.5 0 0 1-.5-.5v-13a.5.5 0 0 1 .5-.5Z" clip-rule="evenodd"/></symbol>
  <use href="#icon"/>
</svg>
