<svg xmlns="http://www.w3.org/2000/svg">
  <symbol id="icon" fill="none" viewBox="0 0 16 16"><path fill="currentColor" d="M8.853 11.146a.5.5 0 0 1 .002.707l-1.177 1.178A3.328 3.328 0 0 1 2.966 8.33l1.18-1.184a.5.5 0 0 1 .708.707l-1.18 1.182a2.33 2.33 0 0 0 .002 3.291l.177.16a2.33 2.33 0 0 0 3.119-.16l1.174-1.18a.5.5 0 0 1 .707 0Zm1.5-5.5a.5.5 0 0 1 0 .707l-4 4a.5.5 0 0 1-.707-.706l4-4a.5.5 0 0 1 .708 0Zm2.664-2.673a3.329 3.329 0 0 1 .01 4.698l-1.172 1.182-.078.064a.5.5 0 0 1-.632-.77l1.172-1.18a2.33 2.33 0 0 0-3.306-3.28L7.855 4.854l-.078.064a.5.5 0 0 1-.632-.77l1.157-1.165a3.328 3.328 0 0 1 4.59-.126l.125.117Z"/></symbol>
  <symbol id="icon-large" fill="none" viewBox="0 0 24 24"><path fill="currentColor" fill-rule="evenodd" d="M19.354 4.647a5.45 5.45 0 0 0-7.707 0l-1.5 1.5a.5.5 0 1 0 .707.707l1.5-1.5a4.45 4.45 0 0 1 6.293 6.292l-1.5 1.5a.5.5 0 1 0 .707.708l1.5-1.5a5.45 5.45 0 0 0 0-7.707Zm-5.207 4.5a.5.5 0 1 1 .707.707l-5 5a.5.5 0 0 1-.708-.707l5-5Zm-8 1a.5.5 0 1 1 .706.707l-1.5 1.5a4.45 4.45 0 1 0 6.293 6.293l1.5-1.5a.5.5 0 0 1 .707.707l-1.5 1.5a5.45 5.45 0 0 1-7.707-7.707l1.5-1.5Z" clip-rule="evenodd"/></symbol>
  <use href="#icon"/>
</svg>
