<svg xmlns="http://www.w3.org/2000/svg">
  <symbol id="icon" fill="none" viewBox="0 0 16 16"><path fill="currentColor" d="M8 1.5a6.5 6.5 0 1 1 0 13 6.5 6.5 0 0 1 0-13Zm0 1a5.5 5.5 0 1 0 0 11 5.5 5.5 0 0 0 0-11Zm-2.408 8.614c.178-.178.46-.195.679-.07.248.141.516.253.798.331.244.067.431.277.431.53 0 .302-.265.539-.559.468a4.467 4.467 0 0 1-1.286-.533c-.258-.158-.277-.512-.063-.726Zm4.137-.07c.219-.125.5-.108.678.07.214.214.194.568-.063.726-.393.24-.826.422-1.286.533-.294.07-.558-.166-.558-.469 0-.252.187-.462.43-.529.283-.077.55-.19.799-.331ZM4.096 8.5c.252 0 .463.188.53.432.077.28.188.548.33.797.124.219.107.5-.071.678-.214.214-.57.195-.727-.063a4.473 4.473 0 0 1-.532-1.285c-.07-.295.167-.559.47-.559Zm7.808 0c.303 0 .54.264.47.559-.111.46-.293.892-.533 1.285-.158.258-.514.276-.728.062-.178-.178-.195-.46-.07-.678a3.48 3.48 0 0 0 .331-.796c.067-.244.277-.432.53-.432Zm-3.618.972c.223-.045.467-.013.628.148.24.24.197.644-.124.752a2.48 2.48 0 0 1-1.58 0c-.322-.107-.365-.512-.125-.752.161-.16.405-.193.629-.148a1.467 1.467 0 0 0 .572 0ZM5.627 7.21c.107-.322.512-.365.752-.125.16.16.192.405.148.628a1.484 1.484 0 0 0 0 .571c.044.223.013.467-.148.628-.24.24-.645.198-.752-.124a2.498 2.498 0 0 1 0-1.578Zm3.993-.125c.24-.24.645-.197.752.125a2.487 2.487 0 0 1 0 1.578c-.108.322-.512.364-.752.124-.16-.16-.193-.405-.148-.628a1.46 1.46 0 0 0 0-.571c-.045-.223-.013-.467.148-.628ZM8 7.375a.625.625 0 1 1 0 1.25.625.625 0 0 1 0-1.25Zm-3.842-1.72c.158-.258.513-.276.727-.062.178.178.195.459.07.678a3.482 3.482 0 0 0-.33.798.566.566 0 0 1-.53.431c-.302 0-.54-.264-.469-.559.11-.46.292-.893.532-1.286Zm6.955-.061c.214-.214.57-.196.728.062.24.393.422.825.533 1.285.071.295-.167.559-.47.559-.252 0-.463-.187-.53-.43a3.477 3.477 0 0 0-.331-.798c-.125-.219-.108-.5.07-.678ZM8 5.5c.275 0 .54.045.788.127.322.107.365.512.125.752-.16.16-.405.193-.628.15a1.474 1.474 0 0 0-.571 0c-.223.043-.467.01-.628-.15-.24-.24-.198-.644.124-.751A2.5 2.5 0 0 1 8 5.5ZM6.942 3.627c.294-.07.558.167.558.469 0 .252-.187.462-.43.529-.282.077-.55.19-.799.331-.219.125-.5.108-.678-.07-.214-.214-.196-.569.062-.727.393-.24.827-.421 1.287-.532Zm2.115 0c.46.11.894.292 1.287.532.258.158.276.513.062.727-.178.178-.46.195-.678.07a3.48 3.48 0 0 0-.798-.331c-.243-.067-.43-.277-.43-.53 0-.301.263-.538.557-.468Z"/></symbol>
  <symbol id="icon-large" fill="none" viewBox="0 0 24 24"><path fill="currentColor" d="M12 2c5.523 0 10 4.477 10 10s-4.477 10-10 10S2 17.523 2 12 6.477 2 12 2Zm0 1a9 9 0 1 0 0 18 9 9 0 0 0 0-18ZM8.006 17.054a.538.538 0 0 1 .678-.056 5.961 5.961 0 0 0 2.127.882c.25.05.439.263.439.518 0 .3-.26.534-.555.479a6.96 6.96 0 0 1-2.634-1.092.475.475 0 0 1-.055-.731Zm7.31-.055a.537.537 0 0 1 .677.055.475.475 0 0 1-.053.731c-.78.532-1.672.91-2.634 1.092a.476.476 0 0 1-.556-.48c0-.254.19-.467.44-.517a5.964 5.964 0 0 0 2.126-.881ZM5.602 12.75c.254 0 .467.19.517.44.156.773.46 1.493.882 2.127a.536.536 0 0 1-.055.676.476.476 0 0 1-.731-.053 6.96 6.96 0 0 1-1.093-2.634.475.475 0 0 1 .48-.556Zm12.796 0c.3 0 .536.26.48.556a6.959 6.959 0 0 1-1.093 2.634.475.475 0 0 1-.731.053.537.537 0 0 1-.056-.676 5.963 5.963 0 0 0 .882-2.127c.05-.25.263-.44.518-.44Zm-5.236 2.013a.583.583 0 0 1 .643.102c.23.23.193.614-.1.753A3.98 3.98 0 0 1 12 16c-.61 0-1.189-.137-1.706-.382-.293-.139-.33-.522-.1-.752.167-.167.425-.194.642-.102a2.977 2.977 0 0 0 2.326-.001Zm-4.781-4.47c.139-.294.522-.33.752-.1a.584.584 0 0 1 .103.643 2.98 2.98 0 0 0 0 2.328.583.583 0 0 1-.103.642c-.23.23-.613.194-.752-.1A3.993 3.993 0 0 1 8 12c0-.61.137-1.19.38-1.707Zm6.484-.099c.23-.23.614-.194.753.1.245.517.382 1.096.382 1.706a3.98 3.98 0 0 1-.382 1.705c-.139.294-.523.33-.753.1a.582.582 0 0 1-.102-.642 2.965 2.965 0 0 0 0-2.327c-.093-.218-.065-.475.102-.642ZM12 11a1 1 0 1 1 0 2 1 1 0 0 1 0-2ZM6.215 8.06a.475.475 0 0 1 .73-.054c.18.18.197.465.056.677a5.965 5.965 0 0 0-.882 2.127.538.538 0 0 1-.517.441.476.476 0 0 1-.48-.556A6.963 6.963 0 0 1 6.215 8.06Zm10.839-.054a.475.475 0 0 1 .731.054 6.97 6.97 0 0 1 1.093 2.634.476.476 0 0 1-.48.557.538.538 0 0 1-.518-.441 5.964 5.964 0 0 0-.881-2.127.537.537 0 0 1 .055-.677ZM12 8c.61 0 1.187.137 1.704.38.294.14.33.524.1.754-.166.167-.424.195-.642.102a2.966 2.966 0 0 0-2.326 0 .583.583 0 0 1-.642-.103c-.23-.23-.193-.613.1-.752A3.984 3.984 0 0 1 12 8Zm-1.305-2.878a.475.475 0 0 1 .555.48c0 .254-.19.467-.44.517a5.963 5.963 0 0 0-2.126.882.538.538 0 0 1-.678-.055.476.476 0 0 1 .054-.733 6.963 6.963 0 0 1 2.635-1.09Zm2.61 0c.963.182 1.855.56 2.635 1.092.247.169.265.52.053.731a.537.537 0 0 1-.677.055 5.967 5.967 0 0 0-2.127-.88.537.537 0 0 1-.439-.518c0-.3.261-.535.556-.48Z"/></symbol>
  <use href="#icon"/>
</svg>
