<svg xmlns="http://www.w3.org/2000/svg">
  <symbol id="icon" fill="none" viewBox="0 0 16 16"><path fill="currentColor" fill-rule="evenodd" d="M5.5 2a.5.5 0 0 1 .5.5v11a.5.5 0 0 1-.5.5h-2a.5.5 0 0 1-.5-.5v-11a.5.5 0 0 1 .5-.5h2Zm0 13A1.5 1.5 0 0 0 7 13.5v-11A1.5 1.5 0 0 0 5.5 1h-2A1.5 1.5 0 0 0 2 2.5v11A1.5 1.5 0 0 0 3.5 15h2Zm7-13a.5.5 0 0 1 .5.5v11a.5.5 0 0 1-.5.5h-2a.5.5 0 0 1-.5-.5v-11a.5.5 0 0 1 .5-.5h2Zm0 13a1.5 1.5 0 0 0 1.5-1.5v-11A1.5 1.5 0 0 0 12.5 1h-2A1.5 1.5 0 0 0 9 2.5v11a1.5 1.5 0 0 0 1.5 1.5h2Z" clip-rule="evenodd"/></symbol>
  <symbol id="icon-large" fill="none" viewBox="0 0 24 24"><path fill="currentColor" fill-rule="evenodd" d="M8.5 4a.5.5 0 0 1 .5.5v15a.5.5 0 0 1-.5.5h-3a.5.5 0 0 1-.5-.5v-15a.5.5 0 0 1 .5-.5h3Zm0 17a1.5 1.5 0 0 0 1.5-1.5v-15A1.5 1.5 0 0 0 8.5 3h-3A1.5 1.5 0 0 0 4 4.5v15A1.5 1.5 0 0 0 5.5 21h3Zm10-17a.5.5 0 0 1 .5.5v15a.5.5 0 0 1-.5.5h-3a.5.5 0 0 1-.5-.5v-15a.5.5 0 0 1 .5-.5h3Zm0 17a1.5 1.5 0 0 0 1.5-1.5v-15A1.5 1.5 0 0 0 18.5 3h-3A1.5 1.5 0 0 0 14 4.5v15a1.5 1.5 0 0 0 1.5 1.5h3Z" clip-rule="evenodd"/></symbol>
  <use href="#icon"/>
</svg>
