<svg xmlns="http://www.w3.org/2000/svg">
  <symbol id="icon" fill="none" viewBox="0 0 16 16"><path fill="currentColor" d="M10.44 2.854a1.5 1.5 0 0 1 2.12 0l1.086 1.086a1.5 1.5 0 0 1 0 2.12l-7.292 7.294A.5.5 0 0 1 6 13.5H3.5A.5.5 0 0 1 3 13v-2.5a.5.5 0 0 1 .146-.353l7.293-7.293ZM4 10.707V12.5h1.793l6-6L10 4.707l-6 6ZM5 5a.5.5 0 0 1 0 1H2.5a.5.5 0 0 1 0-1H5Zm6.854-1.44a.5.5 0 0 0-.707 0l-.44.44L12.5 5.793l.44-.44a.5.5 0 0 0 0-.706L11.854 3.56ZM7.5 2.5a.5.5 0 0 1 0 1h-5a.5.5 0 0 1 0-1h5Z"/></symbol>
  <symbol id="icon-large" fill="none" viewBox="0 0 24 24"><path fill="currentColor" fill-rule="evenodd" d="M19.56 4.853a1.5 1.5 0 0 0-2.12 0l-10 10A1.5 1.5 0 0 0 7 15.915V19.5a.5.5 0 0 0 .5.5h3.586a1.5 1.5 0 0 0 1.06-.44l10-10a1.5 1.5 0 0 0 0-2.12l-2.585-2.587ZM11.087 19H8v-3.086a.5.5 0 0 1 .146-.354L16 7.707 19.293 11l-7.853 7.854a.5.5 0 0 1-.354.146ZM20 10.293l1.44-1.44a.5.5 0 0 0 0-.707l-2.587-2.585a.5.5 0 0 0-.707 0L16.707 7 20 10.293ZM6.5 9a.5.5 0 0 1 0 1h-4a.5.5 0 0 1 0-1h4ZM10 5.5a.5.5 0 0 0-.5-.5h-7a.5.5 0 0 0 0 1h7a.5.5 0 0 0 .5-.5Z" clip-rule="evenodd"/></symbol>
  <use href="#icon"/>
</svg>
