<svg xmlns="http://www.w3.org/2000/svg">
  <symbol id="icon" fill="none" viewBox="0 0 16 16"><path fill="currentColor" d="M6.229.88a1.5 1.5 0 0 1 1.542 0l4 2.4a1.5 1.5 0 0 1 .729 1.286v4.867a1.5 1.5 0 0 1-.729 1.286l-4 2.4a1.5 1.5 0 0 1-1.542 0l-4-2.4A1.5 1.5 0 0 1 1.5 9.433V4.566a1.5 1.5 0 0 1 .729-1.286l4-2.4ZM2.972 9.999l3.566 2.14v-1.834L4.5 9.082l-1.528.917Zm4.49.306v1.833l3.565-2.14L9.5 9.083l-2.038 1.223ZM5 8.216l1.538.923V7.26L5 6.338v1.878Zm2.462-.956v1.88L9 8.215V6.338l-1.538.922ZM2.5 9.117l1.5-.9v-2.48l-1.5-.9v4.28Zm7.5-3.38v2.48l1.5.9v-4.28l-1.5.9ZM5.434 5.52 7 6.461l1.565-.94L7 4.581l-1.566.94Zm-2.5-1.499 1.528.917L6.5 3.716V1.882l-3.565 2.14ZM7.5 3.716l2.036 1.222 1.529-.916L7.5 1.882v1.834Z"/></symbol>
  <symbol id="icon-large" fill="none" viewBox="0 0 24 24"><path fill="currentColor" fill-rule="evenodd" d="m20.041 7-3.09 1.888-4.451-2.67V2.39L20.041 7ZM11.5 2.39 3.959 7l3.09 1.888 4.451-2.67V2.39Zm9 5.5-3 1.834v4.498l3 1.875V7.892Zm-.45 9.104-3.055-1.91-4.495 2.698v3.826l7.55-4.614Zm-3.55-2.778-4 2.4V12.78l4-2.444v3.88Zm-5 2.4V12.78l-4-2.444v3.88l4 2.4Zm0 4.992v-3.826l-4.495-2.697-3.055 1.91 7.55 4.613Zm-8-5.51V7.891l3 1.833v4.498l-3 1.875Zm12.49-6.623L12 7.082 8.01 9.476 12 11.913l3.99-2.437Zm5.51 6.963a1.5 1.5 0 0 1-.718 1.28l-8 4.89a1.5 1.5 0 0 1-1.564 0l-8-4.89a1.5 1.5 0 0 1-.718-1.28V7.561a1.5 1.5 0 0 1 .718-1.28l8-4.89a1.5 1.5 0 0 1 1.564 0l8 4.89a1.5 1.5 0 0 1 .718 1.28v8.878Z" clip-rule="evenodd"/></symbol>
  <use href="#icon"/>
</svg>
