<svg xmlns="http://www.w3.org/2000/svg">
  <symbol id="icon" fill="none" viewBox="0 0 16 16"><path fill="currentColor" d="M6 4a1 1 0 0 1 1 1v8a1 1 0 0 1-1 1H4a1 1 0 0 1-1-1V5a1 1 0 0 1 1-1h2Zm-2 9h2V5H4v8Zm8-9a1 1 0 0 1 1 1v5a1 1 0 0 1-1 1h-2a1 1 0 0 1-1-1V5a1 1 0 0 1 1-1h2Zm-2 6h2V5h-2v5Zm4.5-8a.5.5 0 0 1 0 1h-13a.5.5 0 0 1 0-1h13Z"/></symbol>
  <symbol id="icon-large" fill="none" viewBox="0 0 24 24"><path fill="currentColor" fill-rule="evenodd" d="M20.5 3a.5.5 0 0 1 0 1h-17a.5.5 0 0 1 0-1h17ZM10 7.5a.5.5 0 0 0-.5-.5h-2a.5.5 0 0 0-.5.5v12a.5.5 0 0 0 .5.5h2a.5.5 0 0 0 .5-.5v-12Zm1 12A1.5 1.5 0 0 1 9.5 21h-2A1.5 1.5 0 0 1 6 19.5v-12A1.5 1.5 0 0 1 7.5 6h2A1.5 1.5 0 0 1 11 7.5v12ZM16.5 7a.5.5 0 0 1 .5.5v8a.5.5 0 0 1-.5.5h-2a.5.5 0 0 1-.5-.5v-8a.5.5 0 0 1 .5-.5h2Zm0 10a1.5 1.5 0 0 0 1.5-1.5v-8A1.5 1.5 0 0 0 16.5 6h-2A1.5 1.5 0 0 0 13 7.5v8a1.5 1.5 0 0 0 1.5 1.5h2Z" clip-rule="evenodd"/></symbol>
  <use href="#icon"/>
</svg>
