<svg xmlns="http://www.w3.org/2000/svg">
  <symbol id="icon" fill="none" viewBox="0 0 16 16"><path fill="currentColor" d="M12.5 2A1.5 1.5 0 0 1 14 3.5v9a1.5 1.5 0 0 1-1.5 1.5h-9A1.5 1.5 0 0 1 2 12.5v-9A1.5 1.5 0 0 1 3.5 2h9Zm-9 1a.5.5 0 0 0-.5.5v9a.5.5 0 0 0 .5.5h9a.5.5 0 0 0 .5-.5v-9a.5.5 0 0 0-.5-.5h-9Zm8 1a.5.5 0 0 1 .5.5v7a.5.5 0 0 1-1 0v-3H8.5v3a.5.5 0 0 1-1 0v-3H5v3a.5.5 0 0 1-1 0v-7a.5.5 0 0 1 1 0v3h2.5v-3a.5.5 0 0 1 1 0v3H11v-3a.5.5 0 0 1 .5-.5Z"/></symbol>
  <symbol id="icon-large" fill="none" viewBox="0 0 24 24"><path fill="currentColor" d="M19.5 3A1.5 1.5 0 0 1 21 4.5v15a1.5 1.5 0 0 1-1.5 1.5h-15A1.5 1.5 0 0 1 3 19.5v-15A1.5 1.5 0 0 1 4.5 3h15Zm-15 1a.5.5 0 0 0-.5.5v15a.5.5 0 0 0 .5.5h15a.5.5 0 0 0 .5-.5v-15a.5.5 0 0 0-.5-.5h-15Zm13 2a.5.5 0 0 1 .5.5v11a.5.5 0 0 1-1 0v-5h-4.5v5a.5.5 0 0 1-1 0v-5H7v5a.5.5 0 0 1-1 0v-11a.5.5 0 0 1 1 0v5h4.5v-5a.5.5 0 0 1 1 0v5H17v-5a.5.5 0 0 1 .5-.5Z"/></symbol>
  <use href="#icon"/>
</svg>
