<svg xmlns="http://www.w3.org/2000/svg">
  <symbol id="icon" fill="none" viewBox="0 0 16 16"><path fill="currentColor" d="M11 8.5a.5.5 0 0 1 0 1h-.793l1.543 1.543 1.397-1.396a.5.5 0 0 1 .707.707l-3.5 3.5a.5.5 0 0 1-.707-.707l1.396-1.397L9.5 10.207V11a.5.5 0 0 1-1 0V9a.5.5 0 0 1 .5-.5h2Zm-4 0a.5.5 0 0 1 .5.5v2a.5.5 0 0 1-1 0v-.793L4.957 11.75l1.397 1.397.064.078a.5.5 0 0 1-.693.693l-.078-.064-3.5-3.5-.065-.079a.5.5 0 0 1 .694-.693l.078.065 1.396 1.396L5.793 9.5H5a.5.5 0 0 1 0-1h2ZM5.725 2.082a.5.5 0 0 1 .693.693l-.064.079L4.957 4.25 6.5 5.793V5a.5.5 0 0 1 1 0v2a.5.5 0 0 1-.5.5H5a.5.5 0 0 1 0-1h.793L4.25 4.957 2.854 6.354a.5.5 0 0 1-.707-.707l3.5-3.5.078-.065Zm3.922.065a.5.5 0 0 1 .629-.065l.078.065 3.5 3.5.064.078a.5.5 0 0 1-.693.693l-.078-.064-1.396-1.397L10.208 6.5H11a.5.5 0 0 1 0 1H9a.5.5 0 0 1-.5-.5V5a.5.5 0 0 1 1 0v.793l1.542-1.543-1.396-1.396-.065-.079a.5.5 0 0 1 .065-.628Z"/></symbol>
  <symbol id="icon-large" fill="none" viewBox="0 0 24 24"><path fill="currentColor" d="M16 13a.5.5 0 0 1 0 1h-1.293L17 16.293l3.146-3.147a.5.5 0 0 1 .707.707l-7 7a.5.5 0 1 1-.707-.707L16.293 17 14 14.707V16a.5.5 0 1 1-1 0v-2.5a.5.5 0 0 1 .5-.5H16Zm-5.5 0a.5.5 0 0 1 .5.5V16a.5.5 0 1 1-1 0v-1.293L7.707 17l3.146 3.146.065.078a.5.5 0 0 1-.694.694l-.078-.065-7-7-.064-.078a.501.501 0 0 1 .693-.693l.078.064L7 16.293 9.293 14H8a.5.5 0 0 1 0-1h2.5Zm-.276-9.918a.501.501 0 0 1 .694.693l-.065.078L7.707 7 10 9.293V8a.5.5 0 0 1 1 0v2.5a.5.5 0 0 1-.5.5H8a.5.5 0 0 1 0-1h1.293L7 7.707l-3.147 3.146a.5.5 0 1 1-.707-.707l7-7 .078-.064Zm2.922.064a.501.501 0 0 1 .63-.064l.077.064 7 7 .065.078a.5.5 0 0 1-.694.694l-.078-.065L17 7.707 14.707 10H16l.1.01a.5.5 0 0 1 0 .98L16 11h-2.5a.5.5 0 0 1-.5-.5V8a.5.5 0 0 1 1 0v1.293L16.293 7l-3.147-3.147-.064-.078a.5.5 0 0 1 .064-.629Z"/></symbol>
  <use href="#icon"/>
</svg>
