<svg xmlns="http://www.w3.org/2000/svg">
  <symbol id="icon" fill="none" viewBox="0 0 16 16"><path fill="currentColor" d="M8 5c.737 0 1.452.217 1.993.547C10.503 5.858 11 6.364 11 7v6.5a.5.5 0 0 1-1 0v-1.052l-.007.005a3.912 3.912 0 0 1-3.986 0L6 12.448V13.5a.5.5 0 0 1-1 0V7c0-.636.497-1.142 1.007-1.453A3.912 3.912 0 0 1 8 5Zm1.993 3.453a3.913 3.913 0 0 1-3.986 0L6 8.448V11l.005.044c.027.117.157.333.523.556a2.914 2.914 0 0 0 2.945 0c.366-.223.495-.438.521-.556L10 11V8.448l-.007.005ZM8 6c-.551 0-1.086.165-1.472.4C6.11 6.656 6 6.9 6 7c0 .1.11.345.528.6a2.915 2.915 0 0 0 2.945 0C9.89 7.345 10 7.1 10 7c0-.1-.11-.345-.527-.6A2.915 2.915 0 0 0 8 6ZM2.685 3.996a.33.33 0 0 1 .63 0L3.6 4.9l.903.286a.33.33 0 0 1 0 .629L3.6 6.1l-.285.903a.33.33 0 0 1-.63 0L2.4 6.1l-.904-.285a.33.33 0 0 1 0-.63L2.4 4.9l.285-.904Zm10 0a.33.33 0 0 1 .63 0l.285.904.903.286a.33.33 0 0 1 0 .629L13.6 6.1l-.285.903a.33.33 0 0 1-.63 0L12.4 6.1l-.904-.285a.33.33 0 0 1 0-.63L12.4 4.9l.286-.904Zm-5-3a.33.33 0 0 1 .63 0L8.6 1.9l.903.286a.33.33 0 0 1 0 .629L8.6 3.1l-.285.903a.33.33 0 0 1-.63 0L7.4 3.1l-.904-.285a.33.33 0 0 1 0-.63L7.4 1.9l.286-.904Z"/></symbol>
  <symbol id="icon-large" fill="none" viewBox="0 0 24 24"><path fill="currentColor" fill-rule="evenodd" d="M12 1.625c.161 0 .304.104.355.257l.44 1.321 1.323.442a.375.375 0 0 1 0 .71l-1.322.44-.44 1.323a.375.375 0 0 1-.711 0l-.442-1.322-1.321-.44a.375.375 0 0 1 0-.711l1.321-.442.442-1.321.023-.056A.375.375 0 0 1 12 1.625Zm-.145 1.993a.376.376 0 0 1-.237.237L11.185 4l.433.145.08.037c.073.045.13.116.157.2l.145.433.145-.433.037-.08a.375.375 0 0 1 .2-.157L12.815 4l-.433-.145a.376.376 0 0 1-.237-.237L12 3.185l-.145.433Zm8 2.264a.375.375 0 0 0-.687-.056l-.023.056-.442 1.321-1.321.442a.375.375 0 0 0 0 .71l1.321.44.442 1.323a.375.375 0 0 0 .71 0l.44-1.322 1.323-.44a.375.375 0 0 0 0-.711l-1.322-.442-.44-1.321Zm-.737 1.973a.376.376 0 0 0 .238-.237l.144-.433.145.433c.037.112.125.2.237.237l.433.145-.433.145a.375.375 0 0 0-.2.158l-.037.079-.145.433-.145-.433a.375.375 0 0 0-.158-.2l-.079-.037L18.685 8l.433-.145ZM15 10.5c0-.295-.214-.661-.773-.98C13.682 9.208 12.895 9 12 9c-.895 0-1.682.208-2.227.52-.559.319-.773.685-.773.98 0 .295.214.661.773.98.545.312 1.332.52 2.227.52.895 0 1.682-.208 2.227-.52.559-.319.773-.685.773-.98ZM9.277 8.651C8.57 9.056 8 9.691 8 10.5v11a.5.5 0 0 0 1 0v-2.235c.098.062.199.118.302.17.716.358 1.67.565 2.698.565 1.027 0 1.982-.207 2.698-.565.103-.052.204-.108.302-.17V21.5a.5.5 0 0 0 1 0v-11c0-.81-.57-1.444-1.277-1.849C14 8.24 13.037 8 12 8s-2 .239-2.723.651ZM15 17.75v-5.577c-.09.063-.182.121-.277.176C14 12.76 13.037 13 12 13s-2-.239-2.723-.651A3.507 3.507 0 0 1 9 12.173v5.577c0 .192.169.5.749.79.55.275 1.345.46 2.251.46.906 0 1.7-.185 2.251-.46.58-.29.749-.598.749-.79ZM4.855 5.882a.375.375 0 0 0-.687-.056l-.023.056-.442 1.321-1.321.442a.375.375 0 0 0 0 .71l1.321.44.442 1.323a.375.375 0 0 0 .71 0l.44-1.322 1.323-.44a.375.375 0 0 0 0-.711l-1.322-.442-.44-1.321Zm-.737 1.973a.375.375 0 0 0 .237-.237l.145-.433.145.433c.037.112.125.2.237.237L5.315 8l-.433.145a.375.375 0 0 0-.2.158l-.037.079-.145.433-.145-.433a.375.375 0 0 0-.158-.2l-.079-.037L3.685 8l.433-.145Z" clip-rule="evenodd"/></symbol>
  <use href="#icon"/>
</svg>
