<svg xmlns="http://www.w3.org/2000/svg">
  <symbol id="icon" fill="none" viewBox="0 0 16 16"><path fill="currentColor" d="M10.314 1.536a.5.5 0 0 1 .603.188l.047.09L11.838 4h.605a1.5 1.5 0 0 1 1.497 1.583l-.388 7A1.5 1.5 0 0 1 12.054 14H3.945a1.5 1.5 0 0 1-1.498-1.417l-.389-7A1.5 1.5 0 0 1 3.556 4h.606l.874-2.186a.5.5 0 0 1 .928.371L5.238 4h5.523l-.725-1.815-.028-.097a.5.5 0 0 1 .306-.552ZM3.556 5a.5.5 0 0 0-.499.527l.389 7a.501.501 0 0 0 .5.473h8.107a.501.501 0 0 0 .5-.473l.39-7a.5.5 0 0 0-.5-.527H3.556ZM10.5 7a.5.5 0 0 1 0 1h-5a.5.5 0 0 1 0-1h5Z"/></symbol>
  <symbol id="icon-large" fill="none" viewBox="0 0 24 24"><path fill="currentColor" fill-rule="evenodd" d="M15.814 3.036a.5.5 0 0 1 .65.278L18.338 8h1.981a1.5 1.5 0 0 1 1.48 1.747l-1.666 10A1.5 1.5 0 0 1 18.653 21H5.346a1.5 1.5 0 0 1-1.48-1.253l-1.666-10A1.5 1.5 0 0 1 3.681 8h1.98l1.875-4.686a.5.5 0 1 1 .928.372L6.738 8h10.524l-1.726-4.314a.5.5 0 0 1 .278-.65ZM3.188 9.582A.5.5 0 0 1 3.68 9h16.638a.5.5 0 0 1 .494.582l-1.666 10a.501.501 0 0 1-.495.418H5.347a.5.5 0 0 1-.493-.418l-1.666-10ZM18 11.5a.5.5 0 0 0-.5-.5h-11a.5.5 0 0 0 0 1h11a.5.5 0 0 0 .5-.5Z" clip-rule="evenodd"/></symbol>
  <use href="#icon"/>
</svg>
