<svg xmlns="http://www.w3.org/2000/svg">
  <symbol id="icon" fill="none" viewBox="0 0 16 16"><path fill="currentColor" d="M7.429 1.768a1.5 1.5 0 0 1 1.321.088l4.196 2.423a1.5 1.5 0 0 1 .75 1.299v4.845a1.5 1.5 0 0 1-.75 1.299L8.75 14.145a1.501 1.501 0 0 1-1.321.088l-.179-.088-4.196-2.423a1.5 1.5 0 0 1-.75-1.299V5.578a1.5 1.5 0 0 1 .75-1.3L7.25 1.857l.179-.088Zm.821.954a.5.5 0 0 0-.44-.03l-.06.03-4.196 2.423a.5.5 0 0 0-.25.433v4.845a.5.5 0 0 0 .25.433l4.196 2.423.06.029a.5.5 0 0 0 .44-.03l4.196-2.422a.5.5 0 0 0 .25-.433V5.578a.5.5 0 0 0-.25-.433L8.25 2.722Zm1.593 3.535a.5.5 0 0 1 .489.849l-.082.058L8.5 8.175V10a.5.5 0 0 1-1 0V8.175l-1.75-1.01-.082-.06a.5.5 0 0 1 .49-.848l.092.042L8 7.31 9.75 6.3l.093-.042Z"/></symbol>
  <symbol id="icon-large" fill="none" viewBox="0 0 24 24"><path fill="currentColor" d="M11.403 1.296a1.5 1.5 0 0 1 1.38.096l8 4.89A1.5 1.5 0 0 1 21.5 7.56v8.878a1.5 1.5 0 0 1-.559 1.168l-.159.112-8 4.89a1.5 1.5 0 0 1-1.379.095l-.185-.096-8-4.89A1.5 1.5 0 0 1 2.5 16.44V7.561a1.5 1.5 0 0 1 .718-1.28l8-4.89.185-.095Zm.858.95a.5.5 0 0 0-.46-.033l-.062.032-8 4.889a.5.5 0 0 0-.239.427v8.878a.5.5 0 0 0 .24.427l8 4.889.06.032a.5.5 0 0 0 .46-.032l8-4.889.053-.038a.5.5 0 0 0 .187-.389V7.561a.5.5 0 0 0-.24-.427l-8-4.889ZM7.573 9.794a.5.5 0 0 1 .597-.21l.09.044L12 11.913l3.74-2.284a.5.5 0 0 1 .52.853L12.5 12.78V17a.5.5 0 0 1-1 0v-4.22l-3.76-2.298-.082-.061a.5.5 0 0 1-.085-.626Z"/></symbol>
  <use href="#icon"/>
</svg>
