<svg xmlns="http://www.w3.org/2000/svg">
  <symbol id="icon" fill="none" viewBox="0 0 16 16"><path fill="currentColor" d="M9.133 1.66a.5.5 0 0 1 .857.438L9.11 6.5H13a.5.5 0 0 1 .366.84l-6.5 7a.5.5 0 0 1-.857-.437L6.89 9.5H3a.5.5 0 0 1-.367-.84l6.5-7ZM4.146 8.5H7.5a.5.5 0 0 1 .49.598l-.654 3.267L11.853 7.5H8.5a.501.501 0 0 1-.49-.597l.653-3.268L4.146 8.5Z"/></symbol>
  <symbol id="icon-large" fill="none" viewBox="0 0 24 24"><path fill="currentColor" d="M14.639 1.154a.5.5 0 0 1 .851.444l-1.42 7.097 5.622 2.343a.5.5 0 0 1 .17.808l-10.5 11a.5.5 0 0 1-.852-.444l1.419-7.098-5.621-2.342a.5.5 0 0 1-.17-.808l10.5-11ZM5.364 12.317l5.328 2.221a.5.5 0 0 1 .298.56l-1.162 5.81 8.807-9.226-5.327-2.22a.5.5 0 0 1-.298-.56l1.162-5.81-8.808 9.225Z"/></symbol>
  <use href="#icon"/>
</svg>
