<svg xmlns="http://www.w3.org/2000/svg">
  <symbol id="icon" fill="none" viewBox="0 0 16 16"><path fill="currentColor" d="M11.5 2A1.5 1.5 0 0 1 13 3.5v9.793c0 .89-1.077 1.337-1.707.707L8 10.707 4.707 14c-.63.63-1.707.184-1.707-.707V3.5A1.5 1.5 0 0 1 4.5 2h7Zm-7 1a.5.5 0 0 0-.5.5v9.793L7.293 10a1 1 0 0 1 1.414 0L12 13.293V3.5a.5.5 0 0 0-.5-.5h-7Z"/></symbol>
  <symbol id="icon-large" fill="none" viewBox="0 0 24 24"><path fill="currentColor" d="M11.168 17.454a1.5 1.5 0 0 1 1.664 0l5.39 3.594a.5.5 0 0 0 .778-.416V4.5A1.5 1.5 0 0 0 17.5 3h-11A1.5 1.5 0 0 0 5 4.5v16.132a.5.5 0 0 0 .777.416l5.391-3.594ZM20 20.632c0 1.198-1.335 1.912-2.332 1.248l-5.39-3.594a.5.5 0 0 0-.555 0L6.332 21.88C5.335 22.544 4 21.83 4 20.632V4.5A2.5 2.5 0 0 1 6.5 2h11A2.5 2.5 0 0 1 20 4.5v16.132Z"/></symbol>
  <use href="#icon"/>
</svg>
