<svg xmlns="http://www.w3.org/2000/svg">
  <symbol id="icon" fill="none" viewBox="0 0 16 16"><path fill="currentColor" d="M2.5 12a.5.5 0 0 1 .5.5.5.5 0 0 0 .4.49l.2.02a.5.5 0 0 1-.1.99A1.5 1.5 0 0 1 2 12.5a.5.5 0 0 1 .5-.5ZM7 13a.5.5 0 0 1 0 1H5.5a.5.5 0 0 1 0-1H7Zm3.5 0a.5.5 0 0 1 0 1H9a.5.5 0 0 1 0-1h1.5Zm3-1a.5.5 0 0 1 .5.5 1.5 1.5 0 0 1-1.5 1.5.5.5 0 0 1-.1-.99l.2-.02a.5.5 0 0 0 .4-.49.5.5 0 0 1 .5-.5ZM11 4a1 1 0 0 1 1 1v2a1 1 0 0 1-1 1H8v3a1 1 0 0 1-1 1H5a1 1 0 0 1-1-1V5a1 1 0 0 1 1-1h6ZM2.5 8.5A.5.5 0 0 1 3 9v1.5a.5.5 0 0 1-1 0V9a.5.5 0 0 1 .5-.5ZM5 11h2V7.5a.5.5 0 0 1 .5-.5H11V5H5v6Zm8.5-2.5a.5.5 0 0 1 .5.5v1.5a.5.5 0 0 1-1 0V9a.5.5 0 0 1 .5-.5ZM2.5 5a.5.5 0 0 1 .5.5V7a.5.5 0 0 1-1 0V5.5a.5.5 0 0 1 .5-.5Zm11 0a.5.5 0 0 1 .5.5V7a.5.5 0 0 1-1 0V5.5a.5.5 0 0 1 .5-.5Zm-10-3a.5.5 0 0 1 .1.99l-.2.02a.502.502 0 0 0-.401.49.5.5 0 1 1-1 0c0-.828.673-1.5 1.501-1.5Zm9 0a1.5 1.5 0 0 1 1.499 1.5.5.5 0 1 1-1 0 .5.5 0 0 0-.398-.49l-.202-.02A.5.5 0 0 1 12.5 2ZM6.999 2A.5.5 0 0 1 7 3H5.5a.5.5 0 0 1 0-1h1.499Zm3.5 0a.5.5 0 0 1 .001 1H9a.5.5 0 0 1-.001-1h1.5Z"/></symbol>
  <symbol id="icon-large" fill="none" viewBox="0 0 24 24"><path fill="currentColor" d="M3.5 18a.5.5 0 0 1 .5.5v1a.5.5 0 0 0 .5.5h1a.5.5 0 0 1 0 1h-1A1.5 1.5 0 0 1 3 19.5v-1a.5.5 0 0 1 .5-.5Zm7 2a.5.5 0 0 1 0 1h-2a.5.5 0 0 1 0-1h2Zm5 0a.5.5 0 0 1 0 1h-2a.5.5 0 0 1 0-1h2Zm5-2a.5.5 0 0 1 .5.5v1a1.5 1.5 0 0 1-1.5 1.5h-1a.5.5 0 0 1 0-1h1a.5.5 0 0 0 .5-.5v-1a.5.5 0 0 1 .5-.5ZM17.102 6.005A1 1 0 0 1 18 7v4a1 1 0 0 1-1 1h-5v5a1 1 0 0 1-1 1H7a1 1 0 0 1-1-1V7a1 1 0 0 1 1-1h10l.102.005ZM7 17h4v-5.5a.5.5 0 0 1 .5-.5H17V7H7v10Zm-3.5-4a.5.5 0 0 1 .5.5v2a.5.5 0 0 1-1 0v-2a.5.5 0 0 1 .5-.5Zm17 0a.5.5 0 0 1 .5.5v2a.5.5 0 0 1-1 0v-2a.5.5 0 0 1 .5-.5Zm-17-5a.5.5 0 0 1 .5.5v2a.5.5 0 0 1-1 0v-2a.5.5 0 0 1 .5-.5Zm17 0a.5.5 0 0 1 .5.5v2a.5.5 0 0 1-1 0v-2a.5.5 0 0 1 .5-.5Zm-15-5a.5.5 0 0 1 0 1h-1a.5.5 0 0 0-.5.5v1a.5.5 0 0 1-1 0v-1A1.5 1.5 0 0 1 4.5 3h1Zm14 0A1.5 1.5 0 0 1 21 4.5v1a.5.5 0 0 1-1 0v-1a.5.5 0 0 0-.5-.5h-1a.5.5 0 0 1 0-1h1Zm-9 0a.5.5 0 0 1 0 1h-2a.5.5 0 0 1 0-1h2Zm5 0a.5.5 0 0 1 0 1h-2a.5.5 0 0 1 0-1h2Z"/></symbol>
  <use href="#icon"/>
</svg>
