<svg xmlns="http://www.w3.org/2000/svg">
  <symbol id="icon" fill="none" viewBox="0 0 16 16"><path fill="currentColor" d="M10.5 1a.5.5 0 0 1 .5.5V2h1.5A1.5 1.5 0 0 1 14 3.5v9a1.5 1.5 0 0 1-1.5 1.5h-9A1.5 1.5 0 0 1 2 12.5v-9A1.5 1.5 0 0 1 3.5 2H5v-.5a.5.5 0 0 1 1 0V2h4v-.5a.5.5 0 0 1 .5-.5ZM3 12.5a.5.5 0 0 0 .5.5h9a.5.5 0 0 0 .5-.5V6H3v6.5ZM3.5 3a.5.5 0 0 0-.5.5V5h10V3.5a.5.5 0 0 0-.5-.5H11v.5a.5.5 0 0 1-1 0V3H6v.5a.5.5 0 0 1-1 0V3H3.5Z"/></symbol>
  <symbol id="icon-large" fill="none" viewBox="0 0 24 24"><path fill="currentColor" fill-rule="evenodd" d="M7.5 2a.5.5 0 0 0-.5.5V4H4.5A1.5 1.5 0 0 0 3 5.5v14A1.5 1.5 0 0 0 4.5 21h15a1.5 1.5 0 0 0 1.5-1.5v-14A1.5 1.5 0 0 0 19.5 4H17V2.5a.5.5 0 0 0-1 0V4H8V2.5a.5.5 0 0 0-.5-.5ZM20 5.5a.5.5 0 0 0-.5-.5h-15a.5.5 0 0 0-.5.5V8h16V5.5Zm-16 14V9h16v10.5a.5.5 0 0 1-.5.5h-15a.5.5 0 0 1-.5-.5Z" clip-rule="evenodd"/></symbol>
  <use href="#icon"/>
</svg>
