<svg xmlns="http://www.w3.org/2000/svg">
  <symbol id="icon" fill="none" viewBox="0 0 16 16"><path fill="currentColor" d="M6.5 9a.5.5 0 0 1 .5.5v4a.5.5 0 0 1-.5.5h-4a.5.5 0 0 1-.5-.5v-4l.01-.1A.5.5 0 0 1 2.5 9h4Zm4.75-.5a2.75 2.75 0 1 1 0 5.5 2.75 2.75 0 0 1 0-5.5ZM3 13h3v-3H3v3Zm8.25-3.5a1.75 1.75 0 1 0 0 3.5 1.75 1.75 0 0 0 0-3.5ZM7.725 2.082a.5.5 0 0 1 .629.064l2.5 2.5a.5.5 0 0 1 0 .707l-2.5 2.5a.5.5 0 0 1-.708 0l-2.5-2.5a.5.5 0 0 1 0-.707l2.5-2.5.079-.064ZM6.207 5 8 6.793 9.793 5 8 3.207 6.207 5Z"/></symbol>
  <symbol id="icon-large" fill="none" viewBox="0 0 24 24"><path fill="currentColor" fill-rule="evenodd" d="M12.354 1.146a.5.5 0 0 0-.63-.064l-.078.064-5 5a.5.5 0 0 0 0 .708l5 5a.5.5 0 0 0 .707 0l5-5a.5.5 0 0 0 0-.708l-5-5ZM12 10.793 7.707 6.5 12 2.207 16.293 6.5 12 10.793Zm9.5 6.457a3.75 3.75 0 1 0-7.5 0 3.75 3.75 0 0 0 7.5 0Zm1 0a4.75 4.75 0 1 1-9.5 0 4.75 4.75 0 0 1 9.5 0ZM10.5 13a.5.5 0 0 1 .5.5v8a.5.5 0 0 1-.5.5h-8a.5.5 0 0 1-.5-.5v-8l.01-.1a.5.5 0 0 1 .49-.4h8ZM3 21h7v-7H3v7Z" clip-rule="evenodd"/></symbol>
  <use href="#icon"/>
</svg>
