<svg xmlns="http://www.w3.org/2000/svg">
  <symbol id="icon" fill="none" viewBox="0 0 16 16"><path fill="currentColor" d="M8 1.5a.5.5 0 0 1 .429.243L9.747 3.94l2.155-.43a.5.5 0 0 1 .585.602l-.495 2.14 2.259 1.315a.502.502 0 0 1 0 .865l-2.166 1.26 1.858 3.577a.5.5 0 0 1-.667.678L9.69 12.154l-1.26 2.103a.5.5 0 0 1-.858 0l-1.318-2.198-2.155.431a.5.5 0 0 1-.588-.588l.43-2.155-2.197-1.319-.054-.037a.5.5 0 0 1 .054-.82l2.103-1.262-1.793-3.586a.5.5 0 0 1 .67-.67L6.31 3.844l1.26-2.101A.5.5 0 0 1 8 1.5Zm-.833 2.86a1 1 0 0 1-1.305.38L3.618 3.618 4.74 5.862a1 1 0 0 1-.38 1.305L2.97 8l1.485.89a1 1 0 0 1 .466 1.053l-.284 1.42 1.42-.284a1 1 0 0 1 1.053.466L8 13.029l.833-1.39a1 1 0 0 1 1.305-.38l2.208 1.105-1.149-2.21a1 1 0 0 1 .385-1.326L13.005 8l-1.516-.883a1 1 0 0 1-.471-1.09l.32-1.386-1.395.279a1 1 0 0 1-1.053-.466L7.999 2.97l-.832 1.39Z"/></symbol>
  <symbol id="icon-large" fill="none" viewBox="0 0 24 24"><path fill="currentColor" fill-rule="evenodd" d="M2.297 11.543a.5.5 0 0 0-.065.879l.065.035 3.647 1.621a.5.5 0 0 1 .267.628l-1.399 3.84a.5.5 0 0 0 .641.642l3.841-1.399a.5.5 0 0 1 .628.267l1.621 3.647a.5.5 0 0 0 .914 0l1.562-3.514a.5.5 0 0 1 .694-.237l5.55 2.988a.5.5 0 0 0 .677-.677l-2.988-5.55a.5.5 0 0 1 .236-.694l3.515-1.562a.5.5 0 0 0 0-.914l-3.647-1.621a.5.5 0 0 1-.267-.628l1.398-3.84a.5.5 0 0 0-.64-.641l-3.84 1.398a.5.5 0 0 1-.629-.267l-1.621-3.647a.5.5 0 0 0-.914 0L9.981 5.812a.5.5 0 0 1-.694.236L3.737 3.06a.5.5 0 0 0-.677.677l2.988 5.55a.5.5 0 0 1-.236.694l-3.515 1.562Zm4.853 3.505a1.5 1.5 0 0 0-.8-1.884l-2.619-1.163 2.487-1.105a1.5 1.5 0 0 0 .71-2.083L4.73 4.731 8.813 6.93a1.5 1.5 0 0 0 2.082-.711L12 3.732l1.164 2.619a1.5 1.5 0 0 0 1.884.8l2.833-1.032-1.031 2.833a1.5 1.5 0 0 0 .8 1.884L20.267 12l-2.486 1.104a1.5 1.5 0 0 0-.71 2.083l2.197 4.083-4.082-2.199a1.5 1.5 0 0 0-2.082.711l-1.106 2.487-1.163-2.62a1.5 1.5 0 0 0-1.884-.8l-2.834 1.033 1.032-2.834ZM9.701 8.75c-.58-.205-1.156.371-.951.951l.056.125L10.014 12l-1.208 2.175c-.366.659.36 1.385 1.02 1.019l2.173-1.209 2.175 1.209c.66.366 1.386-.36 1.02-1.02L13.984 12l1.21-2.174c.366-.66-.36-1.386-1.02-1.02L12 10.015 9.826 8.806 9.7 8.75Zm.403 5.146.851-1.532a.75.75 0 0 0 0-.728l-.851-1.532 1.532.851a.75.75 0 0 0 .728 0l1.531-.85-.85 1.531a.75.75 0 0 0-.042.64l.042.088.85 1.531-1.531-.85-.087-.042a.75.75 0 0 0-.64.042l-1.533.851Z" clip-rule="evenodd"/></symbol>
  <use href="#icon"/>
</svg>
