<svg xmlns="http://www.w3.org/2000/svg">
  <symbol id="icon" fill="none" viewBox="0 0 16 16"><path fill="currentColor" d="M8 7.5a.5.5 0 0 1 .5.5v4.293l1.146-1.146a.5.5 0 1 1 .707.707l-2 2a.5.5 0 0 1-.707 0l-2-2-.064-.079a.5.5 0 0 1 .693-.693l.079.064L7.5 12.293V8a.5.5 0 0 1 .5-.5Zm0-5a4.5 4.5 0 0 1 4.413 3.621A3.5 3.5 0 0 1 11.5 13v-1a2.5 2.5 0 0 0 .652-4.913 1 1 0 0 1-.72-.772 3.501 3.501 0 0 0-6.625-.75 1 1 0 0 1-.637.551 3.002 3.002 0 0 0 .33 5.842v1.01a4 4 0 0 1-.605-7.813A4.5 4.5 0 0 1 8 2.5Z"/></symbol>
  <symbol id="icon-large" fill="none" viewBox="0 0 24 24"><path fill="currentColor" fill-rule="evenodd" d="M5.6 8.164a6.002 6.002 0 0 0 .855 11.812h.02l.5.027.05-1-.48-.023a5 5 0 0 1-.705-9.844l.215-.047a.5.5 0 0 0 .342-.25l.028-.056a6 6 0 0 1 11.56 1.783.5.5 0 0 0 .356.444l.088.017.185.026a4 4 0 0 1-.63 7.95L17.002 19l-.004 1 .983.003h.002a5 5 0 0 0 .957-9.907A7 7 0 0 0 5.6 8.164Zm12.384 2.402.5-.036v.001l-.5.035Zm-9.338 7.287 2.995 2.995a.502.502 0 0 0 .718 0l2.995-2.994a.5.5 0 1 0-.707-.707L12.5 19.293V12.5a.5.5 0 0 0-1 0v6.793l-2.146-2.146a.5.5 0 1 0-.708.707Z" clip-rule="evenodd"/></symbol>
  <use href="#icon"/>
</svg>
