<svg xmlns="http://www.w3.org/2000/svg">
  <symbol id="icon" fill="none" viewBox="0 0 16 16"><path fill="currentColor" d="M7.724 7.082a.501.501 0 0 1 .629.064l2 2 .065.078a.5.5 0 0 1-.694.694l-.078-.065L8.5 8.707V13.5a.5.5 0 0 1-1 0V8.707L6.353 9.853a.5.5 0 0 1-.707-.707l2-2 .078-.064ZM8 2.5a4.5 4.5 0 0 1 4.413 3.62 3.501 3.501 0 0 1-.914 6.88H10v-1h1.5a2.5 2.5 0 0 0 .653-4.913 1 1 0 0 1-.72-.772 3.501 3.501 0 0 0-6.626-.75 1 1 0 0 1-.637.551A3 3 0 0 0 5 12h1v1H5a4 4 0 0 1-1.105-7.845A4.501 4.501 0 0 1 8 2.5Z"/></symbol>
  <symbol id="icon-large" fill="none" viewBox="0 0 24 24"><path fill="currentColor" fill-rule="evenodd" d="M5.6 8.164a6.002 6.002 0 0 0 .855 11.812.486.486 0 0 0 .04.002l2.5.025.01-1-2.476-.026a5 5 0 0 1-.69-9.841l.216-.047a.5.5 0 0 0 .342-.25l.028-.056a6 6 0 0 1 11.56 1.783.5.5 0 0 0 .356.444l.088.017.185.026a4.001 4.001 0 0 1-.63 7.95L15 19l-.002 1 2.983.003h.001a5 5 0 0 0 .957-9.907A7 7 0 0 0 5.6 8.164Zm12.382 11.839.001-1v1Zm.002-9.437.5-.036v.001l-.5.035Zm-6.26 1.516a.5.5 0 0 1 .63.064l3 3a.5.5 0 1 1-.707.707L12.5 13.707V20.5a.5.5 0 0 1-1 0v-6.793l-2.146 2.146a.5.5 0 1 1-.708-.707l3-3 .079-.064Z" clip-rule="evenodd"/></symbol>
  <use href="#icon"/>
</svg>
