<svg xmlns="http://www.w3.org/2000/svg">
  <symbol id="icon" fill="none" viewBox="0 0 16 16"><path fill="currentColor" fill-rule="evenodd" d="M13.5 3a.5.5 0 0 1 .5.5V9H2V3.5a.5.5 0 0 1 .5-.5h11ZM2 10h12v.5a.5.5 0 0 1-.5.5h-11a.5.5 0 0 1-.5-.5V10Zm11.5 2a1.5 1.5 0 0 0 1.5-1.5v-7A1.5 1.5 0 0 0 13.5 2h-11A1.5 1.5 0 0 0 1 3.5v7A1.5 1.5 0 0 0 2.5 12h5v1h-2a.5.5 0 0 0 0 1h5a.5.5 0 0 0 0-1h-2v-1h5Z" clip-rule="evenodd"/></symbol>
  <symbol id="icon-large" fill="none" viewBox="0 0 24 24"><path fill="currentColor" fill-rule="evenodd" d="M20.5 5a.5.5 0 0 1 .5.5V14H3V5.5a.5.5 0 0 1 .5-.5h17ZM3 15h18v1.5a.5.5 0 0 1-.5.5h-17a.5.5 0 0 1-.5-.5V15Zm-1 1.5v-11A1.5 1.5 0 0 1 3.5 4h17A1.5 1.5 0 0 1 22 5.5v11a1.5 1.5 0 0 1-1.5 1.5H15v2h.5a.5.5 0 0 1 0 1h-7a.5.5 0 0 1 0-1H9v-2H3.5A1.5 1.5 0 0 1 2 16.5Zm8 1.5v2h4v-2h-4Z" clip-rule="evenodd"/></symbol>
  <use href="#icon"/>
</svg>
