<svg xmlns="http://www.w3.org/2000/svg">
  <symbol id="icon" fill="none" viewBox="0 0 16 16"><path fill="currentColor" d="M2.5 2a.5.5 0 0 1 .5.5v11a.5.5 0 0 1-1 0v-11a.5.5 0 0 1 .5-.5Zm11 0a.5.5 0 0 1 .5.5v11a.5.5 0 0 1-1 0v-11a.5.5 0 0 1 .5-.5Zm-4 3A1.5 1.5 0 0 1 11 6.5v3A1.5 1.5 0 0 1 9.5 11h-3A1.5 1.5 0 0 1 5 9.5v-3A1.5 1.5 0 0 1 6.5 5h3Zm-3 1a.5.5 0 0 0-.5.5v3a.5.5 0 0 0 .5.5h3a.5.5 0 0 0 .5-.5v-3a.5.5 0 0 0-.5-.5h-3Z"/></symbol>
  <symbol id="icon-large" fill="none" viewBox="0 0 24 24"><path fill="currentColor" fill-rule="evenodd" d="M3 3.5v17a.5.5 0 0 0 1 0v-17a.5.5 0 0 0-1 0Zm17 17v-17a.5.5 0 0 1 1 0v17a.5.5 0 0 1-1 0Zm-5-13a.5.5 0 0 0-.5-.5h-5a.5.5 0 0 0-.5.5v9a.5.5 0 0 0 .5.5h5a.5.5 0 0 0 .5-.5v-9Zm1 9a1.5 1.5 0 0 1-1.5 1.5h-5A1.5 1.5 0 0 1 8 16.5v-9A1.5 1.5 0 0 1 9.5 6h5A1.5 1.5 0 0 1 16 7.5v9Z" clip-rule="evenodd"/></symbol>
  <use href="#icon"/>
</svg>
