<svg xmlns="http://www.w3.org/2000/svg">
  <symbol id="icon" fill="none" viewBox="0 0 16 16"><path fill="currentColor" d="M8.293 2A1 1 0 0 1 9 2.293L12.707 6a1 1 0 0 1 .293.707V12.5a1.5 1.5 0 0 1-1.5 1.5h-7A1.5 1.5 0 0 1 3 12.5v-9A1.5 1.5 0 0 1 4.5 2h3.793ZM4.5 3a.5.5 0 0 0-.5.5v9a.5.5 0 0 0 .5.5h7a.5.5 0 0 0 .5-.5V7H9.5A1.5 1.5 0 0 1 8 5.5V3H4.5ZM9 5.5a.5.5 0 0 0 .5.5h1.793L9 3.707V5.5Z"/></symbol>
  <symbol id="icon-large" fill="none" viewBox="0 0 24 24"><path fill="currentColor" fill-rule="evenodd" d="M4 3.5v17A1.5 1.5 0 0 0 5.5 22h13a1.5 1.5 0 0 0 1.5-1.5V9.414a1.5 1.5 0 0 0-.44-1.06l-5.913-5.915A1.5 1.5 0 0 0 12.585 2H5.5A1.5 1.5 0 0 0 4 3.5ZM5.5 21a.5.5 0 0 1-.5-.5v-17a.5.5 0 0 1 .5-.5h7v5A1.5 1.5 0 0 0 14 9.5h5v11a.5.5 0 0 1-.5.5h-13ZM18.293 8.5 13.5 3.707V8a.5.5 0 0 0 .5.5h4.293Z" clip-rule="evenodd"/></symbol>
  <use href="#icon"/>
</svg>
