<svg xmlns="http://www.w3.org/2000/svg">
  <symbol id="icon" fill="none" viewBox="0 0 16 16"><path fill="currentColor" d="M13.5 11a.5.5 0 0 1 .5.5v1a1.5 1.5 0 0 1-1.5 1.5h-9A1.5 1.5 0 0 1 2 12.5v-1a.5.5 0 0 1 1 0v1a.5.5 0 0 0 .5.5h9a.5.5 0 0 0 .5-.5v-1a.5.5 0 0 1 .5-.5ZM8 2a.5.5 0 0 1 .5.5v6.793l1.646-1.647a.5.5 0 1 1 .707.708l-2.5 2.5a.5.5 0 0 1-.707 0l-2.5-2.5-.064-.079a.5.5 0 0 1 .693-.693l.079.064L7.5 9.293V2.5A.5.5 0 0 1 8 2Z"/></symbol>
  <symbol id="icon-large" fill="none" viewBox="0 0 24 24"><path fill="currentColor" fill-rule="evenodd" d="M12 3a.5.5 0 0 0-.5.5v10.793l-3.146-3.146a.5.5 0 1 0-.708.707l4 4a.5.5 0 0 0 .707 0l4-4a.5.5 0 1 0-.707-.707L12.5 14.293V3.5A.5.5 0 0 0 12 3ZM3 19.5v-5a.5.5 0 0 1 1 0v5a.5.5 0 0 0 .5.5h15a.5.5 0 0 0 .5-.5v-5a.5.5 0 0 1 1 0v5a1.5 1.5 0 0 1-1.5 1.5h-15A1.5 1.5 0 0 1 3 19.5Z" clip-rule="evenodd"/></symbol>
  <use href="#icon"/>
</svg>
