<svg xmlns="http://www.w3.org/2000/svg">
  <symbol id="icon" fill="none" viewBox="0 0 16 16"><path fill="currentColor" d="M6.086 2c.398 0 .78.158 1.061.44l6.414 6.413a1.5 1.5 0 0 1 .44 1.06V12.5a1.5 1.5 0 0 1-1.5 1.5h-9A1.5 1.5 0 0 1 2 12.5v-9A1.5 1.5 0 0 1 3.5 2h2.585ZM3.5 3a.5.5 0 0 0-.5.5v9a.5.5 0 0 0 .5.5h9a.5.5 0 0 0 .5-.5V9.914a.501.501 0 0 0-.146-.354L6.44 3.146A.501.501 0 0 0 6.086 3H3.5Zm1 7a.5.5 0 0 1 .5.5v.5h.5a.5.5 0 0 1 0 1h-1a.5.5 0 0 1-.5-.5v-1a.5.5 0 0 1 .5-.5Zm4 1a.5.5 0 0 1 0 1h-1a.5.5 0 0 1 0-1h1Zm3-1a.5.5 0 0 1 .5.5v1a.5.5 0 0 1-.5.5h-1a.5.5 0 1 1 0-1h.5v-.5a.5.5 0 0 1 .5-.5ZM8.898 7.896a.5.5 0 0 1 .707 0l.75.75a.5.5 0 0 1-.707.707l-.75-.75a.5.5 0 0 1 0-.707ZM4.5 7a.5.5 0 0 1 .5.5v1a.5.5 0 0 1-1 0v-1a.5.5 0 0 1 .5-.5Zm2.147-1.354a.5.5 0 0 1 .707 0l.75.75a.5.5 0 0 1-.707.707l-.75-.75a.5.5 0 0 1 0-.707ZM13.501 2a.5.5 0 0 1 .5.5V6a.5.5 0 0 1-1 0V3h-3a.5.5 0 1 1 0-1h3.5Zm-8 2a.5.5 0 0 1 0 1H5v.5a.5.5 0 0 1-1 0v-1a.5.5 0 0 1 .5-.5h1Z"/></symbol>
  <symbol id="icon-large" fill="none" viewBox="0 0 24 24"><path fill="currentColor" d="M9.585 3c.398 0 .78.158 1.061.44l9.914 9.913c.281.281.44.663.44 1.06V19.5a1.5 1.5 0 0 1-1.5 1.5h-15A1.5 1.5 0 0 1 3 19.5v-15A1.5 1.5 0 0 1 4.5 3h5.085ZM4.5 4a.5.5 0 0 0-.5.5v15a.5.5 0 0 0 .5.5h15a.5.5 0 0 0 .5-.5v-5.086a.5.5 0 0 0-.147-.354L9.939 4.146A.502.502 0 0 0 9.585 4H4.5Zm2 12a.5.5 0 0 1 .5.5v.5h.5a.5.5 0 0 1 0 1h-1a.5.5 0 0 1-.5-.5v-1a.5.5 0 0 1 .5-.5Zm4.5 1a.5.5 0 0 1 0 1H9.5a.5.5 0 0 1 0-1H11Zm3.5 0a.5.5 0 0 1 0 1H13a.5.5 0 0 1 0-1h1.5Zm3-2a.5.5 0 0 1 .5.5v2a.5.5 0 0 1-.5.5h-1a.5.5 0 0 1 0-1h.5v-1.5a.5.5 0 0 1 .5-.5Zm-11-2.5a.5.5 0 0 1 .5.5v1.5a.5.5 0 0 1-1 0V13a.5.5 0 0 1 .5-.5Zm8.146.146a.5.5 0 0 1 .707 0l1 1a.5.5 0 1 1-.707.707l-1-1a.5.5 0 0 1 0-.707Zm-2.5-2.5a.5.5 0 0 1 .707 0l1 1a.5.5 0 1 1-.707.707l-1-1a.5.5 0 0 1 0-.707ZM6.5 9a.5.5 0 0 1 .5.5V11a.5.5 0 0 1-1 0V9.5a.5.5 0 0 1 .5-.5Zm14-8a.5.5 0 0 1 .5.5V3h1.5a.5.5 0 0 1 0 1H21v5.5a.5.5 0 1 1-1 0V4h-5.5a.5.5 0 0 1 0-1H20V1.5a.5.5 0 0 1 .5-.5ZM9.646 7.646a.5.5 0 0 1 .707 0l1 1a.5.5 0 1 1-.707.707l-1-1a.5.5 0 0 1 0-.707ZM8.5 6a.5.5 0 0 1 0 1H7v.5a.5.5 0 0 1-1 0v-1a.5.5 0 0 1 .5-.5h2Z"/></symbol>
  <use href="#icon"/>
</svg>
