<svg xmlns="http://www.w3.org/2000/svg">
  <symbol id="icon" fill="none" viewBox="0 0 16 16"><path fill="currentColor" d="M13.31 6.42a.5.5 0 0 1 .69.461v4.81a.5.5 0 0 1-.25.432l-4 2.31A.5.5 0 0 1 9 14V9.19a.5.5 0 0 1 .25-.433l4-2.308.06-.03Zm-11.06.029a.5.5 0 0 1 .5 0l4 2.308.055.037A.5.5 0 0 1 7 9.191V14a.5.5 0 0 1-.69.461l-.06-.029-4-2.31A.5.5 0 0 1 2 11.69V6.88l.005-.066a.5.5 0 0 1 .245-.366ZM3 11.4l3 1.732V9.48L3 7.746v3.655Zm7-1.922v3.654l3-1.732V7.746L10 9.48Zm-2.19-7.94a.5.5 0 0 1 .44.029l4.33 2.5.056.036a.5.5 0 0 1 0 .793l-.056.036-4.33 2.5a.5.5 0 0 1-.5 0l-4.33-2.5a.5.5 0 0 1 0-.865l4.33-2.5.06-.03ZM4.669 4.5 8 6.423 11.33 4.5 8 2.577 4.669 4.5Z"/></symbol>
  <symbol id="icon-large" fill="none" viewBox="0 0 24 24"><path fill="currentColor" d="M3.75 10.066a.5.5 0 0 1 .502.002l6 3.5.054.037A.5.5 0 0 1 10.5 14v7a.5.5 0 0 1-.752.432l-6-3.5A.5.5 0 0 1 3.5 17.5v-7a.5.5 0 0 1 .25-.434Zm15.998.002a.5.5 0 0 1 .752.432v7a.5.5 0 0 1-.248.432l-6 3.5A.5.5 0 0 1 13.5 21v-7a.5.5 0 0 1 .248-.432l6-3.5ZM4.5 17.213l5 2.916v-5.843l-5-2.916v5.843Zm10-2.927v5.843l5-2.916V11.37l-5 2.916ZM11.807 3.038a.5.5 0 0 1 .445.03l6 3.5.054.037a.5.5 0 0 1 0 .79l-.054.037-6 3.5a.5.5 0 0 1-.504 0l-6-3.5a.5.5 0 0 1 0-.864l6-3.5.06-.03ZM6.991 7 12 9.92 17.008 7 12 4.078 6.99 7Z"/></symbol>
  <use href="#icon"/>
</svg>
