<svg xmlns="http://www.w3.org/2000/svg">
  <symbol id="icon" fill="none" viewBox="0 0 16 16"><path fill="currentColor" d="M10.646 4.646a.5.5 0 0 1 .707.707L10.207 6.5l.646.646.064.078a.5.5 0 0 1-.062.627l-.62.627a4.5 4.5 0 1 1-2.705-2.71l.615-.62.076-.063a.501.501 0 0 1 .633.061l.646.647 1.146-1.147Zm-2.64 2.062a.5.5 0 0 1-.56.103 3.5 3.5 0 1 0 1.818 1.92l-.07-.166a.5.5 0 0 1 .1-.556l.5-.507-1.293-1.294-.494.5ZM14 5.5a.5.5 0 0 1 0 1h-1a.5.5 0 0 1 0-1h1Zm-.775-3.418a.5.5 0 0 1 .693.693l-.064.078-1 1a.5.5 0 1 1-.707-.707l1-1 .078-.064ZM10 1.5a.5.5 0 0 1 .5.5v1a.5.5 0 0 1-1 0V2a.5.5 0 0 1 .5-.5Z"/></symbol>
  <symbol id="icon-large" fill="none" viewBox="0 0 24 24"><path fill="currentColor" d="M16.224 7.082a.5.5 0 0 1 .694.693l-.065.078L15.207 9.5l1.146 1.146a.5.5 0 0 1 0 .707l-.91.91a7 7 0 1 1-3.707-3.707l.91-.91.078-.064a.5.5 0 0 1 .63.064L14.5 8.793l1.646-1.647.078-.064Zm-3.872 2.272-.155.155a.5.5 0 0 1-.498.123l-.073-.029a6 6 0 1 0 2.771 2.773.502.502 0 0 1 .092-.57l.153-.156.65-.65L13 8.707l-.648.647ZM21.5 7a.5.5 0 0 1 0 1h-2a.5.5 0 0 1 0-1h2Zm-1.354-3.854a.5.5 0 0 1 .707.707l-1.5 1.5a.5.5 0 0 1-.707-.707l1.5-1.5ZM16.5 2a.5.5 0 0 1 .5.5v2a.5.5 0 0 1-1 0v-2a.5.5 0 0 1 .5-.5Z"/></symbol>
  <use href="#icon"/>
</svg>
