<svg xmlns="http://www.w3.org/2000/svg">
  <symbol id="icon" fill="none" viewBox="0 0 16 16"><path fill="currentColor" d="M11.25 8.5a2.75 2.75 0 0 1 2.265 4.308l1.339 1.338.064.079a.5.5 0 0 1-.693.693l-.079-.064-1.338-1.34A2.75 2.75 0 1 1 11.25 8.5ZM7 8.5a.5.5 0 0 1 .5.5v4.5a.5.5 0 0 1-.5.5H3.5A1.5 1.5 0 0 1 2 12.5V9l.01-.1a.5.5 0 0 1 .49-.4H7Zm-4 4a.5.5 0 0 0 .5.5h3V9.5H3v3Zm8.25-3a1.75 1.75 0 1 0 0 3.5 1.75 1.75 0 0 0 0-3.5ZM7 2a.5.5 0 0 1 .5.5V7a.5.5 0 0 1-.5.5H2.5A.5.5 0 0 1 2 7V3.5A1.5 1.5 0 0 1 3.5 2H7Zm5.5 0A1.5 1.5 0 0 1 14 3.5V7a.5.5 0 0 1-.5.5H9a.5.5 0 0 1-.5-.5V2.5l.01-.1A.5.5 0 0 1 9 2h3.5Zm-9 1a.5.5 0 0 0-.5.5v3h3.5V3h-3Zm6 3.5H13v-3a.5.5 0 0 0-.5-.5h-3v3.5Z"/></symbol>
  <symbol id="icon-large" fill="none" viewBox="0 0 24 24"><path fill="currentColor" fill-rule="evenodd" d="M20 4.5a.5.5 0 0 0-.5-.5H14v6h6V4.5Zm1 6a.5.5 0 0 1-.5.5h-7a.5.5 0 0 1-.5-.5v-7l.01-.1a.5.5 0 0 1 .49-.4h6A1.5 1.5 0 0 1 21 4.5v6Zm-10 3a.5.5 0 0 0-.5-.5h-7a.5.5 0 0 0-.49.4l-.01.1v6A1.5 1.5 0 0 0 4.5 21h6a.5.5 0 0 0 .5-.5v-7ZM4.5 20a.5.5 0 0 1-.5-.5V14h6v6H4.5ZM20 17a3 3 0 1 0-6 0 3 3 0 0 0 6 0Zm1 0c0 .924-.314 1.776-.84 2.453l1.694 1.694a.5.5 0 1 1-.707.707l-1.694-1.694A4 4 0 1 1 21 17ZM11 3.5a.5.5 0 0 0-.5-.5h-6A1.5 1.5 0 0 0 3 4.5v6a.5.5 0 0 0 .5.5h7a.5.5 0 0 0 .5-.5v-7ZM10 10H4V4.5a.5.5 0 0 1 .5-.5H10v6Z" clip-rule="evenodd"/></symbol>
  <use href="#icon"/>
</svg>
