<svg xmlns="http://www.w3.org/2000/svg">
  <symbol id="icon" fill="none" viewBox="0 0 16 16"><path fill="currentColor" d="M8 1.5a.92.92 0 0 1 .357.083c.098.042.198.097.296.16.198.126.424.301.662.513a12.22 12.22 0 0 1 1.583 1.733C11.967 5.399 13 7.34 13 9.333c0 1.958-.675 3.279-1.685 4.097-.992.803-2.243 1.07-3.315 1.07s-2.322-.267-3.314-1.07C3.675 12.612 3 11.29 3 9.333c0-1.912.591-3.847 1.832-5.322l.102-.1a.701.701 0 0 1 .404-.162.835.835 0 0 1 .45.108c.197.108.384.29.507.41l.184.177a2.79 2.79 0 0 0 .235-.424c.13-.287.244-.616.347-.94.095-.304.193-.646.268-.871a2.57 2.57 0 0 1 .134-.337.84.84 0 0 1 .121-.182A.562.562 0 0 1 8 1.5Zm-.13 7.147a3.847 3.847 0 0 0-.592.649c-.417.569-.778 1.342-.778 2.204 0 .922.23 1.398.479 1.646.248.248.598.354 1.021.354.423 0 .773-.106 1.021-.354.249-.248.479-.724.479-1.646 0-.862-.361-1.635-.778-2.204a3.847 3.847 0 0 0-.592-.649 1.864 1.864 0 0 0-.13-.1c-.037.025-.08.058-.13.1Zm.144-5.267a9.471 9.471 0 0 1-.39 1.054c-.152.335-.35.684-.616.932a.68.68 0 0 1-.551.18.919.919 0 0 1-.392-.154c-.173-.114-.35-.293-.468-.408a4.929 4.929 0 0 0-.15-.14C4.481 6.086 4 7.699 4 9.333c0 1.708.576 2.722 1.314 3.32.126.101.258.191.395.272-.137-.397-.209-.872-.209-1.425 0-1.138.472-2.115.972-2.796a4.84 4.84 0 0 1 .752-.82c.116-.1.233-.185.343-.248A.89.89 0 0 1 8 7.5l.134.014c.127.027.235.084.299.122.11.063.227.149.343.248.235.198.501.478.752.82.5.68.972 1.658.972 2.796 0 .554-.072 1.028-.21 1.425.137-.08.27-.17.396-.272.738-.598 1.314-1.612 1.314-3.32 0-1.674-.884-3.4-1.898-4.74a11.238 11.238 0 0 0-1.449-1.588 5.18 5.18 0 0 0-.42-.336c-.062.196-.13.427-.22.71Z"/></symbol>
  <symbol id="icon-large" fill="none" viewBox="0 0 24 24"><path fill="currentColor" fill-rule="evenodd" d="M15.744 6.26C17.47 8.295 19 10.93 19 13.5c0 2.64-.837 4.5-2.096 5.701-.461.44-.987.8-1.56 1.077.428-.7.656-1.598.656-2.675 0-1.517-.84-2.906-1.685-3.883a8.687 8.687 0 0 0-1.253-1.197 4.355 4.355 0 0 0-.527-.352 1.827 1.827 0 0 0-.24-.111A.857.857 0 0 0 12 12a.857.857 0 0 0-.296.06c-.08.03-.16.068-.24.11a4.355 4.355 0 0 0-.526.353c-.379.29-.825.701-1.253 1.197C8.84 14.697 8 16.087 8 17.602c0 1.078.228 1.976.656 2.676a6.106 6.106 0 0 1-1.56-1.077C5.836 18 5 16.14 5 13.5c0-2.506 1.456-5.073 3.129-7.086.11.071.252.198.441.383l.056.054c.177.174.397.389.61.529.12.079.285.167.479.19a.768.768 0 0 0 .626-.204c.362-.337.643-.826.867-1.318.228-.5.416-1.052.574-1.553.072-.229.136-.44.194-.633.075-.246.14-.463.204-.652l.03-.088.008-.02c.041.022.088.046.137.076.247.145.563.366.926.657a18.659 18.659 0 0 1 2.463 2.426ZM12 22c2.102 0 4.11-.658 5.596-2.076C19.086 18.5 20 16.36 20 13.5c0-2.93-1.72-5.794-3.494-7.886a19.66 19.66 0 0 0-2.6-2.558 9.22 9.22 0 0 0-1.043-.74 3.33 3.33 0 0 0-.425-.216c-.123-.05-.279-.1-.438-.1a.59.59 0 0 0-.438.204 1.015 1.015 0 0 0-.145.218c-.067.13-.128.299-.186.47-.065.197-.14.446-.221.712-.059.192-.12.393-.182.59-.154.49-.328.995-.53 1.44-.174.381-.355.685-.537.892a4.784 4.784 0 0 1-.493-.445l-.002-.001c-.19-.186-.444-.433-.704-.574a1.002 1.002 0 0 0-.54-.133.81.81 0 0 0-.525.243l-.058.062C5.685 7.763 4 10.6 4 13.5c0 2.86.913 5 2.404 6.424C7.89 21.342 9.898 22 12 22Zm0-1c.899 0 1.633-.271 2.143-.793.51-.522.857-1.357.857-2.605 0-1.163-.66-2.325-1.44-3.229a7.693 7.693 0 0 0-1.106-1.056 3.34 3.34 0 0 0-.401-.27l-.04-.02-.013-.005-.012.005-.04.02a3.34 3.34 0 0 0-.402.27 7.725 7.725 0 0 0-1.106 1.056c-.78.904-1.44 2.066-1.44 3.23 0 1.247.347 2.082.857 2.604.51.521 1.244.793 2.143.793Z" clip-rule="evenodd"/></symbol>
  <use href="#icon"/>
</svg>
