<svg xmlns="http://www.w3.org/2000/svg">
  <symbol id="icon" fill="none" viewBox="0 0 16 16"><path fill="currentColor" d="M12.5 2A1.5 1.5 0 0 1 14 3.5v5a1.5 1.5 0 0 1-1.5 1.5H10v2.5A1.5 1.5 0 0 1 8.5 14h-5A1.5 1.5 0 0 1 2 12.5v-9A1.5 1.5 0 0 1 3.5 2h9Zm-9 1a.5.5 0 0 0-.5.5v9a.5.5 0 0 0 .5.5h5a.5.5 0 0 0 .5-.5v-3a.5.5 0 0 1 .5-.5h3a.5.5 0 0 0 .5-.5v-5a.5.5 0 0 0-.5-.5h-9Z" opacity=".48"/><path fill="currentColor" d="M11.6 4.01a.5.5 0 0 1 .4.49v3a.5.5 0 0 1-.5.5H8v3.5a.5.5 0 0 1-.5.5h-3a.5.5 0 0 1-.5-.5v-7l.01-.1A.5.5 0 0 1 4.5 4h7l.1.01ZM5 11h2V7.5a.5.5 0 0 1 .5-.5H11V5H5v6Z"/></symbol>
  <symbol id="icon-large" fill="none" viewBox="0 0 24 24"><path fill="currentColor" d="M19.5 3A1.5 1.5 0 0 1 21 4.5v7a1.5 1.5 0 0 1-1.5 1.5H13v6.5a1.5 1.5 0 0 1-1.5 1.5h-7A1.5 1.5 0 0 1 3 19.5v-15A1.5 1.5 0 0 1 4.5 3h15Zm-15 1a.5.5 0 0 0-.5.5v15a.5.5 0 0 0 .5.5h7a.5.5 0 0 0 .5-.5v-7a.5.5 0 0 1 .5-.5h7a.5.5 0 0 0 .5-.5v-7a.5.5 0 0 0-.5-.5h-15Z" opacity=".48"/><path fill="currentColor" d="M18.6 5.01a.5.5 0 0 1 .4.49v5a.5.5 0 0 1-.5.5H11v7.5a.5.5 0 0 1-.5.5h-5a.5.5 0 0 1-.5-.5v-13l.01-.1A.5.5 0 0 1 5.5 5h13l.1.01ZM6 18h4v-7.5a.5.5 0 0 1 .5-.5H18V6H6v12Z"/></symbol>
  <use href="#icon"/>
</svg>
