<svg xmlns="http://www.w3.org/2000/svg">
  <symbol id="icon" fill="none" viewBox="0 0 16 16"><path fill="currentColor" d="M13 2a.5.5 0 0 1 0 1h-.506c-.049 1.484-.464 3.044-1.633 4.13-.331.31-.723.621-1.158.87.435.249.827.56 1.158.87 1.169 1.086 1.584 2.646 1.633 4.13H13a.5.5 0 0 1 0 1h-.98l-.02.002L4 14H3a.5.5 0 0 1 0-1h.506c.049-1.484.464-3.044 1.633-4.13A6.39 6.39 0 0 1 6.296 8a6.39 6.39 0 0 1-1.157-.87C3.97 6.045 3.555 4.485 3.506 3H3a.5.5 0 0 1 0-1h10ZM4.61 12a7.08 7.08 0 0 0-.105 1h6.99a7.088 7.088 0 0 0-.106-1H4.61ZM8 8.5c-.735 0-1.502.47-2.18 1.102A3.763 3.763 0 0 0 4.89 11h6.218a3.76 3.76 0 0 0-.927-1.398C9.502 8.97 8.735 8.5 8 8.5ZM5.455 6c.11.141.231.275.364.398C6.498 7.03 7.265 7.5 8 7.5c.735 0 1.502-.47 2.18-1.102A3.44 3.44 0 0 0 10.546 6h-5.09Zm-.95-3c.027.708.147 1.39.387 2h6.216c.24-.61.36-1.292.386-2H4.506Z"/></symbol>
  <symbol id="icon-large" fill="none" viewBox="0 0 24 24"><path fill="currentColor" fill-rule="evenodd" d="M6 6.976V3h12v4H6v-.024ZM19 3v3.976a1.5 1.5 0 0 1-.646 1.233L12.878 12l5.476 3.791A1.5 1.5 0 0 1 19 17.024V21h1.5a.5.5 0 0 1 0 1h-17a.5.5 0 0 1 0-1H5v-3.976a1.5 1.5 0 0 1 .646-1.233L11.123 12 5.646 8.209A1.5 1.5 0 0 1 5 6.976V3H3.5a.5.5 0 0 1 0-1h17a.5.5 0 0 1 0 1H19ZM7.101 8h9.797l-4.614 3.195a.5.5 0 0 1-.568 0L7.1 8ZM18 17.024a.5.5 0 0 0-.216-.41l-5.5-3.81a.5.5 0 0 0-.568 0l-5.5 3.81a.5.5 0 0 0-.216.41V18h12v-.976ZM6 21v-2h12v2H6Z" clip-rule="evenodd"/></symbol>
  <use href="#icon"/>
</svg>
