<svg xmlns="http://www.w3.org/2000/svg">
  <symbol id="icon" fill="none" viewBox="0 0 16 16"><path fill="currentColor" fill-rule="evenodd" d="M12 10.5h1.296L11.5 12.294V11a.5.5 0 0 1 .5-.5ZM2.5 13h8v-2A1.5 1.5 0 0 1 12 9.5h2.005v-6a.5.5 0 0 0-.5-.5H2.5a.5.5 0 0 0-.5.5v9a.5.5 0 0 0 .5.5Zm12.505-3.415c0 .398-.159.78-.44 1.061l-2.919 2.915a1.5 1.5 0 0 1-1.06.439H2.5A1.5 1.5 0 0 1 1 12.5v-9A1.5 1.5 0 0 1 2.5 2h11.005a1.5 1.5 0 0 1 1.5 1.5v6.085ZM12 5.5a.5.5 0 0 0-.5-.5h-7a.5.5 0 1 0 0 1h7a.5.5 0 0 0 .5-.5Zm-.5 2a.5.5 0 0 1 0 1h-7a.5.5 0 1 1 0-1h7Zm-3.5 3a.5.5 0 0 0-.5-.5h-3a.5.5 0 0 0 0 1h3a.5.5 0 0 0 .5-.5Z" clip-rule="evenodd"/></symbol>
  <symbol id="icon-large" fill="none" viewBox="0 0 24 24"><path fill="currentColor" fill-rule="evenodd" d="M17.5 15h2.793L17 18.293V15.5a.5.5 0 0 1 .5-.5Zm-14 4H16v-3.5a1.5 1.5 0 0 1 1.5-1.5H21V5.5a.5.5 0 0 0-.5-.5h-17a.5.5 0 0 0-.5.5v13a.5.5 0 0 0 .5.5ZM22 14.086a1.5 1.5 0 0 1-.44 1.06l-4.413 4.415a1.5 1.5 0 0 1-1.061.439H3.5A1.5 1.5 0 0 1 2 18.5v-13A1.5 1.5 0 0 1 3.5 4h17A1.5 1.5 0 0 1 22 5.5v8.586ZM18 8.5a.5.5 0 0 0-.5-.5h-11a.5.5 0 0 0 0 1h11a.5.5 0 0 0 .5-.5Zm-.5 3a.5.5 0 0 1 0 1h-11a.5.5 0 0 1 0-1h11Zm-5.5 4a.5.5 0 0 0-.5-.5h-5a.5.5 0 0 0 0 1h5a.5.5 0 0 0 .5-.5Z" clip-rule="evenodd"/></symbol>
  <use href="#icon"/>
</svg>
