<svg xmlns="http://www.w3.org/2000/svg">
  <symbol id="icon" fill="none" viewBox="0 0 16 16"><path fill="currentColor" d="M13 1.5a1.5 1.5 0 0 1 .5 2.912v2.175A1.499 1.499 0 0 1 13 9.5l-.154-.008a1.5 1.5 0 0 1-1.26-.992H9.413a1.5 1.5 0 0 1-.913.912v2.175A1.499 1.499 0 0 1 8 14.5l-.154-.008a1.5 1.5 0 0 1-1.26-.992H4.413A1.5 1.5 0 0 1 3 14.5l-.154-.008a1.5 1.5 0 0 1-.346-2.905V11.5a.5.5 0 0 1 1 0v.087c.425.15.762.487.913.913h2.173c.151-.426.488-.762.914-.913V9.412A1.499 1.499 0 1 1 9.413 7.5h2.173c.151-.426.488-.762.913-.913V4.412a1.501 1.501 0 0 1-.913-.912H4.413a1.5 1.5 0 0 1-.913.912V4.5a.5.5 0 0 1-1 0v-.088A1.499 1.499 0 1 1 4.413 2.5h7.173A1.5 1.5 0 0 1 13 1.5Zm-10 11a.5.5 0 0 0 0 1l.1-.01a.5.5 0 0 0-.1-.99Zm5 0a.5.5 0 0 0 0 1l.1-.01a.5.5 0 0 0-.1-.99Zm-5-4a.5.5 0 0 1 .5.5v.5a.5.5 0 0 1-1 0V9a.5.5 0 0 1 .5-.5Zm5-1a.5.5 0 0 0 0 1l.1-.01A.5.5 0 0 0 8 7.5Zm5 0a.5.5 0 0 0 0 1l.1-.01a.5.5 0 0 0-.1-.99ZM3 6a.5.5 0 0 1 .5.5V7a.5.5 0 0 1-1 0v-.5A.5.5 0 0 1 3 6Zm0-3.5a.5.5 0 0 0 0 1l.1-.01A.5.5 0 0 0 3 2.5Zm10 0a.5.5 0 0 0 0 1l.1-.01a.5.5 0 0 0-.1-.99Z"/></symbol>
  <symbol id="icon-large" fill="none" viewBox="0 0 24 24"><path fill="currentColor" d="M19 3a2 2 0 0 1 2 2l-.01.204a2 2 0 0 1-1.49 1.73v3.13A2 2 0 0 1 21 12l-.01.205a2 2 0 0 1-3.924.295h-3.131a1.999 1.999 0 0 1-1.435 1.435v3.13A2 2 0 0 1 14 19l-.01.204a2 2 0 0 1-3.924.296H6.935A1.998 1.998 0 1 1 4.5 17.065v-1.066a.5.5 0 0 1 1 0v1.066a2 2 0 0 1 1.435 1.434h3.13a2 2 0 0 1 1.435-1.434v-3.13a1.999 1.999 0 1 1 2.435-2.436h3.13a2 2 0 0 1 1.435-1.434v-3.13A1.998 1.998 0 0 1 17.066 5.5H6.935A1.999 1.999 0 0 1 5.5 6.934V8a.5.5 0 0 1-1 0V6.934A1.999 1.999 0 1 1 6.935 4.5h10.13A2 2 0 0 1 19 3ZM5 18a1 1 0 1 0 1 1l-.005-.103A1.001 1.001 0 0 0 5 18Zm7 0a1 1 0 1 0 1 1l-.005-.103A1.001 1.001 0 0 0 12 18Zm-7-5.5a.5.5 0 0 1 .5.5v1a.5.5 0 0 1-1 0v-1a.5.5 0 0 1 .5-.5Zm7-1.5a1 1 0 1 0 1 1l-.005-.103a1.001 1.001 0 0 0-.995-.898Zm7 0a1 1 0 1 0 1 1l-.005-.103a1.001 1.001 0 0 0-.995-.898ZM5 9.5a.5.5 0 0 1 .5.5v1a.5.5 0 0 1-1 0v-1a.5.5 0 0 1 .5-.5ZM5 4a1 1 0 1 0 1 1l-.005-.103A1.001 1.001 0 0 0 5 4Zm14 0a1 1 0 1 0 1 1l-.005-.103A1.001 1.001 0 0 0 19 4Z"/></symbol>
  <use href="#icon"/>
</svg>
