<svg xmlns="http://www.w3.org/2000/svg">
  <symbol id="icon" fill="none" viewBox="0 0 16 16"><path fill="currentColor" d="M12.5 2a1.5 1.5 0 1 1-.646 2.852l-7.002 7.002a1.5 1.5 0 1 1-.707-.707l7.003-7.002A1.5 1.5 0 0 1 12.5 2Zm-9 10a.5.5 0 1 0 0 1 .5.5 0 0 0 0-1Zm9-9a.5.5 0 1 0 0 1 .5.5 0 0 0 0-1Z"/></symbol>
  <symbol id="icon-large" fill="none" viewBox="0 0 24 24"><path fill="currentColor" fill-rule="evenodd" d="M21 4a1 1 0 1 0-2 0 1 1 0 0 0 2 0Zm1 0a2 2 0 1 1-4 0 2 2 0 0 1 4 0Zm-3.646 2.354-12 12-.708-.707 12-12 .707.707ZM4 19a1 1 0 1 1 0 2 1 1 0 0 1 0-2Zm0 3a2 2 0 1 0 0-4 2 2 0 0 0 0 4Z" clip-rule="evenodd"/></symbol>
  <use href="#icon"/>
</svg>
