<svg xmlns="http://www.w3.org/2000/svg">
  <symbol id="icon" fill="none" viewBox="0 0 16 16"><path fill="currentColor" d="M7.998 1.5a5.5 5.5 0 0 1 5.5 5.5c0 2.686-1.348 4.562-2.665 5.747a10.353 10.353 0 0 1-2.407 1.61 6.19 6.19 0 0 1-.173.079l-.049.02-.014.006h-.003l-.002.002L7.998 14l.186.464a.5.5 0 0 1-.371 0L7.997 14l-.186.464-.002-.001-.004-.001-.014-.006-.049-.02a9.072 9.072 0 0 1-.772-.392 10.354 10.354 0 0 1-1.808-1.297C3.846 11.562 2.498 9.686 2.498 7a5.5 5.5 0 0 1 5.5-5.5Zm0 1a4.5 4.5 0 0 0-4.5 4.5c0 2.314 1.152 3.938 2.335 5.003.592.532 1.184.92 1.63 1.172.222.126.406.217.533.277H8c.127-.06.311-.151.533-.277a9.382 9.382 0 0 0 1.63-1.172c1.183-1.065 2.335-2.689 2.335-5.003a4.5 4.5 0 0 0-4.5-4.5Zm0 2a2.5 2.5 0 1 1 0 5 2.5 2.5 0 0 1 0-5Zm0 1a1.5 1.5 0 1 0 0 3 1.5 1.5 0 0 0 0-3Z"/></symbol>
  <symbol id="icon-large" fill="none" viewBox="0 0 24 24"><path fill="currentColor" fill-rule="evenodd" d="M12 3c3.87 0 7 3.03 7 7 0 2.415-1.222 4.731-2.712 6.648-1.483 1.907-3.184 3.36-4.038 4.035a.395.395 0 0 1-.5 0c-.854-.676-2.555-2.128-4.038-4.035C6.222 14.73 5 12.415 5 10c0-3.97 3.13-7 7-7Zm5.077 14.262C18.622 15.274 20 12.74 20 10c0-4.53-3.586-8-8-8s-8 3.47-8 8c0 2.74 1.378 5.274 2.923 7.262 1.552 1.996 3.32 3.504 4.207 4.205a1.393 1.393 0 0 0 1.74 0c.886-.7 2.655-2.209 4.207-4.205ZM11.997 8a2 2 0 1 1 0 4 2 2 0 0 1 0-4Zm0 5a3 3 0 1 0 0-6 3 3 0 0 0 0 6Z" clip-rule="evenodd"/></symbol>
  <use href="#icon"/>
</svg>
