<svg xmlns="http://www.w3.org/2000/svg">
  <symbol id="icon" fill="none" viewBox="0 0 16 16"><path fill="currentColor" d="M10.5 3.5a4.5 4.5 0 0 1 0 9h-.793l1.146 1.146.065.078a.5.5 0 0 1-.693.694l-.079-.065-2-2a.5.5 0 0 1 0-.707l2-2a.5.5 0 0 1 .707.707l-1.146 1.146h.793a3.5 3.5 0 1 0 0-7 .5.5 0 0 1 0-1ZM5.146 1.646a.501.501 0 0 1 .63-.064l.078.064 2 2a.5.5 0 0 1 0 .707l-2 2a.5.5 0 1 1-.708-.707L6.293 4.5H5.5a3.5 3.5 0 0 0 0 7 .5.5 0 0 1 0 1 4.5 4.5 0 1 1 0-9h.793L5.146 2.353l-.064-.078a.5.5 0 0 1 .064-.629Z"/></symbol>
  <symbol id="icon-large" fill="none" viewBox="0 0 24 24"><path fill="currentColor" fill-rule="evenodd" d="M12.854 1.146a.5.5 0 1 0-.707.708L14.293 4H3.5A1.5 1.5 0 0 0 2 5.5v13A1.5 1.5 0 0 0 3.5 20H6v-1H3.5a.5.5 0 0 1-.5-.5v-13a.5.5 0 0 1 .5-.5h10.793l-2.146 2.146a.5.5 0 1 0 .707.708l3-3a.5.5 0 0 0 0-.708l-3-3ZM21 18.5v-13a.5.5 0 0 0-.5-.5H18V4h2.5A1.5 1.5 0 0 1 22 5.5v13a1.5 1.5 0 0 1-1.5 1.5H9.707l2.146 2.146a.5.5 0 1 1-.707.707l-3-3a.5.5 0 0 1 0-.707l3-3a.5.5 0 1 1 .707.707L9.707 19H20.5a.5.5 0 0 0 .5-.5Z" clip-rule="evenodd"/></symbol>
  <use href="#icon"/>
</svg>
