<svg xmlns="http://www.w3.org/2000/svg">
  <symbol id="icon" fill="none" viewBox="0 0 16 16"><path fill="currentColor" d="M12.5 2A1.5 1.5 0 0 1 14 3.5v9a1.5 1.5 0 0 1-1.5 1.5h-9A1.5 1.5 0 0 1 2 12.5v-9A1.5 1.5 0 0 1 3.5 2h9Zm-9 1a.5.5 0 0 0-.5.5v9a.5.5 0 0 0 .5.5h1.793L13 5.293V3.5a.5.5 0 0 0-.5-.5h-9Zm3.207 10h5.586L9.5 10.207 6.707 13Zm3.5-3.5L13 12.293V6.707L10.207 9.5ZM6.5 4c.634 0 1.213.236 1.653.625L7.823 5l-.33.375A1.5 1.5 0 1 0 7.912 7H6.5V6H9v.5A2.5 2.5 0 1 1 6.5 4Z"/></symbol>
  <symbol id="icon-large" fill="none" viewBox="0 0 24 24"><path fill="currentColor" fill-rule="evenodd" d="M21.61 2.065C22.427 2.773 23 3.88 23 5.5c0 .76-.273 1.583-.72 2.411-.446.824-1.046 1.621-1.657 2.323a21.563 21.563 0 0 1-2.097 2.088l-.026.022-.026-.022c-.115-.1-.258-.223-.417-.37-.46-.42-1.07-1.017-1.68-1.718-.61-.702-1.21-1.499-1.656-2.323C14.273 7.083 14 6.261 14 5.5c0-1.62.573-2.727 1.39-3.435C16.218 1.347 17.344 1 18.5 1s2.282.347 3.11 1.065Zm1.548 6.32C23.648 7.48 24 6.49 24 5.5c0-1.88-.677-3.273-1.735-4.19C21.218.403 19.844 0 18.5 0c-1.344 0-2.718.403-3.765 1.31A4.78 4.78 0 0 0 13.49 3H4.5A1.5 1.5 0 0 0 3 4.5v15A1.5 1.5 0 0 0 4.5 21h15a1.5 1.5 0 0 0 1.5-1.5v-8.188c.125-.136.25-.276.377-.421.64-.736 1.29-1.595 1.781-2.505ZM20 12.333a23.578 23.578 0 0 1-.96.87 11.7 11.7 0 0 1-.162.135l-.004.003-.023.02-.022.017-.012.01-.003.003h-.002a.5.5 0 0 1-.552.048l-.073-.047v-.001l-.004-.003-.012-.01-.022-.018-.023-.02-.004-.002a21.028 21.028 0 0 1-.741-.648 22.62 22.62 0 0 1-1.758-1.798 17.33 17.33 0 0 1-.808-1L12.707 12 20 19.293v-6.961Zm-5.763-3.276L4 19.293V4.5a.5.5 0 0 1 .5-.5h8.66c-.104.46-.16.96-.16 1.5 0 .99.352 1.98.842 2.886.122.227.255.45.395.67ZM12 12.707 19.293 20H4.707L12 12.707ZM10 7.5V7H7.5v1h1.413a1.5 1.5 0 1 1-.42-1.625l.66-.75A2.5 2.5 0 1 0 10 7.5Zm10-2a1.5 1.5 0 1 0-3 0 1.5 1.5 0 0 0 3 0Zm1 0a2.5 2.5 0 1 1-5 0 2.5 2.5 0 0 1 5 0Z" clip-rule="evenodd"/></symbol>
  <use href="#icon"/>
</svg>
