<svg xmlns="http://www.w3.org/2000/svg">
  <symbol id="icon" fill="none" viewBox="0 0 16 16"><path fill="currentColor" d="M2.5 2a.5.5 0 0 1 .5.5C3 8.299 7.702 13 13.5 13a.5.5 0 0 1 0 1C7.15 14 2 8.85 2 2.5a.5.5 0 0 1 .5-.5Zm9.147 5.646a.501.501 0 0 1 .629-.064l.078.064 1.5 1.5.065.078c.11.167.11.385 0 .551l-.065.078-1.5 1.5a.5.5 0 0 1-.707-.707l.68-.68a6.98 6.98 0 0 1-.918-.15c-.318-.074-.453-.439-.286-.719a.54.54 0 0 1 .583-.239 6 6 0 0 0 .536.09l-.595-.595-.065-.078a.5.5 0 0 1 .065-.629Zm-2.848.261a.535.535 0 0 1 .692-.042c.133.096.27.188.412.273a.533.533 0 0 1 .196.724.471.471 0 0 1-.64.175 7.013 7.013 0 0 1-.62-.41.475.475 0 0 1-.04-.72ZM7.137 5.9c.25-.15.573-.052.724.197.085.141.177.279.273.412a.535.535 0 0 1-.04.691.475.475 0 0 1-.72-.04 7.003 7.003 0 0 1-.412-.618.472.472 0 0 1 .175-.642Zm-.912-3.818a.501.501 0 0 1 .629.064l1.5 1.5.064.078a.501.501 0 0 1-.693.694l-.078-.065-.597-.596c.023.181.052.36.091.537a.54.54 0 0 1-.24.582c-.28.167-.644.032-.718-.285a6.982 6.982 0 0 1-.15-.918l-.679.68a.5.5 0 0 1-.707-.707l1.5-1.5.078-.064Z"/></symbol>
  <symbol id="icon-large" fill="none" viewBox="0 0 24 24"><path fill="currentColor" d="M3.5 3a.5.5 0 0 1 .5.5v1C4 13.06 10.94 20 19.5 20h1a.5.5 0 0 1 0 1h-1C10.387 21 3 13.613 3 4.5v-1a.5.5 0 0 1 .5-.5Zm14.647 10.146a.5.5 0 0 1 .629-.064l.078.064 2 2a.5.5 0 0 1 0 .707l-2 2a.5.5 0 1 1-.707-.707l1.168-1.168a12.062 12.062 0 0 1-1.439-.168.486.486 0 0 1-.373-.623.52.52 0 0 1 .59-.355c.384.068.776.114 1.173.14l-1.12-1.118-.064-.079a.5.5 0 0 1 .065-.629Zm-2.898 1.292a.518.518 0 0 1 .654-.229c.1.04.2.079.301.116a.52.52 0 0 1 .325.633.484.484 0 0 1-.627.322 9.33 9.33 0 0 1-.414-.16.486.486 0 0 1-.239-.681Zm-2.058-1.203a.52.52 0 0 1 .691-.095c.092.061.185.122.278.18.23.144.317.44.19.68a.485.485 0 0 1-.683.191c-.128-.08-.255-.16-.38-.245a.485.485 0 0 1-.096-.71Zm-1.767-1.605a.519.519 0 0 1 .7.046c.077.08.156.158.237.235a.518.518 0 0 1 .048.7.485.485 0 0 1-.71.05c-.11-.105-.217-.211-.323-.32a.484.484 0 0 1 .048-.711Zm-1.398-1.935a.518.518 0 0 1 .68.187c.06.093.12.186.181.277a.522.522 0 0 1-.093.694.485.485 0 0 1-.71-.094 11.955 11.955 0 0 1-.248-.38.486.486 0 0 1 .19-.684Zm-.968-2.174a.52.52 0 0 1 .634.32c.037.102.077.204.118.304.1.245.005.529-.228.654a.486.486 0 0 1-.681-.236c-.057-.136-.11-.275-.162-.415a.484.484 0 0 1 .319-.627Zm-.833-4.439a.5.5 0 0 1 .629.065l2 2 .064.078a.5.5 0 0 1-.693.693l-.078-.064-1.121-1.122c.027.415.077.823.15 1.223a.518.518 0 0 1-.353.59.484.484 0 0 1-.623-.368c-.09-.488-.15-.985-.18-1.491L6.855 5.854a.5.5 0 0 1-.707-.707l2-2 .078-.065Z"/></symbol>
  <use href="#icon"/>
</svg>
