<svg xmlns="http://www.w3.org/2000/svg">
  <symbol id="icon" fill="none" viewBox="0 0 16 16"><path fill="currentColor" d="M8 1.5a1.5 1.5 0 0 1 1.478 1.748l2.03 1.128A1.5 1.5 0 1 1 13 6.912v2.174a1.5 1.5 0 1 1-1.492 2.537l-2.03 1.128a1.5 1.5 0 1 1-2.956 0l-2.03-1.128A1.5 1.5 0 1 1 3 9.086V6.912a1.499 1.499 0 1 1 1.49-2.536l2.03-1.128A1.5 1.5 0 0 1 8 1.5Zm0 11a.5.5 0 1 0 0 1 .5.5 0 0 0 0-1Zm-3.022-2.249c.013.081.022.164.022.25 0 .084-.009.167-.022.247l2.03 1.128c.142-.126.309-.225.492-.29V9.412a1.496 1.496 0 0 1-.492-.289l-2.03 1.128ZM8.99 9.123a1.495 1.495 0 0 1-.491.29v2.173c.183.065.349.164.491.29l2.03-1.128a1.502 1.502 0 0 1 0-.497L8.99 9.123ZM3.5 10a.5.5 0 1 0 0 1 .5.5 0 0 0 0-1Zm9 0a.5.5 0 1 0 0 1 .5.5 0 0 0 0-1ZM4.491 6.623a1.495 1.495 0 0 1-.491.29v2.173c.183.065.349.164.491.29l2.03-1.128a1.509 1.509 0 0 1 0-.497l-2.03-1.128Zm4.987 1.128c.013.081.022.164.022.25 0 .084-.009.167-.022.247l2.03 1.128c.142-.126.309-.225.492-.29V6.912a1.496 1.496 0 0 1-.492-.289l-2.03 1.128ZM8 7.501a.5.5 0 1 0 0 1 .5.5 0 0 0 0-1ZM4.978 5.25c.013.081.022.164.022.25 0 .084-.009.167-.022.247l2.03 1.128c.142-.126.309-.225.492-.29V4.412a1.496 1.496 0 0 1-.492-.289l-2.03 1.128ZM8.99 4.123a1.495 1.495 0 0 1-.491.29v2.173c.183.065.349.164.491.29l2.03-1.128a1.502 1.502 0 0 1 0-.497L8.99 4.123ZM3.5 5a.5.5 0 1 0 0 1 .5.5 0 0 0 0-1Zm9 0a.5.5 0 1 0 0 1 .5.5 0 0 0 0-1ZM8 2.5a.5.5 0 1 0 0 1 .5.5 0 0 0 0-1Z"/></symbol>
  <symbol id="icon-large" fill="none" viewBox="0 0 24 24"><path fill="currentColor" d="M12 2a2 2 0 0 1 2 2l-.011.204c-.011.11-.033.217-.062.321l3.64 2.08A2 2 0 0 1 21 8l-.011.204a1.999 1.999 0 0 1-1.49 1.73v4.131A1.999 1.999 0 0 1 21 16l-.01.204a2 2 0 0 1-3.422 1.19l-3.64 2.08c.046.168.073.344.073.526l-.011.204a2 2 0 1 1-3.918-.73l-3.64-2.08a2 2 0 1 1-1.93-3.33v-4.13a2 2 0 1 1 1.93-3.329l3.641-2.08A2 2 0 0 1 12 2Zm0 17h-.007A1 1 0 1 0 13 20l-.005-.103a1 1 0 0 0-.99-.897H12Zm-4.892-3.402-.092.044c-.016.006-.032.008-.048.012.02.112.032.228.032.346l-.011.204c-.011.11-.033.218-.062.322l3.64 2.08c.252-.26.573-.448.933-.54v-4.132a1.994 1.994 0 0 1-.886-.494l-3.506 2.158Zm6.276-2.159a1.99 1.99 0 0 1-.884.495v4.131c.36.093.68.282.931.54l3.641-2.08a2.002 2.002 0 0 1-.041-.871c-.016-.004-.032-.006-.048-.012l-.092-.044-3.506-2.159ZM5 15.001 4.993 15A1 1 0 1 0 6 16l-.005-.103A1 1 0 0 0 5.007 15H5Zm14 0L18.993 15A1 1 0 1 0 20 16l-.005-.103a1 1 0 0 0-.99-.897H19Zm-1.584-5.746L13.91 11.41c.057.186.089.384.089.589l-.011.204a1.88 1.88 0 0 1-.08.385l3.507 2.158.016.012c.267-.336.64-.584 1.068-.694v-4.13a2.006 2.006 0 0 1-1.067-.694l-.017.014ZM6.566 9.24a1.995 1.995 0 0 1-1.066.693v4.131c.428.11.8.357 1.066.693l.018-.011 3.504-2.158a2.005 2.005 0 0 1 0-1.178L6.584 9.255l-.019-.014ZM12 11h-.007a1 1 0 0 0-.818.434c-.008.015-.013.031-.022.045a.44.44 0 0 1-.031.041.996.996 0 0 0 .006.968c.008.011.018.021.025.033.008.014.014.029.02.043a.999.999 0 0 0 1.652 0c.007-.015.013-.03.021-.043l.03-.04A.995.995 0 0 0 13 12l-.005-.103a.99.99 0 0 0-.123-.385c-.008-.01-.018-.02-.026-.033-.007-.013-.012-.027-.02-.04a.999.999 0 0 0-.82-.44l-.006.002ZM6.927 7.474C6.973 7.642 7 7.818 7 8l-.011.204a2.175 2.175 0 0 1-.021.141c.016.004.032.008.048.014l.092.044 3.505 2.157c.244-.235.548-.408.887-.495v-4.13a1.995 1.995 0 0 1-.933-.54l-3.64 2.08Zm6.503-2.08a1.99 1.99 0 0 1-.93.54v4.131a2 2 0 0 1 .886.495l3.505-2.157.092-.044c.016-.006.033-.01.049-.014A2.01 2.01 0 0 1 17 8c0-.182.026-.358.071-.526l-3.64-2.08ZM5 7a1 1 0 1 0 1 1l-.005-.103A1 1 0 0 0 5 7Zm14 0a1 1 0 1 0 1 1l-.005-.103A1 1 0 0 0 19 7Zm-7-4a1 1 0 1 0 1 1l-.005-.103A1 1 0 0 0 12 3Z"/></symbol>
  <use href="#icon"/>
</svg>
