<svg xmlns="http://www.w3.org/2000/svg">
  <symbol id="icon" fill="none" viewBox="0 0 16 16"><path fill="currentColor" d="M7.428 2.267a1.501 1.501 0 0 1 1.322.088l4.5 2.599.165.11c.366.282.585.72.585 1.189v3.494a1.5 1.5 0 0 1-.75 1.299l-4.5 2.598a1.5 1.5 0 0 1-1.5 0l-4.5-2.598a1.5 1.5 0 0 1-.75-1.3V6.254a1.5 1.5 0 0 1 .75-1.3l4.5-2.598.178-.088ZM3 9.747l.005.066c.02.152.11.29.245.367l4.25 2.453V9.14L3 6.541v3.206Zm5.5-.608v3.494l4.25-2.453a.5.5 0 0 0 .25-.433V6.54L8.5 9.139ZM6.312 7.3 8 8.274 9.686 7.3 8 6.326l-1.688.973ZM3.498 5.675l1.814 1.047L7 5.75 5.184 4.7l-1.686.974Zm5.5.075 1.687.972 1.816-1.047-1.687-.973L9 5.75ZM8.25 3.22a.5.5 0 0 0-.44-.029l-.06.03-1.566.902L8 5.172l1.814-1.047L8.25 3.22Z"/></symbol>
  <symbol id="icon-large" fill="none" viewBox="0 0 24 24"><path fill="currentColor" d="M11.467 3.23c.4-.153.851-.128 1.235.075l7.5 3.971.175.108c.388.28.623.732.623 1.218v6.795a1.5 1.5 0 0 1-.798 1.326l-7.5 3.971a1.5 1.5 0 0 1-1.235.076l-.17-.076-7.5-3.97A1.5 1.5 0 0 1 3 15.396V8.602c0-.555.307-1.066.798-1.326l7.5-3.97.169-.077ZM4 15.396a.5.5 0 0 0 .266.442l7.234 3.83V12.78a1.495 1.495 0 0 1-.202-.086L4 8.83v6.567Zm8.702-2.703a1.49 1.49 0 0 1-.202.086v6.889l7.234-3.83a.501.501 0 0 0 .266-.442V8.83l-7.298 3.864Zm-2.552-1.74 1.616.856a.502.502 0 0 0 .468 0l1.615-.855L12 9.976l-1.85.979Zm-2.666-1.41 1.599.845 1.849-.978-1.599-.846-1.849.979Zm5.583-.133 1.849.978 1.599-.845-1.849-.979-1.599.846ZM4.567 8l1.849.978L8.265 8l-1.849-.98L4.567 8Zm11.167 0 1.849.978L19.432 8l-1.849-.98-1.849.98Zm-5.333 0L12 8.845 13.598 8 12 7.153 10.401 8ZM7.484 6.455l1.849.978 1.599-.845-1.849-.979-1.599.846Zm5.583.133 1.599.845 1.849-.978-1.599-.846-1.849.979Zm-.833-2.399a.502.502 0 0 0-.412-.025l-.056.025-1.615.855L12 6.022l1.848-.978-1.614-.855Z"/></symbol>
  <use href="#icon"/>
</svg>
