<svg xmlns="http://www.w3.org/2000/svg">
  <symbol id="icon" fill="none" viewBox="0 0 16 16"><path fill="currentColor" fill-rule="evenodd" d="M14 10.5a.5.5 0 0 1-.5.5H9v1h4.5a1.5 1.5 0 0 0 1.5-1.5v-7A1.5 1.5 0 0 0 13.5 2h-11A1.5 1.5 0 0 0 1 3.5V8h1V3.5a.5.5 0 0 1 .5-.5h11a.5.5 0 0 1 .5.5v7ZM2 13v-3h5v3H2Zm5 1a1 1 0 0 0 1-1v-3a1 1 0 0 0-1-1H2a1 1 0 0 0-1 1v3a1 1 0 0 0 1 1h5Zm2-9a.5.5 0 0 1 1 0v1.293l2.146-2.147a.5.5 0 1 1 .707.708L10.707 7H12a.5.5 0 0 1 0 1H9.5a.5.5 0 0 1-.5-.5V5Z" clip-rule="evenodd"/></symbol>
  <symbol id="icon-large" fill="none" viewBox="0 0 24 24"><path fill="currentColor" fill-rule="evenodd" d="M20.5 4a.5.5 0 0 1 .5.5v11a.5.5 0 0 1-.5.5H15v1h5.5a1.5 1.5 0 0 0 1.5-1.5v-11A1.5 1.5 0 0 0 20.5 3h-16A1.5 1.5 0 0 0 3 4.5V10h1V4.5a.5.5 0 0 1 .5-.5h16Zm-9 9a.5.5 0 0 1 .5.5v6a.5.5 0 0 1-.5.5h-8a.5.5 0 0 1-.5-.5v-6a.5.5 0 0 1 .5-.5h8Zm0 8a1.5 1.5 0 0 0 1.5-1.5v-6a1.5 1.5 0 0 0-1.5-1.5h-8A1.5 1.5 0 0 0 2 13.5v6A1.5 1.5 0 0 0 3.5 21h8ZM14 7.5a.5.5 0 0 1 1 0v1.793l3.146-3.147a.5.5 0 1 1 .707.708L15.707 10H17.5a.5.5 0 0 1 0 1h-3a.5.5 0 0 1-.5-.5v-3Z" clip-rule="evenodd"/></symbol>
  <use href="#icon"/>
</svg>
