<svg xmlns="http://www.w3.org/2000/svg">
  <symbol id="icon" fill="none" viewBox="0 0 16 16"><path fill="currentColor" d="M13.5 2a.5.5 0 0 1 .5.5v6a.5.5 0 0 1-.5.5A4.5 4.5 0 0 0 9 13.5a.5.5 0 0 1-.5.5h-6a.5.5 0 0 1-.5-.5C2 7.149 7.149 2 13.5 2ZM3.617 9.946A10.48 10.48 0 0 0 3.013 13h5.01c.036-.392.11-.772.223-1.136L3.617 9.946Zm2.112-3.51a10.517 10.517 0 0 0-1.728 2.587l4.63 1.918c.18-.343.396-.665.642-.96L5.73 6.436Zm3.294-2.435a10.517 10.517 0 0 0-2.586 1.728L9.98 9.273a5.57 5.57 0 0 1 .961-.642L9.023 4ZM13 3.011c-1.067.05-2.093.26-3.054.606l1.918 4.63A5.477 5.477 0 0 1 13 8.022v-5.01Z"/></symbol>
  <symbol id="icon-large" fill="none" viewBox="0 0 24 24"><path fill="currentColor" d="M20.6 3.01a.5.5 0 0 1 .4.49v8a.5.5 0 0 1-.5.5 8.5 8.5 0 0 0-8.5 8.5.5.5 0 0 1-.5.5h-8a.5.5 0 0 1-.5-.5C3 10.835 10.835 3 20.5 3l.1.01ZM4.887 15.158A16.456 16.456 0 0 0 4.009 20h7.005a9.473 9.473 0 0 1 .362-2.152l-6.49-2.69Zm3.6-5.966a16.513 16.513 0 0 0-3.25 5.03l6.471 2.68a9.5 9.5 0 0 1 1.732-2.756L8.486 9.192Zm5.736-3.957a16.512 16.512 0 0 0-5.03 3.25l4.954 4.954a9.501 9.501 0 0 1 2.756-1.733l-2.68-6.47ZM20 4.008c-1.69.05-3.316.355-4.84.877l2.688 6.49A9.473 9.473 0 0 1 20 11.013V4.008Z"/></symbol>
  <use href="#icon"/>
</svg>
