<svg xmlns="http://www.w3.org/2000/svg">
  <symbol id="icon" fill="none" viewBox="0 0 16 16"><path fill="currentColor" d="M13.5 2a.5.5 0 0 1 0 1C7.701 3 3 7.701 3 13.5a.5.5 0 0 1-1 0C2 7.149 7.149 2 13.5 2Zm0 6a.5.5 0 0 1 0 1A4.5 4.5 0 0 0 9 13.5a.5.5 0 0 1-1 0A5.5 5.5 0 0 1 13.5 8Zm-8.356 3.487a.477.477 0 0 1 .66-.34.53.53 0 0 1 .31.59C6.04 12.147 6 12.57 6 13a.5.5 0 0 1-1 0c0-.517.05-1.023.144-1.513Zm1.518-3.366a.477.477 0 0 1 .717-.034.53.53 0 0 1 .037.693 7 7 0 0 0-.693 1.121.53.53 0 0 1-.671.266.476.476 0 0 1-.257-.645c.24-.498.532-.967.867-1.4Zm2.86-2.326a.476.476 0 0 1 .644.258.529.529 0 0 1-.266.67c-.395.196-.77.429-1.119.693a.531.531 0 0 1-.695-.036.479.479 0 0 1 .035-.72 8.001 8.001 0 0 1 1.4-.865ZM13 5a.5.5 0 0 1 0 1c-.431 0-.853.04-1.263.115a.532.532 0 0 1-.59-.31.479.479 0 0 1 .34-.661C11.977 5.05 12.483 5 13 5Z"/></symbol>
  <symbol id="icon-large" fill="none" viewBox="0 0 24 24"><path fill="currentColor" d="M20.5 3a.5.5 0 0 1 0 1C11.387 4 4 11.387 4 20.5a.5.5 0 0 1-1 0C3 10.835 10.835 3 20.5 3Zm0 8a.5.5 0 0 1 0 1 8.5 8.5 0 0 0-8.5 8.5.5.5 0 0 1-1 0 9.5 9.5 0 0 1 9.5-9.5ZM7.373 17.335a.487.487 0 0 1 .664-.33.518.518 0 0 1 .3.6A12.503 12.503 0 0 0 8.01 20a.516.516 0 0 1-.51.5.486.486 0 0 1-.491-.5c.033-.914.158-1.806.364-2.665Zm2.556-5.233a.486.486 0 0 1 .725-.033c.185.185.196.48.034.685a12.51 12.51 0 0 0-1.346 2.106.517.517 0 0 1-.655.25.486.486 0 0 1-.255-.666 13.52 13.52 0 0 1 1.497-2.342Zm4.515-3.67a.486.486 0 0 1 .666.255.517.517 0 0 1-.25.655 12.51 12.51 0 0 0-2.106 1.346.516.516 0 0 1-.685-.034.486.486 0 0 1 .033-.725 13.517 13.517 0 0 1 2.342-1.497ZM20 7.009c.276-.01.5.215.5.491a.516.516 0 0 1-.5.51c-.821.032-1.622.144-2.395.327a.518.518 0 0 1-.6-.3.487.487 0 0 1 .33-.664c.86-.206 1.75-.33 2.665-.364Z"/></symbol>
  <use href="#icon"/>
</svg>
