<svg xmlns="http://www.w3.org/2000/svg">
  <symbol id="icon" fill="none" viewBox="0 0 16 16"><path fill="currentColor" d="M7.933 2.517a1.5 1.5 0 0 1 2.402-.39l3.537 3.538a1.5 1.5 0 0 1-.39 2.402l-2.311 1.156a.501.501 0 0 0-.269.358l-.57 3.13c-.216 1.19-1.68 1.648-2.535.793L5.5 11.207l-3.147 3.146-.707-.707L4.793 10.5 2.496 8.203c-.855-.856-.398-2.32.792-2.536l3.13-.57a.5.5 0 0 0 .358-.268l1.157-2.312Zm1.695.318a.5.5 0 0 0-.8.13L7.67 5.276a1.5 1.5 0 0 1-1.073.805l-3.131.57a.5.5 0 0 0-.264.845l5.3 5.3a.5.5 0 0 0 .847-.263l.569-3.13a1.5 1.5 0 0 1 .805-1.074l2.311-1.156a.5.5 0 0 0 .13-.801L9.628 2.835Z"/></symbol>
  <symbol id="icon-large" fill="none" viewBox="0 0 24 24"><path fill="currentColor" fill-rule="evenodd" d="M15.799 2.592a1.5 1.5 0 0 0-2.378.341L11.264 6.89a.501.501 0 0 1-.305.243L4.018 9.059a1.5 1.5 0 0 0-.66 2.506l4.185 4.185-4.897 4.896.707.707 4.897-4.896 4.184 4.184a1.5 1.5 0 0 0 2.506-.659l1.928-6.941a.502.502 0 0 1 .243-.305l3.955-2.157a1.5 1.5 0 0 0 .342-2.378l-5.61-5.61Zm-1.5.821a.5.5 0 0 1 .793-.114l5.61 5.61a.5.5 0 0 1-.115.792l-3.955 2.157a1.5 1.5 0 0 0-.727.915l-1.928 6.942a.5.5 0 0 1-.835.22l-9.077-9.077a.5.5 0 0 1 .22-.835l6.941-1.928a1.5 1.5 0 0 0 .916-.727l2.157-3.955Z" clip-rule="evenodd"/></symbol>
  <use href="#icon"/>
</svg>
