<svg xmlns="http://www.w3.org/2000/svg">
  <symbol id="icon" fill="none" viewBox="0 0 16 16"><path fill="currentColor" d="M6.5 2a.5.5 0 0 1 0 1H6v6a1 1 0 0 0 1 1h6v-.5a.5.5 0 0 1 1 0v5a.5.5 0 0 1-1 0V14H6.5A4.5 4.5 0 0 1 2 9.5V3h-.5a.5.5 0 0 1 0-1h5ZM3 9.5A3.5 3.5 0 0 0 6.5 13H13v-2H7a2 2 0 0 1-2-2V3H3v6.5Zm7.5-7a.5.5 0 0 1 .429.243l1.276 2.128.068.122c.149.29.227.613.227.94V6a2 2 0 1 1-4 0v-.066c0-.375.102-.742.295-1.063l1.276-2.128.037-.054A.5.5 0 0 1 10.5 2.5Zm-.848 2.886a1.064 1.064 0 0 0-.152.548V6a1 1 0 0 0 2 0v-.066c0-.194-.053-.383-.152-.548L10.5 3.972l-.848 1.414Z"/></symbol>
  <symbol id="icon-large" fill="none" viewBox="0 0 24 24"><path fill="currentColor" d="M9.5 3a.5.5 0 0 1 0 1H9v9.5a1.5 1.5 0 0 0 1.5 1.5H20v-.5a.5.5 0 0 1 1 0v6a.5.5 0 0 1-1 0V20h-9.5A6.5 6.5 0 0 1 4 13.5V4h-.5a.5.5 0 0 1 0-1h6ZM5 13.5a5.5 5.5 0 0 0 5.5 5.5H18v-3h-7.5A2.5 2.5 0 0 1 8 13.5V6H5v7.5ZM19 19h1v-3h-1v3ZM15.5 4a.5.5 0 0 1 .407.209l2.006 2.81a3.15 3.15 0 0 1 .587 1.83V9a3 3 0 1 1-6 0v-.15c0-.657.205-1.297.587-1.831l2.006-2.81.08-.088A.5.5 0 0 1 15.5 4Zm-1.6 3.6c-.26.364-.4.801-.4 1.25V9a2 2 0 1 0 4 0v-.15c0-.449-.14-.886-.4-1.25l-1.6-2.24-1.6 2.24ZM5 5h3V4H5v1Z"/></symbol>
  <use href="#icon"/>
</svg>
