<svg xmlns="http://www.w3.org/2000/svg">
  <symbol id="icon" fill="none" viewBox="0 0 16 16"><path fill="currentColor" d="M13.5 8.508a.5.5 0 0 1 .401.582A6.003 6.003 0 0 1 8 14a5.992 5.992 0 0 1-5-2.688V12.5a.5.5 0 0 1-1 0V10a.5.5 0 0 1 .5-.5H5a.5.5 0 0 1 0 1H3.672A4.996 4.996 0 0 0 8 13c2.45 0 4.49-1.763 4.918-4.09a.5.5 0 0 1 .582-.402ZM8 2c2.09 0 3.926 1.07 5 2.688V3.5a.5.5 0 0 1 1 0V6a.5.5 0 0 1-.5.5H11a.5.5 0 0 1 0-1h1.328A4.996 4.996 0 0 0 8 3a5.001 5.001 0 0 0-4.917 4.09.501.501 0 0 1-.984-.18A6.003 6.003 0 0 1 8 2Z"/></symbol>
  <symbol id="icon-large" fill="none" viewBox="0 0 24 24"><path fill="currentColor" d="M20.28 10.008a.5.5 0 0 1 .553.307l.027.097.06.39A9 9 0 0 1 12 21c-2.752 0-5.329-1.237-7-3.195V20.5a.5.5 0 0 1-1 0v-4a.5.5 0 0 1 .5-.5h4a.5.5 0 0 1 0 1H5.633c1.474 1.823 3.834 3 6.367 3a8 8 0 0 0 7.93-9.066l-.054-.346-.008-.102a.5.5 0 0 1 .412-.478ZM19.5 3a.5.5 0 0 1 .5.5v4a.5.5 0 0 1-.5.5h-4a.5.5 0 0 1 0-1h2.867C16.893 5.177 14.532 4 12 4a8 8 0 0 0-7.876 9.412.5.5 0 0 1-.957.273l-.027-.097-.06-.39A9 9 0 0 1 12 3c2.752 0 5.329 1.237 7 3.195V3.5a.5.5 0 0 1 .5-.5Z"/></symbol>
  <use href="#icon"/>
</svg>
