<svg xmlns="http://www.w3.org/2000/svg">
  <symbol id="icon" fill="none" viewBox="0 0 16 16"><path fill="currentColor" d="M8 2a6 6 0 1 1-6 6 .5.5 0 0 1 1 0 5 5 0 1 0 5-5c-1.625 0-2.985.777-3.89 2H5.5a.5.5 0 0 1 0 1H3a.5.5 0 0 1-.5-.5V3a.5.5 0 0 1 1 0v1.155C4.574 2.845 6.14 2 8 2ZM6.94 5.604a1.5 1.5 0 0 1 2.12 0l1.336 1.335a1.5 1.5 0 0 1 0 2.122l-1.335 1.335a1.5 1.5 0 0 1-2.122 0L5.604 9.061a1.5 1.5 0 0 1 0-2.122l1.335-1.335Zm1.414.707a.5.5 0 0 0-.708 0L6.311 7.646a.5.5 0 0 0 0 .708l1.335 1.335a.5.5 0 0 0 .708 0l1.335-1.335a.5.5 0 0 0 0-.708L8.354 6.311Z"/></symbol>
  <symbol id="icon-large" fill="none" viewBox="0 0 24 24"><path fill="currentColor" fill-rule="evenodd" d="M3 12a.5.5 0 0 1 1 0 8 8 0 1 0 8-8C9.467 4 7.104 5.176 5.63 7H7.5a.5.5 0 0 1 0 1h-3a.5.5 0 0 1-.5-.5v-3a.5.5 0 0 1 1 0v1.694C6.671 4.236 9.249 3 12 3a9 9 0 1 1-9 9Zm11.5-3a.5.5 0 0 1 .5.5v5a.5.5 0 0 1-.5.5h-5a.5.5 0 0 1-.5-.5v-5a.5.5 0 0 1 .5-.5h5Zm0 7a1.5 1.5 0 0 0 1.5-1.5v-5A1.5 1.5 0 0 0 14.5 8h-5A1.5 1.5 0 0 0 8 9.5v5A1.5 1.5 0 0 0 9.5 16h5Z" clip-rule="evenodd"/></symbol>
  <use href="#icon"/>
</svg>
