<svg xmlns="http://www.w3.org/2000/svg">
  <symbol id="icon" fill="none" viewBox="0 0 16 16"><path fill="currentColor" d="M10 10.902a1 1 0 0 1 1.53-.848l2.557 1.598a1 1 0 0 1 0 1.696l-2.557 1.598a1 1 0 0 1-1.53-.848v-3.196Zm1 3.196 2.557-1.598L11 10.902v3.196ZM12.5 2A1.5 1.5 0 0 1 14 3.5V9h-1V3.5a.5.5 0 0 0-.5-.5h-9a.5.5 0 0 0-.5.5v9a.5.5 0 0 0 .5.5H9v1H3.5A1.5 1.5 0 0 1 2 12.5v-9A1.5 1.5 0 0 1 3.5 2h9ZM8.312 5.504a.5.5 0 0 1 .434.559l-.5 4a.5.5 0 0 1-.992-.126l.5-4a.5.5 0 0 1 .559-.433Zm-2.666.642a.5.5 0 1 1 .708.708L5.207 8l1.147 1.146.064.079a.5.5 0 0 1-.693.693l-.079-.064-1.5-1.5a.5.5 0 0 1 0-.708l1.5-1.5Zm4 0a.5.5 0 0 1 .63-.064l.078.064 1.5 1.5.064.079a.5.5 0 0 1 0 .55l-.064.079-.647.646H9.793l1-1-1.147-1.146-.064-.079a.5.5 0 0 1 .064-.629Z"/></symbol>
  <symbol id="icon-large" fill="none" viewBox="0 0 24 24"><path fill="currentColor" fill-rule="evenodd" d="M20 4.5a.5.5 0 0 0-.5-.5h-15a.5.5 0 0 0-.5.5v15a.5.5 0 0 0 .5.5H15v1H4.5A1.5 1.5 0 0 1 3 19.5v-15A1.5 1.5 0 0 1 4.5 3h15A1.5 1.5 0 0 1 21 4.5V15h-1V4.5Zm-2.746 11.564a.5.5 0 0 1 .503.007l5 3a.5.5 0 0 1 0 .858l-5 3A.5.5 0 0 1 17 22.5v-6l.005-.066a.5.5 0 0 1 .249-.37ZM18 21.617l3.528-2.117L18 17.383v4.234ZM9.354 8.647a.5.5 0 0 0-.708 0l-3 3a.5.5 0 0 0 0 .707l3 3a.5.5 0 1 0 .708-.707L6.707 12l2.647-2.646a.5.5 0 0 0 0-.708Zm3.171.195a.5.5 0 0 1 .95.316l-2 6a.5.5 0 0 1-.95-.316l2-6Zm2.829-.196a.5.5 0 1 0-.707.708L17.293 12l-2.646 2.646a.5.5 0 1 0 .707.707l3-3a.5.5 0 0 0 0-.707l-3-3Z" clip-rule="evenodd"/></symbol>
  <use href="#icon"/>
</svg>
