<svg xmlns="http://www.w3.org/2000/svg">
  <symbol id="icon" fill="none" viewBox="0 0 16 16"><path fill="currentColor" d="M8 1.5a6.5 6.5 0 1 1 0 13 6.5 6.5 0 0 1 0-13Zm0 1a5.5 5.5 0 1 0 0 11 5.5 5.5 0 0 0 0-11Zm2.5 7.5a.5.5 0 0 1 0 1h-5a.5.5 0 0 1 0-1h5ZM6.25 5.105a.5.5 0 0 1 .5.5V7.5a.5.5 0 0 1-1 0V5.605a.5.5 0 0 1 .5-.5ZM9.75 5a.5.5 0 0 1 .5.5v2a.5.5 0 0 1-1 0v-2a.5.5 0 0 1 .5-.5Z"/></symbol>
  <symbol id="icon-large" fill="none" viewBox="0 0 24 24"><path fill="currentColor" fill-rule="evenodd" d="M21 12a9 9 0 1 0-18 0 9 9 0 0 0 18 0Zm1 0c0 5.523-4.477 10-10 10S2 17.523 2 12 6.477 2 12 2s10 4.477 10 10Zm-6.5 3a.5.5 0 0 1 0 1h-7a.5.5 0 0 1 0-1h7ZM9 8.5v3a.5.5 0 0 0 1 0v-3a.5.5 0 0 0-1 0Zm5 0v3a.5.5 0 0 0 1 0v-3a.5.5 0 0 0-1 0Z" clip-rule="evenodd"/></symbol>
  <use href="#icon"/>
</svg>
