<svg xmlns="http://www.w3.org/2000/svg">
  <symbol id="icon" fill="none" viewBox="0 0 16 16"><path fill="currentColor" d="M8 1.5a6.5 6.5 0 1 1 0 13 6.5 6.5 0 0 1 0-13Zm0 1a5.5 5.5 0 1 0 0 11 5.5 5.5 0 0 0 0-11ZM8 6a2 2 0 0 1 2 2l-.01.204A2 2 0 1 1 8 6Zm0 1a1 1 0 1 0 1 1l-.005-.103A1 1 0 0 0 8 7Z"/></symbol>
  <symbol id="icon-large" fill="none" viewBox="0 0 24 24"><path fill="currentColor" d="M12 2c5.523 0 10 4.477 10 10s-4.477 10-10 10S2 17.523 2 12 6.477 2 12 2Zm0 1a9 9 0 1 0 0 18 9 9 0 0 0 0-18Zm0 7a2 2 0 0 1 2 2l-.01.204A2 2 0 1 1 12 10Zm0 1a1 1 0 1 0 1 1l-.005-.102A1 1 0 0 0 12 11Z"/></symbol>
  <use href="#icon"/>
</svg>
