<svg xmlns="http://www.w3.org/2000/svg">
  <symbol id="icon" fill="none" viewBox="0 0 16 16"><path fill="currentColor" d="M13.5 2a.5.5 0 0 1 .5.5V5a3.5 3.5 0 0 1-3.5 3.5h-.565a1.999 1.999 0 0 1-3.87 0H5.5A2.5 2.5 0 0 0 3 11v2.5a.5.5 0 0 1-1 0V11a3.5 3.5 0 0 1 3.5-3.5h.565a1.999 1.999 0 0 1 3.87 0h.565A2.5 2.5 0 0 0 13 5V2.5a.5.5 0 0 1 .5-.5ZM8 7a1 1 0 0 0-1 1l.005.103A1 1 0 1 0 8 7Z"/></symbol>
  <symbol id="icon-large" fill="none" viewBox="0 0 24 24"><path fill="currentColor" d="M20.5 3a.5.5 0 0 1 .5.5v3a6 6 0 0 1-6 6h-1.065a1.999 1.999 0 0 1-3.87 0H9l-.257.007A5 5 0 0 0 4 17.5v3a.5.5 0 0 1-1 0v-3a6 6 0 0 1 6-6h1.065a1.999 1.999 0 0 1 3.87 0H15a5 5 0 0 0 5-5v-3a.5.5 0 0 1 .5-.5ZM12 11a1 1 0 1 0 0 2 1 1 0 0 0 0-2Z"/></symbol>
  <use href="#icon"/>
</svg>
