<svg xmlns="http://www.w3.org/2000/svg">
  <symbol id="icon" fill="none" viewBox="0 0 16 16"><path fill="currentColor" fill-rule="evenodd" d="M5.354 2.146a.5.5 0 0 0-.63-.064l-.078.064-2.5 2.5a.5.5 0 1 0 .708.708L4.5 3.707V9.5a.5.5 0 1 0 1 0V3.707l1.646 1.647a.5.5 0 1 0 .708-.708l-2.5-2.5ZM11 6a.5.5 0 0 0-.5.5v5.872L8.85 10.76a.5.5 0 0 0-.7.715l2.5 2.441a.5.5 0 0 0 .707-.008l2.5-2.558a.5.5 0 0 0-.714-.7L11.5 12.331V6.5A.5.5 0 0 0 11 6Z" clip-rule="evenodd"/></symbol>
  <symbol id="icon-large" fill="none" viewBox="0 0 24 24"><path fill="currentColor" fill-rule="evenodd" d="M7.854 4.146a.5.5 0 0 0-.63-.064l-.078.064-4 4a.5.5 0 1 0 .708.708L7 5.707V15.5a.5.5 0 0 0 1 0V5.707l3.146 3.147a.5.5 0 1 0 .707-.708l-4-4ZM16.5 8a.5.5 0 0 0-.5.5v9.793l-3.146-3.146a.5.5 0 1 0-.707.707l4 4a.5.5 0 0 0 .707 0l4-4a.5.5 0 1 0-.707-.707L17 18.293V8.5a.5.5 0 0 0-.5-.5Z" clip-rule="evenodd"/></symbol>
  <use href="#icon"/>
</svg>
