<svg xmlns="http://www.w3.org/2000/svg">
  <symbol id="icon" fill="none" viewBox="0 0 16 16"><path fill="currentColor" d="M8.25 13.277a.495.495 0 0 1 .726.301l.004.012a.493.493 0 0 1-.23.554 1.5 1.5 0 0 1-1.5 0 .5.5 0 0 1 .5-.866.5.5 0 0 0 .5 0Zm2.407-1.39a.5.5 0 0 1 .5.867l-.618.357a.5.5 0 0 1-.5-.866l.618-.357Zm-5.918.08a.5.5 0 0 1 .603-.08l.62.357a.5.5 0 0 1-.5.866l-.619-.356a.5.5 0 0 1-.104-.787ZM2.673 9.944a.5.5 0 0 1 .631.478.5.5 0 0 0 .25.432.5.5 0 0 1-.5.867 1.5 1.5 0 0 1-.75-1.3c0-.222.154-.419.37-.477Zm10.655 0a.498.498 0 0 1 .369.478c0 .535-.287 1.03-.75 1.299a.5.5 0 0 1-.5-.866.502.502 0 0 0 .25-.433.5.5 0 0 1 .63-.478ZM6.5 5.5A.5.5 0 0 1 7 6v4a.5.5 0 0 1-1 0V6a.5.5 0 0 1 .5-.5Zm3 0a.5.5 0 0 1 .5.5v4a.5.5 0 0 1-1 0V6a.5.5 0 0 1 .5-.5ZM2.933 7.16a.5.5 0 0 1 .371.483v.713a.5.5 0 0 1-1 0v-.713a.5.5 0 0 1 .63-.484Zm10.134 0a.5.5 0 0 1 .63.483v.713a.5.5 0 0 1-1 0v-.713a.5.5 0 0 1 .37-.483Zm-.72-2.802a.5.5 0 0 1 .6-.08 1.5 1.5 0 0 1 .75 1.298c0 .223-.15.419-.365.477l-.011.003a.496.496 0 0 1-.624-.48.502.502 0 0 0-.25-.432.5.5 0 0 1-.1-.786Zm-9.293-.08a.493.493 0 0 1 .595.077l.008.01c.23.23.18.615-.103.779a.501.501 0 0 0-.25.432.5.5 0 0 1-1 0c0-.535.286-1.03.75-1.299Zm2.406-1.39a.5.5 0 0 1 .501.866l-.619.357a.5.5 0 0 1-.5-.866l.618-.357Zm4.345.303a.5.5 0 0 1 .734-.304l.619.357a.5.5 0 0 1-.5.866l-.62-.356a.5.5 0 0 1-.233-.563ZM7.25 1.854a1.502 1.502 0 0 1 1.5 0 .492.492 0 0 1 .23.554l-.004.013a.495.495 0 0 1-.726.3.502.502 0 0 0-.5 0 .5.5 0 0 1-.5-.867Z"/></symbol>
  <symbol id="icon-large" fill="none" viewBox="0 0 24 24"><path fill="currentColor" fill-rule="evenodd" d="M13.326 21.69a.5.5 0 0 0-.686-.167l-.64.39-.64-.39a.5.5 0 0 0-.521.854l.9.55a.5.5 0 0 0 .522 0l.9-.55a.5.5 0 0 0 .165-.688ZM6.86 18.773a.5.5 0 0 0-.521.854l1.8 1.1a.5.5 0 0 0 .522-.854l-1.8-1.1Zm10.966.166a.5.5 0 0 0-.686-.166l-1.801 1.1a.5.5 0 0 0 .521.854l1.801-1.1a.5.5 0 0 0 .165-.688ZM3 15.5a.5.5 0 0 0-.5.5v1a.5.5 0 0 0 .24.427l.9.55a.5.5 0 0 0 .521-.854l-.661-.404V16a.5.5 0 0 0-.5-.5Zm18 0a.5.5 0 0 0-.5.5v.719l-.661.404a.5.5 0 0 0 .521.854l.9-.55A.5.5 0 0 0 21.5 17v-1a.5.5 0 0 0-.5-.5ZM2.5 11v2a.5.5 0 0 0 1 0v-2a.5.5 0 0 0-1 0Zm18 0v2a.5.5 0 0 0 1 0v-2a.5.5 0 0 0-1 0Zm-18-4v1a.5.5 0 0 0 1 0v-.72l.661-.403a.5.5 0 0 0-.521-.854l-.9.55A.5.5 0 0 0 2.5 7Zm18 .28V8a.5.5 0 0 0 1 0V7a.5.5 0 0 0-.24-.427l-.9-.55a.5.5 0 0 0-.521.854l.661.403ZM8.826 3.44a.5.5 0 0 0-.686-.167l-1.801 1.1a.5.5 0 0 0 .521.854l1.801-1.1a.5.5 0 0 0 .165-.688Zm7.034-.167a.5.5 0 0 0-.521.854l1.8 1.1a.5.5 0 0 0 .522-.854l-1.8-1.1Zm-3.6-2.2a.5.5 0 0 0-.46-.032l-.06.032-.901.55a.5.5 0 0 0 .521.854l.64-.391.64.39a.5.5 0 0 0 .521-.853l-.9-.55ZM9 8.5v7a.5.5 0 0 0 1 0v-7a.5.5 0 0 0-1 0Zm5 0v7a.5.5 0 0 0 1 0v-7a.5.5 0 0 0-1 0Z" clip-rule="evenodd"/></symbol>
  <use href="#icon"/>
</svg>
