<svg xmlns="http://www.w3.org/2000/svg">
  <symbol id="icon" fill="none" viewBox="0 0 16 16"><path fill="currentColor" d="M8 1a.5.5 0 0 1 .5.5v13a.5.5 0 0 1-1 0v-13A.5.5 0 0 1 8 1ZM6.5 9.5h-1a.5.5 0 0 0-.5.5v2.5a.5.5 0 0 0 .5.5h1v1h-1A1.5 1.5 0 0 1 4 12.5V10a1.5 1.5 0 0 1 1.5-1.5h1v1Zm7-1A1.5 1.5 0 0 1 15 10v2.5a1.5 1.5 0 0 1-1.5 1.5h-4v-1h4a.5.5 0 0 0 .5-.5V10a.5.5 0 0 0-.5-.5h-4v-1h4ZM6.5 3h-4a.5.5 0 0 0-.5.5V6a.5.5 0 0 0 .5.5h4v1h-4A1.5 1.5 0 0 1 1 6V3.5A1.5 1.5 0 0 1 2.5 2h4v1Zm4-1A1.5 1.5 0 0 1 12 3.5V6a1.5 1.5 0 0 1-1.5 1.5h-1v-1h1A.5.5 0 0 0 11 6V3.5a.5.5 0 0 0-.5-.5h-1V2h1Z"/></symbol>
  <symbol id="icon-large" fill="none" viewBox="0 0 24 24"><path fill="currentColor" fill-rule="evenodd" d="M11.5 21.5v-19a.5.5 0 0 1 1 0v19a.5.5 0 0 1-1 0Zm-4.5-3v-4A1.5 1.5 0 0 1 8.5 13h2v1h-2a.5.5 0 0 0-.5.5v4a.5.5 0 0 0 .5.5h2v1h-2A1.5 1.5 0 0 1 7 18.5Zm14 0v-4a.5.5 0 0 0-.5-.5h-7v-1h7a1.5 1.5 0 0 1 1.5 1.5v4a1.5 1.5 0 0 1-1.5 1.5h-7v-1h7a.5.5 0 0 0 .5-.5ZM2 5.5v4A1.5 1.5 0 0 0 3.5 11h7v-1h-7a.5.5 0 0 1-.5-.5v-4a.5.5 0 0 1 .5-.5h7V4h-7A1.5 1.5 0 0 0 2 5.5Zm14 0v4a.5.5 0 0 1-.5.5h-2v1h2A1.5 1.5 0 0 0 17 9.5v-4A1.5 1.5 0 0 0 15.5 4h-2v1h2a.5.5 0 0 1 .5.5Z" clip-rule="evenodd"/></symbol>
  <use href="#icon"/>
</svg>
