<svg xmlns="http://www.w3.org/2000/svg">
  <symbol id="icon" fill="none" viewBox="0 0 16 16"><path fill="currentColor" d="M10.75 7.5a.75.75 0 0 1 .75.75v3.5a.75.75 0 0 1-.75.75h-5.5a.75.75 0 0 1-.75-.75v-3.5a.75.75 0 0 1 .75-.75h5.5Z" opacity=".48"/><path fill="currentColor" d="M8 3a3 3 0 0 1 3 3v1.087A1.5 1.5 0 0 1 12 8.5v3a1.5 1.5 0 0 1-1.5 1.5h-5A1.5 1.5 0 0 1 4 11.5v-3a1.5 1.5 0 0 1 1-1.413V6a3 3 0 0 1 3-3ZM5.5 8a.5.5 0 0 0-.5.5v3a.5.5 0 0 0 .5.5h5a.5.5 0 0 0 .5-.5v-3a.5.5 0 0 0-.5-.5h-5ZM8 4a2 2 0 0 0-2 2v1h4V6a2 2 0 0 0-2-2Z"/></symbol>
  <symbol id="icon-large" fill="none" viewBox="0 0 24 24"><path fill="currentColor" d="M14.75 11.5a.75.75 0 0 1 .75.75v3.5a.75.75 0 0 1-.75.75h-5.5a.75.75 0 0 1-.75-.75v-3.5a.75.75 0 0 1 .75-.75h5.5Z" opacity=".48"/><path fill="currentColor" d="M12 7a3 3 0 0 1 3 3v1.087a1.5 1.5 0 0 1 1 1.413v3a1.5 1.5 0 0 1-1.5 1.5h-5A1.5 1.5 0 0 1 8 15.5v-3a1.5 1.5 0 0 1 1-1.413V10a3 3 0 0 1 3-3Zm-2.5 5a.5.5 0 0 0-.5.5v3a.5.5 0 0 0 .5.5h5a.5.5 0 0 0 .5-.5v-3a.5.5 0 0 0-.5-.5h-5ZM12 8a2 2 0 0 0-2 2v1h4v-1a2 2 0 0 0-2-2Z"/></symbol>
  <use href="#icon"/>
</svg>
