<svg xmlns="http://www.w3.org/2000/svg">
  <symbol id="icon" fill="none" viewBox="0 0 16 16"><path fill="currentColor" d="M12.55 10.165a1.557 1.557 0 0 1 1.996.174l.112.125a1.558 1.558 0 0 1-.078 2.043l-.122.116-2.633 2.257a.5.5 0 0 1-.325.12H10a.5.5 0 0 1-.5-.5V13l.012-.107a.501.501 0 0 1 .163-.273l2.756-2.362.12-.093Zm.675-8.083a.5.5 0 0 1 .693.694l-.064.078-3.41 3.41A3 3 0 0 1 8 11a2.984 2.984 0 0 1-1.737-.556l-3.41 3.41a.5.5 0 1 1-.708-.707l3.41-3.411A2.982 2.982 0 0 1 5 8a3 3 0 0 1 3-3 2.98 2.98 0 0 1 1.735.557l3.411-3.41.079-.065Zm.614 8.964a.558.558 0 0 0-.757-.03L10.5 13.23V14h.814l2.494-2.136a.558.558 0 0 0 .106-.725l-.075-.093ZM8 6a2 2 0 1 0 0 4 2 2 0 0 0 0-4Z"/></symbol>
  <symbol id="icon-large" fill="none" viewBox="0 0 24 24"><path fill="currentColor" d="M19.554 15.75a1.5 1.5 0 0 1 2.007.104l.585.585.103.115a1.5 1.5 0 0 1 0 1.892l-.103.114-4.293 4.294A.5.5 0 0 1 17.5 23h-2a.5.5 0 0 1-.5-.5v-2l.01-.098a.5.5 0 0 1 .136-.256l4.293-4.293.115-.102ZM16 20.708V22h1.293l3-3L19 17.707l-3 3Zm4.146-17.56a.5.5 0 0 1 .707.706l-5.695 5.695a4 4 0 0 1-5.61 5.61l-5.695 5.695a.5.5 0 0 1-.707-.707l5.695-5.695a4 4 0 0 1 5.61-5.61l5.695-5.695Zm.707 13.414a.5.5 0 0 0-.628-.064l-.079.064-.439.439L21 18.293l.44-.44.063-.078a.5.5 0 0 0 0-.55l-.064-.079-.585-.585ZM12 9a3 3 0 1 0 0 6 3 3 0 0 0 0-6Z"/></symbol>
  <use href="#icon"/>
</svg>
