<svg xmlns="http://www.w3.org/2000/svg">
  <symbol id="icon" fill="none" viewBox="0 0 16 16"><path fill="currentColor" d="M8.926 12.959a.5.5 0 0 1 .093.995 11.05 11.05 0 0 1-2.037 0 .5.5 0 0 1 .092-.995c.292.027.6.041.926.041.325 0 .634-.014.926-.041Zm-4.457-.723a.5.5 0 0 1-.46.888l.46-.888Zm7.522.888a.5.5 0 0 1-.46-.888l.46.888Zm-9.647-1.96a.5.5 0 0 1 .63-.05l.077.065.144.145c.348.336.768.65 1.274.912l-.23.444-.23.444a6.417 6.417 0 0 1-1.508-1.08l-.172-.173-.062-.08a.5.5 0 0 1 .077-.627Zm10.683-.05a.5.5 0 0 1 .644.757l-.172.173c-.413.4-.912.77-1.508 1.08l-.23-.444-.23-.444a5.399 5.399 0 0 0 1.418-1.057l.078-.066ZM7.957 4c3.631 0 5.011 2.66 5.367 3.546l.04.111c.066.225.066.461 0 .686l-.04.111C12.968 9.34 11.588 12 7.956 12c-3.405 0-4.83-2.339-5.289-3.36l-.079-.186a1.211 1.211 0 0 1 0-.908l.08-.186C3.124 6.34 4.55 4 7.955 4Zm0 1C5.131 5 3.965 6.906 3.581 7.763l-.066.157a.21.21 0 0 0 0 .16l.066.157C3.966 9.094 5.132 11 7.956 11c3.013 0 4.139-2.169 4.44-2.92l.012-.04a.204.204 0 0 0 0-.08l-.011-.04C12.095 7.169 10.969 5 7.957 5ZM.794 6.725a.5.5 0 0 1 .935.296l-.022.1a5.967 5.967 0 0 0-.143.535l-.059.325v.01L1.502 8l.002.009.001.01.059.325c.016.073.035.156.06.246l.083.29.022.1a.5.5 0 0 1-.935.295l-.04-.092-.098-.338a6.708 6.708 0 0 1-.069-.29l-.072-.4a1.181 1.181 0 0 1-.007-.06v-.1a.503.503 0 0 1 .007-.15l.072-.4c.038-.176.091-.389.167-.628l.04-.092Zm13.822-.233a.5.5 0 0 1 .588.233l.04.092.098.338c.083.315.123.558.142.69l.006.06a.54.54 0 0 1 0 .09.506.506 0 0 1 0 .1l-.006.06c-.025.176-.088.55-.24 1.028a.5.5 0 0 1-.953-.303c.131-.413.184-.73.202-.861l.001-.01.001-.009v-.009l-.002-.01a4.973 4.973 0 0 0-.118-.57l-.084-.29-.021-.1a.5.5 0 0 1 .346-.529ZM7.957 7a1 1 0 1 1 0 2 1 1 0 0 1 0-2Zm-3.72-3.68.23.444c-.577.3-1.042.667-1.417 1.057l-.077.066a.5.5 0 0 1-.645-.758l.172-.173c.414-.4.912-.77 1.508-1.08l.23.444Zm7.753-.444a6.42 6.42 0 0 1 1.508 1.08l.172.173.063.08a.5.5 0 0 1-.707.678l-.078-.066-.144-.145a5.417 5.417 0 0 0-1.274-.912l.23-.444.23-.444Zm-7.982 0a.5.5 0 0 1 .46.888l-.46-.888Zm7.309.214a.5.5 0 0 1 .673-.214l-.46.888a.5.5 0 0 1-.213-.674ZM8 2c.355 0 .695.016 1.019.046a.5.5 0 0 1-.093.995C8.634 3.014 8.326 3 8 3c-.325 0-.634.014-.926.041a.5.5 0 1 1-.092-.995C7.306 2.016 7.645 2 8 2Z"/></symbol>
  <symbol id="icon-large" fill="none" viewBox="0 0 24 24"><path fill="currentColor" d="M12.88 20.473a.5.5 0 0 1 .064.998 14.897 14.897 0 0 1-1.889 0l.033-.5.031-.498a13.921 13.921 0 0 0 1.762 0Zm-1.825.998a.5.5 0 0 1 .064-.998l-.063.998Zm-2.513-1.44a.5.5 0 0 1-.28.96l.28-.96Zm7.196.96a.5.5 0 0 1-.28-.96l.28.96Zm-8.911-1.618.096.035.38.175c.39.17.802.32 1.239.447l-.14.48-.14.48a11.46 11.46 0 0 1-1.357-.49l-.419-.192-.086-.053a.5.5 0 0 1 .427-.882Zm10.346 0a.5.5 0 0 1 .34.935l-.418.192c-.428.186-.88.35-1.357.49l-.14-.48-.14-.48c.582-.17 1.12-.38 1.619-.622l.096-.035ZM12 4.5c6.96 0 9.41 5.745 9.882 7.063l.033.108c.057.217.057.441 0 .658l-.033.107C21.41 13.756 18.96 19.5 12 19.5c-6.526 0-9.087-5.05-9.77-6.767l-.112-.296a1.288 1.288 0 0 1 0-.873l.112-.297C2.913 9.549 5.474 4.5 12 4.5ZM3.526 16.75c.27.319.567.633.892.936l.334.298.07.074a.501.501 0 0 1-.638.744l-.083-.058-.365-.327c-.355-.33-.679-.673-.972-1.02l.381-.323.381-.324Zm17.328.324.382.323a11.93 11.93 0 0 1-1.338 1.347.5.5 0 0 1-.65-.76c.458-.392.865-.809 1.226-1.234l.38.324ZM12 5.5c-6.273 0-8.495 5.152-8.94 6.4a.287.287 0 0 0 0 .2c.445 1.248 2.667 6.4 8.94 6.4s8.494-5.152 8.94-6.4l.014-.05a.282.282 0 0 0 0-.1l-.014-.05c-.446-1.248-2.668-6.4-8.94-6.4ZM2.822 16.692a.5.5 0 0 1 .704.058l-.762.648a.5.5 0 0 1 .058-.706Zm17.652.058a.5.5 0 0 1 .762.648l-.762-.648ZM1.007 13.545a.5.5 0 0 1 .611.161l.05.087.182.384c.065.131.134.266.207.403a.5.5 0 0 1-.881.472 14.377 14.377 0 0 1-.223-.433l-.194-.412-.033-.097a.5.5 0 0 1 .28-.565Zm21.817 1.507a.5.5 0 0 1-.882-.472l.882.472Zm-.493-1.259a.5.5 0 0 1 .91.414c-.121.267-.26.55-.417.845l-.44-.237-.442-.235c.147-.274.276-.539.389-.787ZM12 9a3 3 0 1 1 0 6 3 3 0 0 1 0-6Zm0 1a2 2 0 1 0 0 4 2 2 0 0 0 0-4ZM1.176 8.948a.5.5 0 0 1 .881.472c-.146.274-.275.539-.388.787a.5.5 0 0 1-.91-.414c.12-.267.259-.55.417-.845Zm21.87.433.195.412.033.097a.5.5 0 0 1-.892.404l-.051-.087-.182-.384a13.328 13.328 0 0 0-.207-.403l.442-.235.44-.237c.079.147.153.292.223.433Zm-.899-.638a.5.5 0 0 1 .677.205l-.882.472a.5.5 0 0 1 .205-.677ZM3.527 7.25a.5.5 0 0 1-.763-.647l.762.647Zm17.71-.647a.5.5 0 0 1-.763.647l.762-.647ZM4.1 5.256a.5.5 0 0 1 .65.76c-.457.392-.864.809-1.225 1.234l-.38-.324-.382-.323c.391-.462.836-.918 1.337-1.347Zm15.092.055a.5.5 0 0 1 .622-.113l.083.058.367.327c.354.33.677.673.971 1.02l-.382.323-.38.324c-.27-.319-.568-.633-.892-.936l-.334-.298-.07-.074a.5.5 0 0 1 .015-.631ZM8.401 3.49l.14.479c-.581.17-1.12.38-1.618.622l-.096.035a.5.5 0 0 1-.34-.935l.418-.192c.427-.186.88-.35 1.357-.49l.14.48Zm7.337-.481c.477.14.93.304 1.357.49l.419.192.085.053a.5.5 0 0 1-.426.882l-.096-.035-.38-.175c-.39-.17-.802-.32-1.24-.447l.141-.48.14-.48Zm-7.476 0a.5.5 0 0 1 .28.96l-.28-.96Zm7.476 0-.28.96a.5.5 0 0 1 .28-.96ZM12 2.5c.322 0 .637.01.944.03l.1.016a.5.5 0 0 1-.163.981l-.435-.02a14.207 14.207 0 0 0-1.327.02l-.1-.004a.5.5 0 0 1 .037-.994l.466-.021c.158-.005.317-.008.478-.008Z"/></symbol>
  <use href="#icon"/>
</svg>
