<svg xmlns="http://www.w3.org/2000/svg">
  <symbol id="icon" fill="none" viewBox="0 0 16 16"><path fill="currentColor" d="M12.54 5.803a.501.501 0 0 1 .92.395l-.423-.182c.375.16.417.18.421.182V6.2l-.002.003-.004.01-.016.037a6.72 6.72 0 0 1-.296.554 7.765 7.765 0 0 1-.868 1.177l.984.59.082.061a.5.5 0 0 1-.504.84l-.091-.043-1.213-.727a5.759 5.759 0 0 1-1.543.922l.476 1.19.029.099a.5.5 0 0 1-.91.363l-.046-.09-.5-1.25-.01-.032a5.485 5.485 0 0 1-2.054 0c-.003.01-.005.022-.009.032l-.5 1.25a.5.5 0 0 1-.927-.371l.475-1.191A5.758 5.758 0 0 1 4.47 8.7l-1.213.728a.5.5 0 0 1-.513-.857l.983-.591a7.763 7.763 0 0 1-.867-1.178 6.729 6.729 0 0 1-.296-.553l-.016-.037-.005-.01-.001-.003v-.002a44 44 0 0 1 .421-.182l-.422.182a.501.501 0 0 1 .92-.395l-.002.001.002.003a2.551 2.551 0 0 0 .058.12A6.693 6.693 0 0 0 4.553 7.41C5.307 8.223 6.433 9 8 9c1.565 0 2.692-.778 3.446-1.59a6.695 6.695 0 0 0 1.035-1.483l.047-.096.01-.024.002-.003Z"/></symbol>
  <symbol id="icon-large" fill="none" viewBox="0 0 24 24"><path fill="currentColor" d="M20.052 8.633a.5.5 0 0 1 .746.659l-.305.409a12.282 12.282 0 0 1-1.749 1.837l1.11 1.109.064.078a.5.5 0 0 1-.693.694l-.078-.065-1.198-1.198a10.008 10.008 0 0 1-3.302 1.52l.8 1.6.037.096a.5.5 0 0 1-.876.438l-.055-.086-.923-1.845a11.056 11.056 0 0 1-3.26 0l-.923 1.845a.5.5 0 0 1-.894-.447l.8-1.6a10.01 10.01 0 0 1-3.302-1.521l-1.197 1.198a.5.5 0 0 1-.707-.707l1.108-1.11a12.253 12.253 0 0 1-1.749-1.836l-.304-.41-.05-.087a.5.5 0 0 1 .796-.57l.067.075.283.38c1.477 1.909 3.92 3.912 7.702 3.912 4.034 0 6.545-2.279 7.985-4.292l.067-.076Z"/></symbol>
  <use href="#icon"/>
</svg>
