<svg xmlns="http://www.w3.org/2000/svg">
  <symbol id="icon" fill="none" viewBox="0 0 16 16"><path fill="currentColor" d="M6.5 9a.5.5 0 0 1 .5.5v3a.5.5 0 0 1-1 0v-1.793l-3.146 3.147a.5.5 0 0 1-.708-.707l3.147-3.146H3.5a.5.5 0 0 1 0-1h3Zm6 0a.5.5 0 0 1 0 1h-1.793l3.146 3.147.065.078a.5.5 0 0 1-.693.694l-.079-.065L10 10.708V12.5a.5.5 0 0 1-1 0v-3l.01-.101A.5.5 0 0 1 9.5 9h3ZM2.146 2.147a.5.5 0 0 1 .63-.064l.078.064L6 5.293V3.5a.5.5 0 0 1 1 0v3a.5.5 0 0 1-.5.5h-3a.5.5 0 0 1 0-1h1.793L2.146 2.854l-.064-.078a.5.5 0 0 1 .064-.629Zm11 0a.5.5 0 1 1 .707.707L10.707 6H12.5a.5.5 0 0 1 0 1h-3a.5.5 0 0 1-.5-.5v-3a.5.5 0 0 1 1 0v1.793l3.146-3.146Z"/></symbol>
  <symbol id="icon-large" fill="none" viewBox="0 0 24 24"><path fill="currentColor" fill-rule="evenodd" d="M20.854 3.146a.5.5 0 0 0-.707 0L15 8.293V5.5a.5.5 0 0 0-1 0v4a.5.5 0 0 0 .5.5h4a.5.5 0 0 0 0-1h-2.793l5.146-5.146a.5.5 0 0 0 0-.708ZM9 15.707V18.5a.5.5 0 0 0 1 0v-4a.5.5 0 0 0-.5-.5h-4a.5.5 0 0 0 0 1h2.793l-5.147 5.146a.5.5 0 1 0 .708.707L9 15.707ZM9 5.5a.5.5 0 0 1 1 0v4a.5.5 0 0 1-.5.5h-4a.5.5 0 0 1 0-1h2.793L3.146 3.854a.5.5 0 1 1 .708-.708L9 8.293V5.5Zm5 13v-4l.01-.1a.5.5 0 0 1 .49-.4h4a.5.5 0 0 1 0 1h-2.793l5.146 5.146a.5.5 0 1 1-.707.707L15 15.707V18.5a.5.5 0 0 1-1 0Z" clip-rule="evenodd"/></symbol>
  <use href="#icon"/>
</svg>
