<svg xmlns="http://www.w3.org/2000/svg">
  <symbol id="icon" fill="none" viewBox="0 0 16 16"><path fill="currentColor" fill-rule="evenodd" d="M14 3.5a.5.5 0 0 0-.5-.5h-11a.5.5 0 0 0-.5.5V6h12V3.5Zm-12 9V7h12v5.5a.5.5 0 0 1-.5.5h-11a.5.5 0 0 1-.5-.5Zm13 0a1.5 1.5 0 0 1-1.5 1.5h-11A1.5 1.5 0 0 1 1 12.5v-9A1.5 1.5 0 0 1 2.5 2h11A1.5 1.5 0 0 1 15 3.5v9Zm-5.707-2H5.5a.5.5 0 0 1 0-1h3.793l-.647-.646a.5.5 0 1 1 .708-.708l1.5 1.5a.5.5 0 0 1 0 .707l-1.5 1.5a.5.5 0 1 1-.708-.707l.647-.646ZM13 4.5a.5.5 0 0 0-.5-.5h-2a.5.5 0 0 0 0 1h2a.5.5 0 0 0 .5-.5Z" clip-rule="evenodd"/></symbol>
  <symbol id="icon-large" fill="none" viewBox="0 0 24 24"><path fill="currentColor" fill-rule="evenodd" d="M21 5.5a.5.5 0 0 0-.5-.5h-17a.5.5 0 0 0-.5.5V8h18V5.5Zm-18 13V9h18v9.5a.5.5 0 0 1-.5.5h-17a.5.5 0 0 1-.5-.5Zm19 0a1.5 1.5 0 0 1-1.5 1.5h-17A1.5 1.5 0 0 1 2 18.5v-13A1.5 1.5 0 0 1 3.5 4h17A1.5 1.5 0 0 1 22 5.5v13Zm-7.707-4H8.5a.5.5 0 0 1 0-1h5.793l-1.646-1.646a.5.5 0 1 1 .707-.707l2.5 2.5a.5.5 0 0 1 0 .707l-2.5 2.5a.5.5 0 1 1-.707-.707l1.646-1.647ZM20 6.5a.5.5 0 0 0-.5-.5h-2a.5.5 0 0 0 0 1h2a.5.5 0 0 0 .5-.5Z" clip-rule="evenodd"/></symbol>
  <use href="#icon"/>
</svg>
