<svg xmlns="http://www.w3.org/2000/svg">
  <symbol id="icon" fill="none" viewBox="0 0 16 16"><path fill="currentColor" d="M12.272 9c.324 0 .568.3.464.606A5.004 5.004 0 0 1 8.5 12.974V14a.5.5 0 1 1-1 0v-1.025a5.004 5.004 0 0 1-4.237-3.368c-.104-.307.14-.605.464-.606.234 0 .436.16.517.38a4.003 4.003 0 0 0 7.513 0 .56.56 0 0 1 .515-.38ZM8 1.5a3 3 0 0 1 3 3V8a3 3 0 0 1-6 0V4.5a3 3 0 0 1 3-3Zm0 1a2 2 0 0 0-2 2V8a2 2 0 0 0 4 0V4.5a2 2 0 0 0-2-2Z"/></symbol>
  <symbol id="icon-large" fill="none" viewBox="0 0 24 24"><path fill="currentColor" fill-rule="evenodd" d="M18.332 12c.31 0 .548.277.476.578a7.063 7.063 0 0 1-6.308 5.398V20H16a.5.5 0 1 1 0 1H8.5a.5.5 0 0 1 0-1h3v-2.024a7.063 7.063 0 0 1-6.309-5.397A.477.477 0 0 1 5.67 12a.54.54 0 0 1 .515.416A6.061 6.061 0 0 0 12 17a6.062 6.062 0 0 0 5.817-4.583.539.539 0 0 1 .515-.416ZM12 3a4 4 0 0 1 4 4v4a4 4 0 0 1-8 0V7a4 4 0 0 1 4-4Zm0 1a3 3 0 0 0-3 3v4a3 3 0 0 0 6 0V7a3 3 0 0 0-3-3Zm1 4a.5.5 0 1 1 0 1h-2a.5.5 0 0 1 0-1h2Zm0-2a.5.5 0 1 1 0 1h-2a.5.5 0 0 1 0-1h2Z" clip-rule="evenodd"/></symbol>
  <use href="#icon"/>
</svg>
