<svg xmlns="http://www.w3.org/2000/svg">
  <symbol id="icon" fill="none" viewBox="0 0 16 16"><path fill="currentColor" d="M2.5 12a.5.5 0 0 1 .49.4l.02.2c.04.196.194.35.39.39l.2.02a.501.501 0 0 1-.1.99 1.5 1.5 0 0 1-1.492-1.347L2 12.5l.01-.1a.501.501 0 0 1 .49-.4ZM7 13a.5.5 0 0 1 0 1H5.5a.5.5 0 0 1 0-1H7Zm3.5 0a.5.5 0 0 1 0 1H9a.5.5 0 0 1 0-1h1.5Zm3-1a.5.5 0 0 1 .5.5l-.008.153A1.5 1.5 0 0 1 12.5 14a.5.5 0 0 1 0-1 .5.5 0 0 0 .49-.4l.01-.1.01-.1a.501.501 0 0 1 .49-.4ZM11 8.5a1 1 0 0 1 1 1V11a1 1 0 0 1-1 1H9.5a1 1 0 0 1-1-1V9.5a1 1 0 0 1 1-1H11Zm-8.5 0A.5.5 0 0 1 3 9v1.5a.5.5 0 0 1-1 0V9a.5.5 0 0 1 .5-.5Zm7 2.5H11V9.5H9.5V11Zm4-2.5a.5.5 0 0 1 .5.5v1.5l-.01.1a.5.5 0 0 1-.98 0l-.01-.1V9a.5.5 0 0 1 .5-.5ZM2.5 5a.5.5 0 0 1 .5.5V7a.5.5 0 0 1-1 0V5.5a.5.5 0 0 1 .5-.5Zm4-1a1 1 0 0 1 1 1v1.5a1 1 0 0 1-1 1H5a1 1 0 0 1-1-1V5a1 1 0 0 1 1-1h1.5ZM11 4a1 1 0 0 1 1 1v1.5a1 1 0 0 1-1 1H9.5a1 1 0 0 1-1-1V5a1 1 0 0 1 1-1H11Zm2.5 1a.5.5 0 0 1 .5.5V7l-.01.1A.5.5 0 0 1 13 7V5.5a.5.5 0 0 1 .5-.5ZM5 6.5h1.5V5H5v1.5Zm4.5 0H11V5H9.5v1.5ZM3.5 2a.5.5 0 0 1 0 1c-.276 0-.5.224-.501.5a.5.5 0 1 1-1 0c0-.828.673-1.5 1.501-1.5Zm9 0a1.5 1.5 0 0 1 1.499 1.5.5.5 0 1 1-1 0A.5.5 0 0 0 12.5 3l-.1-.01a.5.5 0 0 1 0-.98l.1-.01Zm-5.4.01A.5.5 0 0 1 7 3H5.5l-.1-.01a.5.5 0 0 1-.002-.98L5.5 2h1.499l.102.01Zm3.5 0a.501.501 0 0 1-.1.99H9a.5.5 0 0 1-.001-1h1.5l.102.01Z"/></symbol>
  <symbol id="icon-large" fill="none" viewBox="0 0 24 24"><path fill="currentColor" d="M3.5 18a.5.5 0 0 1 .5.5v1a.5.5 0 0 0 .5.5h1a.5.5 0 0 1 0 1h-1A1.5 1.5 0 0 1 3 19.5v-1a.5.5 0 0 1 .5-.5Zm7 2a.5.5 0 0 1 0 1h-2a.5.5 0 0 1 0-1h2Zm5 0a.5.5 0 0 1 0 1h-2a.5.5 0 0 1 0-1h2Zm5-2a.5.5 0 0 1 .5.5v1a1.5 1.5 0 0 1-1.5 1.5h-1a.5.5 0 0 1 0-1h1a.5.5 0 0 0 .5-.5v-1a.5.5 0 0 1 .5-.5ZM17 13a1 1 0 0 1 1 1v3a1 1 0 0 1-1 1h-3a1 1 0 0 1-1-1v-3a1 1 0 0 1 1-1h3Zm-3 4h3v-3h-3v3ZM3.5 13a.5.5 0 0 1 .5.5v2a.5.5 0 0 1-1 0v-2a.5.5 0 0 1 .5-.5Zm17 0a.5.5 0 0 1 .5.5v2a.5.5 0 0 1-1 0v-2a.5.5 0 0 1 .5-.5Zm-17-5a.5.5 0 0 1 .5.5v2a.5.5 0 0 1-1 0v-2a.5.5 0 0 1 .5-.5ZM10 6a1 1 0 0 1 1 1v3a1 1 0 0 1-1 1H7a1 1 0 0 1-1-1V7a1 1 0 0 1 1-1h3Zm7 0a1 1 0 0 1 1 1v3a1 1 0 0 1-1 1h-3a1 1 0 0 1-1-1V7a1 1 0 0 1 1-1h3Zm3.5 2a.5.5 0 0 1 .5.5v2a.5.5 0 0 1-1 0v-2a.5.5 0 0 1 .5-.5ZM7 10h3V7H7v3Zm7 0h3V7h-3v3ZM5.5 3a.5.5 0 0 1 0 1h-1a.5.5 0 0 0-.5.5v1a.5.5 0 0 1-1 0v-1A1.5 1.5 0 0 1 4.5 3h1Zm14 0A1.5 1.5 0 0 1 21 4.5v1a.5.5 0 0 1-1 0v-1a.5.5 0 0 0-.5-.5h-1a.5.5 0 0 1 0-1h1Zm-9 0a.5.5 0 0 1 0 1h-2a.5.5 0 0 1 0-1h2Zm5 0a.5.5 0 0 1 0 1h-2a.5.5 0 0 1 0-1h2Z"/></symbol>
  <use href="#icon"/>
</svg>
