<svg xmlns="http://www.w3.org/2000/svg">
  <symbol id="icon" fill="none" viewBox="0 0 16 16"><path fill="currentColor" fill-rule="evenodd" d="M2 8a6 6 0 1 1 12 0A6 6 0 0 1 2 8Zm6-7a7 7 0 1 0 0 14A7 7 0 0 0 8 1Zm0 11.5a1 1 0 1 0 0-2 1 1 0 0 0 0 2ZM9 8a1 1 0 1 1-2 0 1 1 0 0 1 2 0ZM8 5.5a1 1 0 1 0 0-2 1 1 0 0 0 0 2Z" clip-rule="evenodd"/></symbol>
  <symbol id="icon-large" fill="none" viewBox="0 0 24 24"><path fill="currentColor" fill-rule="evenodd" d="M3 12a9 9 0 1 1 18 0 9 9 0 0 1-18 0Zm9-10C6.477 2 2 6.477 2 12s4.477 10 10 10 10-4.477 10-10S17.523 2 12 2Zm0 16.25a1.25 1.25 0 1 0 0-2.5 1.25 1.25 0 0 0 0 2.5ZM13.25 12a1.25 1.25 0 1 1-2.5 0 1.25 1.25 0 0 1 2.5 0ZM12 8.25a1.25 1.25 0 1 0 0-2.5 1.25 1.25 0 0 0 0 2.5Z" clip-rule="evenodd"/></symbol>
  <use href="#icon"/>
</svg>
