<svg xmlns="http://www.w3.org/2000/svg">
  <symbol id="icon" fill="none" viewBox="0 0 16 16"><path fill="currentColor" d="M12.5 2A1.5 1.5 0 0 1 14 3.5v9a1.5 1.5 0 0 1-1.5 1.5h-9A1.5 1.5 0 0 1 2 12.5v-9A1.5 1.5 0 0 1 3.5 2h9Zm-9 1a.5.5 0 0 0-.5.5v9a.5.5 0 0 0 .5.5h9a.5.5 0 0 0 .5-.5v-9a.5.5 0 0 0-.5-.5h-9Zm3.225 5.582a.5.5 0 0 1 .693.693l-.064.079-.647.646.647.646.064.079a.5.5 0 0 1-.693.693l-.079-.064L6 10.707l-.646.646a.5.5 0 1 1-.708-.707L5.293 10l-.647-.646-.064-.079a.5.5 0 0 1 .693-.693l.079.064.646.647.646-.647.079-.064ZM11.5 9.5a.5.5 0 0 1 0 1H9a.5.5 0 0 1 0-1h2.5ZM6.543 4.547a.5.5 0 0 1 .914.406l-1 2.25a.5.5 0 0 1-.66.254L5.7 7.4l-1-.75-.075-.069a.5.5 0 0 1 .588-.783l.087.052.498.373.745-1.676ZM11.5 5.5a.5.5 0 0 1 0 1H9a.5.5 0 0 1 0-1h2.5Z"/></symbol>
  <symbol id="icon-large" fill="none" viewBox="0 0 24 24"><path fill="currentColor" d="M19.5 3A1.5 1.5 0 0 1 21 4.5v15a1.5 1.5 0 0 1-1.5 1.5h-15A1.5 1.5 0 0 1 3 19.5v-15A1.5 1.5 0 0 1 4.5 3h15Zm-15 1a.5.5 0 0 0-.5.5v15a.5.5 0 0 0 .5.5h15a.5.5 0 0 0 .5-.5v-15a.5.5 0 0 0-.5-.5h-15Zm4.132 10.911a.5.5 0 0 1 .84.505l-.043.09-1.5 2.5a.5.5 0 0 1-.694.169l-.089-.072-1-1-.064-.078a.5.5 0 0 1 .693-.693l.079.064.546.547 1.171-1.95.06-.082ZM17.5 16a.5.5 0 0 1 0 1h-6a.5.5 0 0 1 0-1h6Zm-9.275-5.418a.5.5 0 0 1 .693.693l-.064.079-.647.646.647.646.064.079a.5.5 0 0 1-.693.693l-.079-.064-.646-.647-.646.646a.5.5 0 0 1-.708-.707L6.793 12l-.647-.646-.064-.079a.5.5 0 0 1 .693-.693l.079.064.646.647.646-.646.079-.065Zm9.275.918a.5.5 0 0 1 0 1h-6a.5.5 0 0 1 0-1h6ZM8.571 5.993a.5.5 0 0 1 .858.514l-1.5 2.5a.5.5 0 0 1-.783.097l-1-1-.064-.079a.5.5 0 0 1 .693-.693l.079.064.546.547 1.171-1.95ZM17.5 7a.5.5 0 0 1 0 1h-6a.5.5 0 0 1 0-1h6Z"/></symbol>
  <use href="#icon"/>
</svg>
