<svg xmlns="http://www.w3.org/2000/svg">
  <symbol id="icon" fill="none" viewBox="0 0 16 16"><path fill="currentColor" d="M8 1.5a1 1 0 0 1 .99 1.123C10.72 3.063 12 4.633 12 6.5v.692c0 1.282.416 2.529 1.185 3.554l.115.154a1 1 0 0 1-.8 1.6H10a2 2 0 0 1-4 0H3.5a1 1 0 0 1-.8-1.6l.116-.154.14-.194A5.923 5.923 0 0 0 4 7.192V6.5a4.002 4.002 0 0 1 3.008-3.876A1 1 0 0 1 8 1.5Zm-1 11a1 1 0 1 0 2 0H7Zm1-9a3 3 0 0 0-3 3v.692l-.006.28a6.923 6.923 0 0 1-1.379 3.874L3.5 11.5h9l-.115-.154a6.923 6.923 0 0 1-1.379-3.873L11 7.193V6.5a3 3 0 0 0-3-3Z"/></symbol>
  <symbol id="icon-large" fill="none" viewBox="0 0 24 24"><path fill="currentColor" fill-rule="evenodd" d="M12 3a6.5 6.5 0 0 1 6.5 6.5V14a.5.5 0 0 0 .025.158l1.062 3.184a.5.5 0 0 1-.475.658H4.888a.5.5 0 0 1-.475-.658l1.062-3.184A.5.5 0 0 0 5.5 14V9.5A6.5 6.5 0 0 1 12 3Zm8.535 14.025L19.5 13.918V9.5a7.5 7.5 0 1 0-15 0v4.418l-1.035 3.107A1.5 1.5 0 0 0 4.888 19H9a3 3 0 1 0 6 0h4.112a1.5 1.5 0 0 0 1.423-1.975ZM14 19h-4a2 2 0 1 0 4 0Z" clip-rule="evenodd"/></symbol>
  <use href="#icon"/>
</svg>
