<svg xmlns="http://www.w3.org/2000/svg">
  <symbol id="icon" fill="none" viewBox="0 0 16 16"><path fill="currentColor" d="M11 2a1.5 1.5 0 0 1 1.5 1.5V6h.5a.5.5 0 0 1 .5.5v1a4.5 4.5 0 0 1-2.5 4.03v1.97a.5.5 0 0 1-.5.5h-5a.5.5 0 0 1-.5-.5v-1.97A4.5 4.5 0 0 1 2.5 7.5v-1l.01-.098A.5.5 0 0 1 3 6h.5V3.5A1.5 1.5 0 0 1 5 2h6Zm-1 9.886A4.519 4.519 0 0 1 9 12H7c-.344 0-.678-.04-1-.114V13h4v-1.114ZM3.5 7.5A3.5 3.5 0 0 0 7 11h2a3.5 3.5 0 0 0 3.5-3.5V7h-9v.5ZM5 3a.5.5 0 0 0-.5.5V6h7V3.5A.5.5 0 0 0 11 3H5Zm2 1a.5.5 0 0 1 0 1H6a.5.5 0 0 1 0-1h1Z"/></symbol>
  <symbol id="icon-large" fill="none" viewBox="0 0 24 24"><path fill="currentColor" d="M16.5 3A1.5 1.5 0 0 1 18 4.5V10h.5a1.5 1.5 0 0 1 1.5 1.5 6.501 6.501 0 0 1-3.994 5.998l.487 2.92A.502.502 0 0 1 16 21H8a.5.5 0 0 1-.493-.582l.486-2.92A6.501 6.501 0 0 1 4 11.499 1.5 1.5 0 0 1 5.5 10H6V4.5A1.5 1.5 0 0 1 7.5 3h9Zm-1.455 14.813A6.512 6.512 0 0 1 13.5 18h-3c-.533 0-1.05-.066-1.546-.187L8.59 20h6.82l-.365-2.187ZM5.5 11a.5.5 0 0 0-.5.5 5.5 5.5 0 0 0 5.5 5.5h3a5.5 5.5 0 0 0 5.5-5.5.5.5 0 0 0-.5-.5h-13Zm2-7a.5.5 0 0 0-.5.5V10h10V4.5a.5.5 0 0 0-.5-.5h-9Zm3 1.5a.5.5 0 0 1 0 1H9a.5.5 0 0 1 0-1h1.5Z"/></symbol>
  <use href="#icon"/>
</svg>
