<svg xmlns="http://www.w3.org/2000/svg">
  <symbol id="icon" fill="none" viewBox="0 0 16 16"><path fill="currentColor" fill-rule="evenodd" d="M1.5 1a.5.5 0 0 0 0 1h13a.5.5 0 0 0 0-1h-13ZM4 5.5A1.5 1.5 0 0 1 5.5 4h5A1.5 1.5 0 0 1 12 5.5v5a1.5 1.5 0 0 1-1.5 1.5h-5A1.5 1.5 0 0 1 4 10.5v-5ZM5.5 5a.5.5 0 0 0-.5.5v5a.5.5 0 0 0 .5.5h5a.5.5 0 0 0 .5-.5v-5a.5.5 0 0 0-.5-.5h-5ZM1 14.5a.5.5 0 0 1 .5-.5h13a.5.5 0 1 1 0 1h-13a.5.5 0 0 1-.5-.5Z" clip-rule="evenodd"/></symbol>
  <symbol id="icon-large" fill="none" viewBox="0 0 24 24"><path fill="currentColor" fill-rule="evenodd" d="M3 3.5a.5.5 0 0 1 .5-.5h17a.5.5 0 0 1 0 1h-17a.5.5 0 0 1-.5-.5Zm0 17a.5.5 0 0 1 .5-.5h17a.5.5 0 0 1 0 1h-17a.5.5 0 0 1-.5-.5Zm4-11a.5.5 0 0 1 .5-.5h9a.5.5 0 0 1 .5.5v5a.5.5 0 0 1-.5.5h-9a.5.5 0 0 1-.5-.5v-5ZM7.5 8A1.5 1.5 0 0 0 6 9.5v5A1.5 1.5 0 0 0 7.5 16h9a1.5 1.5 0 0 0 1.5-1.5v-5A1.5 1.5 0 0 0 16.5 8h-9Z" clip-rule="evenodd"/></symbol>
  <use href="#icon"/>
</svg>
