<svg xmlns="http://www.w3.org/2000/svg">
  <symbol id="icon" fill="none" viewBox="0 0 16 16"><path fill="currentColor" fill-rule="evenodd" d="M2.5 2a.5.5 0 0 0-.5.5v11a.5.5 0 0 0 .5.5H9v1H2.5A1.5 1.5 0 0 1 1 13.5v-11A1.5 1.5 0 0 1 2.5 1h11A1.5 1.5 0 0 1 15 2.5V10h-1V2.5a.5.5 0 0 0-.5-.5h-11Zm7.737 8.075a.5.5 0 0 1 .487-.022l5 2.5a.5.5 0 0 1 0 .894l-5 2.5A.5.5 0 0 1 10 15.5v-5a.5.5 0 0 1 .237-.425ZM11 14.69 14.382 13 11 11.309v3.382Zm-.146-9.045a.5.5 0 0 0-.708.708L11.793 8l-.647.646.708.708 1-1a.5.5 0 0 0 0-.708l-2-2Zm-2.234-.13a.5.5 0 0 1 .364.606l-1 4a.5.5 0 0 1-.97-.242l1-4a.5.5 0 0 1 .606-.364Zm-2.767.839a.5.5 0 1 0-.708-.708l-2 2a.5.5 0 0 0 0 .708l2 2a.5.5 0 0 0 .708-.708L4.207 8l1.647-1.646Z" clip-rule="evenodd"/></symbol>
  <symbol id="icon-large" fill="none" viewBox="0 0 24 24"><path fill="currentColor" fill-rule="evenodd" d="M4.5 4a.5.5 0 0 0-.5.5v15a.5.5 0 0 0 .5.5H15v1H4.5A1.5 1.5 0 0 1 3 19.5v-15A1.5 1.5 0 0 1 4.5 3h15A1.5 1.5 0 0 1 21 4.5V15h-1V4.5a.5.5 0 0 0-.5-.5h-15Zm12.754 12.065a.5.5 0 0 1 .503.006l5 3a.5.5 0 0 1 0 .858l-5 3A.5.5 0 0 1 17 22.5v-6a.5.5 0 0 1 .254-.435ZM18 21.617l3.528-2.117L18 17.383v4.234ZM9.354 9.354a.5.5 0 1 0-.708-.708l-3 3a.5.5 0 0 0 0 .708l3 3a.5.5 0 0 0 .708-.708L6.707 12l2.647-2.646Zm3.804-.828a.5.5 0 0 1 .316.632l-2 6a.5.5 0 1 1-.948-.316l2-6a.5.5 0 0 1 .632-.316Zm2.196.12a.5.5 0 0 0-.708.708L17.293 12l-2.647 2.646a.5.5 0 0 0 .708.708l3-3a.5.5 0 0 0 0-.708l-3-3Z" clip-rule="evenodd"/></symbol>
  <use href="#icon"/>
</svg>
