<svg xmlns="http://www.w3.org/2000/svg">
  <symbol id="icon" fill="none" viewBox="0 0 16 16"><path fill="currentColor" fill-rule="evenodd" d="M3.5 4.5a2.5 2.5 0 1 1 5 0 2.5 2.5 0 0 1-5 0ZM6 1a3.5 3.5 0 1 0 0 7 3.5 3.5 0 0 0 0-7Zm4.4 2.04a2 2 0 0 1 0 3.92l.2.98a3 3 0 0 0 0-5.88l-.2.98Zm.058 6.479c1.74.145 3.14 1.13 3.783 3a.317.317 0 0 1-.057.314.467.467 0 0 1-.364.167H12.5v1h1.32c.893 0 1.7-.837 1.367-1.807-.775-2.254-2.52-3.493-4.645-3.67l-.084.996Zm-7.205 1.085c-.697.698-1.2 1.696-1.52 2.874-.066.242.12.522.447.522h7.64c.327 0 .513-.28.447-.522-.32-1.178-.823-2.176-1.52-2.874C8.06 9.917 7.167 9.5 6 9.5c-1.168 0-2.061.417-2.747 1.104Zm-.707-.707C3.416 9.026 4.563 8.5 6 8.5c1.437 0 2.584.526 3.454 1.397.86.86 1.429 2.035 1.778 3.318.259.951-.504 1.785-1.412 1.785H2.18c-.908 0-1.671-.834-1.412-1.785.35-1.283.919-2.458 1.778-3.318Z" clip-rule="evenodd"/></symbol>
  <symbol id="icon-large" fill="none" viewBox="0 0 24 24"><path fill="currentColor" fill-rule="evenodd" d="M11 7a3 3 0 1 1-6 0 3 3 0 0 1 6 0Zm1 0a4 4 0 1 1-8 0 4 4 0 0 1 8 0Zm7 .5a2.5 2.5 0 1 1-5 0 2.5 2.5 0 0 1 5 0Zm1 0a3.5 3.5 0 1 1-7 0 3.5 3.5 0 0 1 7 0Zm-5.324 5.824c.56-.21 1.17-.324 1.824-.324 2.89 0 5.091 2.258 5.45 5.555.023.217-.157.445-.45.445H17v1h4.5c.812 0 1.54-.671 1.444-1.553-.4-3.683-2.93-6.447-6.444-6.447-.771 0-1.502.135-2.176.388l.352.936ZM8 13c-3.352 0-5.63 2.697-5.96 6.543-.02.23.171.457.46.457h11c.289 0 .48-.227.46-.457C13.63 15.697 11.352 13 8 13Zm-6.956 6.458C1.401 15.288 3.955 12 8 12s6.599 3.288 6.956 7.458c.075.87-.64 1.542-1.456 1.542h-11c-.816 0-1.53-.672-1.456-1.542Z" clip-rule="evenodd"/></symbol>
  <use href="#icon"/>
</svg>
