<svg xmlns="http://www.w3.org/2000/svg">
  <symbol id="icon" fill="none" viewBox="0 0 16 16"><path fill="currentColor" fill-rule="evenodd" d="M14.5 1a.5.5 0 0 1 .5.5v13a.5.5 0 0 1-1 0v-13a.5.5 0 0 1 .5-.5ZM1 4a1 1 0 0 1 1-1h10.001a1 1 0 0 1 1 1v2a1 1 0 0 1-1 1H2a1 1 0 0 1-1-1V4Zm11.001 0H2v2h10.001V4ZM5 9a1 1 0 0 0-1 1v2a1 1 0 0 0 1 1h7a1 1 0 0 0 1-1v-2a1 1 0 0 0-1-1H5Zm0 1h7v2H5v-2Z" clip-rule="evenodd"/></symbol>
  <symbol id="icon-large" fill="none" viewBox="0 0 24 24"><path fill="currentColor" fill-rule="evenodd" d="M20.5 3a.5.5 0 0 1 .5.5v17a.5.5 0 0 1-1 0v-17a.5.5 0 0 1 .5-.5ZM3 7.5A1.5 1.5 0 0 1 4.5 6h12A1.5 1.5 0 0 1 18 7.5v2a1.5 1.5 0 0 1-1.5 1.5h-12A1.5 1.5 0 0 1 3 9.5v-2ZM4.5 7a.5.5 0 0 0-.5.5v2a.5.5 0 0 0 .5.5h12a.5.5 0 0 0 .5-.5v-2a.5.5 0 0 0-.5-.5h-12Zm4 6A1.5 1.5 0 0 0 7 14.5v2A1.5 1.5 0 0 0 8.5 18h8a1.5 1.5 0 0 0 1.5-1.5v-2a1.5 1.5 0 0 0-1.5-1.5h-8ZM8 14.5a.5.5 0 0 1 .5-.5h8a.5.5 0 0 1 .5.5v2a.5.5 0 0 1-.5.5h-8a.5.5 0 0 1-.5-.5v-2Z" clip-rule="evenodd"/></symbol>
  <use href="#icon"/>
</svg>
