<svg xmlns="http://www.w3.org/2000/svg">
  <symbol id="icon" fill="none" viewBox="0 0 16 16"><path fill="currentColor" fill-rule="evenodd" d="M1.5 3a.5.5 0 0 0 0 1h13a.5.5 0 0 0 0-1h-13ZM1 8a.5.5 0 0 1 .5-.5h7a.5.5 0 0 1 0 1h-7A.5.5 0 0 1 1 8Zm0 4.5a.5.5 0 0 1 .5-.5h10a.5.5 0 0 1 0 1h-10a.5.5 0 0 1-.5-.5Z" clip-rule="evenodd"/></symbol>
  <symbol id="icon-large" fill="none" viewBox="0 0 24 24"><path fill="currentColor" fill-rule="evenodd" d="M3.5 4a.5.5 0 0 0 0 1h17a.5.5 0 0 0 0-1h-17ZM3 9.5a.5.5 0 0 1 .5-.5h10a.5.5 0 0 1 0 1h-10a.5.5 0 0 1-.5-.5Zm.5 4.5a.5.5 0 0 0 0 1h17a.5.5 0 0 0 0-1h-17Zm0 5a.5.5 0 0 0 0 1h10a.5.5 0 0 0 0-1h-10Z" clip-rule="evenodd"/></symbol>
  <use href="#icon"/>
</svg>
