<svg xmlns="http://www.w3.org/2000/svg">
  <symbol id="icon" fill="none" viewBox="0 0 16 16"><path fill="currentColor" fill-rule="evenodd" d="M2 2.5a.5.5 0 0 1 .5-.5h3.264a.5.5 0 0 1 .224.053l1.577.789A1.5 1.5 0 0 0 8.236 3H13.5a.5.5 0 0 1 .5.5v1.585A1.498 1.498 0 0 0 13.5 5h-11c-.175 0-.344.03-.5.085V2.5Zm0 4v7a.5.5 0 0 0 .5.5H9v1H2.5A1.5 1.5 0 0 1 1 13.5v-11A1.5 1.5 0 0 1 2.5 1h3.264a1.5 1.5 0 0 1 .67.158l1.578.79A.5.5 0 0 0 8.236 2H13.5A1.5 1.5 0 0 1 15 3.5V8h-1V6.499A.5.5 0 0 0 13.5 6h-11a.5.5 0 0 0-.5.5Zm11.146 2.646a.5.5 0 0 0 0 .708L14.293 11H13a3 3 0 0 0-3 3v1.5a.5.5 0 0 0 1 0V14a2 2 0 0 1 2-2h1.293l-1.147 1.146a.5.5 0 0 0 .708.708l2-2a.5.5 0 0 0 0-.708l-2-2a.5.5 0 0 0-.708 0Z" clip-rule="evenodd"/></symbol>
  <symbol id="icon-large" fill="none" viewBox="0 0 24 24"><path fill="currentColor" fill-rule="evenodd" d="M3 4.5a.5.5 0 0 1 .5-.5h6.086a.5.5 0 0 1 .353.146l1.415 1.415a1.5 1.5 0 0 0 1.06.439H20.5a.5.5 0 0 1 .5.5v1.585A1.498 1.498 0 0 0 20.5 8h-17c-.175 0-.344.03-.5.085V4.5Zm-1 5v-5A1.5 1.5 0 0 1 3.5 3h6.086a1.5 1.5 0 0 1 1.06.44l1.415 1.414a.5.5 0 0 0 .353.146H20.5A1.5 1.5 0 0 1 22 6.5V13h-1V9.5a.5.5 0 0 0-.5-.5h-17a.5.5 0 0 0-.5.5v10a.5.5 0 0 0 .5.5H14v1H3.5A1.5 1.5 0 0 1 2 19.5v-10Zm18.354 5.146a.5.5 0 0 0-.708.708L21.293 17H20a4 4 0 0 0-4 4v1.5a.5.5 0 0 0 1 0V21a3 3 0 0 1 3-3h1.293l-1.647 1.646a.5.5 0 0 0 .708.708l2.5-2.5a.5.5 0 0 0 0-.708l-2.5-2.5Z" clip-rule="evenodd"/></symbol>
  <use href="#icon"/>
</svg>
