<svg xmlns="http://www.w3.org/2000/svg">
  <symbol id="icon" fill="none" viewBox="0 0 16 16"><path fill="currentColor" d="M2.061 10.76a.5.5 0 0 1 .678-.199l5.021 2.738a.5.5 0 0 0 .479 0l5.021-2.738a.5.5 0 0 1 .479.878l-5.02 2.738c-.448.244-.99.244-1.438 0l-5.02-2.738a.5.5 0 0 1-.2-.679Zm0-3a.5.5 0 0 1 .678-.199l5.021 2.738a.5.5 0 0 0 .479 0l5.021-2.738a.5.5 0 0 1 .479.877l-5.02 2.74a1.51 1.51 0 0 1-1.438 0l-5.02-2.74a.5.5 0 0 1-.2-.678Zm5.22-5.938c.448-.244.99-.244 1.438 0l5.02 2.739a.5.5 0 0 1 0 .877l-5.02 2.74a1.51 1.51 0 0 1-1.438 0l-5.02-2.74a.5.5 0 0 1 0-.877l5.02-2.74ZM3.543 5 7.76 7.3a.5.5 0 0 0 .478 0l.523-.287-1.95-1.56a1.861 1.861 0 0 0-.573-.298l-1.85-.617L3.542 5Zm4.696-2.3a.5.5 0 0 0-.479 0L5.319 4.03l1.533.512c.374.125.699.294.951.497L9.66 6.524 12.456 5 8.239 2.7Zm.952 1.987c.299-.172.783-.172 1.082 0 .3.173.3.452 0 .625-.299.173-.783.173-1.082 0-.299-.173-.299-.452 0-.625Z"/></symbol>
  <symbol id="icon-large" fill="none" viewBox="0 0 24 24"><path fill="currentColor" d="M20.246 15.57a.5.5 0 0 1 .508.861l-8.5 5a.503.503 0 0 1-.508 0l-8.5-5a.5.5 0 0 1 .508-.861L12 20.42l8.246-4.85Zm0-4a.5.5 0 0 1 .508.861l-8.5 5a.503.503 0 0 1-.508 0l-8.5-5a.5.5 0 0 1 .508-.861L12 16.42l8.246-4.85Zm-8.5-9a.502.502 0 0 1 .508 0l8.5 5a.5.5 0 0 1 0 .861l-8.5 5a.503.503 0 0 1-.508 0l-8.5-5a.5.5 0 0 1 0-.861l8.5-5ZM4.486 8 12 12.42l1.181-.695v-1.164c0-.29-.368-.534-.864-.575-1.24-.103-2.091-.774-1.886-1.487l.15-.518c.181-.628-.6-1.212-1.697-1.27l-2.027-.107L4.485 8Zm3.479-2.047 1.029.054c1.807.095 3.093 1.056 2.795 2.09l-.15.518c-.092.321.292.624.851.67 1.1.091 1.916.635 1.916 1.276v.443L19.513 8 12 3.58 7.965 5.953ZM14.616 7.5c.478-.276 1.254-.276 1.732 0 .478.277.478.724 0 1-.478.277-1.254.277-1.732 0-.478-.276-.478-.723 0-1Z"/></symbol>
  <use href="#icon"/>
</svg>
