<svg xmlns="http://www.w3.org/2000/svg">
  <symbol id="icon" fill="none" viewBox="0 0 16 16"><path fill="currentColor" d="M13.5 2A1.5 1.5 0 0 1 15 3.5v9a1.5 1.5 0 0 1-1.5 1.5h-11A1.5 1.5 0 0 1 1 12.5v-9A1.5 1.5 0 0 1 2.5 2h11Zm-11 1a.5.5 0 0 0-.5.5v9a.5.5 0 0 0 .5.5h11a.5.5 0 0 0 .5-.5v-9a.5.5 0 0 0-.5-.5h-11Zm5.225 1.082a.5.5 0 0 1 .629.064l1 1 .064.079a.5.5 0 0 1-.693.693l-.079-.064-.146-.147V7.5h2.793l-.146-.146-.065-.079a.5.5 0 0 1 .693-.693l.079.064 1 1a.5.5 0 0 1 0 .708l-1 1a.5.5 0 1 1-.707-.708l.146-.146H8.5v1.793l.146-.146a.5.5 0 1 1 .708.707l-1 1a.5.5 0 0 1-.708 0l-1-1-.064-.079a.5.5 0 0 1 .693-.693l.079.064.146.147V8.5H4.707l.147.146.064.079a.5.5 0 0 1-.693.693l-.079-.064-1-1a.5.5 0 0 1 0-.708l1-1a.5.5 0 1 1 .708.708l-.147.146H7.5V5.707l-.146.147a.5.5 0 1 1-.708-.708l1-1 .079-.064Z"/></symbol>
  <symbol id="icon-large" fill="none" viewBox="0 0 24 24"><path fill="currentColor" d="M20.5 4A1.5 1.5 0 0 1 22 5.5v13a1.5 1.5 0 0 1-1.5 1.5h-17A1.5 1.5 0 0 1 2 18.5v-13A1.5 1.5 0 0 1 3.5 4h17Zm-17 1a.5.5 0 0 0-.5.5v13a.5.5 0 0 0 .5.5h17a.5.5 0 0 0 .5-.5v-13a.5.5 0 0 0-.5-.5h-17ZM12 6a.5.5 0 0 1 .354.146l1.5 1.5.064.079a.501.501 0 0 1-.693.693l-.078-.064-.647-.647V11.5h5.793l-.646-.646-.064-.079a.5.5 0 0 1 .693-.693l.078.064 1.5 1.5a.5.5 0 0 1 0 .707l-1.5 1.5a.5.5 0 0 1-.707-.707l.646-.646H12.5v3.793l.647-.646a.5.5 0 0 1 .707.707l-1.5 1.5a.5.5 0 0 1-.707 0l-1.5-1.5-.065-.079a.5.5 0 0 1 .694-.693l.078.064.646.647V12.5H5.707l.647.646.064.079a.501.501 0 0 1-.693.693l-.078-.064-1.5-1.5a.5.5 0 0 1 0-.707l1.5-1.5a.5.5 0 0 1 .707.707l-.647.646H11.5V7.707l-.646.647a.5.5 0 0 1-.707-.708l1.5-1.5.076-.062A.501.501 0 0 1 12 6Z"/></symbol>
  <use href="#icon"/>
</svg>
