<svg xmlns="http://www.w3.org/2000/svg">
  <symbol id="icon" fill="none" viewBox="0 0 16 16"><path fill="currentColor" d="M13.25 4.392a.5.5 0 0 1 .5.865l-2.94 1.699a2.991 2.991 0 0 1-2.31 4.001V13.5a.5.5 0 0 1-1 0v-2.543a2.992 2.992 0 0 1-2.31-4.002L2.25 5.258a.5.5 0 0 1 .5-.865l2.937 1.695A2.995 2.995 0 0 1 8 5c.93 0 1.76.423 2.311 1.087l2.939-1.695ZM8 6a2 2 0 1 0 0 4.001 2 2 0 0 0 0-4Zm0 1.25a.75.75 0 1 1 0 1.5.75.75 0 0 1 0-1.5Z"/></symbol>
  <symbol id="icon-large" fill="none" viewBox="0 0 24 24"><path fill="currentColor" d="M20.24 6.38a.5.5 0 0 1 .52.853l-5.114 3.125a4 4 0 0 1-3.146 5.61V20.5a.5.5 0 0 1-1 0v-4.532a4 4 0 0 1-3.147-5.61L3.239 7.233a.5.5 0 0 1 .522-.854l5.113 3.125A3.993 3.993 0 0 1 12 8c1.265 0 2.392.588 3.125 1.504l5.114-3.125ZM12 9a3 3 0 1 0 0 6 3 3 0 0 0 0-6Zm0 1a2 2 0 1 1 0 4 2 2 0 0 1 0-4Zm0 1a1 1 0 1 0 0 2 1 1 0 0 0 0-2Z"/></symbol>
  <use href="#icon"/>
</svg>
