<svg xmlns="http://www.w3.org/2000/svg">
  <symbol id="icon" fill="none" viewBox="0 0 16 16"><path fill="currentColor" d="M13.5 13a.5.5 0 0 1 0 1h-11a.5.5 0 0 1 0-1h11Zm-4-8A1.5 1.5 0 0 1 11 6.5v3A1.5 1.5 0 0 1 9.5 11h-3A1.5 1.5 0 0 1 5 9.5v-3A1.5 1.5 0 0 1 6.5 5h3Zm-3 1a.5.5 0 0 0-.5.5v3a.5.5 0 0 0 .5.5h3a.5.5 0 0 0 .5-.5v-3a.5.5 0 0 0-.5-.5h-3Zm7-4a.5.5 0 0 1 0 1h-11a.5.5 0 0 1 0-1h11Z"/></symbol>
  <symbol id="icon-large" fill="none" viewBox="0 0 24 24"><path fill="currentColor" fill-rule="evenodd" d="M20.5 3a.5.5 0 0 1 0 1h-17a.5.5 0 0 1 0-1h17Zm0 17a.5.5 0 0 1 0 1h-17a.5.5 0 0 1 0-1h17Zm-4-11a.5.5 0 0 1 .5.5v5a.5.5 0 0 1-.5.5h-9a.5.5 0 0 1-.5-.5v-5a.5.5 0 0 1 .5-.5h9Zm0 7a1.5 1.5 0 0 0 1.5-1.5v-5A1.5 1.5 0 0 0 16.5 8h-9A1.5 1.5 0 0 0 6 9.5v5A1.5 1.5 0 0 0 7.5 16h9Z" clip-rule="evenodd"/></symbol>
  <use href="#icon"/>
</svg>
