<svg xmlns="http://www.w3.org/2000/svg">
  <symbol id="icon" fill="none" viewBox="0 0 16 16"><path fill="currentColor" fill-rule="evenodd" d="M1 3.5A1.5 1.5 0 0 1 2.5 2h11A1.5 1.5 0 0 1 15 3.5v3a.5.5 0 0 1-.5.5h-13a.5.5 0 0 1-.5-.5v-3ZM2.5 3a.5.5 0 0 0-.5.5V6h12V3.5a.5.5 0 0 0-.5-.5h-11Zm-1 5a.5.5 0 0 1 .5.5V10a.5.5 0 0 1-1 0V8.5a.5.5 0 0 1 .5-.5Zm13 0a.5.5 0 0 1 .5.5V10a.5.5 0 0 1-1 0V8.5a.5.5 0 0 1 .5-.5Zm-13 3.5a.5.5 0 0 1 .5.5v.5a.5.5 0 0 0 .5.5H3a.5.5 0 0 1 0 1h-.5A1.5 1.5 0 0 1 1 12.5V12a.5.5 0 0 1 .5-.5Zm13 0a.5.5 0 0 1 .5.5v.5a1.5 1.5 0 0 1-1.5 1.5H13a.5.5 0 0 1 0-1h.5a.5.5 0 0 0 .5-.5V12a.5.5 0 0 1 .5-.5Zm-10 2A.5.5 0 0 1 5 13h2a.5.5 0 0 1 0 1H5a.5.5 0 0 1-.5-.5Zm4 0A.5.5 0 0 1 9 13h2a.5.5 0 0 1 0 1H9a.5.5 0 0 1-.5-.5Zm2-9.5a.5.5 0 0 0 0 1h2a.5.5 0 0 0 0-1h-2Z" clip-rule="evenodd"/></symbol>
  <symbol id="icon-large" fill="none" viewBox="0 0 24 24"><path fill="currentColor" fill-rule="evenodd" d="M3.5 4A1.5 1.5 0 0 0 2 5.5v4a.5.5 0 0 0 1 0V9h18v.5a.5.5 0 0 0 1 0v-4A1.5 1.5 0 0 0 20.5 4h-17ZM21 8V5.5a.5.5 0 0 0-.5-.5h-17a.5.5 0 0 0-.5.5V8h18Zm-4-1.5a.5.5 0 0 1 .5-.5h2a.5.5 0 0 1 0 1h-2a.5.5 0 0 1-.5-.5Zm-14 6a.5.5 0 0 0-1 0v2a.5.5 0 0 0 1 0v-2Zm19 0a.5.5 0 0 0-1 0v2a.5.5 0 0 0 1 0v-2Zm-19 5a.5.5 0 0 0-1 0v1A1.5 1.5 0 0 0 3.5 20h1a.5.5 0 0 0 0-1h-1a.5.5 0 0 1-.5-.5v-1Zm19 0a.5.5 0 0 0-1 0v1a.5.5 0 0 1-.5.5h-1a.5.5 0 0 0 0 1h1a1.5 1.5 0 0 0 1.5-1.5v-1ZM8 19a.5.5 0 0 0 0 1h2.5a.5.5 0 0 0 0-1H8Zm5.5 0a.5.5 0 0 0 0 1H16a.5.5 0 0 0 0-1h-2.5Z" clip-rule="evenodd"/></symbol>
  <use href="#icon"/>
</svg>
