<svg xmlns="http://www.w3.org/2000/svg">
  <symbol id="icon" fill="none" viewBox="0 0 16 16"><path fill="currentColor" d="M5.147 8.147a.5.5 0 0 1 .707.707L4.207 10.5H11.5a.5.5 0 0 1 0 1H4.207l1.647 1.647.064.078a.501.501 0 0 1-.693.693l-.078-.064-2.5-2.5a.5.5 0 0 1 0-.707l2.5-2.5Zm5-5.866a.5.5 0 0 1 .629-.065l.078.065 2.5 2.5a.5.5 0 0 1 0 .707l-2.5 2.5a.5.5 0 0 1-.707-.707l1.78-1.78H4.5a.5.5 0 0 1 0-1h7.16l-1.513-1.513-.065-.079a.5.5 0 0 1 .065-.628Z"/></symbol>
  <symbol id="icon-large" fill="none" viewBox="0 0 24 24"><path fill="currentColor" fill-rule="evenodd" d="M16.854 3.146a.5.5 0 1 0-.707.708L19.293 7H6.5a.5.5 0 0 0 0 1h12.793l-3.146 3.146a.5.5 0 1 0 .707.707l4-4a.5.5 0 0 0 0-.707l-4-4Zm-9 9a.5.5 0 0 0-.708 0l-4 4a.5.5 0 0 0 0 .707l4 4a.5.5 0 1 0 .708-.707L4.707 17H17.5a.5.5 0 0 0 0-1H4.707l3.147-3.146a.5.5 0 0 0 0-.707Z" clip-rule="evenodd"/></symbol>
  <use href="#icon"/>
</svg>
