<svg xmlns="http://www.w3.org/2000/svg">
  <symbol id="icon" fill="currentColor" viewBox="0 0 16 16"><path fill-rule="evenodd" d="M1.961 6.807a.5.5 0 0 0-.922.386L1.5 7l-.461.193v.002l.002.004.006.013a3.404 3.404 0 0 0 .094.202A9.478 9.478 0 0 0 2.923 9.87l-1.277 1.277a.5.5 0 1 0 .708.707l1.326-1.326a7.13 7.13 0 0 0 2.174 1.145l-.801 1.603a.5.5 0 1 0 .894.448l.907-1.814a7.253 7.253 0 0 0 2.292 0l.907 1.814a.5.5 0 1 0 .894-.448l-.801-1.603a7.13 7.13 0 0 0 2.174-1.145l1.326 1.326a.5.5 0 0 0 .708-.707L13.077 9.87a9.479 9.479 0 0 0 1.782-2.456 5.53 5.53 0 0 0 .074-.158l.02-.044.006-.013.001-.004.001-.001L14.5 7l.461.193a.5.5 0 0 0-.922-.386l-.003.007-.014.03a7.227 7.227 0 0 1-.319.605c-.234.4-.593.93-1.086 1.46C11.63 9.968 10.13 11 8 11S4.369 9.968 3.383 8.91A8.478 8.478 0 0 1 2.04 6.972a4.479 4.479 0 0 1-.075-.16l-.003-.006Z" clip-rule="evenodd"/></symbol>
  <symbol id="icon-large" fill="currentColor" viewBox="0 0 24 24"><path d="M4.015 10.71a.5.5 0 1 0-.813.58c.532.745 1.21 1.534 2.052 2.25l-1.108 1.106a.5.5 0 0 0 .708.708l1.197-1.198a10.009 10.009 0 0 0 3.301 1.522l-.8 1.598a.5.5 0 1 0 .895.448l.921-1.842c.517.077 1.06.118 1.632.118.571 0 1.115-.041 1.632-.118l.92 1.842a.5.5 0 1 0 .895-.448l-.8-1.598a10.011 10.011 0 0 0 3.302-1.522l1.197 1.198a.5.5 0 0 0 .708-.708l-1.108-1.107a12.45 12.45 0 0 0 2.052-2.248.5.5 0 0 0-.813-.582C18.545 12.722 16.034 15 12 15c-4.034 0-6.546-2.278-7.985-4.29Z"/></symbol>
  <use href="#icon"/>
</svg>
