<svg xmlns="http://www.w3.org/2000/svg">
  <symbol id="icon" fill="none" viewBox="0 0 16 16"><path fill="currentColor" d="M12.044 2a1.5 1.5 0 0 1 1.5 1.432l.409 9a1.501 1.501 0 0 1-1.5 1.568H3.548a1.5 1.5 0 0 1-1.499-1.568l.41-9A1.5 1.5 0 0 1 3.956 2h8.088ZM3.957 3a.5.5 0 0 0-.5.478l-.409 9a.5.5 0 0 0 .5.522h8.907a.5.5 0 0 0 .5-.523l-.41-9a.501.501 0 0 0-.5-.477H3.957ZM10 5a.5.5 0 0 1 .5.5 2.5 2.5 0 1 1-5 0 .5.5 0 0 1 1 0 1.5 1.5 0 0 0 3 0A.5.5 0 0 1 10 5Z"/></symbol>
  <symbol id="icon-large" fill="none" viewBox="0 0 24 24"><path fill="currentColor" fill-rule="evenodd" d="M20.055 4.412A1.5 1.5 0 0 0 18.557 3H5.443a1.5 1.5 0 0 0-1.498 1.412l-.882 15A1.5 1.5 0 0 0 4.561 21h14.878a1.5 1.5 0 0 0 1.497-1.588l-.881-15Zm-15.112.059a.5.5 0 0 1 .5-.471h13.114a.5.5 0 0 1 .5.47l.882 15a.5.5 0 0 1-.5.53H4.561a.5.5 0 0 1-.5-.53l.882-15ZM8.5 7a.5.5 0 0 0-.5.5 4 4 0 0 0 8 0 .5.5 0 0 0-1 0 3 3 0 0 1-6 0 .5.5 0 0 0-.5-.5Z" clip-rule="evenodd"/></symbol>
  <use href="#icon"/>
</svg>
