<svg xmlns="http://www.w3.org/2000/svg">
  <symbol id="icon" fill="none" viewBox="0 0 16 16"><path fill="currentColor" fill-rule="evenodd" d="M7.091 1.581a1 1 0 0 1 1.817 0l1.74 3.772 3.77 1.741a1 1 0 0 1 0 1.816l-3.77 1.742-1.74 3.772a1 1 0 0 1-1.817 0l-1.74-3.772-3.77-1.742a1 1 0 0 1 0-1.816l3.77-1.74 1.74-3.773ZM9.74 5.772 8 2 6.26 5.772a1 1 0 0 1-.488.49L2 8.001l3.77 1.742a1 1 0 0 1 .49.489L8 14.005l1.74-3.772a1 1 0 0 1 .488-.49L14 8.004l-3.77-1.742a1 1 0 0 1-.49-.489Z" clip-rule="evenodd"/></symbol>
  <symbol id="icon-large" fill="none" viewBox="0 0 24 24"><path fill="currentColor" fill-rule="evenodd" d="M18.5 4a1.5 1.5 0 1 1 3 0 1.5 1.5 0 0 1-3 0ZM20 1.5a2.5 2.5 0 1 0 0 5 2.5 2.5 0 0 0 0-5Zm-8.908 1.774a1 1 0 0 1 1.816 0l2.469 5.35 5.349 2.468a1 1 0 0 1 0 1.816l-5.35 2.469-2.468 5.349a1 1 0 0 1-1.816 0l-2.469-5.35-5.349-2.468a1 1 0 0 1 0-1.816l5.35-2.469 2.468-5.349Zm.908.42L9.531 9.041a1 1 0 0 1-.489.49L3.693 12l5.35 2.469a1 1 0 0 1 .488.489L12 20.307l2.469-5.35a1 1 0 0 1 .489-.488L20.307 12l-5.35-2.469a1 1 0 0 1-.488-.489L12 3.693ZM20 17.5a.5.5 0 0 1 .5.5v1.5H22a.5.5 0 1 1 0 1h-1.5V22a.5.5 0 1 1-1 0v-1.5H18a.5.5 0 0 1 0-1h1.5V18a.5.5 0 0 1 .5-.5Z" clip-rule="evenodd"/></symbol>
  <use href="#icon"/>
</svg>
