<svg xmlns="http://www.w3.org/2000/svg">
  <symbol id="icon" fill="none" viewBox="0 0 16 16"><path fill="currentColor" d="M13.225 2.082a.5.5 0 0 1 .693.694l-.064.078L9.72 6.986c.177.297.28.643.28 1.014l-.01.204a2 2 0 0 1-3.005 1.517l-4.132 4.133a.5.5 0 1 1-.707-.707l4.132-4.133a2 2 0 0 1 2.735-2.735l4.133-4.132.079-.065ZM11 9a2 2 0 0 1 2 2l-.01.204A2 2 0 1 1 11 9Zm0 1a1 1 0 1 0 1 1l-.005-.102A1 1 0 0 0 11 10ZM8 7a1 1 0 1 0 1 1l-.005-.102A1 1 0 0 0 8 7Z"/></symbol>
  <symbol id="icon-large" fill="none" viewBox="0 0 24 24"><path fill="currentColor" d="M20.146 3.146a.5.5 0 0 1 .707.708l-7.132 7.131a2 2 0 0 1-2.735 2.735l-7.133 7.133a.5.5 0 1 1-.707-.707l7.132-7.132a2 2 0 0 1 2.735-2.735l7.133-7.133ZM15 13a2 2 0 1 1 0 4 2 2 0 0 1 0-4Zm0 1a1 1 0 1 0 0 2 1 1 0 0 0 0-2Zm-3-3a1 1 0 1 0 0 2 1 1 0 0 0 0-2Z"/></symbol>
  <use href="#icon"/>
</svg>
