<svg xmlns="http://www.w3.org/2000/svg">
  <symbol id="icon" fill="none" viewBox="0 0 16 16"><path fill="currentColor" fill-rule="evenodd" d="M10 2a1 1 0 0 0-1 1v3h-.007L8.99 7.502a.5.5 0 1 1-1-.002L7.997 4A.999.999 0 1 0 6 4v5.97a.5.5 0 0 1-.932.251l-1.46-2.509a.881.881 0 0 0-1.256-.286.896.896 0 0 0-.297 1.139c.78 1.568 1.47 2.912 2.49 3.88C5.537 13.387 6.87 14 9 14c2.789 0 5-1.837 5-4.5V5.002a1.002 1.002 0 0 0-2-.095V7.5a.5.5 0 1 1-1 0V6.002l-.004-.991c0-.048 0-.096.004-.143V3a1 1 0 0 0-1-1Zm5 7.5V5.001a2.002 2.002 0 0 0-3-1.736V3a2 2 0 0 0-3.888-.661A1.999 1.999 0 0 0 5 3.999v4.118l-.527-.907A1.881 1.881 0 0 0 1.79 6.6a1.896 1.896 0 0 0-.63 2.41c.764 1.539 1.527 3.05 2.697 4.162C5.056 14.31 6.647 15 9 15c3.21 0 5.997-2.16 6-5.494V9.5Z" clip-rule="evenodd"/></symbol>
  <symbol id="icon-large" fill="none" viewBox="0 0 24 24"><path fill="currentColor" fill-rule="evenodd" d="M14 3a1.5 1.5 0 0 0-1.5 1.5v7a.5.5 0 1 1-1 0v-6a1.5 1.5 0 1 0-3 0v9a.5.5 0 0 1-.947.224l-1.576-3.152a1.325 1.325 0 0 0-1.92-.51 1.342 1.342 0 0 0-.483 1.65c.892 2.059 1.82 4.138 3.132 5.709C7.998 19.968 9.644 21 12 21c1.903 0 3.795-.596 5.2-1.65 1.398-1.048 2.3-2.535 2.3-4.35h1c0 2.185-1.098 3.948-2.7 5.15C16.205 21.346 14.097 22 12 22c-2.712 0-4.621-1.214-6.061-2.938-1.42-1.7-2.4-3.916-3.283-5.953a2.342 2.342 0 0 1 .847-2.879 2.325 2.325 0 0 1 3.369.895l.628 1.257V5.5a2.5 2.5 0 0 1 4.156-1.872A2.5 2.5 0 0 1 16.5 4.5a2.499 2.499 0 0 1 4 1.999v8.5L20 15h-.5V6.498a1.499 1.499 0 1 0-3 .001v5a.5.5 0 1 1-1 0v-7A1.5 1.5 0 0 0 14 3Z" clip-rule="evenodd"/></symbol>
  <use href="#icon"/>
</svg>
