<svg xmlns="http://www.w3.org/2000/svg">
  <symbol id="icon" fill="none" viewBox="0 0 16 16"><path fill="currentColor" d="M13.5 10a.5.5 0 0 1 .5.5v2a1.5 1.5 0 0 1-1.5 1.5h-2a.5.5 0 0 1 0-1h2a.5.5 0 0 0 .5-.5v-2a.5.5 0 0 1 .5-.5Zm-3.447-7.25a1.5 1.5 0 0 1 2.007.103l1.086 1.086.102.115a1.5 1.5 0 0 1-.102 2.006l-7.293 7.293a.5.5 0 0 1-.353.147H3a.5.5 0 0 1-.5-.5v-2.5l.01-.098a.5.5 0 0 1 .136-.256l7.293-7.293.114-.102ZM3.5 10.708V12.5h1.792l6-6L9.5 4.707l-6 6ZM5.5 2a.5.5 0 0 1 0 1h-2a.5.5 0 0 0-.5.5v2a.5.5 0 0 1-1 0v-2A1.5 1.5 0 0 1 3.5 2h2Zm5.853 1.56a.5.5 0 0 0-.629-.063l-.078.063-.44.44L12 5.793l.44-.44a.5.5 0 0 0 0-.707L11.353 3.56Z"/></symbol>
  <symbol id="icon-large" fill="none" viewBox="0 0 24 24"><path fill="currentColor" d="M16.054 3.25a1.5 1.5 0 0 1 2.007.103l2.586 2.586.102.114a1.5 1.5 0 0 1-.102 2.007L8.854 19.853a.502.502 0 0 1-.256.137l-5 1a.5.5 0 0 1-.588-.588l1-5 .02-.071a.5.5 0 0 1 .117-.185L15.94 3.353l.114-.102ZM20.5 14a.5.5 0 0 1 .5.5v5a1.5 1.5 0 0 1-1.5 1.5h-5a.5.5 0 0 1 0-1h5a.5.5 0 0 0 .5-.5v-5a.5.5 0 0 1 .5-.5ZM4.137 19.862l3.349-.67-2.68-2.68-.669 3.35Zm1.07-4.363 3.292 3.293 9.043-9.043-3.293-3.293-9.043 9.043ZM9.5 2.999a.5.5 0 0 1 0 1h-5a.5.5 0 0 0-.5.5v5a.5.5 0 0 1-1 0v-5A1.5 1.5 0 0 1 4.5 3h5Zm7.854 1.061a.5.5 0 0 0-.707 0l-1.69 1.689 3.292 3.293 1.69-1.689a.5.5 0 0 0 .064-.629l-.063-.078-2.586-2.586Z"/></symbol>
  <use href="#icon"/>
</svg>
