<svg xmlns="http://www.w3.org/2000/svg">
  <symbol id="icon" fill="none" viewBox="0 0 16 16"><path fill="currentColor" d="M4 11.087a1.5 1.5 0 1 1-1 0V9.5h1v1.587ZM3.5 12a.5.5 0 1 0 0 1 .5.5 0 0 0 0-1ZM8 3a.5.5 0 0 1 0 1 4 4 0 0 0-4 4 .5.5 0 0 1-1 0 5 5 0 0 1 5-5Zm4.5-1a1.5 1.5 0 1 1-1.413 2H9.5V3h1.587A1.5 1.5 0 0 1 12.5 2Zm0 1a.5.5 0 1 0 0 1 .5.5 0 0 0 0-1Z"/></symbol>
  <symbol id="icon-large" fill="none" viewBox="0 0 24 24"><path fill="currentColor" d="M5 12.5a.5.5 0 0 1 .5.5v4.065A1.999 1.999 0 1 1 3 19a2 2 0 0 1 1.5-1.935V13a.5.5 0 0 1 .5-.5ZM5 18a1 1 0 1 0 0 2 1 1 0 0 0 0-2Zm6-13.5a.5.5 0 0 1 0 1A5.5 5.5 0 0 0 5.5 11a.5.5 0 0 1-1 0A6.5 6.5 0 0 1 11 4.5ZM19 3a2 2 0 1 1-1.935 2.5H13a.5.5 0 0 1 0-1h4.065A1.999 1.999 0 0 1 19 3Zm0 1a1 1 0 1 0 0 2 1 1 0 0 0 0-2Z"/></symbol>
  <use href="#icon"/>
</svg>
