<svg xmlns="http://www.w3.org/2000/svg">
  <symbol id="icon" fill="none" viewBox="0 0 16 16"><path fill="currentColor" d="M12.43 10.258a1.558 1.558 0 0 1 2.027 2.366l-2.632 2.256a.501.501 0 0 1-.325.12H10a.5.5 0 0 1-.5-.5V13l.011-.107a.503.503 0 0 1 .163-.272l2.756-2.363Zm1.408.788a.558.558 0 0 0-.756-.029l-2.583 2.213V14h.815l2.493-2.136a.558.558 0 0 0 .031-.818ZM8 9.5a5.97 5.97 0 0 1 2.483.538 3.516 3.516 0 0 0-.701.792 5.002 5.002 0 0 0-6.404 2.764c-.143.343-.578.495-.85.24a.472.472 0 0 1-.117-.514A6.001 6.001 0 0 1 8 9.5Zm0-8a3.5 3.5 0 1 1 0 7 3.5 3.5 0 0 1 0-7Zm0 1a2.5 2.5 0 1 0 0 5.001 2.5 2.5 0 0 0 0-5Z"/></symbol>
  <symbol id="icon-large" fill="none" viewBox="0 0 24 24"><path fill="currentColor" d="M19.44 15.854a1.5 1.5 0 0 1 2.12 0l.587.586a1.5 1.5 0 0 1 0 2.121l-4.293 4.293A.5.5 0 0 1 17.5 23h-2a.5.5 0 0 1-.5-.5v-2l.01-.097a.5.5 0 0 1 .137-.256l4.293-4.293ZM16 20.708V22h1.293l3-3L19 17.706l-3 3ZM12 12c2.502 0 4.498.963 5.929 2.518l-.738.672C15.926 13.822 14.174 13 12 13c-3.953 0-6.512 2.713-7.284 6.496-.05.241.142.503.454.503H13v1H5.17c-.878 0-1.622-.778-1.433-1.703C4.58 15.17 7.46 12.001 12 12.001Zm8.854 4.56a.5.5 0 0 0-.707 0l-.44.44L21 18.293l.44-.44a.5.5 0 0 0 0-.707l-.586-.586ZM12 3.001a4 4 0 1 1 0 8 4 4 0 0 1 0-8Zm0 1a3 3 0 1 0 0 6 3 3 0 0 0 0-6Z"/></symbol>
  <use href="#icon"/>
</svg>
