<svg xmlns="http://www.w3.org/2000/svg">
  <symbol id="icon" fill="none" viewBox="0 0 16 16"><path fill="currentColor" d="M2.5 12a.5.5 0 0 1 .5.5v.5h.5a.5.5 0 0 1 0 1h-1a.5.5 0 0 1-.5-.5v-1a.5.5 0 0 1 .5-.5ZM6 13a.5.5 0 0 1 0 1h-.5a.5.5 0 0 1 0-1H6Zm2.5 0a.5.5 0 0 1 0 1H8a.5.5 0 0 1 0-1h.5Zm2.5 0a.5.5 0 0 1 0 1h-.5a.5.5 0 0 1 0-1h.5Zm2.5 0a.5.5 0 0 1 0 1H13a.5.5 0 0 1 0-1h.5ZM4.647 3.647a.5.5 0 1 1 .707.707L4.707 5H5a6 6 0 0 1 6 6v.293l.647-.646a.5.5 0 0 1 .707.707l-1.5 1.5a.5.5 0 0 1-.707 0l-1.5-1.5a.5.5 0 0 1 .707-.707l.646.646V11a5 5 0 0 0-5-5h-.293l.647.647a.5.5 0 0 1-.707.707l-1.5-1.5a.5.5 0 0 1 0-.707l1.5-1.5ZM2.5 9.5a.5.5 0 0 1 .5.5v.5a.5.5 0 0 1-1 0V10a.5.5 0 0 1 .5-.5Zm0-2.5a.5.5 0 0 1 .5.5V8a.5.5 0 0 1-1 0v-.5a.5.5 0 0 1 .5-.5Zm0-2.5A.5.5 0 0 1 3 5v.5a.5.5 0 0 1-1 0V5a.5.5 0 0 1 .5-.5Zm0-2.5a.5.5 0 0 1 .5.5V3a.5.5 0 0 1-1 0v-.5a.5.5 0 0 1 .5-.5Z"/></symbol>
  <symbol id="icon-large" fill="none" viewBox="0 0 24 24"><path fill="currentColor" d="M3.5 18.5a.5.5 0 0 1 .5.5v1h1a.5.5 0 0 1 0 1H3.5a.5.5 0 0 1-.5-.5V19a.5.5 0 0 1 .5-.5ZM9 20a.5.5 0 0 1 0 1H7a.5.5 0 0 1 0-1h2Zm4 0a.5.5 0 0 1 0 1h-2a.5.5 0 0 1 0-1h2Zm4 0a.5.5 0 0 1 0 1h-2a.5.5 0 0 1 0-1h2Zm3.5 0a.5.5 0 0 1 0 1H19a.5.5 0 0 1 0-1h1.5ZM7.146 5.647a.5.5 0 1 1 .707.707L6.707 7.5H8a8.5 8.5 0 0 1 8.5 8.5v1.293l1.146-1.146a.5.5 0 0 1 .707.707l-2 2a.5.5 0 0 1-.707 0l-2-2a.5.5 0 0 1 .707-.707l1.147 1.146V16A7.5 7.5 0 0 0 8 8.5H6.707l1.146 1.147a.5.5 0 0 1-.707.707l-2-2a.5.5 0 0 1 0-.707l2-2ZM3.5 14.5a.5.5 0 0 1 .5.5v2a.5.5 0 0 1-1 0v-2a.5.5 0 0 1 .5-.5Zm0-4a.5.5 0 0 1 .5.5v2a.5.5 0 0 1-1 0v-2a.5.5 0 0 1 .5-.5Zm0-4A.5.5 0 0 1 4 7v2a.5.5 0 0 1-1 0V7a.5.5 0 0 1 .5-.5Zm0-3.5a.5.5 0 0 1 .5.5V5a.5.5 0 0 1-1 0V3.5a.5.5 0 0 1 .5-.5Z"/></symbol>
  <use href="#icon"/>
</svg>
