<svg xmlns="http://www.w3.org/2000/svg">
  <symbol id="icon" fill="none" viewBox="0 0 16 16"><path fill="currentColor" d="M10.5 1.5a4 4 0 1 1-1.116 7.842l-1.74 1.723c-.28.279-.66.435-1.055.435H6v.586a1.5 1.5 0 0 1-.44 1.06l-.706.707A.5.5 0 0 1 4.5 14h-2a.5.5 0 0 1-.5-.5v-2a.5.5 0 0 1 .146-.354l2.37-2.365 2.148-2.144A4 4 0 0 1 10.5 1.5Zm0 1a3 3 0 0 0-2.796 4.089.5.5 0 0 1-.112.535c-.977.977-1.674 1.671-2.37 2.365C4.56 10.15 3.9 10.807 3 11.707V13h1.293l.56-.56A.5.5 0 0 0 5 12.086V11a.5.5 0 0 1 .5-.5h1.089a.5.5 0 0 0 .351-.145l1.96-1.94.054-.047a.5.5 0 0 1 .476-.064A3 3 0 1 0 10.5 2.5Zm0 2a1 1 0 1 1 0 2 1 1 0 0 1 0-2Z"/></symbol>
  <symbol id="icon-large" fill="none" viewBox="0 0 24 24"><path fill="currentColor" fill-rule="evenodd" d="M15 4a5 5 0 1 1-1.9 9.627.5.5 0 0 0-.543.108L10.293 16H8.5a.5.5 0 0 0-.5.5v1.793L6.293 20H4v-2.293l6.265-6.264a.5.5 0 0 0 .108-.544A5 5 0 0 1 15 4Zm-4.627 6.9-.462.19v-.001l.462-.19ZM15 15a6 6 0 1 0-5.67-4.036l-6.184 6.182A.5.5 0 0 0 3 17.5v3a.5.5 0 0 0 .5.5h3a.5.5 0 0 0 .354-.146l2-2A.5.5 0 0 0 9 18.5V17h1.5a.5.5 0 0 0 .354-.146l2.181-2.184c.616.213 1.277.33 1.965.33Zm0-7a1 1 0 1 1 0 2 1 1 0 0 1 0-2Zm0 3a2 2 0 1 0 0-4 2 2 0 0 0 0 4Z" clip-rule="evenodd"/></symbol>
  <use href="#icon"/>
</svg>
